<svg xmlns="http://www.w3.org/2000/svg" xmlns:xlink="http://www.w3.org/1999/xlink" width="505" height="300.674" viewBox="0 0 505 300.674">
  <defs>
    <clipPath id="clip-path">
      <rect id="Rectángulo_294948" data-name="Rectángulo 294948" width="505" height="300.674" fill="none"/>
    </clipPath>
    <clipPath id="clip-path-4">
      <rect id="Rectángulo_294952" data-name="Rectángulo 294952" width="7.579" height="6.138" fill="none"/>
    </clipPath>
    <clipPath id="clip-path-5">
      <rect id="Rectángulo_294953" data-name="Rectángulo 294953" width="5.286" height="8.464" fill="none"/>
    </clipPath>
    <clipPath id="clip-path-6">
      <rect id="Rectángulo_294954" data-name="Rectángulo 294954" width="48.202" height="58.636" fill="#a3314f"/>
    </clipPath>
    <clipPath id="clip-path-7">
      <rect id="Rectángulo_294955" data-name="Rectángulo 294955" width="7.58" height="6.138" fill="#a3314f"/>
    </clipPath>
    <clipPath id="clip-path-8">
      <rect id="Rectángulo_294956" data-name="Rectángulo 294956" width="5.286" height="8.464" fill="#a3314f"/>
    </clipPath>
  </defs>
  <g id="Grupo_238066" data-name="Grupo 238066" transform="translate(0)">
    <g id="Grupo_238067" data-name="Grupo 238067" transform="translate(0)">
      <g id="Grupo_238034" data-name="Grupo 238034" transform="translate(0 1.16)">
        <g id="Grupo_238068" data-name="Grupo 238068">
          <path id="Trazado_266219" data-name="Trazado 266219" d="M464.34,277.8a109.64,109.64,0,0,0,40.626-84.142c.284-20.6-1.195-46.468-8.112-68.6C474.035,52.026,409.566,12.42,362.4,3.972s-95.736,7.039-132.34,31.677-33.085,20.414-95.736,11.263S20.288,64.511,3.394,113.787s34.487,77.2,40.122,103.01-4.221,71.567,93.627,82.83,127.413-43.644,175.985-28.158c39.085,12.462,97.315,49.538,151.214,6.326" transform="translate(0 -1.648)" fill="#92e3a9"/>
          <g id="Grupo_238032" data-name="Grupo 238032" opacity="0.7">
            <g id="Grupo_238031" data-name="Grupo 238031">
              <g id="Grupo_238069" data-name="Grupo 238069">
                <path id="Trazado_266220" data-name="Trazado 266220" d="M464.34,277.8a109.64,109.64,0,0,0,40.626-84.142c.284-20.6-1.195-46.468-8.112-68.6C474.035,52.026,409.566,12.42,362.4,3.972s-95.736,7.039-132.34,31.677-33.085,20.414-95.736,11.263S20.288,64.511,3.394,113.787s34.487,77.2,40.122,103.01-4.221,71.567,93.627,82.83,127.413-43.644,175.985-28.158c39.085,12.462,97.315,49.538,151.214,6.326" transform="translate(0 -1.648)" fill="#e77a97"/>
              </g>
            </g>
          </g>
        </g>
      </g>
      <g id="Grupo_238036" data-name="Grupo 238036" transform="translate(0)">
        <g id="Grupo_238035" data-name="Grupo 238035" clip-path="url(#clip-path)">
          <path id="Trazado_266221" data-name="Trazado 266221" d="M90.128,39.7c-.994-1.031-2.719-1.98-5.71-2.053-6.724-.164-4.921,4.592-6.724,5.741s-2.3-.656-4.1.492-.984,3.444-2.46,3.772-3.444-1.476-5.249-.328-1.8,2.132-2.624,2.132-2.46-.656-3.444,0-2.132,1.476-2.132,1.476h17.61" transform="translate(-17.078 -11.145)" fill="none" stroke="#263238" stroke-linecap="round" stroke-linejoin="round" stroke-width="1"/>
          <path id="Trazado_266222" data-name="Trazado 266222" d="M105.936,43.913c-.16-.077-.33-.156-.51-.233a4.413,4.413,0,0,0-.6-1.73" transform="translate(-31.034 -12.42)" fill="none" stroke="#263238" stroke-linecap="round" stroke-linejoin="round" stroke-width="1"/>
          <path id="Trazado_266223" data-name="Trazado 266223" d="M85.9,53.229h21.629a2.118,2.118,0,0,0-1.312-2.46c-1.8-.984-2.624-.164-3.28-.984-.584-.73,1.3-2.5-1.751-4.386" transform="translate(-25.433 -13.441)" fill="none" stroke="#263238" stroke-linecap="round" stroke-linejoin="round" stroke-width="1"/>
          <path id="Trazado_266224" data-name="Trazado 266224" d="M378.632,114.746c-.994-1.031-2.719-1.98-5.71-2.053-6.724-.164-4.92,4.592-6.724,5.741s-2.3-.656-4.1.492-.984,3.444-2.46,3.772-3.444-1.476-5.249-.328-1.8,2.132-2.624,2.132-2.46-.656-3.444,0-2.132,1.476-2.132,1.476H363.8" transform="translate(-102.493 -33.363)" fill="none" stroke="#263238" stroke-linecap="round" stroke-linejoin="round" stroke-width="1"/>
          <path id="Trazado_266225" data-name="Trazado 266225" d="M394.44,118.957c-.16-.077-.33-.156-.51-.233a4.414,4.414,0,0,0-.6-1.73" transform="translate(-116.449 -34.637)" fill="none" stroke="#263238" stroke-linecap="round" stroke-linejoin="round" stroke-width="1"/>
          <path id="Trazado_266226" data-name="Trazado 266226" d="M374.409,128.273h21.629a2.118,2.118,0,0,0-1.312-2.46c-1.8-.984-2.624-.164-3.28-.984-.584-.73,1.3-2.5-1.751-4.386" transform="translate(-110.848 -35.659)" fill="none" stroke="#263238" stroke-linecap="round" stroke-linejoin="round" stroke-width="1"/>
          <path id="Trazado_266227" data-name="Trazado 266227" d="M571.3,10.4C569.506,8.537,566.4,6.827,561,6.7c-12.12-.3-8.868,8.278-12.12,10.346s-4.138-1.183-7.39.887-1.774,6.208-4.434,6.8-6.208-2.66-9.459-.591-3.252,3.843-4.73,3.843-4.434-1.183-6.208,0-3.843,2.66-3.843,2.66h31.74" transform="translate(-151.827 -1.98)" fill="none" stroke="#263238" stroke-linecap="round" stroke-linejoin="round" stroke-width="1"/>
          <path id="Trazado_266228" data-name="Trazado 266228" d="M599.789,17.987q-.434-.21-.919-.421a7.963,7.963,0,0,0-1.089-3.117" transform="translate(-176.98 -4.278)" fill="none" stroke="#263238" stroke-linecap="round" stroke-linejoin="round" stroke-width="1"/>
          <path id="Trazado_266229" data-name="Trazado 266229" d="M563.685,34.779h38.983s.887-2.66-2.365-4.434-4.73-.3-5.912-1.774c-1.053-1.316,2.348-4.507-3.157-7.9" transform="translate(-166.886 -6.118)" fill="none" stroke="#263238" stroke-linecap="round" stroke-linejoin="round" stroke-width="1"/>
          <path id="Trazado_266230" data-name="Trazado 266230" d="M255.217,39.967H298.1s1.461-4.384-3.9-7.307-7.793-.486-9.742-2.922,5.358-8.768-9.255-15.1c0,0-.974-13.639-20.946-14.126-8.618-.21-12.52,2.3-14.6,5.5" transform="translate(-70.955 -0.148)" fill="none" stroke="#263238" stroke-linecap="round" stroke-linejoin="round" stroke-width="1"/>
          <line id="Línea_1413" data-name="Línea 1413" x2="7.138" transform="translate(171.175 39.819)" fill="none" stroke="#263238" stroke-linecap="round" stroke-linejoin="round" stroke-width="1"/>
          <path id="Trazado_266231" data-name="Trazado 266231" d="M209.811,17.884c-.611,2.077-1.271,3.87-2.77,4.823-5.358,3.41-6.819-1.949-12.177,1.461s-2.923,10.229-7.306,11.2-10.23-4.383-15.588-.974-5.358,6.332-7.793,6.332-7.307-1.948-10.229,0-6.332,4.384-6.332,4.384h54.771" transform="translate(-43.703 -5.295)" fill="none" stroke="#263238" stroke-linecap="round" stroke-linejoin="round" stroke-width="1"/>
        </g>
      </g>
      <g id="Grupo_238038" data-name="Grupo 238038" transform="translate(62.34 9.598)">
        <g id="Grupo_238072" data-name="Grupo 238072">
          <path id="Trazado_266232" data-name="Trazado 266232" d="M393.33,33.772a32.316,32.316,0,1,1-.6,1.471" transform="translate(-177.994 -13.801)" fill="none" stroke="#263238" stroke-miterlimit="10" stroke-width="1"/>
          <path id="Trazado_266233" data-name="Trazado 266233" d="M392.8,33.472a32.7,32.7,0,1,1-.6,1.471" transform="translate(-177.828 -13.635)" fill="none" stroke="#263238" stroke-miterlimit="10" stroke-width="0.5"/>
          <path id="Trazado_266234" data-name="Trazado 266234" d="M405.181,40.536A24.057,24.057,0,1,1,404.576,42" transform="translate(-181.665 -17.475)" fill="none" stroke="#263238" stroke-miterlimit="10" stroke-width="1"/>
          <path id="Trazado_266235" data-name="Trazado 266235" d="M404.649,40.226a24.211,24.211,0,1,1-2.168,10.017,23.955,23.955,0,0,1,1.563-8.553" transform="translate(-181.499 -17.306)" fill="none" stroke="#263238" stroke-miterlimit="10" stroke-width="0.5"/>
          <path id="Trazado_266236" data-name="Trazado 266236" d="M420.288,49.178a.053.053,0,0,1,.014-.028,12.552,12.552,0,1,1-.655,1.443c.007-.021.021-.042.028-.063" transform="translate(-186.34 -22.147)" fill="none" stroke="#263238" stroke-miterlimit="10" stroke-width="1"/>
          <path id="Trazado_266237" data-name="Trazado 266237" d="M419.616,49.139l.148-.3h.007a13.092,13.092,0,1,1-1.5,6.075,12.962,12.962,0,0,1,.845-4.625" transform="translate(-186.174 -21.981)" fill="none" stroke="#263238" stroke-miterlimit="10" stroke-width="0.5"/>
          <path id="Trazado_266238" data-name="Trazado 266238" d="M402.206,43.033c-.035-.014-.07-.021-.106-.035l-.092-.035-.366-.141h-.007l-10.073-3.8-.366-.141-7.814-2.95-.366-.134L370.43,31.045l.619-4.646a.4.4,0,0,0-.232-.415l-9.954-4.463a.4.4,0,0,0-.542.493L362.342,28l-1.485-.563a.794.794,0,1,0-.563,1.485l1.549.584L357.2,33.073a.393.393,0,0,0-.141.415.384.384,0,0,0,.324.289l11.157,1.718a.175.175,0,0,0,.056.007.4.4,0,0,0,.373-.253l1.049-2.661,12.4,4.681.366.134,7.807,2.942.366.141,10.031,3.787.366.134.3.113" transform="translate(-168.046 -15.96)" fill="#a3314f" stroke="#263238" stroke-miterlimit="10" stroke-width="1"/>
          <path id="Trazado_266239" data-name="Trazado 266239" d="M420.643,51.97c.035,0,.07.007.106.007s.07.021.106.035l7.173,2.71.788-2.365a.786.786,0,0,1,.746-.542h.014a.792.792,0,0,1,.746.563l1.436,4.66a.8.8,0,0,1-.4.943l-3.59,1.788a.785.785,0,0,1-.352.084.793.793,0,0,1-.521-.19.808.808,0,0,1-.232-.852l.859-2.583L420.3,53.5a.71.71,0,0,1-.267-.176" transform="translate(-186.695 -24.939)" fill="#a3314f" stroke="#263238" stroke-miterlimit="10" stroke-width="1"/>
          <path id="Trazado_266240" data-name="Trazado 266240" d="M121.965,159.579l6.326,1.444,1.465-6.419-6.077-1.387c.006-.182.027-.359.027-.542a14.5,14.5,0,0,0-1.15-5.675l4.929-3.931-4.1-5.147-4.714,3.759a14.494,14.494,0,0,0-5.72-3.038v-6.138h-6.584v5.9a14.459,14.459,0,0,0-5.975,2.685l-4.766-3.8-4.1,5.147,4.652,3.71a14.462,14.462,0,0,0-1.549,6.284l-6.062,1.383,1.464,6.418L96,158.863a14.585,14.585,0,0,0,3.851,5l-2.782,5.777,5.931,2.857,2.739-5.688a14.176,14.176,0,0,0,6.175.15l2.837,5.891,5.932-2.857-2.759-5.727A14.593,14.593,0,0,0,121.965,159.579Zm-19.267-6.9a6.459,6.459,0,1,1,6.459,6.459A6.459,6.459,0,0,1,102.7,152.676Z" transform="translate(-88.559 -48.828)" fill="#a3314f" stroke="#263238" stroke-linecap="round" stroke-linejoin="round" stroke-width="1"/>
          <path id="Trazado_266241" data-name="Trazado 266241" d="M672.234,256.383l4.288.979.993-4.351-4.119-.94c0-.123.018-.244.018-.367a9.823,9.823,0,0,0-.779-3.847l3.342-2.664-2.783-3.489-3.2,2.548a9.83,9.83,0,0,0-3.877-2.06v-4.16h-4.463v4a9.806,9.806,0,0,0-4.05,1.819l-3.23-2.576-2.782,3.489,3.154,2.514a9.8,9.8,0,0,0-1.05,4.26l-4.11.938.993,4.35,4.054-.925a9.9,9.9,0,0,0,2.61,3.387l-1.886,3.915,4.021,1.936,1.856-3.855a9.6,9.6,0,0,0,4.186.1l1.922,3.993,4.021-1.936-1.87-3.882A9.889,9.889,0,0,0,672.234,256.383ZM659.174,251.7a4.378,4.378,0,1,1,4.378,4.379A4.377,4.377,0,0,1,659.174,251.7Z" transform="translate(-254.659 -80.07)" fill="#a3314f" stroke="#263238" stroke-linecap="round" stroke-linejoin="round" stroke-width="1"/>
          <path id="Trazado_266242" data-name="Trazado 266242" d="M141.718,116.805l5.19,1.185,1.2-5.266-4.986-1.138c.006-.149.023-.295.023-.445a11.9,11.9,0,0,0-.943-4.657l4.044-3.225-3.368-4.223-3.867,3.084a11.9,11.9,0,0,0-4.693-2.493V94.593h-5.4V99.43a11.869,11.869,0,0,0-4.9,2.2l-3.91-3.118-3.368,4.223,3.817,3.045a11.853,11.853,0,0,0-1.272,5.155l-4.973,1.135,1.2,5.265,4.906-1.12a11.967,11.967,0,0,0,3.16,4.1l-2.282,4.739,4.866,2.343,2.247-4.666a11.647,11.647,0,0,0,5.066.122l2.327,4.834,4.867-2.343-2.263-4.7A11.98,11.98,0,0,0,141.718,116.805Zm-15.807-5.664a5.3,5.3,0,1,1,5.3,5.3A5.3,5.3,0,0,1,125.911,111.141Z" transform="translate(-96.183 -37.604)" fill="#a3314f" stroke="#263238" stroke-linecap="round" stroke-linejoin="round" stroke-width="1"/>
          <path id="Trazado_266243" data-name="Trazado 266243" d="M637.745,197.954l25.112-50.717,7.536,3.732L668.6,122.95,645.23,138.509l7.534,3.731-25.112,50.717" transform="translate(-248.164 -45.999)" fill="none" stroke="#263238" stroke-linecap="round" stroke-linejoin="round" stroke-width="1"/>
          <path id="Trazado_266244" data-name="Trazado 266244" d="M621.918,100.217l15.826-31.962,4.749,2.351L641.363,52.95l-14.728,9.805,4.748,2.351L615.557,97.068" transform="translate(-244.583 -25.275)" fill="none" stroke="#263238" stroke-linecap="round" stroke-linejoin="round" stroke-width="1"/>
        </g>
      </g>
      <g id="Grupo_238040" data-name="Grupo 238040" transform="translate(0)">
        <g id="Grupo_238039" data-name="Grupo 238039" clip-path="url(#clip-path)">
          <path id="Trazado_266245" data-name="Trazado 266245" d="M549.318,381.615s-4.367,2.795-5.241,3.494-4.891,1.573-4.367,2.8,5.59,1.921,6.988,1.921,6.813-2.795,8.21-3.144,1.4-1.922.874-3.144a14.805,14.805,0,0,0-2.1-2.97l-3.668,1.048Z" transform="translate(-159.774 -112.671)" fill="#ac556c"/>
          <path id="Trazado_266246" data-name="Trazado 266246" d="M549.318,381.615s-4.367,2.795-5.241,3.494-4.891,1.573-4.367,2.8,5.59,1.921,6.988,1.921,6.813-2.795,8.21-3.144,1.4-1.922.874-3.144a14.805,14.805,0,0,0-2.1-2.97l-3.668,1.048Z" transform="translate(-159.774 -112.671)" fill="none" stroke="#263238" stroke-linecap="round" stroke-linejoin="round" stroke-width="1"/>
          <path id="Trazado_266247" data-name="Trazado 266247" d="M620.77,380.814s-3.319,4.018-3.844,4.891-3.494,2.271-3.494,3.669,5.066.7,6.638.524a6.321,6.321,0,0,0,4.542-3.145c.874-1.746,1.573-5.415.524-6.813s-4.367.874-4.367.874" transform="translate(-181.614 -112.351)" fill="#ac556c"/>
          <path id="Trazado_266248" data-name="Trazado 266248" d="M620.77,380.814s-3.319,4.018-3.844,4.891-3.494,2.271-3.494,3.669,5.066.7,6.638.524a6.321,6.321,0,0,0,4.542-3.145c.874-1.746,1.573-5.415.524-6.813S620.77,380.814,620.77,380.814Z" transform="translate(-181.614 -112.351)" fill="none" stroke="#263238" stroke-linecap="round" stroke-linejoin="round" stroke-width="1"/>
          <path id="Trazado_266249" data-name="Trazado 266249" d="M556.507,269.9l-.137,1.053-1.086,8.38s-9.713,13.713-13.271,20.86c-1.817,3.649-4.348,7.975-4,9.2s10.806,38.377,10.806,38.377a7.025,7.025,0,0,0,2.62.7,7.163,7.163,0,0,0,2.446-.524l-.5-35.521,15-16.493,1.922,2.446s4.979,17.651,7.075,20.446,20.176,28.991,20.176,28.991a7.488,7.488,0,0,0,2.97.7c1.573,0,2.271-2.1,2.271-2.1s-13.014-32.135-13.364-33.184-.087-26.735-.087-26.735l-2.1-12.4-2.445-7.861a43.943,43.943,0,0,1-12.228.873c-7.686-.349-15.023-.873-15.023-.873Z" transform="translate(-159.276 -78.82)" fill="#263238"/>
          <path id="Trazado_266250" data-name="Trazado 266250" d="M556.507,269.9l-.137,1.053-1.086,8.38s-9.713,13.713-13.271,20.86c-1.817,3.649-4.348,7.975-4,9.2s10.806,38.377,10.806,38.377a7.025,7.025,0,0,0,2.62.7,7.163,7.163,0,0,0,2.446-.524l-.5-35.521,15-16.493,1.922,2.446s4.979,17.651,7.075,20.446,20.176,28.991,20.176,28.991a7.488,7.488,0,0,0,2.97.7c1.573,0,2.271-2.1,2.271-2.1s-13.014-32.135-13.364-33.184-.087-26.735-.087-26.735l-2.1-12.4-2.445-7.861a43.943,43.943,0,0,1-12.228.873c-7.686-.349-15.023-.873-15.023-.873Z" transform="translate(-159.276 -78.82)" fill="none" stroke="#263238" stroke-linecap="round" stroke-linejoin="round" stroke-width="1"/>
          <path id="Trazado_266251" data-name="Trazado 266251" d="M533.766,150.65s-2.445,3.668-2.8,5.94a5.94,5.94,0,0,0,1.224,4.192l-1.4,2.97s4.717,9.608,7.512,13.975,7.337,11.7,10.132,13.1,8.211,7.162,8.211,7.162l3.145-6.813s-9.259-11.529-15.023-19.565a154.829,154.829,0,0,1-9.608-15.2,28.284,28.284,0,0,1,.35-4.542,23.392,23.392,0,0,0,.349-4.017Z" transform="translate(-157.148 -43.774)" fill="#263238"/>
          <path id="Trazado_266252" data-name="Trazado 266252" d="M533.766,150.65s-2.445,3.668-2.8,5.94a5.94,5.94,0,0,0,1.224,4.192l-1.4,2.97s4.717,9.608,7.512,13.975,7.337,11.7,10.132,13.1,8.211,7.162,8.211,7.162l3.145-6.813s-9.259-11.529-15.023-19.565a154.829,154.829,0,0,1-9.608-15.2,28.284,28.284,0,0,1,.35-4.542,23.392,23.392,0,0,0,.349-4.017Z" transform="translate(-157.148 -43.774)" fill="none" stroke="#263238" stroke-linecap="round" stroke-linejoin="round" stroke-width="1"/>
          <path id="Trazado_266253" data-name="Trazado 266253" d="M571.389,205.306s-7.163,8.56-8.56,14.15.35,22.884.35,25.33-1.4,5.066.524,6.813,7.686.874,9.783.7,12.053,0,15.023-.874,4.367-2.1,4.367-4.193-3.669-18.692-4.193-21.486,1.4-12.4-1.223-16.945-11.005-5.241-16.072-3.494" transform="translate(-166.472 -60.523)" fill="#fff"/>
          <path id="Trazado_266254" data-name="Trazado 266254" d="M571.389,205.306s-7.163,8.56-8.56,14.15.35,22.884.35,25.33-1.4,5.066.524,6.813,7.686.874,9.783.7,12.053,0,15.023-.874,4.367-2.1,4.367-4.193-3.669-18.692-4.193-21.486,1.4-12.4-1.223-16.945S576.455,203.559,571.389,205.306Z" transform="translate(-166.472 -60.523)" fill="none" stroke="#263238" stroke-linecap="round" stroke-linejoin="round" stroke-width="1"/>
          <path id="Trazado_266255" data-name="Trazado 266255" d="M564.59,207.413s-8.734,8.909-9.957,13.625-5.59,13.8-6.988,17.819a80.968,80.968,0,0,1-4.192,9.258l1.572,6.289,4.018-4.367s4.017-13.8,6.114-19.565,2.446-11.18,2.8-12.753,6.638-10.306,6.638-10.306" transform="translate(-160.896 -61.407)" fill="#263238"/>
          <path id="Trazado_266256" data-name="Trazado 266256" d="M564.59,207.413s-8.734,8.909-9.957,13.625-5.59,13.8-6.988,17.819a80.968,80.968,0,0,1-4.192,9.258l1.572,6.289,4.018-4.367s4.017-13.8,6.114-19.565,2.446-11.18,2.8-12.753S564.59,207.413,564.59,207.413Z" transform="translate(-160.896 -61.407)" fill="none" stroke="#263238" stroke-linecap="round" stroke-linejoin="round" stroke-width="1"/>
          <path id="Trazado_266257" data-name="Trazado 266257" d="M573.084,205.345s-5.241,14.324-5.066,15.373,2.621,39.83,2.621,39.83,2.445,5.939,13.451,5.066,19.565-2.445,19.565-2.445-3.319-13.1-6.289-19.042-4.542-9.433-4.542-12.228-1.223-21.486-1.922-24.456a15.758,15.758,0,0,0-1.572-4.367l-1.048-.874Z" transform="translate(-168.167 -59.864)" fill="#a3314f"/>
          <path id="Trazado_266258" data-name="Trazado 266258" d="M573.084,205.345s-5.241,14.324-5.066,15.373,2.621,39.83,2.621,39.83,2.445,5.939,13.451,5.066,19.565-2.445,19.565-2.445-3.319-13.1-6.289-19.042-4.542-9.433-4.542-12.228-1.223-21.486-1.922-24.456a15.758,15.758,0,0,0-1.572-4.367l-1.048-.874Z" transform="translate(-168.167 -59.864)" fill="none" stroke="#263238" stroke-linecap="round" stroke-linejoin="round" stroke-width="1"/>
          <path id="Trazado_266259" data-name="Trazado 266259" d="M569.261,248.856l8.56,20.963s-3.494,1.4-4.716,2.621-2.1,1.921-2.1,1.921Z" transform="translate(-168.537 -73.677)" fill="#a3314f"/>
          <path id="Trazado_266260" data-name="Trazado 266260" d="M569.261,248.856l8.56,20.963s-3.494,1.4-4.716,2.621-2.1,1.921-2.1,1.921Z" transform="translate(-168.537 -73.677)" fill="none" stroke="#263238" stroke-linecap="round" stroke-linejoin="round" stroke-width="1"/>
          <path id="Trazado_266261" data-name="Trazado 266261" d="M581.134,164.808s-5.415,4.367-5.415,5.59a6.568,6.568,0,0,1-1.4,2.97s-2.8.349-2.97,1.4.874,3.145.874,3.145-1.747,5.939-1.048,7.337,5.765,1.572,5.765,1.572l.175,3.844,12.054-1.922-.175-2.97s6.464-6.987,9.608-9.957-.874-8.21-4.716-12.228-12.927-4.018-13.626-1.922a2.688,2.688,0,0,0,.874,3.144" transform="translate(-169.055 -47.451)" fill="#ffbe9d"/>
          <path id="Trazado_266262" data-name="Trazado 266262" d="M581.134,164.808s-5.415,4.367-5.415,5.59a6.568,6.568,0,0,1-1.4,2.97s-2.8.349-2.97,1.4.874,3.145.874,3.145-1.747,5.939-1.048,7.337,5.765,1.572,5.765,1.572l.175,3.844,12.054-1.922-.175-2.97s6.464-6.987,9.608-9.957-.874-8.21-4.716-12.228-12.927-4.018-13.626-1.922A2.688,2.688,0,0,0,581.134,164.808Z" transform="translate(-169.055 -47.451)" fill="none" stroke="#263238" stroke-linecap="round" stroke-linejoin="round" stroke-width="1"/>
          <path id="Trazado_266263" data-name="Trazado 266263" d="M578.939,175.538a2.411,2.411,0,0,1,2.445.175" transform="translate(-171.402 -51.892)" fill="none" stroke="#263238" stroke-linecap="round" stroke-linejoin="round" stroke-width="1"/>
          <path id="Trazado_266264" data-name="Trazado 266264" d="M579.177,178.839c-.133.563-.051,1.065.184,1.121s.533-.356.666-.92.051-1.065-.184-1.12-.533.356-.666.919" transform="translate(-171.454 -52.674)" fill="#263238"/>
          <path id="Trazado_266265" data-name="Trazado 266265" d="M597.7,163.585c-3.843-4.018-12.927-4.018-13.626-1.922a2.687,2.687,0,0,0,.874,3.144s5.94.7,5.066,2.271-3.844,1.573-3.144,2.621,3.144,3.319,2.271,3.843-1.4,1.573-.874,1.922,1.4-.524,3.494-.175,1.572,5.24-.35,5.939-2.795-.175.7,2.97a4.277,4.277,0,0,0,1.388.831c1.746-1.875,6.4-6.835,8.918-9.216,3.145-2.969-.873-8.21-4.716-12.228" transform="translate(-172.869 -47.451)" fill="#263238"/>
          <path id="Trazado_266266" data-name="Trazado 266266" d="M597.7,163.585c-3.843-4.018-12.927-4.018-13.626-1.922a2.687,2.687,0,0,0,.874,3.144s5.94.7,5.066,2.271-3.844,1.573-3.144,2.621,3.144,3.319,2.271,3.843-1.4,1.573-.874,1.922,1.4-.524,3.494-.175,1.572,5.24-.35,5.939-2.795-.175.7,2.97a4.277,4.277,0,0,0,1.388.831c1.746-1.875,6.4-6.835,8.918-9.216C605.562,172.844,601.544,167.6,597.7,163.585Z" transform="translate(-172.869 -47.451)" fill="none" stroke="#263238" stroke-linecap="round" stroke-linejoin="round" stroke-width="1"/>
          <path id="Trazado_266267" data-name="Trazado 266267" d="M590.384,190.492l-3.145-.7-2.1,1.573" transform="translate(-173.238 -56.191)" fill="none" stroke="#263238" stroke-linecap="round" stroke-linejoin="round" stroke-width="1"/>
          <path id="Trazado_266268" data-name="Trazado 266268" d="M590.6,197.735,574.527,202.1l-1.048,3.319,19.042-3.494Z" transform="translate(-169.785 -58.542)" fill="#92e3a9"/>
          <path id="Trazado_266269" data-name="Trazado 266269" d="M590.6,197.735,574.527,202.1l-1.048,3.319,19.042-3.494Z" transform="translate(-169.785 -58.542)" fill="#a3314f" stroke="#263238" stroke-linecap="round" stroke-linejoin="round" stroke-width="1"/>
          <path id="Trazado_266270" data-name="Trazado 266270" d="M538.238,152.662l-.524-3.668a46.391,46.391,0,0,0,1.573-6.289c0-1.223-1.223-4.018-1.223-4.716s-1.048-1.747-1.4-.35-1.047,6.638-1.047,6.638-2.271,3.843-2.1,5.765a29.081,29.081,0,0,0,1.921,5.939l3.144-1.922Z" transform="translate(-157.953 -40.546)" fill="#ffbe9d"/>
          <path id="Trazado_266271" data-name="Trazado 266271" d="M538.238,152.662l-.524-3.668a46.391,46.391,0,0,0,1.573-6.289c0-1.223-1.223-4.018-1.223-4.716s-1.048-1.747-1.4-.35-1.047,6.638-1.047,6.638-2.271,3.843-2.1,5.765a29.081,29.081,0,0,0,1.921,5.939l3.144-1.922Z" transform="translate(-157.953 -40.546)" fill="none" stroke="#263238" stroke-linecap="round" stroke-linejoin="round" stroke-width="1"/>
          <path id="Trazado_266272" data-name="Trazado 266272" d="M540.734,162.065l-2.271-2.8-4.193,3.32,2.445,4.192Z" transform="translate(-158.177 -47.154)" fill="#fff"/>
          <path id="Trazado_266273" data-name="Trazado 266273" d="M540.734,162.065l-2.271-2.8-4.193,3.32,2.445,4.192Z" transform="translate(-158.177 -47.154)" fill="none" stroke="#263238" stroke-linecap="round" stroke-linejoin="round" stroke-width="1"/>
          <path id="Trazado_266274" data-name="Trazado 266274" d="M579.11,198.638A13.211,13.211,0,0,0,573,191.826a53.622,53.622,0,0,0-9.258-3.494l-23.758-27.076-4.716,4.716s9.957,20.788,11.879,24.282,24.107,27.426,24.107,27.426" transform="translate(-158.471 -47.741)" fill="#a3314f"/>
          <path id="Trazado_266275" data-name="Trazado 266275" d="M579.11,198.638A13.211,13.211,0,0,0,573,191.826a53.622,53.622,0,0,0-9.258-3.494l-23.758-27.076-4.716,4.716s9.957,20.788,11.879,24.282,24.107,27.426,24.107,27.426" transform="translate(-158.471 -47.741)" fill="none" stroke="#263238" stroke-linecap="round" stroke-linejoin="round" stroke-width="1"/>
        </g>
      </g>
      <g id="Grupo_238042" data-name="Grupo 238042" transform="translate(0)">
        <g id="Grupo_238041" data-name="Grupo 238041" clip-path="url(#clip-path)">
          <path id="Trazado_266276" data-name="Trazado 266276" d="M301.457,376.95s-3.344,4.752-4.048,7.391-.528,6.159,1.232,5.807,5.807-4.752,6.159-5.983,1.584-6.863,1.584-6.863l-4.224-.352Z" transform="translate(-87.937 -111.601)" fill="#fff"/>
          <path id="Trazado_266277" data-name="Trazado 266277" d="M301.457,376.95s-3.344,4.752-4.048,7.391-.528,6.159,1.232,5.807,5.807-4.752,6.159-5.983,1.584-6.863,1.584-6.863l-4.224-.352Z" transform="translate(-87.937 -111.601)" fill="#ac556c" stroke="#263238" stroke-linecap="round" stroke-linejoin="round" stroke-width="1"/>
          <path id="Trazado_266278" data-name="Trazado 266278" d="M389.071,381.052s0,4.928,1.056,5.631,8.271,3.7,10.383,3.872,2.816-.176,1.584-2.64-8.271-7.215-8.271-7.215Z" transform="translate(-115.189 -112.711)" fill="#ac556c"/>
          <path id="Trazado_266279" data-name="Trazado 266279" d="M389.071,381.052s0,4.928,1.056,5.631,8.271,3.7,10.383,3.872,2.816-.176,1.584-2.64-8.271-7.215-8.271-7.215Z" transform="translate(-115.189 -112.711)" fill="none" stroke="#263238" stroke-linecap="round" stroke-linejoin="round" stroke-width="1"/>
          <path id="Trazado_266280" data-name="Trazado 266280" d="M320.169,262.95l-4.048,17.07L314.01,312.05s-7.743,13.375-8.447,18.3-2.992,14.959-2.992,14.959a27.531,27.531,0,0,0,3.7,1.408c.528,0,6.863-9.151,10.383-12.671s11.439-18.654,11.791-19.358,5.983-23.054,6.335-23.758,2.464-1.584,2.464-1.584,10.6,15.237,11.885,16.519a59.831,59.831,0,0,1,5.361,7.239s7.215,28.686,7.743,30.093a18.766,18.766,0,0,1,.7,4.048l6.511,1.408s.528-19.182.176-23.758-1.76-14.431-1.76-14.431-10.735-29.389-11.263-30.093-3.7-7.743-3.7-7.743l-1.056-6.687a40.644,40.644,0,0,1-19.006.7c-10.559-2.112-12.671-3.7-12.671-3.7" transform="translate(-89.58 -77.849)" fill="#263238"/>
          <path id="Trazado_266281" data-name="Trazado 266281" d="M320.169,262.95l-4.048,17.07L314.01,312.05s-7.743,13.375-8.447,18.3-2.992,14.959-2.992,14.959a27.531,27.531,0,0,0,3.7,1.408c.528,0,6.863-9.151,10.383-12.671s11.439-18.654,11.791-19.358,5.983-23.054,6.335-23.758,2.464-1.584,2.464-1.584,10.6,15.237,11.885,16.519a59.831,59.831,0,0,1,5.361,7.239s7.215,28.686,7.743,30.093a18.766,18.766,0,0,1,.7,4.048l6.511,1.408s.528-19.182.176-23.758-1.76-14.431-1.76-14.431-10.735-29.389-11.263-30.093-3.7-7.743-3.7-7.743l-1.056-6.687a40.644,40.644,0,0,1-19.006.7C322.281,264.534,320.169,262.95,320.169,262.95Z" transform="translate(-89.58 -77.849)" fill="none" stroke="#263238" stroke-linecap="round" stroke-linejoin="round" stroke-width="1"/>
          <path id="Trazado_266282" data-name="Trazado 266282" d="M332.056,194.782a118.438,118.438,0,0,1-11.881,6.892c-5.4,2.581-6.687,5.162-6.687,6.453s-4.693,22.643-4.341,23.816,3.52,2.933,5.515,3.4a8.973,8.973,0,0,0,5.4-.586c.587-.47,2.464-8.447,2.464-8.447S321.465,240.742,321,242.62s3.872,6.687,8.1,7.508,15.6.822,18.537-.117,4.928-1.173,5.866-2.933,1.525-14.313,1.643-15.135,1.056-8.33,1.056-8.33l3.05,10.324,1.173,2.112s.586-1.29,4.224-3.4,4.81-2.346,4.81-2.346-2.112-6.923-3.4-10.911-2.581-11.263-4.224-14.2-4.576-4.224-8.565-6.687-9.855-3.872-10.559-4.224-6.977-.878-10.645.5" transform="translate(-91.521 -57.402)" fill="#a3314f"/>
          <path id="Trazado_266283" data-name="Trazado 266283" d="M332.056,194.782a118.438,118.438,0,0,1-11.881,6.892c-5.4,2.581-6.687,5.162-6.687,6.453s-4.693,22.643-4.341,23.816,3.52,2.933,5.515,3.4a8.973,8.973,0,0,0,5.4-.586c.587-.47,2.464-8.447,2.464-8.447S321.465,240.742,321,242.62s3.872,6.687,8.1,7.508,15.6.822,18.537-.117,4.928-1.173,5.866-2.933,1.525-14.313,1.643-15.135,1.056-8.33,1.056-8.33l3.05,10.324,1.173,2.112s.586-1.29,4.224-3.4,4.81-2.346,4.81-2.346-2.112-6.923-3.4-10.911-2.581-11.263-4.224-14.2-4.576-4.224-8.565-6.687-9.855-3.872-10.559-4.224S335.724,193.4,332.056,194.782Z" transform="translate(-91.521 -57.402)" fill="none" stroke="#263238" stroke-linecap="round" stroke-linejoin="round" stroke-width="1"/>
          <line id="Línea_1414" data-name="Línea 1414" y1="8.583" x2="2.478" transform="translate(231.001 160.327)" fill="none" stroke="#263238" stroke-linecap="round" stroke-linejoin="round" stroke-width="1"/>
          <line id="Línea_1415" data-name="Línea 1415" y1="1.946" x2="0.418" transform="translate(266.393 156.256)" fill="none" stroke="#263238" stroke-linecap="round" stroke-linejoin="round" stroke-width="1"/>
          <line id="Línea_1416" data-name="Línea 1416" y1="6.255" x2="1.344" transform="translate(264.672 159.956)" fill="none" stroke="#263238" stroke-linecap="round" stroke-linejoin="round" stroke-width="1"/>
          <path id="Trazado_266284" data-name="Trazado 266284" d="M346.071,212.525l2.464,3.52,1.408,3.168-3.52,29.213L351.351,253l3.872-5.1-3.52-28.333,2.112-4.048,2.811-4.6-5.1-2.966Z" transform="translate(-102.459 -61.566)" fill="#ac556c"/>
          <path id="Trazado_266285" data-name="Trazado 266285" d="M346.071,212.525l2.464,3.52,1.408,3.168-3.52,29.213L351.351,253l3.872-5.1-3.52-28.333,2.112-4.048,2.811-4.6-5.1-2.966Z" transform="translate(-102.459 -61.566)" fill="none" stroke="#263238" stroke-linecap="round" stroke-linejoin="round" stroke-width="1"/>
          <path id="Trazado_266286" data-name="Trazado 266286" d="M342.284,192.6s-2.448.638-2.98,2.128.213,10.43.958,12.345a33.918,33.918,0,0,0,2.089,4.174s6.531-4.174,7.7-4.386,7.875,3.3,7.875,3.3a26.088,26.088,0,0,0-2.129-10c-2.341-5.853-7.768-9.152-10.109-9.365a3.607,3.607,0,0,0-3.406,1.809" transform="translate(-100.402 -56.482)" fill="#b55a72"/>
          <path id="Trazado_266287" data-name="Trazado 266287" d="M342.284,192.6s-2.448.638-2.98,2.128.213,10.43.958,12.345a33.918,33.918,0,0,0,2.089,4.174s6.531-4.174,7.7-4.386,7.875,3.3,7.875,3.3a26.088,26.088,0,0,0-2.129-10c-2.341-5.853-7.768-9.152-10.109-9.365A3.607,3.607,0,0,0,342.284,192.6Z" transform="translate(-100.402 -56.482)" fill="none" stroke="#263238" stroke-linecap="round" stroke-linejoin="round" stroke-width="1"/>
          <path id="Trazado_266288" data-name="Trazado 266288" d="M342.253,191.861s.32,3.725.638,6.278,4.257,10.962,5.64,12.132,4.257-2.661,5.215-4.364a19.445,19.445,0,0,1,1.383-2.234s-6.811-3.3-8.939-7.13-1.916-5.641-2.873-5.747-1.064,1.064-1.064,1.064" transform="translate(-101.328 -56.485)" fill="#fff"/>
          <path id="Trazado_266289" data-name="Trazado 266289" d="M342.253,191.861s.32,3.725.638,6.278,4.257,10.962,5.64,12.132,4.257-2.661,5.215-4.364a19.445,19.445,0,0,1,1.383-2.234s-6.811-3.3-8.939-7.13-1.916-5.641-2.873-5.747S342.253,191.861,342.253,191.861Z" transform="translate(-101.328 -56.485)" fill="#b55a72" stroke="#263238" stroke-linecap="round" stroke-linejoin="round" stroke-width="1"/>
          <path id="Trazado_266290" data-name="Trazado 266290" d="M347.131,205.315l5.232,8.44s2.407-2.224,2.827-3.546-8.059-4.893-8.059-4.893" transform="translate(-102.772 -60.786)" fill="#eb996e"/>
          <path id="Trazado_266291" data-name="Trazado 266291" d="M347.131,205.315l5.232,8.44s2.407-2.224,2.827-3.546S347.131,205.315,347.131,205.315Z" transform="translate(-102.772 -60.786)" fill="none" stroke="#263238" stroke-linecap="round" stroke-linejoin="round" stroke-width="1"/>
          <path id="Trazado_266292" data-name="Trazado 266292" d="M339.117,181.517a8.656,8.656,0,0,0-.5,3.824c.166,2.327,1.5,3.99,2.161,4.156a9.874,9.874,0,0,0,1.828.166,16.16,16.16,0,0,0,1.995,6.982c1.829,2.826,7.98,6.816,9.809,4.821s4.156-9.974,4.987-13.8a69.76,69.76,0,0,0,1.164-7.481s-10.141-2.328-12.3-2.826-5.819-1.33-5.819-1.33Z" transform="translate(-100.244 -52.116)" fill="#ffbe9d"/>
          <path id="Trazado_266293" data-name="Trazado 266293" d="M339.117,181.517a8.656,8.656,0,0,0-.5,3.824c.166,2.327,1.5,3.99,2.161,4.156a9.874,9.874,0,0,0,1.828.166,16.16,16.16,0,0,0,1.995,6.982c1.829,2.826,7.98,6.816,9.809,4.821s4.156-9.974,4.987-13.8a69.76,69.76,0,0,0,1.164-7.481s-10.141-2.328-12.3-2.826-5.819-1.33-5.819-1.33Z" transform="translate(-100.244 -52.116)" fill="none" stroke="#263238" stroke-linecap="round" stroke-linejoin="round" stroke-width="1"/>
          <path id="Trazado_266294" data-name="Trazado 266294" d="M346.35,176.912s.665,2.161-.665,3.491-1.828,1.33-1.828,1.33.332,2.161-.167,2.161a1.632,1.632,0,0,1-1.662-1.663,4.867,4.867,0,0,0-.831-2.493l-1.995-1.164a16.791,16.791,0,0,1,.166-7.315c1-3.823,8.146-5.32,14.131-5.154s7.481,7.814,7.481,7.814a28.656,28.656,0,0,1,3.658,1.995c.5.5,1,1.663-1.829,3.159s-7.814,1.995-10.806.831a31.656,31.656,0,0,1-5.652-2.992" transform="translate(-100.328 -49.174)" fill="#263238"/>
          <path id="Trazado_266295" data-name="Trazado 266295" d="M346.35,176.912s.665,2.161-.665,3.491-1.828,1.33-1.828,1.33.332,2.161-.167,2.161a1.632,1.632,0,0,1-1.662-1.663,4.867,4.867,0,0,0-.831-2.493l-1.995-1.164a16.791,16.791,0,0,1,.166-7.315c1-3.823,8.146-5.32,14.131-5.154s7.481,7.814,7.481,7.814a28.656,28.656,0,0,1,3.658,1.995c.5.5,1,1.663-1.829,3.159s-7.814,1.995-10.806.831A31.656,31.656,0,0,1,346.35,176.912Z" transform="translate(-100.328 -49.174)" fill="none" stroke="#263238" stroke-linecap="round" stroke-linejoin="round" stroke-width="1"/>
          <path id="Trazado_266296" data-name="Trazado 266296" d="M354.705,193.52c-.191.617-.6,1.04-.906.945s-.4-.674-.212-1.292.6-1.04.906-.945.4.674.212,1.292" transform="translate(-104.654 -56.907)" fill="#263238"/>
          <path id="Trazado_266297" data-name="Trazado 266297" d="M364.531,194.276c-.191.617-.6,1.04-.906.945s-.4-.674-.212-1.292.6-1.04.906-.945.4.674.212,1.292" transform="translate(-107.563 -57.131)" fill="#263238"/>
          <path id="Trazado_266298" data-name="Trazado 266298" d="M351.626,190.635a3.136,3.136,0,0,1,3.512-.958" transform="translate(-104.103 -56.111)" fill="none" stroke="#263238" stroke-linecap="round" stroke-linejoin="round" stroke-width="1"/>
          <path id="Trazado_266299" data-name="Trazado 266299" d="M362.359,190.545a2.17,2.17,0,0,1,3.192.213" transform="translate(-107.281 -56.235)" fill="none" stroke="#263238" stroke-linecap="round" stroke-linejoin="round" stroke-width="1"/>
          <path id="Trazado_266300" data-name="Trazado 266300" d="M355.1,201.684a10.485,10.485,0,0,0-2.98.532c-1.6.532-3.938-.106-2.873,1.277s3.086,1.809,5.215,1.809,4.044-.106,4.683-1.064,1.6-1.915.851-2.022-3.618-.32-3.937-.32a4.387,4.387,0,0,1-.958-.213" transform="translate(-103.319 -59.711)" fill="#263238"/>
          <path id="Trazado_266301" data-name="Trazado 266301" d="M355.1,201.684a10.485,10.485,0,0,0-2.98.532c-1.6.532-3.938-.106-2.873,1.277s3.086,1.809,5.215,1.809,4.044-.106,4.683-1.064,1.6-1.915.851-2.022-3.618-.32-3.937-.32A4.387,4.387,0,0,1,355.1,201.684Z" transform="translate(-103.319 -59.711)" fill="none" stroke="#263238" stroke-linecap="round" stroke-linejoin="round" stroke-width="1"/>
          <path id="Trazado_266302" data-name="Trazado 266302" d="M359.634,192.915s-.213,5.853-.426,6.917a1.423,1.423,0,0,1-2.554.639,14.6,14.6,0,0,1-1.7-2.873" transform="translate(-105.087 -57.115)" fill="#ffbe9d"/>
          <path id="Trazado_266303" data-name="Trazado 266303" d="M359.634,192.915s-.213,5.853-.426,6.917a1.423,1.423,0,0,1-2.554.639,14.6,14.6,0,0,1-1.7-2.873" transform="translate(-105.087 -57.115)" fill="none" stroke="#263238" stroke-linecap="round" stroke-linejoin="round" stroke-width="1"/>
          <path id="Trazado_266304" data-name="Trazado 266304" d="M389.755,241.931s-5.068.827-7.18,2.235-2.852,2.634-2.324,3.983a19.953,19.953,0,0,0,1.76,3.813c.88,1.408,2.464.352,2.464.352a1.552,1.552,0,0,1,.176-2.288c1.232-1.232,5.807-2.992,5.807-2.992h1.584c.7,0,0-1.936-.528-2.816s-.528-2.64-1.76-2.288" transform="translate(-112.53 -71.613)" fill="#b55a72"/>
          <path id="Trazado_266305" data-name="Trazado 266305" d="M389.755,241.931s-5.068.827-7.18,2.235-2.852,2.634-2.324,3.983a19.953,19.953,0,0,0,1.76,3.813c.88,1.408,2.464.352,2.464.352a1.552,1.552,0,0,1,.176-2.288c1.232-1.232,5.807-2.992,5.807-2.992h1.584c.7,0,0-1.936-.528-2.816S390.987,241.579,389.755,241.931Z" transform="translate(-112.53 -71.613)" fill="none" stroke="#263238" stroke-linecap="round" stroke-linejoin="round" stroke-width="1"/>
          <path id="Trazado_266306" data-name="Trazado 266306" d="M309.071,253.95s0,5.1.352,10.207S314,283.515,314,283.515l4.224-1.056s-.176-13.375-.176-17.6-.176-9.327-.176-9.327Z" transform="translate(-91.504 -75.185)" fill="#ffbe9d"/>
          <path id="Trazado_266307" data-name="Trazado 266307" d="M309.071,253.95s0,5.1.352,10.207S314,283.515,314,283.515l4.224-1.056s-.176-13.375-.176-17.6-.176-9.327-.176-9.327Z" transform="translate(-91.504 -75.185)" fill="none" stroke="#263238" stroke-linecap="round" stroke-linejoin="round" stroke-width="1"/>
          <path id="Trazado_266308" data-name="Trazado 266308" d="M307.936,248.428a1.274,1.274,0,0,1,2.013-.881,9.18,9.18,0,0,0,3.859,1.445,18.055,18.055,0,0,0,5.106.162,1.025,1.025,0,0,1,1.116,1.311,13.754,13.754,0,0,1-1.647,3.983c-.88.88-5.1.88-7.215.176s-2.64-1.232-3.168-2.992a9.24,9.24,0,0,1-.064-3.2" transform="translate(-91.137 -73.218)" fill="#b55a72"/>
          <path id="Trazado_266309" data-name="Trazado 266309" d="M307.936,248.428a1.274,1.274,0,0,1,2.013-.881,9.18,9.18,0,0,0,3.859,1.445,18.055,18.055,0,0,0,5.106.162,1.025,1.025,0,0,1,1.116,1.311,13.754,13.754,0,0,1-1.647,3.983c-.88.88-5.1.88-7.215.176s-2.64-1.232-3.168-2.992A9.24,9.24,0,0,1,307.936,248.428Z" transform="translate(-91.137 -73.218)" fill="none" stroke="#263238" stroke-linecap="round" stroke-linejoin="round" stroke-width="1"/>
          <path id="Trazado_266310" data-name="Trazado 266310" d="M424.275,271.226a7.7,7.7,0,0,1,2.112-3.344c1.584-1.408,2.288-1.76.7-1.936s-3.52,2.288-3.52,2.288Z" transform="translate(-125.403 -78.734)" fill="#ffbe9d"/>
          <path id="Trazado_266311" data-name="Trazado 266311" d="M424.275,271.226a7.7,7.7,0,0,1,2.112-3.344c1.584-1.408,2.288-1.76.7-1.936s-3.52,2.288-3.52,2.288Z" transform="translate(-125.403 -78.734)" fill="none" stroke="#263238" stroke-linecap="round" stroke-linejoin="round" stroke-width="1"/>
          <path id="Trazado_266312" data-name="Trazado 266312" d="M386.271,254.48a13.564,13.564,0,0,0,3.7,2.64c2.64,1.408,15.839,8.623,15.839,8.623l4.752-2.816s-7.391-3.344-10.735-6.863-5.983-6.863-5.983-6.863-8.8.528-7.567,5.28" transform="translate(-114.325 -73.779)" fill="#ffbe9d"/>
          <path id="Trazado_266313" data-name="Trazado 266313" d="M386.271,254.48a13.564,13.564,0,0,0,3.7,2.64c2.64,1.408,15.839,8.623,15.839,8.623l4.752-2.816s-7.391-3.344-10.735-6.863-5.983-6.863-5.983-6.863S385.039,249.728,386.271,254.48Z" transform="translate(-114.325 -73.779)" fill="none" stroke="#263238" stroke-linecap="round" stroke-linejoin="round" stroke-width="1"/>
          <path id="Trazado_266314" data-name="Trazado 266314" d="M410.821,268.91s.7,3.7,1.936,3.872,7.215-.352,7.743-1.408.88-4.752,0-4.928-9.679,2.464-9.679,2.464" transform="translate(-121.628 -78.882)" fill="#ffbe9d"/>
          <path id="Trazado_266315" data-name="Trazado 266315" d="M410.821,268.91s.7,3.7,1.936,3.872,7.215-.352,7.743-1.408.88-4.752,0-4.928S410.821,268.91,410.821,268.91Z" transform="translate(-121.628 -78.882)" fill="none" stroke="#263238" stroke-linecap="round" stroke-linejoin="round" stroke-width="1"/>
          <path id="Trazado_266316" data-name="Trazado 266316" d="M314.631,300.284a7.7,7.7,0,0,0-3.156-2.382c-1.979-.758-2.762-.839-1.342-1.563s4.1.9,4.1.9Z" transform="translate(-91.604 -87.679)" fill="#ffbe9d"/>
          <path id="Trazado_266317" data-name="Trazado 266317" d="M314.631,300.284a7.7,7.7,0,0,0-3.156-2.382c-1.979-.758-2.762-.839-1.342-1.563s4.1.9,4.1.9Z" transform="translate(-91.604 -87.679)" fill="none" stroke="#263238" stroke-linecap="round" stroke-linejoin="round" stroke-width="1"/>
          <path id="Trazado_266318" data-name="Trazado 266318" d="M324.2,293.891s.647,3.706-.444,4.306-6.875,2.219-7.742,1.418-2.5-4.135-1.74-4.61,9.926-1.114,9.926-1.114" transform="translate(-92.986 -87.01)" fill="#ffbe9d"/>
          <path id="Trazado_266319" data-name="Trazado 266319" d="M324.2,293.891s.647,3.706-.444,4.306-6.875,2.219-7.742,1.418-2.5-4.135-1.74-4.61S324.2,293.891,324.2,293.891Z" transform="translate(-92.986 -87.01)" fill="none" stroke="#263238" stroke-linecap="round" stroke-linejoin="round" stroke-width="1"/>
        </g>
      </g>
      <g id="Grupo_238062" data-name="Grupo 238062" transform="translate(16.671 218.68)">
        <g id="Grupo_238071" data-name="Grupo 238071">
          <path id="Trazado_266320" data-name="Trazado 266320" d="M73.737,329.848c.03.018.606-2.215.627-2.361.234-1.68-.3-5.063-2.012-5.889a2.249,2.249,0,0,0-3.059,1.354,4.7,4.7,0,0,0,.812,3.87,16.1,16.1,0,0,0,3.632,3.026" transform="translate(-37.137 -313.83)" fill="#263238"/>
          <path id="Trazado_266321" data-name="Trazado 266321" d="M26.561,330a16.089,16.089,0,0,0,4.7.52c.034,0-.717-2.182-.78-2.315-.731-1.53-3.045-4.057-4.927-3.8a2.248,2.248,0,0,0-1.8,2.817A4.7,4.7,0,0,0,26.561,330" transform="translate(-23.682 -314.72)" fill="#263238"/>
          <path id="Trazado_266322" data-name="Trazado 266322" d="M27.829,335.594a15.628,15.628,0,0,0,4.626-.726,39.824,39.824,0,0,0,1.8,4.993c.41.948.852,1.889,1.307,2.828-.272-.4-.517-.751-.557-.8-1.11-1.283-4.008-3.109-5.757-2.366a2.248,2.248,0,0,0-1,3.193,4.7,4.7,0,0,0,3.446,1.939,14.885,14.885,0,0,0,4.5-.689c.18.358.353.718.532,1.076.862,1.715,1.73,3.423,2.528,5.125.282.6.537,1.2.8,1.8-.241-.353-.448-.648-.484-.69-1.11-1.283-4.008-3.109-5.756-2.366a2.247,2.247,0,0,0-1,3.193,4.7,4.7,0,0,0,3.446,1.939,14.343,14.343,0,0,0,4.375-.656c.246.622.493,1.245.7,1.86.134.423.292.821.4,1.252s.236.847.353,1.264c.195.812.4,1.647.569,2.444.124.553.229,1.082.338,1.615-.272-.6-.834-1.763-.892-1.855-.9-1.436-3.49-3.68-5.331-3.211a2.248,2.248,0,0,0-1.468,3.006,4.7,4.7,0,0,0,3.112,2.438,15.423,15.423,0,0,0,4.655-.014c.177.882.341,1.742.483,2.556.3,1.7.529,3.23.707,4.545h1.241c-.213-1.362-.486-2.966-.842-4.751-.176-.9-.382-1.851-.6-2.83a24.426,24.426,0,0,0,2.6-1.221,16.437,16.437,0,0,0,3.786,2.441c-.339.833-.677,1.642-1.008,2.4-.647,1.488-1.262,2.816-1.813,3.962h1.339c.47-1.047.98-2.227,1.511-3.525.348-.845.7-1.755,1.058-2.693a15.431,15.431,0,0,0,4.643.361,4.7,4.7,0,0,0,3.285-2.2,2.248,2.248,0,0,0-1.24-3.106c-1.8-.6-4.549,1.44-5.556,2.805-.059.08-.606,1.026-.941,1.628.143-.384.287-.755.429-1.152.288-.783.551-1.573.838-2.422l.376-1.257c.134-.417.223-.874.339-1.316.244-1.028.443-2.082.619-3.148a14.779,14.779,0,0,0,4.406,1.014,4.7,4.7,0,0,0,3.58-1.677,2.248,2.248,0,0,0-.755-3.259c-1.689-.871-4.715.734-5.917,1.931-.075.075-.841,1.03-1.252,1.563.1-.642.2-1.282.286-1.934.234-1.884.412-3.8.6-5.7.057-.585.12-1.166.182-1.749a15.613,15.613,0,0,0,4.556,1.068,4.7,4.7,0,0,0,3.58-1.677,2.247,2.247,0,0,0-.755-3.259c-1.688-.87-4.714.735-5.917,1.931-.09.09-1.19,1.466-1.454,1.83.136-1.283.283-2.56.479-3.813a39.587,39.587,0,0,1,1.1-5.016,15.866,15.866,0,0,0,4.581,1.078,4.7,4.7,0,0,0,3.58-1.677,2.248,2.248,0,0,0-.755-3.258c-1.689-.871-4.715.734-5.917,1.93-.079.079-.918,1.126-1.306,1.634l-.1-.05a28.907,28.907,0,0,1,1.992-4.763c.432-.845.892-1.629,1.357-2.381a15.106,15.106,0,0,0,4.338,1.525,4.7,4.7,0,0,0,3.744-1.273,2.248,2.248,0,0,0-.394-3.322c-1.582-1.051-4.766.212-6.093,1.269-.072.057-.741.723-1.221,1.214.215-.336.431-.687.643-1.005.795-1.2,1.6-2.243,2.312-3.165.413-.52.8-.983,1.158-1.412a15.048,15.048,0,0,0,4.53-.645,4.7,4.7,0,0,0,2.735-2.855,2.248,2.248,0,0,0-1.88-2.767c-1.888-.2-4.132,2.385-4.823,3.934-.059.134-.751,2.335-.716,2.335h.04c-.358.406-.736.845-1.14,1.333-.739.907-1.566,1.939-2.389,3.123a40.081,40.081,0,0,0-2.476,3.946,29.3,29.3,0,0,0-2.115,4.763c-.007.02-.011.041-.018.061.01-.557-.015-2.113-.03-2.232-.218-1.682-1.628-4.8-3.5-5.149a2.247,2.247,0,0,0-2.592,2.114,4.7,4.7,0,0,0,1.8,3.518,15.639,15.639,0,0,0,4.259,1.946,39.747,39.747,0,0,0-1.249,5.16c-.182,1.016-.333,2.045-.471,3.078-.007-.481-.017-.912-.025-.971-.218-1.682-1.628-4.8-3.5-5.149a2.248,2.248,0,0,0-2.593,2.114,4.7,4.7,0,0,0,1.8,3.518,14.89,14.89,0,0,0,4.131,1.9c-.049.4-.1.793-.15,1.19-.227,1.906-.446,3.81-.719,5.67-.1.655-.214,1.3-.329,1.941-.007-.428-.016-.788-.023-.843-.218-1.682-1.628-4.8-3.5-5.149a2.247,2.247,0,0,0-2.592,2.114,4.7,4.7,0,0,0,1.8,3.518,14.329,14.329,0,0,0,4.011,1.866c-.139.655-.277,1.311-.44,1.939-.122.427-.209.845-.355,1.267l-.4,1.248c-.285.784-.575,1.6-.872,2.353-.2.529-.406,1.029-.61,1.534.1-.652.277-1.931.279-2.04A8.721,8.721,0,0,0,49.7,356.3a2.613,2.613,0,0,0-.031-.5,2.247,2.247,0,0,0-2.747-1.907c-1.836.489-3,3.711-3.087,5.4,0,.1.061,1.19.113,1.877-.093-.4-.177-.788-.277-1.2-.193-.812-.409-1.616-.638-2.483q-.187-.622-.38-1.256c-.118-.422-.3-.852-.443-1.284-.363-.993-.779-1.981-1.221-2.967a14.761,14.761,0,0,0,4.234-1.585,4.7,4.7,0,0,0,2.061-3.374,2.247,2.247,0,0,0-2.427-2.3c-1.889.2-3.527,3.213-3.87,4.874-.022.1-.134,1.323-.182,1.994-.27-.591-.536-1.182-.829-1.77-.844-1.7-1.751-3.394-2.648-5.088-.275-.519-.543-1.039-.814-1.559a15.634,15.634,0,0,0,4.39-1.623,4.7,4.7,0,0,0,2.06-3.374,2.247,2.247,0,0,0-2.427-2.3c-1.889.206-3.527,3.213-3.87,4.875-.026.125-.184,1.88-.2,2.328-.6-1.145-1.178-2.291-1.706-3.444a39.508,39.508,0,0,1-1.853-4.788,15.872,15.872,0,0,0,4.415-1.628,4.7,4.7,0,0,0,2.063-3.374,2.248,2.248,0,0,0-2.429-2.3c-1.888.2-3.527,3.213-3.87,4.874-.023.109-.145,1.447-.188,2.084l-.108.011a28.953,28.953,0,0,1-.966-5.073c-.106-.943-.155-1.851-.182-2.735A15.107,15.107,0,0,0,36.1,325.59a4.7,4.7,0,0,0,2.419-3.127,2.247,2.247,0,0,0-2.16-2.554c-1.9,0-3.858,2.806-4.381,4.419-.028.088-.219,1.012-.348,1.687-.006-.4-.02-.811-.018-1.193,0-1.437.094-2.752.184-3.916.056-.661.12-1.258.187-1.816a15.042,15.042,0,0,0,3.422-3.037,4.7,4.7,0,0,0,.707-3.89,2.248,2.248,0,0,0-3.095-1.271c-1.687.872-2.131,4.269-1.852,5.942.025.144.662,2.362.691,2.343l.034-.023c-.075.536-.148,1.111-.215,1.74-.115,1.165-.235,2.481-.269,3.924a39.825,39.825,0,0,0,.111,4.657,29.334,29.334,0,0,0,.863,5.14c0,.02.013.039.019.059-.3-.47-1.178-1.754-1.257-1.845-1.109-1.283-4.008-3.109-5.756-2.367a2.249,2.249,0,0,0-1,3.194,4.7,4.7,0,0,0,3.446,1.939" transform="translate(-23.8 -310.653)" fill="#263238"/>
          <g id="Grupo_238045" data-name="Grupo 238045" transform="translate(0 9.669)" opacity="0.3">
            <g id="Grupo_238044" data-name="Grupo 238044">
              <g id="Grupo_238043" data-name="Grupo 238043" clip-path="url(#clip-path-4)">
                <path id="Trazado_266323" data-name="Trazado 266323" d="M26.561,330a16.089,16.089,0,0,0,4.7.52c.034,0-.717-2.182-.78-2.315-.731-1.53-3.045-4.057-4.927-3.8a2.248,2.248,0,0,0-1.8,2.817A4.7,4.7,0,0,0,26.561,330" transform="translate(-23.682 -324.389)" fill="#263238"/>
              </g>
            </g>
          </g>
          <g id="Grupo_238048" data-name="Grupo 238048" transform="translate(31.993 7.554)" opacity="0.3">
            <g id="Grupo_238047" data-name="Grupo 238047">
              <g id="Grupo_238046" data-name="Grupo 238046" clip-path="url(#clip-path-5)">
                <path id="Trazado_266324" data-name="Trazado 266324" d="M73.737,329.848c.03.018.606-2.215.627-2.361.234-1.68-.3-5.063-2.012-5.889a2.249,2.249,0,0,0-3.059,1.354,4.7,4.7,0,0,0,.812,3.87,16.1,16.1,0,0,0,3.632,3.026" transform="translate(-69.13 -321.384)" fill="#263238"/>
              </g>
            </g>
          </g>
          <g id="Grupo_238051" data-name="Grupo 238051" transform="translate(0.281)" opacity="0.3">
            <g id="Grupo_238050" data-name="Grupo 238050">
              <g id="Grupo_238049" data-name="Grupo 238049" clip-path="url(#clip-path-6)">
                <path id="Trazado_266325" data-name="Trazado 266325" d="M27.829,335.594a15.628,15.628,0,0,0,4.626-.726,39.824,39.824,0,0,0,1.8,4.993c.41.948.852,1.889,1.307,2.828-.272-.4-.517-.751-.557-.8-1.11-1.283-4.008-3.109-5.757-2.366a2.248,2.248,0,0,0-1,3.193,4.7,4.7,0,0,0,3.446,1.939,14.885,14.885,0,0,0,4.5-.689c.18.358.353.718.532,1.076.862,1.715,1.73,3.423,2.528,5.125.282.6.537,1.2.8,1.8-.241-.353-.448-.648-.484-.69-1.11-1.283-4.008-3.109-5.756-2.366a2.247,2.247,0,0,0-1,3.193,4.7,4.7,0,0,0,3.446,1.939,14.343,14.343,0,0,0,4.375-.656c.246.622.493,1.245.7,1.86.134.423.292.821.4,1.252s.236.847.353,1.264c.195.812.4,1.647.569,2.444.124.553.229,1.082.338,1.615-.272-.6-.834-1.763-.892-1.855-.9-1.436-3.49-3.68-5.331-3.211a2.248,2.248,0,0,0-1.468,3.006,4.7,4.7,0,0,0,3.112,2.438,15.423,15.423,0,0,0,4.655-.014c.177.882.341,1.742.483,2.556.3,1.7.529,3.23.707,4.545h1.241c-.213-1.362-.486-2.966-.842-4.751-.176-.9-.382-1.851-.6-2.83a24.426,24.426,0,0,0,2.6-1.221,16.437,16.437,0,0,0,3.786,2.441c-.339.833-.677,1.642-1.008,2.4-.647,1.488-1.262,2.816-1.813,3.962h1.339c.47-1.047.98-2.227,1.511-3.525.348-.845.7-1.755,1.058-2.693a15.431,15.431,0,0,0,4.643.361,4.7,4.7,0,0,0,3.285-2.2,2.248,2.248,0,0,0-1.24-3.106c-1.8-.6-4.549,1.44-5.556,2.805-.059.08-.606,1.026-.941,1.628.143-.384.287-.755.429-1.152.288-.783.551-1.573.838-2.422l.376-1.257c.134-.417.223-.874.339-1.316.244-1.028.443-2.082.619-3.148a14.779,14.779,0,0,0,4.406,1.014,4.7,4.7,0,0,0,3.58-1.677,2.248,2.248,0,0,0-.755-3.259c-1.689-.871-4.715.734-5.917,1.931-.075.075-.841,1.03-1.252,1.563.1-.642.2-1.282.286-1.934.234-1.884.412-3.8.6-5.7.057-.585.12-1.166.182-1.749a15.613,15.613,0,0,0,4.556,1.068,4.7,4.7,0,0,0,3.58-1.677,2.247,2.247,0,0,0-.755-3.259c-1.688-.87-4.714.735-5.917,1.931-.09.09-1.19,1.466-1.454,1.83.136-1.283.283-2.56.479-3.813a39.587,39.587,0,0,1,1.1-5.016,15.866,15.866,0,0,0,4.581,1.078,4.7,4.7,0,0,0,3.58-1.677,2.248,2.248,0,0,0-.755-3.258c-1.689-.871-4.715.734-5.917,1.93-.079.079-.918,1.126-1.306,1.634l-.1-.05a28.907,28.907,0,0,1,1.992-4.763c.432-.845.892-1.629,1.357-2.381a15.106,15.106,0,0,0,4.338,1.525,4.7,4.7,0,0,0,3.744-1.273,2.248,2.248,0,0,0-.394-3.322c-1.582-1.051-4.766.212-6.093,1.269-.072.057-.741.723-1.221,1.214.215-.336.431-.687.643-1.005.795-1.2,1.6-2.243,2.312-3.165.413-.52.8-.983,1.158-1.412a15.048,15.048,0,0,0,4.53-.645,4.7,4.7,0,0,0,2.735-2.855,2.248,2.248,0,0,0-1.88-2.767c-1.888-.2-4.132,2.385-4.823,3.934-.059.134-.751,2.335-.716,2.335h.04c-.358.406-.736.845-1.14,1.333-.739.907-1.566,1.939-2.389,3.123a40.081,40.081,0,0,0-2.476,3.946,29.3,29.3,0,0,0-2.115,4.763c-.007.02-.011.041-.018.061.01-.557-.015-2.113-.03-2.232-.218-1.682-1.628-4.8-3.5-5.149a2.247,2.247,0,0,0-2.592,2.114,4.7,4.7,0,0,0,1.8,3.518,15.639,15.639,0,0,0,4.259,1.946,39.747,39.747,0,0,0-1.249,5.16c-.182,1.016-.333,2.045-.471,3.078-.007-.481-.017-.912-.025-.971-.218-1.682-1.628-4.8-3.5-5.149a2.248,2.248,0,0,0-2.593,2.114,4.7,4.7,0,0,0,1.8,3.518,14.89,14.89,0,0,0,4.131,1.9c-.049.4-.1.793-.15,1.19-.227,1.906-.446,3.81-.719,5.67-.1.655-.214,1.3-.329,1.941-.007-.428-.016-.788-.023-.843-.218-1.682-1.628-4.8-3.5-5.149a2.247,2.247,0,0,0-2.592,2.114,4.7,4.7,0,0,0,1.8,3.518,14.329,14.329,0,0,0,4.011,1.866c-.139.655-.277,1.311-.44,1.939-.122.427-.209.845-.355,1.267l-.4,1.248c-.285.784-.575,1.6-.872,2.353-.2.529-.406,1.029-.61,1.534.1-.652.277-1.931.279-2.04A8.721,8.721,0,0,0,49.7,356.3a2.613,2.613,0,0,0-.031-.5,2.247,2.247,0,0,0-2.747-1.907c-1.836.489-3,3.711-3.087,5.4,0,.1.061,1.19.113,1.877-.093-.4-.177-.788-.277-1.2-.193-.812-.409-1.616-.638-2.483q-.187-.622-.38-1.256c-.118-.422-.3-.852-.443-1.284-.363-.993-.779-1.981-1.221-2.967a14.761,14.761,0,0,0,4.234-1.585,4.7,4.7,0,0,0,2.061-3.374,2.247,2.247,0,0,0-2.427-2.3c-1.889.2-3.527,3.213-3.87,4.874-.022.1-.134,1.323-.182,1.994-.27-.591-.536-1.182-.829-1.77-.844-1.7-1.751-3.394-2.648-5.088-.275-.519-.543-1.039-.814-1.559a15.634,15.634,0,0,0,4.39-1.623,4.7,4.7,0,0,0,2.06-3.374,2.247,2.247,0,0,0-2.427-2.3c-1.889.206-3.527,3.213-3.87,4.875-.026.125-.184,1.88-.2,2.328-.6-1.145-1.178-2.291-1.706-3.444a39.508,39.508,0,0,1-1.853-4.788,15.872,15.872,0,0,0,4.415-1.628,4.7,4.7,0,0,0,2.063-3.374,2.248,2.248,0,0,0-2.429-2.3c-1.888.2-3.527,3.213-3.87,4.874-.023.109-.145,1.447-.188,2.084l-.108.011a28.953,28.953,0,0,1-.966-5.073c-.106-.943-.155-1.851-.182-2.735A15.107,15.107,0,0,0,36.1,325.59a4.7,4.7,0,0,0,2.419-3.127,2.247,2.247,0,0,0-2.16-2.554c-1.9,0-3.858,2.806-4.381,4.419-.028.088-.219,1.012-.348,1.687-.006-.4-.02-.811-.018-1.193,0-1.437.094-2.752.184-3.916.056-.661.12-1.258.187-1.816a15.042,15.042,0,0,0,3.422-3.037,4.7,4.7,0,0,0,.707-3.89,2.248,2.248,0,0,0-3.095-1.271c-1.687.872-2.131,4.269-1.852,5.942.025.144.662,2.362.691,2.343l.034-.023c-.075.536-.148,1.111-.215,1.74-.115,1.165-.235,2.481-.269,3.924a39.825,39.825,0,0,0,.111,4.657,29.334,29.334,0,0,0,.863,5.14c0,.02.013.039.019.059-.3-.47-1.178-1.754-1.257-1.845-1.109-1.283-4.008-3.109-5.756-2.367a2.249,2.249,0,0,0-1,3.194,4.7,4.7,0,0,0,3.446,1.939" transform="translate(-24.081 -310.653)" fill="#a3314f"/>
              </g>
            </g>
          </g>
          <path id="Trazado_266326" data-name="Trazado 266326" d="M681.009,329.848c.03.018.606-2.215.626-2.361.234-1.68-.3-5.063-2.012-5.889a2.248,2.248,0,0,0-3.059,1.354,4.7,4.7,0,0,0,.812,3.87,16.1,16.1,0,0,0,3.632,3.026" transform="translate(-216.927 -313.83)" fill="#263238"/>
          <path id="Trazado_266327" data-name="Trazado 266327" d="M633.832,330a16.089,16.089,0,0,0,4.7.52c.034,0-.717-2.182-.78-2.315-.731-1.53-3.045-4.057-4.927-3.8a2.248,2.248,0,0,0-1.8,2.817,4.7,4.7,0,0,0,2.811,2.78" transform="translate(-203.472 -314.72)" fill="#263238"/>
          <path id="Trazado_266328" data-name="Trazado 266328" d="M635.1,335.594a15.628,15.628,0,0,0,4.626-.726,39.832,39.832,0,0,0,1.8,4.993c.41.948.851,1.889,1.306,2.828-.271-.4-.517-.751-.557-.8-1.109-1.283-4.008-3.109-5.756-2.366a2.248,2.248,0,0,0-1,3.193,4.7,4.7,0,0,0,3.446,1.939,14.887,14.887,0,0,0,4.5-.689c.178.358.352.718.531,1.076.862,1.715,1.73,3.423,2.529,5.125.282.6.537,1.2.8,1.8-.241-.353-.448-.648-.484-.69-1.11-1.283-4.008-3.109-5.756-2.366a2.247,2.247,0,0,0-1,3.193,4.7,4.7,0,0,0,3.446,1.939,14.337,14.337,0,0,0,4.374-.656c.246.622.493,1.245.7,1.86.134.423.292.821.4,1.252s.237.847.353,1.264c.195.812.4,1.647.571,2.444.122.553.229,1.082.337,1.615-.273-.6-.834-1.763-.892-1.855-.9-1.436-3.491-3.68-5.331-3.211a2.248,2.248,0,0,0-1.468,3.006A4.7,4.7,0,0,0,645.7,362.2a15.425,15.425,0,0,0,4.655-.014c.177.882.341,1.742.482,2.556.3,1.7.529,3.23.707,4.545h1.241c-.212-1.362-.486-2.966-.841-4.751-.176-.9-.382-1.851-.6-2.83a24.417,24.417,0,0,0,2.6-1.221,16.44,16.44,0,0,0,3.786,2.441c-.339.833-.677,1.642-1.008,2.4-.647,1.488-1.262,2.816-1.813,3.962h1.34c.47-1.047.98-2.227,1.511-3.525.348-.845.7-1.755,1.058-2.693a15.432,15.432,0,0,0,4.643.361,4.7,4.7,0,0,0,3.285-2.2,2.248,2.248,0,0,0-1.24-3.106c-1.8-.6-4.549,1.44-5.556,2.805-.059.08-.606,1.026-.941,1.628.143-.384.287-.755.429-1.152.288-.783.551-1.573.838-2.422l.375-1.257c.135-.417.224-.874.339-1.316.244-1.028.442-2.082.618-3.148A14.79,14.79,0,0,0,666,354.278a4.7,4.7,0,0,0,3.58-1.677,2.247,2.247,0,0,0-.755-3.259c-1.688-.871-4.714.734-5.916,1.931-.075.075-.841,1.03-1.252,1.563.1-.642.2-1.282.286-1.934.234-1.884.412-3.8.6-5.7.057-.585.12-1.166.182-1.749a15.614,15.614,0,0,0,4.556,1.068,4.7,4.7,0,0,0,3.58-1.677,2.247,2.247,0,0,0-.755-3.259c-1.688-.87-4.714.735-5.917,1.931-.09.09-1.19,1.466-1.454,1.83.136-1.283.283-2.56.479-3.813a39.581,39.581,0,0,1,1.1-5.016,15.867,15.867,0,0,0,4.581,1.078,4.7,4.7,0,0,0,3.58-1.677,2.247,2.247,0,0,0-.755-3.258c-1.688-.871-4.714.734-5.916,1.93-.079.079-.919,1.126-1.306,1.634l-.1-.05a28.914,28.914,0,0,1,1.992-4.763c.432-.845.892-1.629,1.357-2.381a15.106,15.106,0,0,0,4.338,1.525,4.7,4.7,0,0,0,3.743-1.273,2.247,2.247,0,0,0-.393-3.322c-1.582-1.051-4.766.212-6.093,1.269-.072.057-.741.723-1.221,1.214.215-.336.431-.687.643-1.005.795-1.2,1.6-2.243,2.312-3.165.413-.52.8-.983,1.158-1.412a15.048,15.048,0,0,0,4.53-.645,4.7,4.7,0,0,0,2.735-2.855,2.248,2.248,0,0,0-1.88-2.767c-1.889-.2-4.132,2.385-4.823,3.934-.059.134-.751,2.335-.716,2.335h.04c-.358.406-.736.845-1.14,1.333-.739.907-1.566,1.939-2.389,3.123a40.1,40.1,0,0,0-2.476,3.946A29.3,29.3,0,0,0,664,334.023c-.007.02-.011.041-.018.061.01-.557-.015-2.113-.03-2.232-.217-1.682-1.628-4.8-3.5-5.149a2.248,2.248,0,0,0-2.592,2.114,4.7,4.7,0,0,0,1.8,3.518,15.639,15.639,0,0,0,4.259,1.946,39.754,39.754,0,0,0-1.25,5.16c-.182,1.016-.333,2.045-.471,3.078-.007-.481-.017-.912-.025-.971-.218-1.682-1.628-4.8-3.5-5.149a2.248,2.248,0,0,0-2.593,2.114,4.7,4.7,0,0,0,1.8,3.518,14.89,14.89,0,0,0,4.131,1.9c-.049.4-.1.793-.15,1.19-.227,1.906-.446,3.81-.719,5.67-.1.655-.214,1.3-.329,1.941-.007-.428-.016-.788-.023-.843-.218-1.682-1.628-4.8-3.5-5.149a2.247,2.247,0,0,0-2.592,2.114,4.7,4.7,0,0,0,1.8,3.518,14.331,14.331,0,0,0,4.011,1.866c-.139.655-.277,1.311-.44,1.939-.122.427-.209.845-.356,1.267s-.27.836-.4,1.248c-.285.784-.575,1.6-.872,2.353-.2.529-.406,1.029-.61,1.534.1-.652.277-1.931.28-2.04a8.722,8.722,0,0,0-1.171-4.245,2.6,2.6,0,0,0-.031-.5,2.248,2.248,0,0,0-2.748-1.907c-1.836.489-3,3.711-3.087,5.4,0,.1.06,1.19.113,1.877-.093-.4-.177-.788-.278-1.2-.192-.812-.408-1.616-.637-2.483q-.188-.622-.38-1.256c-.118-.422-.3-.852-.443-1.284-.363-.993-.779-1.981-1.221-2.967a14.776,14.776,0,0,0,4.234-1.585,4.7,4.7,0,0,0,2.061-3.374,2.247,2.247,0,0,0-2.427-2.3c-1.889.2-3.527,3.213-3.87,4.874-.022.1-.134,1.323-.182,1.994-.27-.591-.536-1.182-.829-1.77-.844-1.7-1.751-3.394-2.648-5.088-.276-.519-.543-1.039-.814-1.559a15.625,15.625,0,0,0,4.389-1.623,4.7,4.7,0,0,0,2.061-3.374,2.247,2.247,0,0,0-2.427-2.3c-1.889.206-3.528,3.213-3.87,4.875-.025.125-.184,1.88-.2,2.328-.595-1.145-1.177-2.291-1.7-3.444a39.491,39.491,0,0,1-1.854-4.788,15.872,15.872,0,0,0,4.415-1.628,4.7,4.7,0,0,0,2.062-3.374,2.248,2.248,0,0,0-2.428-2.3c-1.889.2-3.527,3.213-3.87,4.874-.022.109-.145,1.447-.188,2.084l-.108.011a28.946,28.946,0,0,1-.966-5.073c-.106-.943-.155-1.851-.182-2.735a15.112,15.112,0,0,0,4.459-1.121,4.7,4.7,0,0,0,2.419-3.127,2.248,2.248,0,0,0-2.16-2.554c-1.9,0-3.858,2.806-4.381,4.419-.028.088-.219,1.012-.348,1.687-.006-.4-.02-.811-.018-1.193,0-1.437.094-2.752.184-3.916.056-.661.12-1.258.187-1.816a15.039,15.039,0,0,0,3.422-3.037,4.7,4.7,0,0,0,.707-3.89,2.248,2.248,0,0,0-3.095-1.271c-1.687.872-2.131,4.269-1.852,5.942.025.144.662,2.362.691,2.343l.033-.023c-.074.536-.147,1.111-.215,1.74-.116,1.165-.236,2.481-.269,3.924a39.858,39.858,0,0,0,.111,4.657,29.329,29.329,0,0,0,.863,5.14c0,.02.013.039.019.059-.3-.47-1.178-1.754-1.257-1.845-1.109-1.283-4.008-3.109-5.756-2.367a2.249,2.249,0,0,0-1,3.194,4.7,4.7,0,0,0,3.446,1.939" transform="translate(-203.59 -310.653)" fill="#263238"/>
          <g id="Grupo_238054" data-name="Grupo 238054" transform="translate(427.481 9.669)" opacity="0.3">
            <g id="Grupo_238053" data-name="Grupo 238053">
              <g id="Grupo_238052" data-name="Grupo 238052" clip-path="url(#clip-path-7)">
                <path id="Trazado_266329" data-name="Trazado 266329" d="M633.832,330a16.089,16.089,0,0,0,4.7.52c.034,0-.717-2.182-.78-2.315-.731-1.53-3.045-4.057-4.927-3.8a2.248,2.248,0,0,0-1.8,2.817,4.7,4.7,0,0,0,2.811,2.78" transform="translate(-630.953 -324.389)" fill="#a3314f"/>
              </g>
            </g>
          </g>
          <g id="Grupo_238057" data-name="Grupo 238057" transform="translate(459.475 7.554)" opacity="0.3">
            <g id="Grupo_238056" data-name="Grupo 238056">
              <g id="Grupo_238055" data-name="Grupo 238055" clip-path="url(#clip-path-8)">
                <path id="Trazado_266330" data-name="Trazado 266330" d="M681.009,329.848c.03.018.606-2.215.626-2.361.234-1.68-.3-5.063-2.012-5.889a2.248,2.248,0,0,0-3.059,1.354,4.7,4.7,0,0,0,.812,3.87,16.1,16.1,0,0,0,3.632,3.026" transform="translate(-676.402 -321.384)" fill="#a3314f"/>
              </g>
            </g>
          </g>
          <g id="Grupo_238060" data-name="Grupo 238060" transform="translate(427.763)" opacity="0.3">
            <g id="Grupo_238059" data-name="Grupo 238059">
              <g id="Grupo_238058" data-name="Grupo 238058" clip-path="url(#clip-path-6)">
                <path id="Trazado_266331" data-name="Trazado 266331" d="M635.1,335.594a15.628,15.628,0,0,0,4.626-.726,39.832,39.832,0,0,0,1.8,4.993c.41.948.851,1.889,1.306,2.828-.271-.4-.517-.751-.557-.8-1.109-1.283-4.008-3.109-5.756-2.366a2.248,2.248,0,0,0-1,3.193,4.7,4.7,0,0,0,3.446,1.939,14.887,14.887,0,0,0,4.5-.689c.178.358.352.718.531,1.076.862,1.715,1.73,3.423,2.529,5.125.282.6.537,1.2.8,1.8-.241-.353-.448-.648-.484-.69-1.11-1.283-4.008-3.109-5.756-2.366a2.247,2.247,0,0,0-1,3.193,4.7,4.7,0,0,0,3.446,1.939,14.337,14.337,0,0,0,4.374-.656c.246.622.493,1.245.7,1.86.134.423.292.821.4,1.252s.237.847.353,1.264c.195.812.4,1.647.571,2.444.122.553.229,1.082.337,1.615-.273-.6-.834-1.763-.892-1.855-.9-1.436-3.491-3.68-5.331-3.211a2.248,2.248,0,0,0-1.468,3.006A4.7,4.7,0,0,0,645.7,362.2a15.425,15.425,0,0,0,4.655-.014c.177.882.341,1.742.482,2.556.3,1.7.529,3.23.707,4.545h1.241c-.212-1.362-.486-2.966-.841-4.751-.176-.9-.382-1.851-.6-2.83a24.417,24.417,0,0,0,2.6-1.221,16.44,16.44,0,0,0,3.786,2.441c-.339.833-.677,1.642-1.008,2.4-.647,1.488-1.262,2.816-1.813,3.962h1.34c.47-1.047.98-2.227,1.511-3.525.348-.845.7-1.755,1.058-2.693a15.432,15.432,0,0,0,4.643.361,4.7,4.7,0,0,0,3.285-2.2,2.248,2.248,0,0,0-1.24-3.106c-1.8-.6-4.549,1.44-5.556,2.805-.059.08-.606,1.026-.941,1.628.143-.384.287-.755.429-1.152.288-.783.551-1.573.838-2.422l.375-1.257c.135-.417.224-.874.339-1.316.244-1.028.442-2.082.618-3.148A14.79,14.79,0,0,0,666,354.278a4.7,4.7,0,0,0,3.58-1.677,2.247,2.247,0,0,0-.755-3.259c-1.688-.871-4.714.734-5.916,1.931-.075.075-.841,1.03-1.252,1.563.1-.642.2-1.282.286-1.934.234-1.884.412-3.8.6-5.7.057-.585.12-1.166.182-1.749a15.614,15.614,0,0,0,4.556,1.068,4.7,4.7,0,0,0,3.58-1.677,2.247,2.247,0,0,0-.755-3.259c-1.688-.87-4.714.735-5.917,1.931-.09.09-1.19,1.466-1.454,1.83.136-1.283.283-2.56.479-3.813a39.581,39.581,0,0,1,1.1-5.016,15.867,15.867,0,0,0,4.581,1.078,4.7,4.7,0,0,0,3.58-1.677,2.247,2.247,0,0,0-.755-3.258c-1.688-.871-4.714.734-5.916,1.93-.079.079-.919,1.126-1.306,1.634l-.1-.05a28.914,28.914,0,0,1,1.992-4.763c.432-.845.892-1.629,1.357-2.381a15.106,15.106,0,0,0,4.338,1.525,4.7,4.7,0,0,0,3.743-1.273,2.247,2.247,0,0,0-.393-3.322c-1.582-1.051-4.766.212-6.093,1.269-.072.057-.741.723-1.221,1.214.215-.336.431-.687.643-1.005.795-1.2,1.6-2.243,2.312-3.165.413-.52.8-.983,1.158-1.412a15.048,15.048,0,0,0,4.53-.645,4.7,4.7,0,0,0,2.735-2.855,2.248,2.248,0,0,0-1.88-2.767c-1.889-.2-4.132,2.385-4.823,3.934-.059.134-.751,2.335-.716,2.335h.04c-.358.406-.736.845-1.14,1.333-.739.907-1.566,1.939-2.389,3.123a40.1,40.1,0,0,0-2.476,3.946A29.3,29.3,0,0,0,664,334.023c-.007.02-.011.041-.018.061.01-.557-.015-2.113-.03-2.232-.217-1.682-1.628-4.8-3.5-5.149a2.248,2.248,0,0,0-2.592,2.114,4.7,4.7,0,0,0,1.8,3.518,15.639,15.639,0,0,0,4.259,1.946,39.754,39.754,0,0,0-1.25,5.16c-.182,1.016-.333,2.045-.471,3.078-.007-.481-.017-.912-.025-.971-.218-1.682-1.628-4.8-3.5-5.149a2.248,2.248,0,0,0-2.593,2.114,4.7,4.7,0,0,0,1.8,3.518,14.89,14.89,0,0,0,4.131,1.9c-.049.4-.1.793-.15,1.19-.227,1.906-.446,3.81-.719,5.67-.1.655-.214,1.3-.329,1.941-.007-.428-.016-.788-.023-.843-.218-1.682-1.628-4.8-3.5-5.149a2.247,2.247,0,0,0-2.592,2.114,4.7,4.7,0,0,0,1.8,3.518,14.331,14.331,0,0,0,4.011,1.866c-.139.655-.277,1.311-.44,1.939-.122.427-.209.845-.356,1.267s-.27.836-.4,1.248c-.285.784-.575,1.6-.872,2.353-.2.529-.406,1.029-.61,1.534.1-.652.277-1.931.28-2.04a8.722,8.722,0,0,0-1.171-4.245,2.6,2.6,0,0,0-.031-.5,2.248,2.248,0,0,0-2.748-1.907c-1.836.489-3,3.711-3.087,5.4,0,.1.06,1.19.113,1.877-.093-.4-.177-.788-.278-1.2-.192-.812-.408-1.616-.637-2.483q-.188-.622-.38-1.256c-.118-.422-.3-.852-.443-1.284-.363-.993-.779-1.981-1.221-2.967a14.776,14.776,0,0,0,4.234-1.585,4.7,4.7,0,0,0,2.061-3.374,2.247,2.247,0,0,0-2.427-2.3c-1.889.2-3.527,3.213-3.87,4.874-.022.1-.134,1.323-.182,1.994-.27-.591-.536-1.182-.829-1.77-.844-1.7-1.751-3.394-2.648-5.088-.276-.519-.543-1.039-.814-1.559a15.625,15.625,0,0,0,4.389-1.623,4.7,4.7,0,0,0,2.061-3.374,2.247,2.247,0,0,0-2.427-2.3c-1.889.206-3.528,3.213-3.87,4.875-.025.125-.184,1.88-.2,2.328-.595-1.145-1.177-2.291-1.7-3.444a39.491,39.491,0,0,1-1.854-4.788,15.872,15.872,0,0,0,4.415-1.628,4.7,4.7,0,0,0,2.062-3.374,2.248,2.248,0,0,0-2.428-2.3c-1.889.2-3.527,3.213-3.87,4.874-.022.109-.145,1.447-.188,2.084l-.108.011a28.946,28.946,0,0,1-.966-5.073c-.106-.943-.155-1.851-.182-2.735a15.112,15.112,0,0,0,4.459-1.121,4.7,4.7,0,0,0,2.419-3.127,2.248,2.248,0,0,0-2.16-2.554c-1.9,0-3.858,2.806-4.381,4.419-.028.088-.219,1.012-.348,1.687-.006-.4-.02-.811-.018-1.193,0-1.437.094-2.752.184-3.916.056-.661.12-1.258.187-1.816a15.039,15.039,0,0,0,3.422-3.037,4.7,4.7,0,0,0,.707-3.89,2.248,2.248,0,0,0-3.095-1.271c-1.687.872-2.131,4.269-1.852,5.942.025.144.662,2.362.691,2.343l.033-.023c-.074.536-.147,1.111-.215,1.74-.116,1.165-.236,2.481-.269,3.924a39.858,39.858,0,0,0,.111,4.657,29.329,29.329,0,0,0,.863,5.14c0,.02.013.039.019.059-.3-.47-1.178-1.754-1.257-1.845-1.109-1.283-4.008-3.109-5.756-2.367a2.249,2.249,0,0,0-1,3.194,4.7,4.7,0,0,0,3.446,1.939" transform="translate(-631.353 -310.653)" fill="#a3314f"/>
              </g>
            </g>
          </g>
        </g>
      </g>
      <g id="Grupo_238064" data-name="Grupo 238064" transform="translate(28.032 30.938)">
        <g id="Grupo_238070" data-name="Grupo 238070">
          <path id="Trazado_266332" data-name="Trazado 266332" d="M161.571,293.81s.88-.176,8.1-2.288a31.44,31.44,0,0,0,12.319-7.391L179.7,269.7l-14.607,2.112Z" transform="translate(-75.867 -110.786)" fill="#92e3a9"/>
          <path id="Trazado_266333" data-name="Trazado 266333" d="M161.571,293.81s.88-.176,8.1-2.288a31.44,31.44,0,0,0,12.319-7.391L179.7,269.7l-14.607,2.112Z" transform="translate(-75.867 -110.786)" fill="#a3314f" stroke="#263238" stroke-linecap="round" stroke-linejoin="round" stroke-width="1"/>
          <path id="Trazado_266334" data-name="Trazado 266334" d="M109.373,373.45a30.33,30.33,0,0,0-2.816,9.5c-.352,4.576,2.288,6.159,3.168,4.928a23.918,23.918,0,0,0,2.464-7.567l.528-5.807Z" transform="translate(-59.57 -141.502)" fill="#ac556c"/>
          <path id="Trazado_266335" data-name="Trazado 266335" d="M109.373,373.45a30.33,30.33,0,0,0-2.816,9.5c-.352,4.576,2.288,6.159,3.168,4.928a23.918,23.918,0,0,0,2.464-7.567l.528-5.807Z" transform="translate(-59.57 -141.502)" fill="none" stroke="#263238" stroke-linecap="round" stroke-linejoin="round" stroke-width="1"/>
          <path id="Trazado_266336" data-name="Trazado 266336" d="M202.209,377.945s-.713,6.335-.893,9.326,3.511,5.812,4.039,5.989,1.056,0,1.939-2.109.89-7.214.365-8.8-1.578-4.05-1.578-4.05Z" transform="translate(-87.632 -142.833)" fill="#fff"/>
          <path id="Trazado_266337" data-name="Trazado 266337" d="M202.209,377.945s-.713,6.335-.893,9.326,3.511,5.812,4.039,5.989,1.056,0,1.939-2.109.89-7.214.365-8.8-1.578-4.05-1.578-4.05Z" transform="translate(-87.632 -142.833)" fill="#ac556c" stroke="#263238" stroke-linecap="round" stroke-linejoin="round" stroke-width="1"/>
          <path id="Trazado_266338" data-name="Trazado 266338" d="M150.473,246.2s-7.1,8.471-9.567,15.511-4.431,15.753-6.1,20.39a116.084,116.084,0,0,0-3.52,12.143s-4.576,4.576-5.807,8.623-15.663,33.965-15.663,33.965.88,1.232,1.584,1.408,2.288-.7,2.288-.7,25.518-33.437,27.1-35.9,6.582-8.172,7.11-9.052,4.505-13.122,5.913-14.882a29.063,29.063,0,0,0,2.731-4.464l1.056.7,1.232.176s5.54,11.152,6.948,15.727,5.456,29.565,6.511,34.141,2.464,16.543,2.464,16.543a19.312,19.312,0,0,0,1.936.528,10.451,10.451,0,0,0,3.168-.528s4.048-18.3,4.224-24.638-1.056-20.414-1.056-22.526-3.168-31.149-4.752-35.021-6.863-10.735-6.863-10.735Z" transform="translate(-60.546 -103.829)" fill="#263238"/>
          <path id="Trazado_266339" data-name="Trazado 266339" d="M150.473,246.2s-7.1,8.471-9.567,15.511-4.431,15.753-6.1,20.39a116.084,116.084,0,0,0-3.52,12.143s-4.576,4.576-5.807,8.623-15.663,33.965-15.663,33.965.88,1.232,1.584,1.408,2.288-.7,2.288-.7,25.518-33.437,27.1-35.9,6.582-8.172,7.11-9.052,4.505-13.122,5.913-14.882a29.063,29.063,0,0,0,2.731-4.464l1.056.7,1.232.176s5.54,11.152,6.948,15.727,5.456,29.565,6.511,34.141,2.464,16.543,2.464,16.543a19.312,19.312,0,0,0,1.936.528,10.451,10.451,0,0,0,3.168-.528s4.048-18.3,4.224-24.638-1.056-20.414-1.056-22.526-3.168-31.149-4.752-35.021-6.863-10.735-6.863-10.735Z" transform="translate(-60.546 -103.829)" fill="none" stroke="#263238" stroke-linecap="round" stroke-linejoin="round" stroke-width="1"/>
          <path id="Trazado_266340" data-name="Trazado 266340" d="M177.683,198.95l-10.559,3.344s0,20.414.176,23.054-1.232,7.039-.352,8.1,5.1,5.28,12.847,5.456,9.855-2.288,9.855-2.288l1.584-6.863s5.1-13.727,5.1-15.839-5.1-8.271-8.1-10.735-10.559-4.224-10.559-4.224" transform="translate(-77.372 -89.84)" fill="#fff"/>
          <path id="Trazado_266341" data-name="Trazado 266341" d="M177.683,198.95l-10.559,3.344s0,20.414.176,23.054-1.232,7.039-.352,8.1,5.1,5.28,12.847,5.456,9.855-2.288,9.855-2.288l1.584-6.863s5.1-13.727,5.1-15.839-5.1-8.271-8.1-10.735S177.683,198.95,177.683,198.95Z" transform="translate(-77.372 -89.84)" fill="none" stroke="#263238" stroke-linecap="round" stroke-linejoin="round" stroke-width="1"/>
          <path id="Trazado_266342" data-name="Trazado 266342" d="M134.689,233.2a57.529,57.529,0,0,1-7.039,4.048l-14.079,7.039,1.584,3.344a89.389,89.389,0,0,1,10.383-1.232c4.576-.176,12.319-3.168,12.847-4.048s2.288-5.632,2.288-5.632Z" transform="translate(-61.656 -99.98)" fill="#ffbe9d"/>
          <path id="Trazado_266343" data-name="Trazado 266343" d="M134.689,233.2a57.529,57.529,0,0,1-7.039,4.048l-14.079,7.039,1.584,3.344a89.389,89.389,0,0,1,10.383-1.232c4.576-.176,12.319-3.168,12.847-4.048s2.288-5.632,2.288-5.632Z" transform="translate(-61.656 -99.98)" fill="none" stroke="#263238" stroke-linecap="round" stroke-linejoin="round" stroke-width="1"/>
          <path id="Trazado_266344" data-name="Trazado 266344" d="M169.441,199.2s-7.567,20.766-7.919,23.758-3.344,10.559-3.52,11.615-5.1,11.791-5.1,11.791,5.28-16.543,5.807-19.886a13.14,13.14,0,0,0-.7-6.335s-3.57,7.569-4.1,8.1-4.108,6.573-4.108,6.573l-6.224-11.679s6.863-11.967,8.271-13.9,4.4-7.215,6.511-8.271,11.087-1.76,11.087-1.76" transform="translate(-70.538 -89.914)" fill="#a3314f"/>
          <path id="Trazado_266345" data-name="Trazado 266345" d="M169.441,199.2s-7.567,20.766-7.919,23.758-3.344,10.559-3.52,11.615-5.1,11.791-5.1,11.791,5.28-16.543,5.807-19.886a13.14,13.14,0,0,0-.7-6.335s-3.57,7.569-4.1,8.1-4.108,6.573-4.108,6.573l-6.224-11.679s6.863-11.967,8.271-13.9,4.4-7.215,6.511-8.271S169.441,199.2,169.441,199.2Z" transform="translate(-70.538 -89.914)" fill="none" stroke="#263238" stroke-linecap="round" stroke-linejoin="round" stroke-width="1"/>
          <path id="Trazado_266346" data-name="Trazado 266346" d="M191.666,202.95s-5.456,22.878-5.456,26.574-.528,15.135-1.056,21.47-1.584,26.574-1.584,26.574a43.551,43.551,0,0,0,10.207.352c4.928-.528,13.375-3.872,13.375-3.872s-4.4-22.174-6.159-27.454a133.847,133.847,0,0,1-3.7-13.9c0-.528,4.752-16.015,4.752-18.126s-8.447-11.087-10.383-11.615" transform="translate(-82.38 -91.024)" fill="#a3314f"/>
          <path id="Trazado_266347" data-name="Trazado 266347" d="M191.666,202.95s-5.456,22.878-5.456,26.574-.528,15.135-1.056,21.47-1.584,26.574-1.584,26.574a43.551,43.551,0,0,0,10.207.352c4.928-.528,13.375-3.872,13.375-3.872s-4.4-22.174-6.159-27.454a133.847,133.847,0,0,1-3.7-13.9c0-.528,4.752-16.015,4.752-18.126S193.6,203.478,191.666,202.95Z" transform="translate(-82.38 -91.024)" fill="none" stroke="#263238" stroke-linecap="round" stroke-linejoin="round" stroke-width="1"/>
          <path id="Trazado_266348" data-name="Trazado 266348" d="M106.214,248.276a7.7,7.7,0,0,0-.736-3.886c-.956-1.891-1.481-2.477.056-2.059s2.434,3.421,2.434,3.421Z" transform="translate(-58.989 -102.645)" fill="#ffbe9d"/>
          <path id="Trazado_266349" data-name="Trazado 266349" d="M106.214,248.276a7.7,7.7,0,0,0-.736-3.886c-.956-1.891-1.481-2.477.056-2.059s2.434,3.421,2.434,3.421Z" transform="translate(-58.989 -102.645)" fill="none" stroke="#263238" stroke-linecap="round" stroke-linejoin="round" stroke-width="1"/>
          <path id="Trazado_266350" data-name="Trazado 266350" d="M116.813,250.164s-2.012,3.179-3.223,2.89-6.582-2.978-6.685-4.153.926-4.743,1.81-4.583,8.1,5.847,8.1,5.847" transform="translate(-59.68 -103.269)" fill="#ffbe9d"/>
          <path id="Trazado_266351" data-name="Trazado 266351" d="M116.813,250.164s-2.012,3.179-3.223,2.89-6.582-2.978-6.685-4.153.926-4.743,1.81-4.583S116.813,250.164,116.813,250.164Z" transform="translate(-59.68 -103.269)" fill="none" stroke="#263238" stroke-linecap="round" stroke-linejoin="round" stroke-width="1"/>
          <path id="Trazado_266352" data-name="Trazado 266352" d="M197.31,171.724a26.3,26.3,0,0,1,1.033,4.187,11.865,11.865,0,0,1-.48,2.559s2.879,2.56,3.04,3.2-1.6,1.6-1.6,1.6.161,6.718.161,7.2-7.838.8-7.838.8l-8.157,9.6-3.839-9.436,1.759-5.278s-5.278-3.039-3.358-7.678a13.279,13.279,0,0,1,10.556-7.837,25.378,25.378,0,0,1,8.413.315Z" transform="translate(-80.615 -81.391)" fill="#ffbe9d"/>
          <path id="Trazado_266353" data-name="Trazado 266353" d="M197.31,171.724a26.3,26.3,0,0,1,1.033,4.187,11.865,11.865,0,0,1-.48,2.559s2.879,2.56,3.04,3.2-1.6,1.6-1.6,1.6.161,6.718.161,7.2-7.838.8-7.838.8l-8.157,9.6-3.839-9.436,1.759-5.278s-5.278-3.039-3.358-7.678a13.279,13.279,0,0,1,10.556-7.837,25.378,25.378,0,0,1,8.413.315Z" transform="translate(-80.615 -81.391)" fill="none" stroke="#263238" stroke-linecap="round" stroke-linejoin="round" stroke-width="1"/>
          <path id="Trazado_266354" data-name="Trazado 266354" d="M195.735,199.714l-4.012-.765-.234,5.4Z" transform="translate(-84.724 -89.839)" fill="#eb996e"/>
          <path id="Trazado_266355" data-name="Trazado 266355" d="M195.735,199.714l-4.012-.765-.234,5.4Z" transform="translate(-84.724 -89.839)" fill="none" stroke="#263238" stroke-linecap="round" stroke-linejoin="round" stroke-width="1"/>
          <path id="Trazado_266356" data-name="Trazado 266356" d="M203.662,182.316c0,.557-.208,1.008-.465,1.008s-.465-.451-.465-1.008.208-1.008.465-1.008.465.451.465,1.008" transform="translate(-88.053 -84.616)" fill="#263238"/>
          <path id="Trazado_266357" data-name="Trazado 266357" d="M201.85,180.176s.465-.931,2.171-.465" transform="translate(-87.792 -84.105)" fill="none" stroke="#263238" stroke-linecap="round" stroke-linejoin="round" stroke-width="1"/>
          <path id="Trazado_266358" data-name="Trazado 266358" d="M206.184,190.675s-2.016.31-2.791-.776" transform="translate(-88.249 -87.16)" fill="none" stroke="#263238" stroke-linecap="round" stroke-linejoin="round" stroke-width="1"/>
          <path id="Trazado_266359" data-name="Trazado 266359" d="M194.962,171.537s-5.278-1.28-6.238.64-.16,2.879-.96,4.638-3.839,4-3.839,4-2.879-3.2-3.839-1.6-.64,4,.32,4.8,3.678.32,3.678.32l-4.158,1.92s.16,2.4-3.679,3.358-8.477-1.6-7.838-4.8,5.918-5.118,5.918-5.118-5.6-6.877-.959-12,13.756-2.719,13.756-2.719,1.279-1.44,4.958-1.759,5.278,3.358,5.278,5.438-2.4,2.879-2.4,2.879" transform="translate(-77.874 -79.255)" fill="#263238"/>
          <path id="Trazado_266360" data-name="Trazado 266360" d="M194.962,171.537s-5.278-1.28-6.238.64-.16,2.879-.96,4.638-3.839,4-3.839,4-2.879-3.2-3.839-1.6-.64,4,.32,4.8,3.678.32,3.678.32l-4.158,1.92s.16,2.4-3.679,3.358-8.477-1.6-7.838-4.8,5.918-5.118,5.918-5.118-5.6-6.877-.959-12,13.756-2.719,13.756-2.719,1.279-1.44,4.958-1.759,5.278,3.358,5.278,5.438S194.962,171.537,194.962,171.537Z" transform="translate(-77.874 -79.255)" fill="none" stroke="#263238" stroke-linecap="round" stroke-linejoin="round" stroke-width="1"/>
          <path id="Trazado_266361" data-name="Trazado 266361" d="M422.83,84.259,420.95,47.95,389.738,64.914l.7,2.816,11.8,6.024L346.695,182.6,170.4,230.53,48.527,147.358a4.928,4.928,0,1,0-5.555,8.14l123.75,84.454a4.93,4.93,0,0,0,4.071.685l180.593-49.1a4.934,4.934,0,0,0,3.1-2.514L411.024,78.233Z" transform="translate(-40.117 -45.134)" fill="#263238"/>
          <path id="Trazado_266362" data-name="Trazado 266362" d="M422.83,84.259,420.95,47.95,389.738,64.914l.7,2.816,11.8,6.024L346.695,182.6,170.4,230.53,48.527,147.358a4.928,4.928,0,1,0-5.555,8.14l123.75,84.454a4.93,4.93,0,0,0,4.071.685l180.593-49.1a4.934,4.934,0,0,0,3.1-2.514L411.024,78.233Z" transform="translate(-40.117 -45.134)" fill="none" stroke="#263238" stroke-linecap="round" stroke-linejoin="round" stroke-width="1"/>
          <path id="Trazado_266363" data-name="Trazado 266363" d="M421.83,80.259,419.95,43.95,389.442,63.729l11.8,6.024L345.695,178.6,169.4,226.53,47.527,143.358a4.928,4.928,0,1,0-5.555,8.14l123.75,84.454a4.93,4.93,0,0,0,4.071.685l180.593-49.1a4.934,4.934,0,0,0,3.1-2.514L410.024,74.233Z" transform="translate(-39.821 -43.95)" fill="#92e3a9"/>
          <path id="Trazado_266364" data-name="Trazado 266364" d="M421.83,80.259,419.95,43.95,389.442,63.729l11.8,6.024L345.695,178.6,169.4,226.53,47.527,143.358a4.928,4.928,0,1,0-5.555,8.14l123.75,84.454a4.93,4.93,0,0,0,4.071.685l180.593-49.1a4.934,4.934,0,0,0,3.1-2.514L410.024,74.233Z" transform="translate(-39.821 -43.95)" fill="#a3314f" stroke="#263238" stroke-linecap="round" stroke-linejoin="round" stroke-width="1"/>
          <path id="Trazado_266365" data-name="Trazado 266365" d="M418.229,52.856,397.952,66l9.509,4.852L349.6,184.222,170.236,232.99,47.022,148.9a1.369,1.369,0,0,0-.788-.246,1.408,1.408,0,0,0-.8,2.571l123.75,84.454a1.4,1.4,0,0,0,.794.245,1.419,1.419,0,0,0,.369-.049l180.594-49.1a1.414,1.414,0,0,0,.885-.719L409.97,72.135l9.509,4.854Z" transform="translate(-41.302 -46.587)" fill="#fff"/>
          <path id="Trazado_266366" data-name="Trazado 266366" d="M192.858,257.19l-.963,3.738a43.038,43.038,0,0,1-3.786,6.009c-2.326,3.08-10.669,11.661-10.669,11.661l-2.356,2.907-.275,2.548,1.914.741s.957.371,1.74.772,2.811.766,3.444.3,2.117-4.294,2.117-4.294l.562-2.954s9.909-7.78,12.182-10.137S201,264,201.655,262.638s.113-5.556.113-5.556Z" transform="translate(-79.786 -107.05)" fill="#ffbe9d"/>
          <path id="Trazado_266367" data-name="Trazado 266367" d="M192.858,257.19l-.963,3.738a43.038,43.038,0,0,1-3.786,6.009c-2.326,3.08-10.669,11.661-10.669,11.661l-2.356,2.907-.275,2.548,1.914.741s.957.371,1.74.772,2.811.766,3.444.3,2.117-4.294,2.117-4.294l.562-2.954s9.909-7.78,12.182-10.137S201,264,201.655,262.638s.113-5.556.113-5.556Z" transform="translate(-79.786 -107.05)" fill="none" stroke="#263238" stroke-linecap="round" stroke-linejoin="round" stroke-width="1"/>
          <path id="Trazado_266368" data-name="Trazado 266368" d="M199.355,226.322l-1.777,18.7a40.1,40.1,0,0,0,5.071,1.447c2.781.592,8.588-.945,8.588-.945s-.9-15.561-2.057-21.253-4.4-9.957-6.483-10.67" transform="translate(-86.527 -94.178)" fill="#a3314f"/>
          <path id="Trazado_266369" data-name="Trazado 266369" d="M199.355,226.322l-1.777,18.7a40.1,40.1,0,0,0,5.071,1.447c2.781.592,8.588-.945,8.588-.945s-.9-15.561-2.057-21.253-4.4-9.957-6.483-10.67" transform="translate(-86.527 -94.178)" fill="none" stroke="#263238" stroke-linecap="round" stroke-linejoin="round" stroke-width="1"/>
        </g>
      </g>
      <line id="Línea_1417" data-name="Línea 1417" x2="127.413" transform="translate(363.811 277.316)" fill="none" stroke="#263238" stroke-linecap="round" stroke-linejoin="round" stroke-width="1"/>
      <line id="Línea_1418" data-name="Línea 1418" x2="9.151" transform="translate(348.324 277.316)" fill="none" stroke="#263238" stroke-linecap="round" stroke-linejoin="round" stroke-width="1"/>
      <line id="Línea_1419" data-name="Línea 1419" x2="222.444" transform="translate(118.136 277.316)" fill="none" stroke="#263238" stroke-linecap="round" stroke-linejoin="round" stroke-width="1"/>
      <line id="Línea_1420" data-name="Línea 1420" x2="99.959" transform="translate(11.842 277.316)" fill="none" stroke="#263238" stroke-linecap="round" stroke-linejoin="round" stroke-width="1"/>
    </g>
  </g>
</svg>
