<svg xmlns="http://www.w3.org/2000/svg" xmlns:xlink="http://www.w3.org/1999/xlink" width="420" height="256.1" viewBox="0 0 420 256.1">
  <defs>
    <clipPath id="clip-path">
      <rect id="Rectángulo_294939" data-name="Rectángulo 294939" width="390.502" height="246.959" fill="#e77a97"/>
    </clipPath>
    <clipPath id="clip-path-2">
      <rect id="Rectángulo_294942" data-name="Rectángulo 294942" width="420" height="255.708" fill="none"/>
    </clipPath>
  </defs>
  <g id="Grupo_238024" data-name="Grupo 238024" transform="translate(0 0.195)">
    <g id="Grupo_238026" data-name="Grupo 238026">
      <g id="Grupo_238012" data-name="Grupo 238012" transform="translate(17.479 8.447)">
        <g id="Grupo_238028" data-name="Grupo 238028">
          <path id="Trazado_266142" data-name="Trazado 266142" d="M394.938,109.231c-15.51-24.782-36.821-46.442-59.188-63.179-22.631-16.935-49.5-29.686-77.983-31.682a164.423,164.423,0,0,0-82.353,15.384C156.8,38.637,140.165,50.989,127.823,67.66a40.9,40.9,0,0,0-4.53,8.442q-.348.8-.675,1.617a142.512,142.512,0,0,0-7.551,25.119c-.986,4.891-1.4,10.171-3.321,14.82-5.668,13.725-23.689,17.683-35.085,25.186-27.282,17.962-52.373,49.08-47.068,83.721.006.042.013.084.019.125,4.831,31,18.118,34.223,18.118,34.223H403.246s16.91-26.17,16.105-75.291c-.448-27.336-10.026-53.4-24.413-76.392" transform="translate(-28.878 -13.956)" fill="#92e3a9"/>
          <g id="Grupo_238010" data-name="Grupo 238010" opacity="0.7">
            <g id="Grupo_238009" data-name="Grupo 238009">
              <g id="Grupo_238008" data-name="Grupo 238008" clip-path="url(#clip-path)">
                <path id="Trazado_266143" data-name="Trazado 266143" d="M394.938,109.231c-15.51-24.782-36.821-46.442-59.188-63.179-22.631-16.935-49.5-29.686-77.983-31.682a164.423,164.423,0,0,0-82.353,15.384C156.8,38.637,140.165,50.989,127.823,67.66a40.9,40.9,0,0,0-4.53,8.442q-.348.8-.675,1.617a142.512,142.512,0,0,0-7.551,25.119c-.986,4.891-1.4,10.171-3.321,14.82-5.668,13.725-23.689,17.683-35.085,25.186-27.282,17.962-52.373,49.08-47.068,83.721.006.042.013.084.019.125,4.831,31,18.118,34.223,18.118,34.223H403.246s16.91-26.17,16.105-75.291c-.448-27.336-10.026-53.4-24.413-76.392" transform="translate(-28.878 -13.956)" fill="#e77a97"/>
              </g>
            </g>
          </g>
        </g>
      </g>
      <g id="Grupo_238014" data-name="Grupo 238014" transform="translate(41.132 0.303)">
        <g id="Grupo_238029" data-name="Grupo 238029">
          <path id="Trazado_266144" data-name="Trazado 266144" d="M564.5,264.921s-9.417-1.569-10.678-4.395c-1.254-2.81-2.674-6.777-5.519-8.382-3.505-1.977-6.483,1.617-9.871-.728-4.083-2.827-4.4-9.108-14.761-10.365s-10.05,10.365-10.678,12.249-6.6-1.884-10.05.628-2.513,7.537-3.455,8.48-5.339-.942-6.6,0-2.827,1.884-2.827,1.884l-7.223,2.2h86.369Z" transform="translate(-231.719 -95.414)" fill="#a3314f" stroke="#263238" stroke-linecap="round" stroke-linejoin="round" stroke-width="1"/>
          <path id="Trazado_266145" data-name="Trazado 266145" d="M361.5,17.814s-6.8-1.134-7.715-3.175-1.933-4.9-3.988-6.056c-2.532-1.428-4.684,1.168-7.132-.526C339.718,6.014,339.491,1.476,332,.568s-7.262,7.488-7.715,8.85-4.765-1.361-7.261.454-1.816,5.446-2.5,6.127-3.857-.681-4.765,0-2.042,1.361-2.042,1.361L302.5,18.949h62.4Z" transform="translate(-160.537 -0.5)" fill="none" stroke="#263238" stroke-linecap="round" stroke-linejoin="round" stroke-width="1"/>
          <path id="Trazado_266146" data-name="Trazado 266146" d="M110.285,190.845s-4.882-.813-5.535-2.278-1.387-3.513-2.862-4.345c-1.817-1.025-3.36.838-5.116-.378-2.117-1.465-2.279-4.722-7.652-5.372s-5.21,5.372-5.536,6.349-3.419-.977-5.21.326-1.3,3.907-1.791,4.4-2.768-.488-3.419,0-1.465.977-1.465.977l-3.745,1.14h44.772Z" transform="translate(-67.955 -70.73)" fill="none" stroke="#263238" stroke-linecap="round" stroke-linejoin="round" stroke-width="1"/>
          <path id="Trazado_266147" data-name="Trazado 266147" d="M177.229,355.955s-7.528-1.255-8.536-3.514-2.138-5.418-4.413-6.7c-2.8-1.581-5.184,1.292-7.892-.583-3.264-2.259-3.515-7.281-11.8-8.286s-8.035,8.286-8.537,9.793-5.273-1.507-8.035.5-2.009,6.027-2.762,6.78-4.268-.753-5.273,0-2.26,1.507-2.26,1.507l-5.775,1.758H181Z" transform="translate(-85.319 -133.244)" fill="#a3314f" stroke="#263238" stroke-linecap="round" stroke-linejoin="round" stroke-width="1"/>
        </g>
      </g>
      <path id="Trazado_266148" data-name="Trazado 266148" d="M536.739,176.505l-64.246-60.86h14.745l-106.6-65.278,31.222,65.278H426.6l46.9,44.424" transform="translate(-150.247 -19.881)" fill="none" stroke="#263238" stroke-linecap="round" stroke-linejoin="round" stroke-width="1"/>
      <path id="Trazado_266149" data-name="Trazado 266149" d="M182.414,285.173l-36.761-34.824h4.341L118.61,231.13l9.192,19.219h4.341L168.9,285.173" transform="translate(-46.818 -91.233)" fill="none" stroke="#263238" stroke-linecap="round" stroke-linejoin="round" stroke-width="1"/>
      <path id="Trazado_266150" data-name="Trazado 266150" d="M519.823,70.725l-22.39-13.711,6.558,13.711h5.562L535.78,95.57h4.709L514.261,70.725Z" transform="translate(-196.349 -22.505)" fill="#263238"/>
      <path id="Trazado_266151" data-name="Trazado 266151" d="M432.65,205.118l-22.39-13.711,6.557,13.711h5.562l26.227,24.845h4.709l-26.227-24.845Z" transform="translate(-161.939 -75.553)" fill="#263238"/>
      <path id="Trazado_266152" data-name="Trazado 266152" d="M55.737,355.441l-22.39-13.711L39.9,355.441h5.562l26.227,24.845H76.4L50.175,355.441Z" transform="translate(-13.163 -134.889)" fill="#263238"/>
      <path id="Trazado_266153" data-name="Trazado 266153" d="M108.993,32.829,64.531,5.6,77.554,32.829H88.6l52.08,49.335h9.351L97.949,32.829Z" transform="translate(-25.472 -2.211)" fill="#263238"/>
      <g id="Grupo_238016" data-name="Grupo 238016">
        <g id="Grupo_238015" data-name="Grupo 238015" clip-path="url(#clip-path-2)">
          <path id="Trazado_266154" data-name="Trazado 266154" d="M522.1,374.908c-2.416-.289-3.465,2.7-4.36,1.266s2.569-4.132-1.314-6.614-5.692,1.077-6.924-.194-.344-4.6-2.908-6.055-3.761.357-5.181.418-5.888-2.347-7.671-.456,2.484,6.466.479,6.6-2.819,4.044-1.19,6.574,6.87,3.531,5.848,4.851-6.029,1.239-3.989,4.192,8.963,3.147,9.959,3.5-3.189,1.117-2.482,3.883,6.46,3.108,10.161,1.33,3.033-7.045,3.033-7.045.073,0,.185,0a30.906,30.906,0,0,0-1.6-3.135.3.3,0,0,1-.052.01h-8.3a.3.3,0,0,1,0-.605h8a44.87,44.87,0,0,0-6.483-8.11l-8.229-.8a.3.3,0,0,1-.272-.331.311.311,0,0,1,.331-.272l7.488.731a54.226,54.226,0,0,0-7.076-5.846.3.3,0,1,1,.331-.507,54.258,54.258,0,0,1,6.9,5.661l-1.685-5.728a.3.3,0,1,1,.58-.17l1.991,6.77a46.457,46.457,0,0,1,6.226,7.634l.506-6.243a.307.307,0,0,1,.326-.277.3.3,0,0,1,.277.326l-.573,7.058a31.7,31.7,0,0,1,1.964,3.814c1.634-.109,5.286-.71,7.242-3.856,2.569-4.132.88-8.082-1.536-8.37" transform="translate(-194.269 -143.106)" fill="#a3314f"/>
          <path id="Trazado_266155" data-name="Trazado 266155" d="M544.133,333.755c-1.89-1.533-4.371.435-4.363-1.255s4.377-2.124,2.417-6.295-5.389-2.125-5.753-3.857,2.161-4.07.772-6.673-3.373-1.7-4.605-2.41-3.728-5.127-6.245-4.478-1.347,6.794-3.116,5.839-4.541,1.917-4.513,4.926,3.928,6.652,2.359,7.222-5.761-2.168-5.611,1.418,5.9,7.443,6.557,8.27-3.293-.756-4.17,1.96,3.806,6.075,7.884,6.545,6.324-4.341,6.324-4.341.06.041.156.1a31.122,31.122,0,0,0,.317-3.507.242.242,0,0,1-.05-.019l-7.022-4.429a.3.3,0,1,1,.323-.511l6.767,4.268A44.94,44.94,0,0,0,531.4,326.21l-6.533-5.069a.3.3,0,0,1-.053-.425.313.313,0,0,1,.425-.054l5.943,4.613a54.221,54.221,0,0,0-2.865-8.719.3.3,0,1,1,.55-.252,54.183,54.183,0,0,1,2.815,8.469l1.63-5.743a.3.3,0,0,1,.582.165l-1.927,6.789a46.5,46.5,0,0,1,1.194,9.778l3.758-5.01a.307.307,0,0,1,.424-.061.3.3,0,0,1,.06.423l-4.249,5.665a31.817,31.817,0,0,1-.373,4.274c1.439.78,4.849,2.219,8.183.6,4.377-2.124,5.055-6.366,3.166-7.9" transform="translate(-203.469 -121.86)" fill="#a3314f"/>
          <path id="Trazado_266156" data-name="Trazado 266156" d="M561.285,400.206c-1.054-.856-2.44.243-2.436-.7s2.443-1.186,1.349-3.514-3.008-1.186-3.211-2.154,1.206-2.272.43-3.724-1.882-.951-2.57-1.346-2.081-2.861-3.486-2.5-.752,3.792-1.739,3.259-2.535,1.07-2.52,2.749,2.192,3.713,1.317,4.032-3.215-1.211-3.132.791,3.294,4.155,3.661,4.616-1.838-.422-2.328,1.094,2.124,3.391,4.4,3.653,3.53-2.423,3.53-2.423l.086.056a17.366,17.366,0,0,0,.177-1.957.141.141,0,0,1-.028-.011l-3.92-2.472a.17.17,0,0,1-.053-.233.168.168,0,0,1,.233-.053l3.778,2.382a25.05,25.05,0,0,0-.646-5.76l-3.646-2.829a.169.169,0,0,1-.031-.237.175.175,0,0,1,.237-.03l3.318,2.575a30.352,30.352,0,0,0-1.6-4.866.169.169,0,1,1,.307-.141,30.325,30.325,0,0,1,1.572,4.727l.91-3.206a.169.169,0,1,1,.324.093l-1.075,3.789a25.961,25.961,0,0,1,.666,5.458l2.1-2.8a.169.169,0,0,1,.271.2l-2.373,3.162a17.73,17.73,0,0,1-.208,2.385,5.105,5.105,0,0,0,4.567.336c2.444-1.186,2.822-3.553,1.768-4.409" transform="translate(-215.237 -152.456)" fill="#a3314f"/>
          <path id="Trazado_266157" data-name="Trazado 266157" d="M599.578,373.552c-1.188-3.679-6.2-3.208-4.724-5.452s7.671.964,8.674-6.29-5.337-7.5-4.32-10.123,6.4-3.55,6.808-8.22-3.015-5.192-4.046-7.2-.523-10.058-4.438-11.376-7.682,7.881-9.209,5.076-7.711-1.381-10.28,2.651-.532,12.263-3.115,11.664-5.794-7.878-8.7-2.973,1.412,15.028,1.569,16.7-3.732-3.861-7.254-1-.194,11.389,4.83,15.55,12.185-.3,12.185-.3.045.107.119.269a49.232,49.232,0,0,0,3.46-4.4.455.455,0,0,1-.049-.068l-5.516-11.984a.481.481,0,0,1,.874-.4l5.315,11.548a71.3,71.3,0,0,0,7.4-14.746l-4.309-12.412a.482.482,0,0,1,.3-.613.5.5,0,0,1,.613.3l3.92,11.294a86.14,86.14,0,0,0,3.738-14.1.481.481,0,0,1,.952.141,86.316,86.316,0,0,1-3.589,13.719l7.148-6.237a.481.481,0,0,1,.631.725l-8.449,7.372a73.826,73.826,0,0,1-6.883,14.058l9.347-3.417a.486.486,0,0,1,.616.286.481.481,0,0,1-.286.617l-10.568,3.862a50.279,50.279,0,0,1-4.2,5.369c1.243,2.286,4.537,7.158,10.378,7.892,7.671.964,12.25-4.1,11.061-7.778" transform="translate(-220.682 -128.191)" fill="#a3314f"/>
          <path id="Trazado_266158" data-name="Trazado 266158" d="M577.739,414.658l7.83-10.482-.969-.725-8.372,11.207Z" transform="translate(-227.451 -159.252)" fill="#a3314f"/>
          <path id="Trazado_266159" data-name="Trazado 266159" d="M552.214,398.266l-7.935-36.342-1.182.258,7.878,36.085Z" transform="translate(-214.374 -142.86)" fill="#a3314f"/>
          <path id="Trazado_266160" data-name="Trazado 266160" d="M540.255,414.322,531.292,402.6l-.961.735,8.4,10.986Z" transform="translate(-209.334 -158.916)" fill="#a3314f"/>
        </g>
      </g>
      <g id="Grupo_238018" data-name="Grupo 238018" transform="translate(81.482 66.715)">
        <g id="Grupo_238027" data-name="Grupo 238027">
          <path id="Trazado_266161" data-name="Trazado 266161" d="M412.026,261.032s1.421,2.864,2.011,12.9,4.722,32.067,7.082,40.527,5.312,43.871,5.312,43.871H405.185s-1.18-7.476-1.967-13.377a167.126,167.126,0,0,0-4.328-19.083c-.984-3.345-2.754-9.64-2.754-9.64s.7-29.138,15.891-55.194" transform="translate(-237.846 -169.75)" fill="#a3314f"/>
          <path id="Trazado_266162" data-name="Trazado 266162" d="M412.026,261.032s1.421,2.864,2.011,12.9,4.722,32.067,7.082,40.527,5.312,43.871,5.312,43.871H405.185s-1.18-7.476-1.967-13.377a167.126,167.126,0,0,0-4.328-19.083c-.984-3.345-2.754-9.64-2.754-9.64S396.833,287.088,412.026,261.032Z" transform="translate(-237.846 -169.75)" fill="none" stroke="#263238" stroke-linecap="round" stroke-linejoin="round" stroke-width="1"/>
          <path id="Trazado_266163" data-name="Trazado 266163" d="M410.5,274.378s-2.084,8.714-5.872,22.541a144.406,144.406,0,0,0-4.735,24.436c-.189,1.7-.942,9.032-.942,9.032l-2.657-7.706s.568-17.995,2.273-25.572,12.313-24.625,12.313-24.625Z" transform="translate(-237.909 -174.27)" fill="#263238"/>
          <path id="Trazado_266164" data-name="Trazado 266164" d="M410.5,274.378s-2.084,8.714-5.872,22.541a144.406,144.406,0,0,0-4.735,24.436c-.189,1.7-.942,9.032-.942,9.032l-2.657-7.706s.568-17.995,2.273-25.572,12.313-24.625,12.313-24.625Z" transform="translate(-237.909 -174.27)" fill="none" stroke="#263238" stroke-linecap="round" stroke-linejoin="round" stroke-width="1"/>
          <path id="Trazado_266165" data-name="Trazado 266165" d="M412.377,377.734a106.826,106.826,0,0,0,5.514-24.539" transform="translate(-244.257 -206.129)" fill="none" stroke="#263238" stroke-linecap="round" stroke-linejoin="round" stroke-width="1"/>
          <path id="Trazado_266166" data-name="Trazado 266166" d="M408.486,401s.6-1.208,1.49-3.457" transform="translate(-242.721 -223.633)" fill="none" stroke="#263238" stroke-linecap="round" stroke-linejoin="round" stroke-width="1"/>
          <path id="Trazado_266167" data-name="Trazado 266167" d="M417.472,335.092c-1.054,7.974-2.532,18.8-3.461,24.139" transform="translate(-244.902 -198.984)" fill="none" stroke="#263238" stroke-linecap="round" stroke-linejoin="round" stroke-width="1"/>
          <path id="Trazado_266168" data-name="Trazado 266168" d="M421.25,319.068s-.344,2.709-.861,6.664" transform="translate(-247.419 -192.658)" fill="none" stroke="#263238" stroke-linecap="round" stroke-linejoin="round" stroke-width="1"/>
          <path id="Trazado_266169" data-name="Trazado 266169" d="M254.047,206.664l-2.818-.4s-1.007-3.422-2.214-3.824-4.025,0-4.629-.4a38.642,38.642,0,0,0-6.239-4.226c-4.025-2.214-14.491,1.208-16.1,1.208s-5.233-2.415-5.233-2.415l-10.063-8.453s-1.007-4.025-5.635-8.855-7.246-6.843-10.667-11.271-7.044-2.818-10.063-1.61-10.465,14.692-8.855,17.308,5.434,6.843,7.447,9.258,11.472,20.529,14.289,21.334a40.265,40.265,0,0,1,5.031,1.812s6.843,9.862,12.277,13.484a153.548,153.548,0,0,0,13.484,7.648l2.214,1.61s2.415,34.818,4.428,41.661,2.214,28.176,2.214,28.176l-.2,11.874h70.843L306.173,293s2.415-27.975,8.251-41.66,10.264-26.365,8.856-28.176-22.541-11.673-26.969-14.692-7.447-5.233-7.447-5.233l-31.6,1.812Z" transform="translate(-149.1 -131.885)" fill="#a3314f"/>
          <path id="Trazado_266170" data-name="Trazado 266170" d="M254.047,206.664l-2.818-.4s-1.007-3.422-2.214-3.824-4.025,0-4.629-.4a38.642,38.642,0,0,0-6.239-4.226c-4.025-2.214-14.491,1.208-16.1,1.208s-5.233-2.415-5.233-2.415l-10.063-8.453s-1.007-4.025-5.635-8.855-7.246-6.843-10.667-11.271-7.044-2.818-10.063-1.61-10.465,14.692-8.855,17.308,5.434,6.843,7.447,9.258,11.472,20.529,14.289,21.334a40.265,40.265,0,0,1,5.031,1.812s6.843,9.862,12.277,13.484a153.548,153.548,0,0,0,13.484,7.648l2.214,1.61s2.415,34.818,4.428,41.661,2.214,28.176,2.214,28.176l-.2,11.874h70.843L306.173,293s2.415-27.975,8.251-41.66,10.264-26.365,8.856-28.176-22.541-11.673-26.969-14.692-7.447-5.233-7.447-5.233l-31.6,1.812Z" transform="translate(-149.1 -131.885)" fill="none" stroke="#263238" stroke-linecap="round" stroke-linejoin="round" stroke-width="1"/>
          <path id="Trazado_266171" data-name="Trazado 266171" d="M319.687,327.612l.206,3.5-9.46,17.105-7.269-10.441-3.8-5.454.278-1.616,1.767-10.217,1.78-10.338,1.767-10.223,1.786-10.338,1.761-10.217,1.786-10.338,1.755-10.175-.012-.03-3.468-7.106-.545-1.114,7.245-5.78,1.459,1.876,3.977,5.109-2.143,3-2.893,4.049.387,6.628.521,8.922.521,8.813.521,8.916.514,8.819.527,8.916.514,8.819Z" transform="translate(-199.647 -163.357)" fill="#fff"/>
          <path id="Trazado_266172" data-name="Trazado 266172" d="M319.687,327.612l.206,3.5-9.46,17.105-7.269-10.441-3.8-5.454.278-1.616,1.767-10.217,1.78-10.338,1.767-10.223,1.786-10.338,1.761-10.217,1.786-10.338,1.755-10.175-.012-.03-3.468-7.106-.545-1.114,7.245-5.78,1.459,1.876,3.977,5.109-2.143,3-2.893,4.049.387,6.628.521,8.922.521,8.813.521,8.916.514,8.819.527,8.916.514,8.819Z" transform="translate(-199.647 -163.357)" fill="none" stroke="#263238" stroke-linecap="round" stroke-linejoin="round" stroke-width="1"/>
          <path id="Trazado_266173" data-name="Trazado 266173" d="M316.72,247.935l-8.159,5.018,3.468,7.106,6.525-4.019,2.143-3Zm-.672,18.782-5.762,3.547L308.5,280.6l8.068-4.963Zm1.041,17.735-10.35,6.368-1.786,10.338,12.656-7.79Zm1.035,17.735-14.938,9.194-1.779,10.338L318.651,311.1Zm1.041,17.735-19.526,12.015-.278,1.616,3.8,5.454,16.524-10.169Z" transform="translate(-199.647 -164.581)" fill="#263238"/>
          <line id="Línea_1408" data-name="Línea 1408" x2="2.617" y2="9.057" transform="translate(57.852 57.672)" fill="none" stroke="#263238" stroke-linecap="round" stroke-linejoin="round" stroke-width="1"/>
          <path id="Trazado_266174" data-name="Trazado 266174" d="M253.262,251.744c-.623-2.46-1.064-4.187-1.117-4.345" transform="translate(-181.01 -164.369)" fill="none" stroke="#263238" stroke-linecap="round" stroke-linejoin="round" stroke-width="1"/>
          <path id="Trazado_266175" data-name="Trazado 266175" d="M251.882,276.133s-2.393-9.571-4.167-16.615l.77,10.474-12.3-3.117Z" transform="translate(-174.709 -169.153)" fill="#263238"/>
          <path id="Trazado_266176" data-name="Trazado 266176" d="M251.882,276.133s-2.393-9.571-4.167-16.615l.77,10.474-12.3-3.117Z" transform="translate(-174.709 -169.153)" fill="none" stroke="#263238" stroke-linecap="round" stroke-linejoin="round" stroke-width="1"/>
          <path id="Trazado_266177" data-name="Trazado 266177" d="M257.523,233.678a27.089,27.089,0,0,0-1.388-4.9" transform="translate(-182.584 -157.019)" fill="none" stroke="#263238" stroke-linecap="round" stroke-linejoin="round" stroke-width="1"/>
          <path id="Trazado_266178" data-name="Trazado 266178" d="M261.591,265.12s-.693-13.975-2.341-23.813" transform="translate(-183.814 -161.964)" fill="none" stroke="#263238" stroke-linecap="round" stroke-linejoin="round" stroke-width="1"/>
          <path id="Trazado_266179" data-name="Trazado 266179" d="M299.695,230.109s-1.812,10.063,1.409,18.717" transform="translate(-199.578 -157.544)" fill="none" stroke="#263238" stroke-linecap="round" stroke-linejoin="round" stroke-width="1"/>
          <path id="Trazado_266180" data-name="Trazado 266180" d="M304.345,277.07a20.364,20.364,0,0,0,1.813,2.569" transform="translate(-201.614 -176.081)" fill="none" stroke="#263238" stroke-linecap="round" stroke-linejoin="round" stroke-width="1"/>
          <path id="Trazado_266181" data-name="Trazado 266181" d="M295.371,251.39a55.841,55.841,0,0,0,4.31,13.492" transform="translate(-198.072 -165.944)" fill="none" stroke="#263238" stroke-linecap="round" stroke-linejoin="round" stroke-width="1"/>
          <path id="Trazado_266182" data-name="Trazado 266182" d="M169.683,174.537s2.617,4.831,5.032,5.837,6.843,0,9.258-3.422,3.824-6.239,1.812-8.654a26.515,26.515,0,0,0-4.227-4.025s-9.66,2.214-11.874,10.264" transform="translate(-148.46 -131.557)" fill="#92e3a9"/>
          <path id="Trazado_266183" data-name="Trazado 266183" d="M169.683,174.537s2.617,4.831,5.032,5.837,6.843,0,9.258-3.422,3.824-6.239,1.812-8.654a26.515,26.515,0,0,0-4.227-4.025S171.9,166.487,169.683,174.537Z" transform="translate(-148.46 -131.557)" fill="none" stroke="#263238" stroke-linecap="round" stroke-linejoin="round" stroke-width="1"/>
          <path id="Trazado_266184" data-name="Trazado 266184" d="M167.717,145.238s-8.43-8.751-10.548-10.87-7.3-6.119-11.885-10-9.531-10-10.472-7.884,1.765,7.648,4,11.178a19.077,19.077,0,0,0,6.354,5.766c.353.235-3.412,4.707-3.059,6l.353,1.294s-2.942,3.53-2.706,4.589a5.9,5.9,0,0,0,1.411,2.236s-1.647,3.059-1.177,3.883,4.589,5.883,6.354,6,2-1.059,1.412-1.765-2.589-3.413-2.589-3.413,5.884,3.177,7.413,3.295a14.9,14.9,0,0,0,4-.588s2.706,2.942,5.53,2.589,6.589-4.471,7.177-6.825.152-3.09-1.571-5.487" transform="translate(-134.619 -112.522)" fill="#ffbe9d"/>
          <path id="Trazado_266185" data-name="Trazado 266185" d="M167.717,145.238s-8.43-8.751-10.548-10.87-7.3-6.119-11.885-10-9.531-10-10.472-7.884,1.765,7.648,4,11.178a19.077,19.077,0,0,0,6.354,5.766c.353.235-3.412,4.707-3.059,6l.353,1.294s-2.942,3.53-2.706,4.589a5.9,5.9,0,0,0,1.411,2.236s-1.647,3.059-1.177,3.883,4.589,5.883,6.354,6,2-1.059,1.412-1.765-2.589-3.413-2.589-3.413,5.884,3.177,7.413,3.295a14.9,14.9,0,0,0,4-.588s2.706,2.942,5.53,2.589,6.589-4.471,7.177-6.825S169.44,147.635,167.717,145.238Z" transform="translate(-134.619 -112.522)" fill="none" stroke="#263238" stroke-linecap="round" stroke-linejoin="round" stroke-width="1"/>
          <path id="Trazado_266186" data-name="Trazado 266186" d="M163.974,151.953s-7.648,2.824-8.237,3.53a34.055,34.055,0,0,1-5.766,4.589c-1.295.588-.941,3.295.588,3.53s6.943-2.118,7.531-2.353,5.059,0,6.707-.824" transform="translate(-140.366 -126.694)" fill="none" stroke="#263238" stroke-linecap="round" stroke-linejoin="round" stroke-width="1"/>
          <path id="Trazado_266187" data-name="Trazado 266187" d="M166.43,167.7s.471,3.059,4.354,3.647a9.29,9.29,0,0,0,6.943-1.53" transform="translate(-147.176 -132.91)" fill="none" stroke="#263238" stroke-linecap="round" stroke-linejoin="round" stroke-width="1"/>
          <path id="Trazado_266188" data-name="Trazado 266188" d="M153.4,145.343a24.037,24.037,0,0,0,6.472,1.177" transform="translate(-142.034 -124.085)" fill="none" stroke="#263238" stroke-linecap="round" stroke-linejoin="round" stroke-width="1"/>
          <path id="Trazado_266189" data-name="Trazado 266189" d="M155.155,145.926s1.412,4.471,4.589,6.119" transform="translate(-142.725 -124.315)" fill="none" stroke="#263238" stroke-linecap="round" stroke-linejoin="round" stroke-width="1"/>
          <path id="Trazado_266190" data-name="Trazado 266190" d="M147.573,156.813a15.281,15.281,0,0,0,4.354,3.765" transform="translate(-139.732 -128.613)" fill="none" stroke="#263238" stroke-linecap="round" stroke-linejoin="round" stroke-width="1"/>
          <path id="Trazado_266191" data-name="Trazado 266191" d="M145.434,168.089a27.615,27.615,0,0,0,10.825,4.471s1.883,0,1.648-2.471" transform="translate(-138.888 -133.063)" fill="none" stroke="#263238" stroke-linecap="round" stroke-linejoin="round" stroke-width="1"/>
          <line id="Línea_1409" data-name="Línea 1409" x1="0.941" y2="1.765" transform="translate(10.547 37.967)" fill="none" stroke="#263238" stroke-linecap="round" stroke-linejoin="round" stroke-width="1"/>
          <path id="Trazado_266192" data-name="Trazado 266192" d="M314.6,122.924s-5.318,18.967-7.268,27.3-1.773,14.712.886,19.144a10.382,10.382,0,0,0,3.368,3.545l-1.418,8.508s5.318,9.04,7.268,10.281,20.739-14.358,20.739-14.358l1.95-16.485s6.381.354,7.976-3.191,1.418-6.736.709-7.445l-.709-.709s2.48-9.745,3.722-11.875c1.4-2.408,3.245-4.5,3.133-7.455-.265-6.992-6.38-14.062-12.636-16.668-6.115-2.546-13.705-4.136-20.276-2.822-7.977,1.595-11.877,7.445-7.445,12.231" transform="translate(-202.277 -110.222)" fill="#ffbe9d"/>
          <path id="Trazado_266193" data-name="Trazado 266193" d="M314.6,122.924s-5.318,18.967-7.268,27.3-1.773,14.712.886,19.144a10.382,10.382,0,0,0,3.368,3.545l-1.418,8.508s5.318,9.04,7.268,10.281,20.739-14.358,20.739-14.358l1.95-16.485s6.381.354,7.976-3.191,1.418-6.736.709-7.445l-.709-.709s2.48-9.745,3.722-11.875c1.4-2.408,3.245-4.5,3.133-7.455-.265-6.992-6.38-14.062-12.636-16.668-6.115-2.546-13.705-4.136-20.276-2.822C314.067,112.288,310.167,118.138,314.6,122.924Z" transform="translate(-202.277 -110.222)" fill="none" stroke="#263238" stroke-linecap="round" stroke-linejoin="round" stroke-width="1"/>
          <path id="Trazado_266194" data-name="Trazado 266194" d="M346.7,113.515c-6.115-2.546-13.705-4.136-20.277-2.822-7.976,1.595-11.876,7.445-7.445,12.231a50.28,50.28,0,0,0,7.091,1.241c3.722.355,12.231.886,15.244,2.3a20.619,20.619,0,0,1,4.254,2.482s-3.19,6.027-1.418,9.218,5.141,4.786,4.609,6.2-2.659,6.2-1.95,7.268,2.836-2.836,3.722-2.836a4.378,4.378,0,0,1,1.95.709s2.481-9.745,3.721-11.875c1.4-2.409,3.245-4.5,3.133-7.455-.265-6.992-6.379-14.062-12.635-16.668" transform="translate(-206.658 -110.222)" fill="#263238"/>
          <path id="Trazado_266195" data-name="Trazado 266195" d="M346.7,113.515c-6.115-2.546-13.705-4.136-20.277-2.822-7.976,1.595-11.876,7.445-7.445,12.231a50.28,50.28,0,0,0,7.091,1.241c3.722.355,12.231.886,15.244,2.3a20.619,20.619,0,0,1,4.254,2.482s-3.19,6.027-1.418,9.218,5.141,4.786,4.609,6.2-2.659,6.2-1.95,7.268,2.836-2.836,3.722-2.836a4.378,4.378,0,0,1,1.95.709s2.481-9.745,3.721-11.875c1.4-2.409,3.245-4.5,3.133-7.455C359.072,123.191,352.958,116.121,346.7,113.515Z" transform="translate(-206.658 -110.222)" fill="none" stroke="#263238" stroke-linecap="round" stroke-linejoin="round" stroke-width="1"/>
          <path id="Trazado_266196" data-name="Trazado 266196" d="M323.826,160.755c-.171,1.162-.858,2.024-1.537,1.924s-1.089-1.122-.918-2.284.858-2.024,1.536-1.925,1.09,1.123.919,2.285" transform="translate(-208.319 -129.263)" fill="#263238"/>
          <path id="Trazado_266197" data-name="Trazado 266197" d="M344.044,166.906c-.171,1.162-.858,2.024-1.537,1.924s-1.089-1.122-.919-2.285.859-2.023,1.537-1.924,1.089,1.123.919,2.285" transform="translate(-216.3 -131.691)" fill="#263238"/>
          <path id="Trazado_266198" data-name="Trazado 266198" d="M327.072,161.958s-.886,4.786-2.836,7.445-5.317,3.368-4.431,4.786,5.318,1.95,5.318,1.95" transform="translate(-207.659 -130.643)" fill="none" stroke="#263238" stroke-linecap="round" stroke-linejoin="round" stroke-width="1"/>
          <path id="Trazado_266199" data-name="Trazado 266199" d="M321.363,189.487s4.963,2.659,9.395,1.063" transform="translate(-208.332 -141.51)" fill="none" stroke="#263238" stroke-linecap="round" stroke-linejoin="round" stroke-width="1"/>
          <path id="Trazado_266200" data-name="Trazado 266200" d="M334.677,210.28a51.95,51.95,0,0,1-10.281,3.545c-6.913,1.773-10.1-1.418-10.1-1.418l-1.413,8.476c6.763-2.766,21.8-10.6,21.8-10.6" transform="translate(-204.983 -149.717)" fill="#eb996e"/>
          <path id="Trazado_266201" data-name="Trazado 266201" d="M334.677,210.28a51.95,51.95,0,0,1-10.281,3.545c-6.913,1.773-10.1-1.418-10.1-1.418l-1.413,8.476C319.642,218.118,334.677,210.28,334.677,210.28Z" transform="translate(-204.983 -149.717)" fill="none" stroke="#263238" stroke-linecap="round" stroke-linejoin="round" stroke-width="1"/>
          <path id="Trazado_266202" data-name="Trazado 266202" d="M310.369,159.14s-1.064-1.95-3.014.532.177,9.572.177,9.572Z" transform="translate(-202.478 -129.244)" fill="none" stroke="#263238" stroke-linecap="round" stroke-linejoin="round" stroke-width="1"/>
          <path id="Trazado_266203" data-name="Trazado 266203" d="M319.313,148.935s3.191-1.241,6.381,2.3" transform="translate(-207.522 -125.42)" fill="none" stroke="#263238" stroke-linecap="round" stroke-linejoin="round" stroke-width="3"/>
          <path id="Trazado_266204" data-name="Trazado 266204" d="M342.156,156.352a8.109,8.109,0,0,1,8.508.532" transform="translate(-216.539 -128.051)" fill="none" stroke="#263238" stroke-linecap="round" stroke-linejoin="round" stroke-width="3"/>
          <circle id="Elipse_6106" data-name="Elipse 6106" cx="7.268" cy="7.268" r="7.268" transform="translate(121.54 28.833)" fill="none" stroke="#263238" stroke-linecap="round" stroke-linejoin="round" stroke-width="1"/>
          <path id="Trazado_266205" data-name="Trazado 266205" d="M323.41,158.369a6.514,6.514,0,1,1-6.515-6.515A6.515,6.515,0,0,1,323.41,158.369Z" transform="translate(-203.997 -126.655)" fill="none" stroke="#263238" stroke-linecap="round" stroke-linejoin="round" stroke-width="1"/>
          <path id="Trazado_266206" data-name="Trazado 266206" d="M331.906,162.422s1.95-.93,2.836.488" transform="translate(-212.493 -130.708)" fill="none" stroke="#263238" stroke-linecap="round" stroke-linejoin="round" stroke-width="1"/>
          <line id="Línea_1410" data-name="Línea 1410" x2="6.381" y2="2.304" transform="translate(135.898 37.519)" fill="none" stroke="#263238" stroke-linecap="round" stroke-linejoin="round" stroke-width="1"/>
          <path id="Trazado_266207" data-name="Trazado 266207" d="M316.905,237.055l-9,12.621-3.221-21.938,4.831-2.616Z" transform="translate(-201.747 -155.576)" fill="#a3314f"/>
          <path id="Trazado_266208" data-name="Trazado 266208" d="M316.905,237.055l-9,12.621-3.221-21.938,4.831-2.616Z" transform="translate(-201.747 -155.576)" fill="none" stroke="#263238" stroke-linecap="round" stroke-linejoin="round" stroke-width="1"/>
          <path id="Trazado_266209" data-name="Trazado 266209" d="M324.878,235.474l7.3,14.029,17.308-24.151-3.867-4.236Z" transform="translate(-209.719 -153.994)" fill="#a3314f"/>
          <path id="Trazado_266210" data-name="Trazado 266210" d="M324.878,235.474l7.3,14.029,17.308-24.151-3.867-4.236Z" transform="translate(-209.719 -153.994)" fill="none" stroke="#263238" stroke-linecap="round" stroke-linejoin="round" stroke-width="1"/>
        </g>
      </g>
      <g id="Grupo_238020" data-name="Grupo 238020">
        <g id="Grupo_238019" data-name="Grupo 238019" clip-path="url(#clip-path-2)">
          <path id="Trazado_266211" data-name="Trazado 266211" d="M251.537,63.821a32.933,32.933,0,1,0-5.639,5.71l9.588,8.629Z" transform="translate(-76.071 -4.326)" fill="#263238"/>
          <path id="Trazado_266212" data-name="Trazado 266212" d="M251.537,63.821a32.933,32.933,0,1,0-5.639,5.71l9.588,8.629Z" transform="translate(-76.071 -4.326)" fill="none" stroke="#263238" stroke-linecap="round" stroke-linejoin="round" stroke-width="1"/>
          <path id="Trazado_266213" data-name="Trazado 266213" d="M247.4,62.165a32.933,32.933,0,1,0-5.639,5.71l9.588,8.629Z" transform="translate(-74.437 -3.673)" fill="#fff"/>
          <path id="Trazado_266214" data-name="Trazado 266214" d="M247.4,62.165a32.933,32.933,0,1,0-5.639,5.71l9.588,8.629Z" transform="translate(-74.437 -3.673)" fill="none" stroke="#263238" stroke-linecap="round" stroke-linejoin="round" stroke-width="1"/>
          <path id="Trazado_266215" data-name="Trazado 266215" d="M242.832,86.517a32.836,32.836,0,0,1-36.873-5.332l5.792-9.485,3.722,2.348,9.787-26.814,8.413,32.885,5.677-3.523Z" transform="translate(-81.297 -18.645)" fill="#263238"/>
          <path id="Trazado_266216" data-name="Trazado 266216" d="M242.832,86.517a32.836,32.836,0,0,1-36.873-5.332l5.792-9.485,3.722,2.348,9.787-26.814,8.413,32.885,5.677-3.523Z" transform="translate(-81.297 -18.645)" fill="none" stroke="#263238" stroke-linecap="round" stroke-linejoin="round" stroke-width="1"/>
          <line id="Línea_1411" data-name="Línea 1411" y1="17.226" transform="translate(143.963 11.361)" fill="none" stroke="#263238" stroke-linecap="round" stroke-linejoin="round" stroke-width="1"/>
          <path id="Trazado_266217" data-name="Trazado 266217" d="M237.958,20.489s6.9.465,7.6,1.474.931,3.569,1.241,3.724,4.267.077,4.578.621.931,2.87,1.319,3.413,3.647.932,3.647.932a8.949,8.949,0,0,1-1.4.775c-.465.156-1.707.388-1.707.388l2.017.544a5.041,5.041,0,0,1-2.715,1.163,3.829,3.829,0,0,1-3.181-1.474c-.232-.388-2.87-.233-3.724-.465s-.7-1.707-1.086-2.172-6.672-.776-6.672-.776Z" transform="translate(-93.897 -8.088)" fill="#a3314f"/>
          <path id="Trazado_266218" data-name="Trazado 266218" d="M237.958,20.489s6.9.465,7.6,1.474.931,3.569,1.241,3.724,4.267.077,4.578.621.931,2.87,1.319,3.413,3.647.932,3.647.932a8.949,8.949,0,0,1-1.4.775c-.465.156-1.707.388-1.707.388l2.017.544a5.041,5.041,0,0,1-2.715,1.163,3.829,3.829,0,0,1-3.181-1.474c-.232-.388-2.87-.233-3.724-.465s-.7-1.707-1.086-2.172-6.672-.776-6.672-.776Z" transform="translate(-93.897 -8.088)" fill="none" stroke="#263238" stroke-linecap="round" stroke-linejoin="round" stroke-width="1"/>
        </g>
      </g>
      <g id="Grupo_238022" data-name="Grupo 238022">
        <g id="Grupo_238021" data-name="Grupo 238021" clip-path="url(#clip-path-2)">
          <line id="Línea_1412" data-name="Línea 1412" x2="419.395" transform="translate(0.303 255.406)" fill="none" stroke="#263238" stroke-linecap="round" stroke-linejoin="round" stroke-width="1"/>
        </g>
      </g>
    </g>
  </g>
</svg>
