<svg xmlns="http://www.w3.org/2000/svg" xmlns:xlink="http://www.w3.org/1999/xlink" width="150" height="150" viewBox="0 0 150 150">
  <defs>
    <filter id="Elipse_6110" x="0" y="0" width="150" height="150" filterUnits="userSpaceOnUse">
      <feOffset dy="12" input="SourceAlpha"/>
      <feGaussianBlur stdDeviation="6" result="blur"/>
      <feFlood flood-opacity="0.161"/>
      <feComposite operator="in" in2="blur"/>
      <feComposite in="SourceGraphic"/>
    </filter>
    <filter id="Elipse_6110-2" x="0" y="0" width="150" height="150" filterUnits="userSpaceOnUse">
      <feOffset dy="4" input="SourceAlpha"/>
      <feGaussianBlur stdDeviation="3" result="blur-2"/>
      <feFlood flood-opacity="0.161" result="color"/>
      <feComposite operator="out" in="SourceGraphic" in2="blur-2"/>
      <feComposite operator="in" in="color"/>
      <feComposite operator="in" in2="SourceGraphic"/>
    </filter>
  </defs>
  <g id="Grupo_891221" data-name="Grupo 891221" transform="translate(-595 -5217.064)">
    <g data-type="innerShadowGroup">
      <g transform="matrix(1, 0, 0, 1, 595, 5217.06)" filter="url(#Elipse_6110)">
        <circle id="Elipse_6110-3" data-name="Elipse 6110" cx="57" cy="57" r="57" transform="translate(18 6)" fill="#fff"/>
      </g>
      <g transform="matrix(1, 0, 0, 1, 595, 5217.06)" filter="url(#Elipse_6110-2)">
        <circle id="Elipse_6110-4" data-name="Elipse 6110" cx="57" cy="57" r="57" transform="translate(18 6)" fill="#fff"/>
      </g>
    </g>
    <g id="Grupo_238263" data-name="Grupo 238263" transform="translate(635.742 5251.726)">
      <g id="Grupo_166750" data-name="Grupo 166750" transform="translate(0 0)">
        <g id="Grupo_166751" data-name="Grupo 166751" transform="translate(0)">
          <path id="Trazado_257871" data-name="Trazado 257871" d="M21.468,19.774c-.787,0-1.493.01-2.2,0a1.186,1.186,0,0,1-1.324-1.311q-.02-2.2,0-4.41a1.189,1.189,0,0,1,1.3-1.332c.147,0,.294,0,.441,0H84.362c1.491,0,1.782.3,1.782,1.814,0,1.274.006,2.548,0,3.822-.006,1-.43,1.41-1.442,1.419-.661.006-1.321,0-2.084,0v.784q0,20.5,0,41.009c0,1.394-.326,1.716-1.735,1.716H55.623v4.705c.373,0,.735-.016,1.1,0a1.175,1.175,0,0,1,1.2,1.213,1.686,1.686,0,0,1,0,.294,13.7,13.7,0,0,0,1.685,8.1c.644,1.229,1.126,2.544,1.661,3.828.453,1.088-.058,1.857-1.246,1.843-3.226-.038-2.353.438-4.217-2.12-1.249-1.715-2.471-3.451-3.76-5.253l-2.507,3.5c-.769,1.075-1.494,2.185-2.33,3.2a2.251,2.251,0,0,1-1.285.644,10.2,10.2,0,0,1-1.906.025c-1.135-.019-1.65-.776-1.208-1.821,1-2.36,2.039-4.7,3.019-7.071a4.9,4.9,0,0,0,.321-1.621c.049-1.051.013-2.106.015-3.16,0-1.253.359-1.609,1.614-1.613h.7v-4.7H23.159c-1.355,0-1.691-.335-1.691-1.685q0-20.468,0-40.936Zm2.374,41.113H80.22V19.818H23.842Zm-3.521-43.5H83.756V15.1H20.321ZM48.537,72.652h6.992V70.378H48.537Zm2.361-4.7h2.289V63.316H50.9ZM49.77,75.04a9.9,9.9,0,0,0-1.223.014.787.787,0,0,0-.555.3c-.67,1.491-1.3,3-1.944,4.5l.182.118,3.54-4.935m8.08,4.946.187-.08-2.03-4.8H54.368l3.482,4.885" transform="translate(-17.934 -12.717)"/>
          <path id="Trazado_257872" data-name="Trazado 257872" d="M48.017,48.88h56.378V89.949H48.017ZM65.635,82.938c1.083,0,2.084.023,3.083-.011.437-.015.611.137.782.541a4.568,4.568,0,0,0,4.388,2.989c1.543.037,3.087.018,4.63,0a4.718,4.718,0,0,0,4.739-4.238,4.545,4.545,0,0,0-3.9-5.048,30.9,30.9,0,0,0-6.3,0,4.418,4.418,0,0,0-3.771,3.378H65.7c-.3-2.319-.3-2.319-2.683-2.319-.1,0-.2-.007-.294,0a3.9,3.9,0,0,1-2.62-.768c-.142-.1-.33-.267-.333-.407-.027-1.165-.015-2.331-.015-3.529.753,0,1.412-.02,2.07.005A1.318,1.318,0,0,0,63.3,72.5c.2-.679.477-1.337.666-2.019A.569.569,0,0,1,64.637,70c1.2.022,2.4-.018,3.6.024a2.206,2.206,0,0,1,1.075.336c1.991,1.293,3.973,2.6,5.928,3.948a1.51,1.51,0,0,0,1.94.014c1.978-1.355,3.984-2.669,5.984-3.993a1.405,1.405,0,0,1,.646-.3c1.211-.03,2.423-.014,3.7-.014-.2.6-.371,1.108-.537,1.617-.406,1.246.056,1.905,1.348,1.907q4.373.006,8.746,0c.952,0,1.221-.2,1.537-1.138q1.066-3.161,2.121-6.326c.439-1.316-.029-1.941-1.447-1.943-1.017,0-2.034,0-3.034,0-.021-.156-.033-.2-.033-.252,0-1.788,0-3.577,0-5.365a3.541,3.541,0,0,0-3.823-3.789q-3.858-.005-7.717,0H83.163a4.934,4.934,0,0,0-5.354-3.537c-1.3.053-2.6,0-3.895.012a4.718,4.718,0,0,0-4.737,4.239,4.54,4.54,0,0,0,3.9,5.046,30.923,30.923,0,0,0,6.3,0c1.955-.184,3.148-1.542,3.78-3.4,3.194,0,6.376-.01,9.558.008a1.044,1.044,0,0,1,1.119,1.048c.044,1.976.016,3.954.016,5.994H90.8c-1.142,0-1.374.17-1.743,1.269-.195.579-.413,1.153-.569,1.742a.606.606,0,0,1-.718.527c-1.224-.03-2.45.011-3.674-.026a1.91,1.91,0,0,1-.934-.317c-1.965-1.287-3.912-2.6-5.868-3.9-.96-.639-1.175-.638-2.115-.011-1.955,1.3-3.906,2.613-5.867,3.907a1.656,1.656,0,0,1-.787.324c-1.173.035-2.348.015-3.6.015.2-.61.385-1.162.561-1.717.364-1.147-.115-1.806-1.329-1.808-2.94-.006-5.879.01-8.819-.01a1.388,1.388,0,0,0-1.5,1.1c-.688,2.141-1.425,4.265-2.135,6.4-.424,1.276.048,1.914,1.409,1.916,1.413,0,2.826,0,4.254,0v3.232a6.436,6.436,0,0,0-4.09,1.668,1.648,1.648,0,0,0-.549,1.112c-.056,1.86-.034,3.723-.022,5.585.006.9.451,1.334,1.375,1.336q5.071.011,10.142,0c1,0,1.405-.432,1.414-1.448.006-.659,0-1.318,0-2.078" transform="translate(-42.11 -41.779)" fill="#d2e1f1"/>
          <rect id="Rectángulo_52707" data-name="Rectángulo 52707" width="63.435" height="2.284" transform="translate(2.387 2.387)" fill="#90bffe"/>
          <rect id="Rectángulo_52708" data-name="Rectángulo 52708" width="6.992" height="2.273" transform="translate(30.603 57.662)" fill="#a5cefe"/>
          <rect id="Rectángulo_52709" data-name="Rectángulo 52709" width="2.289" height="4.638" transform="translate(32.964 50.6)" fill="#7daefe"/>
          <path id="Trazado_257873" data-name="Trazado 257873" d="M164.822,330.039l-3.54,4.935-.182-.118c.643-1.5,1.274-3.011,1.944-4.5a.787.787,0,0,1,.555-.3,9.9,9.9,0,0,1,1.223-.014" transform="translate(-132.986 -267.716)" fill="#77a6f2"/>
          <path id="Trazado_257874" data-name="Trazado 257874" d="M206.95,335.287l-3.482-4.885h1.639l2.03,4.8-.187.08" transform="translate(-167.034 -268.018)" fill="#77a6f2"/>
          <path id="Trazado_257875" data-name="Trazado 257875" d="M80.09,92.312c0,.759,0,1.419,0,2.078-.009,1.016-.419,1.446-1.414,1.448q-5.071.009-10.142,0c-.924,0-1.369-.433-1.375-1.336-.012-1.862-.034-3.725.022-5.585a1.648,1.648,0,0,1,.549-1.112,6.437,6.437,0,0,1,4.09-1.668V82.905c-1.428,0-2.841,0-4.254,0-1.361,0-1.834-.641-1.409-1.917.71-2.134,1.447-4.259,2.135-6.4a1.389,1.389,0,0,1,1.5-1.1c2.939.02,5.879,0,8.819.01,1.213,0,1.693.662,1.329,1.808-.176.555-.361,1.107-.561,1.717,1.248,0,2.422.02,3.6-.015a1.659,1.659,0,0,0,.787-.324c1.961-1.294,3.912-2.6,5.867-3.907.94-.627,1.155-.628,2.115.011,1.955,1.3,3.9,2.616,5.868,3.9a1.905,1.905,0,0,0,.934.317c1.224.036,2.45,0,3.674.026a.606.606,0,0,0,.718-.527c.156-.59.374-1.163.568-1.742.369-1.1.6-1.268,1.743-1.269H108.3c0-2.041.028-4.018-.016-5.995a1.044,1.044,0,0,0-1.119-1.048c-3.182-.018-6.363-.008-9.558-.008-.632,1.863-1.825,3.22-3.78,3.4a30.936,30.936,0,0,1-6.3,0,4.54,4.54,0,0,1-3.9-5.046,4.718,4.718,0,0,1,4.737-4.239c1.3-.012,2.6.042,3.895-.012a4.934,4.934,0,0,1,5.353,3.537h1.506q3.858,0,7.717,0a3.541,3.541,0,0,1,3.823,3.79c0,1.788,0,3.577,0,5.365,0,.048.012.1.033.252,1,0,2.017,0,3.034,0,1.417,0,1.885.627,1.447,1.943q-1.055,3.165-2.121,6.326c-.316.939-.585,1.137-1.537,1.138q-4.373,0-8.746,0c-1.293,0-1.755-.661-1.348-1.907.166-.509.337-1.015.537-1.617-1.28,0-2.492-.015-3.7.014a1.407,1.407,0,0,0-.646.3c-2,1.323-4.006,2.638-5.984,3.993a1.51,1.51,0,0,1-1.94-.014c-1.955-1.346-3.937-2.654-5.927-3.947a2.2,2.2,0,0,0-1.075-.336c-1.2-.041-2.4,0-3.6-.024a.57.57,0,0,0-.671.484c-.189.682-.463,1.34-.666,2.019a1.317,1.317,0,0,1-1.473,1.038c-.658-.025-1.317-.005-2.07-.005,0,1.2-.012,2.364.015,3.529,0,.14.192.308.333.407a3.9,3.9,0,0,0,2.62.768c.1-.008.2,0,.294,0,2.383,0,2.383,0,2.683,2.319h3.588a4.419,4.419,0,0,1,3.771-3.378,30.884,30.884,0,0,1,6.3,0,4.545,4.545,0,0,1,3.9,5.048,4.717,4.717,0,0,1-4.739,4.238c-1.543.014-3.087.032-4.63,0a4.568,4.568,0,0,1-4.388-2.989c-.171-.4-.345-.556-.782-.541-1,.033-2,.01-3.083.01M90.7,62.914c-.784,0-1.568-.013-2.352,0a2.348,2.348,0,1,0-.018,4.7q2.351.032,4.7,0a2.347,2.347,0,0,0,.018-4.693c-.783-.022-1.568,0-2.352,0m-.025,30.574c.759,0,1.519.01,2.278,0a2.349,2.349,0,1,0,.032-4.7q-2.315-.027-4.63,0a2.349,2.349,0,1,0,.041,4.7c.759.012,1.519,0,2.278,0M77.718,89.936a7.43,7.43,0,0,1-4.589-1.144,3,3,0,0,0-3.368.459.542.542,0,0,0-.237.334c-.017,1.287-.011,2.574-.011,3.842h8.206Zm-8.925-9.384c2.229,0,4.382.005,6.535-.01.158,0,.415-.115.457-.235.508-1.461.984-2.932,1.487-4.457-2.237,0-4.366-.006-6.5.012a.638.638,0,0,0-.5.271c-.509,1.447-.981,2.907-1.482,4.421m35.276,0c2.249,0,4.422,0,6.595-.01a.505.505,0,0,0,.4-.22c.505-1.467.985-2.943,1.489-4.473-2.247,0-4.4-.007-6.553.014a.615.615,0,0,0-.461.323c-.5,1.425-.967,2.861-1.467,4.366M85.75,78.2c1.62,1.081,3.156,2.113,4.7,3.126a.5.5,0,0,0,.447-.005c1.549-1.012,3.086-2.041,4.71-3.121-1.627-1.083-3.165-2.112-4.714-3.124a.5.5,0,0,0-.447,0c-1.547,1.013-3.083,2.044-4.7,3.123" transform="translate(-56.565 -51.153)" fill="#010102"/>
          <path id="Trazado_257876" data-name="Trazado 257876" d="M172.406,72.584c.784,0,1.568-.017,2.352,0a2.347,2.347,0,0,1-.018,4.693q-2.351.036-4.7,0a2.348,2.348,0,1,1,.018-4.7c.784-.016,1.568,0,2.352,0" transform="translate(-138.272 -60.822)" fill="#a3314f"/>
          <path id="Trazado_257877" data-name="Trazado 257877" d="M172.381,209.017c-.759,0-1.519.01-2.278,0a2.349,2.349,0,1,1-.041-4.7q2.315-.027,4.63,0a2.349,2.349,0,1,1-.032,4.7c-.759.012-1.519,0-2.278,0" transform="translate(-138.272 -166.682)" fill="#a3314f"/>
          <path id="Trazado_257878" data-name="Trazado 257878" d="M92.067,204.152v3.49H83.862c0-1.268-.006-2.555.011-3.842a.542.542,0,0,1,.237-.334,3,3,0,0,1,3.368-.459,7.43,7.43,0,0,0,4.589,1.144" transform="translate(-70.914 -165.369)" fill="#ced371"/>
          <path id="Trazado_257879" data-name="Trazado 257879" d="M80.2,143.179c.5-1.513.973-2.973,1.482-4.421a.639.639,0,0,1,.5-.271c2.129-.018,4.258-.012,6.5-.012-.5,1.525-.979,3-1.487,4.457-.042.12-.3.234-.456.235-2.153.016-4.306.01-6.535.01" transform="translate(-67.975 -113.779)" fill="#ffb500"/>
          <path id="Trazado_257880" data-name="Trazado 257880" d="M259.842,143.18c.5-1.5.967-2.941,1.467-4.366a.615.615,0,0,1,.461-.323c2.153-.021,4.306-.014,6.553-.014-.5,1.53-.984,3.006-1.49,4.473a.506.506,0,0,1-.4.22c-2.173.014-4.346.01-6.595.01" transform="translate(-212.338 -113.781)" fill="#ffb500"/>
          <path id="Trazado_257881" data-name="Trazado 257881" d="M166.552,137.458c1.617-1.079,3.153-2.11,4.7-3.123a.5.5,0,0,1,.447,0c1.55,1.012,3.088,2.042,4.714,3.124-1.624,1.08-3.161,2.11-4.71,3.121a.5.5,0,0,1-.447.005c-1.548-1.014-3.084-2.045-4.7-3.126" transform="translate(-137.368 -110.409)" fill="#e2e2e2"/>
        </g>
      </g>
    </g>
  </g>
</svg>
