<svg xmlns="http://www.w3.org/2000/svg" xmlns:xlink="http://www.w3.org/1999/xlink" width="156.173" height="156.173" viewBox="0 0 156.173 156.173">
  <defs>
    <filter id="Elipse_6107" x="0" y="0" width="156.173" height="156.173" filterUnits="userSpaceOnUse">
      <feOffset dy="12" input="SourceAlpha"/>
      <feGaussianBlur stdDeviation="6" result="blur"/>
      <feFlood flood-opacity="0.161"/>
      <feComposite operator="in" in2="blur"/>
      <feComposite in="SourceGraphic"/>
    </filter>
    <filter id="Elipse_6107-2" x="0" y="0" width="156.173" height="156.173" filterUnits="userSpaceOnUse">
      <feOffset dy="4" input="SourceAlpha"/>
      <feGaussianBlur stdDeviation="3" result="blur-2"/>
      <feFlood flood-opacity="0.161" result="color"/>
      <feComposite operator="out" in="SourceGraphic" in2="blur-2"/>
      <feComposite operator="in" in="color"/>
      <feComposite operator="in" in2="SourceGraphic"/>
    </filter>
  </defs>
  <g id="Grupo_891218" data-name="Grupo 891218" transform="translate(9273.5 7029)">
    <g data-type="innerShadowGroup">
      <g transform="matrix(1, 0, 0, 1, -9273.5, -7029)" filter="url(#Elipse_6107)">
        <circle id="Elipse_6107-3" data-name="Elipse 6107" cx="60.086" cy="60.086" r="60.086" transform="translate(18 6)" fill="#fff"/>
      </g>
      <g transform="matrix(1, 0, 0, 1, -9273.5, -7029)" filter="url(#Elipse_6107-2)">
        <circle id="Elipse_6107-4" data-name="Elipse 6107" cx="60.086" cy="60.086" r="60.086" transform="translate(18 6)" fill="#fff"/>
      </g>
    </g>
    <g id="Grupo_238257" data-name="Grupo 238257" transform="translate(-9240.028 -6998.873)">
      <g id="Grupo_166691" data-name="Grupo 166691" transform="translate(0 0)">
        <path id="Trazado_257391" data-name="Trazado 257391" d="M39.013,71.061h-.824c-.834-.73-.893-1.129-.312-2.107.312-.525.622-1.052.936-1.585a3.094,3.094,0,0,0-2.294-1.014c-10.493.041-20.987.027-31.48.025A4.73,4.73,0,0,1,.164,62.948,1.43,1.43,0,0,0,0,62.684V11.455a.844.844,0,0,0,.149-.2A4.749,4.749,0,0,1,5.122,7.763c1.785,0,3.571.007,5.356-.008a1.374,1.374,0,0,0,.759-.19,4.966,4.966,0,0,1,3.149-.957c1.048.024,2.1.005,3.134.005C18.081,3.04,20.093.921,23.046.754a5.75,5.75,0,0,1,3.81,1.09,5.921,5.921,0,0,1,2.468,4.769c1.177,0,2.295.007,3.413,0a4.909,4.909,0,0,1,2.774.845,1.859,1.859,0,0,0,.932.294c1.762.028,3.527.07,5.287,0a4.885,4.885,0,0,1,5.177,5.175c-.1,5.948-.028,11.9-.028,17.849v.749a19.94,19.94,0,0,1,16.843,4.8,3.655,3.655,0,0,1,.52-.663,3.218,3.218,0,0,0,1.438-3.215A1.032,1.032,0,0,1,66.9,31.249a4.416,4.416,0,0,1,1.121.586c.781-.7,1.4-.811,1.946-.287s.464,1.084-.334,2.086c.485.367.835.8.6,1.455a1.25,1.25,0,0,1-1.421.815,9.705,9.705,0,0,0-1.167.006.955.955,0,0,0-.545.2c-.622.571-1.217,1.171-1.84,1.778a19.941,19.941,0,0,1-3.3,29.466c.325.543.628,1.049.93,1.555.623,1.047.492,1.572-.535,2.156H61.68L60.018,68.8c-1.8.6-3.585,1.233-5.4,1.789a22.577,22.577,0,0,1-2.421.475H48.355c-.54-.116-1.079-.243-1.622-.346a20.576,20.576,0,0,1-5.9-2.11c-.2.317-.36.618-.564.886-.405.533-.835,1.048-1.255,1.57M64.688,56.642l.008-.013-.144.423,0-.02a3.613,3.613,0,0,0-.246.394,15.277,15.277,0,1,1-4.376-18.15,4.921,4.921,0,0,0,.419.264l.667-.723,1.044-.823A16.378,16.378,0,0,0,55.8,34.486l0,0-.3-.106a16.113,16.113,0,0,0-7.166-.7,17.62,17.62,0,0,0-3.891,34.124,16.374,16.374,0,0,0,10.5.365l.3-.1,0,0c.221-.05.449-.081.663-.151A17.659,17.659,0,0,0,66.82,44.855a17.129,17.129,0,0,0-3.191-5.246l-1.25,1.237-.562.234a16.1,16.1,0,0,1,3.045,5.252,15.074,15.074,0,0,1,.656,6.619c-.175,1.12-.453,2.224-.685,3.334l-.146.356M51.949,43.151l-.3-.092c-.362-.044-.724-.118-1.088-.127a8.271,8.271,0,0,0-7.685,4.814,8.177,8.177,0,0,0,1.449,9,7.821,7.821,0,0,0,7.322,2.509,4.776,4.776,0,0,0,.609-.069,8.25,8.25,0,0,0,6.231-9.442,7.318,7.318,0,0,0-1.6-3.543c-.439.473-.852.87-1.2,1.318a.785.785,0,0,0-.112.654,6.882,6.882,0,0,1,.212,5.316,5.88,5.88,0,1,1-4.637-8.13,20.837,20.837,0,0,1,2.594.771l.541-.577,1-.987a7.147,7.147,0,0,0-3.347-1.418l0,0m-.959,5.676.828-.8-.075-.231-1.6-.1a3.445,3.445,0,0,0,0,6.881,3.227,3.227,0,0,0,3.307-1.708,3.406,3.406,0,0,0,.141-3.161L51.375,51.83a1.262,1.262,0,0,1-1.82.133c-.512-.555-.448-1.173.214-1.857.41-.424.814-.853,1.221-1.28m9.712-.2a11.687,11.687,0,0,1-.506,6.509,10.585,10.585,0,1,1-3.2-12.234l.744-.81.883-.818A10.975,10.975,0,0,0,53.983,38.8a11.2,11.2,0,0,0-5.816-.357,12.894,12.894,0,1,0,5.539,25.16c6.968-1.6,11.226-9.342,8.989-16.347a12.334,12.334,0,0,0-2.41-4.365L59.215,44.04l-.582.513.236-.023,1.834,4.1M41.473,10.152H37.425c.043.78.083,1.5.127,2.287.67,0,1.3.014,1.937,0a2.543,2.543,0,0,1,2.554,1.485,12.386,12.386,0,0,1,.132,1.285q.013,8.434.006,16.868v.886c.647-.241,1.143-.472,1.664-.607.547-.141.69-.434.688-.98-.019-6.194-.011-12.388-.013-18.582a2.438,2.438,0,0,0-3.047-2.639M23.21,3.119a3.468,3.468,0,0,0-3.282,3.472c-.02,1.143.005,2.287-.009,3.43A1.193,1.193,0,0,1,18.764,11.3a1.206,1.206,0,0,1-1.178-1.256c-.013-.355,0-.71,0-1.081H17c-.984,0-1.967-.014-2.951.006a2.22,2.22,0,0,0-2.287,2.026,25.923,25.923,0,0,0-.017,2.651h.77q6.553,0,13.107,0c2.4,0,4.8-.015,7.2-.023h2.334c0-.877.043-1.7-.009-2.514-.1-1.489-1.261-2.253-3.145-2.116H29.294c0,.341,0,.633,0,.926-.016.857-.481,1.4-1.182,1.381A1.233,1.233,0,0,1,26.951,9.94c-.019-.731-.022-1.462-.032-2.193.007-.455.038-.911.017-1.365A3.447,3.447,0,0,0,23.21,3.119m14.3,32.8c.592-.428,1.161-.891,1.782-1.271a1.057,1.057,0,0,0,.568-1.04c-.019-6.017-.012-12.034-.012-18.05v-.714H37.5a1.908,1.908,0,0,0-.537.3,2.5,2.5,0,0,1-1.947.848q-11.573,0-23.147,0a2.462,2.462,0,0,1-1.941-.858c-.113-.128-.268-.305-.409-.31C8.7,14.785,7.882,14.8,7.06,14.8V59.3H32.213c-.094-.256-.159-.447-.234-.635A19.613,19.613,0,0,1,32.447,42.5a20.373,20.373,0,0,1,5.063-6.585M9.461,10.1c-1.5,0-2.962,0-4.422,0a2.433,2.433,0,0,0-2.7,2.728q0,24.237,0,48.473a2.443,2.443,0,0,0,2.753,2.74h30.1A18.355,18.355,0,0,1,34.011,62.4a1.362,1.362,0,0,0-1.4-.708q-12.567.033-25.134.014-2.8,0-2.8-2.765,0-21.868,0-43.736c0-1.845.931-2.761,2.8-2.764.608,0,1.216,0,1.831,0,.052-.826.1-1.546.147-2.339" transform="translate(18.907 -0.743)" fill="#020201"/>
        <path id="Trazado_257396" data-name="Trazado 257396" d="M68.93,98.457a20.373,20.373,0,0,0-5.063,6.584A19.613,19.613,0,0,0,63.4,121.2c.075.188.14.379.234.634H38.48v-44.5c.822,0,1.639-.015,2.454.014.141.005.3.182.409.311a2.462,2.462,0,0,0,1.941.858q11.573,0,23.147,0a2.5,2.5,0,0,0,1.947-.847,1.908,1.908,0,0,1,.537-.3q.007,10.538.015,21.076M58.941,84.386h-4.8c-.938,0-1.876-.016-2.812.014a1.111,1.111,0,0,0-1.131,1.058,1.146,1.146,0,0,0,1.016,1.249,3.692,3.692,0,0,0,.615.027q7.135,0,14.27,0a2.852,2.852,0,0,0,.878-.1,1.148,1.148,0,0,0-.212-2.219,4.833,4.833,0,0,0-.685-.026q-3.568,0-7.135,0m.016,9.376q-3.7,0-7.409,0c-.8,0-1.25.343-1.339.985-.112.816.427,1.351,1.393,1.351q7.341.006,14.682,0c.925,0,1.46-.434,1.466-1.168s-.527-1.169-1.451-1.171q-3.671,0-7.341,0m-3.1,11.7c1.418,0,2.836,0,4.253,0,.881,0,1.391-.434,1.394-1.156s-.524-1.18-1.383-1.182q-4.288-.01-8.575,0c-.858,0-1.368.473-1.352,1.2.015.7.508,1.129,1.342,1.133,1.44.008,2.881,0,4.322,0m-.957,7.031c-1.1,0-2.2-.008-3.292,0-.912.009-1.436.47-1.417,1.215.019.713.523,1.132,1.419,1.135q3.258.013,6.516,0c.885,0,1.408-.435,1.431-1.137.024-.72-.535-1.2-1.434-1.213-1.075-.011-2.149,0-3.224,0m-10.735-8.917c-.092-.05-.152-.077-.205-.112q-1.044-.682-1.7.12a1.19,1.19,0,0,0,.216,1.706c.287.3.577.587.874.873a1.194,1.194,0,0,0,2.057-.21q1.08-1.585,2.124-3.2a1.2,1.2,0,0,0-.2-1.756,1.181,1.181,0,0,0-1.749.469c-.476.7-.94,1.4-1.413,2.107m.007-9.375a2.177,2.177,0,0,1-.2-.1c-.7-.456-1.266-.425-1.7.1a1.192,1.192,0,0,0,.2,1.706q.428.444.874.871a1.2,1.2,0,0,0,2.064-.188c.722-1.054,1.425-2.121,2.124-3.19a1.2,1.2,0,0,0-.244-1.8,1.191,1.191,0,0,0-1.7.492c-.477.694-.936,1.4-1.41,2.11m-.006-9.366c-.083-.046-.139-.073-.191-.107a1.177,1.177,0,1,0-1.51,1.8q.429.444.874.872a1.2,1.2,0,0,0,2.062-.185q1.081-1.584,2.125-3.192a1.184,1.184,0,1,0-1.948-1.3c-.477.694-.937,1.4-1.412,2.113m-.015,28.144c-.787-.57-1.417-.576-1.873-.051s-.368,1.156.271,1.8c.289.293.573.592.874.873a1.155,1.155,0,0,0,1.919-.2c.752-1.091,1.483-2.2,2.206-3.307a1.177,1.177,0,1,0-1.954-1.279c-.479.7-.94,1.4-1.443,2.156" transform="translate(-12.513 -63.284)" fill="#dee4f0"/>
        <path id="Trazado_257397" data-name="Trazado 257397" d="M19.872,51.735c-.05.793-.095,1.513-.147,2.339-.616,0-1.224,0-1.831,0-1.872,0-2.8.92-2.8,2.764q0,21.868,0,43.736,0,2.767,2.8,2.765,12.567,0,25.134-.014a1.362,1.362,0,0,1,1.4.708,18.354,18.354,0,0,0,1.182,1.645H15.5a2.443,2.443,0,0,1-2.753-2.74q0-24.237,0-48.473a2.433,2.433,0,0,1,2.7-2.728c1.46,0,2.92,0,4.422,0" transform="translate(8.496 -42.379)" fill="#9e512c"/>
        <path id="Trazado_257398" data-name="Trazado 257398" d="M206.525,184.877l-.667.723a4.875,4.875,0,0,1-.419-.264,15.269,15.269,0,1,0,4.376,18.15,3.579,3.579,0,0,1,.246-.394,5.657,5.657,0,0,1-.213.987,18.554,18.554,0,0,1-7.7,9.121c-.479.29-.932.623-1.4.936l0,0-.3.1a16.374,16.374,0,0,1-10.5-.365,17.62,17.62,0,0,1,3.891-34.124,16.11,16.11,0,0,1,7.166.7l.3.106,0,0a7.417,7.417,0,0,0,.68.529,18.366,18.366,0,0,1,4.537,3.8" transform="translate(-126.6 -146.803)" fill="#a3314f"/>
        <path id="Trazado_257399" data-name="Trazado 257399" d="M224.629,208.884l-.744.81a10.568,10.568,0,1,0,3.2,12.234,1.244,1.244,0,0,1,.025.433,13.781,13.781,0,0,1-5.8,7.448,8.4,8.4,0,0,0-.716.586,12.894,12.894,0,1,1-5.539-25.159,11.2,11.2,0,0,1,5.816.357c.04.079.06.18.122.232q1.811,1.534,3.63,3.059" transform="translate(-147.986 -167.534)" fill="#f1f1f1"/>
        <path id="Trazado_257400" data-name="Trazado 257400" d="M79.075,18.318c.01.731.013,1.462.033,2.193a1.232,1.232,0,0,0,1.159,1.354c.7.016,1.166-.524,1.183-1.381.006-.293,0-.585,0-.926h2.713a11.329,11.329,0,0,1,.793,2.12,15.093,15.093,0,0,1,.028,2.509c-2.4.008-4.8.021-7.2.023q-6.553.006-13.107,0H63.9a25.978,25.978,0,0,1,.017-2.651,2.22,2.22,0,0,1,2.287-2.025c.983-.02,1.967-.006,2.951-.006h.581c0,.37-.01.726,0,1.08a1.206,1.206,0,0,0,1.178,1.256,1.194,1.194,0,0,0,1.156-1.274c.014-1.143-.011-2.287.009-3.43a3.468,3.468,0,0,1,3.282-3.472c.112.165.22.334.338.5a3.221,3.221,0,0,1,.871,2.29c-.469-.456-1.032-.711-1.582-.267a1.454,1.454,0,0,0-.515,1.082,1.466,1.466,0,0,0,.731.952,1.1,1.1,0,0,0,1.424-.474.655.655,0,0,0,.81.563,15.941,15.941,0,0,1,1.631-.012" transform="translate(-33.249 -11.315)" fill="#ffb500"/>
        <path id="Trazado_257401" data-name="Trazado 257401" d="M239.172,247a7.821,7.821,0,0,1-7.322-2.509,8.177,8.177,0,0,1-1.449-9,8.271,8.271,0,0,1,7.685-4.814c.363.008.725.083,1.088.127l.3.092,0,0a8.676,8.676,0,0,1,.711.612c.556.588,1.091,1.195,1.635,1.794l-.541.577a20.843,20.843,0,0,0-2.594-.771,5.82,5.82,0,0,0-6.6,5.051,5.889,5.889,0,0,0,11.24,3.079,11.265,11.265,0,0,1-.478,1.7A9.89,9.89,0,0,1,239.172,247" transform="translate(-168.613 -188.491)" fill="#a3314f"/>
        <path id="Trazado_257402" data-name="Trazado 257402" d="M301.1,241.042c.465-.313.918-.646,1.4-.936a18.553,18.553,0,0,0,7.7-9.121,5.648,5.648,0,0,0,.213-.987l0,.02.144-.423-.008.013.146-.356c.232-1.111.51-2.215.685-3.334a15.074,15.074,0,0,0-.656-6.619c.011-.188.088-.4.022-.56-.578-1.373-1.163-2.745-1.792-4.1a4.015,4.015,0,0,0-.714-.83l1.25-1.237a17.129,17.129,0,0,1,3.19,5.246,17.658,17.658,0,0,1-10.911,23.07c-.215.07-.442.1-.663.151" transform="translate(-226.952 -173.709)" fill="#b55a72"/>
        <path id="Trazado_257403" data-name="Trazado 257403" d="M226.04,51.856a2.438,2.438,0,0,1,3.047,2.639c0,6.194-.006,12.388.013,18.582,0,.547-.141.839-.688.98-.521.134-1.017.366-1.664.607v-.886q0-8.434-.006-16.868a12.376,12.376,0,0,0-.132-1.285,3.489,3.489,0,0,0,.128-.5,5.041,5.041,0,0,0-.7-3.265" transform="translate(-165.66 -42.447)" fill="#763d22"/>
        <path id="Trazado_257404" data-name="Trazado 257404" d="M204.376,98.654q-.007-10.538-.015-21.076h2.353v.714c0,6.017-.006,12.034.012,18.05a1.057,1.057,0,0,1-.568,1.04c-.62.381-1.19.844-1.782,1.271" transform="translate(-147.959 -63.481)" fill="#b0c0d2"/>
        <path id="Trazado_257405" data-name="Trazado 257405" d="M292.716,251.191a8.364,8.364,0,0,1,.716-.586,13.779,13.779,0,0,0,5.8-7.448,1.234,1.234,0,0,0-.025-.433,11.687,11.687,0,0,0,.506-6.509,12.108,12.108,0,0,0-.327-1.575c-.351-1.018-.769-2.012-1.16-3.016l1.071-1.145a12.339,12.339,0,0,1,2.41,4.365c2.236,7.005-2.021,14.746-8.989,16.347" transform="translate(-220.103 -188.328)" fill="#cbd4d8"/>
        <path id="Trazado_257406" data-name="Trazado 257406" d="M281.517,261.557a9.891,9.891,0,0,0,3.663-4.065,11.262,11.262,0,0,0,.478-1.7,6.882,6.882,0,0,0-.212-5.316.784.784,0,0,1,.112-.654c.349-.447.761-.845,1.2-1.318a7.32,7.32,0,0,1,1.6,3.543,8.25,8.25,0,0,1-6.231,9.442,4.78,4.78,0,0,1-.609.069" transform="translate(-210.959 -203.046)" fill="#b55a72"/>
        <path id="Trazado_257407" data-name="Trazado 257407" d="M258.748,263.541a3.445,3.445,0,0,1,0-6.881l.849,1.129c-.407.427-.811.856-1.221,1.28-.661.684-.725,1.3-.214,1.857a1.262,1.262,0,0,0,1.82-.133c.015.16.1.355.033.474-.405.767-.842,1.518-1.269,2.273" transform="translate(-189.701 -209.706)" fill="#dee4f0"/>
        <path id="Trazado_257408" data-name="Trazado 257408" d="M208.027,52.022a5.041,5.041,0,0,1,.7,3.265,3.487,3.487,0,0,1-.128.5,2.543,2.543,0,0,0-2.554-1.485c-.633.017-1.267,0-1.937,0-.044-.788-.084-1.507-.127-2.288Z" transform="translate(-147.648 -42.614)" fill="#9e512c"/>
        <path id="Trazado_257409" data-name="Trazado 257409" d="M175.27,50.235a15.1,15.1,0,0,0-.028-2.509,11.338,11.338,0,0,0-.793-2.12c1.884-.138,3.05.626,3.145,2.116.052.815.009,1.637.009,2.514Z" transform="translate(-123.535 -37.362)" fill="#ffb500" opacity="0.6"/>
        <path id="Trazado_257410" data-name="Trazado 257410" d="M127.714,16.434a3.22,3.22,0,0,0-.871-2.29c-.118-.161-.225-.33-.338-.5a3.447,3.447,0,0,1,3.725,3.263c.021.454-.01.91-.017,1.365a15.943,15.943,0,0,0-1.631.012.655.655,0,0,1-.81-.563q-.029-.646-.059-1.292" transform="translate(-84.387 -11.274)" fill="#ffb500" opacity="0.6"/>
        <path id="Trazado_257411" data-name="Trazado 257411" d="M273.278,272.494c.427-.756.863-1.507,1.269-2.273.063-.119-.019-.314-.033-.474l2.213-2.121a3.406,3.406,0,0,1-.141,3.161,3.227,3.227,0,0,1-3.307,1.708" transform="translate(-204.231 -218.659)" fill="#b0c0d2"/>
        <path id="Trazado_257412" data-name="Trazado 257412" d="M309.352,188.984a18.366,18.366,0,0,0-4.537-3.8,7.413,7.413,0,0,1-.68-.529,16.373,16.373,0,0,1,6.261,3.508l-1.044.823" transform="translate(-229.427 -150.91)" fill="#c31e1d"/>
        <path id="Trazado_257413" data-name="Trazado 257413" d="M297.979,211.472q-1.817-1.527-3.63-3.059c-.062-.052-.082-.154-.122-.232a10.98,10.98,0,0,1,4.635,2.472l-.883.818" transform="translate(-221.337 -170.121)" fill="#cad2d6"/>
        <path id="Trazado_257414" data-name="Trazado 257414" d="M337.489,219.318a4.01,4.01,0,0,1,.714.831c.629,1.35,1.214,2.722,1.793,4.095.066.156-.011.372-.022.56a16.105,16.105,0,0,0-3.046-5.252l.562-.234" transform="translate(-256.202 -179.215)" fill="#e63e31"/>
        <path id="Trazado_257415" data-name="Trazado 257415" d="M285.466,234.26c-.543-.6-1.079-1.206-1.635-1.794a8.709,8.709,0,0,0-.711-.612,7.147,7.147,0,0,1,3.347,1.418l-1,.988" transform="translate(-212.268 -189.451)" fill="#b55a72"/>
        <path id="Trazado_257416" data-name="Trazado 257416" d="M320.151,236.722c.39,1,.809,2,1.16,3.015a12.081,12.081,0,0,1,.328,1.575l-1.834-4.1-.236.023.582-.513" transform="translate(-242.029 -193.426)" fill="#e1e2e2"/>
        <path id="Trazado_257417" data-name="Trazado 257417" d="M274.135,257.789l-.849-1.129,1.6.1.075.231-.828.8" transform="translate(-204.238 -209.706)" fill="#b0c0d2"/>
        <path id="Trazado_257418" data-name="Trazado 257418" d="M351.977,305.338l-.144.423.144-.423" transform="translate(-268.373 -249.453)" fill="#f04234"/>
        <path id="Trazado_257419" data-name="Trazado 257419" d="M281.822,231.472l-.3-.092.3.092" transform="translate(-210.966 -189.064)" fill="#c41e1e"/>
        <path id="Trazado_257420" data-name="Trazado 257420" d="M352.72,303.47l-.146.356.146-.356" transform="translate(-268.978 -247.927)" fill="#f04234"/>
        <path id="Trazado_257421" data-name="Trazado 257421" d="M302.79,184.195l-.3-.106.3.106" transform="translate(-228.084 -150.45)" fill="#c31e1d"/>
        <path id="Trazado_257422" data-name="Trazado 257422" d="M299.462,367.8l.3-.1-.3.1" transform="translate(-225.611 -300.376)" fill="#c51e1e"/>
        <path id="Trazado_257423" data-name="Trazado 257423" d="M111.057,115.742q3.568,0,7.135,0a4.833,4.833,0,0,1,.685.026,1.148,1.148,0,0,1,.212,2.219,2.851,2.851,0,0,1-.878.1q-7.135.009-14.27,0a3.712,3.712,0,0,1-.615-.027,1.146,1.146,0,0,1-1.016-1.249,1.111,1.111,0,0,1,1.131-1.058c.937-.03,1.875-.013,2.813-.014h4.8" transform="translate(-64.629 -94.64)" fill="#050404"/>
        <path id="Trazado_257424" data-name="Trazado 257424" d="M111.089,166.855q3.67,0,7.341,0c.925,0,1.457.436,1.451,1.171s-.541,1.167-1.466,1.168q-7.341,0-14.682,0c-.966,0-1.505-.535-1.393-1.351.088-.642.538-.984,1.339-.985q3.7-.008,7.41,0" transform="translate(-64.644 -136.377)" fill="#020101"/>
        <path id="Trazado_257425" data-name="Trazado 257425" d="M107.983,220.206c-1.441,0-2.881.006-4.322,0-.834,0-1.326-.431-1.342-1.133-.016-.73.494-1.2,1.352-1.2q4.288-.011,8.575,0c.859,0,1.386.466,1.383,1.182s-.512,1.152-1.393,1.156c-1.418.006-2.836,0-4.253,0" transform="translate(-64.639 -178.026)" fill="#030302"/>
        <path id="Trazado_257426" data-name="Trazado 257426" d="M107.015,268.945c1.075,0,2.149-.008,3.224,0,.9.009,1.458.493,1.434,1.212-.023.7-.546,1.133-1.431,1.137q-3.258.013-6.516,0c-.9,0-1.4-.422-1.419-1.135-.02-.745.5-1.205,1.417-1.214,1.1-.011,2.195,0,3.292,0" transform="translate(-64.628 -219.735)" fill="#060504"/>
        <path id="Trazado_257427" data-name="Trazado 257427" d="M59.768,207.9c.473-.707.936-1.411,1.412-2.107a1.181,1.181,0,0,1,1.749-.469,1.2,1.2,0,0,1,.2,1.756q-1.049,1.607-2.125,3.2a1.194,1.194,0,0,1-2.057.21c-.3-.285-.587-.578-.874-.873a1.191,1.191,0,0,1-.216-1.706q.657-.8,1.7-.12c.054.035.113.062.205.112" transform="translate(-28.116 -167.605)" fill="#050404"/>
        <path id="Trazado_257428" data-name="Trazado 257428" d="M59.785,156.844c.474-.711.934-1.416,1.41-2.11a1.191,1.191,0,0,1,1.7-.492,1.2,1.2,0,0,1,.243,1.8c-.7,1.069-1.4,2.136-2.124,3.19a1.205,1.205,0,0,1-2.065.188q-.446-.426-.873-.871a1.192,1.192,0,0,1-.2-1.707c.439-.523,1-.554,1.7-.1a2.106,2.106,0,0,0,.2.1" transform="translate(-28.127 -125.925)" fill="#040303"/>
        <path id="Trazado_257429" data-name="Trazado 257429" d="M59.786,105.765c.475-.712.934-1.419,1.412-2.113a1.184,1.184,0,1,1,1.948,1.3q-1.048,1.606-2.125,3.192a1.2,1.2,0,0,1-2.062.185q-.445-.427-.874-.872a1.177,1.177,0,1,1,1.51-1.8c.052.034.108.061.191.107" transform="translate(-28.133 -84.212)" fill="#040303"/>
        <path id="Trazado_257430" data-name="Trazado 257430" d="M59.769,259.044c.5-.754.964-1.461,1.443-2.156a1.177,1.177,0,1,1,1.954,1.279c-.723,1.111-1.454,2.217-2.206,3.307a1.155,1.155,0,0,1-1.919.2c-.3-.281-.585-.58-.874-.873-.639-.648-.732-1.273-.271-1.8s1.086-.518,1.873.051" transform="translate(-28.131 -209.347)" fill="#040303"/>
        <path id="Trazado_257431" data-name="Trazado 257431" d="M123.748,26.655q.029.646.059,1.292a1.1,1.1,0,0,1-1.424.474,1.466,1.466,0,0,1-.731-.952,1.454,1.454,0,0,1,.515-1.082c.55-.444,1.113-.19,1.582.267" transform="translate(-80.421 -21.494)" fill="#080700"/>
        <g id="Grupo_166693" data-name="Grupo 166693" transform="translate(0 31.372)">
          <g id="Grupo_166694" data-name="Grupo 166694" transform="translate(0 0)">
            <path id="Trazado_257433" data-name="Trazado 257433" d="M88.924,27.369l.355,2.08a9.629,9.629,0,0,1,1.2.268,1.514,1.514,0,0,1,.728,2.551,3.144,3.144,0,0,1-.435.457,1.114,1.114,0,0,1-1.655-.07,12,12,0,0,1-.91-1.381,7.93,7.93,0,0,0-1.8,1.665.346.346,0,0,0-.01.266,18.075,18.075,0,0,1-.036,8.765,42.4,42.4,0,0,1-2.883,8.644c-.063.14-.118.283-.184.441a1.6,1.6,0,0,1,.891,1.111.72.72,0,0,1-.774.967q-2.575.007-5.15,0c-.566,0-.8-.251-.8-.838q0-2.364,0-4.727v-.451a6.222,6.222,0,0,1-5.4,0c0,1.7,0,3.357,0,5.013,0,.811-.184,1-.983,1-1.365,0-2.732-.044-4.094.015-1.012.044-1.214-.684-.808-1.421a3.345,3.345,0,0,1,.408-.506c-.635-1.518-1.313-3.008-1.887-4.538a30.487,30.487,0,0,1-2.018-8.064c-.351-4.066.553-7.735,3.583-10.684a1.666,1.666,0,0,0,.166-1.978A1.673,1.673,0,0,0,64.47,24.9a4.18,4.18,0,0,1-3.209-1.148,3.185,3.185,0,0,1-1.1-2.6,19.632,19.632,0,0,1,.266-3.269,7.718,7.718,0,0,0-.25-3.494c-.087-.311-.193-.617-.266-.93a.663.663,0,0,1,.809-.825c1.637.493,3.293.948,4.887,1.559A8.542,8.542,0,0,1,69.6,17.514c.221.325.438.652.716,1.067a8.591,8.591,0,0,1,8.867,0c.237-.352.441-.651.642-.952a9.4,9.4,0,0,1,5.4-3.932c1.133-.323,2.26-.668,3.385-1.019.312-.1.632-.115.8.157a1.189,1.189,0,0,1,.117.773c-.1.565-.265,1.119-.42,1.672a8.714,8.714,0,0,0,.113,3.509,15.241,15.241,0,0,1,.141,2.016c-.025,2.27-.955,3.323-3.079,3.941a6.848,6.848,0,0,1-2,.112c-.3-.005-.5,0-.651.29a2.612,2.612,0,0,1-.42.629,1.9,1.9,0,0,0-.347,1.546.491.491,0,0,0,.15.279,15.58,15.58,0,0,1,2.76,3.965c.295-.276.564-.557.862-.8A8.446,8.446,0,0,1,87.7,30a.407.407,0,0,0,.225-.506c-.117-.621-.219-1.245-.336-1.92l1.336-.208M87.868,14.487l.042-.105a.333.333,0,0,0-.033-.059q-1.829.6-3.656,1.2l-.007.007a7.6,7.6,0,0,0-3.113,2.63c-.34.481-.653.981-.985,1.468a.7.7,0,0,1-1.006.313c-.665-.261-1.323-.54-1.989-.8a6.293,6.293,0,0,0-4.8.031c-.545.221-1.094.434-1.64.652-.859.343-.947.315-1.471-.469-.273-.408-.537-.823-.821-1.223a7.654,7.654,0,0,0-3.083-2.6l-2.122-.739-1.615-.509c.032.156.047.237.066.317a8.311,8.311,0,0,1,.152,3.337,23.235,23.235,0,0,0-.273,3.139,1.946,1.946,0,0,0,.725,1.723,3.689,3.689,0,0,0,2.856.732,7.859,7.859,0,0,1,1.278-.007c.506.741,1.021,1.477,1.51,2.228a1.017,1.017,0,0,1,.113.522c.01.984,0,1.968.006,2.952a5.147,5.147,0,0,0,3.564,4.906,22.426,22.426,0,0,0,2.506.711,3.933,3.933,0,0,0,1.5-.035c.727-.143,1.435-.38,2.147-.594a5.18,5.18,0,0,0,3.8-5.08c0-.956-.007-1.912.007-2.868a1.1,1.1,0,0,1,.138-.556c.478-.742.983-1.468,1.479-2.2.289-.017.577-.049.866-.048a7.444,7.444,0,0,0,1.789.007c1.663-.424,2.211-1.048,2.224-2.682a15.741,15.741,0,0,0-.135-1.886,10.252,10.252,0,0,1-.2-3.257c.078-.383.13-.772.194-1.158Zm-7.371,27,.456.066a5.8,5.8,0,0,1-1.643,4.136,1.527,1.527,0,0,0-.485,1.449v4.63h2.636c.086-.192.177-.378.254-.57.767-1.91,1.61-3.794,2.28-5.737a24.876,24.876,0,0,0,1.561-8.908,10.677,10.677,0,0,0-2-6.1l-.681-.971c-.038.254-.059.393-.08.531a6.377,6.377,0,0,1-4.533,5.442,16.582,16.582,0,0,1-2.511.7,5.811,5.811,0,0,1-1.958.006,18.5,18.5,0,0,1-2.472-.684,6.363,6.363,0,0,1-4.359-4.327c-.16-.5-.227-1.033-.352-1.622l-.648.849c-.244.358-.516.7-.728,1.076a11.811,11.811,0,0,0-1.28,5.482,18.685,18.685,0,0,0,.845,5.728,38.506,38.506,0,0,0,3.047,7.912,3.352,3.352,0,0,0,.381.55c.17.206.362.393.581.628h1.883V47.227a2.792,2.792,0,0,1,.016-.336,1.319,1.319,0,0,0-.421-1.1,10.409,10.409,0,0,1-1.266-1.964,10.447,10.447,0,0,1-.52-1.777l.433-.073.946-.043c.678,2.937,2.447,4.5,5.028,4.448,2.5-.047,4.155-1.716,4.735-4.774l.859-.115m9.872-10.383-.824-.281.429.837.395-.556" transform="translate(-59.894 -12.605)" fill="#030303"/>
            <path id="Trazado_257434" data-name="Trazado 257434" d="M102.516,187.1v4.532h-1.883c-.219-.234-.411-.422-.581-.628a3.355,3.355,0,0,1-.381-.55,38.5,38.5,0,0,1-3.047-7.912,18.687,18.687,0,0,1-.845-5.728,11.811,11.811,0,0,1,1.28-5.482c.213-.376.484-.718.728-1.076.032.221.067.442.1.664a6.833,6.833,0,0,0,2.762,4.639,10.9,10.9,0,0,0,3.627,1.5,6.337,6.337,0,0,0,4.034.166c.6-.2,1.209-.352,1.816-.519a7.076,7.076,0,0,0,3.187-1.8,7.18,7.18,0,0,0,2.072-4.572,10.677,10.677,0,0,1,2,6.1,24.876,24.876,0,0,1-1.561,8.908c-.669,1.943-1.512,3.827-2.28,5.737-.077.192-.168.378-.254.57h-2.636v-4.63a2.146,2.146,0,0,0,.456-.186,8.09,8.09,0,0,0,3.472-5.441,1.441,1.441,0,0,0-.2-.941c-.3-.463-.825-.41-1.3-.307a.867.867,0,0,0-.677.856,3.543,3.543,0,0,1-.08.368l-.859.115c-.58,3.058-2.234,4.727-4.735,4.774-2.581.048-4.35-1.511-5.028-4.448l-.946.043c-.157-.418-.3-.843-.475-1.253a.822.822,0,0,0-1.331-.27,1.046,1.046,0,0,0-.264,1.117,10.389,10.389,0,0,0,1.209,3.073,6.484,6.484,0,0,0,2.618,2.584" transform="translate(-91.724 -152.479)" fill="#fdd3d3"/>
            <path id="Trazado_257435" data-name="Trazado 257435" d="M107.74,38.564a7.654,7.654,0,0,1,3.083,2.6c.284.4.548.815.821,1.223.525.784.612.811,1.471.469.546-.218,1.1-.43,1.64-.652a6.293,6.293,0,0,1,4.8-.031c.666.258,1.324.537,1.989.8a.7.7,0,0,0,1.006-.313c.332-.487.645-.987.985-1.468a7.6,7.6,0,0,1,3.113-2.63l.006.139c-.7.892-1.447,1.754-2.1,2.682-1.1,1.569-.5,3.116.12,4.675l.361-.139.529.624c-.5.731-1,1.457-1.479,2.2a1.1,1.1,0,0,0-.138.556c-.013.956,0,1.912-.007,2.868a5.18,5.18,0,0,1-3.8,5.08c-.711.214-1.42.452-2.147.594a3.933,3.933,0,0,1-1.5.035A22.447,22.447,0,0,1,114,57.167a5.147,5.147,0,0,1-3.564-4.906c-.007-.984,0-1.968-.006-2.952a1.017,1.017,0,0,0-.113-.522c-.49-.752-1-1.487-1.51-2.228l.363-.712.532.207c.711-1.681,1.2-3.334-.058-4.964-.622-.809-1.28-1.592-1.921-2.387l.018-.137m9.468,11.216c-.414.073-.837.111-1.239.224a3.6,3.6,0,0,0-1.9,5.9,4.284,4.284,0,0,0,6.178.069,3.335,3.335,0,0,0,.95-2.937,4.012,4.012,0,0,0-3.986-3.251M113.119,47.8a.675.675,0,1,0,.691.648.677.677,0,0,0-.691-.648m8.116,0a.675.675,0,1,0,.681.658.677.677,0,0,0-.681-.658" transform="translate(-102.329 -35.636)" fill="#fdd2d2"/>
            <path id="Trazado_257436" data-name="Trazado 257436" d="M79.449,36.039l-.363.713a7.859,7.859,0,0,0-1.278.006,3.689,3.689,0,0,1-2.856-.732,1.946,1.946,0,0,1-.725-1.723,23.23,23.23,0,0,1,.273-3.139,8.312,8.312,0,0,0-.152-3.337c-.019-.08-.033-.16-.066-.317l1.615.509c.109.124.212.255.329.37.315.312.637.618.955.927l-.3.391c.114.122.219.216.3.325.64.83,1.289,1.654,1.908,2.5a1.486,1.486,0,0,1,.219,1.285c-.158.618-.322,1.234-.487,1.863l.622.359" transform="translate(-72.609 -25.829)" fill="#df7f7f"/>
            <path id="Trazado_257437" data-name="Trazado 257437" d="M261.81,38.352l-.529-.624.848-.456c-.08-.2-.146-.386-.223-.565a3.049,3.049,0,0,1,.5-3.512c.551-.614,1.059-1.267,1.6-1.914l-.38-.431c.777-.448,1.55-.9,2.335-1.338a2.965,2.965,0,0,1,.589-.183c-.064.386-.116.774-.195,1.158a10.255,10.255,0,0,0,.2,3.257,15.741,15.741,0,0,1,.135,1.886c-.013,1.634-.562,2.259-2.224,2.683a7.449,7.449,0,0,1-1.788-.007c-.289,0-.577.031-.866.048" transform="translate(-238.572 -27.443)" fill="#df7f7f"/>
            <path id="Trazado_257438" data-name="Trazado 257438" d="M131.268,163.292a7.18,7.18,0,0,1-2.072,4.572,7.077,7.077,0,0,1-3.187,1.8c-.607.167-1.22.319-1.816.519a6.337,6.337,0,0,1-4.034-.166,10.9,10.9,0,0,1-3.627-1.5,6.833,6.833,0,0,1-2.762-4.639c-.029-.222-.063-.443-.1-.664l.648-.849c.125.589.192,1.12.352,1.622a6.363,6.363,0,0,0,4.359,4.327A18.481,18.481,0,0,0,121.5,169a5.814,5.814,0,0,0,1.958-.006,16.584,16.584,0,0,0,2.511-.7,6.377,6.377,0,0,0,4.533-5.442c.02-.138.042-.277.08-.531l.681.971" transform="translate(-107.61 -145.438)" fill="#e0bbbb"/>
            <path id="Trazado_257439" data-name="Trazado 257439" d="M229.215,258.587a3.548,3.548,0,0,0,.08-.368.867.867,0,0,1,.677-.856c.476-.1,1-.156,1.3.307a1.44,1.44,0,0,1,.2.941A8.09,8.09,0,0,1,228,264.052a2.142,2.142,0,0,1-.456.186,1.527,1.527,0,0,1,.485-1.449,5.8,5.8,0,0,0,1.643-4.136l-.456-.066" transform="translate(-208.612 -229.701)" fill="#e1bbbb"/>
            <path id="Trazado_257440" data-name="Trazado 257440" d="M125.1,264.52a6.484,6.484,0,0,1-2.618-2.584,10.389,10.389,0,0,1-1.209-3.073,1.046,1.046,0,0,1,.264-1.117.822.822,0,0,1,1.331.27c.177.41.318.835.475,1.253l-.433.073a7.292,7.292,0,0,0,1.785,3.74,1.318,1.318,0,0,1,.421,1.1,2.8,2.8,0,0,0-.016.336" transform="translate(-114.305 -229.899)" fill="#e1bcbc"/>
            <path id="Trazado_257441" data-name="Trazado 257441" d="M279.277,28.007a2.959,2.959,0,0,0-.589.183c-.784.435-1.558.89-2.335,1.338l-.637-.434-.087-.053q1.828-.6,3.657-1.2a.333.333,0,0,1,.033.059l-.042.105Z" transform="translate(-251.303 -26.121)" fill="#f6cbcb"/>
            <path id="Trazado_257442" data-name="Trazado 257442" d="M90.346,33.32c-.319-.308-.64-.614-.955-.927-.117-.116-.22-.247-.329-.37l2.122.739-.018.137c-.121.006-.267-.03-.358.026a3.48,3.48,0,0,0-.462.4" transform="translate(-85.773 -29.833)" fill="#f2c8c8"/>
            <path id="Trazado_257443" data-name="Trazado 257443" d="M323.667,174.489l-.395.556-.429-.837.824.281" transform="translate(-293.192 -155.985)" fill="#e7e7e7"/>
            <path id="Trazado_257444" data-name="Trazado 257444" d="M307.969,28.468l.042-.1-.042.1" transform="translate(-279.995 -26.586)" fill="#df7f7f"/>
            <path id="Trazado_257445" data-name="Trazado 257445" d="M275.576,38.644l-.006-.139.007-.007.087.053-.088.093" transform="translate(-251.25 -35.578)" fill="#f6cbcb"/>
            <path id="Trazado_257446" data-name="Trazado 257446" d="M159.845,138.039a4.012,4.012,0,0,1,3.986,3.251,3.334,3.334,0,0,1-.95,2.937,4.284,4.284,0,0,1-6.178-.069,3.6,3.6,0,0,1,1.9-5.9c.4-.112.826-.151,1.239-.224m.094,6.127c.146-.022.4-.044.643-.1a2.447,2.447,0,0,0,1.943-2.211,2.378,2.378,0,0,0-1.8-2.275,2.864,2.864,0,0,0-2.675.444,2.161,2.161,0,0,0-.09,3.483,3.026,3.026,0,0,0,1.976.661" transform="translate(-144.966 -123.895)" fill="#040303"/>
            <path id="Trazado_257447" data-name="Trazado 257447" d="M254.294,39.064l.088-.093.637.434.38.431c-.536.647-1.044,1.3-1.6,1.914a3.049,3.049,0,0,0-.5,3.512c.077.179.143.362.223.565l-.848.456-.361.139c-.624-1.559-1.22-3.107-.12-4.675.651-.928,1.4-1.79,2.1-2.682" transform="translate(-229.968 -35.998)" fill="#050303"/>
            <path id="Trazado_257448" data-name="Trazado 257448" d="M98.1,40.165a3.481,3.481,0,0,1,.462-.4c.091-.055.237-.02.358-.026.642.795,1.3,1.577,1.921,2.387,1.254,1.63.769,3.284.058,4.964l-.532-.207-.622-.359c.164-.628.328-1.245.486-1.863a1.485,1.485,0,0,0-.219-1.285c-.619-.846-1.267-1.669-1.907-2.5-.085-.11-.189-.2-.3-.325l.3-.391" transform="translate(-93.523 -36.678)" fill="#040303"/>
            <path id="Trazado_257449" data-name="Trazado 257449" d="M150.4,120.465a.675.675,0,1,1-.659.68.679.679,0,0,1,.659-.68" transform="translate(-139.613 -108.302)" fill="#0c0a0a"/>
            <path id="Trazado_257450" data-name="Trazado 257450" d="M222.3,120.466a.675.675,0,1,1-.668.67.679.679,0,0,1,.668-.67" transform="translate(-203.395 -108.303)" fill="#0c0a0a"/>
            <path id="Trazado_257451" data-name="Trazado 257451" d="M170.547,155.1a3.026,3.026,0,0,1-1.976-.661,2.161,2.161,0,0,1,.09-3.483,2.865,2.865,0,0,1,2.675-.444,2.378,2.378,0,0,1,1.8,2.275A2.447,2.447,0,0,1,171.19,155c-.244.059-.5.08-.643.1m-.817-2.676h-.62v1.307h.62Zm2.031,0h-.628v1.311h.628Z" transform="translate(-155.573 -134.827)" fill="#de7e7e"/>
            <rect id="Rect치ngulo_52675" data-name="Rect치ngulo 52675" width="0.62" height="1.307" transform="translate(13.536 17.595)"/>
            <rect id="Rect치ngulo_52676" data-name="Rect치ngulo 52676" width="0.628" height="1.311" transform="translate(15.559 17.591)"/>
          </g>
        </g>
      </g>
    </g>
  </g>
</svg>
