<svg xmlns="http://www.w3.org/2000/svg" xmlns:xlink="http://www.w3.org/1999/xlink" width="153" height="153" viewBox="0 0 153 153">
  <defs>
    <filter id="Elipse_6108" x="0" y="0" width="153" height="153" filterUnits="userSpaceOnUse">
      <feOffset dy="12" input="SourceAlpha"/>
      <feGaussianBlur stdDeviation="6" result="blur"/>
      <feFlood flood-opacity="0.161"/>
      <feComposite operator="in" in2="blur"/>
      <feComposite in="SourceGraphic"/>
    </filter>
    <filter id="Elipse_6108-2" x="0" y="0" width="153" height="153" filterUnits="userSpaceOnUse">
      <feOffset dy="4" input="SourceAlpha"/>
      <feGaussianBlur stdDeviation="3" result="blur-2"/>
      <feFlood flood-opacity="0.161" result="color"/>
      <feComposite operator="out" in="SourceGraphic" in2="blur-2"/>
      <feComposite operator="in" in="color"/>
      <feComposite operator="in" in2="SourceGraphic"/>
    </filter>
  </defs>
  <g id="Grupo_891219" data-name="Grupo 891219" transform="translate(-1244 -4856.064)">
    <g data-type="innerShadowGroup">
      <g transform="matrix(1, 0, 0, 1, 1244, 4856.06)" filter="url(#Elipse_6108)">
        <circle id="Elipse_6108-3" data-name="Elipse 6108" cx="58.5" cy="58.5" r="58.5" transform="translate(18 6)" fill="#fff"/>
      </g>
      <g transform="matrix(1, 0, 0, 1, 1244, 4856.06)" filter="url(#Elipse_6108-2)">
        <circle id="Elipse_6108-4" data-name="Elipse 6108" cx="58.5" cy="58.5" r="58.5" transform="translate(18 6)" fill="#fff"/>
      </g>
    </g>
    <g id="Grupo_238258" data-name="Grupo 238258" transform="translate(1279.435 4887.073)">
      <g id="Grupo_166728" data-name="Grupo 166728" transform="translate(12.213 0)">
        <g id="Grupo_166729" data-name="Grupo 166729" transform="translate(0 0)">
          <path id="Trazado_257709" data-name="Trazado 257709" d="M256.169,117.772a14.343,14.343,0,0,1,5.138,4.786,13.321,13.321,0,0,1-.938,15.363c-.2.243-.4.49-.62.769,1.325,2.3,2.656,4.59,3.973,6.892.693,1.211,1.365,2.433,2.037,3.656.134.244.225.513.335.77v1.628a13.378,13.378,0,0,1-.8,1.371,3.814,3.814,0,0,1-6.345-.25c-.89-1.408-1.677-2.882-2.516-4.322a4.785,4.785,0,0,0-.358-.473c-1-1.772-1.995-3.545-3-5.312-.029-.051-.187-.027-.286-.038a12.249,12.249,0,0,1-5.686-.094c-1.389-.406-2.71-1.042-4.062-1.575a14.857,14.857,0,0,1-4.173-4.094c-.077-.137-.151-.276-.231-.411a12.915,12.915,0,0,1-1.67-9.245,13.25,13.25,0,0,1,15.822-10.6l3.377,1.179m3.12,24.238-1.06-1.872-3.171,1.837,1.1,1.835c1.492,2.6,2.969,5.215,4.484,7.8a1.772,1.772,0,0,0,2.517.674,1.819,1.819,0,0,0,.606-2.545c-1.475-2.588-2.983-5.156-4.479-7.732m-9.252-23.673A11.247,11.247,0,1,0,261.3,129.518a11.23,11.23,0,0,0-11.258-11.181" transform="translate(-196.649 -97.581)" fill="#040302"/>
          <path id="Trazado_257710" data-name="Trazado 257710" d="M66.886,52.495a13.25,13.25,0,0,0-15.822,10.6,12.914,12.914,0,0,0,1.67,9.245c.08.135.154.274.231.411l-.019,2.15a1.078,1.078,0,0,0-.978,1.231c.012.855-.006,1.711,0,2.567s.381,1.221,1.251,1.23q1.823.02,3.647,0c.74-.007,1.161-.33,1.223-.9.066-.6-.216-.934-.967-1.151q.005-.517.011-1.034c1.352.533,2.673,1.169,4.062,1.575a12.249,12.249,0,0,0,5.686.094q0,2.6.008,5.2c-.09.009-.18.025-.269.025q-26.366,0-52.732,0c-.834,0-1.112-.3-1.112-1.167q0-20.673,0-41.346c0-.851.288-1.141,1.136-1.146,1.4-.008,2.8-.019,4.2,0a1.153,1.153,0,0,0,1.328-.968h2c.326.858.489.961,1.539.961H65.946c.27,0,.541.015.811.023a3.852,3.852,0,0,1,.137.72q.006,5.838-.008,11.676m-23.5,5.314c-1.114-.631-2.22-1.238-3.3-1.889a.822.822,0,0,1-.323-.619,3.436,3.436,0,0,0-3.4-3.69,3.382,3.382,0,0,0-3.351,3.644.666.666,0,0,1-.417.728q-1.369.739-2.7,1.54a.786.786,0,0,1-1-.021,3.148,3.148,0,0,0-3.689-.023,3.185,3.185,0,0,0-1.5,3.32,3.369,3.369,0,0,0,6.7-.659.76.76,0,0,1,.457-.843c.938-.492,1.837-1.058,2.777-1.548a.9.9,0,0,1,.754.01,3.435,3.435,0,0,0,3.946.017.9.9,0,0,1,.754-.042c.96.5,1.88,1.073,2.836,1.58a.719.719,0,0,1,.431.794,3.317,3.317,0,0,0,2.077,3.327,3.394,3.394,0,0,0,4.223-4.826.794.794,0,0,1,.032-.682c1.662-2.364,3.354-4.707,5.027-7.064a.589.589,0,0,1,.715-.283,3.372,3.372,0,0,0,3.854-4.273,3.232,3.232,0,0,0-2.688-2.376,3.173,3.173,0,0,0-3.265,1.339,3.33,3.33,0,0,0-.281,3.583.931.931,0,0,1,.038.757q-2.506,3.579-5.079,7.11a.679.679,0,0,1-.524.275,3.613,3.613,0,0,0-3.1.813M39.465,71.824c0-2.258.006-4.516,0-6.774,0-.986-.373-1.353-1.349-1.362-1.174-.01-2.349-.012-3.523,0-.933.01-1.307.386-1.308,1.333q-.009,6.808,0,13.617c0,.9.384,1.28,1.279,1.289,1.151.013,2.3.006,3.455,0,1.109,0,1.444-.341,1.446-1.467q.006-3.319,0-6.639m3.156,2.59c0,1.4-.006,2.8,0,4.2.005.912.371,1.3,1.258,1.309q1.831.021,3.662,0c.862-.01,1.24-.376,1.245-1.25q.021-4.272,0-8.544c0-.876-.369-1.219-1.252-1.231-1.2-.016-2.4-.013-3.594,0-.986.01-1.316.361-1.319,1.376,0,1.379,0,2.758,0,4.136m-12.492,0c0-1.379,0-2.758,0-4.136,0-1.03-.347-1.371-1.39-1.378-1.153-.007-2.306-.01-3.458,0-.965.009-1.326.348-1.33,1.3q-.018,4.2,0,8.408c0,.952.377,1.312,1.319,1.319q1.763.014,3.526,0c.972-.007,1.329-.378,1.333-1.376.006-1.379,0-2.758,0-4.137" transform="translate(-10.743 -33.483)" fill="#e2e2e2"/>
          <path id="Trazado_257711" data-name="Trazado 257711" d="M9.5,33.847a1.153,1.153,0,0,1-1.328.968c-1.4-.024-2.8-.013-4.2,0-.847,0-1.136.294-1.136,1.146q0,20.673,0,41.346c0,.87.277,1.167,1.112,1.167q26.366,0,52.732,0c.09,0,.179-.016.269-.025.741.021,1.5,0,1.677.988-.173.829-.448,1.069-1.287,1.073-1.917.007-3.834,0-5.827,0,0,.658,0,1.282,0,1.906a2.379,2.379,0,0,1-2.638,2.646c-3.051.012-6.1,0-9.152,0h-.686c.133.282.229.5.338.712q2.154,4.212,4.314,8.421c.233.453.375.942-.042,1.3a1.276,1.276,0,0,1-1.012.3,1.675,1.675,0,0,1-.813-.812c-1.573-3.016-3.139-6.036-4.644-9.087a1.33,1.33,0,0,0-1.436-.859c-3.163.044-6.327.035-9.491,0a1.064,1.064,0,0,0-1.138.673c-1.532,3.062-3.1,6.1-4.665,9.152a5.1,5.1,0,0,1-.293.533.947.947,0,0,1-1.3.357.923.923,0,0,1-.479-1.255,6.057,6.057,0,0,1,.289-.61q2.075-4.062,4.153-8.123c.1-.2.191-.4.341-.711H22.36q-4.407,0-8.813,0c-2.009,0-2.854-.838-2.855-2.823,0-.559,0-1.118,0-1.731-2.332,0-4.608.011-6.884,0A2.865,2.865,0,0,1,.866,78.2,4.579,4.579,0,0,1,.8,77.258q0-20.609,0-41.218a2.946,2.946,0,0,1,3.269-3.266c1.378,0,2.757-.007,4.135,0,.831.006,1.1.241,1.3,1.072M47.158,83c.6.019,1.207.069,1.806.036.18-.01.486-.24.5-.387.053-.7.024-1.413.024-2.124H47.176c-.113,0-.226-.013-.338-.013H13.227c-.151,0-.3.013-.5.023,0,.538,0,1.03,0,1.522,0,.965,0,.966.957.966q16.365,0,32.729.006c.248,0,.5-.019.743-.029" transform="translate(-0.795 -28.218)" fill="#030302"/>
          <path id="Trazado_257712" data-name="Trazado 257712" d="M109.1,12.589c-.27-.008-.541-.023-.811-.023H65.327c-1.05,0-1.213-.1-1.539-.961.237-.883.486-1.074,1.441-1.074q5.862,0,11.724,0h.8c0-.656-.009-1.26,0-1.863a2.481,2.481,0,0,1,2.542-2.659q3.082-.067,6.167,0A2.508,2.508,0,0,1,89.03,8.649c.01.605,0,1.211,0,1.879h21.234c2.321,0,3.429,1.118,3.43,3.458q0,4.371,0,8.742c0,.9-.224,1.179-1.055,1.385a1.129,1.129,0,0,1-.985-1.3c.016-3.005.009-6.011,0-9.016,0-.939-.285-1.224-1.2-1.228-.451,0-.9.015-1.354.023M84.682,8.071c-1.421-.013-2.842-.046-4.263-.018a.78.78,0,0,0-.594.456A18.428,18.428,0,0,0,79.8,10.5h7.2c0-.653,0-1.255,0-1.857a.552.552,0,0,0-.634-.611c-.559.006-1.119.024-1.678.036" transform="translate(-53.087 -5.973)" fill="#030302"/>
          <path id="Trazado_257713" data-name="Trazado 257713" d="M330.528,44.8c.451-.008.9-.025,1.354-.023.919,0,1.2.289,1.2,1.228,0,3.005.011,6.011,0,9.016a1.129,1.129,0,0,0,.985,1.3q-.016,1.025-.032,2.05l-3.377-1.18q.007-5.838.008-11.676a3.853,3.853,0,0,0-.137-.72" transform="translate(-274.514 -38.187)" fill="#afafaf"/>
          <path id="Trazado_257714" data-name="Trazado 257714" d="M332.969,277.228c-.174-.984-.937-.966-1.677-.988q0-2.6-.008-5.2c.1.011.257-.013.285.038,1.009,1.766,2.005,3.539,3,5.312-.5.339-.86.959-1.6.836" transform="translate(-275.141 -226.014)" fill="#afafaf"/>
          <path id="Trazado_257715" data-name="Trazado 257715" d="M260.1,128.151a11.247,11.247,0,0,1,.085,22.494,11.247,11.247,0,1,1-.085-22.494m7.29,6.69-1.3-1.636c.332-.8.257-1.17-.324-1.6a9.639,9.639,0,1,0,3.179,3.963c-.348-.783-.7-.948-1.559-.727" transform="translate(-206.715 -107.395)" fill="#a3314f"/>
          <path id="Trazado_257716" data-name="Trazado 257716" d="M354.245,267.51c1.5,2.576,3,5.145,4.479,7.732a1.819,1.819,0,0,1-.606,2.545,1.772,1.772,0,0,1-2.517-.674c-1.516-2.589-2.992-5.2-4.484-7.8l3.128-1.8" transform="translate(-291.605 -223.081)" fill="#b55a72"/>
          <path id="Trazado_257717" data-name="Trazado 257717" d="M253.414,241.212q-.005.517-.011,1.034h-3.122c0-.631.01-1.191,0-1.751-.018-.775-.272-1.062-1.057-1.227q.009-1.075.019-2.15a14.849,14.849,0,0,0,4.174,4.094" transform="translate(-207.02 -197.852)" fill="#ced371"/>
          <path id="Trazado_257718" data-name="Trazado 257718" d="M348.857,258.362l-3.128,1.8-1.1-1.835,3.171-1.836,1.06,1.872" transform="translate(-286.217 -213.933)" fill="#c8395e"/>
          <path id="Trazado_257719" data-name="Trazado 257719" d="M96.529,81.08a3.613,3.613,0,0,1,3.1-.813.68.68,0,0,0,.524-.275q2.563-3.538,5.079-7.11a.931.931,0,0,0-.038-.757,3.33,3.33,0,0,1,.281-3.583,3.173,3.173,0,0,1,3.265-1.339,3.232,3.232,0,0,1,2.688,2.376,3.373,3.373,0,0,1-3.854,4.273.589.589,0,0,0-.715.283c-1.673,2.357-3.365,4.7-5.027,7.064a.792.792,0,0,0-.032.682,3.394,3.394,0,0,1-4.223,4.826A3.317,3.317,0,0,1,95.5,83.38a.72.72,0,0,0-.431-.795c-.956-.507-1.876-1.082-2.836-1.58a.9.9,0,0,0-.754.042,3.435,3.435,0,0,1-3.946-.017.9.9,0,0,0-.754-.01c-.939.489-1.839,1.055-2.777,1.548a.76.76,0,0,0-.457.843,3.369,3.369,0,0,1-6.7.659,3.185,3.185,0,0,1,1.5-3.32,3.149,3.149,0,0,1,3.689.023.785.785,0,0,0,1,.021q1.335-.8,2.7-1.54a.665.665,0,0,0,.417-.728,3.383,3.383,0,0,1,3.351-3.644,3.436,3.436,0,0,1,3.4,3.69.823.823,0,0,0,.323.619c1.079.651,2.186,1.258,3.3,1.889m-7.006-4.156a1.4,1.4,0,0,0-1.349,1.331,1.347,1.347,0,1,0,2.694.006,1.4,1.4,0,0,0-1.345-1.337m-8,6.631a1.389,1.389,0,0,0-1.345-1.33,1.411,1.411,0,0,0-1.345,1.338A1.365,1.365,0,0,0,80.22,84.91a1.351,1.351,0,0,0,1.3-1.355M98.854,84.91A1.373,1.373,0,0,0,100.21,83.6a1.422,1.422,0,0,0-1.384-1.374,1.382,1.382,0,0,0-1.3,1.369,1.325,1.325,0,0,0,1.334,1.319m8.012-14.367a1.342,1.342,0,0,0,1.338,1.334,1.376,1.376,0,0,0,1.331-1.356,1.393,1.393,0,0,0-1.353-1.34,1.36,1.36,0,0,0-1.317,1.363" transform="translate(-63.891 -56.754)" fill="#030303"/>
          <path id="Trazado_257720" data-name="Trazado 257720" d="M139.637,191.873q0,3.319,0,6.639c0,1.126-.338,1.464-1.447,1.467-1.152,0-2.3.01-3.455,0-.895-.01-1.278-.387-1.279-1.29q-.012-6.808,0-13.616c0-.946.374-1.322,1.308-1.333,1.174-.013,2.349-.011,3.523,0,.976.008,1.345.375,1.349,1.361.009,2.258,0,4.516,0,6.774m-2.072-6.058h-2.041V197.9h2.041Z" transform="translate(-110.915 -153.533)" fill="#050505"/>
          <path id="Trazado_257721" data-name="Trazado 257721" d="M188.438,219.932c0-1.379,0-2.758,0-4.136,0-1.015.333-1.366,1.319-1.376,1.2-.012,2.4-.014,3.594,0,.884.011,1.248.354,1.252,1.231q.023,4.272,0,8.544c0,.874-.383,1.24-1.245,1.25q-1.831.022-3.662,0c-.887-.01-1.253-.4-1.258-1.309-.008-1.4,0-2.8,0-4.2m2.069,3.429h2V216.5h-2Z" transform="translate(-156.56 -179.001)" fill="#050606"/>
          <path id="Trazado_257722" data-name="Trazado 257722" d="M84.669,219.946c0,1.379,0,2.758,0,4.136,0,1-.362,1.369-1.333,1.376q-1.763.014-3.526,0c-.942-.008-1.316-.368-1.319-1.319q-.017-4.2,0-8.408c0-.951.364-1.29,1.33-1.3,1.153-.011,2.306-.008,3.458,0,1.044.007,1.386.348,1.39,1.378.005,1.379,0,2.758,0,4.137m-4.1,3.424h2.018v-6.864H80.568Z" transform="translate(-65.284 -179.013)" fill="#040404"/>
          <path id="Trazado_257723" data-name="Trazado 257723" d="M244.44,249.773c.785.166,1.04.452,1.057,1.227.013.56,0,1.12,0,1.751h3.122c.751.217,1.032.552.967,1.151-.062.568-.483.891-1.223.9q-1.824.017-3.647,0c-.871-.01-1.241-.379-1.251-1.23s.007-1.711-.005-2.567a1.078,1.078,0,0,1,.978-1.231" transform="translate(-202.238 -208.357)" fill="#030303"/>
          <path id="Trazado_257724" data-name="Trazado 257724" d="M105.471,316.273c-.248.01-.5.029-.743.029Q88.363,316.3,72,316.3c-.957,0-.957,0-.957-.966,0-.492,0-.984,0-1.522.2-.009.348-.023.5-.023h33.61c.113,0,.225.008.338.013l-.018,2.476" transform="translate(-59.108 -261.494)" fill="#ffb500"/>
          <path id="Trazado_257725" data-name="Trazado 257725" d="M273.714,316.338q.009-1.238.018-2.476h2.309c0,.711.029,1.421-.024,2.124-.011.147-.317.378-.5.387-.6.033-1.2-.018-1.806-.036" transform="translate(-227.351 -261.559)" fill="#ffb500"/>
          <path id="Trazado_257726" data-name="Trazado 257726" d="M162.855,20.613h-4.893a18.433,18.433,0,0,1,.029-1.994.78.78,0,0,1,.594-.456c1.42-.028,2.842,0,4.263.018q0,1.216.007,2.432" transform="translate(-131.252 -16.083)" fill="#ffb500"/>
          <path id="Trazado_257727" data-name="Trazado 257727" d="M186.792,20.577q0-1.216-.007-2.432c.559-.013,1.119-.031,1.678-.036a.552.552,0,0,1,.634.611c0,.6,0,1.2,0,1.857Z" transform="translate(-155.19 -16.047)" fill="#ffb500"/>
          <path id="Trazado_257728" data-name="Trazado 257728" d="M283.816,151.012l1.3,1.636c-.764.593-.415,1.282-.171,1.963a7.611,7.611,0,0,1-12.4,8.11,7.611,7.611,0,0,1,9.434-11.865c.6.391,1.174.706,1.839.156" transform="translate(-224.433 -125.203)" fill="#e2e2e2"/>
          <path id="Trazado_257729" data-name="Trazado 257729" d="M273.844,141.095c-.665.551-1.236.236-1.839-.156a7.6,7.6,0,1,0,2.964,3.755c-.244-.681-.593-1.37.171-1.963.859-.221,1.211-.056,1.559.727a9.654,9.654,0,1,1-3.179-3.963c.58.429.656.8.324,1.6" transform="translate(-214.461 -115.285)" fill="#030302"/>
          <path id="Trazado_257730" data-name="Trazado 257730" d="M145.091,124.7a1.4,1.4,0,0,1,1.345,1.337,1.347,1.347,0,1,1-2.694-.006,1.4,1.4,0,0,1,1.349-1.331" transform="translate(-119.458 -104.535)" fill="#ced371"/>
          <path id="Trazado_257731" data-name="Trazado 257731" d="M91.445,157.237a1.351,1.351,0,0,1-1.3,1.355,1.365,1.365,0,0,1-1.387-1.347,1.411,1.411,0,0,1,1.346-1.338,1.389,1.389,0,0,1,1.345,1.33" transform="translate(-73.812 -130.436)" fill="#ced371"/>
          <path id="Trazado_257732" data-name="Trazado 257732" d="M200.095,158.574a1.325,1.325,0,0,1-1.334-1.319,1.382,1.382,0,0,1,1.3-1.369,1.422,1.422,0,0,1,1.384,1.374,1.373,1.373,0,0,1-1.355,1.315" transform="translate(-165.131 -130.418)" fill="#ced371"/>
          <path id="Trazado_257733" data-name="Trazado 257733" d="M253.774,80.48a1.36,1.36,0,0,1,1.317-1.363,1.393,1.393,0,0,1,1.353,1.34,1.376,1.376,0,0,1-1.331,1.356,1.342,1.342,0,0,1-1.338-1.334" transform="translate(-210.798 -66.692)" fill="#ced371"/>
          <rect id="Rectángulo_52703" data-name="Rectángulo 52703" width="2.041" height="12.085" transform="translate(24.609 32.283)" fill="#ced371"/>
          <rect id="Rectángulo_52704" data-name="Rectángulo 52704" width="2.003" height="6.858" transform="translate(33.947 37.501)" fill="#ced371"/>
          <rect id="Rectángulo_52705" data-name="Rectángulo 52705" width="2.018" height="6.864" transform="translate(15.285 37.493)" fill="#ced371"/>
        </g>
      </g>
      <g id="Grupo_166731" data-name="Grupo 166731" transform="translate(0 37.072)">
        <g id="Grupo_166735" data-name="Grupo 166735" transform="translate(0 0)">
          <path id="Trazado_257735" data-name="Trazado 257735" d="M8.213,31.4c-.183-.161-.354-.328-.245-.605s.342-.295.593-.293c.606,0,1.213,0,1.842,0l.377-1.876a11.12,11.12,0,0,1-5.479-7.3,5.356,5.356,0,0,1-2.2-.152,4.885,4.885,0,0,1-2.1-1.265c-.363-.377-.359-.578.033-.914A39.4,39.4,0,0,0,5,15.156c.7-.791,1.366-1.608,2.008-2.444A4.762,4.762,0,0,0,7.948,9.43a7.851,7.851,0,0,1,.775-3.994A7.967,7.967,0,0,1,14.34.992a8.123,8.123,0,0,1,8.577,3.654A7.788,7.788,0,0,1,24.123,9.36a5.2,5.2,0,0,0,1.183,3.68,40.04,40.04,0,0,0,5.5,5.753c.191.165.357.359.534.539v.3a4.944,4.944,0,0,1-4.561,1.7,11.141,11.141,0,0,1-5.475,7.309l.375,1.869c.645,0,1.272,0,1.9,0,.26,0,.476.059.552.345s-.1.432-.319.552H19.688c-.169-.174-.333-.358-.218-.621.121-.279.378-.283.635-.276.215.006.431,0,.662,0l-.3-1.467a11.067,11.067,0,0,1-8.852,0l-.293,1.463c.257,0,.485.006.713,0,.255-.008.492.028.589.3s-.064.459-.286.6Zm-2.807-15.3c-.074.063-.151.122-.22.19-.728.721-1.449,1.45-2.185,2.163-.363.352-.752.677-1.142,1.025a4,4,0,0,0,3.26.949.894.894,0,0,0,.01-.136,11.427,11.427,0,0,1,.088-3.122c.064-.358.123-.718.184-1.077l.043-.008-.008-.028-.03.042m20.971.921a.5.5,0,0,1-.538-.451,9.929,9.929,0,0,0-1.512-3.345,5.991,5.991,0,0,1-1.091-4.113,4.948,4.948,0,0,0-.053-1.188,7.141,7.141,0,0,0-3.247-5.056A6.226,6.226,0,0,0,17.094,1.81a14.19,14.19,0,0,0-1.834-.043,7.136,7.136,0,0,0-6.4,6.684c-.03.535.007,1.074-.008,1.61a6.419,6.419,0,0,1-1.213,3.371A9.874,9.874,0,0,0,6.28,21.505a10.082,10.082,0,0,0,8.2,7.43,20.2,20.2,0,0,0,2.106.087c.58-.072,1.169-.1,1.739-.223a9.325,9.325,0,0,0,3.465-1.532,10.051,10.051,0,0,0,3.53-4.34,10.376,10.376,0,0,0,.811-4.3c0-.279.076-.488.37-.564.382.035.518.16.525.538.011.6,0,1.206,0,1.829a3.784,3.784,0,0,0,3.152-.931L26.67,16.123c.064.355.22.748-.293.9" transform="translate(-0.739 -0.806)" fill="#040302"/>
          <path id="Trazado_257738" data-name="Trazado 257738" d="M132.71,30.47c-.294.076-.375.285-.37.564a10.375,10.375,0,0,1-.811,4.3,10.052,10.052,0,0,1-3.53,4.34,9.325,9.325,0,0,1-3.465,1.532c-.57.119-1.159.151-1.739.223-.189-.082-.375-.172-.566-.246a10.43,10.43,0,0,1-4.487-3.377,10.132,10.132,0,0,1-1.931-4.085,10.508,10.508,0,0,1,1.652-8.39,4.789,4.789,0,0,0,.969-3.151,1.789,1.789,0,0,0,.3-2.994c.154-.407.278-.829.469-1.218a7.288,7.288,0,0,1,2.078-2.6,6.135,6.135,0,0,1,2.031-1.151,6.226,6.226,0,0,1,2.842,1.064A7.141,7.141,0,0,1,129.4,20.34a4.955,4.955,0,0,1,.053,1.188,5.991,5.991,0,0,0,1.091,4.113,9.93,9.93,0,0,1,1.512,3.345.505.505,0,0,0,.538.451l.121,1.033M125.1,23.53a5.708,5.708,0,0,0-.376-.881,3.915,3.915,0,0,0-1.528-1.387,1.815,1.815,0,0,0-1.872-.006,4.372,4.372,0,0,0-1.524,1.354,1.835,1.835,0,0,0-.006,2.222,4.152,4.152,0,0,0,1.523,1.353,1.694,1.694,0,0,0,1.108.257,3.6,3.6,0,0,0,2.142-1.409,2.274,2.274,0,0,0,.533-1.5m.075-2.936c0,.119-.007.239,0,.357a1.387,1.387,0,0,0,1.2,1.287,1.341,1.341,0,0,0,1.523-.995,3.184,3.184,0,0,0,0-1.263,1.345,1.345,0,0,0-1.58-.986,1.416,1.416,0,0,0-1.142,1.6" transform="translate(-106.95 -13.216)" fill="#fedb63"/>
          <path id="Trazado_257739" data-name="Trazado 257739" d="M81.546,13.415a6.134,6.134,0,0,0-2.031,1.151,7.287,7.287,0,0,0-2.078,2.6c-.191.389-.315.811-.469,1.218-.071-.034-.142-.069-.214-.1a1.354,1.354,0,0,0-1.885.861,3,3,0,0,0,.01,1.346c.182.751.9,1.067,1.792.888A4.79,4.79,0,0,1,75.7,24.53a10.508,10.508,0,0,0-1.652,8.39A10.131,10.131,0,0,0,75.981,37a10.43,10.43,0,0,0,4.487,3.377c.192.074.378.164.566.246a20.2,20.2,0,0,1-2.106-.087,10.082,10.082,0,0,1-8.2-7.43,9.874,9.874,0,0,1,1.358-8.074A6.419,6.419,0,0,0,73.3,21.665c.015-.536-.022-1.075.008-1.61a7.136,7.136,0,0,1,6.4-6.684,14.19,14.19,0,0,1,1.834.044" transform="translate(-65.191 -12.411)" fill="#fdc64f"/>
          <path id="Trazado_257740" data-name="Trazado 257740" d="M343.4,207.384l-.121-1.033c.513-.156.357-.549.293-.9l3.508,3.373a3.784,3.784,0,0,1-3.152.931c0-.623.008-1.226,0-1.829-.007-.378-.143-.5-.525-.538" transform="translate(-317.642 -190.13)" fill="#e8ad4a"/>
          <path id="Trazado_257741" data-name="Trazado 257741" d="M19.252,205.137c-.061.359-.12.718-.184,1.077a11.425,11.425,0,0,0-.088,3.122.893.893,0,0,1-.01.136,4,4,0,0,1-3.26-.949c.39-.349.779-.673,1.142-1.025.736-.713,1.457-1.442,2.185-2.163.069-.068.147-.127.22-.19l0-.007" transform="translate(-14.589 -189.843)" fill="#e7ac4a"/>
          <path id="Trazado_257742" data-name="Trazado 257742" d="M63.036,204.7l.03-.042.008.028-.043.008,0,.007" transform="translate(-58.369 -189.401)" fill="#e7ac4a"/>
          <path id="Trazado_257743" data-name="Trazado 257743" d="M173.04,107.316a2.274,2.274,0,0,1-.533,1.5,3.6,3.6,0,0,1-2.142,1.409,1.693,1.693,0,0,1-1.108-.257,4.152,4.152,0,0,1-1.523-1.353,1.835,1.835,0,0,1,.006-2.222,4.372,4.372,0,0,1,1.524-1.354,1.815,1.815,0,0,1,1.872.006,3.915,3.915,0,0,1,1.528,1.387,5.715,5.715,0,0,1,.376.881m-4.505.788-.062-.015.04.037a4.209,4.209,0,0,0,.535.627c1,.793,1.29.794,2.289.008a5.211,5.211,0,0,0,.5-.518l-.057-.079c-.087.03-.176.057-.262.091a2.906,2.906,0,0,1-1.772.245c-.412-.1-.81-.262-1.214-.4m-.087-1.157a2.544,2.544,0,0,0,3.5,0,3.28,3.28,0,0,0-1.356-1.17.847.847,0,0,0-.771-.006,3.253,3.253,0,0,0-1.368,1.179" transform="translate(-154.892 -97.003)" fill="#030301"/>
          <path id="Trazado_257744" data-name="Trazado 257744" d="M244.174,79.306a1.416,1.416,0,0,1,1.142-1.6,1.345,1.345,0,0,1,1.58.986,3.187,3.187,0,0,1,0,1.263,1.341,1.341,0,0,1-1.523.995,1.387,1.387,0,0,1-1.2-1.287c-.008-.119,0-.238,0-.357m1.856.031c.057-.4-.031-.662-.3-.706a.737.737,0,0,0-.511.113c-.217.162-.18.418-.092.654a.365.365,0,0,0,.141.547.714.714,0,0,0,.564.015.444.444,0,0,0,.195-.623" transform="translate(-225.951 -71.928)" fill="#040302"/>
          <path id="Trazado_257745" data-name="Trazado 257745" d="M130.953,80.86c-.891.18-1.61-.137-1.792-.888a2.993,2.993,0,0,1-.01-1.346,1.354,1.354,0,0,1,1.885-.861c.072.032.143.067.214.1a1.789,1.789,0,0,1-.3,2.994m-.053-1.5c.124-.408.02-.693-.286-.783-.425-.126-.688.183-.614.722a.444.444,0,0,0,.195.623.713.713,0,0,0,.564-.015.366.366,0,0,0,.141-.548" transform="translate(-119.474 -71.893)" fill="#040302"/>
          <path id="Trazado_257746" data-name="Trazado 257746" d="M181.861,117.988a3.252,3.252,0,0,1,1.368-1.179.847.847,0,0,1,.771.006,3.281,3.281,0,0,1,1.356,1.17,2.544,2.544,0,0,1-3.5,0" transform="translate(-168.304 -108.043)" fill="#e78f4a"/>
          <path id="Trazado_257747" data-name="Trazado 257747" d="M182.741,149.128c.4.134.8.294,1.214.4a2.906,2.906,0,0,0,1.772-.245c.086-.034.175-.061.262-.091l.057.079a5.21,5.21,0,0,1-.5.518c-1,.786-1.294.784-2.29-.008a4.206,4.206,0,0,1-.535-.627l.023-.022" transform="translate(-169.097 -138.026)" fill="#c97339"/>
          <path id="Trazado_257748" data-name="Trazado 257748" d="M182.224,148.969l-.04-.037.063.015-.023.022" transform="translate(-168.603 -137.845)" fill="#c97339"/>
          <path id="Trazado_257749" data-name="Trazado 257749" d="M256.138,91.028c-.088-.236-.125-.492.092-.654a.738.738,0,0,1,.511-.113c.265.044.353.305.3.706-.347.318-.492.328-.9.061" transform="translate(-236.958 -83.558)" fill="#f9f9f9"/>
          <path id="Trazado_257750" data-name="Trazado 257750" d="M256.152,99.855c.407.266.552.256.9-.061a.444.444,0,0,1-.194.623.714.714,0,0,1-.564-.015.365.365,0,0,1-.141-.547" transform="translate(-236.971 -92.385)" fill="#5c535f"/>
          <path id="Trazado_257751" data-name="Trazado 257751" d="M141.234,90.522c-.074-.539.189-.848.614-.722.306.091.41.376.286.783-.407.266-.552.256-.9-.061" transform="translate(-130.706 -83.113)" fill="#f9f9f9"/>
          <path id="Trazado_257752" data-name="Trazado 257752" d="M140.693,99.793c.347.318.492.327.9.061a.366.366,0,0,1-.141.548.714.714,0,0,1-.564.015.444.444,0,0,1-.195-.623" transform="translate(-130.166 -92.384)" fill="#5c535f"/>
        </g>
      </g>
      <g id="Grupo_166737" data-name="Grupo 166737" transform="translate(59.941 26.686)">
        <g id="Grupo_166738" data-name="Grupo 166738" transform="translate(0 0)">
          <path id="Trazado_257754" data-name="Trazado 257754" d="M12.7,22.374c-.063.181-.12.364-.19.543a5.191,5.191,0,0,1-1.687,2.243A5.747,5.747,0,0,1,8.2,26.3c-.221.037-.444.06-.682.091l.134.954c.075,0,.144,0,.212,0a.176.176,0,0,1,.182.172.174.174,0,0,1-.181.174q-.738,0-1.476,0a.173.173,0,1,1,0-.346c.256,0,.511,0,.767,0H7.3L7.162,26.4l-.411-.026a5.177,5.177,0,0,1-1.557-.339.162.162,0,0,0-.126,0c-.242.158-.48.323-.734.5.08.045.151.082.219.124a.178.178,0,0,1,.083.255.177.177,0,0,1-.254.048q-.708-.395-1.415-.794a.176.176,0,0,1-.09-.252.182.182,0,0,1,.265-.048c.254.14.508.28.757.427a.145.145,0,0,0,.185-.009c.214-.151.432-.3.659-.45a4.567,4.567,0,0,1-1.282-.989,4.8,4.8,0,0,1-1.19-2.533,7.2,7.2,0,0,1-.062-.786.717.717,0,0,0-.127-.387,5.163,5.163,0,0,1-.3-.532.231.231,0,0,0-.147-.13c-.213-.068-.425-.141-.637-.213s-.252-.2-.09-.366c.2-.2.4-.393.59-.593a.283.283,0,0,0,.074-.147,2.78,2.78,0,0,1,5.509-.042c.028.2.024.411.064.61a1.554,1.554,0,0,0,.657.911,5.83,5.83,0,0,0,1.845.9c.5.158,1.02.278,1.532.408.232.059.278.168.135.361l-.215.291a2.224,2.224,0,0,0,.966-.222,2.987,2.987,0,0,0,.314-.174c.154-.094.228-.082.324.062Zm-3.724.817a.207.207,0,0,1-.129.263c-.138.069-.271.151-.412.213a3.89,3.89,0,0,1-2.009.359,1.226,1.226,0,0,0-.125,0,.423.423,0,0,0,.127.07A3.091,3.091,0,0,0,9,23.93a5.258,5.258,0,0,0,1.733-1.447c.062-.075.12-.153.185-.235l-.819-.2c-.018-.007-.035-.016-.053-.022-.474-.171-.957-.322-1.421-.518A3.888,3.888,0,0,1,7.1,20.445a1.741,1.741,0,0,1-.351-1.1,1.487,1.487,0,0,0-.036-.3A2.431,2.431,0,0,0,4.675,17.1a2.037,2.037,0,0,0-.873.042.171.171,0,0,0-.035,0,2.424,2.424,0,0,0-1.844,2.036.138.138,0,0,0,.032.1,1.03,1.03,0,0,1,.2,1.181.166.166,0,0,0,0,.125c.08.141.166.279.256.414a.74.74,0,0,1,.137.411,4.94,4.94,0,0,0,.459,2.124,4.247,4.247,0,0,0,1.558,1.787,4.757,4.757,0,0,0,2.684.713c.28,0,.56-.052.84-.08a.289.289,0,0,0,.045,0,5.5,5.5,0,0,0,1.539-.493,5.069,5.069,0,0,0,2.271-2.152c.106-.194.187-.4.283-.609a.192.192,0,0,0-.045-.005c-.022.007-.044.015-.065.025a2.5,2.5,0,0,1-1.232.214.229.229,0,0,0-.143.068c-.312.277-.6.586-.935.832a3.678,3.678,0,0,1-2.832.766,2.9,2.9,0,0,1-2.052-1.283,1.907,1.907,0,0,1-.282-1.627,2.022,2.022,0,0,1,.681-1,.185.185,0,0,1,.262.01.21.21,0,0,1-.059.278,2.658,2.658,0,0,0-.274.282,1.435,1.435,0,0,0,.45,2.2,2.591,2.591,0,0,0,1.642.175,3.9,3.9,0,0,0,1.329-.49c.145-.085.193-.074.3.04M1.314,20l.551.185a.565.565,0,0,0-.125-.608L1.314,20" transform="translate(-0.804 -16.726)" fill="#040302"/>
          <path id="Trazado_257755" data-name="Trazado 257755" d="M82.347,32.369a.185.185,0,0,0-.262-.01,2.022,2.022,0,0,0-.681,1,1.907,1.907,0,0,0,.282,1.627,2.9,2.9,0,0,0,2.052,1.283A3.678,3.678,0,0,0,86.57,35.5c.335-.246.623-.555.935-.832a.229.229,0,0,1,.143-.068,2.5,2.5,0,0,0,1.232-.214c.021-.009.043-.017.065-.025a.193.193,0,0,1,.045.005c-.1.208-.177.415-.283.609a5.069,5.069,0,0,1-2.271,2.152,5.506,5.506,0,0,1-1.539.493.285.285,0,0,1-.045,0,4.274,4.274,0,0,1-1.33-.266,5.089,5.089,0,0,1-2.1-1.392,5.672,5.672,0,0,1-.957-1.464,7.1,7.1,0,0,1-.6-2.836,1.618,1.618,0,0,0,.463.025.749.749,0,0,0,.552-.926c-.006-.045-.083-.082-.129-.119a.309.309,0,0,0-.068-.032.489.489,0,0,0-.351-.343c-.015-.157-.086-.216-.238-.2l-.135.018a2.349,2.349,0,0,1,.6-1.283,2.037,2.037,0,0,1,.873-.042,2.431,2.431,0,0,1,2.042,1.937,1.486,1.486,0,0,1,.036.3,1.741,1.741,0,0,0,.351,1.105.615.615,0,0,1-.081-.006A1.745,1.745,0,0,0,82.7,32.2c-.119.053-.233.116-.349.174" transform="translate(-77.563 -28.393)" fill="#fdda63"/>
          <path id="Trazado_257756" data-name="Trazado 257756" d="M142.934,143.016c.116-.058.23-.121.349-.174a1.745,1.745,0,0,1,1.086-.089.623.623,0,0,0,.081.006,3.889,3.889,0,0,0,1.522,1.063c.464.2.947.347,1.421.518.018.006.035.015.053.022,0,.022,0,.051-.013.066-.113.136-.228.269-.342.4-.128-.1-.188-.093-.3.019-.041.041-.081.083-.122.124a.192.192,0,0,0-.033.27l-.309.26c-.11-.114-.158-.125-.3-.04a3.9,3.9,0,0,1-1.329.49,2.591,2.591,0,0,1-1.642-.175,1.435,1.435,0,0,1-.449-2.2,2.652,2.652,0,0,1,.274-.282.21.21,0,0,0,.059-.278" transform="translate(-138.151 -139.04)" fill="#fdc74f"/>
          <path id="Trazado_257757" data-name="Trazado 257757" d="M40.406,33.976a7.1,7.1,0,0,0,.6,2.836,5.671,5.671,0,0,0,.957,1.464,5.089,5.089,0,0,0,2.1,1.392,4.273,4.273,0,0,0,1.33.266c-.28.028-.559.076-.84.08a4.758,4.758,0,0,1-2.684-.713,4.247,4.247,0,0,1-1.558-1.787,4.94,4.94,0,0,1-.459-2.124.74.74,0,0,0-.137-.411c-.09-.135-.176-.273-.256-.414a.166.166,0,0,1,0-.125,1.03,1.03,0,0,0-.2-1.181.139.139,0,0,1-.032-.1,2.424,2.424,0,0,1,1.844-2.036.174.174,0,0,1,.035,0,2.349,2.349,0,0,0-.6,1.283.791.791,0,0,0-.431.345.913.913,0,0,0,.337,1.229" transform="translate(-38.106 -30.7)" fill="#fdc64f"/>
          <path id="Trazado_257758" data-name="Trazado 257758" d="M193.165,200.045c.115-.134.23-.267.342-.4.013-.015.009-.044.013-.066l.819.2c-.064.082-.123.16-.185.235a5.258,5.258,0,0,1-1.733,1.447,3.091,3.091,0,0,1-2.571.166.423.423,0,0,1-.127-.07,1.223,1.223,0,0,1,.125,0,3.89,3.89,0,0,0,2.009-.359c.141-.063.273-.144.412-.213a.207.207,0,0,0,.129-.263l.309-.26c.125.077.185.072.286-.028.041-.041.08-.084.122-.124a.2.2,0,0,0,.049-.261" transform="translate(-184.226 -194.254)" fill="#e7ac4a"/>
          <path id="Trazado_257759" data-name="Trazado 257759" d="M18.33,115.1l.427-.423a.565.565,0,0,1,.125.608l-.551-.185" transform="translate(-17.82 -111.829)" fill="#e38c48"/>
          <path id="Trazado_257760" data-name="Trazado 257760" d="M64.715,76.07a.913.913,0,0,1-.337-1.229.791.791,0,0,1,.431-.345l.135-.018c.153-.019.224.04.238.2l-.1.155-.228.059a.387.387,0,0,0-.11.044.494.494,0,0,0-.126.439.39.39,0,0,0,.277.386.379.379,0,0,0,.437-.176,1.166,1.166,0,0,0,.049-.254.3.3,0,0,1,.146-.31.311.311,0,0,1,.068.032c.047.037.123.074.129.119a.749.749,0,0,1-.552.926,1.619,1.619,0,0,1-.463-.025" transform="translate(-62.414 -72.795)" fill="#030302"/>
          <path id="Trazado_257761" data-name="Trazado 257761" d="M90.7,81.708a.3.3,0,0,0-.146.31,1.167,1.167,0,0,1-.049.254.307.307,0,0,1-.321-.362.2.2,0,0,0,.188-.154.213.213,0,0,0-.118-.236l.1-.155a.489.489,0,0,1,.351.343" transform="translate(-87.582 -79.484)" fill="#5e5460"/>
          <path id="Trazado_257762" data-name="Trazado 257762" d="M291.328,213.411a.2.2,0,0,1-.049.261c-.042.04-.08.084-.122.124-.1.1-.162.106-.286.028a.192.192,0,0,1,.033-.27c.041-.041.081-.084.122-.124.114-.112.173-.115.3-.019" transform="translate(-282.389 -207.62)" fill="#080602"/>
          <path id="Trazado_257763" data-name="Trazado 257763" d="M77.049,89.047a.307.307,0,0,0,.321.362.379.379,0,0,1-.437.176.39.39,0,0,1-.277-.386.494.494,0,0,1,.126-.439.387.387,0,0,1,.11-.044c-.072.191-.026.289.158.331" transform="translate(-74.447 -86.621)" fill="#4a3f4d"/>
          <path id="Trazado_257764" data-name="Trazado 257764" d="M83.865,87.079c-.183-.042-.23-.14-.158-.331l.228-.059a.213.213,0,0,1,.118.236.2.2,0,0,1-.188.154" transform="translate(-81.263 -84.653)" fill="#faf9fa"/>
        </g>
      </g>
    </g>
  </g>
</svg>
