<svg xmlns="http://www.w3.org/2000/svg" xmlns:xlink="http://www.w3.org/1999/xlink" width="151" height="151" viewBox="0 0 151 151">
  <defs>
    <filter id="Elipse_6114" x="0" y="0" width="151" height="151" filterUnits="userSpaceOnUse">
      <feOffset dy="12" input="SourceAlpha"/>
      <feGaussianBlur stdDeviation="6" result="blur"/>
      <feFlood flood-opacity="0.161"/>
      <feComposite operator="in" in2="blur"/>
      <feComposite in="SourceGraphic"/>
    </filter>
    <filter id="Elipse_6114-2" x="0" y="0" width="151" height="151" filterUnits="userSpaceOnUse">
      <feOffset dy="4" input="SourceAlpha"/>
      <feGaussianBlur stdDeviation="3" result="blur-2"/>
      <feFlood flood-opacity="0.161" result="color"/>
      <feComposite operator="out" in="SourceGraphic" in2="blur-2"/>
      <feComposite operator="in" in="color"/>
      <feComposite operator="in" in2="SourceGraphic"/>
    </filter>
  </defs>
  <g id="Grupo_891223" data-name="Grupo 891223" transform="translate(11704 6516)">
    <g data-type="innerShadowGroup">
      <g transform="matrix(1, 0, 0, 1, -11704, -6516)" filter="url(#Elipse_6114)">
        <circle id="Elipse_6114-3" data-name="Elipse 6114" cx="57.5" cy="57.5" r="57.5" transform="translate(18 6)" fill="#fff"/>
      </g>
      <g transform="matrix(1, 0, 0, 1, -11704, -6516)" filter="url(#Elipse_6114-2)">
        <circle id="Elipse_6114-4" data-name="Elipse 6114" cx="57.5" cy="57.5" r="57.5" transform="translate(18 6)" fill="#fff"/>
      </g>
    </g>
    <g id="Grupo_238269" data-name="Grupo 238269" transform="translate(-11665.901 -6484.42)">
      <g id="Grupo_166764" data-name="Grupo 166764" transform="translate(15.68)">
        <g id="Grupo_166765" data-name="Grupo 166765" transform="translate(0 0)">
          <path id="Trazado_257964" data-name="Trazado 257964" d="M20.566,52.787a1.035,1.035,0,0,1-1.205.881,25.041,25.041,0,0,1-3.011-.135,4.808,4.808,0,0,1-3.961-4.568c-.065-1.54-.03-3.085-.031-4.628q0-7.993,0-15.986c0-.888.146-1.086.911-1.285.78.188.94.408.94,1.329q0,7.963,0,15.925a3.158,3.158,0,0,0,3.434,3.405H38.953a16.393,16.393,0,0,1,3.689-10.413A2.057,2.057,0,0,1,41,35.035c0-.6-.022-1.195.012-1.79a1.9,1.9,0,0,1,1.907-1.871c.719-.025,1.441-.027,2.16,0A1.9,1.9,0,0,1,46.912,33c.034.178.058.358.094.582.193-.1.356-.18.516-.266a16.177,16.177,0,0,1,9.9-1.8,17.241,17.241,0,0,1,6.239,2.168L65.524,35V20.958H63.666c-.144-.008-.287-.022-.43-.022q-24.26,0-48.52,0c-.159,0-.318.02-.506.033,0,1.045-.014,2.052,0,3.059a1.068,1.068,0,0,1-.944,1.226,1.076,1.076,0,0,1-.921-1.24c.014-4.691-.009-9.382.013-14.073a5,5,0,0,1,5.228-5.183c2.323-.007,4.646,0,7.041,0a3.673,3.673,0,0,1,1.292-3.3A3.413,3.413,0,0,1,28.269.675c1.969.073,3.086,1.4,3.371,4.046H48.155A3.71,3.71,0,0,1,49.515,1.41,3.432,3.432,0,0,1,51.875.678c1.956.107,3.109,1.512,3.3,4.078h2.382c1.523,0,3.046,0,4.569,0a5.006,5.006,0,0,1,5.275,5.26Q67.414,23.1,67.4,36.189a1.753,1.753,0,0,0,.42,1.162c3.776,4.833,4.769,10.208,2.625,15.942-2.16,5.777-6.46,9.206-12.532,10.379-.346.067-.689.154-1.033.231H53.417c-.667-.153-1.338-.292-2-.463A16.12,16.12,0,0,1,40.34,54.161a.709.709,0,0,0-.767-.5q-7.967.023-15.934.009c-.832,0-1.036-.147-1.255-.878.151-.763.41-.974,1.228-.974q7.589,0,15.178,0h.686l-.434-2.237h-.7q-10.4,0-20.792,0a5.161,5.161,0,0,1-2.916-.825,4.1,4.1,0,0,0-.371-.193,3.071,3.071,0,0,0,2.9,3.237c.719.028,1.44,0,2.159.01.81.006,1.04.189,1.247.977m22.6-19.537c-.117.082-.331.158-.336.247a14.033,14.033,0,0,0,0,1.649c.006.105.214.2.329.3.266.012.532.034.8.033.9,0,1.164-.359,1.16-1.535,0-.692,0-.692-1.027-.692h-.923M27.342,2.765A1.447,1.447,0,0,0,26.491,4.2q-.019,2.518,0,5.037a1.5,1.5,0,0,0,.969,1.494,1.559,1.559,0,0,0,2.259-1.412c.04-1.742.043-3.486,0-5.227a1.555,1.555,0,0,0-2.374-1.325m23.589-.034a1.39,1.39,0,0,0-.895,1.346q-.035,2.64,0,5.281a1.358,1.358,0,0,0,.9,1.333,1.572,1.572,0,0,0,2.329-1.363q.074-2.615,0-5.233a1.577,1.577,0,0,0-2.337-1.364M59.5,61.355l0,.006c.237-.065.48-.113.709-.2A14.415,14.415,0,0,0,65.94,37.995a14.6,14.6,0,0,0-12.8-4.616,14.4,14.4,0,0,0-2.289,27.976,13.331,13.331,0,0,0,8.367.085l.284-.084m4.163-44.484c-.123-.007-.246-.02-.369-.02q-24.264,0-48.529,0c-.175,0-.35.023-.513.035v2.194H62.986c.226,0,.452-.015.677-.022h1.852V16.871Zm0-1.9h1.824a1.057,1.057,0,0,0,.055-.214c0-1.682.026-3.364,0-5.045A3.107,3.107,0,0,0,62.19,6.632H55.184V8.855a10.553,10.553,0,0,1,1.152.008.882.882,0,0,1,.819.978.848.848,0,0,1-.881.848,4.521,4.521,0,0,1-.8,0,.872.872,0,0,0-.936.486,3.4,3.4,0,0,1-5.643.158,1.287,1.287,0,0,0-1.357-.64,2.615,2.615,0,0,1-.37,0c-.638-.021-1.027-.356-1.039-.892-.013-.566.383-.933,1.05-.958.3-.012.606,0,.935,0V6.66H31.622v2.2a10.614,10.614,0,0,1,1.192.009.9.9,0,0,1,.823.981.88.88,0,0,1-.9.842,5.105,5.105,0,0,1-.8,0,.878.878,0,0,0-.937.492,3.376,3.376,0,0,1-5.482.335,1.775,1.775,0,0,0-1.831-.821.686.686,0,0,1-.123,0,.925.925,0,0,1-.977-.9.951.951,0,0,1,.947-.945c.344-.025.69,0,1.068,0V6.633c-2.556,0-5.084-.068-7.607.027A2.827,2.827,0,0,0,14.3,9.147c-.117,1.921-.03,3.854-.03,5.846H62.923c.246,0,.493-.014.739-.021" transform="translate(-12.349 -0.672)" fill="#030202"/>
          <path id="Trazado_257965" data-name="Trazado 257965" d="M68.317,136.261a17.239,17.239,0,0,0-6.239-2.168,16.176,16.176,0,0,0-9.9,1.8c-.16.085-.322.166-.516.266-.036-.224-.061-.4-.094-.582a1.9,1.9,0,0,0-1.829-1.618c-.719-.031-1.441-.029-2.16,0a1.9,1.9,0,0,0-1.907,1.871c-.034.595-.016,1.193-.012,1.789a2.057,2.057,0,0,0,1.637,2.276A16.394,16.394,0,0,0,43.612,150.3H22.306a3.158,3.158,0,0,1-3.434-3.405q-.012-7.962,0-15.925c0-.921-.16-1.14-.94-1.329q0-.905,0-1.811a1.068,1.068,0,0,0,.944-1.226c-.018-1.007,0-2.014,0-3.059.188-.013.347-.033.506-.033q24.26,0,48.52,0c.143,0,.287.014.43.022q0,6.362-.008,12.724m-.348-7.5c0-.329,0-.658,0-.987a1.925,1.925,0,0,0-2-2.025c-.658-.011-1.317-.015-1.974,0a1.926,1.926,0,0,0-1.959,1.95c-.013.7-.017,1.4,0,2.1a1.882,1.882,0,0,0,1.823,1.88c.636.033,1.275.019,1.912.015a1.946,1.946,0,0,0,2.2-2.192c0-.247,0-.494,0-.74m-32.739-.036c0-.35.008-.7,0-1.049a1.908,1.908,0,0,0-1.855-1.922c-.739-.032-1.481-.032-2.22,0a1.911,1.911,0,0,0-1.858,1.922q-.021,1.048,0,2.1a1.865,1.865,0,0,0,1.8,1.9c.78.038,1.564.037,2.343,0a1.855,1.855,0,0,0,1.792-1.839c.014-.37,0-.74,0-1.11m0,8.193c0-.329,0-.658,0-.987a1.886,1.886,0,0,0-1.909-1.981c-.719-.021-1.44-.025-2.159,0a1.881,1.881,0,0,0-1.865,1.9c-.015.678-.01,1.357,0,2.035a1.915,1.915,0,0,0,1.912,1.992c.7.027,1.4.025,2.1,0a1.909,1.909,0,0,0,1.926-1.976c.006-.329,0-.658,0-.987m8.177,8.188h0c0-.329.007-.658,0-.987a1.883,1.883,0,0,0-1.964-1.987c-.7-.014-1.4-.016-2.1.005a1.878,1.878,0,0,0-1.867,1.773,19.373,19.373,0,0,0,0,2.343,1.907,1.907,0,0,0,1.906,1.812c.719.019,1.44.023,2.159,0a1.889,1.889,0,0,0,1.859-1.848c.018-.369,0-.74,0-1.11m13.387-13.426v.01c.35,0,.7.012,1.049,0a1.916,1.916,0,0,0,1.952-2.013c.01-.658.015-1.316,0-1.974a1.925,1.925,0,0,0-1.9-1.949c-.719-.025-1.44-.027-2.159,0a1.9,1.9,0,0,0-1.874,1.9q-.025,1.079,0,2.159a1.858,1.858,0,0,0,1.762,1.865c.389.028.781,0,1.172,0m-8.166,0v.017c.329,0,.658.01.987,0a1.923,1.923,0,0,0,2-2.036c.015-.658.025-1.317,0-1.973a1.93,1.93,0,0,0-1.982-1.932c-.678-.014-1.358-.018-2.036,0a1.867,1.867,0,0,0-1.9,1.736,18.945,18.945,0,0,0,.006,2.525,1.809,1.809,0,0,0,1.7,1.658c.409.031.822.005,1.233.005m-5.216,5.261c0-.329.006-.658,0-.987a1.889,1.889,0,0,0-2.011-2c-.658-.011-1.316-.015-1.974,0A1.914,1.914,0,0,0,37.47,135.9q-.029,1.017,0,2.035a1.931,1.931,0,0,0,1.964,1.951q1.017.031,2.036,0a1.9,1.9,0,0,0,1.941-1.959c.01-.329,0-.658,0-.987M21.12,145.076h0c0,.329-.005.658,0,.987a1.914,1.914,0,0,0,2.015,2.008c.658.007,1.316.013,1.974,0a1.924,1.924,0,0,0,1.946-1.9c.026-.719.028-1.44,0-2.158a1.9,1.9,0,0,0-1.9-1.869c-.74-.019-1.481-.023-2.221,0a1.856,1.856,0,0,0-1.806,1.822c-.016.369,0,.74,0,1.11m0-16.349c0,.329-.006.658,0,.987a1.875,1.875,0,0,0,1.913,1.974c.719.025,1.44.025,2.159-.005a1.879,1.879,0,0,0,1.862-1.844c.032-.739.032-1.481,0-2.22a1.909,1.909,0,0,0-1.86-1.861c-.739-.031-1.482-.031-2.221,0a1.9,1.9,0,0,0-1.852,1.921c-.01.349,0,.7,0,1.049m0,8.154c0,.35-.007.7,0,1.049A1.9,1.9,0,0,0,23,139.883c.718.031,1.44.031,2.159,0a1.916,1.916,0,0,0,1.9-1.95q.027-1.017,0-2.036a1.91,1.91,0,0,0-1.957-1.945q-1.017-.025-2.036,0a1.882,1.882,0,0,0-1.945,1.942c-.008.329,0,.658,0,.987m11.2,5.258v0c-.37,0-.741-.01-1.111,0a1.894,1.894,0,0,0-1.912,1.919q-.021,1.048,0,2.1a1.912,1.912,0,0,0,1.863,1.913c.739.025,1.481.027,2.221,0a1.9,1.9,0,0,0,1.844-1.865q.03-1.11,0-2.221a1.871,1.871,0,0,0-1.8-1.838c-.369-.02-.74,0-1.11,0m11.094-13.354c0-.329.005-.658,0-.987a1.927,1.927,0,0,0-2.044-2.047c-.637-.007-1.275-.012-1.912,0a1.934,1.934,0,0,0-1.984,1.932c-.024.7-.024,1.4,0,2.1a1.906,1.906,0,0,0,1.871,1.9c.39.021.783-.012,1.172.015,2.162.151,3.073-.581,2.9-2.916" transform="translate(-17.008 -103.251)" fill="#e8f2f9"/>
          <path id="Trazado_257966" data-name="Trazado 257966" d="M30.214,295.228c-.207-.789-.437-.971-1.247-.977-.72-.005-1.441.018-2.159-.01a3.071,3.071,0,0,1-2.9-3.237,4.121,4.121,0,0,1,.371.193,5.161,5.161,0,0,0,2.916.825q10.4-.011,20.792,0h.7l.433,2.237h-.685q-7.589,0-15.178,0c-.818,0-1.077.21-1.228.974l-1.817,0" transform="translate(-21.997 -243.113)" fill="#d2dbf9"/>
          <path id="Trazado_257967" data-name="Trazado 257967" d="M73.23,45.028c-.246.007-.493.021-.739.021H23.837c0-1.992-.087-3.925.03-5.846a2.827,2.827,0,0,1,2.693-2.487c2.522-.1,5.051-.027,7.607-.027V38.9c-.378,0-.724-.02-1.068,0a.951.951,0,0,0-.947.945.925.925,0,0,0,.977.9.685.685,0,0,0,.123,0,1.775,1.775,0,0,1,1.831.821,3.376,3.376,0,0,0,5.482-.335.878.878,0,0,1,.937-.492,5.1,5.1,0,0,0,.8,0,.88.88,0,0,0,.9-.842.9.9,0,0,0-.823-.981,10.615,10.615,0,0,0-1.192-.009v-2.2H57.681V38.9c-.328,0-.632-.01-.935,0-.667.026-1.063.392-1.05.958.012.536.4.871,1.039.892a2.616,2.616,0,0,0,.37,0,1.287,1.287,0,0,1,1.356.64,3.4,3.4,0,0,0,5.643-.158.872.872,0,0,1,.936-.486,4.521,4.521,0,0,0,.8,0,.848.848,0,0,0,.881-.848.882.882,0,0,0-.819-.978,10.554,10.554,0,0,0-1.152-.008V36.69h7.006a4.671,4.671,0,0,1,1.486,3.857c-.044,1.492-.012,2.987-.014,4.481" transform="translate(-21.917 -30.729)" fill="#b55a72"/>
          <path id="Trazado_257968" data-name="Trazado 257968" d="M203.291,226.2a13.333,13.333,0,0,1-8.367-.085,14.4,14.4,0,0,1,2.289-27.976,13.347,13.347,0,0,1,6.214.475,3.254,3.254,0,0,0,.379.29,15.356,15.356,0,0,1,1.908,25.711c-.692.528-1.423,1.006-2.136,1.507l0-.006-.284.085m-3.952-25.972a12.175,12.175,0,1,0,12.136,12.183,12.175,12.175,0,0,0-12.136-12.183" transform="translate(-156.425 -165.433)" fill="#b0c0d2"/>
          <path id="Trazado_257969" data-name="Trazado 257969" d="M73.3,100.961c-.226.008-.452.022-.677.022H23.884V98.79c.163-.011.338-.035.513-.035q24.264,0,48.529,0c.123,0,.246.013.369.02q0,1.093,0,2.187" transform="translate(-21.981 -82.575)" fill="#b55a72"/>
          <path id="Trazado_257970" data-name="Trazado 257970" d="M297.443,229.34c.713-.5,1.444-.979,2.136-1.507a14.889,14.889,0,0,0,5.868-9.7,15.3,15.3,0,0,0-7.777-16.011,3.3,3.3,0,0,1-.379-.289,13.439,13.439,0,0,1,6.59,4.141,14.415,14.415,0,0,1-5.728,23.167c-.229.086-.473.133-.709.2" transform="translate(-250.289 -168.651)" fill="#727997"/>
          <path id="Trazado_257971" data-name="Trazado 257971" d="M323.4,136.375q0-6.362.008-12.724h1.858v14.041l-1.866-1.317" transform="translate(-272.094 -103.365)" fill="#d0d9f3"/>
          <path id="Trazado_257972" data-name="Trazado 257972" d="M246.247,12.282a1.577,1.577,0,0,1,2.337,1.364q.075,2.615,0,5.233a1.572,1.572,0,0,1-2.329,1.363,12.843,12.843,0,0,0,.478-2.113,31.912,31.912,0,0,0,0-3.865,10.933,10.933,0,0,0-.486-1.981" transform="translate(-207.665 -10.223)" fill="#d0d9f7"/>
          <path id="Trazado_257973" data-name="Trazado 257973" d="M103.243,12.294a1.555,1.555,0,0,1,2.374,1.325c.045,1.741.042,3.486,0,5.227a1.559,1.559,0,0,1-2.26,1.412,6.193,6.193,0,0,0,.37-1.408c.045-1.742.051-3.487-.005-5.229a4.575,4.575,0,0,0-.482-1.328" transform="translate(-88.25 -10.202)" fill="#d1daf8"/>
          <path id="Trazado_257974" data-name="Trazado 257974" d="M315.975,45.127c0-1.494-.03-2.988.014-4.481a4.671,4.671,0,0,0-1.486-3.857,3.107,3.107,0,0,1,3.348,3.079c.029,1.681.006,3.363,0,5.045a1.059,1.059,0,0,1-.055.214Z" transform="translate(-264.662 -30.829)" fill="#a3314f"/>
          <path id="Trazado_257975" data-name="Trazado 257975" d="M241.628,13.154a10.934,10.934,0,0,1,.486,1.981,31.918,31.918,0,0,1,0,3.865,12.846,12.846,0,0,1-.478,2.113,1.357,1.357,0,0,1-.9-1.333q-.041-2.64,0-5.281a1.39,1.39,0,0,1,.895-1.346" transform="translate(-203.046 -11.095)" fill="#e1ebf2"/>
          <path id="Trazado_257976" data-name="Trazado 257976" d="M98.886,13.358a4.575,4.575,0,0,1,.482,1.328c.057,1.741.05,3.487.005,5.229A6.193,6.193,0,0,1,99,21.322a1.5,1.5,0,0,1-.969-1.493q-.018-2.519,0-5.037a1.447,1.447,0,0,1,.851-1.434" transform="translate(-83.893 -11.265)" fill="#e8f2f9"/>
          <path id="Trazado_257977" data-name="Trazado 257977" d="M199.17,198.161h.923c1.024,0,1.024,0,1.027.692,0,1.176-.261,1.531-1.16,1.535-.266,0-.532-.021-.8-.033q0-1.1.007-2.193" transform="translate(-168.348 -165.584)" fill="#284087"/>
          <path id="Trazado_257978" data-name="Trazado 257978" d="M323.431,101.064q0-1.093,0-2.187h1.853v2.187Z" transform="translate(-272.116 -82.678)" fill="#a3314f"/>
          <path id="Trazado_257979" data-name="Trazado 257979" d="M197.381,198.169q0,1.1-.007,2.193c-.115-.1-.322-.192-.329-.3a14.035,14.035,0,0,1,0-1.649c.005-.088.219-.165.336-.247" transform="translate(-166.559 -165.591)" fill="#294189"/>
          <path id="Trazado_257980" data-name="Trazado 257980" d="M296.47,368.639l.284-.084-.284.084" transform="translate(-249.603 -307.872)" fill="#1884e7"/>
          <path id="Trazado_257981" data-name="Trazado 257981" d="M291.185,140.042c0,.247,0,.493,0,.74a1.946,1.946,0,0,1-2.2,2.192c-.637,0-1.276.018-1.912-.015a1.882,1.882,0,0,1-1.823-1.88c-.019-.7-.015-1.4,0-2.1a1.926,1.926,0,0,1,1.959-1.951c.658-.016,1.316-.012,1.974,0a1.925,1.925,0,0,1,2,2.025c0,.329,0,.658,0,.987m-3.726-1.133c-.12.085-.337.164-.343.256a14.043,14.043,0,0,0,0,1.662c.006.093.229.172.351.257h1.813v-2.175Z" transform="translate(-240.224 -114.53)" fill="#030303"/>
          <path id="Trazado_257982" data-name="Trazado 257982" d="M92.723,139.957c0,.37.011.741,0,1.11a1.855,1.855,0,0,1-1.792,1.839c-.779.037-1.564.038-2.343,0a1.865,1.865,0,0,1-1.8-1.9q-.021-1.048,0-2.1a1.911,1.911,0,0,1,1.858-1.922c.739-.032,1.482-.032,2.22,0a1.908,1.908,0,0,1,1.855,1.922c.009.349,0,.7,0,1.049m-3.72-1.1c-.12.1-.337.193-.344.3a11.137,11.137,0,0,0,0,1.569c.008.109.229.2.353.3h1.811v-2.173Z" transform="translate(-74.502 -114.48)" fill="#030303"/>
          <path id="Trazado_257983" data-name="Trazado 257983" d="M92.73,189.673c0,.329.005.658,0,.987a1.909,1.909,0,0,1-1.925,1.976c-.7.025-1.4.026-2.1,0a1.915,1.915,0,0,1-1.912-1.992c-.009-.678-.013-1.357,0-2.036a1.882,1.882,0,0,1,1.865-1.9c.719-.027,1.44-.023,2.159,0a1.886,1.886,0,0,1,1.91,1.981c.005.329,0,.658,0,.987m-3.71-1.074c-.124.084-.348.162-.354.254a14.177,14.177,0,0,0,0,1.66c0,.087.223.162.342.242h1.827V188.6Z" transform="translate(-74.507 -156.004)" fill="#030304"/>
          <path id="Trazado_257984" data-name="Trazado 257984" d="M142.213,239.314c0,.37.015.741,0,1.11a1.889,1.889,0,0,1-1.859,1.848c-.719.024-1.44.02-2.159,0a1.907,1.907,0,0,1-1.906-1.812,19.341,19.341,0,0,1,0-2.343,1.878,1.878,0,0,1,1.867-1.773c.7-.022,1.4-.019,2.1-.005a1.883,1.883,0,0,1,1.963,1.987c.008.329,0,.658,0,.987h0m-3.738-1.1c-.117.09-.33.175-.336.272a13.786,13.786,0,0,0,0,1.641c.006.1.216.182.331.273H140.3v-2.185Z" transform="translate(-115.814 -197.457)" fill="#030304"/>
          <path id="Trazado_257985" data-name="Trazado 257985" d="M238.633,142.927c-.391,0-.783.023-1.171,0a1.858,1.858,0,0,1-1.762-1.865q-.027-1.079,0-2.159a1.9,1.9,0,0,1,1.874-1.9c.719-.027,1.44-.025,2.159,0a1.925,1.925,0,0,1,1.9,1.948c.016.658.011,1.316,0,1.974a1.915,1.915,0,0,1-1.952,2.013c-.349.014-.7,0-1.049,0v-.01m-.816-1.871h1.923V138.87h-1.933a2.236,2.236,0,0,0,.01,2.186" transform="translate(-198.846 -114.496)" fill="#030304"/>
          <path id="Trazado_257986" data-name="Trazado 257986" d="M188.981,142.947c-.411,0-.824.026-1.233-.005a1.808,1.808,0,0,1-1.7-1.658,18.948,18.948,0,0,1-.006-2.525,1.867,1.867,0,0,1,1.9-1.736c.678-.019,1.357-.015,2.036,0a1.93,1.93,0,0,1,1.982,1.932c.029.657.019,1.316,0,1.973a1.923,1.923,0,0,1-2,2.036c-.329.011-.658,0-.987,0v-.017m-.8-1.869c2.455-.021,1.873.41,1.955-1.712,0-.02.009-.049,0-.06-.141-.149-.275-.409-.431-.423a14.193,14.193,0,0,0-1.533.011c-.12.116-.334.224-.344.349a9.779,9.779,0,0,0,0,1.518c.009.114.23.211.354.316" transform="translate(-157.36 -114.52)" fill="#030304"/>
          <path id="Trazado_257987" data-name="Trazado 257987" d="M142.264,189.717c0,.329.008.658,0,.987a1.9,1.9,0,0,1-1.941,1.959c-.678.022-1.358.021-2.035,0a1.931,1.931,0,0,1-1.964-1.951q-.03-1.017,0-2.035a1.914,1.914,0,0,1,1.956-1.948c.658-.016,1.316-.012,1.974,0a1.889,1.889,0,0,1,2.011,2c.007.329,0,.658,0,.987m-3.738-1.1c-.123.086-.348.166-.354.26a12.242,12.242,0,0,0,0,1.6c.007.1.223.193.343.289l1.828.081v-2.227Z" transform="translate(-115.859 -156.029)" fill="#030404"/>
          <path id="Trazado_257988" data-name="Trazado 257988" d="M37.247,239.279c0-.37-.013-.741,0-1.11a1.855,1.855,0,0,1,1.806-1.822c.739-.028,1.481-.024,2.221,0a1.9,1.9,0,0,1,1.9,1.869c.029.718.027,1.44,0,2.158a1.924,1.924,0,0,1-1.946,1.9c-.658.015-1.316.009-1.974,0a1.913,1.913,0,0,1-2.015-2.008c-.006-.329,0-.658,0-.987Zm1.878,1.029,2.169.152v-2.248H39.368c-.088.123-.248.244-.252.371-.021.574,0,1.15.009,1.726" transform="translate(-33.135 -197.455)" fill="#030303"/>
          <path id="Trazado_257989" data-name="Trazado 257989" d="M37.237,139.959c0-.35-.008-.7,0-1.049a1.9,1.9,0,0,1,1.852-1.921c.739-.031,1.481-.031,2.221,0a1.909,1.909,0,0,1,1.86,1.861c.032.739.032,1.481,0,2.22a1.879,1.879,0,0,1-1.862,1.844c-.718.03-1.44.03-2.159.005a1.875,1.875,0,0,1-1.912-1.974c-.007-.329,0-.658,0-.987m2.129,1.084h1.92v-2.177a2.925,2.925,0,0,0-.338-.038c-.531.006-1.062.019-1.593.029a2.205,2.205,0,0,0,.011,2.185" transform="translate(-33.129 -114.484)" fill="#030304"/>
          <path id="Trazado_257990" data-name="Trazado 257990" d="M37.24,189.651c0-.329-.007-.658,0-.987a1.881,1.881,0,0,1,1.945-1.942q1.017-.024,2.036,0a1.91,1.91,0,0,1,1.957,1.945q.027,1.017,0,2.035a1.916,1.916,0,0,1-1.9,1.95c-.718.031-1.441.032-2.159,0a1.9,1.9,0,0,1-1.881-1.954c-.009-.349,0-.7,0-1.049m2.131-1.04c-.073.022-.21.044-.21.067q-.021,1.021-.007,2.041c0,.021.132.04.2.059.533.015,1.068.054,1.6.027a.52.52,0,0,0,.36-.355c.039-.588.017-1.181.017-1.84Z" transform="translate(-33.132 -156.022)" fill="#030304"/>
          <path id="Trazado_257991" data-name="Trazado 257991" d="M89.812,236.378c.37,0,.741-.016,1.11,0a1.871,1.871,0,0,1,1.8,1.838q.032,1.109,0,2.22a1.9,1.9,0,0,1-1.844,1.865c-.739.028-1.481.026-2.221,0a1.912,1.912,0,0,1-1.864-1.913q-.022-1.048,0-2.1a1.894,1.894,0,0,1,1.912-1.919c.37-.012.74,0,1.111,0v0m-1.152,3.966.1.1.24-.008H90.82v-2.18H89.009c-.328-.078-.378.1-.371.373.016.573.016,1.145.022,1.718" transform="translate(-74.502 -197.491)" fill="#020202"/>
          <path id="Trazado_257992" data-name="Trazado 257992" d="M142.255,140.07c.176,2.335-.736,3.067-2.9,2.916-.389-.027-.782.006-1.172-.015a1.906,1.906,0,0,1-1.871-1.9c-.025-.7-.024-1.4,0-2.1a1.934,1.934,0,0,1,1.984-1.932c.637-.013,1.275-.009,1.912,0a1.927,1.927,0,0,1,2.044,2.046c.006.329,0,.658,0,.987m-3.75-1.157c-.114.069-.324.135-.327.209-.027.586-.027,1.174,0,1.759,0,.076.218.141.334.212h1.814v-2.18H138.5" transform="translate(-115.85 -114.537)" fill="#030304"/>
          <path id="Trazado_257993" data-name="Trazado 257993" d="M210.665,211.618a12.175,12.175,0,1,1-12.217,12.115,12.143,12.143,0,0,1,12.217-12.115m2.764,22.077.013-.005c.159-.04.321-.07.475-.122a10.315,10.315,0,0,0,5.552-15.105,9.783,9.783,0,0,0-6.194-4.624,8.61,8.61,0,0,0-3.9-.3,10.33,10.33,0,0,0-8.706,7.524,10.225,10.225,0,0,0,3.784,10.971,9.791,9.791,0,0,0,8.688,1.724l.288-.059" transform="translate(-167.751 -176.822)" fill="#020304"/>
          <path id="Trazado_257994" data-name="Trazado 257994" d="M298.707,148.467h1.822v2.175h-1.813q0-1.088-.009-2.175" transform="translate(-251.471 -124.088)" fill="#294189"/>
          <path id="Trazado_257995" data-name="Trazado 257995" d="M296.848,148.467q0,1.088.009,2.175c-.123-.085-.346-.165-.351-.257a14.03,14.03,0,0,1,0-1.662c.005-.092.223-.171.343-.256" transform="translate(-249.612 -124.088)" fill="#3a579e"/>
          <path id="Trazado_257996" data-name="Trazado 257996" d="M100.26,148.476h1.82v2.173h-1.811l-.009-2.173" transform="translate(-85.759 -124.095)" fill="#294189"/>
          <path id="Trazado_257997" data-name="Trazado 257997" d="M98.379,148.476l.009,2.173c-.123-.1-.345-.2-.353-.3a11.135,11.135,0,0,1,0-1.569c.007-.107.224-.2.344-.3" transform="translate(-83.877 -124.095)" fill="#3a579e"/>
          <path id="Trazado_257998" data-name="Trazado 257998" d="M100.261,198.275h1.814v2.156h-1.827q.006-1.078.013-2.156" transform="translate(-85.749 -165.68)" fill="#294088"/>
          <path id="Trazado_257999" data-name="Trazado 257999" d="M98.409,198.275l-.013,2.156c-.119-.08-.337-.155-.342-.242a14.181,14.181,0,0,1,0-1.66c.005-.091.23-.169.354-.254" transform="translate(-83.897 -165.68)" fill="#3a579e"/>
          <path id="Trazado_258000" data-name="Trazado 258000" d="M149.7,247.772h1.821v2.185H149.7q0-1.092,0-2.185" transform="translate(-127.042 -207.012)" fill="#294189"/>
          <path id="Trazado_258001" data-name="Trazado 258001" d="M147.9,247.772q0,1.092,0,2.185c-.116-.091-.326-.176-.331-.273a13.782,13.782,0,0,1,0-1.641c.006-.1.219-.181.336-.272" transform="translate(-125.241 -207.012)" fill="#3a579e"/>
          <path id="Trazado_258002" data-name="Trazado 258002" d="M248.54,148.436h1.933v2.186H248.55q-.005-1.093-.01-2.186" transform="translate(-209.58 -124.062)" fill="#294189"/>
          <path id="Trazado_258003" data-name="Trazado 258003" d="M247.122,148.436q.005,1.093.01,2.186a2.236,2.236,0,0,1-.01-2.186" transform="translate(-208.161 -124.062)" fill="#3a579e"/>
          <path id="Trazado_258004" data-name="Trazado 258004" d="M199.109,148.288a14.154,14.154,0,0,1,1.533-.011c.155.014.289.273.431.422.01.011,0,.04,0,.06-.081,2.121.5,1.69-1.955,1.712q-.005-1.091-.011-2.183" transform="translate(-168.302 -123.913)" fill="#284087"/>
          <path id="Trazado_258005" data-name="Trazado 258005" d="M197.221,148.443q.005,1.091.011,2.183c-.124-.1-.345-.2-.354-.316a9.778,9.778,0,0,1,0-1.518c.01-.125.224-.233.344-.349" transform="translate(-166.414 -124.068)" fill="#3a579e"/>
          <path id="Trazado_258006" data-name="Trazado 258006" d="M149.7,198.258h1.817v2.227l-1.828-.081q.006-1.074.011-2.147" transform="translate(-127.034 -165.666)" fill="#294088"/>
          <path id="Trazado_258007" data-name="Trazado 258007" d="M147.834,198.258q-.006,1.073-.011,2.147c-.12-.1-.336-.185-.343-.289a12.239,12.239,0,0,1,0-1.6c.006-.094.23-.174.354-.26" transform="translate(-125.168 -165.666)" fill="#3a579e"/>
          <path id="Trazado_258008" data-name="Trazado 258008" d="M48.905,247.754h1.925V250l-2.169-.152c.082-.155.226-.307.234-.466.029-.542.01-1.087.009-1.631" transform="translate(-42.672 -206.997)" fill="#294189"/>
          <path id="Trazado_258009" data-name="Trazado 258009" d="M48.817,247.754c0,.544.02,1.089-.009,1.631-.008.159-.152.311-.234.466-.007-.575-.03-1.151-.009-1.726,0-.127.164-.247.252-.371" transform="translate(-42.584 -206.997)" fill="#3a579e"/>
          <path id="Trazado_258010" data-name="Trazado 258010" d="M50.093,148.291c.531-.01,1.062-.023,1.593-.029a3,3,0,0,1,.338.038v2.177H50.1q-.005-1.093-.011-2.185" transform="translate(-43.867 -123.916)" fill="#294088"/>
          <path id="Trazado_258011" data-name="Trazado 258011" d="M48.653,148.438q.005,1.093.011,2.185a2.205,2.205,0,0,1-.011-2.185" transform="translate(-42.427 -124.064)" fill="#3a579e"/>
          <path id="Trazado_258012" data-name="Trazado 258012" d="M50.1,198.239h1.961c0,.659.022,1.251-.017,1.84a.519.519,0,0,1-.36.355c-.531.027-1.066-.012-1.6-.027l.015-2.168" transform="translate(-43.857 -165.65)" fill="#294088"/>
          <path id="Trazado_258013" data-name="Trazado 258013" d="M49.044,198.239l-.015,2.168c-.071-.02-.2-.039-.2-.059q-.013-1.02.007-2.041c0-.024.137-.045.21-.067" transform="translate(-42.805 -165.65)" fill="#3a579e"/>
          <path id="Trazado_258014" data-name="Trazado 258014" d="M100.275,247.788h1.811v2.18H100.27q0-1.09,0-2.18" transform="translate(-85.767 -207.026)" fill="#294189"/>
          <path id="Trazado_258015" data-name="Trazado 258015" d="M98.417,247.7q0,1.09,0,2.18l-.24.008-.1-.1c-.006-.573-.006-1.146-.022-1.718-.007-.269.043-.451.371-.373" transform="translate(-83.91 -206.933)" fill="#3a579e"/>
          <path id="Trazado_258016" data-name="Trazado 258016" d="M98.183,260.464l.1.1-.1-.1" transform="translate(-84.024 -217.611)" fill="#294189"/>
          <path id="Trazado_258017" data-name="Trazado 258017" d="M149.688,148.451h1.823v2.18H149.7q0-1.09-.009-2.18" transform="translate(-127.034 -124.074)" fill="#294189"/>
          <path id="Trazado_258018" data-name="Trazado 258018" d="M147.931,148.451q0,1.09.009,2.18c-.117-.07-.331-.136-.334-.212-.029-.586-.029-1.174,0-1.759,0-.075.213-.14.327-.209" transform="translate(-125.277 -124.074)" fill="#3a579e"/>
          <path id="Trazado_258019" data-name="Trazado 258019" d="M222.537,243.011a9.792,9.792,0,0,1-8.688-1.724,10.224,10.224,0,0,1-3.784-10.971,10.33,10.33,0,0,1,8.706-7.524,8.613,8.613,0,0,1,3.9.3,6.913,6.913,0,0,0,.571.447A10.845,10.845,0,0,1,227.2,227.9a10.992,10.992,0,0,1,1.154,6.481,11.2,11.2,0,0,1-4.091,7.395c-.471.4-.952.78-1.428,1.17l-.013.005-.288.06m-1.59-15.088c0-.6,0-1.193,0-1.789,0-.78-.331-1.182-.941-1.169-.578.013-.908.419-.911,1.152-.006,1.234.013,2.468-.017,3.7a.748.748,0,0,1-.333.534,2.976,2.976,0,1,0,3.967,3.971.772.772,0,0,1,.537-.334c.635-.043,1.275.006,1.911-.028a.923.923,0,0,0,.908-.971.9.9,0,0,0-.941-.864c-.6-.02-1.194-.025-1.789,0a.621.621,0,0,1-.664-.387c-.2-.37-.45-.845-.794-.983-1.015-.407-1-1.182-.935-2.032.02-.266,0-.534,0-.8" transform="translate(-177.146 -186.078)" fill="#e9f3fa"/>
          <path id="Trazado_258020" data-name="Trazado 258020" d="M288.5,244.936c.476-.39.957-.774,1.428-1.17a11.2,11.2,0,0,0,4.091-7.395,10.99,10.99,0,0,0-1.154-6.481,10.845,10.845,0,0,0-3.961-4.359,6.945,6.945,0,0,1-.571-.447,9.783,9.783,0,0,1,6.194,4.624,10.315,10.315,0,0,1-5.552,15.105c-.155.052-.317.082-.475.122" transform="translate(-242.81 -188.068)" fill="#d0d9f7"/>
          <path id="Trazado_258021" data-name="Trazado 258021" d="M287.521,345.518l.288-.059-.288.059" transform="translate(-242.131 -288.586)" fill="#d0d9f7"/>
          <path id="Trazado_258022" data-name="Trazado 258022" d="M258.213,239.375c0,.267.017.536,0,.8-.064.85-.079,1.625.935,2.032.345.138.593.613.794.983a.621.621,0,0,0,.664.387c.6-.025,1.193-.02,1.789,0a.9.9,0,0,1,.941.864.923.923,0,0,1-.908.971c-.636.034-1.277-.015-1.911.028a.772.772,0,0,0-.537.334,2.974,2.974,0,1,1-3.967-3.971.748.748,0,0,0,.333-.534c.029-1.233.011-2.467.017-3.7,0-.733.333-1.139.911-1.152.611-.013.936.389.941,1.169,0,.6,0,1.193,0,1.789m-.9,6.217a1.123,1.123,0,0,0,1.108-1.089,1.165,1.165,0,0,0-1.139-1.138,1.123,1.123,0,0,0-1.088,1.17,1.073,1.073,0,0,0,1.119,1.057" transform="translate(-214.412 -197.53)" fill="#030303"/>
          <path id="Trazado_258023" data-name="Trazado 258023" d="M266.748,280.769a1.073,1.073,0,0,1-1.119-1.057,1.123,1.123,0,0,1,1.088-1.17,1.165,1.165,0,0,1,1.139,1.138,1.123,1.123,0,0,1-1.108,1.089" transform="translate(-223.85 -232.706)" fill="#f7d63e"/>
        </g>
      </g>
      <g id="Grupo_166767" data-name="Grupo 166767" transform="translate(0 32.91)">
        <g id="Grupo_166768" data-name="Grupo 166768" transform="translate(0 0)">
          <path id="Trazado_258025" data-name="Trazado 258025" d="M0,53.582a.764.764,0,0,0,.088-.151,2.685,2.685,0,0,1,2.219-1.976,9.75,9.75,0,0,1-.074-1.561A2.547,2.547,0,0,1,3.6,47.932a.433.433,0,0,0,.207-.291c.013-1.552.009-3.1.008-4.656a1.2,1.2,0,0,0-.023-.152c-.643.127-1.277.25-1.909.377-.479.1-.684-.03-.807-.514-.163-.637-.328-1.273-.484-1.912-.117-.479.049-.721.537-.806a2.755,2.755,0,0,1,.564-.093c.477.019.654-.23.788-.658.535-1.7,1.115-3.38,1.669-5.071a.977.977,0,0,1,.484-.593q5.634-3.12,11.258-6.257a.823.823,0,0,1,.892,0q5.595,3.123,11.2,6.227a1.079,1.079,0,0,1,.54.66c.582,1.782,1.185,3.557,1.77,5.337a.35.35,0,0,0,.34.292c.337.035.672.1,1,.165a.506.506,0,0,1,.451.646c-.164.745-.35,1.486-.549,2.223a.544.544,0,0,1-.713.364c-.561-.113-1.122-.23-1.684-.342-.09-.018-.184-.021-.289-.032v7.529a5.448,5.448,0,0,1,.974.009,2.124,2.124,0,0,1,1.737,2.134.46.46,0,0,0,.223.435,2.112,2.112,0,0,1,.706,2.529c-.031.078-.063.155-.1.253l.254.05v1.069H.348c-.116,0-.232-.013-.348-.02V55.751H.493L0,54.667V53.582m22.84,1.084.307-1.085a2.352,2.352,0,0,1,1.408-1.029c.21-.015.421-.025.631-.048.067-.007.162-.027.191-.073a2.519,2.519,0,0,1,1.39-1,3.546,3.546,0,0,1,.5-.013c.308.034.424-.181.471-.4a3.1,3.1,0,0,0,0-.694q0-.543,0-1.086V48.159q0-.543,0-1.086t0-1.083q0-.543,0-1.086t0-1.083q0-.543,0-1.086a1.972,1.972,0,0,0-.222-1.159L27.165,40.5l-.371-1.084-.35-1.09-.163-.44c-.19-.6-.375-1.192-.577-1.783a.474.474,0,0,0-.221-.207Q21,33.4,16.513,30.916a.44.44,0,0,0-.363,0Q11.659,33.4,7.18,35.9a.475.475,0,0,0-.222.206c-.2.591-.387,1.188-.578,1.784l-.163.44-.351,1.09L5.5,40.5,5.14,41.575a1.972,1.972,0,0,0-.222,1.159q0,.543,0,1.086t0,1.083v2.69a3.035,3.035,0,0,1,1.718.624l.773,1.024.228,1.092-.206,1.115.287.03a3.1,3.1,0,0,1,1.595,1.084l.449,1.019,0,1.085-.43,1.072H12.5V54.667q0-.543,0-1.086t0-1.084q0-.543,0-1.086t0-1.084V49.243q0-.542,0-1.084V47.066c-.191,0-.349.006-.507,0-.465-.021-.929-.047-1.394-.071-.36-.262-.23-.656-.273-1q0-.543,0-1.087c.037-.377-.081-.8.3-1.078.223-.007.445-.02.668-.02q5.035,0,10.07,0c.223,0,.445.013.668.02a3.745,3.745,0,0,1,.281.574,1.961,1.961,0,0,1,.021.5q0,.543,0,1.087c-.043.348.086.742-.273,1l-1.9.111v2.137q0,.543,0,1.086t0,1.084q0,.543,0,1.086t0,1.084q0,.543,0,1.086v1.082h2.918l-.238-1.083m-16.993.521a1.582,1.582,0,0,0,1.835.466A1.615,1.615,0,0,0,8.7,54.079a1.556,1.556,0,0,0-1.1-1.466,1.608,1.608,0,0,0-1.749,2.574M3.255,52.62a1.575,1.575,0,0,0-1.855.562,1.592,1.592,0,0,0,.079,1.994,1.6,1.6,0,0,0,1.833.486,1.622,1.622,0,0,0,1.033-1.6,1.55,1.55,0,0,0-1.09-1.444M5.422,48.8a1.62,1.62,0,1,0,.046,3.057,1.616,1.616,0,0,0,1.055-1.584,1.564,1.564,0,0,0-1.1-1.473m25.47-7.821c-.3-.053-.562-.119-.823-.138a.719.719,0,0,1-.681-.6c-.532-1.635-1.117-3.252-1.613-4.9a2.031,2.031,0,0,0-1.107-1.306c-1.827-.972-3.624-2-5.434-3.008q-2.352-1.308-4.708-2.609a.422.422,0,0,0-.342-.024c-.777.415-1.545.848-2.315,1.277q-4.2,2.338-8.408,4.671a.759.759,0,0,0-.388.465c-.6,1.835-1.219,3.665-1.825,5.5a.647.647,0,0,1-.572.515c-.292.034-.581.1-.91.152.073.3.153.569.2.847.036.207.153.231.32.2.467-.1.93-.211,1.4-.284a.373.373,0,0,0,.334-.311c.633-1.914,1.278-3.824,1.9-5.741a1.117,1.117,0,0,1,.576-.674c1.277-.7,2.545-1.409,3.817-2.115q2.813-1.561,5.625-3.123a.732.732,0,0,1,.808.013c.154.094.318.171.475.259q4.481,2.493,8.963,4.983a1.059,1.059,0,0,1,.534.633q.947,2.889,1.92,5.769c.035.1.121.248.208.27.514.126,1.034.228,1.556.317a.3.3,0,0,0,.256-.141c.093-.279.147-.57.226-.9M27.756,55.764v0c.913,0,1.827.008,2.74,0a1.055,1.055,0,0,0,1.056-.884,1.094,1.094,0,0,0-.653-1.188c-.547-.245-.6-.347-.455-.925a1.078,1.078,0,0,0-2.064-.614c-.166.415-.373.536-.75.438a1.1,1.1,0,0,0-1.465.737.545.545,0,0,1-.713.356,1.668,1.668,0,0,0-.56-.067,1.079,1.079,0,0,0,.157,2.149c.9.009,1.805,0,2.708,0M11.441,45.957h9.773V44.919H11.441ZM14.1,47.084l2.232,3.349,2.231-3.349ZM16.33,52.4,14.1,55.743h4.453L16.33,52.4m2.726-4.022a.717.717,0,0,0-.1.09c-.619.926-1.242,1.85-1.845,2.786a.439.439,0,0,0,.03.384c.576.891,1.17,1.77,1.756,2.655a1.218,1.218,0,0,1,.085.191l.078-.075Zm-5.452,6.1a1.674,1.674,0,0,0,.125-.137c.607-.909,1.21-1.821,1.824-2.725a.325.325,0,0,0-.024-.426c-.588-.87-1.167-1.747-1.751-2.62-.041-.062-.1-.115-.174-.206Z" transform="translate(0 -26.536)" fill="#020201"/>
          <path id="Trazado_258026" data-name="Trazado 258026" d="M0,429.439l.493,1.085H0v-1.085" transform="translate(0 -401.309)" fill="#f7f7f7"/>
          <path id="Trazado_258027" data-name="Trazado 258027" d="M283.448,17.8l8.162,4.539-.529.952-8.162-4.539.529-.953" transform="translate(-263.585 -17.797)" fill="#040404"/>
          <path id="Trazado_258028" data-name="Trazado 258028" d="M419.739,93.562l-.527.95-.873-.485.526-.95.874.485" transform="translate(-389.751 -87.933)" fill="#080808"/>
          <path id="Trazado_258029" data-name="Trazado 258029" d="M93.353,88.351c.19-.6.375-1.192.578-1.784a.475.475,0,0,1,.222-.206q4.482-2.495,8.971-4.977a.44.44,0,0,1,.363,0q4.49,2.48,8.969,4.98a.474.474,0,0,1,.221.207c.2.591.387,1.188.577,1.783-.179-.084-.357-.169-.536-.251a2.714,2.714,0,0,0-.855-.37c-.858-.048-1.72-.014-2.581-.012l-1.059,0-1.686,0-.39-1.078H110.2l.017-.082c-.4-.248-.815-.479-1.2-.749A1.616,1.616,0,0,0,108,85.537c-.817.017-1.635,0-2.453.008a1.832,1.832,0,0,0-.33.062c-.147-.084-.288-.179-.441-.251a3.3,3.3,0,0,0-3.385.251,1.823,1.823,0,0,0-.33-.062c-.8-.005-1.593.012-2.389-.009a1.771,1.771,0,0,0-1.137.3c-.369.264-.765.491-1.149.734.7.055,1.365.054,2.033.056s1.359.007,2.039.011l-.39,1.078-1.685,0-1.059,0c-.818,0-1.637-.019-2.454,0a1.944,1.944,0,0,0-.678.205c-.287.124-.56.281-.839.424m13.327-3.9.031-.064c-.472-.294-.94-.6-1.42-.875a1.013,1.013,0,0,0-.471-.133c-.776-.013-1.553.017-2.327-.013a2.321,2.321,0,0,0-1.665.44,8.826,8.826,0,0,1-.937.59l.033.056Z" transform="translate(-86.974 -77)" fill="#a3314f"/>
          <path id="Trazado_258030" data-name="Trazado 258030" d="M55,57.307c-.079.329-.133.621-.226.9a.3.3,0,0,1-.256.141c-.522-.088-1.042-.191-1.556-.317-.088-.021-.173-.165-.208-.27q-.969-2.881-1.92-5.769a1.059,1.059,0,0,0-.534-.634q-4.485-2.486-8.963-4.983c-.158-.088-.322-.165-.475-.259a.732.732,0,0,0-.808-.013q-2.808,1.569-5.625,3.123c-1.272.706-2.54,1.418-3.817,2.115a1.117,1.117,0,0,0-.576.674c-.626,1.917-1.271,3.827-1.9,5.741a.373.373,0,0,1-.334.311c-.47.073-.934.187-1.4.284-.166.034-.283.011-.32-.2-.049-.278-.13-.55-.2-.847.329-.056.618-.118.91-.152a.647.647,0,0,0,.572-.515c.606-1.834,1.221-3.664,1.825-5.5a.759.759,0,0,1,.388-.465Q33.779,48.349,37.978,46c.77-.428,1.538-.861,2.315-1.277a.422.422,0,0,1,.342.024q2.359,1.3,4.708,2.609c1.809,1.006,3.606,2.036,5.434,3.008a2.031,2.031,0,0,1,1.107,1.306c.5,1.645,1.081,3.263,1.613,4.9a.719.719,0,0,0,.681.6c.261.019.519.085.823.138" transform="translate(-24.108 -42.863)" fill="#344e5a"/>
          <path id="Trazado_258031" data-name="Trazado 258031" d="M94.3,237.87a1.972,1.972,0,0,1,.222,1.159H71.7a1.972,1.972,0,0,1,.222-1.159c.117,0,.234.011.35.011H93.947c.117,0,.234-.008.35-.011" transform="translate(-66.777 -222.831)" fill="#b55a72"/>
          <path id="Trazado_258032" data-name="Trazado 258032" d="M71.94,254.824H94.764q0,.543,0,1.087l-5.712,0c-.223-.007-.445-.02-.668-.02q-5.035,0-10.07,0c-.223,0-.445.013-.668.02l-5.712,0q0-.543,0-1.087" transform="translate(-67.022 -238.626)" fill="#a3314f"/>
          <path id="Trazado_258033" data-name="Trazado 258033" d="M97.6,223.076c-.117,0-.233.012-.35.012H75.569c-.117,0-.233-.007-.35-.012L75.574,222q2.724,0,5.448,0c1.168,0,2.336-.008,3.5-.012a8.373,8.373,0,0,0,1.009.452,3.266,3.266,0,0,0,2.76-.449l8.948.008.355,1.075" transform="translate(-70.079 -208.037)" fill="#a3314f"/>
          <path id="Trazado_258034" data-name="Trazado 258034" d="M354.186,386.192c-.9,0-1.805.007-2.708,0a1.079,1.079,0,0,1-.157-2.149,1.667,1.667,0,0,1,.56.067.545.545,0,0,0,.713-.356,1.1,1.1,0,0,1,1.465-.737c.376.1.584-.023.75-.438a1.078,1.078,0,0,1,2.064.614c-.142.579-.092.681.455.925a1.094,1.094,0,0,1,.653,1.188,1.055,1.055,0,0,1-1.056.884c-.913.011-1.827,0-2.74,0Z" transform="translate(-326.429 -356.964)" fill="#87bd3f"/>
          <rect id="Rectángulo_52715" data-name="Rectángulo 52715" width="9.773" height="1.038" transform="translate(11.441 18.383)" fill="#344d5a"/>
          <path id="Trazado_258035" data-name="Trazado 258035" d="M89.372,207.317c-1.168,0-2.336.011-3.5.012q-2.724,0-5.448,0l.37-1.084,7.6,0,.979,1.076" transform="translate(-74.923 -193.363)" fill="#b55a72"/>
          <path id="Trazado_258036" data-name="Trazado 258036" d="M275.525,207.33l-8.948-.008.975-1.078,7.6,0,.371,1.084" transform="translate(-248.36 -193.365)" fill="#b55a72"/>
          <path id="Trazado_258037" data-name="Trazado 258037" d="M302.6,317.244q0,.543,0,1.086h-7.583v-1.053l1.9-.111a1.7,1.7,0,0,0,.354.076q2.665.007,5.329,0" transform="translate(-274.856 -296.707)" fill="#a3314f"/>
          <path id="Trazado_258038" data-name="Trazado 258038" d="M302.6,350.064q0,.543,0,1.086h-7.582q0-.543,0-1.086H302.6" transform="translate(-274.858 -327.358)" fill="#a3314f"/>
          <path id="Trazado_258039" data-name="Trazado 258039" d="M302.6,335.3h-7.582q0-.542,0-1.084H302.6q0,.541,0,1.083" transform="translate(-274.857 -312.589)" fill="#b55a72"/>
          <path id="Trazado_258040" data-name="Trazado 258040" d="M295.017,365.957H302.6a3.108,3.108,0,0,1,0,.694c-.047.217-.163.432-.471.4a3.565,3.565,0,0,0-.5.013c-.148-.007-.3-.02-.443-.02h-6.163q0-.542,0-1.084" transform="translate(-274.856 -342.165)" fill="#b55a72"/>
          <path id="Trazado_258041" data-name="Trazado 258041" d="M93.443,191.418l-7.6,0,.351-1.09,4.122,0,1.084,0,1.667,0,.378,1.085" transform="translate(-79.974 -178.541)" fill="#a3314f"/>
          <path id="Trazado_258042" data-name="Trazado 258042" d="M288.45,191.421l-7.6,0,.377-1.085,1.668,0,1.084,0,4.122,0,.35,1.09" transform="translate(-261.656 -178.541)" fill="#a3314f"/>
          <path id="Trazado_258043" data-name="Trazado 258043" d="M77.641,317.165c.464.024.929.05,1.393.071.158.007.316,0,.507,0v1.093q-2.766,0-5.532,0a1.935,1.935,0,0,0-.332.057,3.036,3.036,0,0,0-1.718-.625v-.521q2.664,0,5.329,0a1.7,1.7,0,0,0,.353-.076" transform="translate(-67.042 -296.707)" fill="#a3314f"/>
          <path id="Trazado_258044" data-name="Trazado 258044" d="M206.3,318.479h4.464l-2.231,3.349-2.233-3.349" transform="translate(-192.207 -297.931)" fill="#a3314f"/>
          <path id="Trazado_258045" data-name="Trazado 258045" d="M208.619,396.226l2.227,3.346h-4.453l2.226-3.346" transform="translate(-192.289 -370.365)" fill="#a3314f"/>
          <path id="Trazado_258046" data-name="Trazado 258046" d="M251.843,337.369V343.4l-.078.075a1.231,1.231,0,0,0-.085-.191c-.586-.884-1.18-1.764-1.756-2.655a.439.439,0,0,1-.03-.384c.6-.936,1.226-1.86,1.845-2.786a.724.724,0,0,1,.1-.09" transform="translate(-232.787 -315.53)" fill="#a3314f"/>
          <path id="Trazado_258047" data-name="Trazado 258047" d="M199.081,343.331v-6.113c.077.091.132.144.174.206.584.873,1.163,1.75,1.751,2.62a.325.325,0,0,1,.024.426c-.614.9-1.216,1.816-1.824,2.725a1.667,1.667,0,0,1-.125.137" transform="translate(-185.476 -315.39)" fill="#a3314f"/>
          <path id="Trazado_258048" data-name="Trazado 258048" d="M295.017,381.814q3.082,0,6.163,0c.148,0,.3.013.443.02a2.519,2.519,0,0,0-1.39,1c-.029.047-.124.066-.191.073-.21.022-.421.033-.631.048a2.195,2.195,0,0,0-.334-.052q-2.03-.005-4.061,0,0-.543,0-1.086" transform="translate(-274.856 -356.938)" fill="#a3314f"/>
          <path id="Trazado_258049" data-name="Trazado 258049" d="M77.633,303.474a1.7,1.7,0,0,1-.353.076q-2.664.007-5.329,0V302.47h5.41c.043.348-.087.742.273,1" transform="translate(-67.033 -283.016)" fill="#b55a72"/>
          <path id="Trazado_258050" data-name="Trazado 258050" d="M328.5,303.553q-2.665,0-5.329,0a1.7,1.7,0,0,1-.354-.076c.359-.262.231-.656.273-1h5.41q0,.541,0,1.083" transform="translate(-300.756 -283.016)" fill="#b55a72"/>
          <path id="Trazado_258051" data-name="Trazado 258051" d="M71.938,270.723l5.711,0c-.383.28-.265.7-.3,1.078H71.94q0-.541,0-1.083" transform="translate(-67.022 -253.439)" fill="#b55a72"/>
          <path id="Trazado_258052" data-name="Trazado 258052" d="M322.414,270.728l5.712,0q0,.542,0,1.083h-5.408a1.959,1.959,0,0,0-.021-.5,3.748,3.748,0,0,0-.281-.574" transform="translate(-300.381 -253.439)" fill="#b55a72"/>
          <path id="Trazado_258053" data-name="Trazado 258053" d="M97.105,334.265a1.938,1.938,0,0,1,.332-.057q2.766-.005,5.532,0,0,.542,0,1.084H97.878l-.773-1.024" transform="translate(-90.469 -312.583)" fill="#b55a72"/>
          <path id="Trazado_258054" data-name="Trazado 258054" d="M326.816,286.568h5.408q0,.543,0,1.086h-5.41q0-.544,0-1.087" transform="translate(-304.482 -268.201)" fill="#a3314f"/>
          <path id="Trazado_258055" data-name="Trazado 258055" d="M71.951,286.567h5.408q0,.543,0,1.087H71.95v-1.086" transform="translate(-67.033 -268.2)" fill="#a3314f"/>
          <path id="Trazado_258056" data-name="Trazado 258056" d="M113.806,365.957q0,.542,0,1.084c-1.474,0-2.948,0-4.422,0a2.112,2.112,0,0,0-.361.063l-.287-.03.206-1.115,4.863-.005" transform="translate(-101.306 -342.165)" fill="#b55a72"/>
          <path id="Trazado_258057" data-name="Trazado 258057" d="M113.5,351.143l-4.863.005-.228-1.092H113.5q0,.543,0,1.086" transform="translate(-101.003 -327.35)" fill="#a3314f"/>
          <path id="Trazado_258058" data-name="Trazado 258058" d="M112.932,381.881a2.112,2.112,0,0,1,.361-.063c1.474,0,2.948,0,4.422,0q0,.543,0,1.086c-.953,0-1.906,0-2.859,0a1.8,1.8,0,0,0-.329.062,3.1,3.1,0,0,0-1.595-1.084" transform="translate(-105.215 -356.939)" fill="#a3314f"/>
          <path id="Trazado_258059" data-name="Trazado 258059" d="M48.127,344.782a1.61,1.61,0,0,1,1.779-2.546,2.41,2.41,0,0,1-.371,1.693,1.88,1.88,0,0,1-1.408.853" transform="translate(-44.485 -319.972)" fill="#ffb500"/>
          <path id="Trazado_258060" data-name="Trazado 258060" d="M23.422,399.489a1.55,1.55,0,0,1,1.09,1.444,1.622,1.622,0,0,1-1.033,1.6,1.6,1.6,0,0,1-1.833-.486,1.988,1.988,0,0,0,1.631-1.373,5.261,5.261,0,0,0,.144-1.182" transform="translate(-20.167 -373.405)" fill="#ffb500"/>
          <path id="Trazado_258061" data-name="Trazado 258061" d="M80.028,400.617a1.608,1.608,0,0,1,1.749-2.574c0,.17-.014.34,0,.508a2.1,2.1,0,0,1-1.746,2.065" transform="translate(-74.181 -371.966)" fill="#ffb500"/>
          <path id="Trazado_258062" data-name="Trazado 258062" d="M53.3,346.144a1.881,1.881,0,0,0,1.408-.853,2.41,2.41,0,0,0,.371-1.693,1.563,1.563,0,0,1,1.1,1.473,1.616,1.616,0,0,1-1.055,1.584,1.59,1.59,0,0,1-1.825-.511" transform="translate(-49.657 -321.334)" fill="#ffb500"/>
          <path id="Trazado_258063" data-name="Trazado 258063" d="M18.076,398.026a5.261,5.261,0,0,1-.144,1.182,1.988,1.988,0,0,1-1.631,1.373,1.592,1.592,0,0,1-.079-1.994,1.576,1.576,0,0,1,1.855-.562" transform="translate(-14.821 -371.942)" fill="#ffb500"/>
          <path id="Trazado_258064" data-name="Trazado 258064" d="M85.562,401.967a2.1,2.1,0,0,0,1.746-2.065c-.012-.168,0-.339,0-.508a1.556,1.556,0,0,1,1.1,1.466,1.615,1.615,0,0,1-1.019,1.573,1.582,1.582,0,0,1-1.835-.466" transform="translate(-79.715 -373.316)" fill="#ffb500"/>
          <path id="Trazado_258065" data-name="Trazado 258065" d="M330.594,175.521l-4.122,0q-.006-.539-.012-1.077c.861,0,1.723-.036,2.581.012a2.714,2.714,0,0,1,.855.37c.179.082.357.167.536.251l.163.44" transform="translate(-304.151 -163.73)" fill="#b55a72"/>
          <path id="Trazado_258066" data-name="Trazado 258066" d="M95.094,175.6l-4.122,0,.163-.44c.279-.143.552-.3.839-.424a1.945,1.945,0,0,1,.678-.205c.817-.023,1.636-.006,2.454,0l-.012,1.077" transform="translate(-84.755 -163.806)" fill="#b55a72"/>
          <path id="Trazado_258067" data-name="Trazado 258067" d="M295.014,397.7q2.03,0,4.061,0a2.192,2.192,0,0,1,.334.052,2.352,2.352,0,0,0-1.408,1.03h-2.987q0-.542,0-1.084" transform="translate(-274.854 -371.735)" fill="#b55a72"/>
          <path id="Trazado_258068" data-name="Trazado 258068" d="M136.27,397.757a1.793,1.793,0,0,1,.329-.062c.953,0,1.906,0,2.859,0q0,.542,0,1.084h-2.739l-.449-1.019" transform="translate(-126.958 -371.731)" fill="#b55a72"/>
          <path id="Trazado_258069" data-name="Trazado 258069" d="M139.738,429.448v1.072h-3.166l.43-1.072h2.736" transform="translate(-127.239 -401.317)" fill="#b55a72"/>
          <path id="Trazado_258070" data-name="Trazado 258070" d="M295.013,413.55H298l-.307,1.085h-2.679V413.55" transform="translate(-274.853 -386.505)" fill="#a3314f"/>
          <path id="Trazado_258071" data-name="Trazado 258071" d="M295.025,429.432H297.7l.238,1.083h-2.918Z" transform="translate(-274.864 -401.301)" fill="#b55a72"/>
          <path id="Trazado_258072" data-name="Trazado 258072" d="M145.572,414.646h-2.736q0-.543,0-1.085h2.739v1.086" transform="translate(-133.073 -386.515)" fill="#a3314f"/>
          <path id="Trazado_258073" data-name="Trazado 258073" d="M198.037,138.7l-.377,1.085-.975,1.078a3.266,3.266,0,0,1-2.76.45,8.372,8.372,0,0,1-1.009-.452l-.979-1.076-.378-1.085,0-1.076.39-1.079.933-1.03a3.3,3.3,0,0,1,3.385-.251c.152.072.294.167.441.251l.932,1.031.39,1.078q0,.538.005,1.076m-3.794.034h-1.516a1.9,1.9,0,0,0,1.516,1.473Zm1.121-.007v1.513a1.987,1.987,0,0,0,1.5-1.513Zm0-1.128h1.48a1.967,1.967,0,0,0-1.48-1.488Zm-1.124.01c0-.469,0-.9,0-1.337a1.346,1.346,0,0,0-.018-.155,1.906,1.906,0,0,0-1.47,1.492Z" transform="translate(-178.468 -126.908)" fill="#010202"/>
          <path id="Trazado_258074" data-name="Trazado 258074" d="M195.816,111.97H189.06l-.033-.056a8.824,8.824,0,0,0,.937-.59,2.321,2.321,0,0,1,1.665-.44c.775.03,1.552,0,2.327.013a1.012,1.012,0,0,1,.471.133c.48.28.948.582,1.42.875l-.031.064" transform="translate(-176.109 -104.519)" fill="#b55a72"/>
          <path id="Trazado_258075" data-name="Trazado 258075" d="M267.891,143.813l-.932-1.031a1.827,1.827,0,0,1,.33-.062c.818-.005,1.636.009,2.453-.008a1.616,1.616,0,0,1,1.018.271c.386.27.8.5,1.2.749l-.017.082Z" transform="translate(-248.716 -134.175)" fill="#b55a72"/>
          <path id="Trazado_258076" data-name="Trazado 258076" d="M142.746,142.77l-.933,1.03c-.679,0-1.359-.009-2.038-.01s-1.337,0-2.033-.056c.384-.243.779-.47,1.149-.734a1.77,1.77,0,0,1,1.137-.3c.8.02,1.593,0,2.389.009a1.818,1.818,0,0,1,.33.062" transform="translate(-128.328 -134.162)" fill="#b55a72"/>
          <path id="Trazado_258077" data-name="Trazado 258077" d="M286.3,175.664q0-.538-.005-1.076l1.686,0q-.006.541-.013,1.083l-1.668,0" transform="translate(-266.731 -163.872)" fill="#b55a72"/>
          <path id="Trazado_258078" data-name="Trazado 258078" d="M168.651,174.588l0,1.076-1.667,0q-.007-.541-.013-1.083l1.685,0" transform="translate(-155.556 -163.872)" fill="#b55a72"/>
          <path id="Trazado_258079" data-name="Trazado 258079" d="M310.774,175.669q.007-.541.013-1.083l1.059,0q.006.539.012,1.077l-1.084,0" transform="translate(-289.537 -163.872)" fill="#040101"/>
          <path id="Trazado_258080" data-name="Trazado 258080" d="M152.366,174.586q.007.541.013,1.083l-1.084,0q.006-.539.012-1.077l1.059,0" transform="translate(-140.956 -163.872)" fill="#040101"/>
          <path id="Trazado_258081" data-name="Trazado 258081" d="M210.177,190.868v1.473a1.9,1.9,0,0,1-1.516-1.473Z" transform="translate(-194.402 -179.041)" fill="#008fb4"/>
          <path id="Trazado_258082" data-name="Trazado 258082" d="M247.255,190.772h1.5a1.987,1.987,0,0,1-1.5,1.513Z" transform="translate(-230.358 -178.951)" fill="#008fb4"/>
          <path id="Trazado_258083" data-name="Trazado 258083" d="M247.322,153.978V152.49a1.967,1.967,0,0,1,1.48,1.488Z" transform="translate(-230.421 -143.286)" fill="#0091b6"/>
          <path id="Trazado_258084" data-name="Trazado 258084" d="M210.586,154.078H209.1a1.906,1.906,0,0,1,1.47-1.492,1.346,1.346,0,0,1,.018.155c0,.434,0,.868,0,1.337" transform="translate(-194.808 -143.375)" fill="#0091b6"/>
        </g>
      </g>
    </g>
  </g>
</svg>
