<svg xmlns="http://www.w3.org/2000/svg" width="714" height="151" viewBox="0 0 714 151">
  <g id="Grupo_891217" data-name="Grupo 891217" transform="translate(-705 -3418.064)">
    <path id="Trazado_622240" data-name="Trazado 622240" d="M17.813,13.141V17H15.289V5.8h3.953q4.234,0,4.234,3.57a3.426,3.426,0,0,1-1.215,2.73,4.813,4.813,0,0,1-3.246,1.043Zm0-5.406v3.492H18.8q2.016,0,2.016-1.766,0-1.727-2.016-1.727Zm12.281,3.492a2.142,2.142,0,0,0-1.039-.242,1.5,1.5,0,0,0-1.258.59,2.573,2.573,0,0,0-.453,1.605V17H24.875V9h2.469v1.484h.031a2.136,2.136,0,0,1,2.109-1.625,1.59,1.59,0,0,1,.609.094ZM38.367,13.7H33.148q.125,1.742,2.2,1.742a4.286,4.286,0,0,0,2.32-.625V16.6a6.1,6.1,0,0,1-2.883.594,4.058,4.058,0,0,1-3.008-1.074,4.058,4.058,0,0,1-1.07-3,4.281,4.281,0,0,1,1.156-3.156A3.852,3.852,0,0,1,34.7,8.8,3.5,3.5,0,0,1,37.41,9.844a4,4,0,0,1,.957,2.82Zm-2.289-1.516q0-1.719-1.391-1.719a1.328,1.328,0,0,0-1.027.492,2.234,2.234,0,0,0-.527,1.227ZM47.453,9l-2.977,8H41.664L38.828,9h2.641l1.391,4.93a7.2,7.2,0,0,1,.273,1.422h.031a8.069,8.069,0,0,1,.289-1.375L44.875,9Zm8.086,4.7H50.32q.125,1.742,2.2,1.742a4.286,4.286,0,0,0,2.32-.625V16.6a6.1,6.1,0,0,1-2.883.594,4.058,4.058,0,0,1-3.008-1.074,4.058,4.058,0,0,1-1.07-3,4.281,4.281,0,0,1,1.156-3.156A3.852,3.852,0,0,1,51.875,8.8a3.5,3.5,0,0,1,2.707,1.039,4,4,0,0,1,.957,2.82ZM53.25,12.188q0-1.719-1.391-1.719a1.328,1.328,0,0,0-1.027.492,2.234,2.234,0,0,0-.527,1.227ZM64.2,13.7H58.977q.125,1.742,2.2,1.742a4.286,4.286,0,0,0,2.32-.625V16.6a6.1,6.1,0,0,1-2.883.594A4.058,4.058,0,0,1,57.6,16.121a4.058,4.058,0,0,1-1.07-3,4.281,4.281,0,0,1,1.156-3.156A3.852,3.852,0,0,1,60.531,8.8a3.5,3.5,0,0,1,2.707,1.039,4,4,0,0,1,.957,2.82Zm-2.289-1.516q0-1.719-1.391-1.719a1.328,1.328,0,0,0-1.027.492,2.234,2.234,0,0,0-.527,1.227Zm8.977-.961a2.141,2.141,0,0,0-1.039-.242,1.5,1.5,0,0,0-1.258.59,2.573,2.573,0,0,0-.453,1.605V17H65.664V9h2.469v1.484h.031a2.136,2.136,0,0,1,2.109-1.625,1.59,1.59,0,0,1,.609.094Z" transform="translate(836 3528.064)" fill="#12263f"/>
    <path id="Trazado_622238" data-name="Trazado 622238" d="M23.457,17H16.785V5.8h2.523v9.156h4.148Zm5.078.2a4.3,4.3,0,0,1-3.145-1.121,4.064,4.064,0,0,1-1.145-3.043,4.065,4.065,0,0,1,1.188-3.105A4.487,4.487,0,0,1,28.645,8.8,4.249,4.249,0,0,1,31.77,9.926,3.985,3.985,0,0,1,32.9,12.891a4.23,4.23,0,0,1-1.168,3.148A4.348,4.348,0,0,1,28.535,17.2Zm.063-6.5a1.647,1.647,0,0,0-1.359.6,2.653,2.653,0,0,0-.484,1.7q0,2.3,1.859,2.3,1.773,0,1.773-2.367Q30.387,10.7,28.6,10.7Zm13.75,5.391a4.526,4.526,0,0,1-1.289,3.449,5.224,5.224,0,0,1-3.734,1.223,5.919,5.919,0,0,1-2.562-.461V18.219a4.907,4.907,0,0,0,2.492.719,2.684,2.684,0,0,0,1.938-.66,2.369,2.369,0,0,0,.688-1.793v-.633h-.031A2.757,2.757,0,0,1,37.355,17.2a3,3,0,0,1-2.43-1.078,4.372,4.372,0,0,1-.9-2.891,4.87,4.87,0,0,1,1-3.227A3.265,3.265,0,0,1,37.66,8.8,2.429,2.429,0,0,1,39.848,9.93h.031V9h2.469Zm-2.437-2.93v-.633a1.945,1.945,0,0,0-.449-1.293,1.453,1.453,0,0,0-1.168-.535A1.51,1.51,0,0,0,37,11.336a3.012,3.012,0,0,0-.469,1.8,2.543,2.543,0,0,0,.445,1.582A1.451,1.451,0,0,0,38.2,15.3a1.511,1.511,0,0,0,1.238-.59A2.418,2.418,0,0,0,39.91,13.156Zm9.719-1.93a2.142,2.142,0,0,0-1.039-.242,1.5,1.5,0,0,0-1.258.59,2.573,2.573,0,0,0-.453,1.605V17H44.41V9h2.469v1.484h.031A2.136,2.136,0,0,1,49.02,8.859a1.59,1.59,0,0,1,.609.094Zm4.9,5.969a4.3,4.3,0,0,1-3.145-1.121,4.064,4.064,0,0,1-1.145-3.043,4.065,4.065,0,0,1,1.188-3.105A4.487,4.487,0,0,1,54.637,8.8a4.249,4.249,0,0,1,3.125,1.121,3.985,3.985,0,0,1,1.133,2.965,4.23,4.23,0,0,1-1.168,3.148A4.348,4.348,0,0,1,54.527,17.2Zm.063-6.5a1.647,1.647,0,0,0-1.359.6,2.653,2.653,0,0,0-.484,1.7q0,2.3,1.859,2.3,1.773,0,1.773-2.367Q56.379,10.7,54.59,10.7Zm5.383,6.094v-2a5.256,5.256,0,0,0,1.215.547,4.028,4.028,0,0,0,1.145.18,2.455,2.455,0,0,0,1.035-.18.581.581,0,0,0,.379-.547.506.506,0,0,0-.172-.391,1.6,1.6,0,0,0-.441-.273,5.009,5.009,0,0,0-.59-.211q-.32-.094-.617-.211a5.914,5.914,0,0,1-.84-.387,2.427,2.427,0,0,1-.609-.48A1.889,1.889,0,0,1,60.1,12.2a2.525,2.525,0,0,1-.129-.852,2.192,2.192,0,0,1,.293-1.156,2.393,2.393,0,0,1,.781-.793,3.57,3.57,0,0,1,1.117-.453A5.825,5.825,0,0,1,63.473,8.8a7.261,7.261,0,0,1,1.078.082,8.047,8.047,0,0,1,1.078.238v1.906a3.9,3.9,0,0,0-1-.41,4.235,4.235,0,0,0-1.051-.137,2.328,2.328,0,0,0-.457.043,1.505,1.505,0,0,0-.379.125.7.7,0,0,0-.258.211.486.486,0,0,0-.094.293.541.541,0,0,0,.141.375,1.221,1.221,0,0,0,.367.27,3.625,3.625,0,0,0,.5.2q.277.09.551.184a7.161,7.161,0,0,1,.891.375,2.848,2.848,0,0,1,.684.477,1.872,1.872,0,0,1,.438.641,2.563,2.563,0,0,1-.156,2.09,2.471,2.471,0,0,1-.82.82,3.72,3.72,0,0,1-1.18.461,6.54,6.54,0,0,1-1.387.145A7.149,7.149,0,0,1,59.973,16.789Z" transform="translate(1195 3528.064)" fill="#12263f"/>
    <rect id="Rectángulo_53506" data-name="Rectángulo 53506" width="148" height="35" rx="9" transform="translate(1256 3458.064)" fill="#ffb500"/>
    <path id="Trazado_622237" data-name="Trazado 622237" d="M27.785,17.2a5.215,5.215,0,0,1-3.922-1.566,5.624,5.624,0,0,1-1.516-4.082,6.026,6.026,0,0,1,1.539-4.3,5.328,5.328,0,0,1,4.078-1.641,5.085,5.085,0,0,1,3.879,1.57,5.79,5.79,0,0,1,1.48,4.141,5.929,5.929,0,0,1-1.535,4.258A5.269,5.269,0,0,1,27.785,17.2Zm.109-9.414a2.54,2.54,0,0,0-2.109,1A4.153,4.153,0,0,0,25,11.414a4.077,4.077,0,0,0,.781,2.633,2.7,2.7,0,0,0,4.117.027,4.032,4.032,0,0,0,.766-2.613,4.369,4.369,0,0,0-.742-2.711A2.42,2.42,0,0,0,27.895,7.781Zm9.547,8.289H37.41V17H34.941V5.156H37.41V10.2h.031a2.929,2.929,0,0,1,2.6-1.4,2.855,2.855,0,0,1,2.383,1.063,4.582,4.582,0,0,1,.836,2.906,4.962,4.962,0,0,1-.977,3.211A3.181,3.181,0,0,1,39.676,17.2,2.521,2.521,0,0,1,37.441,16.07Zm-.07-3.375v.82a1.872,1.872,0,0,0,.445,1.281,1.449,1.449,0,0,0,1.141.508,1.514,1.514,0,0,0,1.309-.652A3.15,3.15,0,0,0,40.73,12.8a2.506,2.506,0,0,0-.426-1.551A1.437,1.437,0,0,0,39.09,10.7a1.569,1.569,0,0,0-1.23.555A2.107,2.107,0,0,0,37.371,12.7Zm8.742-4.961a1.442,1.442,0,0,1-1.023-.371,1.2,1.2,0,0,1-.4-.91,1.153,1.153,0,0,1,.4-.906,1.671,1.671,0,0,1,2.051,0,1.158,1.158,0,0,1,.395.906,1.191,1.191,0,0,1-.395.922A1.466,1.466,0,0,1,46.113,7.734Zm1.219,9.125a4.349,4.349,0,0,1-.867,2.836,3.041,3.041,0,0,1-2.5,1.063,3.457,3.457,0,0,1-1.18-.234V18.586a1.923,1.923,0,0,0,.914.289q1.164,0,1.164-1.828V9h2.469ZM56.6,13.7H51.379q.125,1.742,2.2,1.742a4.286,4.286,0,0,0,2.32-.625V16.6a6.1,6.1,0,0,1-2.883.594A4.058,4.058,0,0,1,50,16.121a4.058,4.058,0,0,1-1.07-3A4.281,4.281,0,0,1,50.09,9.969,3.852,3.852,0,0,1,52.934,8.8a3.5,3.5,0,0,1,2.707,1.039,4,4,0,0,1,.957,2.82Zm-2.289-1.516q0-1.719-1.391-1.719a1.328,1.328,0,0,0-1.027.492,2.234,2.234,0,0,0-.527,1.227ZM62.9,16.906a3.649,3.649,0,0,1-1.648.289q-2.609,0-2.609-2.711V10.82h-1.3V9h1.3V7.273l2.461-.7V9h1.8v1.82h-1.8v3.234q0,1.25.992,1.25a1.673,1.673,0,0,0,.8-.227Zm2.641-9.172a1.442,1.442,0,0,1-1.023-.371,1.2,1.2,0,0,1-.4-.91,1.153,1.153,0,0,1,.4-.906,1.671,1.671,0,0,1,2.051,0,1.158,1.158,0,0,1,.395.906,1.191,1.191,0,0,1-.395.922A1.466,1.466,0,0,1,65.543,7.734ZM66.762,17H64.293V9h2.469Zm9.7-8L73.48,17H70.668L67.832,9h2.641l1.391,4.93a7.2,7.2,0,0,1,.273,1.422h.031a8.069,8.069,0,0,1,.289-1.375L73.879,9Zm4.711,8.2a4.3,4.3,0,0,1-3.145-1.121,4.064,4.064,0,0,1-1.145-3.043,4.065,4.065,0,0,1,1.188-3.105A4.487,4.487,0,0,1,81.277,8.8,4.249,4.249,0,0,1,84.4,9.926a3.985,3.985,0,0,1,1.133,2.965,4.23,4.23,0,0,1-1.168,3.148A4.348,4.348,0,0,1,81.168,17.2Zm.063-6.5a1.647,1.647,0,0,0-1.359.6,2.653,2.653,0,0,0-.484,1.7q0,2.3,1.859,2.3,1.773,0,1.773-2.367Q83.02,10.7,81.23,10.7Zm5.383,6.094v-2a5.256,5.256,0,0,0,1.215.547,4.028,4.028,0,0,0,1.145.18,2.455,2.455,0,0,0,1.035-.18.581.581,0,0,0,.379-.547.506.506,0,0,0-.172-.391,1.6,1.6,0,0,0-.441-.273,5.009,5.009,0,0,0-.59-.211q-.32-.094-.617-.211a5.913,5.913,0,0,1-.84-.387,2.427,2.427,0,0,1-.609-.48,1.889,1.889,0,0,1-.375-.633,2.525,2.525,0,0,1-.129-.852,2.192,2.192,0,0,1,.293-1.156,2.393,2.393,0,0,1,.781-.793A3.57,3.57,0,0,1,88.8,8.949,5.825,5.825,0,0,1,90.113,8.8a7.261,7.261,0,0,1,1.078.082,8.047,8.047,0,0,1,1.078.238v1.906a3.9,3.9,0,0,0-1-.41,4.235,4.235,0,0,0-1.051-.137,2.328,2.328,0,0,0-.457.043,1.505,1.505,0,0,0-.379.125.7.7,0,0,0-.258.211.486.486,0,0,0-.094.293.541.541,0,0,0,.141.375,1.221,1.221,0,0,0,.367.27,3.625,3.625,0,0,0,.5.2q.277.09.551.184a7.161,7.161,0,0,1,.891.375,2.848,2.848,0,0,1,.684.477,1.872,1.872,0,0,1,.438.641,2.563,2.563,0,0,1-.156,2.09,2.471,2.471,0,0,1-.82.82,3.72,3.72,0,0,1-1.18.461,6.54,6.54,0,0,1-1.387.145A7.149,7.149,0,0,1,86.613,16.789ZM100.418,5.8,94.957,18.859h-2.2L98.191,5.8ZM52.148,41H49.688V36.438q0-1.742-1.281-1.742a1.177,1.177,0,0,0-.992.523,2.151,2.151,0,0,0-.383,1.3V41H44.563V36.391q0-1.7-1.258-1.7a1.206,1.206,0,0,0-1.012.5,2.2,2.2,0,0,0-.379,1.359V41H39.445V33h2.469v1.25h.031A3.031,3.031,0,0,1,44.531,32.8a2.3,2.3,0,0,1,2.32,1.492A2.959,2.959,0,0,1,49.539,32.8q2.609,0,2.609,3.219Zm9.141-3.3H56.07q.125,1.742,2.2,1.742a4.286,4.286,0,0,0,2.32-.625V40.6A6.1,6.1,0,0,1,57.7,41.2a3.724,3.724,0,0,1-4.078-4.07,4.281,4.281,0,0,1,1.156-3.156A3.852,3.852,0,0,1,57.625,32.8a3.5,3.5,0,0,1,2.707,1.039,4,4,0,0,1,.957,2.82ZM59,36.188q0-1.719-1.391-1.719a1.328,1.328,0,0,0-1.027.492,2.234,2.234,0,0,0-.527,1.227Zm8.594,4.719a3.649,3.649,0,0,1-1.648.289q-2.609,0-2.609-2.711V34.82h-1.3V33h1.3V31.273l2.461-.7V33h1.8v1.82H65.8v3.234q0,1.25.992,1.25a1.673,1.673,0,0,0,.8-.227ZM75.641,41H73.3V39.852h-.031A2.607,2.607,0,0,1,70.891,41.2a2.492,2.492,0,0,1-1.832-.66,2.366,2.366,0,0,1-.668-1.762q0-2.328,2.758-2.687L73.32,35.8q0-1.312-1.422-1.312a4.853,4.853,0,0,0-2.719.852V33.477a6.117,6.117,0,0,1,1.41-.469,7.413,7.413,0,0,1,1.629-.2q3.422,0,3.422,3.414Zm-2.32-3.25v-.539l-1.453.188q-1.2.156-1.2,1.086a.9.9,0,0,0,.293.691,1.126,1.126,0,0,0,.793.27,1.462,1.462,0,0,0,1.133-.48A1.735,1.735,0,0,0,73.32,37.75Zm3.75,3.039v-2a5.256,5.256,0,0,0,1.215.547,4.028,4.028,0,0,0,1.145.18,2.455,2.455,0,0,0,1.035-.18.581.581,0,0,0,.379-.547.506.506,0,0,0-.172-.391,1.6,1.6,0,0,0-.441-.273,5.009,5.009,0,0,0-.59-.211q-.32-.094-.617-.211a5.914,5.914,0,0,1-.84-.387,2.427,2.427,0,0,1-.609-.48A1.889,1.889,0,0,1,77.2,36.2a2.525,2.525,0,0,1-.129-.852,2.192,2.192,0,0,1,.293-1.156,2.393,2.393,0,0,1,.781-.793,3.57,3.57,0,0,1,1.117-.453A5.825,5.825,0,0,1,80.57,32.8a7.261,7.261,0,0,1,1.078.082,8.046,8.046,0,0,1,1.078.238v1.906a3.9,3.9,0,0,0-1-.41,4.235,4.235,0,0,0-1.051-.137,2.328,2.328,0,0,0-.457.043,1.505,1.505,0,0,0-.379.125.7.7,0,0,0-.258.211.486.486,0,0,0-.094.293.541.541,0,0,0,.141.375,1.221,1.221,0,0,0,.367.27,3.625,3.625,0,0,0,.5.2q.277.09.551.184a7.161,7.161,0,0,1,.891.375,2.848,2.848,0,0,1,.684.477,1.872,1.872,0,0,1,.438.641,2.563,2.563,0,0,1-.156,2.09,2.471,2.471,0,0,1-.82.82,3.72,3.72,0,0,1-1.18.461,6.54,6.54,0,0,1-1.387.145A7.149,7.149,0,0,1,77.07,40.789Z" transform="translate(1269 3466.064)" fill="#12263f"/>
    <line id="Línea_1424" data-name="Línea 1424" x2="63" transform="translate(1178.5 3475.564)" fill="none" stroke="#707070" stroke-width="4"/>
    <g id="Polígono_134" data-name="Polígono 134" transform="matrix(0.891, -0.454, 0.454, 0.891, 1224.554, 3468.64)" fill="#666464">
      <path d="M 19.17181968688965 18.5 L 0.8281810283660889 18.5 L 10 1.073544025421143 L 19.17181968688965 18.5 Z" stroke="none"/>
      <path d="M 10 2.147098541259766 L 1.656368255615234 18 L 18.34363174438477 18 L 10 2.147098541259766 M 10 0 L 20 19 L 0 19 L 10 0 Z" stroke="none" fill="#707070"/>
    </g>
    <g id="Rectángulo_295125" data-name="Rectángulo 295125" transform="translate(1066 3418.064)" fill="none" stroke="#a3314f" stroke-width="3">
      <rect width="353" height="151" stroke="none"/>
      <rect x="1.5" y="1.5" width="350" height="148" fill="none"/>
    </g>
    <rect id="Rectángulo_295126" data-name="Rectángulo 295126" width="148" height="52" rx="7" transform="translate(720 3446.064)" fill="#ffb500"/>
    <path id="Trazado_622241" data-name="Trazado 622241" d="M31.266,17H24.594V5.8h2.523v9.156h4.148Zm7.922,0H36.852V15.852H36.82A2.607,2.607,0,0,1,34.438,17.2a2.492,2.492,0,0,1-1.832-.66,2.366,2.366,0,0,1-.668-1.762q0-2.328,2.758-2.687l2.172-.289q0-1.312-1.422-1.312a4.853,4.853,0,0,0-2.719.852V9.477a6.116,6.116,0,0,1,1.41-.469,7.413,7.413,0,0,1,1.629-.2q3.422,0,3.422,3.414Zm-2.32-3.25v-.539l-1.453.188q-1.2.156-1.2,1.086a.9.9,0,0,0,.293.691,1.126,1.126,0,0,0,.793.27,1.462,1.462,0,0,0,1.133-.48A1.735,1.735,0,0,0,36.867,13.75Zm13.906-6.7a2.494,2.494,0,0,0-.914-.187q-1.188,0-1.187,1.289V9H50.5v1.82H48.672V17H46.211V10.82H44.867V9h1.344V8.008A2.88,2.88,0,0,1,47.1,5.8a3.4,3.4,0,0,1,2.422-.836,4.253,4.253,0,0,1,1.25.156ZM59.289,17H56.828V15.781h-.039A2.792,2.792,0,0,1,54.344,17.2q-2.781,0-2.781-3.367V9h2.461v4.609q0,1.7,1.344,1.7a1.329,1.329,0,0,0,1.063-.465,1.874,1.874,0,0,0,.4-1.262V9h2.461Zm9.8,0H66.633V12.555q0-1.859-1.328-1.859a1.318,1.318,0,0,0-1.055.492,1.875,1.875,0,0,0-.414,1.25V17H61.367V9h2.469v1.266h.031A2.829,2.829,0,0,1,66.438,8.8q2.656,0,2.656,3.3Zm8.016-.289A4.881,4.881,0,0,1,74.7,17.2a4.083,4.083,0,0,1-2.984-1.117A3.859,3.859,0,0,1,70.57,13.2,4.251,4.251,0,0,1,71.793,9.98,4.518,4.518,0,0,1,75.063,8.8a4.2,4.2,0,0,1,2.047.375v2.094a2.814,2.814,0,0,0-1.727-.578,2.275,2.275,0,0,0-1.684.621,2.317,2.317,0,0,0-.621,1.715,2.28,2.28,0,0,0,.594,1.668A2.182,2.182,0,0,0,75.3,15.3a3.258,3.258,0,0,0,1.8-.578Zm2.867-8.977a1.442,1.442,0,0,1-1.023-.371,1.2,1.2,0,0,1-.4-.91,1.153,1.153,0,0,1,.4-.906,1.671,1.671,0,0,1,2.051,0,1.158,1.158,0,0,1,.395.906A1.191,1.191,0,0,1,81,7.375,1.466,1.466,0,0,1,79.977,7.734ZM81.2,17H78.727V9H81.2Zm5.891.2a4.3,4.3,0,0,1-3.145-1.121A4.064,4.064,0,0,1,82.8,13.031a4.065,4.065,0,0,1,1.188-3.105A4.487,4.487,0,0,1,87.2,8.8,4.249,4.249,0,0,1,90.32,9.926a3.985,3.985,0,0,1,1.133,2.965,4.23,4.23,0,0,1-1.168,3.148A4.348,4.348,0,0,1,87.086,17.2Zm.063-6.5a1.647,1.647,0,0,0-1.359.6A2.653,2.653,0,0,0,85.3,13q0,2.3,1.859,2.3,1.773,0,1.773-2.367Q88.938,10.7,87.148,10.7ZM89.8,5.211,87.352,7.734H85.57L87.6,5.211ZM100.773,17H98.313V12.555q0-1.859-1.328-1.859a1.318,1.318,0,0,0-1.055.492,1.875,1.875,0,0,0-.414,1.25V17H93.047V9h2.469v1.266h.031A2.829,2.829,0,0,1,98.117,8.8q2.656,0,2.656,3.3Zm-81.7,24H16.605V39.9h-.031A2.768,2.768,0,0,1,14.1,41.2a3.033,3.033,0,0,1-2.414-1.059,4.382,4.382,0,0,1-.914-2.957A4.77,4.77,0,0,1,11.777,34a3.287,3.287,0,0,1,2.641-1.2,2.246,2.246,0,0,1,2.156,1.109h.031V29.156h2.469Zm-2.422-3.891v-.6a1.893,1.893,0,0,0-.453-1.3,1.6,1.6,0,0,0-2.461.129,2.993,2.993,0,0,0-.461,1.77,2.59,2.59,0,0,0,.445,1.625A1.581,1.581,0,0,0,16.18,38.7,2.507,2.507,0,0,0,16.652,37.109ZM28.34,37.7H23.121q.125,1.742,2.2,1.742a4.286,4.286,0,0,0,2.32-.625V40.6a6.1,6.1,0,0,1-2.883.594,3.724,3.724,0,0,1-4.078-4.07,4.281,4.281,0,0,1,1.156-3.156A3.852,3.852,0,0,1,24.676,32.8a3.5,3.5,0,0,1,2.707,1.039,4,4,0,0,1,.957,2.82Zm-2.289-1.516q0-1.719-1.391-1.719a1.328,1.328,0,0,0-1.027.492,2.234,2.234,0,0,0-.527,1.227Zm10.938.953V41H34.465V29.8h3.953q4.234,0,4.234,3.57a3.426,3.426,0,0,1-1.215,2.73,4.813,4.813,0,0,1-3.246,1.043Zm0-5.406v3.492h.992Q40,35.227,40,33.461q0-1.727-2.016-1.727ZM46.52,41H44.051V29.156H46.52Zm8.734,0H52.918V39.852h-.031A2.607,2.607,0,0,1,50.5,41.2a2.492,2.492,0,0,1-1.832-.66A2.366,2.366,0,0,1,48,38.773q0-2.328,2.758-2.687l2.172-.289q0-1.312-1.422-1.312a4.853,4.853,0,0,0-2.719.852V33.477a6.116,6.116,0,0,1,1.41-.469,7.413,7.413,0,0,1,1.629-.2q3.422,0,3.422,3.414Zm-2.32-3.25v-.539L51.48,37.4q-1.2.156-1.2,1.086a.9.9,0,0,0,.293.691,1.126,1.126,0,0,0,.793.27,1.462,1.462,0,0,0,1.133-.48A1.735,1.735,0,0,0,52.934,37.75Zm12,3.25H62.473V36.555q0-1.859-1.328-1.859a1.318,1.318,0,0,0-1.055.492,1.875,1.875,0,0,0-.414,1.25V41H57.207V33h2.469v1.266h.031a2.829,2.829,0,0,1,2.57-1.461q2.656,0,2.656,3.3Zm9.141-3.3H68.855q.125,1.742,2.2,1.742a4.286,4.286,0,0,0,2.32-.625V40.6a6.1,6.1,0,0,1-2.883.594,3.724,3.724,0,0,1-4.078-4.07,4.281,4.281,0,0,1,1.156-3.156A3.852,3.852,0,0,1,70.41,32.8a3.5,3.5,0,0,1,2.707,1.039,4,4,0,0,1,.957,2.82Zm-2.289-1.516q0-1.719-1.391-1.719a1.328,1.328,0,0,0-1.027.492,2.234,2.234,0,0,0-.527,1.227ZM82.2,41H79.863V39.852h-.031A2.607,2.607,0,0,1,77.449,41.2a2.492,2.492,0,0,1-1.832-.66,2.366,2.366,0,0,1-.668-1.762q0-2.328,2.758-2.687l2.172-.289q0-1.312-1.422-1.312a4.853,4.853,0,0,0-2.719.852V33.477a6.117,6.117,0,0,1,1.41-.469,7.413,7.413,0,0,1,1.629-.2q3.422,0,3.422,3.414Zm-2.32-3.25v-.539l-1.453.188q-1.2.156-1.2,1.086a.9.9,0,0,0,.293.691,1.126,1.126,0,0,0,.793.27,1.462,1.462,0,0,0,1.133-.48A1.735,1.735,0,0,0,79.879,37.75Zm10.336,2.961A4.881,4.881,0,0,1,87.8,41.2a4.083,4.083,0,0,1-2.984-1.117A3.859,3.859,0,0,1,83.676,37.2,4.251,4.251,0,0,1,84.9,33.98a4.518,4.518,0,0,1,3.27-1.176,4.2,4.2,0,0,1,2.047.375v2.094a2.814,2.814,0,0,0-1.727-.578,2.275,2.275,0,0,0-1.684.621,2.317,2.317,0,0,0-.621,1.715,2.28,2.28,0,0,0,.594,1.668,2.182,2.182,0,0,0,1.633.605,3.258,3.258,0,0,0,1.8-.578Zm2.867-8.977a1.442,1.442,0,0,1-1.023-.371,1.2,1.2,0,0,1-.4-.91,1.153,1.153,0,0,1,.4-.906,1.671,1.671,0,0,1,2.051,0,1.158,1.158,0,0,1,.395.906,1.191,1.191,0,0,1-.395.922A1.466,1.466,0,0,1,93.082,31.734ZM94.3,41H91.832V33H94.3Zm5.891.2a4.3,4.3,0,0,1-3.145-1.121A4.064,4.064,0,0,1,95.9,37.031a4.065,4.065,0,0,1,1.188-3.105A4.487,4.487,0,0,1,100.3,32.8a4.249,4.249,0,0,1,3.125,1.121,3.985,3.985,0,0,1,1.133,2.965,4.23,4.23,0,0,1-1.168,3.148A4.348,4.348,0,0,1,100.191,41.2Zm.063-6.5a1.647,1.647,0,0,0-1.359.6A2.653,2.653,0,0,0,98.41,37q0,2.3,1.859,2.3,1.773,0,1.773-2.367Q102.043,34.7,100.254,34.7Zm2.648-5.484-2.445,2.523H98.676l2.031-2.523ZM113.879,41h-2.461V36.555q0-1.859-1.328-1.859a1.318,1.318,0,0,0-1.055.492,1.875,1.875,0,0,0-.414,1.25V41h-2.469V33h2.469v1.266h.031a2.829,2.829,0,0,1,2.57-1.461q2.656,0,2.656,3.3Z" transform="translate(731 3451.064)" fill="#12263f"/>
    <line id="Línea_1425" data-name="Línea 1425" x2="63" transform="translate(878.5 3473.564)" fill="none" stroke="#707070" stroke-width="4"/>
    <g id="Polígono_135" data-name="Polígono 135" transform="matrix(0.891, -0.454, 0.454, 0.891, 924.554, 3466.64)" fill="#666464">
      <path d="M 19.17181968688965 18.5 L 0.8281810283660889 18.5 L 10 1.073544025421143 L 19.17181968688965 18.5 Z" stroke="none"/>
      <path d="M 10 2.147098541259766 L 1.656368255615234 18 L 18.34363174438477 18 L 10 2.147098541259766 M 10 0 L 20 19 L 0 19 L 10 0 Z" stroke="none" fill="#707070"/>
    </g>
    <g id="Rectángulo_295128" data-name="Rectángulo 295128" transform="translate(705 3418.064)" fill="none" stroke="#a3314f" stroke-width="3">
      <rect width="354" height="151" stroke="none"/>
      <rect x="1.5" y="1.5" width="351" height="148" fill="none"/>
    </g>
    <rect id="Rectángulo_295129" data-name="Rectángulo 295129" width="210" height="52" rx="8" transform="translate(957 3446.064)" fill="#ffb500"/>
    <path id="Trazado_622239" data-name="Trazado 622239" d="M23.891,17V5.8h3.969q5.969,0,5.969,5.461a5.522,5.522,0,0,1-1.629,4.18A6.007,6.007,0,0,1,27.859,17Zm2.523-9.148v7.1h1.25a3.378,3.378,0,0,0,2.574-.984,3.735,3.735,0,0,0,.934-2.68,3.388,3.388,0,0,0-.926-2.52,3.529,3.529,0,0,0-2.6-.918ZM42.633,13.7H37.414q.125,1.742,2.2,1.742a4.286,4.286,0,0,0,2.32-.625V16.6a6.1,6.1,0,0,1-2.883.594,4.058,4.058,0,0,1-3.008-1.074,4.058,4.058,0,0,1-1.07-3,4.281,4.281,0,0,1,1.156-3.156A3.852,3.852,0,0,1,38.969,8.8a3.5,3.5,0,0,1,2.707,1.039,4,4,0,0,1,.957,2.82Zm-2.289-1.516q0-1.719-1.391-1.719a1.328,1.328,0,0,0-1.027.492,2.234,2.234,0,0,0-.527,1.227Zm8.594,4.719a3.649,3.649,0,0,1-1.648.289q-2.609,0-2.609-2.711V10.82h-1.3V9h1.3V7.273l2.461-.7V9h1.8v1.82h-1.8v3.234q0,1.25.992,1.25a1.673,1.673,0,0,0,.8-.227Zm8.516-3.2H52.234q.125,1.742,2.2,1.742a4.286,4.286,0,0,0,2.32-.625V16.6a6.1,6.1,0,0,1-2.883.594,4.058,4.058,0,0,1-3.008-1.074,4.058,4.058,0,0,1-1.07-3,4.281,4.281,0,0,1,1.156-3.156A3.852,3.852,0,0,1,53.789,8.8,3.5,3.5,0,0,1,56.5,9.844a4,4,0,0,1,.957,2.82Zm-2.289-1.516q0-1.719-1.391-1.719a1.328,1.328,0,0,0-1.027.492,2.234,2.234,0,0,0-.527,1.227Zm8.977-.961a2.142,2.142,0,0,0-1.039-.242,1.5,1.5,0,0,0-1.258.59,2.573,2.573,0,0,0-.453,1.605V17H58.922V9h2.469v1.484h.031a2.136,2.136,0,0,1,2.109-1.625,1.59,1.59,0,0,1,.609.094ZM78.039,17H75.578V12.438q0-1.742-1.281-1.742a1.177,1.177,0,0,0-.992.523,2.151,2.151,0,0,0-.383,1.3V17H70.453V12.391q0-1.7-1.258-1.7a1.206,1.206,0,0,0-1.012.5,2.2,2.2,0,0,0-.379,1.359V17H65.336V9H67.8v1.25h.031A3.031,3.031,0,0,1,70.422,8.8a2.3,2.3,0,0,1,2.32,1.492A2.959,2.959,0,0,1,75.43,8.8q2.609,0,2.609,3.219Zm3.2-9.266a1.442,1.442,0,0,1-1.023-.371,1.2,1.2,0,0,1-.4-.91,1.153,1.153,0,0,1,.4-.906,1.671,1.671,0,0,1,2.051,0,1.158,1.158,0,0,1,.395.906,1.191,1.191,0,0,1-.395.922A1.466,1.466,0,0,1,81.242,7.734ZM82.461,17H79.992V9h2.469Zm9.8,0H89.8V12.555q0-1.859-1.328-1.859a1.318,1.318,0,0,0-1.055.492,1.875,1.875,0,0,0-.414,1.25V17H84.539V9h2.469v1.266h.031A2.829,2.829,0,0,1,89.609,8.8q2.656,0,2.656,3.3Zm8.609,0H98.539V15.852h-.031A2.607,2.607,0,0,1,96.125,17.2a2.492,2.492,0,0,1-1.832-.66,2.366,2.366,0,0,1-.668-1.762q0-2.328,2.758-2.687l2.172-.289q0-1.312-1.422-1.312a4.853,4.853,0,0,0-2.719.852V9.477a6.116,6.116,0,0,1,1.41-.469,7.413,7.413,0,0,1,1.629-.2q3.422,0,3.422,3.414Zm-2.32-3.25v-.539L97.1,13.4q-1.2.156-1.2,1.086a.9.9,0,0,0,.293.691,1.126,1.126,0,0,0,.793.27,1.462,1.462,0,0,0,1.133-.48A1.735,1.735,0,0,0,98.555,13.75Zm9.492-2.523a2.141,2.141,0,0,0-1.039-.242,1.5,1.5,0,0,0-1.258.59,2.573,2.573,0,0,0-.453,1.605V17h-2.469V9H105.3v1.484h.031a2.136,2.136,0,0,1,2.109-1.625,1.59,1.59,0,0,1,.609.094Zm12.281-3.375h-3.953V10.6h3.633v2.047h-3.633V17h-2.523V5.8h6.477Zm5.414,9.344a4.3,4.3,0,0,1-3.145-1.121,4.064,4.064,0,0,1-1.145-3.043,4.065,4.065,0,0,1,1.188-3.105A4.487,4.487,0,0,1,125.852,8.8a4.249,4.249,0,0,1,3.125,1.121,3.985,3.985,0,0,1,1.133,2.965,4.23,4.23,0,0,1-1.168,3.148A4.348,4.348,0,0,1,125.742,17.2Zm.063-6.5a1.647,1.647,0,0,0-1.359.6,2.653,2.653,0,0,0-.484,1.7q0,2.3,1.859,2.3,1.773,0,1.773-2.367Q127.594,10.7,125.8,10.7Zm11.125.531a2.142,2.142,0,0,0-1.039-.242,1.5,1.5,0,0,0-1.258.59,2.573,2.573,0,0,0-.453,1.605V17h-2.469V9h2.469v1.484h.031a2.136,2.136,0,0,1,2.109-1.625,1.59,1.59,0,0,1,.609.094ZM150.828,17h-2.461V12.438q0-1.742-1.281-1.742a1.177,1.177,0,0,0-.992.523,2.151,2.151,0,0,0-.383,1.3V17h-2.469V12.391q0-1.7-1.258-1.7a1.206,1.206,0,0,0-1.012.5,2.2,2.2,0,0,0-.379,1.359V17h-2.469V9h2.469v1.25h.031A3.031,3.031,0,0,1,143.211,8.8a2.3,2.3,0,0,1,2.32,1.492A2.959,2.959,0,0,1,148.219,8.8q2.609,0,2.609,3.219Zm8.609,0H157.1V15.852h-.031a2.607,2.607,0,0,1-2.383,1.344,2.492,2.492,0,0,1-1.832-.66,2.366,2.366,0,0,1-.668-1.762q0-2.328,2.758-2.687l2.172-.289q0-1.312-1.422-1.312a4.853,4.853,0,0,0-2.719.852V9.477a6.116,6.116,0,0,1,1.41-.469,7.413,7.413,0,0,1,1.629-.2q3.422,0,3.422,3.414Zm-2.32-3.25v-.539l-1.453.188q-1.2.156-1.2,1.086a.9.9,0,0,0,.293.691,1.126,1.126,0,0,0,.793.27,1.462,1.462,0,0,0,1.133-.48A1.735,1.735,0,0,0,157.117,13.75Zm3.75,3.039v-2a5.256,5.256,0,0,0,1.215.547,4.028,4.028,0,0,0,1.145.18,2.455,2.455,0,0,0,1.035-.18.581.581,0,0,0,.379-.547.506.506,0,0,0-.172-.391,1.6,1.6,0,0,0-.441-.273,5.009,5.009,0,0,0-.59-.211q-.32-.094-.617-.211a5.914,5.914,0,0,1-.84-.387,2.427,2.427,0,0,1-.609-.48A1.889,1.889,0,0,1,161,12.2a2.525,2.525,0,0,1-.129-.852,2.192,2.192,0,0,1,.293-1.156,2.393,2.393,0,0,1,.781-.793,3.57,3.57,0,0,1,1.117-.453,5.825,5.825,0,0,1,1.309-.145,7.261,7.261,0,0,1,1.078.082,8.047,8.047,0,0,1,1.078.238v1.906a3.9,3.9,0,0,0-1-.41,4.235,4.235,0,0,0-1.051-.137,2.328,2.328,0,0,0-.457.043,1.505,1.505,0,0,0-.379.125.7.7,0,0,0-.258.211.486.486,0,0,0-.094.293.541.541,0,0,0,.141.375,1.221,1.221,0,0,0,.367.27,3.625,3.625,0,0,0,.5.2q.277.09.551.184a7.161,7.161,0,0,1,.891.375,2.848,2.848,0,0,1,.684.477,1.871,1.871,0,0,1,.438.641,2.563,2.563,0,0,1-.156,2.09,2.471,2.471,0,0,1-.82.82,3.72,3.72,0,0,1-1.18.461,6.54,6.54,0,0,1-1.387.145A7.149,7.149,0,0,1,160.867,16.789ZM49.117,41.2a4.3,4.3,0,0,1-3.145-1.121,4.064,4.064,0,0,1-1.145-3.043,4.065,4.065,0,0,1,1.188-3.105A4.487,4.487,0,0,1,49.227,32.8a4.249,4.249,0,0,1,3.125,1.121,3.985,3.985,0,0,1,1.133,2.965,4.23,4.23,0,0,1-1.168,3.148A4.348,4.348,0,0,1,49.117,41.2Zm.063-6.5a1.647,1.647,0,0,0-1.359.6,2.653,2.653,0,0,0-.484,1.7q0,2.3,1.859,2.3,1.773,0,1.773-2.367Q50.969,34.7,49.18,34.7Zm11.125.531a2.142,2.142,0,0,0-1.039-.242,1.5,1.5,0,0,0-1.258.59,2.573,2.573,0,0,0-.453,1.605V41H55.086V33h2.469v1.484h.031A2.136,2.136,0,0,1,59.7,32.859a1.59,1.59,0,0,1,.609.094ZM69.219,41H66.75V39.9h-.031a2.768,2.768,0,0,1-2.477,1.3,3.033,3.033,0,0,1-2.414-1.059,4.382,4.382,0,0,1-.914-2.957A4.77,4.77,0,0,1,61.922,34a3.287,3.287,0,0,1,2.641-1.2,2.246,2.246,0,0,1,2.156,1.109h.031V29.156h2.469ZM66.8,37.109v-.6a1.893,1.893,0,0,0-.453-1.3,1.6,1.6,0,0,0-2.461.129,2.993,2.993,0,0,0-.461,1.77,2.59,2.59,0,0,0,.445,1.625,1.581,1.581,0,0,0,2.457-.031A2.507,2.507,0,0,0,66.8,37.109Zm11.688.594H73.266q.125,1.742,2.2,1.742a4.286,4.286,0,0,0,2.32-.625V40.6A6.1,6.1,0,0,1,74.9,41.2a3.724,3.724,0,0,1-4.078-4.07,4.281,4.281,0,0,1,1.156-3.156A3.852,3.852,0,0,1,74.82,32.8a3.5,3.5,0,0,1,2.707,1.039,4,4,0,0,1,.957,2.82ZM76.2,36.188q0-1.719-1.391-1.719a1.328,1.328,0,0,0-1.027.492,2.234,2.234,0,0,0-.527,1.227ZM87.68,41H85.219V36.555q0-1.859-1.328-1.859a1.318,1.318,0,0,0-1.055.492,1.875,1.875,0,0,0-.414,1.25V41H79.953V33h2.469v1.266h.031a2.829,2.829,0,0,1,2.57-1.461q2.656,0,2.656,3.3Zm8.609,0H93.953V39.852h-.031A2.607,2.607,0,0,1,91.539,41.2a2.492,2.492,0,0,1-1.832-.66,2.366,2.366,0,0,1-.668-1.762q0-2.328,2.758-2.687l2.172-.289q0-1.312-1.422-1.312a4.853,4.853,0,0,0-2.719.852V33.477a6.117,6.117,0,0,1,1.41-.469,7.413,7.413,0,0,1,1.629-.2q3.422,0,3.422,3.414Zm-2.32-3.25v-.539l-1.453.188q-1.2.156-1.2,1.086a.9.9,0,0,0,.293.691,1.126,1.126,0,0,0,.793.27,1.462,1.462,0,0,0,1.133-.48A1.735,1.735,0,0,0,93.969,37.75ZM106.07,41H103.6V39.9h-.031a2.768,2.768,0,0,1-2.477,1.3,3.033,3.033,0,0,1-2.414-1.059,4.382,4.382,0,0,1-.914-2.957A4.77,4.77,0,0,1,98.773,34a3.287,3.287,0,0,1,2.641-1.2,2.246,2.246,0,0,1,2.156,1.109h.031V29.156h2.469Zm-2.422-3.891v-.6a1.893,1.893,0,0,0-.453-1.3,1.6,1.6,0,0,0-2.461.129,2.993,2.993,0,0,0-.461,1.77,2.59,2.59,0,0,0,.445,1.625,1.581,1.581,0,0,0,2.457-.031A2.507,2.507,0,0,0,103.648,37.109ZM114.8,41h-2.336V39.852h-.031a2.607,2.607,0,0,1-2.383,1.344,2.492,2.492,0,0,1-1.832-.66,2.366,2.366,0,0,1-.668-1.762q0-2.328,2.758-2.687l2.172-.289q0-1.312-1.422-1.312a4.853,4.853,0,0,0-2.719.852V33.477a6.117,6.117,0,0,1,1.41-.469,7.413,7.413,0,0,1,1.629-.2q3.422,0,3.422,3.414Zm-2.32-3.25v-.539l-1.453.188q-1.2.156-1.2,1.086a.9.9,0,0,0,.293.691,1.126,1.126,0,0,0,.793.27,1.462,1.462,0,0,0,1.133-.48A1.735,1.735,0,0,0,112.484,37.75Zm3.75,3.039v-2a5.256,5.256,0,0,0,1.215.547,4.028,4.028,0,0,0,1.145.18,2.455,2.455,0,0,0,1.035-.18.581.581,0,0,0,.379-.547.506.506,0,0,0-.172-.391,1.6,1.6,0,0,0-.441-.273,5.009,5.009,0,0,0-.59-.211q-.32-.094-.617-.211a5.914,5.914,0,0,1-.84-.387,2.427,2.427,0,0,1-.609-.48,1.889,1.889,0,0,1-.375-.633,2.525,2.525,0,0,1-.129-.852,2.192,2.192,0,0,1,.293-1.156,2.393,2.393,0,0,1,.781-.793,3.57,3.57,0,0,1,1.117-.453,5.825,5.825,0,0,1,1.309-.145,7.261,7.261,0,0,1,1.078.082,8.046,8.046,0,0,1,1.078.238v1.906a3.9,3.9,0,0,0-1-.41,4.235,4.235,0,0,0-1.051-.137,2.328,2.328,0,0,0-.457.043,1.505,1.505,0,0,0-.379.125.7.7,0,0,0-.258.211.486.486,0,0,0-.094.293.541.541,0,0,0,.141.375,1.221,1.221,0,0,0,.367.27,3.625,3.625,0,0,0,.5.2q.277.09.551.184a7.161,7.161,0,0,1,.891.375,2.848,2.848,0,0,1,.684.477,1.872,1.872,0,0,1,.438.641,2.563,2.563,0,0,1-.156,2.09,2.471,2.471,0,0,1-.82.82,3.72,3.72,0,0,1-1.18.461,6.54,6.54,0,0,1-1.387.145A7.149,7.149,0,0,1,116.234,40.789Zm19.8.211H133.57V39.9h-.031a2.768,2.768,0,0,1-2.477,1.3,3.033,3.033,0,0,1-2.414-1.059,4.382,4.382,0,0,1-.914-2.957A4.77,4.77,0,0,1,128.742,34a3.287,3.287,0,0,1,2.641-1.2,2.246,2.246,0,0,1,2.156,1.109h.031V29.156h2.469Zm-2.422-3.891v-.6a1.893,1.893,0,0,0-.453-1.3,1.6,1.6,0,0,0-2.461.129,2.993,2.993,0,0,0-.461,1.77,2.59,2.59,0,0,0,.445,1.625,1.581,1.581,0,0,0,2.457-.031A2.507,2.507,0,0,0,133.617,37.109ZM145.3,37.7h-5.219q.125,1.742,2.2,1.742a4.286,4.286,0,0,0,2.32-.625V40.6a6.1,6.1,0,0,1-2.883.594,3.724,3.724,0,0,1-4.078-4.07,4.281,4.281,0,0,1,1.156-3.156,3.852,3.852,0,0,1,2.844-1.164,3.5,3.5,0,0,1,2.707,1.039,4,4,0,0,1,.957,2.82Zm-2.289-1.516q0-1.719-1.391-1.719a1.328,1.328,0,0,0-1.027.492,2.234,2.234,0,0,0-.527,1.227ZM60.5,65H58.16V63.852h-.031A2.607,2.607,0,0,1,55.746,65.2a2.492,2.492,0,0,1-1.832-.66,2.365,2.365,0,0,1-.668-1.762q0-2.328,2.758-2.687l2.172-.289q0-1.312-1.422-1.312a4.853,4.853,0,0,0-2.719.852V57.477a6.116,6.116,0,0,1,1.41-.469,7.413,7.413,0,0,1,1.629-.2q3.422,0,3.422,3.414Zm-2.32-3.25v-.539l-1.453.188q-1.2.156-1.2,1.086a.9.9,0,0,0,.293.691,1.126,1.126,0,0,0,.793.27,1.462,1.462,0,0,0,1.133-.48A1.735,1.735,0,0,0,58.176,61.75Zm10.336,2.961A4.881,4.881,0,0,1,66.1,65.2a4.083,4.083,0,0,1-2.984-1.117A3.859,3.859,0,0,1,61.973,61.2,4.251,4.251,0,0,1,63.2,57.98a4.518,4.518,0,0,1,3.27-1.176,4.2,4.2,0,0,1,2.047.375v2.094a2.814,2.814,0,0,0-1.727-.578,2.275,2.275,0,0,0-1.684.621,2.317,2.317,0,0,0-.621,1.715,2.28,2.28,0,0,0,.594,1.668,2.182,2.182,0,0,0,1.633.605,3.258,3.258,0,0,0,1.8-.578Zm6.453.2a3.649,3.649,0,0,1-1.648.289q-2.609,0-2.609-2.711V58.82h-1.3V57h1.3V55.273l2.461-.7V57h1.8v1.82h-1.8v3.234q0,1.25.992,1.25a1.673,1.673,0,0,0,.8-.227Zm2.641-9.172a1.442,1.442,0,0,1-1.023-.371,1.2,1.2,0,0,1-.4-.91,1.153,1.153,0,0,1,.4-.906,1.671,1.671,0,0,1,2.051,0,1.158,1.158,0,0,1,.395.906,1.191,1.191,0,0,1-.395.922A1.466,1.466,0,0,1,77.605,55.734ZM78.824,65H76.355V57h2.469Zm9.7-8-2.977,8H82.73l-2.836-8h2.641l1.391,4.93a7.2,7.2,0,0,1,.273,1.422h.031a8.069,8.069,0,0,1,.289-1.375L85.941,57Zm2.3-1.266a1.442,1.442,0,0,1-1.023-.371,1.2,1.2,0,0,1-.4-.91,1.153,1.153,0,0,1,.4-.906,1.671,1.671,0,0,1,2.051,0,1.158,1.158,0,0,1,.395.906,1.191,1.191,0,0,1-.395.922A1.466,1.466,0,0,1,90.824,55.734ZM92.043,65H89.574V57h2.469Zm9.906,0H99.48V63.9h-.031a2.768,2.768,0,0,1-2.477,1.3,3.033,3.033,0,0,1-2.414-1.059,4.382,4.382,0,0,1-.914-2.957A4.77,4.77,0,0,1,94.652,58a3.287,3.287,0,0,1,2.641-1.2,2.246,2.246,0,0,1,2.156,1.109h.031V53.156h2.469Zm-2.422-3.891v-.6a1.893,1.893,0,0,0-.453-1.3,1.6,1.6,0,0,0-2.461.129,2.993,2.993,0,0,0-.461,1.77,2.59,2.59,0,0,0,.445,1.625,1.581,1.581,0,0,0,2.457-.031A2.507,2.507,0,0,0,99.527,61.109ZM110.684,65h-2.336V63.852h-.031a2.607,2.607,0,0,1-2.383,1.344,2.492,2.492,0,0,1-1.832-.66,2.365,2.365,0,0,1-.668-1.762q0-2.328,2.758-2.687l2.172-.289q0-1.312-1.422-1.312a4.853,4.853,0,0,0-2.719.852V57.477a6.117,6.117,0,0,1,1.41-.469,7.413,7.413,0,0,1,1.629-.2q3.422,0,3.422,3.414Zm-2.32-3.25v-.539l-1.453.188q-1.2.156-1.2,1.086a.9.9,0,0,0,.293.691,1.126,1.126,0,0,0,.793.27,1.462,1.462,0,0,0,1.133-.48A1.735,1.735,0,0,0,108.363,61.75Zm12.1,3.25H118V63.9h-.031a2.768,2.768,0,0,1-2.477,1.3,3.033,3.033,0,0,1-2.414-1.059,4.382,4.382,0,0,1-.914-2.957A4.77,4.77,0,0,1,113.168,58a3.287,3.287,0,0,1,2.641-1.2,2.246,2.246,0,0,1,2.156,1.109H118V53.156h2.469Zm-2.422-3.891v-.6a1.893,1.893,0,0,0-.453-1.3,1.6,1.6,0,0,0-2.461.129,2.993,2.993,0,0,0-.461,1.77,2.59,2.59,0,0,0,.445,1.625,1.581,1.581,0,0,0,2.457-.031A2.507,2.507,0,0,0,118.043,61.109Zm11.688.594h-5.219q.125,1.742,2.2,1.742a4.286,4.286,0,0,0,2.32-.625V64.6a6.1,6.1,0,0,1-2.883.594,3.724,3.724,0,0,1-4.078-4.07,4.281,4.281,0,0,1,1.156-3.156,3.852,3.852,0,0,1,2.844-1.164,3.5,3.5,0,0,1,2.707,1.039,4,4,0,0,1,.957,2.82Zm-2.289-1.516q0-1.719-1.391-1.719a1.328,1.328,0,0,0-1.027.492,2.234,2.234,0,0,0-.527,1.227Zm3.234,4.6v-2a5.256,5.256,0,0,0,1.215.547,4.028,4.028,0,0,0,1.145.18,2.455,2.455,0,0,0,1.035-.18.581.581,0,0,0,.379-.547.506.506,0,0,0-.172-.391,1.6,1.6,0,0,0-.441-.273,5.009,5.009,0,0,0-.59-.211q-.32-.094-.617-.211a5.914,5.914,0,0,1-.84-.387,2.427,2.427,0,0,1-.609-.48,1.889,1.889,0,0,1-.375-.633,2.525,2.525,0,0,1-.129-.852,2.192,2.192,0,0,1,.293-1.156,2.393,2.393,0,0,1,.781-.793,3.57,3.57,0,0,1,1.117-.453,5.825,5.825,0,0,1,1.309-.145,7.261,7.261,0,0,1,1.078.082,8.047,8.047,0,0,1,1.078.238v1.906a3.9,3.9,0,0,0-1-.41,4.235,4.235,0,0,0-1.051-.137,2.328,2.328,0,0,0-.457.043,1.505,1.505,0,0,0-.379.125.7.7,0,0,0-.258.211.486.486,0,0,0-.094.293.541.541,0,0,0,.141.375,1.221,1.221,0,0,0,.367.27,3.625,3.625,0,0,0,.5.2q.277.09.551.184a7.161,7.161,0,0,1,.891.375,2.848,2.848,0,0,1,.684.477,1.871,1.871,0,0,1,.438.641,2.563,2.563,0,0,1-.156,2.09,2.471,2.471,0,0,1-.82.82,3.72,3.72,0,0,1-1.18.461,6.54,6.54,0,0,1-1.387.145A7.149,7.149,0,0,1,130.676,64.789Z" transform="translate(967 3451.064)" fill="#12263f"/>
  </g>
</svg>
