<svg xmlns="http://www.w3.org/2000/svg" xmlns:xlink="http://www.w3.org/1999/xlink" width="86.03" height="81.687" viewBox="0 0 86.03 81.687">
  <defs>
    <clipPath id="clip-path">
      <rect id="Rectángulo_50731" data-name="Rectángulo 50731" width="86.03" height="81.687" fill="none"/>
    </clipPath>
  </defs>
  <g id="Grupo_164919" data-name="Grupo 164919" clip-path="url(#clip-path)">
    <path id="Trazado_236550" data-name="Trazado 236550" d="M128.008,147.882l8.785,8.368c1.119,1.066,1.117,1.658-.024,2.738q-2.154,2.039-4.317,4.069h-1.009c-.356-.291-.734-.562-1.066-.876q-6.126-5.8-12.241-11.608c-.176-.167-.362-.326-.568-.512a21,21,0,0,1-25.158-1.6c-.166-.14-.338-.274-.507-.412A21.022,21.022,0,0,1,87.02,140.7l-.243-.829H67.354v-2.706H86.165a18.117,18.117,0,0,1,1.121-9.551,2.32,2.32,0,0,0,.086-.864q.007-6.623,0-13.247v-.839h2.892v9.586c.748-.626,1.579-1.261,2.326-1.975a1.675,1.675,0,0,0,.492-1.074c.04-2.793.022-5.586.022-8.379v-.866h2.886v7.932c.235-.1.383-.146.524-.214.766-.369,1.829-.569,2.21-1.163s.11-1.6.115-2.423c.005-.918,0-1.836,0-2.754h2.88v4.448l2.884-.392V105.9h2.917v9.5l2.5.35.307-.144V103.163h2.946v4.646c-.011,2.793-.027,5.587-.024,8.38,0,.183.088.465.225.531.836.4,1.7.754,2.657,1.168v-9.253h2.843c0,3.282.043,6.5-.025,9.714a2.531,2.531,0,0,0,1.088,2.463c.665.444,1.271.967,1.855,1.418v-8.168h2.814v.9c0,3.726-.022,7.452.018,11.177a14.076,14.076,0,0,0,.386,2.33c.325,1.773.728,3.535.961,5.319a27.152,27.152,0,0,1,.026,3.413h1.429V139.9c-.54,0-1.042.039-1.534-.01-.548-.054-.767.157-.945.635a26.432,26.432,0,0,1-1.171,2.64c-.195.388-.232.635.129.965,1.352,1.232,2.669,2.5,4,3.753m-6.515,1.964L131.9,159.54l2.031-1.9L123.7,147.73l-1.689-1.676-2.18,2.292,1.663,1.5M106.02,118.081c-9.491.012-17.192,7.345-17.183,16.363.008,9.069,7.724,16.367,17.276,16.339,9.511-.028,17.17-7.349,17.138-16.383s-7.737-16.33-17.23-16.318" transform="translate(-52.226 -81.161)" fill="#020202"/>
    <path id="Trazado_236551" data-name="Trazado 236551" d="M21.527,66.568l-2.764-.18.251-1.307a4.374,4.374,0,0,1-3.2-4.588q.034-21.186.012-42.373c0-.186,0-.373,0-.559A4.216,4.216,0,0,1,20.3,13.415q28.538-.01,57.077,0A4.213,4.213,0,0,1,81.88,17.68c0,.386,0,.771,0,1.147l1.384.066q0,1.321-.006,2.642c-.335.014-.67.039-1,.039q-26.435,0-52.869.026a9.384,9.384,0,0,0-3.426.586,6.66,6.66,0,0,0-4.386,6.726q.013,18.352,0,36.7c0,.317-.03.635-.046.952m-2.81-47.747h2.847V16.183H18.717ZM24.5,18.81h2.8V16.16H24.5Zm8.548-2.619H30.238V18.8h2.815Z" transform="translate(-12.265 -10.55)" fill="#86ccd7"/>
    <path id="Trazado_236552" data-name="Trazado 236552" d="M41.237,96.538c.016-.317.046-.635.046-.952q0-18.352,0-36.7a6.66,6.66,0,0,1,4.386-6.726,9.384,9.384,0,0,1,3.426-.586q26.435-.053,52.87-.026c.335,0,.67-.026,1-.039,1.314.048,2.639.006,3.938.162a6.784,6.784,0,0,1,6.133,6.549c.044,4.629.016,9.259.016,13.888q0,14.767.009,29.533a6.907,6.907,0,0,1-1.772,4.816l-1.1-.817-1.045-.947a4.647,4.647,0,0,0,1.052-2.99q-.02-21.556-.011-43.111a4.067,4.067,0,0,0-4.126-4.272c-2.543-.111-5.1,0-7.644.009-.167-.011-.334-.032-.5-.032q-24.591-.011-49.182-.012a4.171,4.171,0,0,0-4.544,4.377c-.012,2.527,0,5.055,0,7.582q0,17.677,0,35.355c0,2.548,1.433,4.3,3.941,4.406,3.353.138,6.718.024,10.078.019,1.981.022,3.962.047,5.943.064.968.009,1.937,0,2.944,0,.025.512.045.93.066,1.349v1.311c-.246.025-.432.059-.617.059-5.932,0-11.865.014-17.8,0-3.658-.01-6.614-2.165-7.267-5.431a24.237,24.237,0,0,1-.185-3.97c-.03-.954-.037-1.908-.054-2.862" transform="translate(-31.975 -40.52)" fill="#030405"/>
    <path id="Trazado_236553" data-name="Trazado 236553" d="M277.107,64.508c2.548-.012,5.1-.119,7.644-.009a4.067,4.067,0,0,1,4.126,4.272q.007,21.555.011,43.111a4.647,4.647,0,0,1-1.052,2.991l1.045.947-2.431,1.606c-1.33-1.254-2.647-2.521-4-3.753-.362-.33-.324-.577-.129-.965a26.445,26.445,0,0,0,1.171-2.64c.177-.478.4-.69.945-.635.492.049.994.01,1.534.01v-2.694h-1.429a27.2,27.2,0,0,0-.026-3.413c-.233-1.783-.636-3.546-.961-5.319a14.077,14.077,0,0,1-.386-2.33c-.041-3.725-.018-7.451-.018-11.177v-.9h-2.814v8.168c-.584-.45-1.19-.974-1.855-1.418a2.531,2.531,0,0,1-1.088-2.463c.068-3.215.025-6.432.025-9.714h-2.843v9.253c-.959-.414-1.821-.766-2.657-1.168-.138-.066-.225-.349-.226-.531,0-2.793.013-5.587.024-8.381.115-.094.286-.166.338-.285,1.467-3.4,2.939-6.791,4.366-10.2a20.732,20.732,0,0,0,.685-2.355" transform="translate(-210.668 -50.704)" fill="#9ea257"/>
    <path id="Trazado_236554" data-name="Trazado 236554" d="M73.384,8.834,72,8.768c0-.376,0-.761,0-1.147a4.213,4.213,0,0,0-4.505-4.265q-28.538-.008-57.077,0A4.216,4.216,0,0,0,5.951,7.5c-.007.186,0,.372,0,.559q0,21.186-.012,42.373a4.374,4.374,0,0,0,3.2,4.588L8.883,56.33l-.429,1.279a6.89,6.89,0,0,1-5.379-6.888q.006-21.472.013-42.944a7.8,7.8,0,0,1,.242-1.971A7.023,7.023,0,0,1,10.236.639C14.861.614,19.486.632,24.11.632q21.652,0,43.3,0c4.749,0,8.036,3.632,7.373,8.136l-1.4.063" transform="translate(-2.384 -0.492)" fill="#020202"/>
    <path id="Trazado_236555" data-name="Trazado 236555" d="M125.73,286.546c-.02-.418-.041-.836-.066-1.348-1.007,0-1.976.007-2.944,0-1.981-.017-3.962-.042-5.943-.064a4.53,4.53,0,0,1,.567-.547c1.4-.955,2.813-1.892,4.217-2.841,1.263-.853,2.52-1.714,3.78-2.571a21.023,21.023,0,0,0,4.883,7.351l-4.495.023" transform="translate(-90.548 -219.633)" fill="#9ea257"/>
    <path id="Trazado_236556" data-name="Trazado 236556" d="M76.931,110.288c-1.26.857-2.517,1.718-3.78,2.571-1.4.949-2.818,1.886-4.217,2.841a4.514,4.514,0,0,0-.567.547c-3.36.006-6.724.119-10.077-.019-2.508-.1-3.94-1.858-3.941-4.406q-.006-17.677,0-35.355c0-2.527-.009-5.055,0-7.582a4.171,4.171,0,0,1,4.544-4.377q24.591-.012,49.181.012c.167,0,.334.021.5.032a20.783,20.783,0,0,1-.685,2.355c-1.427,3.412-2.9,6.807-4.366,10.2-.051.119-.223.191-.338.285V72.75h-2.946V85.189l-.306.144-2.5-.35v-9.5H94.519v9.493l-2.884.392V80.922h-2.88c0,.918,0,1.836,0,2.754,0,.824.274,1.818-.115,2.423s-1.444.794-2.21,1.163c-.14.068-.289.119-.523.214V79.543H83.019v.866c0,2.793.018,5.586-.022,8.379a1.674,1.674,0,0,1-.493,1.074c-.747.714-1.577,1.35-2.326,1.975V82.252H77.287v.839q0,6.624,0,13.247a2.318,2.318,0,0,1-.086.863,18.116,18.116,0,0,0-1.121,9.551H57.265v2.706H76.687l.243.829M65.894,104h2.745V87.694H65.894Zm8.473-12.174H71.6v12.181h2.766Zm-11.45,4.088H60.124V104h2.792ZM57.238,69.923h2.792V67.289H57.238Zm11.483.006h2.792V67.283H68.72ZM63,69.869h2.789V67.278H63Z" transform="translate(-42.137 -50.748)" fill="#ced371"/>
    <path id="Trazado_236557" data-name="Trazado 236557" d="M180.178,173.109c9.493-.012,17.2,7.286,17.23,16.318s-7.627,16.355-17.139,16.383c-9.551.028-17.267-7.27-17.276-16.339-.008-9.018,7.693-16.351,17.184-16.362m.009,2.742c-7.928.013-14.308,6.068-14.321,13.592-.013,7.563,6.385,13.648,14.344,13.645s14.354-6.1,14.325-13.664c-.029-7.517-6.444-13.586-14.349-13.573" transform="translate(-126.384 -136.19)" fill="#ffb500"/>
    <path id="Trazado_236558" data-name="Trazado 236558" d="M310.593,312.13l10.232,9.906-2.031,1.9-10.407-9.694,2.206-2.117" transform="translate(-239.12 -245.561)" fill="#ffb500"/>
    <path id="Trazado_236559" data-name="Trazado 236559" d="M304.853,305.947l-2.206,2.117-1.663-1.5,2.18-2.292,1.689,1.676" transform="translate(-233.38 -239.379)" fill="#fff"/>
    <path id="Trazado_236560" data-name="Trazado 236560" d="M257.323,161.63l.307-.144-.307.144" transform="translate(-199.525 -127.046)" fill="#2c648a"/>
    <rect id="Rectángulo_50722" data-name="Rectángulo 50722" width="2.847" height="2.638" transform="translate(6.452 5.633)" fill="#050a0c"/>
    <rect id="Rectángulo_50723" data-name="Rectángulo 50723" width="2.798" height="2.649" transform="translate(12.239 5.61)" fill="#050a0c"/>
    <rect id="Rectángulo_50724" data-name="Rectángulo 50724" width="2.815" height="2.606" transform="translate(17.973 5.64)" fill="#020405"/>
    <rect id="Rectángulo_50725" data-name="Rectángulo 50725" width="2.745" height="16.305" transform="translate(23.757 36.945)" fill="#010203"/>
    <rect id="Rectángulo_50726" data-name="Rectángulo 50726" width="2.766" height="12.181" transform="translate(29.464 41.077)"/>
    <rect id="Rectángulo_50727" data-name="Rectángulo 50727" width="2.792" height="8.089" transform="translate(17.988 45.165)" fill="#010304"/>
    <rect id="Rectángulo_50728" data-name="Rectángulo 50728" width="2.792" height="2.634" transform="translate(15.101 16.541)" fill="#040809"/>
    <rect id="Rectángulo_50729" data-name="Rectángulo 50729" width="2.792" height="2.646" transform="translate(26.583 16.535)" fill="#030506"/>
    <rect id="Rectángulo_50730" data-name="Rectángulo 50730" width="2.789" height="2.591" transform="translate(20.86 16.53)" fill="#040607"/>
    <path id="Trazado_236561" data-name="Trazado 236561" d="M190.1,185.967c7.9-.013,14.32,6.055,14.348,13.573.029,7.559-6.367,13.66-14.325,13.664s-14.357-6.082-14.344-13.645c.013-7.523,6.393-13.579,14.321-13.592m11.444,13.65a8.869,8.869,0,0,0-1.33-5.12,9.994,9.994,0,0,0-2.929-3.413v8.466h-2.862V191.6c0-2.427-.088-2.518-2.7-2.773-.021,0-.045.02-.186.088v10.649h-2.9V188.74c-.81.194-1.483.363-2.161.515a.768.768,0,0,0-.687.894c.03,2.846.014,5.692.014,8.538v.864h-2.921v-8.424a9.982,9.982,0,0,0-2.871,3.371,8.827,8.827,0,0,0-1.331,5.119l.228,2.679h22.405c.076-.9.152-1.789.228-2.679m-1.526,5.5H180.27a11.784,11.784,0,0,0,19.749,0" transform="translate(-136.299 -146.305)" fill="#020303"/>
    <path id="Trazado_236562" data-name="Trazado 236562" d="M190.042,204.725a9.981,9.981,0,0,1,2.871-3.371v8.424h2.921v-.864c0-2.846.016-5.692-.014-8.538a.768.768,0,0,1,.687-.894c.678-.151,1.351-.321,2.161-.515v10.827h2.9V199.145c.141-.068.165-.09.186-.088,2.607.255,2.7.347,2.7,2.773v7.947h2.862v-8.466a9.994,9.994,0,0,1,2.929,3.413v5.12h1.33c-.075.89-.151,1.78-.228,2.678H188.939c-.077-.9-.152-1.789-.228-2.679l1.331-.058Z" transform="translate(-146.324 -156.533)" fill="#9ea257"/>
    <path id="Trazado_236563" data-name="Trazado 236563" d="M215.517,275.739a11.784,11.784,0,0,1-19.749,0Z" transform="translate(-151.796 -216.932)" fill="#9ea257"/>
    <path id="Trazado_236564" data-name="Trazado 236564" d="M190.015,225.963v5.062l-1.331.058a8.827,8.827,0,0,1,1.331-5.119" transform="translate(-146.297 -177.771)"/>
    <path id="Trazado_236565" data-name="Trazado 236565" d="M285.9,231.084h-1.33v-5.12a8.869,8.869,0,0,1,1.33,5.12" transform="translate(-220.651 -177.772)"/>
  </g>
</svg>
