<svg xmlns="http://www.w3.org/2000/svg" width="591.755" height="39.742" viewBox="0 0 591.755 39.742">
  <g id="Grupo_237741" data-name="Grupo 237741" transform="translate(-518.915 -12248.033)">
    <path id="Trazado_622261" data-name="Trazado 622261" d="M9.238,18.775H7.857L3.932,8.454q-.022-.072-.052-.175t-.059-.22q-.03-.117-.052-.225t-.03-.171H3.695q-.007.09-.019.22t-.026.265q-.015.135-.033.265t-.033.229L1.81,18.775H.578L2.826,5.894H4.318L8.08,16a1.89,1.89,0,0,1,.074.193q.037.112.074.234t.07.238q.033.117.056.2h.03q.007-.108.022-.252t.03-.3q.015-.157.037-.31t.037-.261l1.729-9.845H11.5Zm5.291-.036a2.576,2.576,0,0,1-.883.162,1.363,1.363,0,0,1-1.12-.454,1.865,1.865,0,0,1-.371-1.217,4.476,4.476,0,0,1,.037-.53q.037-.305.119-.755l1.106-6.369h1.232l-1.113,6.4q-.067.377-.093.584a2.881,2.881,0,0,0-.026.35.835.835,0,0,0,.167.561.665.665,0,0,0,.531.193,1.864,1.864,0,0,0,.338-.027,1.287,1.287,0,0,0,.271-.081ZM15.4,6.3a1.084,1.084,0,0,1-.226.692.688.688,0,0,1-.56.287.726.726,0,0,1-.568-.283,1.036,1.036,0,0,1-.241-.7.952.952,0,0,1,.241-.674.75.75,0,0,1,.568-.261.712.712,0,0,1,.557.265A.984.984,0,0,1,15.4,6.3Zm3.228,12.477H17.593l-1.2-9.2h1.232l.668,5.794q.022.171.041.386t.037.44q.019.225.026.44t.007.386h.03q.059-.162.137-.368t.174-.427q.1-.22.2-.445t.189-.413l2.716-5.794h1.388Zm11.049-7.043a3.21,3.21,0,0,1-.267,1.325,2.478,2.478,0,0,1-.883,1.024,4.714,4.714,0,0,1-1.625.66,11.582,11.582,0,0,1-2.493.243,1.39,1.39,0,0,0-.015.207v.18a3.654,3.654,0,0,0,.111.916,2.222,2.222,0,0,0,.345.755,1.671,1.671,0,0,0,.6.512,1.886,1.886,0,0,0,.872.189,3.126,3.126,0,0,0,1.124-.238,4.526,4.526,0,0,0,1.169-.678l-.23,1.455a4.429,4.429,0,0,1-.972.5A3.509,3.509,0,0,1,26.149,19a2.913,2.913,0,0,1-1.414-.314,2.6,2.6,0,0,1-.928-.84,3.573,3.573,0,0,1-.508-1.213,6.5,6.5,0,0,1-.156-1.442,8.013,8.013,0,0,1,.148-1.559,7.251,7.251,0,0,1,.419-1.4,6.139,6.139,0,0,1,.649-1.181,4.626,4.626,0,0,1,.838-.912,3.656,3.656,0,0,1,.987-.584,2.962,2.962,0,0,1,1.091-.207,2.654,2.654,0,0,1,1.035.189,2.107,2.107,0,0,1,.749.517,2.235,2.235,0,0,1,.456.759A2.675,2.675,0,0,1,29.673,11.733Zm-1.239.072a1.131,1.131,0,0,0-.345-.88,1.308,1.308,0,0,0-.916-.314,1.762,1.762,0,0,0-.876.238,2.893,2.893,0,0,0-.779.656,4.127,4.127,0,0,0-.616,1,5.3,5.3,0,0,0-.378,1.253,10.629,10.629,0,0,0,1.8-.13,4.05,4.05,0,0,0,1.21-.382,1.7,1.7,0,0,0,.683-.615A1.584,1.584,0,0,0,28.434,11.8Zm4.615,6.935a2.576,2.576,0,0,1-.883.162,1.363,1.363,0,0,1-1.12-.454,1.865,1.865,0,0,1-.371-1.217,4.476,4.476,0,0,1,.037-.53q.037-.305.119-.755l1.9-10.8h1.232L32.055,15.982q-.067.377-.093.584a2.881,2.881,0,0,0-.026.35.835.835,0,0,0,.167.561.665.665,0,0,0,.531.193,1.864,1.864,0,0,0,.338-.027,1.287,1.287,0,0,0,.271-.081Zm11.709-2.794q-.052.287-.1.692t-.085.813q-.037.409-.063.768t-.026.557H43.223q0-.153.019-.409t.045-.534q.026-.278.056-.534t.052-.418h-.03a9.3,9.3,0,0,1-.534.921,3.466,3.466,0,0,1-.564.665,2.162,2.162,0,0,1-.631.4,2.063,2.063,0,0,1-1.67-.09,2,2,0,0,1-.709-.66,3.321,3.321,0,0,1-.449-1.078,6.3,6.3,0,0,1-.156-1.478,8.756,8.756,0,0,1,.115-1.383,8.224,8.224,0,0,1,.356-1.41,7.092,7.092,0,0,1,.612-1.311,4.792,4.792,0,0,1,.883-1.087,4,4,0,0,1,1.172-.741,3.82,3.82,0,0,1,1.477-.274,4.155,4.155,0,0,1,.772.067q.356.067.616.139l.772-4.4h1.2Zm-.319-5.12a4.079,4.079,0,0,0-.59-.157,3.524,3.524,0,0,0-.657-.058,2.551,2.551,0,0,0-1.139.243,2.852,2.852,0,0,0-.861.647,3.828,3.828,0,0,0-.616.921,6.448,6.448,0,0,0-.4,1.06,7.108,7.108,0,0,0-.215,1.069,8.026,8.026,0,0,0-.063.948,5.469,5.469,0,0,0,.07.916,2.313,2.313,0,0,0,.23.71,1.212,1.212,0,0,0,.412.458,1.1,1.1,0,0,0,.608.162,1.352,1.352,0,0,0,.694-.189,2.443,2.443,0,0,0,.6-.512,4.15,4.15,0,0,0,.512-.746,7.776,7.776,0,0,0,.416-.9,9.046,9.046,0,0,0,.315-.966q.13-.49.211-.939Zm8.979.907a3.21,3.21,0,0,1-.267,1.325,2.478,2.478,0,0,1-.883,1.024,4.714,4.714,0,0,1-1.625.66,11.582,11.582,0,0,1-2.493.243,1.39,1.39,0,0,0-.015.207v.18a3.654,3.654,0,0,0,.111.916,2.222,2.222,0,0,0,.345.755,1.671,1.671,0,0,0,.6.512,1.886,1.886,0,0,0,.872.189,3.126,3.126,0,0,0,1.124-.238,4.526,4.526,0,0,0,1.169-.678l-.23,1.455a4.429,4.429,0,0,1-.972.5A3.509,3.509,0,0,1,49.894,19a2.913,2.913,0,0,1-1.414-.314,2.6,2.6,0,0,1-.928-.84,3.573,3.573,0,0,1-.508-1.213,6.5,6.5,0,0,1-.156-1.442,8.013,8.013,0,0,1,.148-1.559,7.251,7.251,0,0,1,.419-1.4,6.139,6.139,0,0,1,.649-1.181,4.626,4.626,0,0,1,.838-.912,3.656,3.656,0,0,1,.987-.584,2.962,2.962,0,0,1,1.091-.207,2.654,2.654,0,0,1,1.035.189,2.107,2.107,0,0,1,.749.517,2.235,2.235,0,0,1,.456.759A2.675,2.675,0,0,1,53.418,11.733Zm-1.239.072a1.131,1.131,0,0,0-.345-.88,1.308,1.308,0,0,0-.916-.314,1.763,1.763,0,0,0-.876.238,2.893,2.893,0,0,0-.779.656,4.127,4.127,0,0,0-.616,1,5.3,5.3,0,0,0-.378,1.253,10.629,10.629,0,0,0,1.8-.13,4.05,4.05,0,0,0,1.21-.382,1.7,1.7,0,0,0,.683-.615A1.584,1.584,0,0,0,52.179,11.8ZM64.3,11.4a2.769,2.769,0,0,0-.753-.561,2.087,2.087,0,0,0-.976-.229,1.961,1.961,0,0,0-.924.216,2.56,2.56,0,0,0-.731.575,3.694,3.694,0,0,0-.549.826,6.1,6.1,0,0,0-.378.97,7,7,0,0,0-.219,1,6.665,6.665,0,0,0-.07.93,3.38,3.38,0,0,0,.467,1.949,1.479,1.479,0,0,0,1.276.665,2.39,2.39,0,0,0,1.017-.247,4.672,4.672,0,0,0,.994-.633l-.26,1.473a4.763,4.763,0,0,1-.961.49A2.924,2.924,0,0,1,61.217,19,2.452,2.452,0,0,1,60,18.713a2.491,2.491,0,0,1-.857-.79,3.68,3.68,0,0,1-.512-1.19,6.157,6.157,0,0,1-.171-1.487,8.739,8.739,0,0,1,.126-1.487,7.388,7.388,0,0,1,.375-1.383,6.333,6.333,0,0,1,.612-1.208,4.392,4.392,0,0,1,.835-.957,3.738,3.738,0,0,1,1.05-.629,3.377,3.377,0,0,1,1.254-.229,3.319,3.319,0,0,1,.608.054,3.087,3.087,0,0,1,.527.144,3.193,3.193,0,0,1,.423.193,1.686,1.686,0,0,1,.3.2Zm7.769,1.581A9.155,9.155,0,0,1,71.78,15.3a6.442,6.442,0,0,1-.824,1.918,4.258,4.258,0,0,1-1.306,1.3A3.2,3.2,0,0,1,67.917,19a2.68,2.68,0,0,1-1.176-.252,2.479,2.479,0,0,1-.89-.723,3.391,3.391,0,0,1-.564-1.141,5.369,5.369,0,0,1-.2-1.514,8.955,8.955,0,0,1,.3-2.367,6.465,6.465,0,0,1,.846-1.913,4.2,4.2,0,0,1,1.306-1.276,3.172,3.172,0,0,1,1.681-.463,2.662,2.662,0,0,1,1.169.252,2.512,2.512,0,0,1,.894.723,3.453,3.453,0,0,1,.575,1.141A5.186,5.186,0,0,1,72.065,12.981Zm-1.247.072a4.111,4.111,0,0,0-.119-1.038,2.39,2.39,0,0,0-.334-.764,1.514,1.514,0,0,0-.519-.476,1.4,1.4,0,0,0-.683-.166,1.89,1.89,0,0,0-1.18.4,3.359,3.359,0,0,0-.89,1.064,5.868,5.868,0,0,0-.56,1.5,7.521,7.521,0,0,0-.2,1.72,4.114,4.114,0,0,0,.115,1.011,2.5,2.5,0,0,0,.326.773,1.485,1.485,0,0,0,.519.49,1.407,1.407,0,0,0,.694.171,1.914,1.914,0,0,0,1.187-.4,3.308,3.308,0,0,0,.89-1.06,5.767,5.767,0,0,0,.557-1.5A7.718,7.718,0,0,0,70.819,13.053Zm9.483-.261a8.88,8.88,0,0,1-.1,1.307,8.133,8.133,0,0,1-.334,1.383,7.772,7.772,0,0,1-.586,1.325,4.829,4.829,0,0,1-.857,1.123,3.962,3.962,0,0,1-1.158.777A3.626,3.626,0,0,1,75.776,19a4.445,4.445,0,0,1-.7-.058,5.2,5.2,0,0,1-.712-.166,4.889,4.889,0,0,1-.668-.261,3.316,3.316,0,0,1-.579-.35L75.4,5.157h1.232l-.764,4.4q-.082.44-.167.925t-.167.862h.015a6.5,6.5,0,0,1,.5-.826,3.539,3.539,0,0,1,.575-.629,2.365,2.365,0,0,1,.66-.4,2.072,2.072,0,0,1,.768-.139,1.87,1.87,0,0,1,1.666.9A4.665,4.665,0,0,1,80.3,12.793Zm-1.247.036a5.014,5.014,0,0,0-.078-.925,2.2,2.2,0,0,0-.245-.7,1.191,1.191,0,0,0-.427-.44,1.224,1.224,0,0,0-.631-.153,1.45,1.45,0,0,0-.9.332,3.519,3.519,0,0,0-.787.88,6.385,6.385,0,0,0-.616,1.24A7.466,7.466,0,0,0,75,14.473l-.5,2.866a2.364,2.364,0,0,0,.634.287,2.689,2.689,0,0,0,.79.117,2.192,2.192,0,0,0,.965-.211,2.682,2.682,0,0,0,.787-.579,3.931,3.931,0,0,0,.608-.853,5.951,5.951,0,0,0,.43-1.029,7.284,7.284,0,0,0,.256-1.123A7.676,7.676,0,0,0,79.055,12.829Zm8.934-1.1a3.21,3.21,0,0,1-.267,1.325,2.478,2.478,0,0,1-.883,1.024,4.714,4.714,0,0,1-1.625.66,11.582,11.582,0,0,1-2.493.243,1.39,1.39,0,0,0-.015.207v.18a3.654,3.654,0,0,0,.111.916,2.222,2.222,0,0,0,.345.755,1.671,1.671,0,0,0,.6.512,1.886,1.886,0,0,0,.872.189A3.126,3.126,0,0,0,85.76,17.5a4.526,4.526,0,0,0,1.169-.678l-.23,1.455a4.429,4.429,0,0,1-.972.5A3.509,3.509,0,0,1,84.465,19a2.913,2.913,0,0,1-1.414-.314,2.6,2.6,0,0,1-.928-.84,3.573,3.573,0,0,1-.508-1.213,6.5,6.5,0,0,1-.156-1.442,8.014,8.014,0,0,1,.148-1.559,7.251,7.251,0,0,1,.419-1.4,6.139,6.139,0,0,1,.649-1.181,4.626,4.626,0,0,1,.838-.912,3.657,3.657,0,0,1,.987-.584,2.962,2.962,0,0,1,1.091-.207,2.654,2.654,0,0,1,1.035.189,2.107,2.107,0,0,1,.749.517,2.235,2.235,0,0,1,.456.759A2.675,2.675,0,0,1,87.989,11.733ZM86.75,11.8a1.131,1.131,0,0,0-.345-.88,1.308,1.308,0,0,0-.916-.314,1.762,1.762,0,0,0-.876.238,2.893,2.893,0,0,0-.779.656,4.126,4.126,0,0,0-.616,1,5.3,5.3,0,0,0-.378,1.253,10.629,10.629,0,0,0,1.8-.13,4.05,4.05,0,0,0,1.21-.382,1.7,1.7,0,0,0,.683-.615A1.584,1.584,0,0,0,86.75,11.8Zm7.213-.665h-.03a2.029,2.029,0,0,0-.39-.211,1.208,1.208,0,0,0-.479-.1,1.253,1.253,0,0,0-.824.337,3.442,3.442,0,0,0-.716.889,6.9,6.9,0,0,0-.564,1.262,9.992,9.992,0,0,0-.375,1.455l-.712,4.006H88.657l1.069-6.108q.067-.377.134-.79t.122-.826q.056-.413.1-.79t.067-.683h1.2q-.022.269-.052.57t-.059.584q-.03.283-.059.512t-.045.355h.03a10.407,10.407,0,0,1,.482-.925,4.126,4.126,0,0,1,.516-.705,2.194,2.194,0,0,1,.575-.454,1.385,1.385,0,0,1,.66-.162,1.744,1.744,0,0,1,.412.049q.2.049.367.1Zm4.831-.314H96.879L96.026,15.7q-.045.278-.089.6a4.006,4.006,0,0,0-.045.521,1.038,1.038,0,0,0,.167.66.649.649,0,0,0,.531.2.975.975,0,0,0,.23-.036q.141-.036.289-.09t.293-.121l.256-.121-.23,1.294a3.171,3.171,0,0,1-.59.229,2.284,2.284,0,0,1-.627.094,1.787,1.787,0,0,1-.72-.13,1.233,1.233,0,0,1-.486-.373,1.544,1.544,0,0,1-.275-.588,3.249,3.249,0,0,1-.085-.777,5.253,5.253,0,0,1,.041-.606q.041-.346.1-.633l.876-5H94.4l.23-1.249h1.247l.393-2.246a2.012,2.012,0,0,1,.226-.085q.2-.067.43-.153l.43-.157.219-.081-.467,2.722h1.914Zm6.693,5.336q-.067.35-.122.728l-.108.728q-.052.35-.089.656t-.059.5h-1.187q.037-.35.085-.732t.093-.705q.052-.377.1-.737h-.03a7.664,7.664,0,0,1-.575.93,4.755,4.755,0,0,1-.683.764,3.123,3.123,0,0,1-.779.517,2.036,2.036,0,0,1-.857.189,1.889,1.889,0,0,1-.857-.184A1.693,1.693,0,0,1,99.8,18.3a2.328,2.328,0,0,1-.367-.8,4.111,4.111,0,0,1-.122-1.042,3.047,3.047,0,0,1,.03-.35q.03-.234.067-.5t.085-.534q.048-.265.078-.454l.883-5.039h1.232l-.942,5.39q-.03.144-.059.332t-.056.377q-.026.189-.041.346t-.015.247a1.886,1.886,0,0,0,.271,1.073.916.916,0,0,0,.813.4,1.46,1.46,0,0,0,.653-.162,2.884,2.884,0,0,0,.634-.436,4.384,4.384,0,0,0,.582-.638,6.215,6.215,0,0,0,.5-.773,6.06,6.06,0,0,0,.378-.84,5.337,5.337,0,0,0,.23-.826l.794-4.491h1.224Zm7.264-5.021h-.03a2.029,2.029,0,0,0-.39-.211,1.208,1.208,0,0,0-.479-.1,1.253,1.253,0,0,0-.824.337,3.442,3.442,0,0,0-.716.889,6.9,6.9,0,0,0-.564,1.262,9.992,9.992,0,0,0-.375,1.455l-.712,4.006h-1.217l1.069-6.108q.067-.377.134-.79t.122-.826q.056-.413.1-.79t.067-.683h1.2q-.022.269-.052.57t-.059.584q-.03.283-.059.512t-.045.355h.03a10.407,10.407,0,0,1,.482-.925,4.126,4.126,0,0,1,.516-.705,2.194,2.194,0,0,1,.575-.454,1.385,1.385,0,0,1,.66-.162,1.744,1.744,0,0,1,.412.049q.2.049.367.1Zm6.426,4.689q-.059.341-.115.768t-.1.844q-.041.418-.067.777t-.026.557h-1.261q.007-.18.022-.431t.041-.521q.026-.269.052-.53t.056-.449h-.03q-.23.44-.467.831a3.812,3.812,0,0,1-.527.687,2.268,2.268,0,0,1-.646.467,2.08,2.08,0,0,1-1.747-.045,1.985,1.985,0,0,1-.709-.642,3.217,3.217,0,0,1-.456-1.069,6.246,6.246,0,0,1-.16-1.5,9.033,9.033,0,0,1,.089-1.186,8.5,8.5,0,0,1,.3-1.356,7.56,7.56,0,0,1,.564-1.352,4.941,4.941,0,0,1,.876-1.181,3.93,3.93,0,0,1,2.883-1.15,7.265,7.265,0,0,1,1.224.108q.631.108,1.254.261Zm-.349-5.039a5.4,5.4,0,0,0-.608-.126,4.289,4.289,0,0,0-.653-.054,2.512,2.512,0,0,0-1.139.247,2.905,2.905,0,0,0-.857.647,3.771,3.771,0,0,0-.612.921,6.358,6.358,0,0,0-.4,1.064,7.387,7.387,0,0,0-.211,1.073,8.2,8.2,0,0,0-.063.961,5.182,5.182,0,0,0,.074.921,2.264,2.264,0,0,0,.234.7,1.2,1.2,0,0,0,.408.445,1.08,1.08,0,0,0,.59.157,1.377,1.377,0,0,0,.694-.184,2.442,2.442,0,0,0,.6-.5,3.993,3.993,0,0,0,.512-.728,7.658,7.658,0,0,0,.416-.876,8.464,8.464,0,0,0,.315-.943q.13-.481.211-.93Zm12.733,5.156q-.052.287-.1.692t-.085.813q-.037.409-.063.768t-.026.557h-1.261q0-.153.019-.409t.045-.534q.026-.278.056-.534t.052-.418h-.03a9.3,9.3,0,0,1-.534.921,3.467,3.467,0,0,1-.564.665,2.161,2.161,0,0,1-.631.4,2.063,2.063,0,0,1-1.67-.09,2,2,0,0,1-.709-.66,3.321,3.321,0,0,1-.449-1.078,6.3,6.3,0,0,1-.156-1.478,8.755,8.755,0,0,1,.115-1.383,8.224,8.224,0,0,1,.356-1.41,7.091,7.091,0,0,1,.612-1.311,4.792,4.792,0,0,1,.883-1.087,4,4,0,0,1,1.172-.741,3.82,3.82,0,0,1,1.477-.274,4.155,4.155,0,0,1,.772.067q.356.067.616.139l.772-4.4h1.2Zm-.319-5.12a4.079,4.079,0,0,0-.59-.157A3.523,3.523,0,0,0,130,10.61a2.551,2.551,0,0,0-1.139.243A2.852,2.852,0,0,0,128,11.5a3.828,3.828,0,0,0-.616.921,6.448,6.448,0,0,0-.4,1.06,7.108,7.108,0,0,0-.215,1.069,8.026,8.026,0,0,0-.063.948,5.468,5.468,0,0,0,.07.916,2.313,2.313,0,0,0,.23.71,1.212,1.212,0,0,0,.412.458,1.1,1.1,0,0,0,.608.162,1.352,1.352,0,0,0,.694-.189,2.443,2.443,0,0,0,.6-.512,4.15,4.15,0,0,0,.512-.746,7.777,7.777,0,0,0,.416-.9,9.044,9.044,0,0,0,.315-.966q.13-.49.211-.939Zm8.979.907a3.21,3.21,0,0,1-.267,1.325,2.478,2.478,0,0,1-.883,1.024,4.714,4.714,0,0,1-1.625.66,11.582,11.582,0,0,1-2.493.243,1.389,1.389,0,0,0-.015.207v.18a3.654,3.654,0,0,0,.111.916,2.222,2.222,0,0,0,.345.755,1.671,1.671,0,0,0,.6.512,1.886,1.886,0,0,0,.872.189,3.126,3.126,0,0,0,1.124-.238,4.526,4.526,0,0,0,1.169-.678l-.23,1.455a4.429,4.429,0,0,1-.972.5A3.509,3.509,0,0,1,136.7,19a2.913,2.913,0,0,1-1.414-.314,2.6,2.6,0,0,1-.928-.84,3.573,3.573,0,0,1-.508-1.213,6.5,6.5,0,0,1-.156-1.442,8.013,8.013,0,0,1,.148-1.559,7.252,7.252,0,0,1,.419-1.4,6.14,6.14,0,0,1,.649-1.181,4.626,4.626,0,0,1,.839-.912,3.656,3.656,0,0,1,.987-.584,2.962,2.962,0,0,1,1.091-.207,2.654,2.654,0,0,1,1.035.189,2.107,2.107,0,0,1,.749.517,2.235,2.235,0,0,1,.456.759A2.675,2.675,0,0,1,140.221,11.733Zm-1.239.072a1.131,1.131,0,0,0-.345-.88,1.308,1.308,0,0,0-.916-.314,1.762,1.762,0,0,0-.876.238,2.893,2.893,0,0,0-.779.656,4.126,4.126,0,0,0-.616,1,5.3,5.3,0,0,0-.378,1.253,10.629,10.629,0,0,0,1.8-.13,4.05,4.05,0,0,0,1.21-.382,1.7,1.7,0,0,0,.683-.615A1.584,1.584,0,0,0,138.982,11.8Zm8.793,6.935a2.576,2.576,0,0,1-.883.162,1.363,1.363,0,0,1-1.12-.454,1.865,1.865,0,0,1-.371-1.217,4.473,4.473,0,0,1,.037-.53q.037-.305.119-.755l1.106-6.369h1.232l-1.113,6.4q-.067.377-.093.584a2.881,2.881,0,0,0-.026.35.835.835,0,0,0,.167.561.665.665,0,0,0,.531.193,1.864,1.864,0,0,0,.338-.027,1.287,1.287,0,0,0,.271-.081ZM148.643,6.3a1.084,1.084,0,0,1-.226.692.688.688,0,0,1-.56.287.726.726,0,0,1-.568-.283,1.036,1.036,0,0,1-.241-.7.952.952,0,0,1,.241-.674.75.75,0,0,1,.568-.261.711.711,0,0,1,.557.265A.984.984,0,0,1,148.643,6.3Zm7.739,5.578a3.531,3.531,0,0,1-.026.368q-.026.234-.067.5t-.082.534q-.041.265-.078.454l-.883,5.039h-1.232l.928-5.39q.03-.144.059-.332t.052-.377q.022-.189.037-.346t.015-.247a1.882,1.882,0,0,0-.271-1.078.912.912,0,0,0-.805-.4,1.644,1.644,0,0,0-.972.35,4.278,4.278,0,0,0-.89.889,6.186,6.186,0,0,0-.7,1.186,5.163,5.163,0,0,0-.4,1.249l-.794,4.491h-1.232l1.172-6.566q.059-.35.119-.732t.111-.737q.052-.355.089-.66t.059-.5h1.187q-.037.35-.089.732t-.089.705q-.045.377-.1.737h.03a7.665,7.665,0,0,1,.575-.93,4.756,4.756,0,0,1,.683-.764,3.122,3.122,0,0,1,.779-.517,2.052,2.052,0,0,1,.864-.189,1.9,1.9,0,0,1,.868.184,1.669,1.669,0,0,1,.6.517,2.27,2.27,0,0,1,.356.8A4.281,4.281,0,0,1,156.382,11.877Zm5.9-1.051h-1.914l-.853,4.878q-.045.278-.089.6a4,4,0,0,0-.045.521,1.038,1.038,0,0,0,.167.66.65.65,0,0,0,.531.2.975.975,0,0,0,.23-.036q.141-.036.289-.09t.293-.121l.256-.121-.23,1.294a3.171,3.171,0,0,1-.59.229,2.285,2.285,0,0,1-.627.094,1.786,1.786,0,0,1-.72-.13,1.233,1.233,0,0,1-.486-.373,1.544,1.544,0,0,1-.275-.588,3.25,3.25,0,0,1-.085-.777,5.258,5.258,0,0,1,.041-.606q.041-.346.1-.633l.876-5h-1.261l.23-1.249h1.247l.393-2.246a2.012,2.012,0,0,1,.226-.085q.2-.067.43-.153l.43-.157.219-.081L160.6,9.577h1.914Zm6.9.907a3.21,3.21,0,0,1-.267,1.325,2.478,2.478,0,0,1-.883,1.024,4.714,4.714,0,0,1-1.625.66,11.582,11.582,0,0,1-2.493.243,1.389,1.389,0,0,0-.015.207v.18a3.654,3.654,0,0,0,.111.916,2.222,2.222,0,0,0,.345.755,1.671,1.671,0,0,0,.6.512,1.886,1.886,0,0,0,.872.189,3.126,3.126,0,0,0,1.124-.238,4.526,4.526,0,0,0,1.169-.678l-.23,1.455a4.429,4.429,0,0,1-.972.5,3.509,3.509,0,0,1-1.261.216,2.913,2.913,0,0,1-1.414-.314,2.6,2.6,0,0,1-.928-.84,3.573,3.573,0,0,1-.508-1.213,6.5,6.5,0,0,1-.156-1.442,8.013,8.013,0,0,1,.148-1.559,7.25,7.25,0,0,1,.419-1.4,6.139,6.139,0,0,1,.649-1.181,4.626,4.626,0,0,1,.838-.912,3.657,3.657,0,0,1,.987-.584,2.962,2.962,0,0,1,1.091-.207,2.654,2.654,0,0,1,1.035.189,2.107,2.107,0,0,1,.749.517,2.235,2.235,0,0,1,.456.759A2.675,2.675,0,0,1,169.182,11.733Zm-1.239.072a1.131,1.131,0,0,0-.345-.88,1.308,1.308,0,0,0-.916-.314,1.762,1.762,0,0,0-.876.238,2.893,2.893,0,0,0-.779.656,4.127,4.127,0,0,0-.616,1,5.3,5.3,0,0,0-.378,1.253,10.629,10.629,0,0,0,1.8-.13,4.05,4.05,0,0,0,1.21-.382,1.7,1.7,0,0,0,.683-.615A1.584,1.584,0,0,0,167.943,11.8Zm7.213-.665h-.03a2.029,2.029,0,0,0-.39-.211,1.208,1.208,0,0,0-.479-.1,1.253,1.253,0,0,0-.824.337,3.442,3.442,0,0,0-.716.889,6.9,6.9,0,0,0-.564,1.262,9.994,9.994,0,0,0-.375,1.455l-.712,4.006H169.85l1.069-6.108q.067-.377.134-.79t.122-.826q.056-.413.1-.79t.067-.683h1.2q-.022.269-.052.57t-.059.584q-.03.283-.059.512t-.045.355h.03a10.407,10.407,0,0,1,.482-.925,4.125,4.125,0,0,1,.516-.705,2.194,2.194,0,0,1,.575-.454,1.386,1.386,0,0,1,.66-.162A1.744,1.744,0,0,1,175,9.4q.2.049.367.1Zm6.819.593a3.209,3.209,0,0,1-.267,1.325,2.478,2.478,0,0,1-.883,1.024,4.714,4.714,0,0,1-1.625.66,11.582,11.582,0,0,1-2.493.243,1.389,1.389,0,0,0-.015.207v.18a3.654,3.654,0,0,0,.111.916,2.222,2.222,0,0,0,.345.755,1.671,1.671,0,0,0,.6.512,1.886,1.886,0,0,0,.872.189,3.126,3.126,0,0,0,1.124-.238,4.526,4.526,0,0,0,1.169-.678l-.23,1.455a4.429,4.429,0,0,1-.972.5A3.509,3.509,0,0,1,178.45,19a2.913,2.913,0,0,1-1.414-.314,2.6,2.6,0,0,1-.928-.84,3.573,3.573,0,0,1-.508-1.213,6.5,6.5,0,0,1-.156-1.442,8.013,8.013,0,0,1,.148-1.559,7.25,7.25,0,0,1,.419-1.4,6.139,6.139,0,0,1,.649-1.181,4.626,4.626,0,0,1,.839-.912,3.656,3.656,0,0,1,.987-.584,2.962,2.962,0,0,1,1.091-.207,2.654,2.654,0,0,1,1.035.189,2.107,2.107,0,0,1,.749.517,2.235,2.235,0,0,1,.456.759A2.675,2.675,0,0,1,181.975,11.733Zm-1.239.072a1.131,1.131,0,0,0-.345-.88,1.308,1.308,0,0,0-.916-.314,1.762,1.762,0,0,0-.876.238,2.893,2.893,0,0,0-.779.656,4.127,4.127,0,0,0-.616,1,5.3,5.3,0,0,0-.378,1.253,10.629,10.629,0,0,0,1.8-.13,4.05,4.05,0,0,0,1.21-.382,1.7,1.7,0,0,0,.683-.615A1.584,1.584,0,0,0,180.736,11.8Zm6.908-.611a2.948,2.948,0,0,0-.749-.422,2.277,2.277,0,0,0-.831-.162,1.451,1.451,0,0,0-1.08.386,1.392,1.392,0,0,0-.382,1.024,1.46,1.46,0,0,0,.278.885,2.06,2.06,0,0,0,.349.373q.211.18.486.386a4.114,4.114,0,0,1,1.2,1.2,2.655,2.655,0,0,1,.367,1.388,3.325,3.325,0,0,1-.16,1.02,2.352,2.352,0,0,1-.508.88,2.535,2.535,0,0,1-.9.615,3.459,3.459,0,0,1-1.347.234,3.7,3.7,0,0,1-.49-.036,4.367,4.367,0,0,1-.538-.108,4.075,4.075,0,0,1-.519-.175,2.121,2.121,0,0,1-.434-.238l.245-1.4a2.483,2.483,0,0,0,.367.252,3.434,3.434,0,0,0,.475.225,3.82,3.82,0,0,0,.534.162,2.5,2.5,0,0,0,.553.063,1.529,1.529,0,0,0,1.109-.359,1.331,1.331,0,0,0,.367-1,1.587,1.587,0,0,0-.056-.431,1.283,1.283,0,0,0-.2-.4,2.391,2.391,0,0,0-.371-.4q-.23-.2-.579-.454a4.074,4.074,0,0,1-1.117-1.163,2.632,2.632,0,0,1-.36-1.37,3.317,3.317,0,0,1,.171-1.064,2.651,2.651,0,0,1,.508-.9,2.445,2.445,0,0,1,.85-.624,2.854,2.854,0,0,1,1.195-.234,3.971,3.971,0,0,1,1.013.126,3.182,3.182,0,0,1,.813.323Zm7.732.539a3.21,3.21,0,0,1-.267,1.325,2.478,2.478,0,0,1-.883,1.024,4.714,4.714,0,0,1-1.625.66,11.582,11.582,0,0,1-2.493.243,1.391,1.391,0,0,0-.015.207v.18a3.654,3.654,0,0,0,.111.916,2.222,2.222,0,0,0,.345.755,1.671,1.671,0,0,0,.6.512,1.886,1.886,0,0,0,.872.189,3.126,3.126,0,0,0,1.124-.238,4.526,4.526,0,0,0,1.169-.678l-.23,1.455a4.429,4.429,0,0,1-.972.5,3.509,3.509,0,0,1-1.261.216,2.913,2.913,0,0,1-1.414-.314,2.6,2.6,0,0,1-.928-.84A3.573,3.573,0,0,1,189,16.633a6.5,6.5,0,0,1-.156-1.442,8.012,8.012,0,0,1,.148-1.559,7.251,7.251,0,0,1,.419-1.4,6.139,6.139,0,0,1,.649-1.181,4.626,4.626,0,0,1,.838-.912,3.656,3.656,0,0,1,.987-.584,2.962,2.962,0,0,1,1.091-.207,2.654,2.654,0,0,1,1.035.189,2.107,2.107,0,0,1,.749.517,2.235,2.235,0,0,1,.456.759A2.675,2.675,0,0,1,195.376,11.733Zm-1.239.072a1.131,1.131,0,0,0-.345-.88,1.308,1.308,0,0,0-.916-.314,1.763,1.763,0,0,0-.876.238,2.893,2.893,0,0,0-.779.656,4.126,4.126,0,0,0-.616,1,5.3,5.3,0,0,0-.378,1.253,10.629,10.629,0,0,0,1.8-.13,4.05,4.05,0,0,0,1.21-.382,1.7,1.7,0,0,0,.683-.615A1.584,1.584,0,0,0,194.137,11.8Zm6.908-.611a2.948,2.948,0,0,0-.749-.422,2.277,2.277,0,0,0-.831-.162,1.451,1.451,0,0,0-1.08.386A1.393,1.393,0,0,0,198,12.02a1.46,1.46,0,0,0,.278.885,2.06,2.06,0,0,0,.349.373q.211.18.486.386a4.114,4.114,0,0,1,1.2,1.2,2.655,2.655,0,0,1,.367,1.388,3.325,3.325,0,0,1-.16,1.02,2.353,2.353,0,0,1-.508.88,2.535,2.535,0,0,1-.9.615,3.459,3.459,0,0,1-1.347.234,3.7,3.7,0,0,1-.49-.036,4.367,4.367,0,0,1-.538-.108,4.075,4.075,0,0,1-.519-.175,2.12,2.12,0,0,1-.434-.238l.245-1.4a2.482,2.482,0,0,0,.367.252,3.433,3.433,0,0,0,.475.225,3.819,3.819,0,0,0,.534.162,2.5,2.5,0,0,0,.553.063,1.529,1.529,0,0,0,1.109-.359,1.331,1.331,0,0,0,.367-1,1.586,1.586,0,0,0-.056-.431,1.282,1.282,0,0,0-.2-.4,2.39,2.39,0,0,0-.371-.4q-.23-.2-.579-.454a4.074,4.074,0,0,1-1.117-1.163,2.632,2.632,0,0,1-.36-1.37,3.317,3.317,0,0,1,.171-1.064,2.651,2.651,0,0,1,.508-.9,2.445,2.445,0,0,1,.85-.624,2.854,2.854,0,0,1,1.195-.234,3.971,3.971,0,0,1,1.013.126,3.182,3.182,0,0,1,.813.323Zm6.7.907V10.9h6.975v1.2Zm0,3.827v-1.2h6.975v1.2ZM564.767,5.894q-.052.081-.26.377T564,7.008q-.3.44-.683.975l-.772,1.091-.775,1.1q-.382.543-.694.984t-.527.75q-.215.31-.275.409.022.09.126.4t.26.75q.156.445.345.988t.386,1.1l.386,1.1.345.984q.156.445.263.746t.137.391h-1.447l-1.581-4.932q-.015-.045-.037-.13t-.044-.184q-.022-.1-.037-.193t-.03-.157h-.03q-.022.054-.059.139t-.085.189q-.048.1-.1.2a1.422,1.422,0,0,1-.1.171l-3.376,4.9h-1.6l.267-.373q.215-.3.534-.741l.712-.984q.393-.543.8-1.114t.809-1.123q.4-.552.731-1.015t.568-.79q.237-.328.319-.445-.037-.135-.152-.463t-.275-.773l-.349-.97q-.189-.525-.386-1.064t-.382-1.051q-.185-.512-.334-.93t-.249-.7q-.1-.278-.122-.35h1.469l1.506,4.806q.022.063.048.148t.048.18q.022.094.045.184a1.274,1.274,0,0,1,.03.153h.03q.022-.054.059-.139t.085-.18l.1-.193a1.422,1.422,0,0,1,.1-.171l3.265-4.788Zm6.448,12.881L573.2,7.556l-2.627.862L570.829,7l3.9-1.32-2.285,13.1Zm12.926-9.288q0,.674-.052,1.406t-.163,1.478q-.111.746-.286,1.478a13.332,13.332,0,0,1-.419,1.415,10.388,10.388,0,0,1-.56,1.289,6.8,6.8,0,0,1-.709,1.1A3.187,3.187,0,0,1,579.385,19a2.2,2.2,0,0,1-1.1-.283,2.5,2.5,0,0,1-.857-.826,4.321,4.321,0,0,1-.553-1.338,7.653,7.653,0,0,1-.2-1.828,16.56,16.56,0,0,1,.134-2.062,15.061,15.061,0,0,1,.408-2.075,12.586,12.586,0,0,1,.683-1.909,7.2,7.2,0,0,1,.965-1.581,4.062,4.062,0,0,1,1.18-1.047,2.925,2.925,0,0,1,1.477-.373,2.361,2.361,0,0,1,1.076.243,2.272,2.272,0,0,1,.827.723,3.572,3.572,0,0,1,.531,1.19A6.575,6.575,0,0,1,584.141,9.487Zm-1.232.126a4.186,4.186,0,0,0-.386-1.972,1.215,1.215,0,0,0-1.12-.714,1.587,1.587,0,0,0-.824.229,2.919,2.919,0,0,0-.757.687,5.224,5.224,0,0,0-.545.876,9.774,9.774,0,0,0-.467,1.1q-.211.588-.375,1.235t-.278,1.294q-.115.647-.174,1.267t-.059,1.159a6.388,6.388,0,0,0,.122,1.343,3.131,3.131,0,0,0,.338.925,1.454,1.454,0,0,0,.508.534,1.226,1.226,0,0,0,.627.171,1.6,1.6,0,0,0,.786-.216,2.417,2.417,0,0,0,.72-.647,5.983,5.983,0,0,0,.735-1.325,13.366,13.366,0,0,0,.6-1.792,17.7,17.7,0,0,0,.4-2.053A15.309,15.309,0,0,0,582.909,9.613Zm9.424-.126q0,.674-.052,1.406t-.163,1.478q-.111.746-.286,1.478a13.332,13.332,0,0,1-.419,1.415,10.388,10.388,0,0,1-.56,1.289,6.8,6.8,0,0,1-.709,1.1A3.187,3.187,0,0,1,587.577,19a2.2,2.2,0,0,1-1.1-.283,2.5,2.5,0,0,1-.857-.826,4.321,4.321,0,0,1-.553-1.338,7.653,7.653,0,0,1-.2-1.828A16.56,16.56,0,0,1,585,12.663a15.052,15.052,0,0,1,.408-2.075,12.579,12.579,0,0,1,.683-1.909,7.2,7.2,0,0,1,.965-1.581,4.062,4.062,0,0,1,1.18-1.047,2.925,2.925,0,0,1,1.477-.373,2.361,2.361,0,0,1,1.076.243,2.272,2.272,0,0,1,.827.723,3.573,3.573,0,0,1,.531,1.19A6.574,6.574,0,0,1,592.333,9.487Zm-1.232.126a4.185,4.185,0,0,0-.386-1.972,1.215,1.215,0,0,0-1.12-.714,1.587,1.587,0,0,0-.824.229,2.92,2.92,0,0,0-.757.687,5.224,5.224,0,0,0-.545.876,9.774,9.774,0,0,0-.467,1.1q-.211.588-.375,1.235t-.278,1.294q-.115.647-.174,1.267t-.059,1.159a6.388,6.388,0,0,0,.122,1.343,3.131,3.131,0,0,0,.338.925,1.454,1.454,0,0,0,.508.534,1.225,1.225,0,0,0,.627.171,1.6,1.6,0,0,0,.787-.216,2.418,2.418,0,0,0,.72-.647,5.983,5.983,0,0,0,.735-1.325,13.366,13.366,0,0,0,.6-1.792,17.7,17.7,0,0,0,.4-2.053A15.309,15.309,0,0,0,591.1,9.613Z" transform="translate(518.337 12255.064)" fill="#12263f"/>
    <path id="Trazado_622260" data-name="Trazado 622260" d="M40.063,12.6a11.212,11.212,0,0,1-.59,1.949,4.645,4.645,0,0,1-.914,1.441,3.668,3.668,0,0,1-1.363.895,5.394,5.394,0,0,1-1.93.309,4.117,4.117,0,0,1-1.547-.273,3.248,3.248,0,0,1-1.141-.75,3.216,3.216,0,0,1-.7-1.125,3.988,3.988,0,0,1-.242-1.406,7.553,7.553,0,0,1,.043-.758q.043-.422.113-.8L33.149,5.8H34.5l-1.352,6.211q-.031.18-.066.391t-.062.422q-.027.211-.043.4t-.016.328a2.872,2.872,0,0,0,.188,1.086,2.089,2.089,0,0,0,.52.766,2.172,2.172,0,0,0,.781.457,3.01,3.01,0,0,0,.973.152,3.508,3.508,0,0,0,1.188-.187,2.465,2.465,0,0,0,.922-.586,3.487,3.487,0,0,0,.684-1.016,7.194,7.194,0,0,0,.473-1.477L40.18,5.8h1.344ZM48.876,11a2.546,2.546,0,0,1-.027.32q-.027.2-.07.438t-.086.465q-.043.23-.082.395L47.681,17h-1.3l.977-4.687q.031-.125.063-.289t.055-.328q.023-.164.039-.3a2.009,2.009,0,0,0,.016-.215,1.424,1.424,0,0,0-.285-.937A1.038,1.038,0,0,0,46.4,9.9a1.972,1.972,0,0,0-1.023.3,4.211,4.211,0,0,0-.937.773,5.275,5.275,0,0,0-.738,1.031,3.952,3.952,0,0,0-.418,1.086L42.447,17h-1.3l1.234-5.711q.063-.3.125-.637t.117-.641q.055-.309.094-.574T42.783,9h1.25q-.039.3-.094.637t-.094.613q-.047.328-.1.641h.031a6.607,6.607,0,0,1,.605-.809,4.531,4.531,0,0,1,.719-.664,3.413,3.413,0,0,1,.82-.449,2.55,2.55,0,0,1,.91-.164,2.362,2.362,0,0,1,.914.16,1.712,1.712,0,0,1,.637.449,1.829,1.829,0,0,1,.375.7A3.108,3.108,0,0,1,48.876,11Zm3.43,5.969a2.994,2.994,0,0,1-.441.1,3.111,3.111,0,0,1-.488.039,1.594,1.594,0,0,1-1.18-.395,1.439,1.439,0,0,1-.391-1.059,3.227,3.227,0,0,1,.039-.461q.039-.266.125-.656L51.135,9h1.3L51.26,14.57q-.07.328-.1.508a2.078,2.078,0,0,0-.027.3.644.644,0,0,0,.176.488.787.787,0,0,0,.559.168,2.366,2.366,0,0,0,.355-.023,1.575,1.575,0,0,0,.285-.07Zm.914-10.82a.841.841,0,0,1-.238.6.782.782,0,0,1-.59.25.831.831,0,0,1-.6-.246.81.81,0,0,1-.254-.605.749.749,0,0,1,.254-.586.869.869,0,0,1,.6-.227.819.819,0,0,1,.586.23A.769.769,0,0,1,53.221,6.148ZM59.6,14.539q-.055.25-.105.6t-.09.707q-.039.355-.066.668T59.307,17H57.979q0-.133.02-.355t.047-.465q.027-.242.059-.465t.055-.363h-.031a7.891,7.891,0,0,1-.562.8,3.256,3.256,0,0,1-.594.578,2.386,2.386,0,0,1-.664.348,2.434,2.434,0,0,1-.773.117,2.39,2.39,0,0,1-.984-.2,2.006,2.006,0,0,1-.746-.574,2.646,2.646,0,0,1-.473-.937,4.57,4.57,0,0,1-.164-1.285,6.325,6.325,0,0,1,.121-1.2,6.161,6.161,0,0,1,.375-1.227,5.748,5.748,0,0,1,.645-1.141,4.367,4.367,0,0,1,2.164-1.59A4.775,4.775,0,0,1,58.026,8.8a5.273,5.273,0,0,1,.813.059q.375.059.648.121L60.3,5.156h1.266Zm-.336-4.453a5.033,5.033,0,0,0-.621-.137,4.471,4.471,0,0,0-.691-.051,3.17,3.17,0,0,0-1.2.211,3.024,3.024,0,0,0-.906.563,3.367,3.367,0,0,0-.648.8,5.045,5.045,0,0,0-.422.922,5.248,5.248,0,0,0-.227.93,5.785,5.785,0,0,0-.066.824,3.949,3.949,0,0,0,.074.8,1.779,1.779,0,0,0,.242.617,1.157,1.157,0,0,0,.434.4,1.353,1.353,0,0,0,.641.141,1.658,1.658,0,0,0,.73-.164,2.516,2.516,0,0,0,.637-.445,3.676,3.676,0,0,0,.539-.648,6.291,6.291,0,0,0,.438-.781,6.943,6.943,0,0,0,.332-.84q.137-.426.223-.816Zm8.4,4.352q-.063.3-.121.668t-.1.734q-.043.363-.07.676T67.339,17H66.011q.008-.156.023-.375t.043-.453q.027-.234.055-.461t.059-.391H66.16q-.242.383-.492.723a3.479,3.479,0,0,1-.555.6,2.429,2.429,0,0,1-.68.406,2.612,2.612,0,0,1-1.84-.039,2.006,2.006,0,0,1-.746-.559,2.574,2.574,0,0,1-.48-.93,4.532,4.532,0,0,1-.168-1.3,6.518,6.518,0,0,1,.094-1.031,6.309,6.309,0,0,1,.316-1.18,6.007,6.007,0,0,1,.594-1.176A4.465,4.465,0,0,1,63.124,9.8a4.4,4.4,0,0,1,1.3-.727A5.051,5.051,0,0,1,66.16,8.8a9.22,9.22,0,0,1,1.289.094q.664.094,1.32.227Zm-.367-4.383q-.273-.062-.641-.109a5.447,5.447,0,0,0-.687-.047,3.119,3.119,0,0,0-1.2.215,3.077,3.077,0,0,0-.9.563,3.313,3.313,0,0,0-.645.8,4.965,4.965,0,0,0-.418.926,5.448,5.448,0,0,0-.223.934,5.91,5.91,0,0,0-.066.836,3.744,3.744,0,0,0,.078.8,1.748,1.748,0,0,0,.246.605,1.156,1.156,0,0,0,.43.387,1.325,1.325,0,0,0,.621.137,1.692,1.692,0,0,0,.73-.16,2.532,2.532,0,0,0,.637-.434,3.56,3.56,0,0,0,.539-.633,6.226,6.226,0,0,0,.438-.762,6.516,6.516,0,0,0,.332-.82q.137-.418.223-.809Zm8.368,4.484q-.055.25-.105.6t-.09.707q-.039.355-.066.668T75.371,17H74.043q0-.133.02-.355t.047-.465q.027-.242.059-.465t.055-.363h-.031a7.891,7.891,0,0,1-.562.8,3.256,3.256,0,0,1-.594.578,2.386,2.386,0,0,1-.664.348,2.434,2.434,0,0,1-.773.117,2.39,2.39,0,0,1-.984-.2,2.006,2.006,0,0,1-.746-.574,2.646,2.646,0,0,1-.473-.937A4.57,4.57,0,0,1,69.23,14.2a6.325,6.325,0,0,1,.121-1.2,6.161,6.161,0,0,1,.375-1.227,5.749,5.749,0,0,1,.645-1.141,4.367,4.367,0,0,1,2.164-1.59A4.775,4.775,0,0,1,74.09,8.8a5.273,5.273,0,0,1,.813.059q.375.059.648.121l.813-3.828h1.266Zm-.336-4.453a5.033,5.033,0,0,0-.621-.137,4.471,4.471,0,0,0-.691-.051,3.17,3.17,0,0,0-1.2.211,3.024,3.024,0,0,0-.906.563,3.367,3.367,0,0,0-.648.8,5.046,5.046,0,0,0-.422.922,5.248,5.248,0,0,0-.227.93,5.785,5.785,0,0,0-.066.824,3.949,3.949,0,0,0,.074.8,1.779,1.779,0,0,0,.242.617,1.157,1.157,0,0,0,.434.4,1.353,1.353,0,0,0,.641.141,1.658,1.658,0,0,0,.73-.164,2.516,2.516,0,0,0,.637-.445,3.677,3.677,0,0,0,.539-.648,6.291,6.291,0,0,0,.438-.781,6.943,6.943,0,0,0,.332-.84q.137-.426.223-.816Zm8.813.789a2.381,2.381,0,0,1-.281,1.152,2.331,2.331,0,0,1-.93.891,5.584,5.584,0,0,1-1.711.574,14.678,14.678,0,0,1-2.625.211,1,1,0,0,0-.016.18v.156a2.657,2.657,0,0,0,.117.8,1.8,1.8,0,0,0,.363.656,1.714,1.714,0,0,0,.633.445,2.341,2.341,0,0,0,.918.164,3.9,3.9,0,0,0,1.184-.207,5.087,5.087,0,0,0,1.23-.59l-.242,1.266a5.078,5.078,0,0,1-1.023.438,4.4,4.4,0,0,1-1.328.188,3.609,3.609,0,0,1-1.488-.273,2.621,2.621,0,0,1-.977-.73,2.848,2.848,0,0,1-.535-1.055,4.716,4.716,0,0,1-.164-1.254,5.8,5.8,0,0,1,.156-1.355,5.519,5.519,0,0,1,.441-1.215,5.148,5.148,0,0,1,.684-1.027,4.444,4.444,0,0,1,.883-.793,4.092,4.092,0,0,1,1.039-.508,3.7,3.7,0,0,1,1.148-.18,3.319,3.319,0,0,1,1.09.164,2.277,2.277,0,0,1,.789.449,1.915,1.915,0,0,1,.48.66A1.966,1.966,0,0,1,84.137,10.875Zm-1.3.063a.9.9,0,0,0-.363-.766A1.565,1.565,0,0,0,81.5,9.9a2.163,2.163,0,0,0-.922.207,2.984,2.984,0,0,0-.82.57,3.56,3.56,0,0,0-.648.867,4.038,4.038,0,0,0-.4,1.09,13.5,13.5,0,0,0,1.9-.113,4.925,4.925,0,0,0,1.273-.332,1.712,1.712,0,0,0,.719-.535A1.2,1.2,0,0,0,82.833,10.938Zm6.633-.531a3.33,3.33,0,0,0-.789-.367A2.845,2.845,0,0,0,87.8,9.9a1.726,1.726,0,0,0-1.137.336,1.1,1.1,0,0,0-.4.891,1.116,1.116,0,0,0,.074.414,1.25,1.25,0,0,0,.219.355,1.985,1.985,0,0,0,.367.324q.223.156.512.336A4.028,4.028,0,0,1,88.7,13.6a2.01,2.01,0,0,1,.387,1.207,2.435,2.435,0,0,1-.168.887,2,2,0,0,1-.535.766,2.744,2.744,0,0,1-.949.535,4.331,4.331,0,0,1-1.418.2,4.7,4.7,0,0,1-.516-.031,5.462,5.462,0,0,1-.566-.094,4.941,4.941,0,0,1-.547-.152,2.407,2.407,0,0,1-.457-.207l.258-1.219a2.691,2.691,0,0,0,.387.219,4,4,0,0,0,.5.2,4.673,4.673,0,0,0,.563.141,3.166,3.166,0,0,0,.582.055,1.834,1.834,0,0,0,1.168-.312,1.053,1.053,0,0,0,.387-.867,1.155,1.155,0,0,0-.059-.375,1.052,1.052,0,0,0-.207-.344,2.3,2.3,0,0,0-.391-.348q-.242-.176-.609-.395a3.947,3.947,0,0,1-1.176-1.012,1.992,1.992,0,0,1-.379-1.191,2.432,2.432,0,0,1,.18-.926,2.24,2.24,0,0,1,.535-.781,2.6,2.6,0,0,1,.895-.543,3.559,3.559,0,0,1,1.258-.2,5.018,5.018,0,0,1,1.066.109,3.786,3.786,0,0,1,.855.281Zm10.814,4.133q-.055.25-.105.6t-.09.707q-.039.355-.066.668T99.991,17H98.663q0-.133.02-.355t.047-.465q.027-.242.059-.465t.055-.363h-.031a7.891,7.891,0,0,1-.562.8,3.256,3.256,0,0,1-.594.578,2.386,2.386,0,0,1-.664.348,2.434,2.434,0,0,1-.773.117,2.39,2.39,0,0,1-.984-.2,2.006,2.006,0,0,1-.746-.574,2.646,2.646,0,0,1-.473-.937A4.57,4.57,0,0,1,93.85,14.2a6.325,6.325,0,0,1,.121-1.2,6.161,6.161,0,0,1,.375-1.227,5.749,5.749,0,0,1,.645-1.141,4.367,4.367,0,0,1,2.164-1.59A4.775,4.775,0,0,1,98.71,8.8a5.273,5.273,0,0,1,.813.059q.375.059.648.121l.813-3.828h1.266Zm-.336-4.453a5.033,5.033,0,0,0-.621-.137,4.471,4.471,0,0,0-.691-.051,3.17,3.17,0,0,0-1.2.211,3.024,3.024,0,0,0-.906.563,3.367,3.367,0,0,0-.648.8,5.046,5.046,0,0,0-.422.922,5.248,5.248,0,0,0-.227.93,5.785,5.785,0,0,0-.066.824,3.949,3.949,0,0,0,.074.8,1.779,1.779,0,0,0,.242.617,1.157,1.157,0,0,0,.434.4,1.353,1.353,0,0,0,.641.141,1.658,1.658,0,0,0,.73-.164,2.516,2.516,0,0,0,.637-.445,3.677,3.677,0,0,0,.539-.648,6.291,6.291,0,0,0,.438-.781,6.943,6.943,0,0,0,.332-.84q.137-.426.223-.816Zm8.813.789a2.381,2.381,0,0,1-.281,1.152,2.331,2.331,0,0,1-.93.891,5.584,5.584,0,0,1-1.711.574,14.678,14.678,0,0,1-2.625.211,1,1,0,0,0-.016.18v.156a2.657,2.657,0,0,0,.117.8,1.8,1.8,0,0,0,.363.656,1.714,1.714,0,0,0,.633.445,2.341,2.341,0,0,0,.918.164,3.9,3.9,0,0,0,1.184-.207,5.087,5.087,0,0,0,1.23-.59L107.4,16.57a5.078,5.078,0,0,1-1.023.438,4.4,4.4,0,0,1-1.328.188,3.609,3.609,0,0,1-1.488-.273,2.621,2.621,0,0,1-.977-.73,2.848,2.848,0,0,1-.535-1.055,4.716,4.716,0,0,1-.164-1.254,5.8,5.8,0,0,1,.156-1.355,5.519,5.519,0,0,1,.441-1.215,5.148,5.148,0,0,1,.684-1.027,4.444,4.444,0,0,1,.883-.793,4.092,4.092,0,0,1,1.039-.508,3.7,3.7,0,0,1,1.148-.18,3.319,3.319,0,0,1,1.09.164,2.277,2.277,0,0,1,.789.449,1.915,1.915,0,0,1,.48.66A1.966,1.966,0,0,1,108.757,10.875Zm-1.3.063a.9.9,0,0,0-.363-.766,1.565,1.565,0,0,0-.965-.273,2.163,2.163,0,0,0-.922.207,2.984,2.984,0,0,0-.82.57,3.56,3.56,0,0,0-.648.867,4.038,4.038,0,0,0-.4,1.09,13.5,13.5,0,0,0,1.9-.113,4.925,4.925,0,0,0,1.273-.332,1.712,1.712,0,0,0,.719-.535A1.2,1.2,0,0,0,107.452,10.938Zm7.4-4.672a1.34,1.34,0,0,0-.187-.074q-.109-.035-.234-.066a2.588,2.588,0,0,0-.262-.051,1.852,1.852,0,0,0-.262-.02,1.213,1.213,0,0,0-.988.418,2.912,2.912,0,0,0-.527,1.246L112.1,9h1.891l-.258,1.086h-1.891l-2.047,9.57h-1.3l2.063-9.57h-1.375L109.43,9H110.8l.32-1.484a4.341,4.341,0,0,1,.414-1.172,2.689,2.689,0,0,1,.633-.789A2.358,2.358,0,0,1,113,5.109a3.509,3.509,0,0,1,1.02-.141,3.393,3.393,0,0,1,.566.047,3.473,3.473,0,0,1,.473.109Zm5.133,4.609a2.381,2.381,0,0,1-.281,1.152,2.331,2.331,0,0,1-.93.891,5.584,5.584,0,0,1-1.711.574,14.678,14.678,0,0,1-2.625.211,1,1,0,0,0-.016.18v.156a2.657,2.657,0,0,0,.117.8,1.8,1.8,0,0,0,.363.656,1.714,1.714,0,0,0,.633.445,2.341,2.341,0,0,0,.918.164,3.9,3.9,0,0,0,1.184-.207,5.087,5.087,0,0,0,1.23-.59l-.242,1.266a5.078,5.078,0,0,1-1.023.438,4.4,4.4,0,0,1-1.328.188,3.609,3.609,0,0,1-1.488-.273,2.621,2.621,0,0,1-.977-.73,2.848,2.848,0,0,1-.535-1.055,4.716,4.716,0,0,1-.164-1.254,5.8,5.8,0,0,1,.156-1.355,5.519,5.519,0,0,1,.441-1.215,5.148,5.148,0,0,1,.684-1.027,4.444,4.444,0,0,1,.883-.793,4.092,4.092,0,0,1,1.039-.508,3.7,3.7,0,0,1,1.148-.18,3.319,3.319,0,0,1,1.09.164,2.277,2.277,0,0,1,.789.449,1.915,1.915,0,0,1,.48.66A1.966,1.966,0,0,1,119.985,10.875Zm-1.3.063a.9.9,0,0,0-.363-.766,1.565,1.565,0,0,0-.965-.273,2.163,2.163,0,0,0-.922.207,2.984,2.984,0,0,0-.82.57,3.56,3.56,0,0,0-.648.867,4.038,4.038,0,0,0-.4,1.09,13.5,13.5,0,0,0,1.9-.113,4.925,4.925,0,0,0,1.273-.332,1.712,1.712,0,0,0,.719-.535A1.2,1.2,0,0,0,118.68,10.938Zm7.719-.352a2.941,2.941,0,0,0-.793-.488,2.582,2.582,0,0,0-1.027-.2,2.427,2.427,0,0,0-.973.188,2.684,2.684,0,0,0-.77.5,3.244,3.244,0,0,0-.578.719,4.792,4.792,0,0,0-.4.844,5.193,5.193,0,0,0-.23.871,4.81,4.81,0,0,0-.074.809,2.552,2.552,0,0,0,.492,1.7,1.672,1.672,0,0,0,1.344.578,2.957,2.957,0,0,0,1.07-.215,5.152,5.152,0,0,0,1.047-.551l-.273,1.281a5.483,5.483,0,0,1-1.012.426,3.666,3.666,0,0,1-1.066.152,3.029,3.029,0,0,1-1.277-.25,2.5,2.5,0,0,1-.9-.687,2.946,2.946,0,0,1-.539-1.035,4.472,4.472,0,0,1-.18-1.293,6.315,6.315,0,0,1,.133-1.293,5.569,5.569,0,0,1,.395-1.2,5.218,5.218,0,0,1,.645-1.051A4.107,4.107,0,0,1,123.415,9a4.451,4.451,0,0,1,1.961-.152,3.8,3.8,0,0,1,.555.125,3.737,3.737,0,0,1,.445.168,1.829,1.829,0,0,1,.313.176Zm4.977-.5h-2.016l-.9,4.242q-.047.242-.094.523a2.892,2.892,0,0,0-.047.453.789.789,0,0,0,.176.574.764.764,0,0,0,.559.176,1.228,1.228,0,0,0,.242-.031q.148-.031.3-.078t.309-.105l.27-.105-.242,1.125a3.788,3.788,0,0,1-.621.2,2.877,2.877,0,0,1-.66.082,2.234,2.234,0,0,1-.758-.113,1.3,1.3,0,0,1-.512-.324,1.256,1.256,0,0,1-.289-.512,2.358,2.358,0,0,1-.09-.676,3.787,3.787,0,0,1,.043-.527,5.468,5.468,0,0,1,.105-.551l.922-4.352h-1.328L126.994,9h1.312l.414-1.953a2.408,2.408,0,0,1,.238-.074q.207-.059.453-.133l.453-.137.23-.07L129.6,9h2.016Zm6.407,4.641q-.07.3-.129.633l-.113.633q-.055.3-.094.57t-.062.438h-1.25q.039-.3.09-.637t.1-.613q.055-.328.1-.641h-.031a6.607,6.607,0,0,1-.605.809,4.531,4.531,0,0,1-.719.664,3.413,3.413,0,0,1-.82.449,2.529,2.529,0,0,1-.9.164,2.346,2.346,0,0,1-.9-.16,1.741,1.741,0,0,1-.645-.449,1.886,1.886,0,0,1-.387-.7,2.988,2.988,0,0,1-.129-.906,2.2,2.2,0,0,1,.031-.3q.031-.2.07-.437t.09-.465q.051-.23.082-.395L132.487,9h1.3l-.992,4.688q-.031.125-.062.289t-.059.328q-.027.164-.043.3a2.008,2.008,0,0,0-.016.215,1.427,1.427,0,0,0,.285.934,1.042,1.042,0,0,0,.855.348,1.8,1.8,0,0,0,.688-.141,3.128,3.128,0,0,0,.668-.379,4.2,4.2,0,0,0,.613-.555,5.41,5.41,0,0,0,.523-.672,4.879,4.879,0,0,0,.4-.73,4.028,4.028,0,0,0,.242-.719L137.721,9h1.289Zm8.977-2.766a6.659,6.659,0,0,1-.3,2.016,5.153,5.153,0,0,1-.867,1.668,4.19,4.19,0,0,1-1.375,1.133,3.914,3.914,0,0,1-1.824.418,3.33,3.33,0,0,1-1.238-.219,2.576,2.576,0,0,1-.937-.629,2.786,2.786,0,0,1-.594-.992,3.912,3.912,0,0,1-.207-1.316,6.519,6.519,0,0,1,.316-2.059,5.2,5.2,0,0,1,.891-1.664A4.161,4.161,0,0,1,142,9.207a3.885,3.885,0,0,1,1.77-.4,3.308,3.308,0,0,1,1.23.219,2.614,2.614,0,0,1,.941.629,2.848,2.848,0,0,1,.605.992A3.783,3.783,0,0,1,146.761,11.961Zm-1.312.063a2.987,2.987,0,0,0-.125-.9,1.919,1.919,0,0,0-.352-.664,1.525,1.525,0,0,0-.547-.414,1.729,1.729,0,0,0-.719-.145,2.272,2.272,0,0,0-1.242.352,3.143,3.143,0,0,0-.937.926,4.591,4.591,0,0,0-.59,1.3,5.46,5.46,0,0,0-.207,1.5,2.988,2.988,0,0,0,.121.879,2,2,0,0,0,.344.672,1.484,1.484,0,0,0,.547.426,1.735,1.735,0,0,0,.73.148,2.3,2.3,0,0,0,1.25-.348,3.1,3.1,0,0,0,.938-.922,4.506,4.506,0,0,0,.586-1.309A5.6,5.6,0,0,0,145.448,12.023Zm6.946-1.617a3.329,3.329,0,0,0-.789-.367,2.845,2.845,0,0,0-.875-.141,1.726,1.726,0,0,0-1.137.336,1.1,1.1,0,0,0-.4.891,1.116,1.116,0,0,0,.074.414,1.25,1.25,0,0,0,.219.355,1.986,1.986,0,0,0,.367.324q.223.156.512.336a4.028,4.028,0,0,1,1.262,1.043,2.01,2.01,0,0,1,.387,1.207,2.435,2.435,0,0,1-.168.887,2,2,0,0,1-.535.766,2.745,2.745,0,0,1-.949.535,4.331,4.331,0,0,1-1.418.2,4.7,4.7,0,0,1-.516-.031,5.462,5.462,0,0,1-.566-.094,4.941,4.941,0,0,1-.547-.152,2.407,2.407,0,0,1-.457-.207l.258-1.219a2.692,2.692,0,0,0,.387.219,4,4,0,0,0,.5.2,4.673,4.673,0,0,0,.563.141,3.166,3.166,0,0,0,.582.055,1.834,1.834,0,0,0,1.168-.312,1.053,1.053,0,0,0,.387-.867,1.155,1.155,0,0,0-.059-.375,1.052,1.052,0,0,0-.207-.344,2.3,2.3,0,0,0-.391-.348q-.242-.176-.609-.395a3.947,3.947,0,0,1-1.176-1.012,1.992,1.992,0,0,1-.379-1.191,2.432,2.432,0,0,1,.18-.926,2.24,2.24,0,0,1,.535-.781,2.6,2.6,0,0,1,.895-.543,3.559,3.559,0,0,1,1.258-.2,5.018,5.018,0,0,1,1.066.109,3.786,3.786,0,0,1,.855.281Zm7.087,4.031q-.063.3-.121.668t-.1.734q-.043.363-.07.676T159.16,17h-1.328q.008-.156.023-.375t.043-.453q.027-.234.055-.461t.059-.391h-.031q-.242.383-.492.723a3.478,3.478,0,0,1-.555.6,2.429,2.429,0,0,1-.68.406,2.612,2.612,0,0,1-1.84-.039,2.006,2.006,0,0,1-.746-.559,2.574,2.574,0,0,1-.48-.93,4.531,4.531,0,0,1-.168-1.3,6.518,6.518,0,0,1,.094-1.031,6.309,6.309,0,0,1,.316-1.18,6.007,6.007,0,0,1,.594-1.176,4.465,4.465,0,0,1,.922-1.027,4.4,4.4,0,0,1,1.3-.727,5.051,5.051,0,0,1,1.734-.273,9.22,9.22,0,0,1,1.289.094q.664.094,1.32.227Zm-.367-4.383q-.273-.062-.641-.109a5.447,5.447,0,0,0-.687-.047,3.119,3.119,0,0,0-1.2.215,3.077,3.077,0,0,0-.9.563,3.313,3.313,0,0,0-.645.8,4.965,4.965,0,0,0-.418.926,5.448,5.448,0,0,0-.223.934,5.911,5.911,0,0,0-.066.836,3.744,3.744,0,0,0,.078.8,1.748,1.748,0,0,0,.246.605,1.156,1.156,0,0,0,.43.387,1.325,1.325,0,0,0,.621.137,1.692,1.692,0,0,0,.73-.16,2.532,2.532,0,0,0,.637-.434,3.56,3.56,0,0,0,.539-.633,6.225,6.225,0,0,0,.438-.762,6.515,6.515,0,0,0,.332-.82q.137-.418.223-.809Zm6.993.352a3.329,3.329,0,0,0-.789-.367,2.845,2.845,0,0,0-.875-.141,1.726,1.726,0,0,0-1.137.336,1.1,1.1,0,0,0-.4.891,1.116,1.116,0,0,0,.074.414,1.25,1.25,0,0,0,.219.355,1.986,1.986,0,0,0,.367.324q.223.156.512.336a4.028,4.028,0,0,1,1.262,1.043,2.01,2.01,0,0,1,.387,1.207,2.435,2.435,0,0,1-.168.887,2,2,0,0,1-.535.766,2.745,2.745,0,0,1-.949.535,4.331,4.331,0,0,1-1.418.2,4.7,4.7,0,0,1-.516-.031,5.462,5.462,0,0,1-.566-.094,4.941,4.941,0,0,1-.547-.152,2.407,2.407,0,0,1-.457-.207l.258-1.219a2.692,2.692,0,0,0,.387.219,4,4,0,0,0,.5.2,4.673,4.673,0,0,0,.563.141,3.166,3.166,0,0,0,.582.055,1.834,1.834,0,0,0,1.168-.312,1.053,1.053,0,0,0,.387-.867,1.155,1.155,0,0,0-.059-.375,1.052,1.052,0,0,0-.207-.344,2.3,2.3,0,0,0-.391-.348q-.242-.176-.609-.395a3.947,3.947,0,0,1-1.176-1.012,1.992,1.992,0,0,1-.379-1.191,2.432,2.432,0,0,1,.18-.926,2.24,2.24,0,0,1,.535-.781,2.6,2.6,0,0,1,.895-.543,3.559,3.559,0,0,1,1.258-.2,5.018,5.018,0,0,1,1.066.109,3.786,3.786,0,0,1,.855.281Zm.415,8.656h-1.008l1.57-3.836h1.281Zm13.243-4.523q-.055.25-.105.6t-.09.707q-.039.355-.066.668t-.027.484h-1.328q0-.133.02-.355t.047-.465q.027-.242.059-.465t.055-.363H178.3a7.891,7.891,0,0,1-.562.8,3.256,3.256,0,0,1-.594.578,2.385,2.385,0,0,1-.664.348,2.434,2.434,0,0,1-.773.117,2.39,2.39,0,0,1-.984-.2,2.006,2.006,0,0,1-.746-.574,2.646,2.646,0,0,1-.473-.937,4.57,4.57,0,0,1-.164-1.285,6.324,6.324,0,0,1,.121-1.2,6.162,6.162,0,0,1,.375-1.227,5.748,5.748,0,0,1,.645-1.141,4.367,4.367,0,0,1,2.164-1.59,4.775,4.775,0,0,1,1.555-.238,5.273,5.273,0,0,1,.813.059q.375.059.648.121l.813-3.828h1.266Zm-.336-4.453a5.033,5.033,0,0,0-.621-.137,4.471,4.471,0,0,0-.691-.051,3.17,3.17,0,0,0-1.2.211,3.024,3.024,0,0,0-.906.563,3.367,3.367,0,0,0-.648.8,5.045,5.045,0,0,0-.422.922,5.248,5.248,0,0,0-.227.93,5.786,5.786,0,0,0-.066.824,3.949,3.949,0,0,0,.074.8,1.779,1.779,0,0,0,.242.617,1.157,1.157,0,0,0,.434.4,1.353,1.353,0,0,0,.641.141,1.658,1.658,0,0,0,.73-.164,2.516,2.516,0,0,0,.637-.445,3.676,3.676,0,0,0,.539-.648,6.291,6.291,0,0,0,.438-.781,6.943,6.943,0,0,0,.332-.84q.137-.426.223-.816Zm8.813.789a2.381,2.381,0,0,1-.281,1.152,2.331,2.331,0,0,1-.93.891,5.584,5.584,0,0,1-1.711.574,14.678,14.678,0,0,1-2.625.211,1,1,0,0,0-.016.18v.156a2.657,2.657,0,0,0,.117.8,1.8,1.8,0,0,0,.363.656,1.714,1.714,0,0,0,.633.445,2.341,2.341,0,0,0,.918.164,3.9,3.9,0,0,0,1.184-.207,5.087,5.087,0,0,0,1.23-.59l-.242,1.266a5.078,5.078,0,0,1-1.023.438,4.4,4.4,0,0,1-1.328.188,3.609,3.609,0,0,1-1.488-.273,2.621,2.621,0,0,1-.977-.73,2.848,2.848,0,0,1-.535-1.055,4.716,4.716,0,0,1-.164-1.254,5.8,5.8,0,0,1,.156-1.355,5.519,5.519,0,0,1,.441-1.215,5.149,5.149,0,0,1,.684-1.027,4.443,4.443,0,0,1,.883-.793,4.092,4.092,0,0,1,1.039-.508,3.7,3.7,0,0,1,1.148-.18,3.319,3.319,0,0,1,1.09.164,2.277,2.277,0,0,1,.789.449,1.915,1.915,0,0,1,.48.66A1.966,1.966,0,0,1,188.242,10.875Zm-1.3.063a.9.9,0,0,0-.363-.766,1.565,1.565,0,0,0-.965-.273,2.163,2.163,0,0,0-.922.207,2.984,2.984,0,0,0-.82.57,3.56,3.56,0,0,0-.648.867,4.038,4.038,0,0,0-.4,1.09,13.5,13.5,0,0,0,1.9-.113,4.925,4.925,0,0,0,1.273-.332,1.712,1.712,0,0,0,.719-.535A1.2,1.2,0,0,0,186.937,10.938Zm11.767,3.6q-.055.25-.105.6t-.09.707q-.039.355-.066.668t-.027.484h-1.328q0-.133.02-.355t.047-.465q.027-.242.059-.465t.055-.363h-.031a7.891,7.891,0,0,1-.562.8,3.256,3.256,0,0,1-.594.578,2.385,2.385,0,0,1-.664.348,2.434,2.434,0,0,1-.773.117,2.39,2.39,0,0,1-.984-.2,2.006,2.006,0,0,1-.746-.574,2.646,2.646,0,0,1-.473-.937,4.57,4.57,0,0,1-.164-1.285A6.324,6.324,0,0,1,192.4,13a6.162,6.162,0,0,1,.375-1.227,5.748,5.748,0,0,1,.645-1.141,4.367,4.367,0,0,1,2.164-1.59,4.775,4.775,0,0,1,1.555-.238,5.273,5.273,0,0,1,.813.059q.375.059.648.121l.813-3.828h1.266Zm-.336-4.453a5.033,5.033,0,0,0-.621-.137,4.471,4.471,0,0,0-.691-.051,3.17,3.17,0,0,0-1.2.211,3.024,3.024,0,0,0-.906.563,3.367,3.367,0,0,0-.648.8,5.045,5.045,0,0,0-.422.922,5.248,5.248,0,0,0-.227.93,5.786,5.786,0,0,0-.066.824,3.949,3.949,0,0,0,.074.8,1.779,1.779,0,0,0,.242.617,1.157,1.157,0,0,0,.434.4,1.353,1.353,0,0,0,.641.141,1.658,1.658,0,0,0,.73-.164,2.516,2.516,0,0,0,.637-.445,3.676,3.676,0,0,0,.539-.648,6.291,6.291,0,0,0,.438-.781,6.943,6.943,0,0,0,.332-.84q.137-.426.223-.816Zm8.813.789a2.381,2.381,0,0,1-.281,1.152,2.331,2.331,0,0,1-.93.891,5.584,5.584,0,0,1-1.711.574,14.678,14.678,0,0,1-2.625.211,1,1,0,0,0-.016.18v.156a2.657,2.657,0,0,0,.117.8,1.8,1.8,0,0,0,.363.656,1.714,1.714,0,0,0,.633.445,2.341,2.341,0,0,0,.918.164,3.9,3.9,0,0,0,1.184-.207,5.087,5.087,0,0,0,1.23-.59l-.242,1.266a5.078,5.078,0,0,1-1.023.438,4.4,4.4,0,0,1-1.328.188,3.609,3.609,0,0,1-1.488-.273,2.621,2.621,0,0,1-.977-.73,2.848,2.848,0,0,1-.535-1.055,4.716,4.716,0,0,1-.164-1.254,5.8,5.8,0,0,1,.156-1.355,5.519,5.519,0,0,1,.441-1.215,5.149,5.149,0,0,1,.684-1.027,4.443,4.443,0,0,1,.883-.793,4.092,4.092,0,0,1,1.039-.508,3.7,3.7,0,0,1,1.148-.18,3.319,3.319,0,0,1,1.09.164,2.277,2.277,0,0,1,.789.449,1.915,1.915,0,0,1,.48.66A1.966,1.966,0,0,1,207.181,10.875Zm-1.3.063a.9.9,0,0,0-.363-.766,1.565,1.565,0,0,0-.965-.273,2.163,2.163,0,0,0-.922.207,2.984,2.984,0,0,0-.82.57,3.56,3.56,0,0,0-.648.867,4.038,4.038,0,0,0-.4,1.09,13.5,13.5,0,0,0,1.9-.113,4.925,4.925,0,0,0,1.273-.332,1.712,1.712,0,0,0,.719-.535A1.2,1.2,0,0,0,205.876,10.938Zm6.633-.531a3.329,3.329,0,0,0-.789-.367,2.845,2.845,0,0,0-.875-.141,1.726,1.726,0,0,0-1.137.336,1.1,1.1,0,0,0-.4.891,1.116,1.116,0,0,0,.074.414,1.25,1.25,0,0,0,.219.355,1.986,1.986,0,0,0,.367.324q.223.156.512.336A4.028,4.028,0,0,1,211.74,13.6a2.01,2.01,0,0,1,.387,1.207,2.435,2.435,0,0,1-.168.887,2,2,0,0,1-.535.766,2.745,2.745,0,0,1-.949.535,4.331,4.331,0,0,1-1.418.2,4.7,4.7,0,0,1-.516-.031,5.462,5.462,0,0,1-.566-.094,4.941,4.941,0,0,1-.547-.152,2.407,2.407,0,0,1-.457-.207l.258-1.219a2.692,2.692,0,0,0,.387.219,4,4,0,0,0,.5.2,4.673,4.673,0,0,0,.563.141,3.166,3.166,0,0,0,.582.055,1.834,1.834,0,0,0,1.168-.312,1.053,1.053,0,0,0,.387-.867,1.155,1.155,0,0,0-.059-.375,1.052,1.052,0,0,0-.207-.344,2.3,2.3,0,0,0-.391-.348q-.242-.176-.609-.395a3.947,3.947,0,0,1-1.176-1.012,1.992,1.992,0,0,1-.379-1.191,2.432,2.432,0,0,1,.18-.926,2.24,2.24,0,0,1,.535-.781,2.6,2.6,0,0,1,.895-.543,3.559,3.559,0,0,1,1.258-.2,5.018,5.018,0,0,1,1.066.109,3.786,3.786,0,0,1,.855.281Zm8.079,1.391a6.076,6.076,0,0,1-.125,1.2,6.206,6.206,0,0,1-.383,1.223,6.02,6.02,0,0,1-.645,1.141,4.626,4.626,0,0,1-.91.949,4.22,4.22,0,0,1-1.187.648,4.323,4.323,0,0,1-1.469.238,4.833,4.833,0,0,1-.91-.086,5.594,5.594,0,0,1-.785-.2l-.8,3.8h-1.3l1.953-9.25q.055-.25.1-.6t.082-.707q.035-.355.059-.668T214.3,9h1.313q0,.133-.02.359t-.051.473q-.031.246-.062.477t-.055.371h.031a4.221,4.221,0,0,1,1.25-1.41,2.672,2.672,0,0,1,1.516-.465,2.476,2.476,0,0,1,.984.188,1.949,1.949,0,0,1,.746.563,2.6,2.6,0,0,1,.473.938A4.675,4.675,0,0,1,220.589,11.8Zm-1.312.055a3.864,3.864,0,0,0-.074-.781,1.733,1.733,0,0,0-.246-.617,1.246,1.246,0,0,0-.441-.406,1.352,1.352,0,0,0-.66-.148,1.761,1.761,0,0,0-.762.168,2.623,2.623,0,0,0-.66.449,3.683,3.683,0,0,0-.555.652,6.482,6.482,0,0,0-.445.77,6.762,6.762,0,0,0-.332.8,6.038,6.038,0,0,0-.207.754l-.492,2.32a2.193,2.193,0,0,0,.336.113q.2.051.406.09t.43.063a3.83,3.83,0,0,0,.406.023,2.7,2.7,0,0,0,1-.18,2.891,2.891,0,0,0,.82-.488,3.446,3.446,0,0,0,.641-.727,4.822,4.822,0,0,0,.465-.891,5.242,5.242,0,0,0,.281-.977A5.4,5.4,0,0,0,219.276,11.852Zm8.766-.977a2.381,2.381,0,0,1-.281,1.152,2.331,2.331,0,0,1-.93.891,5.584,5.584,0,0,1-1.711.574,14.678,14.678,0,0,1-2.625.211,1,1,0,0,0-.016.18v.156a2.657,2.657,0,0,0,.117.8,1.8,1.8,0,0,0,.363.656,1.714,1.714,0,0,0,.633.445,2.341,2.341,0,0,0,.918.164,3.9,3.9,0,0,0,1.184-.207,5.087,5.087,0,0,0,1.23-.59l-.242,1.266a5.078,5.078,0,0,1-1.023.438,4.4,4.4,0,0,1-1.328.188,3.609,3.609,0,0,1-1.488-.273,2.621,2.621,0,0,1-.977-.73,2.848,2.848,0,0,1-.535-1.055,4.716,4.716,0,0,1-.164-1.254,5.8,5.8,0,0,1,.156-1.355,5.519,5.519,0,0,1,.441-1.215,5.149,5.149,0,0,1,.684-1.027,4.443,4.443,0,0,1,.883-.793,4.092,4.092,0,0,1,1.039-.508,3.7,3.7,0,0,1,1.148-.18,3.319,3.319,0,0,1,1.09.164,2.277,2.277,0,0,1,.789.449,1.915,1.915,0,0,1,.48.66A1.966,1.966,0,0,1,228.042,10.875Zm-1.3.063a.9.9,0,0,0-.363-.766,1.565,1.565,0,0,0-.965-.273,2.163,2.163,0,0,0-.922.207,2.984,2.984,0,0,0-.82.57,3.56,3.56,0,0,0-.648.867,4.038,4.038,0,0,0-.4,1.09,13.5,13.5,0,0,0,1.9-.113,4.925,4.925,0,0,0,1.273-.332,1.712,1.712,0,0,0,.719-.535A1.2,1.2,0,0,0,226.738,10.938Zm6.954-.578h-.031a2.307,2.307,0,0,0-.41-.184,1.5,1.5,0,0,0-.5-.09,1.479,1.479,0,0,0-.867.293,3.188,3.188,0,0,0-.754.773,5.549,5.549,0,0,0-.594,1.1,7.5,7.5,0,0,0-.395,1.266L229.387,17h-1.281l1.125-5.312q.07-.328.141-.687t.129-.719q.059-.359.105-.687t.07-.594h1.266q-.023.234-.055.5t-.062.508q-.031.246-.062.445t-.047.309h.031a8.624,8.624,0,0,1,.508-.8,3.717,3.717,0,0,1,.543-.613,2.3,2.3,0,0,1,.605-.395,1.71,1.71,0,0,1,.7-.141,2.206,2.206,0,0,1,.434.043q.215.043.387.09Zm6.094,4.18q-.055.25-.105.6t-.09.707q-.039.355-.066.668T239.5,17h-1.328q0-.133.02-.355t.047-.465q.027-.242.059-.465t.055-.363h-.031a7.891,7.891,0,0,1-.562.8,3.256,3.256,0,0,1-.594.578,2.385,2.385,0,0,1-.664.348,2.434,2.434,0,0,1-.773.117,2.39,2.39,0,0,1-.984-.2,2.006,2.006,0,0,1-.746-.574,2.646,2.646,0,0,1-.473-.937,4.57,4.57,0,0,1-.164-1.285,6.324,6.324,0,0,1,.121-1.2,6.162,6.162,0,0,1,.375-1.227,5.748,5.748,0,0,1,.645-1.141,4.367,4.367,0,0,1,2.164-1.59,4.775,4.775,0,0,1,1.555-.238,5.273,5.273,0,0,1,.813.059q.375.059.648.121l.813-3.828h1.266Zm-.336-4.453a5.033,5.033,0,0,0-.621-.137,4.471,4.471,0,0,0-.691-.051,3.17,3.17,0,0,0-1.2.211,3.024,3.024,0,0,0-.906.563,3.367,3.367,0,0,0-.648.8,5.045,5.045,0,0,0-.422.922,5.248,5.248,0,0,0-.227.93,5.786,5.786,0,0,0-.066.824,3.949,3.949,0,0,0,.074.8,1.779,1.779,0,0,0,.242.617,1.157,1.157,0,0,0,.434.4,1.353,1.353,0,0,0,.641.141,1.658,1.658,0,0,0,.73-.164,2.516,2.516,0,0,0,.637-.445,3.676,3.676,0,0,0,.539-.648,6.291,6.291,0,0,0,.438-.781,6.943,6.943,0,0,0,.332-.84q.137-.426.223-.816Zm4.579,6.883a2.994,2.994,0,0,1-.441.1,3.111,3.111,0,0,1-.488.039,1.594,1.594,0,0,1-1.18-.395,1.439,1.439,0,0,1-.391-1.059,3.227,3.227,0,0,1,.039-.461q.039-.266.125-.656L242.857,9h1.3l-1.172,5.57q-.07.328-.1.508a2.078,2.078,0,0,0-.027.3.644.644,0,0,0,.176.488.787.787,0,0,0,.559.168,2.366,2.366,0,0,0,.355-.023,1.575,1.575,0,0,0,.285-.07Zm.914-10.82a.841.841,0,0,1-.238.6.782.782,0,0,1-.59.25.831.831,0,0,1-.6-.246.81.81,0,0,1-.254-.605.749.749,0,0,1,.254-.586.869.869,0,0,1,.6-.227.819.819,0,0,1,.586.23A.769.769,0,0,1,244.943,6.148Zm6.087,4.438a2.941,2.941,0,0,0-.793-.488,2.582,2.582,0,0,0-1.027-.2,2.427,2.427,0,0,0-.973.188,2.684,2.684,0,0,0-.77.5,3.244,3.244,0,0,0-.578.719,4.793,4.793,0,0,0-.4.844,5.193,5.193,0,0,0-.23.871,4.809,4.809,0,0,0-.074.809,2.552,2.552,0,0,0,.492,1.7,1.672,1.672,0,0,0,1.344.578,2.957,2.957,0,0,0,1.07-.215,5.151,5.151,0,0,0,1.047-.551l-.273,1.281a5.483,5.483,0,0,1-1.012.426,3.666,3.666,0,0,1-1.066.152,3.029,3.029,0,0,1-1.277-.25,2.5,2.5,0,0,1-.9-.687,2.946,2.946,0,0,1-.539-1.035,4.472,4.472,0,0,1-.18-1.293,6.315,6.315,0,0,1,.133-1.293,5.569,5.569,0,0,1,.395-1.2,5.219,5.219,0,0,1,.645-1.051A4.107,4.107,0,0,1,248.045,9a4.451,4.451,0,0,1,1.961-.152,3.8,3.8,0,0,1,.555.125,3.736,3.736,0,0,1,.445.168,1.829,1.829,0,0,1,.313.176Zm2.837,6.383a2.994,2.994,0,0,1-.441.1,3.111,3.111,0,0,1-.488.039,1.594,1.594,0,0,1-1.18-.395,1.439,1.439,0,0,1-.391-1.059,3.227,3.227,0,0,1,.039-.461q.039-.266.125-.656L252.694,9h1.3l-1.172,5.57q-.07.328-.1.508a2.078,2.078,0,0,0-.027.3.644.644,0,0,0,.176.488.787.787,0,0,0,.559.168,2.366,2.366,0,0,0,.355-.023,1.575,1.575,0,0,0,.285-.07Zm.914-10.82a.841.841,0,0,1-.238.6.782.782,0,0,1-.59.25.831.831,0,0,1-.6-.246.81.81,0,0,1-.254-.605.749.749,0,0,1,.254-.586.869.869,0,0,1,.6-.227.819.819,0,0,1,.586.23A.769.769,0,0,1,254.78,6.148Zm7.29,5.813a6.658,6.658,0,0,1-.3,2.016,5.154,5.154,0,0,1-.867,1.668,4.19,4.19,0,0,1-1.375,1.133,3.914,3.914,0,0,1-1.824.418,3.33,3.33,0,0,1-1.238-.219,2.576,2.576,0,0,1-.937-.629,2.786,2.786,0,0,1-.594-.992,3.912,3.912,0,0,1-.207-1.316,6.519,6.519,0,0,1,.316-2.059,5.2,5.2,0,0,1,.891-1.664,4.161,4.161,0,0,1,1.375-1.109,3.885,3.885,0,0,1,1.77-.4,3.308,3.308,0,0,1,1.23.219,2.614,2.614,0,0,1,.941.629,2.848,2.848,0,0,1,.605.992A3.783,3.783,0,0,1,262.07,11.961Zm-1.312.063a2.986,2.986,0,0,0-.125-.9,1.92,1.92,0,0,0-.352-.664,1.525,1.525,0,0,0-.547-.414,1.729,1.729,0,0,0-.719-.145,2.272,2.272,0,0,0-1.242.352,3.144,3.144,0,0,0-.937.926,4.591,4.591,0,0,0-.59,1.3,5.46,5.46,0,0,0-.207,1.5,2.989,2.989,0,0,0,.121.879,2,2,0,0,0,.344.672,1.484,1.484,0,0,0,.547.426,1.735,1.735,0,0,0,.73.148,2.3,2.3,0,0,0,1.25-.348,3.1,3.1,0,0,0,.938-.922,4.505,4.505,0,0,0,.586-1.309A5.6,5.6,0,0,0,260.757,12.023ZM24.386,30.984H21.2L19.089,41H17.745L19.87,30.984H16.613l.25-1.187h7.781Zm6.43,4.977a6.659,6.659,0,0,1-.3,2.016,5.154,5.154,0,0,1-.867,1.668,4.19,4.19,0,0,1-1.375,1.133,3.914,3.914,0,0,1-1.824.418,3.33,3.33,0,0,1-1.238-.219,2.576,2.576,0,0,1-.937-.629,2.786,2.786,0,0,1-.594-.992,3.912,3.912,0,0,1-.207-1.316,6.519,6.519,0,0,1,.316-2.059,5.2,5.2,0,0,1,.891-1.664,4.161,4.161,0,0,1,1.375-1.109,3.885,3.885,0,0,1,1.77-.4,3.308,3.308,0,0,1,1.23.219,2.614,2.614,0,0,1,.941.629,2.848,2.848,0,0,1,.605.992A3.783,3.783,0,0,1,30.816,35.961Zm-1.312.063a2.987,2.987,0,0,0-.125-.9,1.919,1.919,0,0,0-.352-.664,1.525,1.525,0,0,0-.547-.414,1.729,1.729,0,0,0-.719-.145,2.272,2.272,0,0,0-1.242.352,3.143,3.143,0,0,0-.937.926,4.591,4.591,0,0,0-.59,1.3,5.46,5.46,0,0,0-.207,1.5,2.988,2.988,0,0,0,.121.879,2,2,0,0,0,.344.672,1.484,1.484,0,0,0,.547.426,1.735,1.735,0,0,0,.73.148,2.3,2.3,0,0,0,1.25-.348,3.1,3.1,0,0,0,.938-.922,4.506,4.506,0,0,0,.586-1.309A5.6,5.6,0,0,0,29.5,36.023Zm6.673-1.937H34.161l-.9,4.242q-.047.242-.094.523a2.892,2.892,0,0,0-.047.453.789.789,0,0,0,.176.574.764.764,0,0,0,.559.176,1.228,1.228,0,0,0,.242-.031q.148-.031.3-.078t.309-.105l.27-.105-.242,1.125a3.788,3.788,0,0,1-.621.2,2.877,2.877,0,0,1-.66.082,2.234,2.234,0,0,1-.758-.113,1.3,1.3,0,0,1-.512-.324,1.256,1.256,0,0,1-.289-.512,2.359,2.359,0,0,1-.09-.676,3.788,3.788,0,0,1,.043-.527,5.467,5.467,0,0,1,.105-.551l.922-4.352H31.551L31.793,33h1.312l.414-1.953a2.408,2.408,0,0,1,.238-.074q.207-.059.453-.133l.453-.137.23-.07L34.4,33h2.016Zm6.212,4.352q-.063.3-.121.668t-.1.734q-.043.363-.07.676T42.068,41H40.739q.008-.156.023-.375t.043-.453q.027-.234.055-.461t.059-.391h-.031q-.242.383-.492.723a3.478,3.478,0,0,1-.555.6,2.429,2.429,0,0,1-.68.406,2.612,2.612,0,0,1-1.84-.039,2.006,2.006,0,0,1-.746-.559,2.574,2.574,0,0,1-.48-.93,4.532,4.532,0,0,1-.168-1.3,6.518,6.518,0,0,1,.094-1.031,6.309,6.309,0,0,1,.316-1.18,6.006,6.006,0,0,1,.594-1.176,4.465,4.465,0,0,1,.922-1.027,4.4,4.4,0,0,1,1.3-.727,5.051,5.051,0,0,1,1.734-.273,9.22,9.22,0,0,1,1.289.094q.664.094,1.32.227Zm-.367-4.383q-.273-.063-.641-.109a5.447,5.447,0,0,0-.687-.047,3.118,3.118,0,0,0-1.2.215,3.077,3.077,0,0,0-.9.563,3.313,3.313,0,0,0-.645.8,4.965,4.965,0,0,0-.418.926,5.448,5.448,0,0,0-.223.934,5.91,5.91,0,0,0-.066.836,3.744,3.744,0,0,0,.078.8,1.748,1.748,0,0,0,.246.605,1.156,1.156,0,0,0,.43.387,1.325,1.325,0,0,0,.621.137,1.692,1.692,0,0,0,.73-.16,2.532,2.532,0,0,0,.637-.434,3.56,3.56,0,0,0,.539-.633,6.225,6.225,0,0,0,.438-.762,6.515,6.515,0,0,0,.332-.82q.137-.418.223-.809ZM46.6,40.969a2.994,2.994,0,0,1-.441.1,3.11,3.11,0,0,1-.488.039,1.594,1.594,0,0,1-1.18-.395,1.439,1.439,0,0,1-.391-1.059,3.227,3.227,0,0,1,.039-.461q.039-.266.125-.656l2-9.391h1.3L45.553,38.57q-.07.328-.1.508a2.079,2.079,0,0,0-.027.3.644.644,0,0,0,.176.488.787.787,0,0,0,.559.168,2.366,2.366,0,0,0,.355-.023,1.575,1.575,0,0,0,.285-.07Zm11.275-2.242q-.07.3-.129.633l-.113.633q-.055.3-.094.57T57.476,41h-1.25q.039-.3.09-.637t.1-.613q.055-.328.1-.641h-.031a6.607,6.607,0,0,1-.605.809,4.531,4.531,0,0,1-.719.664,3.413,3.413,0,0,1-.82.449,2.529,2.529,0,0,1-.9.164,2.346,2.346,0,0,1-.9-.16,1.741,1.741,0,0,1-.645-.449,1.886,1.886,0,0,1-.387-.7,2.988,2.988,0,0,1-.129-.906,2.2,2.2,0,0,1,.031-.3q.031-.2.07-.437t.09-.465q.051-.23.082-.395L52.577,33h1.3l-.992,4.688q-.031.125-.062.289t-.059.328q-.027.164-.043.3a2.009,2.009,0,0,0-.016.215,1.427,1.427,0,0,0,.285.934,1.042,1.042,0,0,0,.855.348,1.8,1.8,0,0,0,.688-.141,3.128,3.128,0,0,0,.668-.379,4.2,4.2,0,0,0,.613-.555,5.41,5.41,0,0,0,.523-.672,4.879,4.879,0,0,0,.4-.73,4.028,4.028,0,0,0,.242-.719L57.812,33H59.1ZM67.07,35a2.547,2.547,0,0,1-.027.32q-.027.2-.07.438t-.086.465q-.043.23-.082.395L65.875,41h-1.3l.977-4.687q.031-.125.063-.289t.055-.328q.023-.164.039-.3a2.01,2.01,0,0,0,.016-.215,1.424,1.424,0,0,0-.285-.937,1.038,1.038,0,0,0-.848-.344,1.972,1.972,0,0,0-1.023.3,4.211,4.211,0,0,0-.937.773,5.275,5.275,0,0,0-.738,1.031,3.952,3.952,0,0,0-.418,1.086L60.64,41h-1.3l1.234-5.711q.063-.3.125-.637t.117-.641q.055-.309.094-.574T60.976,33h1.25q-.039.3-.094.637t-.094.613q-.047.328-.1.641h.031a6.607,6.607,0,0,1,.605-.809,4.531,4.531,0,0,1,.719-.664,3.413,3.413,0,0,1,.82-.449,2.55,2.55,0,0,1,.91-.164,2.362,2.362,0,0,1,.914.16,1.712,1.712,0,0,1,.637.449,1.829,1.829,0,0,1,.375.7A3.108,3.108,0,0,1,67.07,35Zm3.43,5.969a2.994,2.994,0,0,1-.441.1,3.11,3.11,0,0,1-.488.039,1.594,1.594,0,0,1-1.18-.395A1.439,1.439,0,0,1,68,39.656a3.228,3.228,0,0,1,.039-.461q.039-.266.125-.656L69.328,33h1.3l-1.172,5.57q-.07.328-.1.508a2.079,2.079,0,0,0-.027.3.644.644,0,0,0,.176.488.787.787,0,0,0,.559.168,2.366,2.366,0,0,0,.355-.023,1.575,1.575,0,0,0,.285-.07Zm.914-10.82a.841.841,0,0,1-.238.6.782.782,0,0,1-.59.25.831.831,0,0,1-.6-.246.81.81,0,0,1-.254-.605.749.749,0,0,1,.254-.586.869.869,0,0,1,.6-.227.819.819,0,0,1,.586.23A.769.769,0,0,1,71.414,30.148Zm6.376,8.391q-.055.25-.105.6t-.09.707q-.039.355-.066.668T77.5,41H76.173q0-.133.02-.355t.047-.465q.027-.242.059-.465t.055-.363h-.031a7.891,7.891,0,0,1-.562.8,3.256,3.256,0,0,1-.594.578,2.386,2.386,0,0,1-.664.348,2.434,2.434,0,0,1-.773.117,2.39,2.39,0,0,1-.984-.2A2.005,2.005,0,0,1,72,40.426a2.646,2.646,0,0,1-.473-.937A4.57,4.57,0,0,1,71.36,38.2a6.325,6.325,0,0,1,.121-1.2,6.161,6.161,0,0,1,.375-1.227,5.749,5.749,0,0,1,.645-1.141,4.367,4.367,0,0,1,2.164-1.59A4.775,4.775,0,0,1,76.22,32.8a5.273,5.273,0,0,1,.813.059q.375.059.648.121l.813-3.828h1.266Zm-.336-4.453a5.033,5.033,0,0,0-.621-.137,4.47,4.47,0,0,0-.691-.051,3.17,3.17,0,0,0-1.2.211,3.024,3.024,0,0,0-.906.563,3.367,3.367,0,0,0-.648.8,5.046,5.046,0,0,0-.422.922,5.248,5.248,0,0,0-.227.93,5.785,5.785,0,0,0-.066.824,3.949,3.949,0,0,0,.074.8,1.779,1.779,0,0,0,.242.617,1.157,1.157,0,0,0,.434.4,1.353,1.353,0,0,0,.641.141,1.658,1.658,0,0,0,.73-.164,2.516,2.516,0,0,0,.637-.445,3.677,3.677,0,0,0,.539-.648,6.291,6.291,0,0,0,.438-.781,6.943,6.943,0,0,0,.332-.84q.137-.426.223-.816Zm8.4,4.352q-.062.3-.121.668t-.1.734q-.043.363-.07.676T85.533,41H84.2q.008-.156.023-.375t.043-.453q.027-.234.055-.461t.059-.391h-.031q-.242.383-.492.723a3.478,3.478,0,0,1-.555.6,2.429,2.429,0,0,1-.68.406,2.612,2.612,0,0,1-1.84-.039,2.006,2.006,0,0,1-.746-.559,2.574,2.574,0,0,1-.48-.93,4.532,4.532,0,0,1-.168-1.3,6.518,6.518,0,0,1,.094-1.031,6.309,6.309,0,0,1,.316-1.18,6.006,6.006,0,0,1,.594-1.176,4.465,4.465,0,0,1,.922-1.027,4.4,4.4,0,0,1,1.3-.727,5.051,5.051,0,0,1,1.734-.273,9.22,9.22,0,0,1,1.289.094q.664.094,1.32.227Zm-.367-4.383q-.273-.063-.641-.109a5.447,5.447,0,0,0-.687-.047,3.118,3.118,0,0,0-1.2.215,3.077,3.077,0,0,0-.9.563,3.312,3.312,0,0,0-.645.8,4.965,4.965,0,0,0-.418.926,5.449,5.449,0,0,0-.223.934,5.91,5.91,0,0,0-.066.836,3.744,3.744,0,0,0,.078.8,1.749,1.749,0,0,0,.246.605,1.156,1.156,0,0,0,.43.387,1.325,1.325,0,0,0,.621.137,1.692,1.692,0,0,0,.73-.16,2.532,2.532,0,0,0,.637-.434,3.56,3.56,0,0,0,.539-.633,6.225,6.225,0,0,0,.438-.762,6.515,6.515,0,0,0,.332-.82q.137-.418.223-.809Zm8.368,4.484q-.055.25-.105.6t-.09.707q-.039.355-.066.668T93.565,41H92.237q0-.133.02-.355t.047-.465q.027-.242.059-.465t.055-.363h-.031a7.891,7.891,0,0,1-.562.8,3.256,3.256,0,0,1-.594.578,2.386,2.386,0,0,1-.664.348,2.434,2.434,0,0,1-.773.117,2.39,2.39,0,0,1-.984-.2,2.005,2.005,0,0,1-.746-.574,2.646,2.646,0,0,1-.473-.937,4.57,4.57,0,0,1-.164-1.285,6.325,6.325,0,0,1,.121-1.2,6.161,6.161,0,0,1,.375-1.227,5.749,5.749,0,0,1,.645-1.141,4.367,4.367,0,0,1,2.164-1.59,4.775,4.775,0,0,1,1.555-.238,5.273,5.273,0,0,1,.813.059q.375.059.648.121l.813-3.828h1.266Zm-.336-4.453a5.033,5.033,0,0,0-.621-.137,4.47,4.47,0,0,0-.691-.051,3.17,3.17,0,0,0-1.2.211,3.024,3.024,0,0,0-.906.563,3.367,3.367,0,0,0-.648.8,5.046,5.046,0,0,0-.422.922,5.248,5.248,0,0,0-.227.93,5.785,5.785,0,0,0-.066.824,3.949,3.949,0,0,0,.074.8,1.779,1.779,0,0,0,.242.617,1.157,1.157,0,0,0,.434.4,1.353,1.353,0,0,0,.641.141,1.658,1.658,0,0,0,.73-.164,2.516,2.516,0,0,0,.637-.445,3.677,3.677,0,0,0,.539-.648,6.291,6.291,0,0,0,.438-.781,6.943,6.943,0,0,0,.332-.84q.137-.426.223-.816Zm8.813.789a2.381,2.381,0,0,1-.281,1.152,2.331,2.331,0,0,1-.93.891,5.584,5.584,0,0,1-1.711.574,14.678,14.678,0,0,1-2.625.211,1,1,0,0,0-.016.18v.156a2.657,2.657,0,0,0,.117.8,1.8,1.8,0,0,0,.363.656,1.714,1.714,0,0,0,.633.445,2.341,2.341,0,0,0,.918.164,3.9,3.9,0,0,0,1.184-.207,5.087,5.087,0,0,0,1.23-.59l-.242,1.266a5.078,5.078,0,0,1-1.023.438,4.4,4.4,0,0,1-1.328.188,3.609,3.609,0,0,1-1.488-.273,2.621,2.621,0,0,1-.977-.73,2.848,2.848,0,0,1-.535-1.055,4.716,4.716,0,0,1-.164-1.254,5.8,5.8,0,0,1,.156-1.355,5.519,5.519,0,0,1,.441-1.215,5.148,5.148,0,0,1,.684-1.027,4.444,4.444,0,0,1,.883-.793,4.093,4.093,0,0,1,1.039-.508,3.7,3.7,0,0,1,1.148-.18,3.319,3.319,0,0,1,1.09.164,2.277,2.277,0,0,1,.789.449,1.915,1.915,0,0,1,.48.66A1.966,1.966,0,0,1,102.331,34.875Zm-1.3.063a.9.9,0,0,0-.363-.766A1.565,1.565,0,0,0,99.7,33.9a2.163,2.163,0,0,0-.922.207,2.983,2.983,0,0,0-.82.57,3.56,3.56,0,0,0-.648.867,4.038,4.038,0,0,0-.4,1.09,13.5,13.5,0,0,0,1.9-.113,4.925,4.925,0,0,0,1.273-.332,1.712,1.712,0,0,0,.719-.535A1.2,1.2,0,0,0,101.026,34.938Zm6.633-.531a3.33,3.33,0,0,0-.789-.367A2.845,2.845,0,0,0,106,33.9a1.726,1.726,0,0,0-1.137.336,1.1,1.1,0,0,0-.4.891,1.116,1.116,0,0,0,.074.414,1.25,1.25,0,0,0,.219.355,1.985,1.985,0,0,0,.367.324q.223.156.512.336A4.028,4.028,0,0,1,106.89,37.6a2.01,2.01,0,0,1,.387,1.207,2.435,2.435,0,0,1-.168.887,2,2,0,0,1-.535.766,2.744,2.744,0,0,1-.949.535,4.331,4.331,0,0,1-1.418.2,4.7,4.7,0,0,1-.516-.031,5.461,5.461,0,0,1-.566-.094,4.942,4.942,0,0,1-.547-.152,2.407,2.407,0,0,1-.457-.207l.258-1.219a2.691,2.691,0,0,0,.387.219,4,4,0,0,0,.5.2,4.672,4.672,0,0,0,.563.141,3.166,3.166,0,0,0,.582.055,1.834,1.834,0,0,0,1.168-.312,1.053,1.053,0,0,0,.387-.867,1.155,1.155,0,0,0-.059-.375,1.052,1.052,0,0,0-.207-.344,2.3,2.3,0,0,0-.391-.348q-.242-.176-.609-.395a3.947,3.947,0,0,1-1.176-1.012,1.992,1.992,0,0,1-.379-1.191,2.432,2.432,0,0,1,.18-.926,2.24,2.24,0,0,1,.535-.781,2.6,2.6,0,0,1,.895-.543,3.559,3.559,0,0,1,1.258-.2,5.018,5.018,0,0,1,1.066.109,3.786,3.786,0,0,1,.855.281Zm9.759-.047h-.031a2.306,2.306,0,0,0-.41-.184,1.5,1.5,0,0,0-.5-.09,1.479,1.479,0,0,0-.867.293,3.188,3.188,0,0,0-.754.773,5.549,5.549,0,0,0-.594,1.1,7.5,7.5,0,0,0-.395,1.266L113.114,41h-1.281l1.125-5.312q.07-.328.141-.687t.129-.719q.059-.359.105-.687T113.4,33h1.266q-.023.234-.055.5t-.062.508q-.031.246-.062.445t-.047.309h.031a8.622,8.622,0,0,1,.508-.8,3.718,3.718,0,0,1,.543-.613,2.3,2.3,0,0,1,.605-.395,1.71,1.71,0,0,1,.7-.141,2.206,2.206,0,0,1,.434.043q.215.043.387.09Zm6.54.516a2.381,2.381,0,0,1-.281,1.152,2.331,2.331,0,0,1-.93.891,5.584,5.584,0,0,1-1.711.574,14.678,14.678,0,0,1-2.625.211,1,1,0,0,0-.016.18v.156a2.657,2.657,0,0,0,.117.8,1.8,1.8,0,0,0,.363.656,1.714,1.714,0,0,0,.633.445,2.341,2.341,0,0,0,.918.164,3.9,3.9,0,0,0,1.184-.207,5.087,5.087,0,0,0,1.23-.59L122.6,40.57a5.078,5.078,0,0,1-1.023.438,4.4,4.4,0,0,1-1.328.188,3.609,3.609,0,0,1-1.488-.273,2.621,2.621,0,0,1-.977-.73,2.848,2.848,0,0,1-.535-1.055,4.716,4.716,0,0,1-.164-1.254,5.8,5.8,0,0,1,.156-1.355,5.519,5.519,0,0,1,.441-1.215,5.148,5.148,0,0,1,.684-1.027,4.444,4.444,0,0,1,.883-.793,4.093,4.093,0,0,1,1.039-.508,3.7,3.7,0,0,1,1.148-.18,3.319,3.319,0,0,1,1.09.164,2.277,2.277,0,0,1,.789.449,1.915,1.915,0,0,1,.48.66A1.966,1.966,0,0,1,123.958,34.875Zm-1.3.063a.9.9,0,0,0-.363-.766,1.565,1.565,0,0,0-.965-.273,2.163,2.163,0,0,0-.922.207,2.983,2.983,0,0,0-.82.57,3.56,3.56,0,0,0-.648.867,4.038,4.038,0,0,0-.4,1.09,13.5,13.5,0,0,0,1.9-.113,4.925,4.925,0,0,0,1.273-.332,1.712,1.712,0,0,0,.719-.535A1.2,1.2,0,0,0,122.654,34.938Zm7.719-.352a2.941,2.941,0,0,0-.793-.488,2.582,2.582,0,0,0-1.027-.2,2.427,2.427,0,0,0-.973.188,2.684,2.684,0,0,0-.77.5,3.244,3.244,0,0,0-.578.719,4.792,4.792,0,0,0-.4.844,5.193,5.193,0,0,0-.23.871,4.81,4.81,0,0,0-.074.809,2.552,2.552,0,0,0,.492,1.7,1.672,1.672,0,0,0,1.344.578,2.957,2.957,0,0,0,1.07-.215,5.151,5.151,0,0,0,1.047-.551l-.273,1.281a5.483,5.483,0,0,1-1.012.426,3.666,3.666,0,0,1-1.066.152,3.029,3.029,0,0,1-1.277-.25,2.5,2.5,0,0,1-.9-.687,2.946,2.946,0,0,1-.539-1.035,4.472,4.472,0,0,1-.18-1.293,6.315,6.315,0,0,1,.133-1.293,5.569,5.569,0,0,1,.395-1.2,5.218,5.218,0,0,1,.645-1.051A4.107,4.107,0,0,1,127.389,33a4.451,4.451,0,0,1,1.961-.152,3.8,3.8,0,0,1,.555.125,3.736,3.736,0,0,1,.445.168,1.829,1.829,0,0,1,.313.176Zm7.54,1.375a6.659,6.659,0,0,1-.3,2.016,5.153,5.153,0,0,1-.867,1.668,4.19,4.19,0,0,1-1.375,1.133,3.914,3.914,0,0,1-1.824.418,3.33,3.33,0,0,1-1.238-.219,2.576,2.576,0,0,1-.937-.629,2.786,2.786,0,0,1-.594-.992,3.912,3.912,0,0,1-.207-1.316,6.519,6.519,0,0,1,.316-2.059,5.2,5.2,0,0,1,.891-1.664,4.161,4.161,0,0,1,1.375-1.109,3.885,3.885,0,0,1,1.77-.4,3.308,3.308,0,0,1,1.23.219,2.614,2.614,0,0,1,.941.629,2.848,2.848,0,0,1,.605.992A3.783,3.783,0,0,1,137.913,35.961Zm-1.312.063a2.987,2.987,0,0,0-.125-.9,1.919,1.919,0,0,0-.352-.664,1.525,1.525,0,0,0-.547-.414,1.729,1.729,0,0,0-.719-.145,2.272,2.272,0,0,0-1.242.352,3.143,3.143,0,0,0-.937.926,4.591,4.591,0,0,0-.59,1.3,5.46,5.46,0,0,0-.207,1.5,2.988,2.988,0,0,0,.121.879,2,2,0,0,0,.344.672,1.484,1.484,0,0,0,.547.426,1.735,1.735,0,0,0,.73.148,2.3,2.3,0,0,0,1.25-.348,3.1,3.1,0,0,0,.938-.922,4.506,4.506,0,0,0,.586-1.309A5.6,5.6,0,0,0,136.6,36.023Zm4.532,4.945a2.994,2.994,0,0,1-.441.1,3.111,3.111,0,0,1-.488.039,1.594,1.594,0,0,1-1.18-.395,1.439,1.439,0,0,1-.391-1.059,3.227,3.227,0,0,1,.039-.461q.039-.266.125-.656l2-9.391h1.3l-2.008,9.422q-.07.328-.1.508a2.078,2.078,0,0,0-.027.3.644.644,0,0,0,.176.488.787.787,0,0,0,.559.168,2.366,2.366,0,0,0,.355-.023,1.575,1.575,0,0,0,.285-.07Zm7.735-6.094a2.381,2.381,0,0,1-.281,1.152,2.331,2.331,0,0,1-.93.891,5.584,5.584,0,0,1-1.711.574,14.678,14.678,0,0,1-2.625.211,1,1,0,0,0-.016.18v.156a2.657,2.657,0,0,0,.117.8,1.8,1.8,0,0,0,.363.656,1.714,1.714,0,0,0,.633.445,2.341,2.341,0,0,0,.918.164,3.9,3.9,0,0,0,1.184-.207,5.087,5.087,0,0,0,1.23-.59l-.242,1.266a5.078,5.078,0,0,1-1.023.438,4.4,4.4,0,0,1-1.328.188,3.609,3.609,0,0,1-1.488-.273,2.621,2.621,0,0,1-.977-.73,2.848,2.848,0,0,1-.535-1.055,4.716,4.716,0,0,1-.164-1.254,5.8,5.8,0,0,1,.156-1.355,5.519,5.519,0,0,1,.441-1.215,5.149,5.149,0,0,1,.684-1.027,4.444,4.444,0,0,1,.883-.793,4.093,4.093,0,0,1,1.039-.508,3.7,3.7,0,0,1,1.148-.18,3.319,3.319,0,0,1,1.09.164,2.277,2.277,0,0,1,.789.449,1.915,1.915,0,0,1,.48.66A1.966,1.966,0,0,1,148.867,34.875Zm-1.3.063a.9.9,0,0,0-.363-.766,1.565,1.565,0,0,0-.965-.273,2.163,2.163,0,0,0-.922.207,2.983,2.983,0,0,0-.82.57,3.56,3.56,0,0,0-.648.867,4.038,4.038,0,0,0-.4,1.09,13.5,13.5,0,0,0,1.9-.113,4.925,4.925,0,0,0,1.273-.332,1.712,1.712,0,0,0,.719-.535A1.2,1.2,0,0,0,147.563,34.938Zm7.719-.352a2.941,2.941,0,0,0-.793-.488,2.582,2.582,0,0,0-1.027-.2,2.427,2.427,0,0,0-.973.188,2.684,2.684,0,0,0-.77.5,3.244,3.244,0,0,0-.578.719,4.793,4.793,0,0,0-.4.844,5.193,5.193,0,0,0-.23.871,4.809,4.809,0,0,0-.074.809,2.552,2.552,0,0,0,.492,1.7,1.672,1.672,0,0,0,1.344.578,2.957,2.957,0,0,0,1.07-.215,5.151,5.151,0,0,0,1.047-.551l-.273,1.281a5.483,5.483,0,0,1-1.012.426,3.666,3.666,0,0,1-1.066.152,3.029,3.029,0,0,1-1.277-.25,2.5,2.5,0,0,1-.9-.687,2.946,2.946,0,0,1-.539-1.035,4.472,4.472,0,0,1-.18-1.293,6.315,6.315,0,0,1,.133-1.293,5.569,5.569,0,0,1,.395-1.2,5.219,5.219,0,0,1,.645-1.051A4.107,4.107,0,0,1,152.3,33a4.451,4.451,0,0,1,1.961-.152,3.8,3.8,0,0,1,.555.125,3.736,3.736,0,0,1,.445.168,1.829,1.829,0,0,1,.313.176Zm4.977-.5h-2.016l-.9,4.242q-.047.242-.094.523a2.892,2.892,0,0,0-.047.453.789.789,0,0,0,.176.574.764.764,0,0,0,.559.176,1.228,1.228,0,0,0,.242-.031q.148-.031.3-.078t.309-.105l.27-.105-.242,1.125a3.788,3.788,0,0,1-.621.2,2.877,2.877,0,0,1-.66.082,2.234,2.234,0,0,1-.758-.113,1.3,1.3,0,0,1-.512-.324,1.256,1.256,0,0,1-.289-.512,2.359,2.359,0,0,1-.09-.676,3.789,3.789,0,0,1,.043-.527,5.464,5.464,0,0,1,.105-.551l.922-4.352h-1.328L155.876,33h1.313l.414-1.953a2.408,2.408,0,0,1,.238-.074q.207-.059.453-.133l.453-.137.23-.07L158.486,33H160.5Zm6.212,4.352q-.063.3-.121.668t-.1.734q-.043.363-.07.676T166.15,41h-1.328q.008-.156.023-.375t.043-.453q.027-.234.055-.461T165,39.32h-.031q-.242.383-.492.723a3.478,3.478,0,0,1-.555.6,2.429,2.429,0,0,1-.68.406,2.612,2.612,0,0,1-1.84-.039,2.006,2.006,0,0,1-.746-.559,2.574,2.574,0,0,1-.48-.93,4.531,4.531,0,0,1-.168-1.3,6.518,6.518,0,0,1,.094-1.031,6.309,6.309,0,0,1,.316-1.18,6.007,6.007,0,0,1,.594-1.176,4.465,4.465,0,0,1,.922-1.027,4.4,4.4,0,0,1,1.3-.727,5.051,5.051,0,0,1,1.734-.273,9.22,9.22,0,0,1,1.289.094q.664.094,1.32.227Zm-.367-4.383q-.273-.063-.641-.109a5.447,5.447,0,0,0-.687-.047,3.118,3.118,0,0,0-1.2.215,3.077,3.077,0,0,0-.9.563,3.313,3.313,0,0,0-.645.8,4.965,4.965,0,0,0-.418.926,5.448,5.448,0,0,0-.223.934,5.911,5.911,0,0,0-.066.836,3.744,3.744,0,0,0,.078.8,1.748,1.748,0,0,0,.246.605,1.156,1.156,0,0,0,.43.387,1.325,1.325,0,0,0,.621.137,1.692,1.692,0,0,0,.73-.16,2.532,2.532,0,0,0,.637-.434,3.56,3.56,0,0,0,.539-.633,6.225,6.225,0,0,0,.438-.762,6.515,6.515,0,0,0,.332-.82q.137-.418.223-.809Zm8.368,4.484q-.055.25-.105.6t-.09.707q-.039.355-.066.668t-.027.484h-1.328q0-.133.02-.355t.047-.465q.027-.242.059-.465t.055-.363H173a7.891,7.891,0,0,1-.562.8,3.256,3.256,0,0,1-.594.578,2.386,2.386,0,0,1-.664.348,2.434,2.434,0,0,1-.773.117,2.39,2.39,0,0,1-.984-.2,2.005,2.005,0,0,1-.746-.574,2.646,2.646,0,0,1-.473-.937,4.57,4.57,0,0,1-.164-1.285,6.324,6.324,0,0,1,.121-1.2,6.162,6.162,0,0,1,.375-1.227,5.748,5.748,0,0,1,.645-1.141,4.367,4.367,0,0,1,2.164-1.59A4.775,4.775,0,0,1,172.9,32.8a5.273,5.273,0,0,1,.813.059q.375.059.648.121l.813-3.828h1.266Zm-.336-4.453a5.033,5.033,0,0,0-.621-.137,4.47,4.47,0,0,0-.691-.051,3.17,3.17,0,0,0-1.2.211,3.024,3.024,0,0,0-.906.563,3.367,3.367,0,0,0-.648.8,5.045,5.045,0,0,0-.422.922,5.248,5.248,0,0,0-.227.93,5.786,5.786,0,0,0-.066.824,3.949,3.949,0,0,0,.074.8,1.779,1.779,0,0,0,.242.617,1.157,1.157,0,0,0,.434.4,1.353,1.353,0,0,0,.641.141,1.658,1.658,0,0,0,.73-.164,2.516,2.516,0,0,0,.637-.445,3.676,3.676,0,0,0,.539-.648,6.291,6.291,0,0,0,.438-.781,6.943,6.943,0,0,0,.332-.84q.137-.426.223-.816Zm8.4,4.352q-.063.3-.121.668t-.1.734q-.043.363-.07.676t-.027.484h-1.328q.008-.156.023-.375t.043-.453q.027-.234.055-.461t.059-.391h-.031q-.242.383-.492.723a3.478,3.478,0,0,1-.555.6,2.429,2.429,0,0,1-.68.406,2.612,2.612,0,0,1-1.84-.039,2.006,2.006,0,0,1-.746-.559,2.574,2.574,0,0,1-.48-.93,4.531,4.531,0,0,1-.168-1.3,6.518,6.518,0,0,1,.094-1.031,6.309,6.309,0,0,1,.316-1.18,6.007,6.007,0,0,1,.594-1.176A4.465,4.465,0,0,1,178,33.8a4.4,4.4,0,0,1,1.3-.727,5.051,5.051,0,0,1,1.734-.273,9.22,9.22,0,0,1,1.289.094q.664.094,1.32.227Zm-.367-4.383q-.273-.063-.641-.109a5.447,5.447,0,0,0-.687-.047,3.118,3.118,0,0,0-1.2.215,3.077,3.077,0,0,0-.9.563,3.313,3.313,0,0,0-.645.8,4.965,4.965,0,0,0-.418.926,5.448,5.448,0,0,0-.223.934,5.911,5.911,0,0,0-.066.836,3.744,3.744,0,0,0,.078.8,1.748,1.748,0,0,0,.246.605,1.156,1.156,0,0,0,.43.387,1.325,1.325,0,0,0,.621.137,1.692,1.692,0,0,0,.73-.16,2.532,2.532,0,0,0,.637-.434,3.56,3.56,0,0,0,.539-.633,6.225,6.225,0,0,0,.438-.762,6.515,6.515,0,0,0,.332-.82q.137-.418.223-.809Zm6.993.352a3.329,3.329,0,0,0-.789-.367,2.845,2.845,0,0,0-.875-.141,1.726,1.726,0,0,0-1.137.336,1.1,1.1,0,0,0-.4.891,1.116,1.116,0,0,0,.074.414,1.25,1.25,0,0,0,.219.355,1.986,1.986,0,0,0,.367.324q.223.156.512.336A4.028,4.028,0,0,1,188.39,37.6a2.01,2.01,0,0,1,.387,1.207,2.435,2.435,0,0,1-.168.887,2,2,0,0,1-.535.766,2.745,2.745,0,0,1-.949.535,4.331,4.331,0,0,1-1.418.2,4.7,4.7,0,0,1-.516-.031,5.461,5.461,0,0,1-.566-.094,4.942,4.942,0,0,1-.547-.152,2.407,2.407,0,0,1-.457-.207l.258-1.219a2.692,2.692,0,0,0,.387.219,4,4,0,0,0,.5.2,4.672,4.672,0,0,0,.563.141,3.166,3.166,0,0,0,.582.055,1.834,1.834,0,0,0,1.168-.312,1.053,1.053,0,0,0,.387-.867,1.155,1.155,0,0,0-.059-.375,1.052,1.052,0,0,0-.207-.344,2.3,2.3,0,0,0-.391-.348q-.242-.176-.609-.395a3.947,3.947,0,0,1-1.176-1.012,1.992,1.992,0,0,1-.379-1.191,2.432,2.432,0,0,1,.18-.926,2.24,2.24,0,0,1,.535-.781,2.6,2.6,0,0,1,.895-.543,3.559,3.559,0,0,1,1.258-.2,5.018,5.018,0,0,1,1.066.109,3.786,3.786,0,0,1,.855.281Zm11.728,1.555a6.659,6.659,0,0,1-.3,2.016,5.153,5.153,0,0,1-.867,1.668,4.19,4.19,0,0,1-1.375,1.133,3.914,3.914,0,0,1-1.824.418,3.33,3.33,0,0,1-1.238-.219,2.576,2.576,0,0,1-.937-.629,2.786,2.786,0,0,1-.594-.992,3.912,3.912,0,0,1-.207-1.316,6.519,6.519,0,0,1,.316-2.059,5.2,5.2,0,0,1,.891-1.664,4.161,4.161,0,0,1,1.375-1.109,3.885,3.885,0,0,1,1.77-.4,3.308,3.308,0,0,1,1.23.219,2.614,2.614,0,0,1,.941.629,2.848,2.848,0,0,1,.605.992A3.783,3.783,0,0,1,200.888,35.961Zm-1.312.063a2.987,2.987,0,0,0-.125-.9,1.919,1.919,0,0,0-.352-.664,1.525,1.525,0,0,0-.547-.414,1.729,1.729,0,0,0-.719-.145,2.272,2.272,0,0,0-1.242.352,3.143,3.143,0,0,0-.937.926,4.591,4.591,0,0,0-.59,1.3,5.46,5.46,0,0,0-.207,1.5,2.988,2.988,0,0,0,.121.879,2,2,0,0,0,.344.672,1.484,1.484,0,0,0,.547.426,1.735,1.735,0,0,0,.73.148,2.3,2.3,0,0,0,1.25-.348,3.1,3.1,0,0,0,.938-.922,4.506,4.506,0,0,0,.586-1.309A5.6,5.6,0,0,0,199.575,36.023Zm13.1-.227a6.076,6.076,0,0,1-.125,1.2,6.206,6.206,0,0,1-.383,1.223,6.02,6.02,0,0,1-.645,1.141,4.626,4.626,0,0,1-.91.949,4.22,4.22,0,0,1-1.187.648,4.323,4.323,0,0,1-1.469.238,4.833,4.833,0,0,1-.91-.086,5.6,5.6,0,0,1-.785-.2l-.8,3.8h-1.3l1.953-9.25q.055-.25.1-.6t.082-.707q.035-.355.059-.668t.023-.484H207.7q0,.133-.02.359t-.051.473q-.031.246-.062.477t-.055.371h.031a4.221,4.221,0,0,1,1.25-1.41,2.672,2.672,0,0,1,1.516-.465,2.476,2.476,0,0,1,.984.188,1.949,1.949,0,0,1,.746.563,2.6,2.6,0,0,1,.473.938A4.675,4.675,0,0,1,212.678,35.8Zm-1.312.055a3.864,3.864,0,0,0-.074-.781,1.733,1.733,0,0,0-.246-.617,1.246,1.246,0,0,0-.441-.406,1.352,1.352,0,0,0-.66-.148,1.76,1.76,0,0,0-.762.168,2.623,2.623,0,0,0-.66.449,3.683,3.683,0,0,0-.555.652,6.482,6.482,0,0,0-.445.77,6.761,6.761,0,0,0-.332.8,6.038,6.038,0,0,0-.207.754l-.492,2.32a2.193,2.193,0,0,0,.336.113q.2.051.406.09t.43.063a3.83,3.83,0,0,0,.406.023,2.7,2.7,0,0,0,1-.18,2.891,2.891,0,0,0,.82-.488,3.446,3.446,0,0,0,.641-.727,4.822,4.822,0,0,0,.465-.891,5.242,5.242,0,0,0,.281-.977A5.4,5.4,0,0,0,211.366,35.852Zm7.266-1.492H218.6a2.307,2.307,0,0,0-.41-.184,1.5,1.5,0,0,0-.5-.09,1.479,1.479,0,0,0-.867.293,3.188,3.188,0,0,0-.754.773,5.549,5.549,0,0,0-.594,1.1,7.5,7.5,0,0,0-.395,1.266L214.327,41h-1.281l1.125-5.312q.07-.328.141-.687t.129-.719q.059-.359.105-.687t.07-.594h1.266q-.023.234-.055.5t-.062.508q-.031.246-.062.445t-.047.309h.031a8.624,8.624,0,0,1,.508-.8,3.717,3.717,0,0,1,.543-.613,2.3,2.3,0,0,1,.605-.395,1.71,1.71,0,0,1,.7-.141,2.206,2.206,0,0,1,.434.043q.215.043.387.09Zm7.008,1.6a6.659,6.659,0,0,1-.3,2.016,5.153,5.153,0,0,1-.867,1.668,4.19,4.19,0,0,1-1.375,1.133,3.914,3.914,0,0,1-1.824.418,3.33,3.33,0,0,1-1.238-.219,2.576,2.576,0,0,1-.937-.629,2.786,2.786,0,0,1-.594-.992,3.912,3.912,0,0,1-.207-1.316,6.519,6.519,0,0,1,.316-2.059,5.2,5.2,0,0,1,.891-1.664,4.161,4.161,0,0,1,1.375-1.109,3.885,3.885,0,0,1,1.77-.4,3.308,3.308,0,0,1,1.23.219,2.614,2.614,0,0,1,.941.629,2.848,2.848,0,0,1,.605.992A3.783,3.783,0,0,1,225.64,35.961Zm-1.312.063a2.987,2.987,0,0,0-.125-.9,1.919,1.919,0,0,0-.352-.664,1.525,1.525,0,0,0-.547-.414,1.729,1.729,0,0,0-.719-.145,2.272,2.272,0,0,0-1.242.352,3.143,3.143,0,0,0-.937.926,4.591,4.591,0,0,0-.59,1.3,5.46,5.46,0,0,0-.207,1.5,2.988,2.988,0,0,0,.121.879,2,2,0,0,0,.344.672,1.484,1.484,0,0,0,.547.426,1.735,1.735,0,0,0,.73.148,2.3,2.3,0,0,0,1.25-.348,3.1,3.1,0,0,0,.938-.922,4.506,4.506,0,0,0,.586-1.309A5.6,5.6,0,0,0,224.328,36.023Zm8.321,2.516q-.055.25-.105.6t-.09.707q-.039.355-.066.668T232.36,41h-1.328q0-.133.02-.355t.047-.465q.027-.242.059-.465t.055-.363h-.031a7.891,7.891,0,0,1-.562.8,3.256,3.256,0,0,1-.594.578,2.386,2.386,0,0,1-.664.348,2.434,2.434,0,0,1-.773.117,2.39,2.39,0,0,1-.984-.2,2.005,2.005,0,0,1-.746-.574,2.646,2.646,0,0,1-.473-.937,4.57,4.57,0,0,1-.164-1.285,6.324,6.324,0,0,1,.121-1.2,6.162,6.162,0,0,1,.375-1.227,5.748,5.748,0,0,1,.645-1.141,4.367,4.367,0,0,1,2.164-1.59,4.775,4.775,0,0,1,1.555-.238,5.273,5.273,0,0,1,.813.059q.375.059.648.121l.813-3.828h1.266Zm-.336-4.453a5.033,5.033,0,0,0-.621-.137A4.47,4.47,0,0,0,231,33.9a3.17,3.17,0,0,0-1.2.211,3.024,3.024,0,0,0-.906.563,3.367,3.367,0,0,0-.648.8,5.045,5.045,0,0,0-.422.922,5.248,5.248,0,0,0-.227.93,5.786,5.786,0,0,0-.066.824,3.949,3.949,0,0,0,.074.8,1.779,1.779,0,0,0,.242.617,1.157,1.157,0,0,0,.434.4,1.353,1.353,0,0,0,.641.141,1.658,1.658,0,0,0,.73-.164,2.516,2.516,0,0,0,.637-.445,3.676,3.676,0,0,0,.539-.648,6.291,6.291,0,0,0,.438-.781,6.943,6.943,0,0,0,.332-.84q.137-.426.223-.816Zm8.594,4.641q-.07.3-.129.633l-.113.633q-.055.3-.094.57t-.062.438h-1.25q.039-.3.09-.637t.1-.613q.055-.328.1-.641h-.031a6.607,6.607,0,0,1-.605.809,4.531,4.531,0,0,1-.719.664,3.413,3.413,0,0,1-.82.449,2.529,2.529,0,0,1-.9.164,2.346,2.346,0,0,1-.9-.16,1.741,1.741,0,0,1-.645-.449,1.886,1.886,0,0,1-.387-.7,2.988,2.988,0,0,1-.129-.906,2.2,2.2,0,0,1,.031-.3q.031-.2.07-.437t.09-.465q.051-.23.082-.395L235.61,33h1.3l-.992,4.688q-.031.125-.062.289t-.059.328q-.027.164-.043.3a2.008,2.008,0,0,0-.016.215,1.427,1.427,0,0,0,.285.934,1.042,1.042,0,0,0,.855.348,1.8,1.8,0,0,0,.688-.141,3.128,3.128,0,0,0,.668-.379,4.2,4.2,0,0,0,.613-.555,5.41,5.41,0,0,0,.523-.672,4.879,4.879,0,0,0,.4-.73,4.028,4.028,0,0,0,.242-.719L240.845,33h1.289Zm7.774-4.141a2.941,2.941,0,0,0-.793-.488,2.582,2.582,0,0,0-1.027-.2,2.427,2.427,0,0,0-.973.188,2.684,2.684,0,0,0-.77.5,3.244,3.244,0,0,0-.578.719,4.793,4.793,0,0,0-.4.844,5.193,5.193,0,0,0-.23.871,4.809,4.809,0,0,0-.074.809,2.552,2.552,0,0,0,.492,1.7,1.672,1.672,0,0,0,1.344.578,2.957,2.957,0,0,0,1.07-.215,5.151,5.151,0,0,0,1.047-.551l-.273,1.281a5.483,5.483,0,0,1-1.012.426,3.666,3.666,0,0,1-1.066.152,3.029,3.029,0,0,1-1.277-.25,2.5,2.5,0,0,1-.9-.687,2.946,2.946,0,0,1-.539-1.035,4.472,4.472,0,0,1-.18-1.293,6.315,6.315,0,0,1,.133-1.293,5.569,5.569,0,0,1,.395-1.2,5.219,5.219,0,0,1,.645-1.051A4.107,4.107,0,0,1,245.7,33a4.451,4.451,0,0,1,1.961-.152,3.8,3.8,0,0,1,.555.125,3.736,3.736,0,0,1,.445.168,1.829,1.829,0,0,1,.313.176Zm2.837,6.383a2.994,2.994,0,0,1-.441.1,3.111,3.111,0,0,1-.488.039,1.594,1.594,0,0,1-1.18-.395,1.439,1.439,0,0,1-.391-1.059,3.227,3.227,0,0,1,.039-.461q.039-.266.125-.656L250.346,33h1.3l-1.172,5.57q-.07.328-.1.508a2.078,2.078,0,0,0-.027.3.644.644,0,0,0,.176.488.787.787,0,0,0,.559.168,2.366,2.366,0,0,0,.355-.023,1.575,1.575,0,0,0,.285-.07Zm.914-10.82a.841.841,0,0,1-.238.6.782.782,0,0,1-.59.25.831.831,0,0,1-.6-.246.81.81,0,0,1-.254-.605.749.749,0,0,1,.254-.586.869.869,0,0,1,.6-.227.819.819,0,0,1,.586.23A.769.769,0,0,1,252.432,30.148Zm6.376,8.391q-.055.25-.105.6t-.09.707q-.039.355-.066.668t-.027.484H257.19q0-.133.02-.355t.047-.465q.027-.242.059-.465t.055-.363h-.031a7.891,7.891,0,0,1-.562.8,3.256,3.256,0,0,1-.594.578,2.385,2.385,0,0,1-.664.348,2.434,2.434,0,0,1-.773.117,2.39,2.39,0,0,1-.984-.2,2.005,2.005,0,0,1-.746-.574,2.646,2.646,0,0,1-.473-.937,4.57,4.57,0,0,1-.164-1.285A6.324,6.324,0,0,1,252.5,37a6.162,6.162,0,0,1,.375-1.227,5.748,5.748,0,0,1,.645-1.141,4.367,4.367,0,0,1,2.164-1.59,4.775,4.775,0,0,1,1.555-.238,5.273,5.273,0,0,1,.813.059q.375.059.648.121l.813-3.828h1.266Zm-.336-4.453a5.032,5.032,0,0,0-.621-.137,4.471,4.471,0,0,0-.691-.051,3.17,3.17,0,0,0-1.2.211,3.024,3.024,0,0,0-.906.563,3.367,3.367,0,0,0-.648.8,5.045,5.045,0,0,0-.422.922,5.248,5.248,0,0,0-.227.93,5.786,5.786,0,0,0-.066.824,3.949,3.949,0,0,0,.074.8,1.779,1.779,0,0,0,.242.617,1.157,1.157,0,0,0,.434.4,1.353,1.353,0,0,0,.641.141,1.658,1.658,0,0,0,.73-.164,2.516,2.516,0,0,0,.637-.445,3.677,3.677,0,0,0,.539-.648,6.291,6.291,0,0,0,.438-.781,6.943,6.943,0,0,0,.332-.84q.137-.426.223-.816Zm8.4,4.352q-.062.3-.121.668t-.1.734q-.043.363-.07.676T266.55,41h-1.328q.008-.156.023-.375t.043-.453q.027-.234.055-.461t.059-.391h-.031q-.242.383-.492.723a3.478,3.478,0,0,1-.555.6,2.429,2.429,0,0,1-.68.406,2.612,2.612,0,0,1-1.84-.039,2.006,2.006,0,0,1-.746-.559,2.574,2.574,0,0,1-.48-.93,4.532,4.532,0,0,1-.168-1.3,6.518,6.518,0,0,1,.094-1.031,6.309,6.309,0,0,1,.316-1.18,6.006,6.006,0,0,1,.594-1.176,4.465,4.465,0,0,1,.922-1.027,4.4,4.4,0,0,1,1.3-.727,5.051,5.051,0,0,1,1.734-.273,9.221,9.221,0,0,1,1.289.094q.664.094,1.32.227Zm-.367-4.383q-.273-.063-.641-.109a5.447,5.447,0,0,0-.687-.047,3.118,3.118,0,0,0-1.2.215,3.077,3.077,0,0,0-.9.563,3.312,3.312,0,0,0-.645.8,4.965,4.965,0,0,0-.418.926,5.45,5.45,0,0,0-.223.934,5.909,5.909,0,0,0-.066.836,3.743,3.743,0,0,0,.078.8,1.749,1.749,0,0,0,.246.605,1.156,1.156,0,0,0,.43.387,1.325,1.325,0,0,0,.621.137,1.692,1.692,0,0,0,.73-.16,2.532,2.532,0,0,0,.637-.434,3.561,3.561,0,0,0,.539-.633,6.225,6.225,0,0,0,.438-.762,6.515,6.515,0,0,0,.332-.82q.137-.418.223-.809Zm6.993.352a3.33,3.33,0,0,0-.789-.367,2.845,2.845,0,0,0-.875-.141,1.726,1.726,0,0,0-1.137.336,1.1,1.1,0,0,0-.4.891,1.116,1.116,0,0,0,.074.414,1.25,1.25,0,0,0,.219.355,1.985,1.985,0,0,0,.367.324q.223.156.512.336a4.028,4.028,0,0,1,1.262,1.043,2.01,2.01,0,0,1,.387,1.207,2.436,2.436,0,0,1-.168.887,2,2,0,0,1-.535.766,2.744,2.744,0,0,1-.949.535,4.331,4.331,0,0,1-1.418.2,4.7,4.7,0,0,1-.516-.031,5.461,5.461,0,0,1-.566-.094,4.942,4.942,0,0,1-.547-.152,2.408,2.408,0,0,1-.457-.207l.258-1.219a2.69,2.69,0,0,0,.387.219,4,4,0,0,0,.5.2,4.672,4.672,0,0,0,.563.141,3.166,3.166,0,0,0,.582.055,1.834,1.834,0,0,0,1.168-.312,1.053,1.053,0,0,0,.387-.867,1.155,1.155,0,0,0-.059-.375,1.052,1.052,0,0,0-.207-.344,2.3,2.3,0,0,0-.391-.348q-.242-.176-.609-.395a3.946,3.946,0,0,1-1.176-1.012,1.992,1.992,0,0,1-.379-1.191,2.432,2.432,0,0,1,.18-.926,2.24,2.24,0,0,1,.535-.781,2.6,2.6,0,0,1,.895-.543,3.559,3.559,0,0,1,1.258-.2,5.018,5.018,0,0,1,1.066.109,3.786,3.786,0,0,1,.855.281Z" transform="translate(751.17 12243.064)" fill="#12263f"/>
    <line id="Lnea_1215" data-name="Lnea 1215" x2="290.535" transform="translate(754.135 12264.564)" fill="none" stroke="#707070" stroke-width="2"/>
  </g>
</svg>
