<svg xmlns="http://www.w3.org/2000/svg" width="623.031" height="39.742" viewBox="0 0 623.031 39.742">
  <g id="Grupo_891220" data-name="Grupo 891220" transform="translate(-518.915 -12250.033)">
    <g id="Grupo_891217" data-name="Grupo 891217" transform="translate(5 3)">
      <line id="Línea_1215" data-name="Línea 1215" x2="290.535" transform="translate(756.302 12264.564)" fill="none" stroke="#707070" stroke-width="2"/>
    </g>
    <g id="Grupo_891219" data-name="Grupo 891219">
      <path id="Trazado_622237" data-name="Trazado 622237" d="M9.7,17H8.242L4.109,8.023q-.023-.062-.055-.152T3.992,7.68q-.031-.1-.055-.2t-.031-.148H3.859q-.008.078-.02.191t-.027.23q-.016.117-.035.23t-.035.2L1.875,17H.578L2.945,5.8h1.57l3.961,8.789a1.483,1.483,0,0,1,.078.168q.039.1.078.2t.074.207q.035.1.059.172H8.8q.008-.094.023-.219t.031-.262q.016-.137.039-.27t.039-.227L10.75,5.8h1.328Zm5.57-.031a2.994,2.994,0,0,1-.441.1,3.111,3.111,0,0,1-.488.039,1.594,1.594,0,0,1-1.18-.395,1.439,1.439,0,0,1-.391-1.059A3.227,3.227,0,0,1,12.8,15.2q.039-.266.125-.656L14.094,9h1.3l-1.172,5.57q-.07.328-.1.508a2.079,2.079,0,0,0-.027.3.644.644,0,0,0,.176.488.787.787,0,0,0,.559.168,2.366,2.366,0,0,0,.355-.023,1.575,1.575,0,0,0,.285-.07Zm.914-10.82a.841.841,0,0,1-.238.6.782.782,0,0,1-.59.25.831.831,0,0,1-.6-.246.81.81,0,0,1-.254-.605.749.749,0,0,1,.254-.586.869.869,0,0,1,.6-.227.819.819,0,0,1,.586.23A.769.769,0,0,1,16.18,6.148ZM19.578,17H18.492L17.227,9h1.3l.7,5.039q.023.148.043.336t.039.383q.02.2.027.383t.008.336h.031q.062-.141.145-.32t.184-.371q.1-.191.207-.387t.2-.359L22.969,9H24.43Zm11.633-6.125a2.381,2.381,0,0,1-.281,1.152,2.331,2.331,0,0,1-.93.891,5.584,5.584,0,0,1-1.711.574,14.678,14.678,0,0,1-2.625.211,1,1,0,0,0-.016.18v.156a2.657,2.657,0,0,0,.117.8,1.8,1.8,0,0,0,.363.656,1.714,1.714,0,0,0,.633.445,2.341,2.341,0,0,0,.918.164,3.9,3.9,0,0,0,1.184-.207,5.087,5.087,0,0,0,1.23-.59l-.242,1.266a5.078,5.078,0,0,1-1.023.438A4.4,4.4,0,0,1,27.5,17.2a3.609,3.609,0,0,1-1.488-.273,2.621,2.621,0,0,1-.977-.73,2.848,2.848,0,0,1-.535-1.055,4.716,4.716,0,0,1-.164-1.254,5.8,5.8,0,0,1,.156-1.355,5.519,5.519,0,0,1,.441-1.215,5.148,5.148,0,0,1,.684-1.027,4.444,4.444,0,0,1,.883-.793,4.092,4.092,0,0,1,1.039-.508,3.7,3.7,0,0,1,1.148-.18,3.319,3.319,0,0,1,1.09.164,2.277,2.277,0,0,1,.789.449,1.915,1.915,0,0,1,.48.66A1.966,1.966,0,0,1,31.211,10.875Zm-1.3.063a.9.9,0,0,0-.363-.766,1.565,1.565,0,0,0-.965-.273,2.163,2.163,0,0,0-.922.207,2.984,2.984,0,0,0-.82.57,3.56,3.56,0,0,0-.648.867,4.038,4.038,0,0,0-.4,1.09,13.5,13.5,0,0,0,1.9-.113,4.925,4.925,0,0,0,1.273-.332,1.712,1.712,0,0,0,.719-.535A1.2,1.2,0,0,0,29.906,10.938Zm4.859,6.031a2.994,2.994,0,0,1-.441.1,3.111,3.111,0,0,1-.488.039,1.594,1.594,0,0,1-1.18-.395,1.439,1.439,0,0,1-.391-1.059A3.227,3.227,0,0,1,32.3,15.2q.039-.266.125-.656l2-9.391h1.3L33.719,14.57q-.07.328-.1.508a2.078,2.078,0,0,0-.027.3.644.644,0,0,0,.176.488.787.787,0,0,0,.559.168,2.366,2.366,0,0,0,.355-.023,1.575,1.575,0,0,0,.285-.07Zm12.328-2.43q-.055.25-.105.6t-.09.707q-.039.355-.066.668T46.8,17H45.477q0-.133.02-.355t.047-.465q.027-.242.059-.465t.055-.363h-.031a7.891,7.891,0,0,1-.562.8,3.256,3.256,0,0,1-.594.578,2.386,2.386,0,0,1-.664.348,2.434,2.434,0,0,1-.773.117,2.39,2.39,0,0,1-.984-.2,2.006,2.006,0,0,1-.746-.574,2.646,2.646,0,0,1-.473-.937,4.57,4.57,0,0,1-.164-1.285,6.325,6.325,0,0,1,.121-1.2,6.161,6.161,0,0,1,.375-1.227,5.748,5.748,0,0,1,.645-1.141,4.367,4.367,0,0,1,2.164-1.59A4.775,4.775,0,0,1,45.523,8.8a5.273,5.273,0,0,1,.813.059q.375.059.648.121L47.8,5.156h1.266Zm-.336-4.453a5.033,5.033,0,0,0-.621-.137,4.471,4.471,0,0,0-.691-.051,3.17,3.17,0,0,0-1.2.211,3.024,3.024,0,0,0-.906.563,3.367,3.367,0,0,0-.648.8,5.045,5.045,0,0,0-.422.922,5.248,5.248,0,0,0-.227.93,5.785,5.785,0,0,0-.066.824,3.949,3.949,0,0,0,.074.8,1.779,1.779,0,0,0,.242.617,1.157,1.157,0,0,0,.434.4,1.353,1.353,0,0,0,.641.141,1.658,1.658,0,0,0,.73-.164,2.516,2.516,0,0,0,.637-.445,3.676,3.676,0,0,0,.539-.648,6.291,6.291,0,0,0,.438-.781,6.943,6.943,0,0,0,.332-.84q.137-.426.223-.816Zm9.453.789a2.381,2.381,0,0,1-.281,1.152,2.331,2.331,0,0,1-.93.891,5.584,5.584,0,0,1-1.711.574,14.678,14.678,0,0,1-2.625.211,1,1,0,0,0-.016.18v.156a2.657,2.657,0,0,0,.117.8,1.8,1.8,0,0,0,.363.656,1.714,1.714,0,0,0,.633.445,2.341,2.341,0,0,0,.918.164,3.9,3.9,0,0,0,1.184-.207,5.087,5.087,0,0,0,1.23-.59l-.242,1.266a5.078,5.078,0,0,1-1.023.438A4.4,4.4,0,0,1,52.5,17.2a3.609,3.609,0,0,1-1.488-.273,2.621,2.621,0,0,1-.977-.73,2.848,2.848,0,0,1-.535-1.055,4.716,4.716,0,0,1-.164-1.254,5.8,5.8,0,0,1,.156-1.355,5.519,5.519,0,0,1,.441-1.215,5.148,5.148,0,0,1,.684-1.027,4.444,4.444,0,0,1,.883-.793,4.092,4.092,0,0,1,1.039-.508,3.7,3.7,0,0,1,1.148-.18,3.319,3.319,0,0,1,1.09.164,2.277,2.277,0,0,1,.789.449,1.915,1.915,0,0,1,.48.66A1.966,1.966,0,0,1,56.211,10.875Zm-1.3.063a.9.9,0,0,0-.363-.766,1.565,1.565,0,0,0-.965-.273,2.163,2.163,0,0,0-.922.207,2.984,2.984,0,0,0-.82.57,3.56,3.56,0,0,0-.648.867,4.038,4.038,0,0,0-.4,1.09,13.5,13.5,0,0,0,1.9-.113,4.925,4.925,0,0,0,1.273-.332,1.712,1.712,0,0,0,.719-.535A1.2,1.2,0,0,0,54.906,10.938Zm12.758-.352a2.941,2.941,0,0,0-.793-.488,2.582,2.582,0,0,0-1.027-.2,2.427,2.427,0,0,0-.973.188,2.684,2.684,0,0,0-.77.5,3.244,3.244,0,0,0-.578.719,4.793,4.793,0,0,0-.4.844,5.193,5.193,0,0,0-.23.871,4.81,4.81,0,0,0-.074.809,2.552,2.552,0,0,0,.492,1.7,1.672,1.672,0,0,0,1.344.578,2.957,2.957,0,0,0,1.07-.215,5.152,5.152,0,0,0,1.047-.551L66.5,16.617a5.483,5.483,0,0,1-1.012.426,3.666,3.666,0,0,1-1.066.152,3.029,3.029,0,0,1-1.277-.25,2.5,2.5,0,0,1-.9-.687,2.946,2.946,0,0,1-.539-1.035,4.472,4.472,0,0,1-.18-1.293,6.315,6.315,0,0,1,.133-1.293,5.569,5.569,0,0,1,.395-1.2,5.218,5.218,0,0,1,.645-1.051A4.107,4.107,0,0,1,64.68,9a4.451,4.451,0,0,1,1.961-.152,3.8,3.8,0,0,1,.555.125,3.737,3.737,0,0,1,.445.168,1.829,1.829,0,0,1,.313.176Zm8.18,1.375a6.659,6.659,0,0,1-.3,2.016,5.154,5.154,0,0,1-.867,1.668A4.19,4.19,0,0,1,73.3,16.777a3.914,3.914,0,0,1-1.824.418,3.33,3.33,0,0,1-1.238-.219,2.576,2.576,0,0,1-.937-.629,2.786,2.786,0,0,1-.594-.992,3.912,3.912,0,0,1-.207-1.316,6.519,6.519,0,0,1,.316-2.059,5.2,5.2,0,0,1,.891-1.664,4.161,4.161,0,0,1,1.375-1.109,3.885,3.885,0,0,1,1.77-.4,3.308,3.308,0,0,1,1.23.219,2.614,2.614,0,0,1,.941.629,2.848,2.848,0,0,1,.605.992A3.783,3.783,0,0,1,75.844,11.961Zm-1.312.063a2.987,2.987,0,0,0-.125-.9,1.92,1.92,0,0,0-.352-.664,1.525,1.525,0,0,0-.547-.414,1.729,1.729,0,0,0-.719-.145,2.272,2.272,0,0,0-1.242.352,3.143,3.143,0,0,0-.937.926,4.591,4.591,0,0,0-.59,1.3,5.46,5.46,0,0,0-.207,1.5,2.988,2.988,0,0,0,.121.879,2,2,0,0,0,.344.672,1.484,1.484,0,0,0,.547.426,1.735,1.735,0,0,0,.73.148,2.3,2.3,0,0,0,1.25-.348,3.1,3.1,0,0,0,.938-.922,4.505,4.505,0,0,0,.586-1.309A5.6,5.6,0,0,0,74.531,12.023Zm9.984-.227a6.412,6.412,0,0,1-.109,1.137,6.073,6.073,0,0,1-.352,1.2,6.237,6.237,0,0,1-.617,1.152,4.4,4.4,0,0,1-.9.977,4.314,4.314,0,0,1-1.219.676,4.523,4.523,0,0,1-1.566.254,5.644,5.644,0,0,1-.742-.051,6.466,6.466,0,0,1-.75-.145,5.84,5.84,0,0,1-.7-.227,3.7,3.7,0,0,1-.609-.3L79.352,5.156h1.3l-.8,3.828q-.086.383-.176.8t-.176.75h.016a5.586,5.586,0,0,1,.531-.719,3.394,3.394,0,0,1,.605-.547,2.635,2.635,0,0,1,.7-.348,2.593,2.593,0,0,1,.809-.121,2.1,2.1,0,0,1,1.754.781A3.507,3.507,0,0,1,84.516,11.8Zm-1.312.031a3.625,3.625,0,0,0-.082-.8,1.71,1.71,0,0,0-.258-.609,1.161,1.161,0,0,0-.449-.383A1.51,1.51,0,0,0,81.75,9.9a1.732,1.732,0,0,0-.945.289,3.355,3.355,0,0,0-.828.766,5.242,5.242,0,0,0-.648,1.078,5.622,5.622,0,0,0-.4,1.227l-.523,2.492a2.765,2.765,0,0,0,.668.25,3.386,3.386,0,0,0,.832.1,2.721,2.721,0,0,0,1.016-.184,2.859,2.859,0,0,0,.828-.5,3.517,3.517,0,0,0,.641-.742,4.73,4.73,0,0,0,.453-.895,5.418,5.418,0,0,0,.27-.977A5.54,5.54,0,0,0,83.2,11.828Zm9.406-.953a2.381,2.381,0,0,1-.281,1.152,2.331,2.331,0,0,1-.93.891,5.584,5.584,0,0,1-1.711.574,14.678,14.678,0,0,1-2.625.211,1,1,0,0,0-.016.18v.156a2.657,2.657,0,0,0,.117.8,1.8,1.8,0,0,0,.363.656,1.714,1.714,0,0,0,.633.445,2.341,2.341,0,0,0,.918.164,3.9,3.9,0,0,0,1.184-.207,5.087,5.087,0,0,0,1.23-.59L91.25,16.57a5.078,5.078,0,0,1-1.023.438A4.4,4.4,0,0,1,88.9,17.2a3.609,3.609,0,0,1-1.488-.273,2.621,2.621,0,0,1-.977-.73,2.848,2.848,0,0,1-.535-1.055,4.716,4.716,0,0,1-.164-1.254,5.8,5.8,0,0,1,.156-1.355,5.519,5.519,0,0,1,.441-1.215,5.148,5.148,0,0,1,.684-1.027,4.444,4.444,0,0,1,.883-.793,4.092,4.092,0,0,1,1.039-.508,3.7,3.7,0,0,1,1.148-.18,3.319,3.319,0,0,1,1.09.164,2.277,2.277,0,0,1,.789.449,1.915,1.915,0,0,1,.48.66A1.966,1.966,0,0,1,92.609,10.875Zm-1.3.063a.9.9,0,0,0-.363-.766,1.565,1.565,0,0,0-.965-.273,2.163,2.163,0,0,0-.922.207,2.984,2.984,0,0,0-.82.57,3.56,3.56,0,0,0-.648.867,4.038,4.038,0,0,0-.4,1.09,13.5,13.5,0,0,0,1.9-.113,4.925,4.925,0,0,0,1.273-.332,1.712,1.712,0,0,0,.719-.535A1.2,1.2,0,0,0,91.3,10.938Zm7.594-.578h-.031a2.306,2.306,0,0,0-.41-.184,1.5,1.5,0,0,0-.5-.09,1.479,1.479,0,0,0-.867.293,3.188,3.188,0,0,0-.754.773,5.549,5.549,0,0,0-.594,1.1,7.5,7.5,0,0,0-.395,1.266L94.594,17H93.313l1.125-5.312q.07-.328.141-.687t.129-.719q.059-.359.105-.687T94.883,9h1.266q-.023.234-.055.5T96.031,10q-.031.246-.062.445t-.047.309h.031a8.623,8.623,0,0,1,.508-.8A3.718,3.718,0,0,1,97,9.34a2.3,2.3,0,0,1,.605-.395,1.71,1.71,0,0,1,.7-.141,2.206,2.206,0,0,1,.434.043q.215.043.387.09Zm5.086-.273h-2.016l-.9,4.242q-.047.242-.094.523a2.892,2.892,0,0,0-.047.453.789.789,0,0,0,.176.574.764.764,0,0,0,.559.176,1.228,1.228,0,0,0,.242-.031q.148-.031.3-.078t.309-.105l.27-.105-.242,1.125a3.788,3.788,0,0,1-.621.2,2.877,2.877,0,0,1-.66.082,2.234,2.234,0,0,1-.758-.113A1.3,1.3,0,0,1,100,16.7a1.256,1.256,0,0,1-.289-.512,2.358,2.358,0,0,1-.09-.676,3.787,3.787,0,0,1,.043-.527,5.468,5.468,0,0,1,.105-.551l.922-4.352H99.359L99.6,9h1.313l.414-1.953a2.408,2.408,0,0,1,.238-.074q.207-.059.453-.133l.453-.137.23-.07L102.211,9h2.016Zm7.047,4.641q-.07.3-.129.633l-.113.633q-.055.3-.094.57t-.062.438h-1.25q.039-.3.09-.637t.1-.613q.055-.328.1-.641h-.031a6.607,6.607,0,0,1-.605.809,4.531,4.531,0,0,1-.719.664,3.413,3.413,0,0,1-.82.449,2.529,2.529,0,0,1-.9.164,2.346,2.346,0,0,1-.9-.16,1.741,1.741,0,0,1-.645-.449,1.886,1.886,0,0,1-.387-.7,2.988,2.988,0,0,1-.129-.906,2.2,2.2,0,0,1,.031-.3q.031-.2.07-.437t.09-.465q.051-.23.082-.395L105.734,9h1.3l-.992,4.688q-.031.125-.062.289t-.059.328q-.027.164-.043.3a2.01,2.01,0,0,0-.016.215,1.427,1.427,0,0,0,.285.934A1.042,1.042,0,0,0,107,16.1a1.8,1.8,0,0,0,.688-.141,3.128,3.128,0,0,0,.668-.379,4.2,4.2,0,0,0,.613-.555,5.41,5.41,0,0,0,.523-.672,4.879,4.879,0,0,0,.4-.73,4.028,4.028,0,0,0,.242-.719L110.969,9h1.289Zm7.648-4.367h-.031a2.306,2.306,0,0,0-.41-.184,1.5,1.5,0,0,0-.5-.09,1.479,1.479,0,0,0-.867.293,3.188,3.188,0,0,0-.754.773,5.549,5.549,0,0,0-.594,1.1,7.5,7.5,0,0,0-.395,1.266L114.375,17h-1.281l1.125-5.312q.07-.328.141-.687t.129-.719q.059-.359.105-.687t.07-.594h1.266q-.023.234-.055.5t-.062.508q-.031.246-.062.445t-.047.309h.031a8.623,8.623,0,0,1,.508-.8,3.718,3.718,0,0,1,.543-.613,2.3,2.3,0,0,1,.605-.395,1.71,1.71,0,0,1,.7-.141,2.206,2.206,0,0,1,.434.043q.215.043.387.09Zm6.766,4.078q-.062.3-.121.668t-.1.734q-.043.363-.07.676t-.027.484H123.8q.008-.156.023-.375t.043-.453q.027-.234.055-.461t.059-.391h-.031q-.242.383-.492.723a3.478,3.478,0,0,1-.555.6,2.429,2.429,0,0,1-.68.406,2.612,2.612,0,0,1-1.84-.039,2.006,2.006,0,0,1-.746-.559,2.574,2.574,0,0,1-.48-.93,4.532,4.532,0,0,1-.168-1.3,6.518,6.518,0,0,1,.094-1.031,6.309,6.309,0,0,1,.316-1.18,6.006,6.006,0,0,1,.594-1.176A4.465,4.465,0,0,1,120.91,9.8a4.4,4.4,0,0,1,1.3-.727,5.051,5.051,0,0,1,1.734-.273,9.22,9.22,0,0,1,1.289.094q.664.094,1.32.227Zm-.367-4.383q-.273-.062-.641-.109a5.447,5.447,0,0,0-.687-.047,3.119,3.119,0,0,0-1.2.215,3.077,3.077,0,0,0-.9.563,3.312,3.312,0,0,0-.645.8,4.965,4.965,0,0,0-.418.926,5.449,5.449,0,0,0-.223.934,5.91,5.91,0,0,0-.066.836,3.744,3.744,0,0,0,.078.8,1.749,1.749,0,0,0,.246.605,1.156,1.156,0,0,0,.43.387,1.325,1.325,0,0,0,.621.137,1.692,1.692,0,0,0,.73-.16,2.532,2.532,0,0,0,.637-.434,3.56,3.56,0,0,0,.539-.633,6.225,6.225,0,0,0,.438-.762,6.515,6.515,0,0,0,.332-.82q.137-.418.223-.809Zm13.406,4.484q-.055.25-.105.6t-.09.707q-.039.355-.066.668T138.2,17h-1.328q0-.133.02-.355t.047-.465q.027-.242.059-.465t.055-.363h-.031a7.891,7.891,0,0,1-.562.8,3.256,3.256,0,0,1-.594.578,2.385,2.385,0,0,1-.664.348,2.434,2.434,0,0,1-.773.117,2.39,2.39,0,0,1-.984-.2,2.006,2.006,0,0,1-.746-.574,2.646,2.646,0,0,1-.473-.937,4.57,4.57,0,0,1-.164-1.285,6.324,6.324,0,0,1,.121-1.2,6.162,6.162,0,0,1,.375-1.227,5.748,5.748,0,0,1,.645-1.141,4.367,4.367,0,0,1,2.164-1.59,4.775,4.775,0,0,1,1.555-.238,5.273,5.273,0,0,1,.813.059q.375.059.648.121l.813-3.828h1.266Zm-.336-4.453a5.033,5.033,0,0,0-.621-.137,4.471,4.471,0,0,0-.691-.051,3.17,3.17,0,0,0-1.2.211,3.024,3.024,0,0,0-.906.563,3.367,3.367,0,0,0-.648.8,5.045,5.045,0,0,0-.422.922,5.248,5.248,0,0,0-.227.93,5.786,5.786,0,0,0-.066.824,3.949,3.949,0,0,0,.074.8,1.779,1.779,0,0,0,.242.617,1.157,1.157,0,0,0,.434.4,1.353,1.353,0,0,0,.641.141,1.658,1.658,0,0,0,.73-.164,2.516,2.516,0,0,0,.637-.445,3.676,3.676,0,0,0,.539-.648,6.291,6.291,0,0,0,.438-.781,6.943,6.943,0,0,0,.332-.84q.137-.426.223-.816Zm9.453.789a2.381,2.381,0,0,1-.281,1.152,2.331,2.331,0,0,1-.93.891,5.584,5.584,0,0,1-1.711.574,14.678,14.678,0,0,1-2.625.211,1,1,0,0,0-.016.18v.156a2.657,2.657,0,0,0,.117.8,1.8,1.8,0,0,0,.363.656,1.714,1.714,0,0,0,.633.445,2.341,2.341,0,0,0,.918.164,3.9,3.9,0,0,0,1.184-.207,5.087,5.087,0,0,0,1.23-.59l-.242,1.266a5.078,5.078,0,0,1-1.023.438,4.4,4.4,0,0,1-1.328.188,3.609,3.609,0,0,1-1.488-.273,2.621,2.621,0,0,1-.977-.73,2.848,2.848,0,0,1-.535-1.055,4.716,4.716,0,0,1-.164-1.254,5.8,5.8,0,0,1,.156-1.355,5.519,5.519,0,0,1,.441-1.215,5.149,5.149,0,0,1,.684-1.027,4.443,4.443,0,0,1,.883-.793,4.092,4.092,0,0,1,1.039-.508,3.7,3.7,0,0,1,1.148-.18,3.319,3.319,0,0,1,1.09.164,2.277,2.277,0,0,1,.789.449,1.915,1.915,0,0,1,.48.66A1.966,1.966,0,0,1,147.6,10.875Zm-1.3.063a.9.9,0,0,0-.363-.766,1.565,1.565,0,0,0-.965-.273,2.163,2.163,0,0,0-.922.207,2.984,2.984,0,0,0-.82.57,3.56,3.56,0,0,0-.648.867,4.038,4.038,0,0,0-.4,1.09,13.5,13.5,0,0,0,1.9-.113,4.925,4.925,0,0,0,1.273-.332,1.712,1.712,0,0,0,.719-.535A1.2,1.2,0,0,0,146.3,10.938Zm9.258,6.031a2.994,2.994,0,0,1-.441.1,3.111,3.111,0,0,1-.488.039,1.594,1.594,0,0,1-1.18-.395,1.439,1.439,0,0,1-.391-1.059,3.227,3.227,0,0,1,.039-.461q.039-.266.125-.656L154.383,9h1.3l-1.172,5.57q-.07.328-.1.508a2.078,2.078,0,0,0-.027.3.644.644,0,0,0,.176.488.787.787,0,0,0,.559.168,2.366,2.366,0,0,0,.355-.023,1.575,1.575,0,0,0,.285-.07Zm.914-10.82a.841.841,0,0,1-.238.6.782.782,0,0,1-.59.25.831.831,0,0,1-.6-.246.81.81,0,0,1-.254-.605.749.749,0,0,1,.254-.586.869.869,0,0,1,.6-.227.819.819,0,0,1,.586.23A.769.769,0,0,1,156.469,6.148ZM164.617,11a2.545,2.545,0,0,1-.027.32q-.027.2-.07.438t-.086.465q-.043.23-.082.395L163.422,17h-1.3l.977-4.687q.031-.125.063-.289t.055-.328q.023-.164.039-.3a2.008,2.008,0,0,0,.016-.215,1.424,1.424,0,0,0-.285-.937,1.038,1.038,0,0,0-.848-.344,1.972,1.972,0,0,0-1.023.3,4.21,4.21,0,0,0-.937.773,5.275,5.275,0,0,0-.738,1.031,3.952,3.952,0,0,0-.418,1.086L158.188,17h-1.3l1.234-5.711q.063-.3.125-.637t.117-.641q.055-.309.094-.574T158.523,9h1.25q-.039.3-.094.637t-.094.613q-.047.328-.1.641h.031a6.607,6.607,0,0,1,.605-.809,4.531,4.531,0,0,1,.719-.664,3.413,3.413,0,0,1,.82-.449,2.55,2.55,0,0,1,.91-.164,2.362,2.362,0,0,1,.914.16,1.712,1.712,0,0,1,.637.449,1.829,1.829,0,0,1,.375.7A3.108,3.108,0,0,1,164.617,11Zm6.211-.914h-2.016l-.9,4.242q-.047.242-.094.523a2.892,2.892,0,0,0-.047.453.789.789,0,0,0,.176.574.764.764,0,0,0,.559.176,1.228,1.228,0,0,0,.242-.031q.148-.031.3-.078t.309-.105l.27-.105-.242,1.125a3.788,3.788,0,0,1-.621.2,2.877,2.877,0,0,1-.66.082,2.234,2.234,0,0,1-.758-.113,1.3,1.3,0,0,1-.512-.324,1.256,1.256,0,0,1-.289-.512,2.359,2.359,0,0,1-.09-.676,3.789,3.789,0,0,1,.043-.527,5.464,5.464,0,0,1,.105-.551l.922-4.352H166.2L166.445,9h1.313l.414-1.953a2.408,2.408,0,0,1,.238-.074q.207-.059.453-.133l.453-.137.23-.07L169.055,9h2.016Zm7.266.789a2.381,2.381,0,0,1-.281,1.152,2.331,2.331,0,0,1-.93.891,5.584,5.584,0,0,1-1.711.574,14.678,14.678,0,0,1-2.625.211,1,1,0,0,0-.016.18v.156a2.657,2.657,0,0,0,.117.8,1.8,1.8,0,0,0,.363.656,1.714,1.714,0,0,0,.633.445,2.341,2.341,0,0,0,.918.164,3.9,3.9,0,0,0,1.184-.207,5.087,5.087,0,0,0,1.23-.59l-.242,1.266a5.078,5.078,0,0,1-1.023.438,4.4,4.4,0,0,1-1.328.188,3.609,3.609,0,0,1-1.488-.273,2.621,2.621,0,0,1-.977-.73,2.848,2.848,0,0,1-.535-1.055,4.716,4.716,0,0,1-.164-1.254,5.8,5.8,0,0,1,.156-1.355,5.519,5.519,0,0,1,.441-1.215,5.149,5.149,0,0,1,.684-1.027,4.443,4.443,0,0,1,.883-.793,4.092,4.092,0,0,1,1.039-.508,3.7,3.7,0,0,1,1.148-.18,3.319,3.319,0,0,1,1.09.164,2.277,2.277,0,0,1,.789.449,1.915,1.915,0,0,1,.48.66A1.966,1.966,0,0,1,178.094,10.875Zm-1.3.063a.9.9,0,0,0-.363-.766,1.565,1.565,0,0,0-.965-.273,2.163,2.163,0,0,0-.922.207,2.984,2.984,0,0,0-.82.57,3.56,3.56,0,0,0-.648.867,4.038,4.038,0,0,0-.4,1.09,13.5,13.5,0,0,0,1.9-.113,4.925,4.925,0,0,0,1.273-.332,1.712,1.712,0,0,0,.719-.535A1.2,1.2,0,0,0,176.789,10.938Zm7.594-.578h-.031a2.307,2.307,0,0,0-.41-.184,1.5,1.5,0,0,0-.5-.09,1.479,1.479,0,0,0-.867.293,3.188,3.188,0,0,0-.754.773,5.549,5.549,0,0,0-.594,1.1,7.5,7.5,0,0,0-.395,1.266L180.078,17H178.8l1.125-5.312q.07-.328.141-.687t.129-.719q.059-.359.105-.687t.07-.594h1.266q-.023.234-.055.5t-.062.508q-.031.246-.062.445t-.047.309h.031a8.624,8.624,0,0,1,.508-.8,3.717,3.717,0,0,1,.543-.613,2.3,2.3,0,0,1,.605-.395,1.71,1.71,0,0,1,.7-.141,2.206,2.206,0,0,1,.434.043q.215.043.387.09Zm7.18.516a2.381,2.381,0,0,1-.281,1.152,2.331,2.331,0,0,1-.93.891,5.584,5.584,0,0,1-1.711.574,14.678,14.678,0,0,1-2.625.211,1,1,0,0,0-.016.18v.156a2.657,2.657,0,0,0,.117.8,1.8,1.8,0,0,0,.363.656,1.714,1.714,0,0,0,.633.445,2.341,2.341,0,0,0,.918.164,3.9,3.9,0,0,0,1.184-.207,5.087,5.087,0,0,0,1.23-.59L190.2,16.57a5.078,5.078,0,0,1-1.023.438,4.4,4.4,0,0,1-1.328.188,3.609,3.609,0,0,1-1.488-.273,2.621,2.621,0,0,1-.977-.73,2.848,2.848,0,0,1-.535-1.055,4.716,4.716,0,0,1-.164-1.254,5.8,5.8,0,0,1,.156-1.355,5.519,5.519,0,0,1,.441-1.215,5.149,5.149,0,0,1,.684-1.027,4.443,4.443,0,0,1,.883-.793,4.092,4.092,0,0,1,1.039-.508,3.7,3.7,0,0,1,1.148-.18,3.319,3.319,0,0,1,1.09.164,2.277,2.277,0,0,1,.789.449,1.915,1.915,0,0,1,.48.66A1.966,1.966,0,0,1,191.563,10.875Zm-1.3.063a.9.9,0,0,0-.363-.766,1.565,1.565,0,0,0-.965-.273,2.163,2.163,0,0,0-.922.207,2.984,2.984,0,0,0-.82.57,3.56,3.56,0,0,0-.648.867,4.038,4.038,0,0,0-.4,1.09,13.5,13.5,0,0,0,1.9-.113,4.925,4.925,0,0,0,1.273-.332,1.712,1.712,0,0,0,.719-.535A1.2,1.2,0,0,0,190.258,10.938Zm7.273-.531a3.329,3.329,0,0,0-.789-.367,2.845,2.845,0,0,0-.875-.141,1.726,1.726,0,0,0-1.137.336,1.1,1.1,0,0,0-.4.891,1.116,1.116,0,0,0,.074.414,1.25,1.25,0,0,0,.219.355,1.986,1.986,0,0,0,.367.324q.223.156.512.336a4.028,4.028,0,0,1,1.262,1.043,2.01,2.01,0,0,1,.387,1.207,2.435,2.435,0,0,1-.168.887,2,2,0,0,1-.535.766,2.745,2.745,0,0,1-.949.535,4.331,4.331,0,0,1-1.418.2,4.7,4.7,0,0,1-.516-.031A5.462,5.462,0,0,1,193,17.07a4.941,4.941,0,0,1-.547-.152,2.407,2.407,0,0,1-.457-.207l.258-1.219a2.692,2.692,0,0,0,.387.219,4,4,0,0,0,.5.2,4.673,4.673,0,0,0,.563.141,3.166,3.166,0,0,0,.582.055,1.834,1.834,0,0,0,1.168-.312,1.053,1.053,0,0,0,.387-.867,1.155,1.155,0,0,0-.059-.375,1.052,1.052,0,0,0-.207-.344,2.3,2.3,0,0,0-.391-.348q-.242-.176-.609-.395a3.947,3.947,0,0,1-1.176-1.012,1.992,1.992,0,0,1-.379-1.191,2.432,2.432,0,0,1,.18-.926,2.24,2.24,0,0,1,.535-.781,2.6,2.6,0,0,1,.895-.543,3.559,3.559,0,0,1,1.258-.2,5.018,5.018,0,0,1,1.066.109,3.786,3.786,0,0,1,.855.281Zm8.141.469a2.381,2.381,0,0,1-.281,1.152,2.331,2.331,0,0,1-.93.891,5.584,5.584,0,0,1-1.711.574,14.678,14.678,0,0,1-2.625.211,1,1,0,0,0-.016.18v.156a2.657,2.657,0,0,0,.117.8,1.8,1.8,0,0,0,.363.656,1.714,1.714,0,0,0,.633.445,2.341,2.341,0,0,0,.918.164,3.9,3.9,0,0,0,1.184-.207,5.087,5.087,0,0,0,1.23-.59l-.242,1.266a5.078,5.078,0,0,1-1.023.438,4.4,4.4,0,0,1-1.328.188,3.609,3.609,0,0,1-1.488-.273,2.621,2.621,0,0,1-.977-.73,2.848,2.848,0,0,1-.535-1.055,4.716,4.716,0,0,1-.164-1.254,5.8,5.8,0,0,1,.156-1.355,5.519,5.519,0,0,1,.441-1.215,5.149,5.149,0,0,1,.684-1.027,4.443,4.443,0,0,1,.883-.793A4.092,4.092,0,0,1,202,8.984a3.7,3.7,0,0,1,1.148-.18,3.319,3.319,0,0,1,1.09.164,2.277,2.277,0,0,1,.789.449,1.915,1.915,0,0,1,.48.66A1.966,1.966,0,0,1,205.672,10.875Zm-1.3.063a.9.9,0,0,0-.363-.766,1.565,1.565,0,0,0-.965-.273,2.163,2.163,0,0,0-.922.207,2.984,2.984,0,0,0-.82.57,3.56,3.56,0,0,0-.648.867,4.038,4.038,0,0,0-.4,1.09,13.5,13.5,0,0,0,1.9-.113,4.925,4.925,0,0,0,1.273-.332,1.712,1.712,0,0,0,.719-.535A1.2,1.2,0,0,0,204.367,10.938Zm7.273-.531a3.329,3.329,0,0,0-.789-.367,2.845,2.845,0,0,0-.875-.141,1.726,1.726,0,0,0-1.137.336,1.1,1.1,0,0,0-.4.891,1.116,1.116,0,0,0,.074.414,1.25,1.25,0,0,0,.219.355,1.986,1.986,0,0,0,.367.324q.223.156.512.336a4.028,4.028,0,0,1,1.262,1.043,2.01,2.01,0,0,1,.387,1.207,2.435,2.435,0,0,1-.168.887,2,2,0,0,1-.535.766,2.745,2.745,0,0,1-.949.535,4.331,4.331,0,0,1-1.418.2,4.7,4.7,0,0,1-.516-.031,5.462,5.462,0,0,1-.566-.094,4.941,4.941,0,0,1-.547-.152,2.407,2.407,0,0,1-.457-.207l.258-1.219a2.692,2.692,0,0,0,.387.219,4,4,0,0,0,.5.2,4.673,4.673,0,0,0,.563.141,3.166,3.166,0,0,0,.582.055,1.834,1.834,0,0,0,1.168-.312,1.053,1.053,0,0,0,.387-.867,1.155,1.155,0,0,0-.059-.375,1.052,1.052,0,0,0-.207-.344,2.3,2.3,0,0,0-.391-.348q-.242-.176-.609-.395a3.947,3.947,0,0,1-1.176-1.012,1.992,1.992,0,0,1-.379-1.191,2.432,2.432,0,0,1,.18-.926,2.24,2.24,0,0,1,.535-.781,2.6,2.6,0,0,1,.895-.543,3.559,3.559,0,0,1,1.258-.2,5.018,5.018,0,0,1,1.066.109,3.786,3.786,0,0,1,.855.281Zm7.055.789V10.148h7.344V11.2Zm0,3.328V13.477h7.344v1.047ZM594.586,5.8q-.055.07-.273.328t-.539.641q-.32.383-.719.848l-.812.949-.816.957-.73.855q-.328.383-.555.652t-.289.355q.023.078.133.344t.273.652l.363.859.406.961.406.957.363.855q.164.387.277.648t.145.34H590.7l-1.664-4.289q-.016-.039-.039-.113t-.047-.16q-.023-.086-.039-.168t-.031-.137h-.031q-.023.047-.062.121t-.09.164q-.051.09-.105.176a1.221,1.221,0,0,1-.109.148L584.922,17h-1.68l.281-.324q.227-.262.563-.645l.75-.855q.414-.473.844-.969t.852-.977q.422-.48.77-.883t.6-.687q.25-.285.336-.387-.039-.117-.16-.4t-.289-.672l-.367-.844q-.2-.457-.406-.926t-.4-.914q-.2-.445-.352-.809T586,6.1q-.105-.242-.129-.3h1.547L589,9.977q.023.055.051.129t.051.156q.023.082.047.16a.935.935,0,0,1,.031.133h.031q.023-.047.063-.121t.09-.156l.105-.168a1.221,1.221,0,0,1,.109-.148L593.016,5.8ZM601.375,17l2.086-9.758-2.766.75.273-1.234,4.109-1.148L602.672,17Zm13.609-8.078q0,.586-.055,1.223t-.172,1.285a12.951,12.951,0,0,1-.3,1.285,10.134,10.134,0,0,1-.441,1.23,8.315,8.315,0,0,1-.59,1.121,5.918,5.918,0,0,1-.746.957,3.614,3.614,0,0,1-2.7,1.172,2.709,2.709,0,0,1-1.16-.246,2.479,2.479,0,0,1-.9-.719,3.437,3.437,0,0,1-.582-1.164,5.552,5.552,0,0,1-.207-1.59,11.938,11.938,0,0,1,.141-1.793,11.1,11.1,0,0,1,.43-1.8,9.769,9.769,0,0,1,.719-1.66,6.19,6.19,0,0,1,1.016-1.375,4.13,4.13,0,0,1,1.242-.91,3.6,3.6,0,0,1,1.555-.324,2.927,2.927,0,0,1,1.133.211,2.318,2.318,0,0,1,.871.629,2.879,2.879,0,0,1,.559,1.035A4.775,4.775,0,0,1,614.984,8.922Zm-1.3.109a3.111,3.111,0,0,0-.406-1.715A1.323,1.323,0,0,0,612.1,6.7a1.943,1.943,0,0,0-.867.2,2.953,2.953,0,0,0-.8.6,4.512,4.512,0,0,0-.574.762,7.791,7.791,0,0,0-.492.953,10.049,10.049,0,0,0-.395,1.074q-.172.563-.293,1.125t-.184,1.1a8.776,8.776,0,0,0-.062,1.008,4.622,4.622,0,0,0,.129,1.168,2.446,2.446,0,0,0,.355.8,1.412,1.412,0,0,0,.535.465,1.5,1.5,0,0,0,.66.148,1.957,1.957,0,0,0,.828-.187,2.452,2.452,0,0,0,.758-.562,5.035,5.035,0,0,0,.773-1.152,10.289,10.289,0,0,0,.629-1.559,13.049,13.049,0,0,0,.426-1.785A11.04,11.04,0,0,0,613.688,9.031Zm9.922-.109q0,.586-.055,1.223t-.172,1.285a12.951,12.951,0,0,1-.3,1.285,10.134,10.134,0,0,1-.441,1.23,8.315,8.315,0,0,1-.59,1.121,5.918,5.918,0,0,1-.746.957,3.614,3.614,0,0,1-2.7,1.172,2.709,2.709,0,0,1-1.16-.246,2.479,2.479,0,0,1-.9-.719,3.437,3.437,0,0,1-.582-1.164,5.552,5.552,0,0,1-.207-1.59,11.938,11.938,0,0,1,.141-1.793,11.1,11.1,0,0,1,.43-1.8,9.769,9.769,0,0,1,.719-1.66,6.19,6.19,0,0,1,1.016-1.375,4.13,4.13,0,0,1,1.242-.91,3.6,3.6,0,0,1,1.555-.324,2.927,2.927,0,0,1,1.133.211,2.318,2.318,0,0,1,.871.629,2.879,2.879,0,0,1,.559,1.035A4.775,4.775,0,0,1,623.609,8.922Zm-1.3.109a3.111,3.111,0,0,0-.406-1.715,1.323,1.323,0,0,0-1.18-.621,1.943,1.943,0,0,0-.867.2,2.953,2.953,0,0,0-.8.6,4.512,4.512,0,0,0-.574.762,7.791,7.791,0,0,0-.492.953,10.049,10.049,0,0,0-.395,1.074q-.172.563-.293,1.125t-.184,1.1a8.776,8.776,0,0,0-.062,1.008,4.622,4.622,0,0,0,.129,1.168,2.446,2.446,0,0,0,.355.8,1.412,1.412,0,0,0,.535.465,1.5,1.5,0,0,0,.66.148,1.957,1.957,0,0,0,.828-.187,2.452,2.452,0,0,0,.758-.562A5.035,5.035,0,0,0,621.1,14.2a10.289,10.289,0,0,0,.629-1.559,13.049,13.049,0,0,0,.426-1.785A11.04,11.04,0,0,0,622.313,9.031Z" transform="translate(518.337 12255.064)" fill="#12263f"/>
      <path id="Trazado_622238" data-name="Trazado 622238" d="M40.063,12.6a11.212,11.212,0,0,1-.59,1.949,4.645,4.645,0,0,1-.914,1.441,3.668,3.668,0,0,1-1.363.895,5.394,5.394,0,0,1-1.93.309,4.117,4.117,0,0,1-1.547-.273,3.248,3.248,0,0,1-1.141-.75,3.216,3.216,0,0,1-.7-1.125,3.988,3.988,0,0,1-.242-1.406,7.553,7.553,0,0,1,.043-.758q.043-.422.113-.8L33.149,5.8H34.5l-1.352,6.211q-.031.18-.066.391t-.062.422q-.027.211-.043.4t-.016.328a2.872,2.872,0,0,0,.188,1.086,2.089,2.089,0,0,0,.52.766,2.172,2.172,0,0,0,.781.457,3.01,3.01,0,0,0,.973.152,3.508,3.508,0,0,0,1.188-.187,2.465,2.465,0,0,0,.922-.586,3.487,3.487,0,0,0,.684-1.016,7.194,7.194,0,0,0,.473-1.477L40.18,5.8h1.344ZM48.876,11a2.546,2.546,0,0,1-.027.32q-.027.2-.07.438t-.086.465q-.043.23-.082.395L47.681,17h-1.3l.977-4.687q.031-.125.063-.289t.055-.328q.023-.164.039-.3a2.009,2.009,0,0,0,.016-.215,1.424,1.424,0,0,0-.285-.937A1.038,1.038,0,0,0,46.4,9.9a1.972,1.972,0,0,0-1.023.3,4.211,4.211,0,0,0-.937.773,5.275,5.275,0,0,0-.738,1.031,3.952,3.952,0,0,0-.418,1.086L42.447,17h-1.3l1.234-5.711q.063-.3.125-.637t.117-.641q.055-.309.094-.574T42.783,9h1.25q-.039.3-.094.637t-.094.613q-.047.328-.1.641h.031a6.607,6.607,0,0,1,.605-.809,4.531,4.531,0,0,1,.719-.664,3.413,3.413,0,0,1,.82-.449,2.55,2.55,0,0,1,.91-.164,2.362,2.362,0,0,1,.914.16,1.712,1.712,0,0,1,.637.449,1.829,1.829,0,0,1,.375.7A3.108,3.108,0,0,1,48.876,11Zm3.43,5.969a2.994,2.994,0,0,1-.441.1,3.111,3.111,0,0,1-.488.039,1.594,1.594,0,0,1-1.18-.395,1.439,1.439,0,0,1-.391-1.059,3.227,3.227,0,0,1,.039-.461q.039-.266.125-.656L51.135,9h1.3L51.26,14.57q-.07.328-.1.508a2.078,2.078,0,0,0-.027.3.644.644,0,0,0,.176.488.787.787,0,0,0,.559.168,2.366,2.366,0,0,0,.355-.023,1.575,1.575,0,0,0,.285-.07Zm.914-10.82a.841.841,0,0,1-.238.6.782.782,0,0,1-.59.25.831.831,0,0,1-.6-.246.81.81,0,0,1-.254-.605.749.749,0,0,1,.254-.586.869.869,0,0,1,.6-.227.819.819,0,0,1,.586.23A.769.769,0,0,1,53.221,6.148ZM59.6,14.539q-.055.25-.105.6t-.09.707q-.039.355-.066.668T59.307,17H57.979q0-.133.02-.355t.047-.465q.027-.242.059-.465t.055-.363h-.031a7.891,7.891,0,0,1-.562.8,3.256,3.256,0,0,1-.594.578,2.386,2.386,0,0,1-.664.348,2.434,2.434,0,0,1-.773.117,2.39,2.39,0,0,1-.984-.2,2.006,2.006,0,0,1-.746-.574,2.646,2.646,0,0,1-.473-.937,4.57,4.57,0,0,1-.164-1.285,6.325,6.325,0,0,1,.121-1.2,6.161,6.161,0,0,1,.375-1.227,5.748,5.748,0,0,1,.645-1.141,4.367,4.367,0,0,1,2.164-1.59A4.775,4.775,0,0,1,58.026,8.8a5.273,5.273,0,0,1,.813.059q.375.059.648.121L60.3,5.156h1.266Zm-.336-4.453a5.033,5.033,0,0,0-.621-.137,4.471,4.471,0,0,0-.691-.051,3.17,3.17,0,0,0-1.2.211,3.024,3.024,0,0,0-.906.563,3.367,3.367,0,0,0-.648.8,5.045,5.045,0,0,0-.422.922,5.248,5.248,0,0,0-.227.93,5.785,5.785,0,0,0-.066.824,3.949,3.949,0,0,0,.074.8,1.779,1.779,0,0,0,.242.617,1.157,1.157,0,0,0,.434.4,1.353,1.353,0,0,0,.641.141,1.658,1.658,0,0,0,.73-.164,2.516,2.516,0,0,0,.637-.445,3.676,3.676,0,0,0,.539-.648,6.291,6.291,0,0,0,.438-.781,6.943,6.943,0,0,0,.332-.84q.137-.426.223-.816Zm8.4,4.352q-.063.3-.121.668t-.1.734q-.043.363-.07.676T67.339,17H66.011q.008-.156.023-.375t.043-.453q.027-.234.055-.461t.059-.391H66.16q-.242.383-.492.723a3.479,3.479,0,0,1-.555.6,2.429,2.429,0,0,1-.68.406,2.612,2.612,0,0,1-1.84-.039,2.006,2.006,0,0,1-.746-.559,2.574,2.574,0,0,1-.48-.93,4.532,4.532,0,0,1-.168-1.3,6.518,6.518,0,0,1,.094-1.031,6.309,6.309,0,0,1,.316-1.18,6.007,6.007,0,0,1,.594-1.176A4.465,4.465,0,0,1,63.124,9.8a4.4,4.4,0,0,1,1.3-.727A5.051,5.051,0,0,1,66.16,8.8a9.22,9.22,0,0,1,1.289.094q.664.094,1.32.227Zm-.367-4.383q-.273-.062-.641-.109a5.447,5.447,0,0,0-.687-.047,3.119,3.119,0,0,0-1.2.215,3.077,3.077,0,0,0-.9.563,3.313,3.313,0,0,0-.645.8,4.965,4.965,0,0,0-.418.926,5.448,5.448,0,0,0-.223.934,5.91,5.91,0,0,0-.066.836,3.744,3.744,0,0,0,.078.8,1.748,1.748,0,0,0,.246.605,1.156,1.156,0,0,0,.43.387,1.325,1.325,0,0,0,.621.137,1.692,1.692,0,0,0,.73-.16,2.532,2.532,0,0,0,.637-.434,3.56,3.56,0,0,0,.539-.633,6.226,6.226,0,0,0,.438-.762,6.516,6.516,0,0,0,.332-.82q.137-.418.223-.809Zm8.368,4.484q-.055.25-.105.6t-.09.707q-.039.355-.066.668T75.371,17H74.043q0-.133.02-.355t.047-.465q.027-.242.059-.465t.055-.363h-.031a7.891,7.891,0,0,1-.562.8,3.256,3.256,0,0,1-.594.578,2.386,2.386,0,0,1-.664.348,2.434,2.434,0,0,1-.773.117,2.39,2.39,0,0,1-.984-.2,2.006,2.006,0,0,1-.746-.574,2.646,2.646,0,0,1-.473-.937A4.57,4.57,0,0,1,69.23,14.2a6.325,6.325,0,0,1,.121-1.2,6.161,6.161,0,0,1,.375-1.227,5.749,5.749,0,0,1,.645-1.141,4.367,4.367,0,0,1,2.164-1.59A4.775,4.775,0,0,1,74.09,8.8a5.273,5.273,0,0,1,.813.059q.375.059.648.121l.813-3.828h1.266Zm-.336-4.453a5.033,5.033,0,0,0-.621-.137,4.471,4.471,0,0,0-.691-.051,3.17,3.17,0,0,0-1.2.211,3.024,3.024,0,0,0-.906.563,3.367,3.367,0,0,0-.648.8,5.046,5.046,0,0,0-.422.922,5.248,5.248,0,0,0-.227.93,5.785,5.785,0,0,0-.066.824,3.949,3.949,0,0,0,.074.8,1.779,1.779,0,0,0,.242.617,1.157,1.157,0,0,0,.434.4,1.353,1.353,0,0,0,.641.141,1.658,1.658,0,0,0,.73-.164,2.516,2.516,0,0,0,.637-.445,3.677,3.677,0,0,0,.539-.648,6.291,6.291,0,0,0,.438-.781,6.943,6.943,0,0,0,.332-.84q.137-.426.223-.816Zm8.813.789a2.381,2.381,0,0,1-.281,1.152,2.331,2.331,0,0,1-.93.891,5.584,5.584,0,0,1-1.711.574,14.678,14.678,0,0,1-2.625.211,1,1,0,0,0-.016.18v.156a2.657,2.657,0,0,0,.117.8,1.8,1.8,0,0,0,.363.656,1.714,1.714,0,0,0,.633.445,2.341,2.341,0,0,0,.918.164,3.9,3.9,0,0,0,1.184-.207,5.087,5.087,0,0,0,1.23-.59l-.242,1.266a5.078,5.078,0,0,1-1.023.438,4.4,4.4,0,0,1-1.328.188,3.609,3.609,0,0,1-1.488-.273,2.621,2.621,0,0,1-.977-.73,2.848,2.848,0,0,1-.535-1.055,4.716,4.716,0,0,1-.164-1.254,5.8,5.8,0,0,1,.156-1.355,5.519,5.519,0,0,1,.441-1.215,5.148,5.148,0,0,1,.684-1.027,4.444,4.444,0,0,1,.883-.793,4.092,4.092,0,0,1,1.039-.508,3.7,3.7,0,0,1,1.148-.18,3.319,3.319,0,0,1,1.09.164,2.277,2.277,0,0,1,.789.449,1.915,1.915,0,0,1,.48.66A1.966,1.966,0,0,1,84.137,10.875Zm-1.3.063a.9.9,0,0,0-.363-.766A1.565,1.565,0,0,0,81.5,9.9a2.163,2.163,0,0,0-.922.207,2.984,2.984,0,0,0-.82.57,3.56,3.56,0,0,0-.648.867,4.038,4.038,0,0,0-.4,1.09,13.5,13.5,0,0,0,1.9-.113,4.925,4.925,0,0,0,1.273-.332,1.712,1.712,0,0,0,.719-.535A1.2,1.2,0,0,0,82.833,10.938Zm6.633-.531a3.33,3.33,0,0,0-.789-.367A2.845,2.845,0,0,0,87.8,9.9a1.726,1.726,0,0,0-1.137.336,1.1,1.1,0,0,0-.4.891,1.116,1.116,0,0,0,.074.414,1.25,1.25,0,0,0,.219.355,1.985,1.985,0,0,0,.367.324q.223.156.512.336A4.028,4.028,0,0,1,88.7,13.6a2.01,2.01,0,0,1,.387,1.207,2.435,2.435,0,0,1-.168.887,2,2,0,0,1-.535.766,2.744,2.744,0,0,1-.949.535,4.331,4.331,0,0,1-1.418.2,4.7,4.7,0,0,1-.516-.031,5.462,5.462,0,0,1-.566-.094,4.941,4.941,0,0,1-.547-.152,2.407,2.407,0,0,1-.457-.207l.258-1.219a2.691,2.691,0,0,0,.387.219,4,4,0,0,0,.5.2,4.673,4.673,0,0,0,.563.141,3.166,3.166,0,0,0,.582.055,1.834,1.834,0,0,0,1.168-.312,1.053,1.053,0,0,0,.387-.867,1.155,1.155,0,0,0-.059-.375,1.052,1.052,0,0,0-.207-.344,2.3,2.3,0,0,0-.391-.348q-.242-.176-.609-.395a3.947,3.947,0,0,1-1.176-1.012,1.992,1.992,0,0,1-.379-1.191,2.432,2.432,0,0,1,.18-.926,2.24,2.24,0,0,1,.535-.781,2.6,2.6,0,0,1,.895-.543,3.559,3.559,0,0,1,1.258-.2,5.018,5.018,0,0,1,1.066.109,3.786,3.786,0,0,1,.855.281Zm10.814,4.133q-.055.25-.105.6t-.09.707q-.039.355-.066.668T99.991,17H98.663q0-.133.02-.355t.047-.465q.027-.242.059-.465t.055-.363h-.031a7.891,7.891,0,0,1-.562.8,3.256,3.256,0,0,1-.594.578,2.386,2.386,0,0,1-.664.348,2.434,2.434,0,0,1-.773.117,2.39,2.39,0,0,1-.984-.2,2.006,2.006,0,0,1-.746-.574,2.646,2.646,0,0,1-.473-.937A4.57,4.57,0,0,1,93.85,14.2a6.325,6.325,0,0,1,.121-1.2,6.161,6.161,0,0,1,.375-1.227,5.749,5.749,0,0,1,.645-1.141,4.367,4.367,0,0,1,2.164-1.59A4.775,4.775,0,0,1,98.71,8.8a5.273,5.273,0,0,1,.813.059q.375.059.648.121l.813-3.828h1.266Zm-.336-4.453a5.033,5.033,0,0,0-.621-.137,4.471,4.471,0,0,0-.691-.051,3.17,3.17,0,0,0-1.2.211,3.024,3.024,0,0,0-.906.563,3.367,3.367,0,0,0-.648.8,5.046,5.046,0,0,0-.422.922,5.248,5.248,0,0,0-.227.93,5.785,5.785,0,0,0-.066.824,3.949,3.949,0,0,0,.074.8,1.779,1.779,0,0,0,.242.617,1.157,1.157,0,0,0,.434.4,1.353,1.353,0,0,0,.641.141,1.658,1.658,0,0,0,.73-.164,2.516,2.516,0,0,0,.637-.445,3.677,3.677,0,0,0,.539-.648,6.291,6.291,0,0,0,.438-.781,6.943,6.943,0,0,0,.332-.84q.137-.426.223-.816Zm8.813.789a2.381,2.381,0,0,1-.281,1.152,2.331,2.331,0,0,1-.93.891,5.584,5.584,0,0,1-1.711.574,14.678,14.678,0,0,1-2.625.211,1,1,0,0,0-.016.18v.156a2.657,2.657,0,0,0,.117.8,1.8,1.8,0,0,0,.363.656,1.714,1.714,0,0,0,.633.445,2.341,2.341,0,0,0,.918.164,3.9,3.9,0,0,0,1.184-.207,5.087,5.087,0,0,0,1.23-.59L107.4,16.57a5.078,5.078,0,0,1-1.023.438,4.4,4.4,0,0,1-1.328.188,3.609,3.609,0,0,1-1.488-.273,2.621,2.621,0,0,1-.977-.73,2.848,2.848,0,0,1-.535-1.055,4.716,4.716,0,0,1-.164-1.254,5.8,5.8,0,0,1,.156-1.355,5.519,5.519,0,0,1,.441-1.215,5.148,5.148,0,0,1,.684-1.027,4.444,4.444,0,0,1,.883-.793,4.092,4.092,0,0,1,1.039-.508,3.7,3.7,0,0,1,1.148-.18,3.319,3.319,0,0,1,1.09.164,2.277,2.277,0,0,1,.789.449,1.915,1.915,0,0,1,.48.66A1.966,1.966,0,0,1,108.757,10.875Zm-1.3.063a.9.9,0,0,0-.363-.766,1.565,1.565,0,0,0-.965-.273,2.163,2.163,0,0,0-.922.207,2.984,2.984,0,0,0-.82.57,3.56,3.56,0,0,0-.648.867,4.038,4.038,0,0,0-.4,1.09,13.5,13.5,0,0,0,1.9-.113,4.925,4.925,0,0,0,1.273-.332,1.712,1.712,0,0,0,.719-.535A1.2,1.2,0,0,0,107.452,10.938Zm7.4-4.672a1.34,1.34,0,0,0-.187-.074q-.109-.035-.234-.066a2.588,2.588,0,0,0-.262-.051,1.852,1.852,0,0,0-.262-.02,1.213,1.213,0,0,0-.988.418,2.912,2.912,0,0,0-.527,1.246L112.1,9h1.891l-.258,1.086h-1.891l-2.047,9.57h-1.3l2.063-9.57h-1.375L109.43,9H110.8l.32-1.484a4.341,4.341,0,0,1,.414-1.172,2.689,2.689,0,0,1,.633-.789A2.358,2.358,0,0,1,113,5.109a3.509,3.509,0,0,1,1.02-.141,3.393,3.393,0,0,1,.566.047,3.473,3.473,0,0,1,.473.109Zm5.133,4.609a2.381,2.381,0,0,1-.281,1.152,2.331,2.331,0,0,1-.93.891,5.584,5.584,0,0,1-1.711.574,14.678,14.678,0,0,1-2.625.211,1,1,0,0,0-.016.18v.156a2.657,2.657,0,0,0,.117.8,1.8,1.8,0,0,0,.363.656,1.714,1.714,0,0,0,.633.445,2.341,2.341,0,0,0,.918.164,3.9,3.9,0,0,0,1.184-.207,5.087,5.087,0,0,0,1.23-.59l-.242,1.266a5.078,5.078,0,0,1-1.023.438,4.4,4.4,0,0,1-1.328.188,3.609,3.609,0,0,1-1.488-.273,2.621,2.621,0,0,1-.977-.73,2.848,2.848,0,0,1-.535-1.055,4.716,4.716,0,0,1-.164-1.254,5.8,5.8,0,0,1,.156-1.355,5.519,5.519,0,0,1,.441-1.215,5.148,5.148,0,0,1,.684-1.027,4.444,4.444,0,0,1,.883-.793,4.092,4.092,0,0,1,1.039-.508,3.7,3.7,0,0,1,1.148-.18,3.319,3.319,0,0,1,1.09.164,2.277,2.277,0,0,1,.789.449,1.915,1.915,0,0,1,.48.66A1.966,1.966,0,0,1,119.985,10.875Zm-1.3.063a.9.9,0,0,0-.363-.766,1.565,1.565,0,0,0-.965-.273,2.163,2.163,0,0,0-.922.207,2.984,2.984,0,0,0-.82.57,3.56,3.56,0,0,0-.648.867,4.038,4.038,0,0,0-.4,1.09,13.5,13.5,0,0,0,1.9-.113,4.925,4.925,0,0,0,1.273-.332,1.712,1.712,0,0,0,.719-.535A1.2,1.2,0,0,0,118.68,10.938Zm7.719-.352a2.941,2.941,0,0,0-.793-.488,2.582,2.582,0,0,0-1.027-.2,2.427,2.427,0,0,0-.973.188,2.684,2.684,0,0,0-.77.5,3.244,3.244,0,0,0-.578.719,4.792,4.792,0,0,0-.4.844,5.193,5.193,0,0,0-.23.871,4.81,4.81,0,0,0-.074.809,2.552,2.552,0,0,0,.492,1.7,1.672,1.672,0,0,0,1.344.578,2.957,2.957,0,0,0,1.07-.215,5.152,5.152,0,0,0,1.047-.551l-.273,1.281a5.483,5.483,0,0,1-1.012.426,3.666,3.666,0,0,1-1.066.152,3.029,3.029,0,0,1-1.277-.25,2.5,2.5,0,0,1-.9-.687,2.946,2.946,0,0,1-.539-1.035,4.472,4.472,0,0,1-.18-1.293,6.315,6.315,0,0,1,.133-1.293,5.569,5.569,0,0,1,.395-1.2,5.218,5.218,0,0,1,.645-1.051A4.107,4.107,0,0,1,123.415,9a4.451,4.451,0,0,1,1.961-.152,3.8,3.8,0,0,1,.555.125,3.737,3.737,0,0,1,.445.168,1.829,1.829,0,0,1,.313.176Zm4.977-.5h-2.016l-.9,4.242q-.047.242-.094.523a2.892,2.892,0,0,0-.047.453.789.789,0,0,0,.176.574.764.764,0,0,0,.559.176,1.228,1.228,0,0,0,.242-.031q.148-.031.3-.078t.309-.105l.27-.105-.242,1.125a3.788,3.788,0,0,1-.621.2,2.877,2.877,0,0,1-.66.082,2.234,2.234,0,0,1-.758-.113,1.3,1.3,0,0,1-.512-.324,1.256,1.256,0,0,1-.289-.512,2.358,2.358,0,0,1-.09-.676,3.787,3.787,0,0,1,.043-.527,5.468,5.468,0,0,1,.105-.551l.922-4.352h-1.328L126.994,9h1.312l.414-1.953a2.408,2.408,0,0,1,.238-.074q.207-.059.453-.133l.453-.137.23-.07L129.6,9h2.016Zm6.407,4.641q-.07.3-.129.633l-.113.633q-.055.3-.094.57t-.062.438h-1.25q.039-.3.09-.637t.1-.613q.055-.328.1-.641h-.031a6.607,6.607,0,0,1-.605.809,4.531,4.531,0,0,1-.719.664,3.413,3.413,0,0,1-.82.449,2.529,2.529,0,0,1-.9.164,2.346,2.346,0,0,1-.9-.16,1.741,1.741,0,0,1-.645-.449,1.886,1.886,0,0,1-.387-.7,2.988,2.988,0,0,1-.129-.906,2.2,2.2,0,0,1,.031-.3q.031-.2.07-.437t.09-.465q.051-.23.082-.395L132.487,9h1.3l-.992,4.688q-.031.125-.062.289t-.059.328q-.027.164-.043.3a2.008,2.008,0,0,0-.016.215,1.427,1.427,0,0,0,.285.934,1.042,1.042,0,0,0,.855.348,1.8,1.8,0,0,0,.688-.141,3.128,3.128,0,0,0,.668-.379,4.2,4.2,0,0,0,.613-.555,5.41,5.41,0,0,0,.523-.672,4.879,4.879,0,0,0,.4-.73,4.028,4.028,0,0,0,.242-.719L137.721,9h1.289Zm8.977-2.766a6.659,6.659,0,0,1-.3,2.016,5.153,5.153,0,0,1-.867,1.668,4.19,4.19,0,0,1-1.375,1.133,3.914,3.914,0,0,1-1.824.418,3.33,3.33,0,0,1-1.238-.219,2.576,2.576,0,0,1-.937-.629,2.786,2.786,0,0,1-.594-.992,3.912,3.912,0,0,1-.207-1.316,6.519,6.519,0,0,1,.316-2.059,5.2,5.2,0,0,1,.891-1.664A4.161,4.161,0,0,1,142,9.207a3.885,3.885,0,0,1,1.77-.4,3.308,3.308,0,0,1,1.23.219,2.614,2.614,0,0,1,.941.629,2.848,2.848,0,0,1,.605.992A3.783,3.783,0,0,1,146.761,11.961Zm-1.312.063a2.987,2.987,0,0,0-.125-.9,1.919,1.919,0,0,0-.352-.664,1.525,1.525,0,0,0-.547-.414,1.729,1.729,0,0,0-.719-.145,2.272,2.272,0,0,0-1.242.352,3.143,3.143,0,0,0-.937.926,4.591,4.591,0,0,0-.59,1.3,5.46,5.46,0,0,0-.207,1.5,2.988,2.988,0,0,0,.121.879,2,2,0,0,0,.344.672,1.484,1.484,0,0,0,.547.426,1.735,1.735,0,0,0,.73.148,2.3,2.3,0,0,0,1.25-.348,3.1,3.1,0,0,0,.938-.922,4.506,4.506,0,0,0,.586-1.309A5.6,5.6,0,0,0,145.448,12.023Zm6.946-1.617a3.329,3.329,0,0,0-.789-.367,2.845,2.845,0,0,0-.875-.141,1.726,1.726,0,0,0-1.137.336,1.1,1.1,0,0,0-.4.891,1.116,1.116,0,0,0,.074.414,1.25,1.25,0,0,0,.219.355,1.986,1.986,0,0,0,.367.324q.223.156.512.336a4.028,4.028,0,0,1,1.262,1.043,2.01,2.01,0,0,1,.387,1.207,2.435,2.435,0,0,1-.168.887,2,2,0,0,1-.535.766,2.745,2.745,0,0,1-.949.535,4.331,4.331,0,0,1-1.418.2,4.7,4.7,0,0,1-.516-.031,5.462,5.462,0,0,1-.566-.094,4.941,4.941,0,0,1-.547-.152,2.407,2.407,0,0,1-.457-.207l.258-1.219a2.692,2.692,0,0,0,.387.219,4,4,0,0,0,.5.2,4.673,4.673,0,0,0,.563.141,3.166,3.166,0,0,0,.582.055,1.834,1.834,0,0,0,1.168-.312,1.053,1.053,0,0,0,.387-.867,1.155,1.155,0,0,0-.059-.375,1.052,1.052,0,0,0-.207-.344,2.3,2.3,0,0,0-.391-.348q-.242-.176-.609-.395a3.947,3.947,0,0,1-1.176-1.012,1.992,1.992,0,0,1-.379-1.191,2.432,2.432,0,0,1,.18-.926,2.24,2.24,0,0,1,.535-.781,2.6,2.6,0,0,1,.895-.543,3.559,3.559,0,0,1,1.258-.2,5.018,5.018,0,0,1,1.066.109,3.786,3.786,0,0,1,.855.281Zm7.087,4.031q-.063.3-.121.668t-.1.734q-.043.363-.07.676T159.16,17h-1.328q.008-.156.023-.375t.043-.453q.027-.234.055-.461t.059-.391h-.031q-.242.383-.492.723a3.478,3.478,0,0,1-.555.6,2.429,2.429,0,0,1-.68.406,2.612,2.612,0,0,1-1.84-.039,2.006,2.006,0,0,1-.746-.559,2.574,2.574,0,0,1-.48-.93,4.531,4.531,0,0,1-.168-1.3,6.518,6.518,0,0,1,.094-1.031,6.309,6.309,0,0,1,.316-1.18,6.007,6.007,0,0,1,.594-1.176,4.465,4.465,0,0,1,.922-1.027,4.4,4.4,0,0,1,1.3-.727,5.051,5.051,0,0,1,1.734-.273,9.22,9.22,0,0,1,1.289.094q.664.094,1.32.227Zm-.367-4.383q-.273-.062-.641-.109a5.447,5.447,0,0,0-.687-.047,3.119,3.119,0,0,0-1.2.215,3.077,3.077,0,0,0-.9.563,3.313,3.313,0,0,0-.645.8,4.965,4.965,0,0,0-.418.926,5.448,5.448,0,0,0-.223.934,5.911,5.911,0,0,0-.066.836,3.744,3.744,0,0,0,.078.8,1.748,1.748,0,0,0,.246.605,1.156,1.156,0,0,0,.43.387,1.325,1.325,0,0,0,.621.137,1.692,1.692,0,0,0,.73-.16,2.532,2.532,0,0,0,.637-.434,3.56,3.56,0,0,0,.539-.633,6.225,6.225,0,0,0,.438-.762,6.515,6.515,0,0,0,.332-.82q.137-.418.223-.809Zm6.993.352a3.329,3.329,0,0,0-.789-.367,2.845,2.845,0,0,0-.875-.141,1.726,1.726,0,0,0-1.137.336,1.1,1.1,0,0,0-.4.891,1.116,1.116,0,0,0,.074.414,1.25,1.25,0,0,0,.219.355,1.986,1.986,0,0,0,.367.324q.223.156.512.336a4.028,4.028,0,0,1,1.262,1.043,2.01,2.01,0,0,1,.387,1.207,2.435,2.435,0,0,1-.168.887,2,2,0,0,1-.535.766,2.745,2.745,0,0,1-.949.535,4.331,4.331,0,0,1-1.418.2,4.7,4.7,0,0,1-.516-.031,5.462,5.462,0,0,1-.566-.094,4.941,4.941,0,0,1-.547-.152,2.407,2.407,0,0,1-.457-.207l.258-1.219a2.692,2.692,0,0,0,.387.219,4,4,0,0,0,.5.2,4.673,4.673,0,0,0,.563.141,3.166,3.166,0,0,0,.582.055,1.834,1.834,0,0,0,1.168-.312,1.053,1.053,0,0,0,.387-.867,1.155,1.155,0,0,0-.059-.375,1.052,1.052,0,0,0-.207-.344,2.3,2.3,0,0,0-.391-.348q-.242-.176-.609-.395a3.947,3.947,0,0,1-1.176-1.012,1.992,1.992,0,0,1-.379-1.191,2.432,2.432,0,0,1,.18-.926,2.24,2.24,0,0,1,.535-.781,2.6,2.6,0,0,1,.895-.543,3.559,3.559,0,0,1,1.258-.2,5.018,5.018,0,0,1,1.066.109,3.786,3.786,0,0,1,.855.281Zm.415,8.656h-1.008l1.57-3.836h1.281Zm13.243-4.523q-.055.25-.105.6t-.09.707q-.039.355-.066.668t-.027.484h-1.328q0-.133.02-.355t.047-.465q.027-.242.059-.465t.055-.363H178.3a7.891,7.891,0,0,1-.562.8,3.256,3.256,0,0,1-.594.578,2.385,2.385,0,0,1-.664.348,2.434,2.434,0,0,1-.773.117,2.39,2.39,0,0,1-.984-.2,2.006,2.006,0,0,1-.746-.574,2.646,2.646,0,0,1-.473-.937,4.57,4.57,0,0,1-.164-1.285,6.324,6.324,0,0,1,.121-1.2,6.162,6.162,0,0,1,.375-1.227,5.748,5.748,0,0,1,.645-1.141,4.367,4.367,0,0,1,2.164-1.59,4.775,4.775,0,0,1,1.555-.238,5.273,5.273,0,0,1,.813.059q.375.059.648.121l.813-3.828h1.266Zm-.336-4.453a5.033,5.033,0,0,0-.621-.137,4.471,4.471,0,0,0-.691-.051,3.17,3.17,0,0,0-1.2.211,3.024,3.024,0,0,0-.906.563,3.367,3.367,0,0,0-.648.8,5.045,5.045,0,0,0-.422.922,5.248,5.248,0,0,0-.227.93,5.786,5.786,0,0,0-.066.824,3.949,3.949,0,0,0,.074.8,1.779,1.779,0,0,0,.242.617,1.157,1.157,0,0,0,.434.4,1.353,1.353,0,0,0,.641.141,1.658,1.658,0,0,0,.73-.164,2.516,2.516,0,0,0,.637-.445,3.676,3.676,0,0,0,.539-.648,6.291,6.291,0,0,0,.438-.781,6.943,6.943,0,0,0,.332-.84q.137-.426.223-.816Zm8.813.789a2.381,2.381,0,0,1-.281,1.152,2.331,2.331,0,0,1-.93.891,5.584,5.584,0,0,1-1.711.574,14.678,14.678,0,0,1-2.625.211,1,1,0,0,0-.016.18v.156a2.657,2.657,0,0,0,.117.8,1.8,1.8,0,0,0,.363.656,1.714,1.714,0,0,0,.633.445,2.341,2.341,0,0,0,.918.164,3.9,3.9,0,0,0,1.184-.207,5.087,5.087,0,0,0,1.23-.59l-.242,1.266a5.078,5.078,0,0,1-1.023.438,4.4,4.4,0,0,1-1.328.188,3.609,3.609,0,0,1-1.488-.273,2.621,2.621,0,0,1-.977-.73,2.848,2.848,0,0,1-.535-1.055,4.716,4.716,0,0,1-.164-1.254,5.8,5.8,0,0,1,.156-1.355,5.519,5.519,0,0,1,.441-1.215,5.149,5.149,0,0,1,.684-1.027,4.443,4.443,0,0,1,.883-.793,4.092,4.092,0,0,1,1.039-.508,3.7,3.7,0,0,1,1.148-.18,3.319,3.319,0,0,1,1.09.164,2.277,2.277,0,0,1,.789.449,1.915,1.915,0,0,1,.48.66A1.966,1.966,0,0,1,188.242,10.875Zm-1.3.063a.9.9,0,0,0-.363-.766,1.565,1.565,0,0,0-.965-.273,2.163,2.163,0,0,0-.922.207,2.984,2.984,0,0,0-.82.57,3.56,3.56,0,0,0-.648.867,4.038,4.038,0,0,0-.4,1.09,13.5,13.5,0,0,0,1.9-.113,4.925,4.925,0,0,0,1.273-.332,1.712,1.712,0,0,0,.719-.535A1.2,1.2,0,0,0,186.937,10.938Zm11.767,3.6q-.055.25-.105.6t-.09.707q-.039.355-.066.668t-.027.484h-1.328q0-.133.02-.355t.047-.465q.027-.242.059-.465t.055-.363h-.031a7.891,7.891,0,0,1-.562.8,3.256,3.256,0,0,1-.594.578,2.385,2.385,0,0,1-.664.348,2.434,2.434,0,0,1-.773.117,2.39,2.39,0,0,1-.984-.2,2.006,2.006,0,0,1-.746-.574,2.646,2.646,0,0,1-.473-.937,4.57,4.57,0,0,1-.164-1.285A6.324,6.324,0,0,1,192.4,13a6.162,6.162,0,0,1,.375-1.227,5.748,5.748,0,0,1,.645-1.141,4.367,4.367,0,0,1,2.164-1.59,4.775,4.775,0,0,1,1.555-.238,5.273,5.273,0,0,1,.813.059q.375.059.648.121l.813-3.828h1.266Zm-.336-4.453a5.033,5.033,0,0,0-.621-.137,4.471,4.471,0,0,0-.691-.051,3.17,3.17,0,0,0-1.2.211,3.024,3.024,0,0,0-.906.563,3.367,3.367,0,0,0-.648.8,5.045,5.045,0,0,0-.422.922,5.248,5.248,0,0,0-.227.93,5.786,5.786,0,0,0-.066.824,3.949,3.949,0,0,0,.074.8,1.779,1.779,0,0,0,.242.617,1.157,1.157,0,0,0,.434.4,1.353,1.353,0,0,0,.641.141,1.658,1.658,0,0,0,.73-.164,2.516,2.516,0,0,0,.637-.445,3.676,3.676,0,0,0,.539-.648,6.291,6.291,0,0,0,.438-.781,6.943,6.943,0,0,0,.332-.84q.137-.426.223-.816Zm8.813.789a2.381,2.381,0,0,1-.281,1.152,2.331,2.331,0,0,1-.93.891,5.584,5.584,0,0,1-1.711.574,14.678,14.678,0,0,1-2.625.211,1,1,0,0,0-.016.18v.156a2.657,2.657,0,0,0,.117.8,1.8,1.8,0,0,0,.363.656,1.714,1.714,0,0,0,.633.445,2.341,2.341,0,0,0,.918.164,3.9,3.9,0,0,0,1.184-.207,5.087,5.087,0,0,0,1.23-.59l-.242,1.266a5.078,5.078,0,0,1-1.023.438,4.4,4.4,0,0,1-1.328.188,3.609,3.609,0,0,1-1.488-.273,2.621,2.621,0,0,1-.977-.73,2.848,2.848,0,0,1-.535-1.055,4.716,4.716,0,0,1-.164-1.254,5.8,5.8,0,0,1,.156-1.355,5.519,5.519,0,0,1,.441-1.215,5.149,5.149,0,0,1,.684-1.027,4.443,4.443,0,0,1,.883-.793,4.092,4.092,0,0,1,1.039-.508,3.7,3.7,0,0,1,1.148-.18,3.319,3.319,0,0,1,1.09.164,2.277,2.277,0,0,1,.789.449,1.915,1.915,0,0,1,.48.66A1.966,1.966,0,0,1,207.181,10.875Zm-1.3.063a.9.9,0,0,0-.363-.766,1.565,1.565,0,0,0-.965-.273,2.163,2.163,0,0,0-.922.207,2.984,2.984,0,0,0-.82.57,3.56,3.56,0,0,0-.648.867,4.038,4.038,0,0,0-.4,1.09,13.5,13.5,0,0,0,1.9-.113,4.925,4.925,0,0,0,1.273-.332,1.712,1.712,0,0,0,.719-.535A1.2,1.2,0,0,0,205.876,10.938Zm6.633-.531a3.329,3.329,0,0,0-.789-.367,2.845,2.845,0,0,0-.875-.141,1.726,1.726,0,0,0-1.137.336,1.1,1.1,0,0,0-.4.891,1.116,1.116,0,0,0,.074.414,1.25,1.25,0,0,0,.219.355,1.986,1.986,0,0,0,.367.324q.223.156.512.336A4.028,4.028,0,0,1,211.74,13.6a2.01,2.01,0,0,1,.387,1.207,2.435,2.435,0,0,1-.168.887,2,2,0,0,1-.535.766,2.745,2.745,0,0,1-.949.535,4.331,4.331,0,0,1-1.418.2,4.7,4.7,0,0,1-.516-.031,5.462,5.462,0,0,1-.566-.094,4.941,4.941,0,0,1-.547-.152,2.407,2.407,0,0,1-.457-.207l.258-1.219a2.692,2.692,0,0,0,.387.219,4,4,0,0,0,.5.2,4.673,4.673,0,0,0,.563.141,3.166,3.166,0,0,0,.582.055,1.834,1.834,0,0,0,1.168-.312,1.053,1.053,0,0,0,.387-.867,1.155,1.155,0,0,0-.059-.375,1.052,1.052,0,0,0-.207-.344,2.3,2.3,0,0,0-.391-.348q-.242-.176-.609-.395a3.947,3.947,0,0,1-1.176-1.012,1.992,1.992,0,0,1-.379-1.191,2.432,2.432,0,0,1,.18-.926,2.24,2.24,0,0,1,.535-.781,2.6,2.6,0,0,1,.895-.543,3.559,3.559,0,0,1,1.258-.2,5.018,5.018,0,0,1,1.066.109,3.786,3.786,0,0,1,.855.281Zm8.079,1.391a6.076,6.076,0,0,1-.125,1.2,6.206,6.206,0,0,1-.383,1.223,6.02,6.02,0,0,1-.645,1.141,4.626,4.626,0,0,1-.91.949,4.22,4.22,0,0,1-1.187.648,4.323,4.323,0,0,1-1.469.238,4.833,4.833,0,0,1-.91-.086,5.594,5.594,0,0,1-.785-.2l-.8,3.8h-1.3l1.953-9.25q.055-.25.1-.6t.082-.707q.035-.355.059-.668T214.3,9h1.313q0,.133-.02.359t-.051.473q-.031.246-.062.477t-.055.371h.031a4.221,4.221,0,0,1,1.25-1.41,2.672,2.672,0,0,1,1.516-.465,2.476,2.476,0,0,1,.984.188,1.949,1.949,0,0,1,.746.563,2.6,2.6,0,0,1,.473.938A4.675,4.675,0,0,1,220.589,11.8Zm-1.312.055a3.864,3.864,0,0,0-.074-.781,1.733,1.733,0,0,0-.246-.617,1.246,1.246,0,0,0-.441-.406,1.352,1.352,0,0,0-.66-.148,1.761,1.761,0,0,0-.762.168,2.623,2.623,0,0,0-.66.449,3.683,3.683,0,0,0-.555.652,6.482,6.482,0,0,0-.445.77,6.762,6.762,0,0,0-.332.8,6.038,6.038,0,0,0-.207.754l-.492,2.32a2.193,2.193,0,0,0,.336.113q.2.051.406.09t.43.063a3.83,3.83,0,0,0,.406.023,2.7,2.7,0,0,0,1-.18,2.891,2.891,0,0,0,.82-.488,3.446,3.446,0,0,0,.641-.727,4.822,4.822,0,0,0,.465-.891,5.242,5.242,0,0,0,.281-.977A5.4,5.4,0,0,0,219.276,11.852Zm8.766-.977a2.381,2.381,0,0,1-.281,1.152,2.331,2.331,0,0,1-.93.891,5.584,5.584,0,0,1-1.711.574,14.678,14.678,0,0,1-2.625.211,1,1,0,0,0-.016.18v.156a2.657,2.657,0,0,0,.117.8,1.8,1.8,0,0,0,.363.656,1.714,1.714,0,0,0,.633.445,2.341,2.341,0,0,0,.918.164,3.9,3.9,0,0,0,1.184-.207,5.087,5.087,0,0,0,1.23-.59l-.242,1.266a5.078,5.078,0,0,1-1.023.438,4.4,4.4,0,0,1-1.328.188,3.609,3.609,0,0,1-1.488-.273,2.621,2.621,0,0,1-.977-.73,2.848,2.848,0,0,1-.535-1.055,4.716,4.716,0,0,1-.164-1.254,5.8,5.8,0,0,1,.156-1.355,5.519,5.519,0,0,1,.441-1.215,5.149,5.149,0,0,1,.684-1.027,4.443,4.443,0,0,1,.883-.793,4.092,4.092,0,0,1,1.039-.508,3.7,3.7,0,0,1,1.148-.18,3.319,3.319,0,0,1,1.09.164,2.277,2.277,0,0,1,.789.449,1.915,1.915,0,0,1,.48.66A1.966,1.966,0,0,1,228.042,10.875Zm-1.3.063a.9.9,0,0,0-.363-.766,1.565,1.565,0,0,0-.965-.273,2.163,2.163,0,0,0-.922.207,2.984,2.984,0,0,0-.82.57,3.56,3.56,0,0,0-.648.867,4.038,4.038,0,0,0-.4,1.09,13.5,13.5,0,0,0,1.9-.113,4.925,4.925,0,0,0,1.273-.332,1.712,1.712,0,0,0,.719-.535A1.2,1.2,0,0,0,226.738,10.938Zm6.954-.578h-.031a2.307,2.307,0,0,0-.41-.184,1.5,1.5,0,0,0-.5-.09,1.479,1.479,0,0,0-.867.293,3.188,3.188,0,0,0-.754.773,5.549,5.549,0,0,0-.594,1.1,7.5,7.5,0,0,0-.395,1.266L229.387,17h-1.281l1.125-5.312q.07-.328.141-.687t.129-.719q.059-.359.105-.687t.07-.594h1.266q-.023.234-.055.5t-.062.508q-.031.246-.062.445t-.047.309h.031a8.624,8.624,0,0,1,.508-.8,3.717,3.717,0,0,1,.543-.613,2.3,2.3,0,0,1,.605-.395,1.71,1.71,0,0,1,.7-.141,2.206,2.206,0,0,1,.434.043q.215.043.387.09Zm6.094,4.18q-.055.25-.105.6t-.09.707q-.039.355-.066.668T239.5,17h-1.328q0-.133.02-.355t.047-.465q.027-.242.059-.465t.055-.363h-.031a7.891,7.891,0,0,1-.562.8,3.256,3.256,0,0,1-.594.578,2.385,2.385,0,0,1-.664.348,2.434,2.434,0,0,1-.773.117,2.39,2.39,0,0,1-.984-.2,2.006,2.006,0,0,1-.746-.574,2.646,2.646,0,0,1-.473-.937,4.57,4.57,0,0,1-.164-1.285,6.324,6.324,0,0,1,.121-1.2,6.162,6.162,0,0,1,.375-1.227,5.748,5.748,0,0,1,.645-1.141,4.367,4.367,0,0,1,2.164-1.59,4.775,4.775,0,0,1,1.555-.238,5.273,5.273,0,0,1,.813.059q.375.059.648.121l.813-3.828h1.266Zm-.336-4.453a5.033,5.033,0,0,0-.621-.137,4.471,4.471,0,0,0-.691-.051,3.17,3.17,0,0,0-1.2.211,3.024,3.024,0,0,0-.906.563,3.367,3.367,0,0,0-.648.8,5.045,5.045,0,0,0-.422.922,5.248,5.248,0,0,0-.227.93,5.786,5.786,0,0,0-.066.824,3.949,3.949,0,0,0,.074.8,1.779,1.779,0,0,0,.242.617,1.157,1.157,0,0,0,.434.4,1.353,1.353,0,0,0,.641.141,1.658,1.658,0,0,0,.73-.164,2.516,2.516,0,0,0,.637-.445,3.676,3.676,0,0,0,.539-.648,6.291,6.291,0,0,0,.438-.781,6.943,6.943,0,0,0,.332-.84q.137-.426.223-.816Zm4.579,6.883a2.994,2.994,0,0,1-.441.1,3.111,3.111,0,0,1-.488.039,1.594,1.594,0,0,1-1.18-.395,1.439,1.439,0,0,1-.391-1.059,3.227,3.227,0,0,1,.039-.461q.039-.266.125-.656L242.857,9h1.3l-1.172,5.57q-.07.328-.1.508a2.078,2.078,0,0,0-.027.3.644.644,0,0,0,.176.488.787.787,0,0,0,.559.168,2.366,2.366,0,0,0,.355-.023,1.575,1.575,0,0,0,.285-.07Zm.914-10.82a.841.841,0,0,1-.238.6.782.782,0,0,1-.59.25.831.831,0,0,1-.6-.246.81.81,0,0,1-.254-.605.749.749,0,0,1,.254-.586.869.869,0,0,1,.6-.227.819.819,0,0,1,.586.23A.769.769,0,0,1,244.943,6.148Zm6.087,4.438a2.941,2.941,0,0,0-.793-.488,2.582,2.582,0,0,0-1.027-.2,2.427,2.427,0,0,0-.973.188,2.684,2.684,0,0,0-.77.5,3.244,3.244,0,0,0-.578.719,4.793,4.793,0,0,0-.4.844,5.193,5.193,0,0,0-.23.871,4.809,4.809,0,0,0-.074.809,2.552,2.552,0,0,0,.492,1.7,1.672,1.672,0,0,0,1.344.578,2.957,2.957,0,0,0,1.07-.215,5.151,5.151,0,0,0,1.047-.551l-.273,1.281a5.483,5.483,0,0,1-1.012.426,3.666,3.666,0,0,1-1.066.152,3.029,3.029,0,0,1-1.277-.25,2.5,2.5,0,0,1-.9-.687,2.946,2.946,0,0,1-.539-1.035,4.472,4.472,0,0,1-.18-1.293,6.315,6.315,0,0,1,.133-1.293,5.569,5.569,0,0,1,.395-1.2,5.219,5.219,0,0,1,.645-1.051A4.107,4.107,0,0,1,248.045,9a4.451,4.451,0,0,1,1.961-.152,3.8,3.8,0,0,1,.555.125,3.736,3.736,0,0,1,.445.168,1.829,1.829,0,0,1,.313.176Zm2.837,6.383a2.994,2.994,0,0,1-.441.1,3.111,3.111,0,0,1-.488.039,1.594,1.594,0,0,1-1.18-.395,1.439,1.439,0,0,1-.391-1.059,3.227,3.227,0,0,1,.039-.461q.039-.266.125-.656L252.694,9h1.3l-1.172,5.57q-.07.328-.1.508a2.078,2.078,0,0,0-.027.3.644.644,0,0,0,.176.488.787.787,0,0,0,.559.168,2.366,2.366,0,0,0,.355-.023,1.575,1.575,0,0,0,.285-.07Zm.914-10.82a.841.841,0,0,1-.238.6.782.782,0,0,1-.59.25.831.831,0,0,1-.6-.246.81.81,0,0,1-.254-.605.749.749,0,0,1,.254-.586.869.869,0,0,1,.6-.227.819.819,0,0,1,.586.23A.769.769,0,0,1,254.78,6.148Zm7.29,5.813a6.658,6.658,0,0,1-.3,2.016,5.154,5.154,0,0,1-.867,1.668,4.19,4.19,0,0,1-1.375,1.133,3.914,3.914,0,0,1-1.824.418,3.33,3.33,0,0,1-1.238-.219,2.576,2.576,0,0,1-.937-.629,2.786,2.786,0,0,1-.594-.992,3.912,3.912,0,0,1-.207-1.316,6.519,6.519,0,0,1,.316-2.059,5.2,5.2,0,0,1,.891-1.664,4.161,4.161,0,0,1,1.375-1.109,3.885,3.885,0,0,1,1.77-.4,3.308,3.308,0,0,1,1.23.219,2.614,2.614,0,0,1,.941.629,2.848,2.848,0,0,1,.605.992A3.783,3.783,0,0,1,262.07,11.961Zm-1.312.063a2.986,2.986,0,0,0-.125-.9,1.92,1.92,0,0,0-.352-.664,1.525,1.525,0,0,0-.547-.414,1.729,1.729,0,0,0-.719-.145,2.272,2.272,0,0,0-1.242.352,3.144,3.144,0,0,0-.937.926,4.591,4.591,0,0,0-.59,1.3,5.46,5.46,0,0,0-.207,1.5,2.989,2.989,0,0,0,.121.879,2,2,0,0,0,.344.672,1.484,1.484,0,0,0,.547.426,1.735,1.735,0,0,0,.73.148,2.3,2.3,0,0,0,1.25-.348,3.1,3.1,0,0,0,.938-.922,4.505,4.505,0,0,0,.586-1.309A5.6,5.6,0,0,0,260.757,12.023ZM24.386,30.984H21.2L19.089,41H17.745L19.87,30.984H16.613l.25-1.187h7.781Zm6.43,4.977a6.659,6.659,0,0,1-.3,2.016,5.154,5.154,0,0,1-.867,1.668,4.19,4.19,0,0,1-1.375,1.133,3.914,3.914,0,0,1-1.824.418,3.33,3.33,0,0,1-1.238-.219,2.576,2.576,0,0,1-.937-.629,2.786,2.786,0,0,1-.594-.992,3.912,3.912,0,0,1-.207-1.316,6.519,6.519,0,0,1,.316-2.059,5.2,5.2,0,0,1,.891-1.664,4.161,4.161,0,0,1,1.375-1.109,3.885,3.885,0,0,1,1.77-.4,3.308,3.308,0,0,1,1.23.219,2.614,2.614,0,0,1,.941.629,2.848,2.848,0,0,1,.605.992A3.783,3.783,0,0,1,30.816,35.961Zm-1.312.063a2.987,2.987,0,0,0-.125-.9,1.919,1.919,0,0,0-.352-.664,1.525,1.525,0,0,0-.547-.414,1.729,1.729,0,0,0-.719-.145,2.272,2.272,0,0,0-1.242.352,3.143,3.143,0,0,0-.937.926,4.591,4.591,0,0,0-.59,1.3,5.46,5.46,0,0,0-.207,1.5,2.988,2.988,0,0,0,.121.879,2,2,0,0,0,.344.672,1.484,1.484,0,0,0,.547.426,1.735,1.735,0,0,0,.73.148,2.3,2.3,0,0,0,1.25-.348,3.1,3.1,0,0,0,.938-.922,4.506,4.506,0,0,0,.586-1.309A5.6,5.6,0,0,0,29.5,36.023Zm6.673-1.937H34.161l-.9,4.242q-.047.242-.094.523a2.892,2.892,0,0,0-.047.453.789.789,0,0,0,.176.574.764.764,0,0,0,.559.176,1.228,1.228,0,0,0,.242-.031q.148-.031.3-.078t.309-.105l.27-.105-.242,1.125a3.788,3.788,0,0,1-.621.2,2.877,2.877,0,0,1-.66.082,2.234,2.234,0,0,1-.758-.113,1.3,1.3,0,0,1-.512-.324,1.256,1.256,0,0,1-.289-.512,2.359,2.359,0,0,1-.09-.676,3.788,3.788,0,0,1,.043-.527,5.467,5.467,0,0,1,.105-.551l.922-4.352H31.551L31.793,33h1.312l.414-1.953a2.408,2.408,0,0,1,.238-.074q.207-.059.453-.133l.453-.137.23-.07L34.4,33h2.016Zm6.212,4.352q-.063.3-.121.668t-.1.734q-.043.363-.07.676T42.068,41H40.739q.008-.156.023-.375t.043-.453q.027-.234.055-.461t.059-.391h-.031q-.242.383-.492.723a3.478,3.478,0,0,1-.555.6,2.429,2.429,0,0,1-.68.406,2.612,2.612,0,0,1-1.84-.039,2.006,2.006,0,0,1-.746-.559,2.574,2.574,0,0,1-.48-.93,4.532,4.532,0,0,1-.168-1.3,6.518,6.518,0,0,1,.094-1.031,6.309,6.309,0,0,1,.316-1.18,6.006,6.006,0,0,1,.594-1.176,4.465,4.465,0,0,1,.922-1.027,4.4,4.4,0,0,1,1.3-.727,5.051,5.051,0,0,1,1.734-.273,9.22,9.22,0,0,1,1.289.094q.664.094,1.32.227Zm-.367-4.383q-.273-.063-.641-.109a5.447,5.447,0,0,0-.687-.047,3.118,3.118,0,0,0-1.2.215,3.077,3.077,0,0,0-.9.563,3.313,3.313,0,0,0-.645.8,4.965,4.965,0,0,0-.418.926,5.448,5.448,0,0,0-.223.934,5.91,5.91,0,0,0-.066.836,3.744,3.744,0,0,0,.078.8,1.748,1.748,0,0,0,.246.605,1.156,1.156,0,0,0,.43.387,1.325,1.325,0,0,0,.621.137,1.692,1.692,0,0,0,.73-.16,2.532,2.532,0,0,0,.637-.434,3.56,3.56,0,0,0,.539-.633,6.225,6.225,0,0,0,.438-.762,6.515,6.515,0,0,0,.332-.82q.137-.418.223-.809ZM46.6,40.969a2.994,2.994,0,0,1-.441.1,3.11,3.11,0,0,1-.488.039,1.594,1.594,0,0,1-1.18-.395,1.439,1.439,0,0,1-.391-1.059,3.227,3.227,0,0,1,.039-.461q.039-.266.125-.656l2-9.391h1.3L45.553,38.57q-.07.328-.1.508a2.079,2.079,0,0,0-.027.3.644.644,0,0,0,.176.488.787.787,0,0,0,.559.168,2.366,2.366,0,0,0,.355-.023,1.575,1.575,0,0,0,.285-.07Zm11.275-2.242q-.07.3-.129.633l-.113.633q-.055.3-.094.57T57.476,41h-1.25q.039-.3.09-.637t.1-.613q.055-.328.1-.641h-.031a6.607,6.607,0,0,1-.605.809,4.531,4.531,0,0,1-.719.664,3.413,3.413,0,0,1-.82.449,2.529,2.529,0,0,1-.9.164,2.346,2.346,0,0,1-.9-.16,1.741,1.741,0,0,1-.645-.449,1.886,1.886,0,0,1-.387-.7,2.988,2.988,0,0,1-.129-.906,2.2,2.2,0,0,1,.031-.3q.031-.2.07-.437t.09-.465q.051-.23.082-.395L52.577,33h1.3l-.992,4.688q-.031.125-.062.289t-.059.328q-.027.164-.043.3a2.009,2.009,0,0,0-.016.215,1.427,1.427,0,0,0,.285.934,1.042,1.042,0,0,0,.855.348,1.8,1.8,0,0,0,.688-.141,3.128,3.128,0,0,0,.668-.379,4.2,4.2,0,0,0,.613-.555,5.41,5.41,0,0,0,.523-.672,4.879,4.879,0,0,0,.4-.73,4.028,4.028,0,0,0,.242-.719L57.812,33H59.1ZM67.07,35a2.547,2.547,0,0,1-.027.32q-.027.2-.07.438t-.086.465q-.043.23-.082.395L65.875,41h-1.3l.977-4.687q.031-.125.063-.289t.055-.328q.023-.164.039-.3a2.01,2.01,0,0,0,.016-.215,1.424,1.424,0,0,0-.285-.937,1.038,1.038,0,0,0-.848-.344,1.972,1.972,0,0,0-1.023.3,4.211,4.211,0,0,0-.937.773,5.275,5.275,0,0,0-.738,1.031,3.952,3.952,0,0,0-.418,1.086L60.64,41h-1.3l1.234-5.711q.063-.3.125-.637t.117-.641q.055-.309.094-.574T60.976,33h1.25q-.039.3-.094.637t-.094.613q-.047.328-.1.641h.031a6.607,6.607,0,0,1,.605-.809,4.531,4.531,0,0,1,.719-.664,3.413,3.413,0,0,1,.82-.449,2.55,2.55,0,0,1,.91-.164,2.362,2.362,0,0,1,.914.16,1.712,1.712,0,0,1,.637.449,1.829,1.829,0,0,1,.375.7A3.108,3.108,0,0,1,67.07,35Zm3.43,5.969a2.994,2.994,0,0,1-.441.1,3.11,3.11,0,0,1-.488.039,1.594,1.594,0,0,1-1.18-.395A1.439,1.439,0,0,1,68,39.656a3.228,3.228,0,0,1,.039-.461q.039-.266.125-.656L69.328,33h1.3l-1.172,5.57q-.07.328-.1.508a2.079,2.079,0,0,0-.027.3.644.644,0,0,0,.176.488.787.787,0,0,0,.559.168,2.366,2.366,0,0,0,.355-.023,1.575,1.575,0,0,0,.285-.07Zm.914-10.82a.841.841,0,0,1-.238.6.782.782,0,0,1-.59.25.831.831,0,0,1-.6-.246.81.81,0,0,1-.254-.605.749.749,0,0,1,.254-.586.869.869,0,0,1,.6-.227.819.819,0,0,1,.586.23A.769.769,0,0,1,71.414,30.148Zm6.376,8.391q-.055.25-.105.6t-.09.707q-.039.355-.066.668T77.5,41H76.173q0-.133.02-.355t.047-.465q.027-.242.059-.465t.055-.363h-.031a7.891,7.891,0,0,1-.562.8,3.256,3.256,0,0,1-.594.578,2.386,2.386,0,0,1-.664.348,2.434,2.434,0,0,1-.773.117,2.39,2.39,0,0,1-.984-.2A2.005,2.005,0,0,1,72,40.426a2.646,2.646,0,0,1-.473-.937A4.57,4.57,0,0,1,71.36,38.2a6.325,6.325,0,0,1,.121-1.2,6.161,6.161,0,0,1,.375-1.227,5.749,5.749,0,0,1,.645-1.141,4.367,4.367,0,0,1,2.164-1.59A4.775,4.775,0,0,1,76.22,32.8a5.273,5.273,0,0,1,.813.059q.375.059.648.121l.813-3.828h1.266Zm-.336-4.453a5.033,5.033,0,0,0-.621-.137,4.47,4.47,0,0,0-.691-.051,3.17,3.17,0,0,0-1.2.211,3.024,3.024,0,0,0-.906.563,3.367,3.367,0,0,0-.648.8,5.046,5.046,0,0,0-.422.922,5.248,5.248,0,0,0-.227.93,5.785,5.785,0,0,0-.066.824,3.949,3.949,0,0,0,.074.8,1.779,1.779,0,0,0,.242.617,1.157,1.157,0,0,0,.434.4,1.353,1.353,0,0,0,.641.141,1.658,1.658,0,0,0,.73-.164,2.516,2.516,0,0,0,.637-.445,3.677,3.677,0,0,0,.539-.648,6.291,6.291,0,0,0,.438-.781,6.943,6.943,0,0,0,.332-.84q.137-.426.223-.816Zm8.4,4.352q-.062.3-.121.668t-.1.734q-.043.363-.07.676T85.533,41H84.2q.008-.156.023-.375t.043-.453q.027-.234.055-.461t.059-.391h-.031q-.242.383-.492.723a3.478,3.478,0,0,1-.555.6,2.429,2.429,0,0,1-.68.406,2.612,2.612,0,0,1-1.84-.039,2.006,2.006,0,0,1-.746-.559,2.574,2.574,0,0,1-.48-.93,4.532,4.532,0,0,1-.168-1.3,6.518,6.518,0,0,1,.094-1.031,6.309,6.309,0,0,1,.316-1.18,6.006,6.006,0,0,1,.594-1.176,4.465,4.465,0,0,1,.922-1.027,4.4,4.4,0,0,1,1.3-.727,5.051,5.051,0,0,1,1.734-.273,9.22,9.22,0,0,1,1.289.094q.664.094,1.32.227Zm-.367-4.383q-.273-.063-.641-.109a5.447,5.447,0,0,0-.687-.047,3.118,3.118,0,0,0-1.2.215,3.077,3.077,0,0,0-.9.563,3.312,3.312,0,0,0-.645.8,4.965,4.965,0,0,0-.418.926,5.449,5.449,0,0,0-.223.934,5.91,5.91,0,0,0-.066.836,3.744,3.744,0,0,0,.078.8,1.749,1.749,0,0,0,.246.605,1.156,1.156,0,0,0,.43.387,1.325,1.325,0,0,0,.621.137,1.692,1.692,0,0,0,.73-.16,2.532,2.532,0,0,0,.637-.434,3.56,3.56,0,0,0,.539-.633,6.225,6.225,0,0,0,.438-.762,6.515,6.515,0,0,0,.332-.82q.137-.418.223-.809Zm8.368,4.484q-.055.25-.105.6t-.09.707q-.039.355-.066.668T93.565,41H92.237q0-.133.02-.355t.047-.465q.027-.242.059-.465t.055-.363h-.031a7.891,7.891,0,0,1-.562.8,3.256,3.256,0,0,1-.594.578,2.386,2.386,0,0,1-.664.348,2.434,2.434,0,0,1-.773.117,2.39,2.39,0,0,1-.984-.2,2.005,2.005,0,0,1-.746-.574,2.646,2.646,0,0,1-.473-.937,4.57,4.57,0,0,1-.164-1.285,6.325,6.325,0,0,1,.121-1.2,6.161,6.161,0,0,1,.375-1.227,5.749,5.749,0,0,1,.645-1.141,4.367,4.367,0,0,1,2.164-1.59,4.775,4.775,0,0,1,1.555-.238,5.273,5.273,0,0,1,.813.059q.375.059.648.121l.813-3.828h1.266Zm-.336-4.453a5.033,5.033,0,0,0-.621-.137,4.47,4.47,0,0,0-.691-.051,3.17,3.17,0,0,0-1.2.211,3.024,3.024,0,0,0-.906.563,3.367,3.367,0,0,0-.648.8,5.046,5.046,0,0,0-.422.922,5.248,5.248,0,0,0-.227.93,5.785,5.785,0,0,0-.066.824,3.949,3.949,0,0,0,.074.8,1.779,1.779,0,0,0,.242.617,1.157,1.157,0,0,0,.434.4,1.353,1.353,0,0,0,.641.141,1.658,1.658,0,0,0,.73-.164,2.516,2.516,0,0,0,.637-.445,3.677,3.677,0,0,0,.539-.648,6.291,6.291,0,0,0,.438-.781,6.943,6.943,0,0,0,.332-.84q.137-.426.223-.816Zm8.813.789a2.381,2.381,0,0,1-.281,1.152,2.331,2.331,0,0,1-.93.891,5.584,5.584,0,0,1-1.711.574,14.678,14.678,0,0,1-2.625.211,1,1,0,0,0-.016.18v.156a2.657,2.657,0,0,0,.117.8,1.8,1.8,0,0,0,.363.656,1.714,1.714,0,0,0,.633.445,2.341,2.341,0,0,0,.918.164,3.9,3.9,0,0,0,1.184-.207,5.087,5.087,0,0,0,1.23-.59l-.242,1.266a5.078,5.078,0,0,1-1.023.438,4.4,4.4,0,0,1-1.328.188,3.609,3.609,0,0,1-1.488-.273,2.621,2.621,0,0,1-.977-.73,2.848,2.848,0,0,1-.535-1.055,4.716,4.716,0,0,1-.164-1.254,5.8,5.8,0,0,1,.156-1.355,5.519,5.519,0,0,1,.441-1.215,5.148,5.148,0,0,1,.684-1.027,4.444,4.444,0,0,1,.883-.793,4.093,4.093,0,0,1,1.039-.508,3.7,3.7,0,0,1,1.148-.18,3.319,3.319,0,0,1,1.09.164,2.277,2.277,0,0,1,.789.449,1.915,1.915,0,0,1,.48.66A1.966,1.966,0,0,1,102.331,34.875Zm-1.3.063a.9.9,0,0,0-.363-.766A1.565,1.565,0,0,0,99.7,33.9a2.163,2.163,0,0,0-.922.207,2.983,2.983,0,0,0-.82.57,3.56,3.56,0,0,0-.648.867,4.038,4.038,0,0,0-.4,1.09,13.5,13.5,0,0,0,1.9-.113,4.925,4.925,0,0,0,1.273-.332,1.712,1.712,0,0,0,.719-.535A1.2,1.2,0,0,0,101.026,34.938Zm6.633-.531a3.33,3.33,0,0,0-.789-.367A2.845,2.845,0,0,0,106,33.9a1.726,1.726,0,0,0-1.137.336,1.1,1.1,0,0,0-.4.891,1.116,1.116,0,0,0,.074.414,1.25,1.25,0,0,0,.219.355,1.985,1.985,0,0,0,.367.324q.223.156.512.336A4.028,4.028,0,0,1,106.89,37.6a2.01,2.01,0,0,1,.387,1.207,2.435,2.435,0,0,1-.168.887,2,2,0,0,1-.535.766,2.744,2.744,0,0,1-.949.535,4.331,4.331,0,0,1-1.418.2,4.7,4.7,0,0,1-.516-.031,5.461,5.461,0,0,1-.566-.094,4.942,4.942,0,0,1-.547-.152,2.407,2.407,0,0,1-.457-.207l.258-1.219a2.691,2.691,0,0,0,.387.219,4,4,0,0,0,.5.2,4.672,4.672,0,0,0,.563.141,3.166,3.166,0,0,0,.582.055,1.834,1.834,0,0,0,1.168-.312,1.053,1.053,0,0,0,.387-.867,1.155,1.155,0,0,0-.059-.375,1.052,1.052,0,0,0-.207-.344,2.3,2.3,0,0,0-.391-.348q-.242-.176-.609-.395a3.947,3.947,0,0,1-1.176-1.012,1.992,1.992,0,0,1-.379-1.191,2.432,2.432,0,0,1,.18-.926,2.24,2.24,0,0,1,.535-.781,2.6,2.6,0,0,1,.895-.543,3.559,3.559,0,0,1,1.258-.2,5.018,5.018,0,0,1,1.066.109,3.786,3.786,0,0,1,.855.281Zm9.759-.047h-.031a2.306,2.306,0,0,0-.41-.184,1.5,1.5,0,0,0-.5-.09,1.479,1.479,0,0,0-.867.293,3.188,3.188,0,0,0-.754.773,5.549,5.549,0,0,0-.594,1.1,7.5,7.5,0,0,0-.395,1.266L113.114,41h-1.281l1.125-5.312q.07-.328.141-.687t.129-.719q.059-.359.105-.687T113.4,33h1.266q-.023.234-.055.5t-.062.508q-.031.246-.062.445t-.047.309h.031a8.622,8.622,0,0,1,.508-.8,3.718,3.718,0,0,1,.543-.613,2.3,2.3,0,0,1,.605-.395,1.71,1.71,0,0,1,.7-.141,2.206,2.206,0,0,1,.434.043q.215.043.387.09Zm6.54.516a2.381,2.381,0,0,1-.281,1.152,2.331,2.331,0,0,1-.93.891,5.584,5.584,0,0,1-1.711.574,14.678,14.678,0,0,1-2.625.211,1,1,0,0,0-.016.18v.156a2.657,2.657,0,0,0,.117.8,1.8,1.8,0,0,0,.363.656,1.714,1.714,0,0,0,.633.445,2.341,2.341,0,0,0,.918.164,3.9,3.9,0,0,0,1.184-.207,5.087,5.087,0,0,0,1.23-.59L122.6,40.57a5.078,5.078,0,0,1-1.023.438,4.4,4.4,0,0,1-1.328.188,3.609,3.609,0,0,1-1.488-.273,2.621,2.621,0,0,1-.977-.73,2.848,2.848,0,0,1-.535-1.055,4.716,4.716,0,0,1-.164-1.254,5.8,5.8,0,0,1,.156-1.355,5.519,5.519,0,0,1,.441-1.215,5.148,5.148,0,0,1,.684-1.027,4.444,4.444,0,0,1,.883-.793,4.093,4.093,0,0,1,1.039-.508,3.7,3.7,0,0,1,1.148-.18,3.319,3.319,0,0,1,1.09.164,2.277,2.277,0,0,1,.789.449,1.915,1.915,0,0,1,.48.66A1.966,1.966,0,0,1,123.958,34.875Zm-1.3.063a.9.9,0,0,0-.363-.766,1.565,1.565,0,0,0-.965-.273,2.163,2.163,0,0,0-.922.207,2.983,2.983,0,0,0-.82.57,3.56,3.56,0,0,0-.648.867,4.038,4.038,0,0,0-.4,1.09,13.5,13.5,0,0,0,1.9-.113,4.925,4.925,0,0,0,1.273-.332,1.712,1.712,0,0,0,.719-.535A1.2,1.2,0,0,0,122.654,34.938Zm7.719-.352a2.941,2.941,0,0,0-.793-.488,2.582,2.582,0,0,0-1.027-.2,2.427,2.427,0,0,0-.973.188,2.684,2.684,0,0,0-.77.5,3.244,3.244,0,0,0-.578.719,4.792,4.792,0,0,0-.4.844,5.193,5.193,0,0,0-.23.871,4.81,4.81,0,0,0-.074.809,2.552,2.552,0,0,0,.492,1.7,1.672,1.672,0,0,0,1.344.578,2.957,2.957,0,0,0,1.07-.215,5.151,5.151,0,0,0,1.047-.551l-.273,1.281a5.483,5.483,0,0,1-1.012.426,3.666,3.666,0,0,1-1.066.152,3.029,3.029,0,0,1-1.277-.25,2.5,2.5,0,0,1-.9-.687,2.946,2.946,0,0,1-.539-1.035,4.472,4.472,0,0,1-.18-1.293,6.315,6.315,0,0,1,.133-1.293,5.569,5.569,0,0,1,.395-1.2,5.218,5.218,0,0,1,.645-1.051A4.107,4.107,0,0,1,127.389,33a4.451,4.451,0,0,1,1.961-.152,3.8,3.8,0,0,1,.555.125,3.736,3.736,0,0,1,.445.168,1.829,1.829,0,0,1,.313.176Zm7.54,1.375a6.659,6.659,0,0,1-.3,2.016,5.153,5.153,0,0,1-.867,1.668,4.19,4.19,0,0,1-1.375,1.133,3.914,3.914,0,0,1-1.824.418,3.33,3.33,0,0,1-1.238-.219,2.576,2.576,0,0,1-.937-.629,2.786,2.786,0,0,1-.594-.992,3.912,3.912,0,0,1-.207-1.316,6.519,6.519,0,0,1,.316-2.059,5.2,5.2,0,0,1,.891-1.664,4.161,4.161,0,0,1,1.375-1.109,3.885,3.885,0,0,1,1.77-.4,3.308,3.308,0,0,1,1.23.219,2.614,2.614,0,0,1,.941.629,2.848,2.848,0,0,1,.605.992A3.783,3.783,0,0,1,137.913,35.961Zm-1.312.063a2.987,2.987,0,0,0-.125-.9,1.919,1.919,0,0,0-.352-.664,1.525,1.525,0,0,0-.547-.414,1.729,1.729,0,0,0-.719-.145,2.272,2.272,0,0,0-1.242.352,3.143,3.143,0,0,0-.937.926,4.591,4.591,0,0,0-.59,1.3,5.46,5.46,0,0,0-.207,1.5,2.988,2.988,0,0,0,.121.879,2,2,0,0,0,.344.672,1.484,1.484,0,0,0,.547.426,1.735,1.735,0,0,0,.73.148,2.3,2.3,0,0,0,1.25-.348,3.1,3.1,0,0,0,.938-.922,4.506,4.506,0,0,0,.586-1.309A5.6,5.6,0,0,0,136.6,36.023Zm4.532,4.945a2.994,2.994,0,0,1-.441.1,3.111,3.111,0,0,1-.488.039,1.594,1.594,0,0,1-1.18-.395,1.439,1.439,0,0,1-.391-1.059,3.227,3.227,0,0,1,.039-.461q.039-.266.125-.656l2-9.391h1.3l-2.008,9.422q-.07.328-.1.508a2.078,2.078,0,0,0-.027.3.644.644,0,0,0,.176.488.787.787,0,0,0,.559.168,2.366,2.366,0,0,0,.355-.023,1.575,1.575,0,0,0,.285-.07Zm7.735-6.094a2.381,2.381,0,0,1-.281,1.152,2.331,2.331,0,0,1-.93.891,5.584,5.584,0,0,1-1.711.574,14.678,14.678,0,0,1-2.625.211,1,1,0,0,0-.016.18v.156a2.657,2.657,0,0,0,.117.8,1.8,1.8,0,0,0,.363.656,1.714,1.714,0,0,0,.633.445,2.341,2.341,0,0,0,.918.164,3.9,3.9,0,0,0,1.184-.207,5.087,5.087,0,0,0,1.23-.59l-.242,1.266a5.078,5.078,0,0,1-1.023.438,4.4,4.4,0,0,1-1.328.188,3.609,3.609,0,0,1-1.488-.273,2.621,2.621,0,0,1-.977-.73,2.848,2.848,0,0,1-.535-1.055,4.716,4.716,0,0,1-.164-1.254,5.8,5.8,0,0,1,.156-1.355,5.519,5.519,0,0,1,.441-1.215,5.149,5.149,0,0,1,.684-1.027,4.444,4.444,0,0,1,.883-.793,4.093,4.093,0,0,1,1.039-.508,3.7,3.7,0,0,1,1.148-.18,3.319,3.319,0,0,1,1.09.164,2.277,2.277,0,0,1,.789.449,1.915,1.915,0,0,1,.48.66A1.966,1.966,0,0,1,148.867,34.875Zm-1.3.063a.9.9,0,0,0-.363-.766,1.565,1.565,0,0,0-.965-.273,2.163,2.163,0,0,0-.922.207,2.983,2.983,0,0,0-.82.57,3.56,3.56,0,0,0-.648.867,4.038,4.038,0,0,0-.4,1.09,13.5,13.5,0,0,0,1.9-.113,4.925,4.925,0,0,0,1.273-.332,1.712,1.712,0,0,0,.719-.535A1.2,1.2,0,0,0,147.563,34.938Zm7.719-.352a2.941,2.941,0,0,0-.793-.488,2.582,2.582,0,0,0-1.027-.2,2.427,2.427,0,0,0-.973.188,2.684,2.684,0,0,0-.77.5,3.244,3.244,0,0,0-.578.719,4.793,4.793,0,0,0-.4.844,5.193,5.193,0,0,0-.23.871,4.809,4.809,0,0,0-.074.809,2.552,2.552,0,0,0,.492,1.7,1.672,1.672,0,0,0,1.344.578,2.957,2.957,0,0,0,1.07-.215,5.151,5.151,0,0,0,1.047-.551l-.273,1.281a5.483,5.483,0,0,1-1.012.426,3.666,3.666,0,0,1-1.066.152,3.029,3.029,0,0,1-1.277-.25,2.5,2.5,0,0,1-.9-.687,2.946,2.946,0,0,1-.539-1.035,4.472,4.472,0,0,1-.18-1.293,6.315,6.315,0,0,1,.133-1.293,5.569,5.569,0,0,1,.395-1.2,5.219,5.219,0,0,1,.645-1.051A4.107,4.107,0,0,1,152.3,33a4.451,4.451,0,0,1,1.961-.152,3.8,3.8,0,0,1,.555.125,3.736,3.736,0,0,1,.445.168,1.829,1.829,0,0,1,.313.176Zm4.977-.5h-2.016l-.9,4.242q-.047.242-.094.523a2.892,2.892,0,0,0-.047.453.789.789,0,0,0,.176.574.764.764,0,0,0,.559.176,1.228,1.228,0,0,0,.242-.031q.148-.031.3-.078t.309-.105l.27-.105-.242,1.125a3.788,3.788,0,0,1-.621.2,2.877,2.877,0,0,1-.66.082,2.234,2.234,0,0,1-.758-.113,1.3,1.3,0,0,1-.512-.324,1.256,1.256,0,0,1-.289-.512,2.359,2.359,0,0,1-.09-.676,3.789,3.789,0,0,1,.043-.527,5.464,5.464,0,0,1,.105-.551l.922-4.352h-1.328L155.876,33h1.313l.414-1.953a2.408,2.408,0,0,1,.238-.074q.207-.059.453-.133l.453-.137.23-.07L158.486,33H160.5Zm6.212,4.352q-.063.3-.121.668t-.1.734q-.043.363-.07.676T166.15,41h-1.328q.008-.156.023-.375t.043-.453q.027-.234.055-.461T165,39.32h-.031q-.242.383-.492.723a3.478,3.478,0,0,1-.555.6,2.429,2.429,0,0,1-.68.406,2.612,2.612,0,0,1-1.84-.039,2.006,2.006,0,0,1-.746-.559,2.574,2.574,0,0,1-.48-.93,4.531,4.531,0,0,1-.168-1.3,6.518,6.518,0,0,1,.094-1.031,6.309,6.309,0,0,1,.316-1.18,6.007,6.007,0,0,1,.594-1.176,4.465,4.465,0,0,1,.922-1.027,4.4,4.4,0,0,1,1.3-.727,5.051,5.051,0,0,1,1.734-.273,9.22,9.22,0,0,1,1.289.094q.664.094,1.32.227Zm-.367-4.383q-.273-.063-.641-.109a5.447,5.447,0,0,0-.687-.047,3.118,3.118,0,0,0-1.2.215,3.077,3.077,0,0,0-.9.563,3.313,3.313,0,0,0-.645.8,4.965,4.965,0,0,0-.418.926,5.448,5.448,0,0,0-.223.934,5.911,5.911,0,0,0-.066.836,3.744,3.744,0,0,0,.078.8,1.748,1.748,0,0,0,.246.605,1.156,1.156,0,0,0,.43.387,1.325,1.325,0,0,0,.621.137,1.692,1.692,0,0,0,.73-.16,2.532,2.532,0,0,0,.637-.434,3.56,3.56,0,0,0,.539-.633,6.225,6.225,0,0,0,.438-.762,6.515,6.515,0,0,0,.332-.82q.137-.418.223-.809Zm8.368,4.484q-.055.25-.105.6t-.09.707q-.039.355-.066.668t-.027.484h-1.328q0-.133.02-.355t.047-.465q.027-.242.059-.465t.055-.363H173a7.891,7.891,0,0,1-.562.8,3.256,3.256,0,0,1-.594.578,2.386,2.386,0,0,1-.664.348,2.434,2.434,0,0,1-.773.117,2.39,2.39,0,0,1-.984-.2,2.005,2.005,0,0,1-.746-.574,2.646,2.646,0,0,1-.473-.937,4.57,4.57,0,0,1-.164-1.285,6.324,6.324,0,0,1,.121-1.2,6.162,6.162,0,0,1,.375-1.227,5.748,5.748,0,0,1,.645-1.141,4.367,4.367,0,0,1,2.164-1.59A4.775,4.775,0,0,1,172.9,32.8a5.273,5.273,0,0,1,.813.059q.375.059.648.121l.813-3.828h1.266Zm-.336-4.453a5.033,5.033,0,0,0-.621-.137,4.47,4.47,0,0,0-.691-.051,3.17,3.17,0,0,0-1.2.211,3.024,3.024,0,0,0-.906.563,3.367,3.367,0,0,0-.648.8,5.045,5.045,0,0,0-.422.922,5.248,5.248,0,0,0-.227.93,5.786,5.786,0,0,0-.066.824,3.949,3.949,0,0,0,.074.8,1.779,1.779,0,0,0,.242.617,1.157,1.157,0,0,0,.434.4,1.353,1.353,0,0,0,.641.141,1.658,1.658,0,0,0,.73-.164,2.516,2.516,0,0,0,.637-.445,3.676,3.676,0,0,0,.539-.648,6.291,6.291,0,0,0,.438-.781,6.943,6.943,0,0,0,.332-.84q.137-.426.223-.816Zm8.4,4.352q-.063.3-.121.668t-.1.734q-.043.363-.07.676t-.027.484h-1.328q.008-.156.023-.375t.043-.453q.027-.234.055-.461t.059-.391h-.031q-.242.383-.492.723a3.478,3.478,0,0,1-.555.6,2.429,2.429,0,0,1-.68.406,2.612,2.612,0,0,1-1.84-.039,2.006,2.006,0,0,1-.746-.559,2.574,2.574,0,0,1-.48-.93,4.531,4.531,0,0,1-.168-1.3,6.518,6.518,0,0,1,.094-1.031,6.309,6.309,0,0,1,.316-1.18,6.007,6.007,0,0,1,.594-1.176A4.465,4.465,0,0,1,178,33.8a4.4,4.4,0,0,1,1.3-.727,5.051,5.051,0,0,1,1.734-.273,9.22,9.22,0,0,1,1.289.094q.664.094,1.32.227Zm-.367-4.383q-.273-.063-.641-.109a5.447,5.447,0,0,0-.687-.047,3.118,3.118,0,0,0-1.2.215,3.077,3.077,0,0,0-.9.563,3.313,3.313,0,0,0-.645.8,4.965,4.965,0,0,0-.418.926,5.448,5.448,0,0,0-.223.934,5.911,5.911,0,0,0-.066.836,3.744,3.744,0,0,0,.078.8,1.748,1.748,0,0,0,.246.605,1.156,1.156,0,0,0,.43.387,1.325,1.325,0,0,0,.621.137,1.692,1.692,0,0,0,.73-.16,2.532,2.532,0,0,0,.637-.434,3.56,3.56,0,0,0,.539-.633,6.225,6.225,0,0,0,.438-.762,6.515,6.515,0,0,0,.332-.82q.137-.418.223-.809Zm6.993.352a3.329,3.329,0,0,0-.789-.367,2.845,2.845,0,0,0-.875-.141,1.726,1.726,0,0,0-1.137.336,1.1,1.1,0,0,0-.4.891,1.116,1.116,0,0,0,.074.414,1.25,1.25,0,0,0,.219.355,1.986,1.986,0,0,0,.367.324q.223.156.512.336A4.028,4.028,0,0,1,188.39,37.6a2.01,2.01,0,0,1,.387,1.207,2.435,2.435,0,0,1-.168.887,2,2,0,0,1-.535.766,2.745,2.745,0,0,1-.949.535,4.331,4.331,0,0,1-1.418.2,4.7,4.7,0,0,1-.516-.031,5.461,5.461,0,0,1-.566-.094,4.942,4.942,0,0,1-.547-.152,2.407,2.407,0,0,1-.457-.207l.258-1.219a2.692,2.692,0,0,0,.387.219,4,4,0,0,0,.5.2,4.672,4.672,0,0,0,.563.141,3.166,3.166,0,0,0,.582.055,1.834,1.834,0,0,0,1.168-.312,1.053,1.053,0,0,0,.387-.867,1.155,1.155,0,0,0-.059-.375,1.052,1.052,0,0,0-.207-.344,2.3,2.3,0,0,0-.391-.348q-.242-.176-.609-.395a3.947,3.947,0,0,1-1.176-1.012,1.992,1.992,0,0,1-.379-1.191,2.432,2.432,0,0,1,.18-.926,2.24,2.24,0,0,1,.535-.781,2.6,2.6,0,0,1,.895-.543,3.559,3.559,0,0,1,1.258-.2,5.018,5.018,0,0,1,1.066.109,3.786,3.786,0,0,1,.855.281Zm11.728,1.555a6.659,6.659,0,0,1-.3,2.016,5.153,5.153,0,0,1-.867,1.668,4.19,4.19,0,0,1-1.375,1.133,3.914,3.914,0,0,1-1.824.418,3.33,3.33,0,0,1-1.238-.219,2.576,2.576,0,0,1-.937-.629,2.786,2.786,0,0,1-.594-.992,3.912,3.912,0,0,1-.207-1.316,6.519,6.519,0,0,1,.316-2.059,5.2,5.2,0,0,1,.891-1.664,4.161,4.161,0,0,1,1.375-1.109,3.885,3.885,0,0,1,1.77-.4,3.308,3.308,0,0,1,1.23.219,2.614,2.614,0,0,1,.941.629,2.848,2.848,0,0,1,.605.992A3.783,3.783,0,0,1,200.888,35.961Zm-1.312.063a2.987,2.987,0,0,0-.125-.9,1.919,1.919,0,0,0-.352-.664,1.525,1.525,0,0,0-.547-.414,1.729,1.729,0,0,0-.719-.145,2.272,2.272,0,0,0-1.242.352,3.143,3.143,0,0,0-.937.926,4.591,4.591,0,0,0-.59,1.3,5.46,5.46,0,0,0-.207,1.5,2.988,2.988,0,0,0,.121.879,2,2,0,0,0,.344.672,1.484,1.484,0,0,0,.547.426,1.735,1.735,0,0,0,.73.148,2.3,2.3,0,0,0,1.25-.348,3.1,3.1,0,0,0,.938-.922,4.506,4.506,0,0,0,.586-1.309A5.6,5.6,0,0,0,199.575,36.023Zm13.1-.227a6.076,6.076,0,0,1-.125,1.2,6.206,6.206,0,0,1-.383,1.223,6.02,6.02,0,0,1-.645,1.141,4.626,4.626,0,0,1-.91.949,4.22,4.22,0,0,1-1.187.648,4.323,4.323,0,0,1-1.469.238,4.833,4.833,0,0,1-.91-.086,5.6,5.6,0,0,1-.785-.2l-.8,3.8h-1.3l1.953-9.25q.055-.25.1-.6t.082-.707q.035-.355.059-.668t.023-.484H207.7q0,.133-.02.359t-.051.473q-.031.246-.062.477t-.055.371h.031a4.221,4.221,0,0,1,1.25-1.41,2.672,2.672,0,0,1,1.516-.465,2.476,2.476,0,0,1,.984.188,1.949,1.949,0,0,1,.746.563,2.6,2.6,0,0,1,.473.938A4.675,4.675,0,0,1,212.678,35.8Zm-1.312.055a3.864,3.864,0,0,0-.074-.781,1.733,1.733,0,0,0-.246-.617,1.246,1.246,0,0,0-.441-.406,1.352,1.352,0,0,0-.66-.148,1.76,1.76,0,0,0-.762.168,2.623,2.623,0,0,0-.66.449,3.683,3.683,0,0,0-.555.652,6.482,6.482,0,0,0-.445.77,6.761,6.761,0,0,0-.332.8,6.038,6.038,0,0,0-.207.754l-.492,2.32a2.193,2.193,0,0,0,.336.113q.2.051.406.09t.43.063a3.83,3.83,0,0,0,.406.023,2.7,2.7,0,0,0,1-.18,2.891,2.891,0,0,0,.82-.488,3.446,3.446,0,0,0,.641-.727,4.822,4.822,0,0,0,.465-.891,5.242,5.242,0,0,0,.281-.977A5.4,5.4,0,0,0,211.366,35.852Zm7.266-1.492H218.6a2.307,2.307,0,0,0-.41-.184,1.5,1.5,0,0,0-.5-.09,1.479,1.479,0,0,0-.867.293,3.188,3.188,0,0,0-.754.773,5.549,5.549,0,0,0-.594,1.1,7.5,7.5,0,0,0-.395,1.266L214.327,41h-1.281l1.125-5.312q.07-.328.141-.687t.129-.719q.059-.359.105-.687t.07-.594h1.266q-.023.234-.055.5t-.062.508q-.031.246-.062.445t-.047.309h.031a8.624,8.624,0,0,1,.508-.8,3.717,3.717,0,0,1,.543-.613,2.3,2.3,0,0,1,.605-.395,1.71,1.71,0,0,1,.7-.141,2.206,2.206,0,0,1,.434.043q.215.043.387.09Zm7.008,1.6a6.659,6.659,0,0,1-.3,2.016,5.153,5.153,0,0,1-.867,1.668,4.19,4.19,0,0,1-1.375,1.133,3.914,3.914,0,0,1-1.824.418,3.33,3.33,0,0,1-1.238-.219,2.576,2.576,0,0,1-.937-.629,2.786,2.786,0,0,1-.594-.992,3.912,3.912,0,0,1-.207-1.316,6.519,6.519,0,0,1,.316-2.059,5.2,5.2,0,0,1,.891-1.664,4.161,4.161,0,0,1,1.375-1.109,3.885,3.885,0,0,1,1.77-.4,3.308,3.308,0,0,1,1.23.219,2.614,2.614,0,0,1,.941.629,2.848,2.848,0,0,1,.605.992A3.783,3.783,0,0,1,225.64,35.961Zm-1.312.063a2.987,2.987,0,0,0-.125-.9,1.919,1.919,0,0,0-.352-.664,1.525,1.525,0,0,0-.547-.414,1.729,1.729,0,0,0-.719-.145,2.272,2.272,0,0,0-1.242.352,3.143,3.143,0,0,0-.937.926,4.591,4.591,0,0,0-.59,1.3,5.46,5.46,0,0,0-.207,1.5,2.988,2.988,0,0,0,.121.879,2,2,0,0,0,.344.672,1.484,1.484,0,0,0,.547.426,1.735,1.735,0,0,0,.73.148,2.3,2.3,0,0,0,1.25-.348,3.1,3.1,0,0,0,.938-.922,4.506,4.506,0,0,0,.586-1.309A5.6,5.6,0,0,0,224.328,36.023Zm8.321,2.516q-.055.25-.105.6t-.09.707q-.039.355-.066.668T232.36,41h-1.328q0-.133.02-.355t.047-.465q.027-.242.059-.465t.055-.363h-.031a7.891,7.891,0,0,1-.562.8,3.256,3.256,0,0,1-.594.578,2.386,2.386,0,0,1-.664.348,2.434,2.434,0,0,1-.773.117,2.39,2.39,0,0,1-.984-.2,2.005,2.005,0,0,1-.746-.574,2.646,2.646,0,0,1-.473-.937,4.57,4.57,0,0,1-.164-1.285,6.324,6.324,0,0,1,.121-1.2,6.162,6.162,0,0,1,.375-1.227,5.748,5.748,0,0,1,.645-1.141,4.367,4.367,0,0,1,2.164-1.59,4.775,4.775,0,0,1,1.555-.238,5.273,5.273,0,0,1,.813.059q.375.059.648.121l.813-3.828h1.266Zm-.336-4.453a5.033,5.033,0,0,0-.621-.137A4.47,4.47,0,0,0,231,33.9a3.17,3.17,0,0,0-1.2.211,3.024,3.024,0,0,0-.906.563,3.367,3.367,0,0,0-.648.8,5.045,5.045,0,0,0-.422.922,5.248,5.248,0,0,0-.227.93,5.786,5.786,0,0,0-.066.824,3.949,3.949,0,0,0,.074.8,1.779,1.779,0,0,0,.242.617,1.157,1.157,0,0,0,.434.4,1.353,1.353,0,0,0,.641.141,1.658,1.658,0,0,0,.73-.164,2.516,2.516,0,0,0,.637-.445,3.676,3.676,0,0,0,.539-.648,6.291,6.291,0,0,0,.438-.781,6.943,6.943,0,0,0,.332-.84q.137-.426.223-.816Zm8.594,4.641q-.07.3-.129.633l-.113.633q-.055.3-.094.57t-.062.438h-1.25q.039-.3.09-.637t.1-.613q.055-.328.1-.641h-.031a6.607,6.607,0,0,1-.605.809,4.531,4.531,0,0,1-.719.664,3.413,3.413,0,0,1-.82.449,2.529,2.529,0,0,1-.9.164,2.346,2.346,0,0,1-.9-.16,1.741,1.741,0,0,1-.645-.449,1.886,1.886,0,0,1-.387-.7,2.988,2.988,0,0,1-.129-.906,2.2,2.2,0,0,1,.031-.3q.031-.2.07-.437t.09-.465q.051-.23.082-.395L235.61,33h1.3l-.992,4.688q-.031.125-.062.289t-.059.328q-.027.164-.043.3a2.008,2.008,0,0,0-.016.215,1.427,1.427,0,0,0,.285.934,1.042,1.042,0,0,0,.855.348,1.8,1.8,0,0,0,.688-.141,3.128,3.128,0,0,0,.668-.379,4.2,4.2,0,0,0,.613-.555,5.41,5.41,0,0,0,.523-.672,4.879,4.879,0,0,0,.4-.73,4.028,4.028,0,0,0,.242-.719L240.845,33h1.289Zm7.774-4.141a2.941,2.941,0,0,0-.793-.488,2.582,2.582,0,0,0-1.027-.2,2.427,2.427,0,0,0-.973.188,2.684,2.684,0,0,0-.77.5,3.244,3.244,0,0,0-.578.719,4.793,4.793,0,0,0-.4.844,5.193,5.193,0,0,0-.23.871,4.809,4.809,0,0,0-.074.809,2.552,2.552,0,0,0,.492,1.7,1.672,1.672,0,0,0,1.344.578,2.957,2.957,0,0,0,1.07-.215,5.151,5.151,0,0,0,1.047-.551l-.273,1.281a5.483,5.483,0,0,1-1.012.426,3.666,3.666,0,0,1-1.066.152,3.029,3.029,0,0,1-1.277-.25,2.5,2.5,0,0,1-.9-.687,2.946,2.946,0,0,1-.539-1.035,4.472,4.472,0,0,1-.18-1.293,6.315,6.315,0,0,1,.133-1.293,5.569,5.569,0,0,1,.395-1.2,5.219,5.219,0,0,1,.645-1.051A4.107,4.107,0,0,1,245.7,33a4.451,4.451,0,0,1,1.961-.152,3.8,3.8,0,0,1,.555.125,3.736,3.736,0,0,1,.445.168,1.829,1.829,0,0,1,.313.176Zm2.837,6.383a2.994,2.994,0,0,1-.441.1,3.111,3.111,0,0,1-.488.039,1.594,1.594,0,0,1-1.18-.395,1.439,1.439,0,0,1-.391-1.059,3.227,3.227,0,0,1,.039-.461q.039-.266.125-.656L250.346,33h1.3l-1.172,5.57q-.07.328-.1.508a2.078,2.078,0,0,0-.027.3.644.644,0,0,0,.176.488.787.787,0,0,0,.559.168,2.366,2.366,0,0,0,.355-.023,1.575,1.575,0,0,0,.285-.07Zm.914-10.82a.841.841,0,0,1-.238.6.782.782,0,0,1-.59.25.831.831,0,0,1-.6-.246.81.81,0,0,1-.254-.605.749.749,0,0,1,.254-.586.869.869,0,0,1,.6-.227.819.819,0,0,1,.586.23A.769.769,0,0,1,252.432,30.148Zm6.376,8.391q-.055.25-.105.6t-.09.707q-.039.355-.066.668t-.027.484H257.19q0-.133.02-.355t.047-.465q.027-.242.059-.465t.055-.363h-.031a7.891,7.891,0,0,1-.562.8,3.256,3.256,0,0,1-.594.578,2.385,2.385,0,0,1-.664.348,2.434,2.434,0,0,1-.773.117,2.39,2.39,0,0,1-.984-.2,2.005,2.005,0,0,1-.746-.574,2.646,2.646,0,0,1-.473-.937,4.57,4.57,0,0,1-.164-1.285A6.324,6.324,0,0,1,252.5,37a6.162,6.162,0,0,1,.375-1.227,5.748,5.748,0,0,1,.645-1.141,4.367,4.367,0,0,1,2.164-1.59,4.775,4.775,0,0,1,1.555-.238,5.273,5.273,0,0,1,.813.059q.375.059.648.121l.813-3.828h1.266Zm-.336-4.453a5.032,5.032,0,0,0-.621-.137,4.471,4.471,0,0,0-.691-.051,3.17,3.17,0,0,0-1.2.211,3.024,3.024,0,0,0-.906.563,3.367,3.367,0,0,0-.648.8,5.045,5.045,0,0,0-.422.922,5.248,5.248,0,0,0-.227.93,5.786,5.786,0,0,0-.066.824,3.949,3.949,0,0,0,.074.8,1.779,1.779,0,0,0,.242.617,1.157,1.157,0,0,0,.434.4,1.353,1.353,0,0,0,.641.141,1.658,1.658,0,0,0,.73-.164,2.516,2.516,0,0,0,.637-.445,3.677,3.677,0,0,0,.539-.648,6.291,6.291,0,0,0,.438-.781,6.943,6.943,0,0,0,.332-.84q.137-.426.223-.816Zm8.4,4.352q-.062.3-.121.668t-.1.734q-.043.363-.07.676T266.55,41h-1.328q.008-.156.023-.375t.043-.453q.027-.234.055-.461t.059-.391h-.031q-.242.383-.492.723a3.478,3.478,0,0,1-.555.6,2.429,2.429,0,0,1-.68.406,2.612,2.612,0,0,1-1.84-.039,2.006,2.006,0,0,1-.746-.559,2.574,2.574,0,0,1-.48-.93,4.532,4.532,0,0,1-.168-1.3,6.518,6.518,0,0,1,.094-1.031,6.309,6.309,0,0,1,.316-1.18,6.006,6.006,0,0,1,.594-1.176,4.465,4.465,0,0,1,.922-1.027,4.4,4.4,0,0,1,1.3-.727,5.051,5.051,0,0,1,1.734-.273,9.221,9.221,0,0,1,1.289.094q.664.094,1.32.227Zm-.367-4.383q-.273-.063-.641-.109a5.447,5.447,0,0,0-.687-.047,3.118,3.118,0,0,0-1.2.215,3.077,3.077,0,0,0-.9.563,3.312,3.312,0,0,0-.645.8,4.965,4.965,0,0,0-.418.926,5.45,5.45,0,0,0-.223.934,5.909,5.909,0,0,0-.066.836,3.743,3.743,0,0,0,.078.8,1.749,1.749,0,0,0,.246.605,1.156,1.156,0,0,0,.43.387,1.325,1.325,0,0,0,.621.137,1.692,1.692,0,0,0,.73-.16,2.532,2.532,0,0,0,.637-.434,3.561,3.561,0,0,0,.539-.633,6.225,6.225,0,0,0,.438-.762,6.515,6.515,0,0,0,.332-.82q.137-.418.223-.809Zm6.993.352a3.33,3.33,0,0,0-.789-.367,2.845,2.845,0,0,0-.875-.141,1.726,1.726,0,0,0-1.137.336,1.1,1.1,0,0,0-.4.891,1.116,1.116,0,0,0,.074.414,1.25,1.25,0,0,0,.219.355,1.985,1.985,0,0,0,.367.324q.223.156.512.336a4.028,4.028,0,0,1,1.262,1.043,2.01,2.01,0,0,1,.387,1.207,2.436,2.436,0,0,1-.168.887,2,2,0,0,1-.535.766,2.744,2.744,0,0,1-.949.535,4.331,4.331,0,0,1-1.418.2,4.7,4.7,0,0,1-.516-.031,5.461,5.461,0,0,1-.566-.094,4.942,4.942,0,0,1-.547-.152,2.408,2.408,0,0,1-.457-.207l.258-1.219a2.69,2.69,0,0,0,.387.219,4,4,0,0,0,.5.2,4.672,4.672,0,0,0,.563.141,3.166,3.166,0,0,0,.582.055,1.834,1.834,0,0,0,1.168-.312,1.053,1.053,0,0,0,.387-.867,1.155,1.155,0,0,0-.059-.375,1.052,1.052,0,0,0-.207-.344,2.3,2.3,0,0,0-.391-.348q-.242-.176-.609-.395a3.946,3.946,0,0,1-1.176-1.012,1.992,1.992,0,0,1-.379-1.191,2.432,2.432,0,0,1,.18-.926,2.24,2.24,0,0,1,.535-.781,2.6,2.6,0,0,1,.895-.543,3.559,3.559,0,0,1,1.258-.2,5.018,5.018,0,0,1,1.066.109,3.786,3.786,0,0,1,.855.281Z" transform="translate(758.337 12245.064)" fill="#12263f"/>
    </g>
  </g>
</svg>
