<svg xmlns="http://www.w3.org/2000/svg" width="559.456" height="346.906" viewBox="0 0 559.456 346.906">
  <g id="Grupo_891218" data-name="Grupo 891218" transform="translate(-847.533 -9860.22)">
    <g id="Grupo_167794" data-name="Grupo 167794" transform="translate(853.506 9871.743)">
      <path id="Trazado_622239" data-name="Trazado 622239" d="M2.3-1.407H5.57V0H.446V-.58a2.7,2.7,0,0,1,.2-1.061,3.52,3.52,0,0,1,.5-.843A4.333,4.333,0,0,1,1.8-3.145q.357-.287.679-.518.338-.242.594-.462a3.382,3.382,0,0,0,.43-.438A1.664,1.664,0,0,0,3.765-5a1.31,1.31,0,0,0,.086-.475.955.955,0,0,0-.279-.747,1.242,1.242,0,0,0-.854-.252,2.868,2.868,0,0,0-1.9.79V-7.181a4.082,4.082,0,0,1,2.267-.65,3.347,3.347,0,0,1,1.05.153,2.222,2.222,0,0,1,.787.438,1.867,1.867,0,0,1,.491.69,2.329,2.329,0,0,1,.169.905,2.552,2.552,0,0,1-.164.945,2.9,2.9,0,0,1-.435.752,3.946,3.946,0,0,1-.626.62Q4-3.045,3.62-2.782q-.258.183-.5.363a4.71,4.71,0,0,0-.422.354,1.924,1.924,0,0,0-.29.341A.589.589,0,0,0,2.3-1.407Zm6.327,0H11.9V0H6.773V-.58a2.7,2.7,0,0,1,.2-1.061,3.52,3.52,0,0,1,.5-.843,4.333,4.333,0,0,1,.658-.661q.357-.287.679-.518.338-.242.594-.462a3.382,3.382,0,0,0,.43-.438,1.664,1.664,0,0,0,.26-.44,1.31,1.31,0,0,0,.086-.475A.955.955,0,0,0,9.9-6.225a1.242,1.242,0,0,0-.854-.252,2.868,2.868,0,0,0-1.9.79V-7.181a4.082,4.082,0,0,1,2.267-.65,3.347,3.347,0,0,1,1.05.153,2.222,2.222,0,0,1,.787.438,1.867,1.867,0,0,1,.491.69,2.329,2.329,0,0,1,.169.905,2.552,2.552,0,0,1-.164.945,2.9,2.9,0,0,1-.435.752,3.946,3.946,0,0,1-.626.62q-.354.282-.736.545-.258.183-.5.363a4.71,4.71,0,0,0-.422.354,1.924,1.924,0,0,0-.29.341A.589.589,0,0,0,8.631-1.407ZM18-3.8a1.755,1.755,0,0,1-1.324-.521,1.935,1.935,0,0,1-.5-1.4,2.127,2.127,0,0,1,.534-1.525,1.872,1.872,0,0,1,1.426-.564,1.745,1.745,0,0,1,1.335.51,2.01,2.01,0,0,1,.481,1.434,2.1,2.1,0,0,1-.532,1.509A1.866,1.866,0,0,1,18-3.8Zm.1-3.067q-.784,0-.784,1.09,0,1.031.747,1.031.763,0,.763-1.074Q18.826-6.864,18.1-6.864ZM23.622-7.7,18.605,0H17.295L22.3-7.7ZM22.795.107a1.755,1.755,0,0,1-1.324-.521,1.935,1.935,0,0,1-.5-1.4A2.127,2.127,0,0,1,21.5-3.341,1.872,1.872,0,0,1,22.929-3.9a1.753,1.753,0,0,1,1.337.5,2,2,0,0,1,.478,1.429,2.118,2.118,0,0,1-.532,1.515A1.857,1.857,0,0,1,22.795.107Zm.086-3.067q-.779,0-.779,1.09,0,1.031.757,1.031t.763-1.074a1.274,1.274,0,0,0-.2-.773A.638.638,0,0,0,22.881-2.959Z" transform="translate(255.661 305.179)" fill="#12263f"/>
      <g id="Grupo_167793" data-name="Grupo 167793" transform="translate(309.255 95.398)">
        <g id="Grupo_167796" data-name="Grupo 167796" transform="translate(0 0)">
          <text id="_16_" data-name="16 %" transform="translate(0 10)" fill="#12263f" font-size="11" font-family="SegoeUI-Bold, Segoe UI" font-weight="700"><tspan x="0" y="0">16 %</tspan></text>
        </g>
      </g>
    </g>
    <g id="Grupo_891217" data-name="Grupo 891217">
      <g id="Grupo_167795" data-name="Grupo 167795" transform="translate(840.905 9884.162)">
        <path id="Trazado_259411" data-name="Trazado 259411" d="M199.519,132.545A180.872,180.872,0,0,0,151.54,16.679L35.674,132.545Z" transform="translate(139.338 45.106)" fill="#ced371"/>
        <path id="Trazado_259412" data-name="Trazado 259412" d="M110.654,154.369,215.523,49.5a154.556,154.556,0,0,0-209.73,0Z" transform="translate(52.032 21.167)" fill="#ffb500"/>
        <path id="Trazado_259413" data-name="Trazado 259413" d="M33.834,48.825v135.11A140.85,140.85,0,0,0,168.94,48.825Z" transform="translate(133.962 139.03)" fill="#a3314f"/>
        <path id="Trazado_259414" data-name="Trazado 259414" d="M122.486,114.095,33.845,25.462A127.544,127.544,0,0,0,122.486,239.44Z" transform="translate(35.106 70.768)" fill="#e2e2e2"/>
        <path id="Trazado_622237" data-name="Trazado 622237" d="M.628-.252V-1.729a2.981,2.981,0,0,0,1.8.564,1.625,1.625,0,0,0,1.012-.279.927.927,0,0,0,.363-.779.885.885,0,0,0-.448-.795A2.323,2.323,0,0,0,2.127-3.3H1.413V-4.6h.661q1.5,0,1.5-1,0-.94-1.155-.94a2.633,2.633,0,0,0-1.5.5V-7.423a4.154,4.154,0,0,1,1.891-.408,2.853,2.853,0,0,1,1.84.532,1.692,1.692,0,0,1,.658,1.38A1.8,1.8,0,0,1,3.776-4.028V-4a2.081,2.081,0,0,1,1.289.594A1.673,1.673,0,0,1,5.538-2.2a2.067,2.067,0,0,1-.79,1.708A3.414,3.414,0,0,1,2.567.134,4.215,4.215,0,0,1,.628-.252ZM9.448.134Q6.7.134,6.7-3.728a5.255,5.255,0,0,1,.744-3.053A2.479,2.479,0,0,1,9.6-7.831q2.686,0,2.686,3.926a5.174,5.174,0,0,1-.733,3A2.415,2.415,0,0,1,9.448.134Zm.075-6.671q-1.1,0-1.1,2.766,0,2.6,1.08,2.6,1.053,0,1.053-2.686T9.523-6.537ZM18-3.8a1.755,1.755,0,0,1-1.324-.521,1.935,1.935,0,0,1-.5-1.4,2.127,2.127,0,0,1,.534-1.525,1.872,1.872,0,0,1,1.426-.564,1.745,1.745,0,0,1,1.335.51,2.01,2.01,0,0,1,.481,1.434,2.1,2.1,0,0,1-.532,1.509A1.866,1.866,0,0,1,18-3.8Zm.1-3.067q-.784,0-.784,1.09,0,1.031.747,1.031.763,0,.763-1.074Q18.826-6.864,18.1-6.864ZM23.622-7.7,18.605,0H17.295L22.3-7.7ZM22.795.107a1.755,1.755,0,0,1-1.324-.521,1.935,1.935,0,0,1-.5-1.4A2.127,2.127,0,0,1,21.5-3.341,1.872,1.872,0,0,1,22.929-3.9a1.753,1.753,0,0,1,1.337.5,2,2,0,0,1,.478,1.429,2.118,2.118,0,0,1-.532,1.515A1.857,1.857,0,0,1,22.795.107Zm.086-3.067q-.779,0-.779,1.09,0,1.031.757,1.031t.763-1.074a1.274,1.274,0,0,0-.2-.773A.638.638,0,0,0,22.881-2.959Z" transform="translate(143.254 24)" fill="#12263f"/>
        <path id="Trazado_622238" data-name="Trazado 622238" d="M.628-.252V-1.729a2.981,2.981,0,0,0,1.8.564,1.625,1.625,0,0,0,1.012-.279.927.927,0,0,0,.363-.779.885.885,0,0,0-.448-.795A2.323,2.323,0,0,0,2.127-3.3H1.413V-4.6h.661q1.5,0,1.5-1,0-.94-1.155-.94a2.633,2.633,0,0,0-1.5.5V-7.423a4.154,4.154,0,0,1,1.891-.408,2.853,2.853,0,0,1,1.84.532,1.692,1.692,0,0,1,.658,1.38A1.8,1.8,0,0,1,3.776-4.028V-4a2.081,2.081,0,0,1,1.289.594A1.673,1.673,0,0,1,5.538-2.2a2.067,2.067,0,0,1-.79,1.708A3.414,3.414,0,0,1,2.567.134,4.215,4.215,0,0,1,.628-.252Zm8-1.155H11.9V0H6.773V-.58a2.7,2.7,0,0,1,.2-1.061,3.52,3.52,0,0,1,.5-.843,4.333,4.333,0,0,1,.658-.661q.357-.287.679-.518.338-.242.594-.462a3.382,3.382,0,0,0,.43-.438,1.664,1.664,0,0,0,.26-.44,1.31,1.31,0,0,0,.086-.475A.955.955,0,0,0,9.9-6.225a1.242,1.242,0,0,0-.854-.252,2.868,2.868,0,0,0-1.9.79V-7.181a4.082,4.082,0,0,1,2.267-.65,3.347,3.347,0,0,1,1.05.153,2.222,2.222,0,0,1,.787.438,1.867,1.867,0,0,1,.491.69,2.329,2.329,0,0,1,.169.905,2.552,2.552,0,0,1-.164.945,2.9,2.9,0,0,1-.435.752,3.946,3.946,0,0,1-.626.62q-.354.282-.736.545-.258.183-.5.363a4.71,4.71,0,0,0-.422.354,1.924,1.924,0,0,0-.29.341A.589.589,0,0,0,8.631-1.407ZM18-3.8a1.755,1.755,0,0,1-1.324-.521,1.935,1.935,0,0,1-.5-1.4,2.127,2.127,0,0,1,.534-1.525,1.872,1.872,0,0,1,1.426-.564,1.745,1.745,0,0,1,1.335.51,2.01,2.01,0,0,1,.481,1.434,2.1,2.1,0,0,1-.532,1.509A1.866,1.866,0,0,1,18-3.8Zm.1-3.067q-.784,0-.784,1.09,0,1.031.747,1.031.763,0,.763-1.074Q18.826-6.864,18.1-6.864ZM23.622-7.7,18.605,0H17.295L22.3-7.7ZM22.795.107a1.755,1.755,0,0,1-1.324-.521,1.935,1.935,0,0,1-.5-1.4A2.127,2.127,0,0,1,21.5-3.341,1.872,1.872,0,0,1,22.929-3.9a1.753,1.753,0,0,1,1.337.5,2,2,0,0,1,.478,1.429,2.118,2.118,0,0,1-.532,1.515A1.857,1.857,0,0,1,22.795.107Zm.086-3.067q-.779,0-.779,1.09,0,1.031.757,1.031t.763-1.074a1.274,1.274,0,0,0-.2-.773A.638.638,0,0,0,22.881-2.959Z" transform="translate(6 216.785)" fill="#12263f"/>
      </g>
      <path id="Trazado_622241" data-name="Trazado 622241" d="M96.438,17H93.891L89.273,9.961a10.178,10.178,0,0,1-.562-.93H88.68q.062.594.063,1.813V17H86.359V5.8h2.719l4.445,6.82q.3.461.563.914h.031a11.979,11.979,0,0,1-.062-1.539V5.8h2.383Zm9.922,0H103.9V15.781h-.039a2.792,2.792,0,0,1-2.445,1.414q-2.781,0-2.781-3.367V9h2.461v4.609q0,1.7,1.344,1.7a1.329,1.329,0,0,0,1.063-.465,1.874,1.874,0,0,0,.4-1.262V9h2.461ZM105.352,5.211l-2.445,2.523h-1.781l2.031-2.523ZM121.141,17H118.68V12.438q0-1.742-1.281-1.742a1.177,1.177,0,0,0-.992.523,2.151,2.151,0,0,0-.383,1.3V17h-2.469V12.391q0-1.7-1.258-1.7a1.206,1.206,0,0,0-1.012.5,2.2,2.2,0,0,0-.379,1.359V17h-2.469V9h2.469v1.25h.031A3.031,3.031,0,0,1,113.523,8.8a2.3,2.3,0,0,1,2.32,1.492A2.959,2.959,0,0,1,118.531,8.8q2.609,0,2.609,3.219Zm9.141-3.3h-5.219q.125,1.742,2.2,1.742a4.286,4.286,0,0,0,2.32-.625V16.6a6.1,6.1,0,0,1-2.883.594,4.058,4.058,0,0,1-3.008-1.074,4.058,4.058,0,0,1-1.07-3,4.281,4.281,0,0,1,1.156-3.156A3.852,3.852,0,0,1,126.617,8.8a3.5,3.5,0,0,1,2.707,1.039,4,4,0,0,1,.957,2.82Zm-2.289-1.516q0-1.719-1.391-1.719a1.328,1.328,0,0,0-1.027.492,2.234,2.234,0,0,0-.527,1.227Zm8.977-.961a2.142,2.142,0,0,0-1.039-.242,1.5,1.5,0,0,0-1.258.59,2.573,2.573,0,0,0-.453,1.605V17H131.75V9h2.469v1.484h.031a2.136,2.136,0,0,1,2.109-1.625,1.59,1.59,0,0,1,.609.094Zm4.9,5.969a4.3,4.3,0,0,1-3.145-1.121,4.064,4.064,0,0,1-1.145-3.043,4.065,4.065,0,0,1,1.188-3.105A4.487,4.487,0,0,1,141.977,8.8,4.249,4.249,0,0,1,145.1,9.926a3.985,3.985,0,0,1,1.133,2.965,4.23,4.23,0,0,1-1.168,3.148A4.348,4.348,0,0,1,141.867,17.2Zm.063-6.5a1.647,1.647,0,0,0-1.359.6,2.653,2.653,0,0,0-.484,1.7q0,2.3,1.859,2.3,1.773,0,1.773-2.367Q143.719,10.7,141.93,10.7ZM160.078,17h-2.469V15.9h-.031a2.768,2.768,0,0,1-2.477,1.3,3.033,3.033,0,0,1-2.414-1.059,4.382,4.382,0,0,1-.914-2.957A4.77,4.77,0,0,1,152.781,10a3.287,3.287,0,0,1,2.641-1.2,2.246,2.246,0,0,1,2.156,1.109h.031V5.156h2.469Zm-2.422-3.891v-.6a1.893,1.893,0,0,0-.453-1.3,1.6,1.6,0,0,0-2.461.129,2.993,2.993,0,0,0-.461,1.77,2.59,2.59,0,0,0,.445,1.625,1.581,1.581,0,0,0,2.457-.031A2.507,2.507,0,0,0,157.656,13.109Zm11.688.594h-5.219q.125,1.742,2.2,1.742a4.286,4.286,0,0,0,2.32-.625V16.6a6.1,6.1,0,0,1-2.883.594,4.058,4.058,0,0,1-3.008-1.074,4.058,4.058,0,0,1-1.07-3,4.281,4.281,0,0,1,1.156-3.156A3.852,3.852,0,0,1,165.68,8.8a3.5,3.5,0,0,1,2.707,1.039,4,4,0,0,1,.957,2.82Zm-2.289-1.516q0-1.719-1.391-1.719a1.328,1.328,0,0,0-1.027.492,2.234,2.234,0,0,0-.527,1.227Zm14.234,4.523a4.881,4.881,0,0,1-2.414.484,4.083,4.083,0,0,1-2.984-1.117A3.859,3.859,0,0,1,174.75,13.2a4.251,4.251,0,0,1,1.223-3.215,4.518,4.518,0,0,1,3.27-1.176,4.2,4.2,0,0,1,2.047.375v2.094a2.814,2.814,0,0,0-1.727-.578,2.275,2.275,0,0,0-1.684.621,2.317,2.317,0,0,0-.621,1.715,2.28,2.28,0,0,0,.594,1.668,2.182,2.182,0,0,0,1.633.605,3.258,3.258,0,0,0,1.8-.578Zm4.086.289h-2.469V5.156h2.469ZM188.7,7.734a1.442,1.442,0,0,1-1.023-.371,1.2,1.2,0,0,1-.4-.91,1.153,1.153,0,0,1,.4-.906,1.671,1.671,0,0,1,2.051,0,1.158,1.158,0,0,1,.395.906,1.191,1.191,0,0,1-.395.922A1.466,1.466,0,0,1,188.7,7.734ZM189.922,17h-2.469V9h2.469Zm9.266-3.3h-5.219q.125,1.742,2.2,1.742a4.286,4.286,0,0,0,2.32-.625V16.6a6.1,6.1,0,0,1-2.883.594,4.058,4.058,0,0,1-3.008-1.074,4.058,4.058,0,0,1-1.07-3,4.281,4.281,0,0,1,1.156-3.156A3.852,3.852,0,0,1,195.523,8.8a3.5,3.5,0,0,1,2.707,1.039,4,4,0,0,1,.957,2.82ZM196.9,12.188q0-1.719-1.391-1.719a1.328,1.328,0,0,0-1.027.492,2.234,2.234,0,0,0-.527,1.227ZM208.383,17h-2.461V12.555q0-1.859-1.328-1.859a1.318,1.318,0,0,0-1.055.492,1.875,1.875,0,0,0-.414,1.25V17h-2.469V9h2.469v1.266h.031a2.829,2.829,0,0,1,2.57-1.461q2.656,0,2.656,3.3Zm6.789-.094a3.649,3.649,0,0,1-1.648.289q-2.609,0-2.609-2.711V10.82h-1.3V9h1.3V7.273l2.461-.7V9h1.8v1.82h-1.8v3.234q0,1.25.992,1.25a1.673,1.673,0,0,0,.8-.227Zm8.516-3.2h-5.219q.125,1.742,2.2,1.742a4.286,4.286,0,0,0,2.32-.625V16.6a6.1,6.1,0,0,1-2.883.594,4.058,4.058,0,0,1-3.008-1.074,4.058,4.058,0,0,1-1.07-3,4.281,4.281,0,0,1,1.156-3.156A3.852,3.852,0,0,1,220.023,8.8a3.5,3.5,0,0,1,2.707,1.039,4,4,0,0,1,.957,2.82ZM221.4,12.188q0-1.719-1.391-1.719a1.328,1.328,0,0,0-1.027.492,2.234,2.234,0,0,0-.527,1.227Zm3.234,4.6v-2a5.256,5.256,0,0,0,1.215.547,4.028,4.028,0,0,0,1.145.18,2.455,2.455,0,0,0,1.035-.18.581.581,0,0,0,.379-.547.506.506,0,0,0-.172-.391,1.6,1.6,0,0,0-.441-.273,5.009,5.009,0,0,0-.59-.211q-.32-.094-.617-.211a5.914,5.914,0,0,1-.84-.387,2.427,2.427,0,0,1-.609-.48,1.889,1.889,0,0,1-.375-.633,2.525,2.525,0,0,1-.129-.852,2.192,2.192,0,0,1,.293-1.156,2.393,2.393,0,0,1,.781-.793,3.57,3.57,0,0,1,1.117-.453,5.825,5.825,0,0,1,1.309-.145,7.261,7.261,0,0,1,1.078.082,8.047,8.047,0,0,1,1.078.238v1.906a3.9,3.9,0,0,0-1-.41,4.235,4.235,0,0,0-1.051-.137,2.328,2.328,0,0,0-.457.043,1.505,1.505,0,0,0-.379.125.7.7,0,0,0-.258.211.486.486,0,0,0-.094.293.541.541,0,0,0,.141.375,1.221,1.221,0,0,0,.367.27,3.625,3.625,0,0,0,.5.2q.277.09.551.184a7.161,7.161,0,0,1,.891.375,2.848,2.848,0,0,1,.684.477,1.871,1.871,0,0,1,.438.641,2.563,2.563,0,0,1-.156,2.09,2.471,2.471,0,0,1-.82.82,3.72,3.72,0,0,1-1.18.461,6.54,6.54,0,0,1-1.387.145A7.149,7.149,0,0,1,224.633,16.789Zm14.477-.719h-.031V20.68h-2.469V9h2.469v1.2h.031a3.142,3.142,0,0,1,4.973-.332,4.54,4.54,0,0,1,.848,2.9,4.922,4.922,0,0,1-.988,3.211,3.222,3.222,0,0,1-2.629,1.211A2.491,2.491,0,0,1,239.109,16.07Zm-.07-3.281v.641a2.036,2.036,0,0,0,.438,1.352,1.424,1.424,0,0,0,1.148.523,1.514,1.514,0,0,0,1.309-.652A3.15,3.15,0,0,0,242.4,12.8q0-2.109-1.641-2.109a1.541,1.541,0,0,0-1.238.574A2.29,2.29,0,0,0,239.039,12.789Zm11.3,4.406a4.3,4.3,0,0,1-3.145-1.121,4.064,4.064,0,0,1-1.145-3.043,4.065,4.065,0,0,1,1.188-3.105A4.487,4.487,0,0,1,250.453,8.8a4.249,4.249,0,0,1,3.125,1.121,3.985,3.985,0,0,1,1.133,2.965,4.23,4.23,0,0,1-1.168,3.148A4.348,4.348,0,0,1,250.344,17.2Zm.063-6.5a1.647,1.647,0,0,0-1.359.6,2.653,2.653,0,0,0-.484,1.7q0,2.3,1.859,2.3,1.773,0,1.773-2.367Q252.2,10.7,250.406,10.7Zm11.125.531a2.141,2.141,0,0,0-1.039-.242,1.5,1.5,0,0,0-1.258.59,2.573,2.573,0,0,0-.453,1.605V17h-2.469V9h2.469v1.484h.031a2.136,2.136,0,0,1,2.109-1.625,1.59,1.59,0,0,1,.609.094Zm10.781,0a2.141,2.141,0,0,0-1.039-.242,1.5,1.5,0,0,0-1.258.59,2.573,2.573,0,0,0-.453,1.605V17h-2.469V9h2.469v1.484h.031A2.136,2.136,0,0,1,271.7,8.859a1.59,1.59,0,0,1,.609.094Zm8.273,2.477h-5.219q.125,1.742,2.2,1.742a4.286,4.286,0,0,0,2.32-.625V16.6A6.1,6.1,0,0,1,277,17.2a4.058,4.058,0,0,1-3.008-1.074,4.059,4.059,0,0,1-1.07-3,4.281,4.281,0,0,1,1.156-3.156A3.852,3.852,0,0,1,276.922,8.8a3.5,3.5,0,0,1,2.707,1.039,4,4,0,0,1,.957,2.82ZM278.3,12.188q0-1.719-1.391-1.719a1.328,1.328,0,0,0-1.027.492,2.234,2.234,0,0,0-.527,1.227Zm11.6,3.9a4.526,4.526,0,0,1-1.289,3.449,5.224,5.224,0,0,1-3.734,1.223,5.919,5.919,0,0,1-2.562-.461V18.219a4.907,4.907,0,0,0,2.492.719,2.684,2.684,0,0,0,1.938-.66,2.369,2.369,0,0,0,.688-1.793v-.633H287.4a2.757,2.757,0,0,1-2.492,1.344,3,3,0,0,1-2.43-1.078,4.372,4.372,0,0,1-.9-2.891,4.87,4.87,0,0,1,1-3.227,3.265,3.265,0,0,1,2.633-1.2A2.429,2.429,0,0,1,287.4,9.93h.031V9H289.9Zm-2.437-2.93v-.633a1.945,1.945,0,0,0-.449-1.293,1.453,1.453,0,0,0-1.168-.535,1.51,1.51,0,0,0-1.289.641,3.012,3.012,0,0,0-.469,1.8,2.543,2.543,0,0,0,.445,1.582,1.451,1.451,0,0,0,1.219.582,1.511,1.511,0,0,0,1.238-.59A2.419,2.419,0,0,0,287.461,13.156Zm5.75-5.422a1.442,1.442,0,0,1-1.023-.371,1.2,1.2,0,0,1-.4-.91,1.153,1.153,0,0,1,.4-.906,1.671,1.671,0,0,1,2.051,0,1.158,1.158,0,0,1,.395.906,1.191,1.191,0,0,1-.395.922A1.466,1.466,0,0,1,293.211,7.734ZM294.43,17h-2.469V9h2.469Zm5.891.2a4.3,4.3,0,0,1-3.145-1.121,4.064,4.064,0,0,1-1.145-3.043,4.065,4.065,0,0,1,1.188-3.105A4.487,4.487,0,0,1,300.43,8.8a4.249,4.249,0,0,1,3.125,1.121,3.985,3.985,0,0,1,1.133,2.965,4.23,4.23,0,0,1-1.168,3.148A4.348,4.348,0,0,1,300.32,17.2Zm.063-6.5a1.647,1.647,0,0,0-1.359.6,2.653,2.653,0,0,0-.484,1.7q0,2.3,1.859,2.3,1.773,0,1.773-2.367Q302.172,10.7,300.383,10.7Zm2.648-5.484-2.445,2.523H298.8l2.031-2.523ZM314.008,17h-2.461V12.555q0-1.859-1.328-1.859a1.318,1.318,0,0,0-1.055.492,1.875,1.875,0,0,0-.414,1.25V17h-2.469V9h2.469v1.266h.031a2.829,2.829,0,0,1,2.57-1.461q2.656,0,2.656,3.3Z" transform="translate(810.333 9855.064)" fill="#12263f"/>
      <g id="Grupo_167798" data-name="Grupo 167798" transform="translate(-21 -968)">
        <path id="Trazado_622240" data-name="Trazado 622240" d="M1.281,17V5.8H5.359a5.093,5.093,0,0,1,2.883.688A2.211,2.211,0,0,1,9.25,8.422a2.293,2.293,0,0,1-.613,1.586,3.222,3.222,0,0,1-1.566.945v.031a3.1,3.1,0,0,1,1.91.883A2.469,2.469,0,0,1,9.7,13.656a2.99,2.99,0,0,1-1.1,2.441,4.61,4.61,0,0,1-3.008.9ZM3.8,7.656v2.656H4.914a1.849,1.849,0,0,0,1.23-.379,1.291,1.291,0,0,0,.449-1.043q0-1.234-1.844-1.234Zm0,4.531v2.953H5.172a2.1,2.1,0,0,0,1.371-.406,1.357,1.357,0,0,0,.5-1.109,1.266,1.266,0,0,0-.488-1.055,2.16,2.16,0,0,0-1.363-.383Zm11.3,5.008a4.3,4.3,0,0,1-3.145-1.121,4.064,4.064,0,0,1-1.145-3.043,4.065,4.065,0,0,1,1.188-3.105A4.487,4.487,0,0,1,15.219,8.8a4.249,4.249,0,0,1,3.125,1.121,3.985,3.985,0,0,1,1.133,2.965,4.23,4.23,0,0,1-1.168,3.148A4.348,4.348,0,0,1,15.109,17.2Zm.063-6.5a1.647,1.647,0,0,0-1.359.6,2.653,2.653,0,0,0-.484,1.7q0,2.3,1.859,2.3,1.773,0,1.773-2.367Q16.961,10.7,15.172,10.7ZM28.7,9l-3.25,8.641q-1.172,3.117-3.531,3.117a4.524,4.524,0,0,1-1.477-.2V18.586a2.076,2.076,0,0,0,1.07.289,1.337,1.337,0,0,0,1.328-.9l.422-.992L20.008,9h2.734l1.492,4.867a6.325,6.325,0,0,1,.219,1.07h.031a7.463,7.463,0,0,1,.258-1.055L26.25,9Zm7.648,8H34.008V15.852h-.031A2.607,2.607,0,0,1,31.594,17.2a2.492,2.492,0,0,1-1.832-.66,2.366,2.366,0,0,1-.668-1.762q0-2.328,2.758-2.687l2.172-.289q0-1.312-1.422-1.312a4.853,4.853,0,0,0-2.719.852V9.477a6.116,6.116,0,0,1,1.41-.469,7.413,7.413,0,0,1,1.629-.2q3.422,0,3.422,3.414Zm-2.32-3.25v-.539L32.57,13.4q-1.2.156-1.2,1.086a.9.9,0,0,0,.293.691,1.126,1.126,0,0,0,.793.27,1.462,1.462,0,0,0,1.133-.48A1.735,1.735,0,0,0,34.023,13.75Zm10.336,2.961a4.881,4.881,0,0,1-2.414.484,4.083,4.083,0,0,1-2.984-1.117A3.859,3.859,0,0,1,37.82,13.2,4.251,4.251,0,0,1,39.043,9.98,4.518,4.518,0,0,1,42.313,8.8a4.2,4.2,0,0,1,2.047.375v2.094a2.814,2.814,0,0,0-1.727-.578,2.275,2.275,0,0,0-1.684.621,2.317,2.317,0,0,0-.621,1.715,2.28,2.28,0,0,0,.594,1.668,2.182,2.182,0,0,0,1.633.605,3.258,3.258,0,0,0,1.8-.578ZM52.633,17H50.3V15.852h-.031A2.607,2.607,0,0,1,47.883,17.2a2.492,2.492,0,0,1-1.832-.66,2.366,2.366,0,0,1-.668-1.762q0-2.328,2.758-2.687l2.172-.289q0-1.312-1.422-1.312a4.853,4.853,0,0,0-2.719.852V9.477a6.116,6.116,0,0,1,1.41-.469,7.413,7.413,0,0,1,1.629-.2q3.422,0,3.422,3.414Zm-2.32-3.25v-.539l-1.453.188q-1.2.156-1.2,1.086a.9.9,0,0,0,.293.691,1.126,1.126,0,0,0,.793.27,1.462,1.462,0,0,0,1.133-.48A1.735,1.735,0,0,0,50.313,13.75ZM51.9,5.211,49.453,7.734H47.672L49.7,5.211Zm68.484,8.773a2.983,2.983,0,0,1,.137-.9,2.735,2.735,0,0,1,.41-.8,3.019,3.019,0,0,1,.684-.664,3.672,3.672,0,0,1,.965-.48,3.46,3.46,0,0,1-1.32-1.082,2.473,2.473,0,0,1-.469-1.465,2.649,2.649,0,0,1,.27-1.187,2.881,2.881,0,0,1,.746-.945,3.49,3.49,0,0,1,1.137-.621,4.485,4.485,0,0,1,1.441-.223,4.573,4.573,0,0,1,1.461.223,3.572,3.572,0,0,1,1.145.617,2.8,2.8,0,0,1,.746.934A2.615,2.615,0,0,1,128,8.555,2.326,2.326,0,0,1,127.5,10a3.722,3.722,0,0,1-1.383,1.074,3.769,3.769,0,0,1,.961.48,3.093,3.093,0,0,1,.7.668,2.736,2.736,0,0,1,.422.816,3.006,3.006,0,0,1,.141.918,2.933,2.933,0,0,1-.289,1.309,2.979,2.979,0,0,1-.816,1.016,3.853,3.853,0,0,1-1.258.66,5.661,5.661,0,0,1-3.211,0A3.84,3.84,0,0,1,121.5,16.3a3.025,3.025,0,0,1-.824-1.012A2.852,2.852,0,0,1,120.383,13.984Zm2.336-.211a1.9,1.9,0,0,0,.117.688,1.406,1.406,0,0,0,.336.516,1.5,1.5,0,0,0,.52.324,1.906,1.906,0,0,0,.676.113,1.8,1.8,0,0,0,.66-.117,1.549,1.549,0,0,0,.52-.328,1.493,1.493,0,0,0,.344-.516,1.86,1.86,0,0,0,.008-1.32,1.523,1.523,0,0,0-.336-.527,1.635,1.635,0,0,0-1.2-.488,1.761,1.761,0,0,0-.656.121,1.5,1.5,0,0,0-.523.344,1.622,1.622,0,0,0-.344.527A1.733,1.733,0,0,0,122.719,13.773Zm.344-4.961a1.48,1.48,0,0,0,.105.559,1.441,1.441,0,0,0,.285.453,1.3,1.3,0,0,0,.426.3,1.3,1.3,0,0,0,1.043,0,1.331,1.331,0,0,0,.426-.3,1.459,1.459,0,0,0,.395-1.008,1.552,1.552,0,0,0-.1-.566,1.339,1.339,0,0,0-.715-.754,1.342,1.342,0,0,0-1.07,0,1.309,1.309,0,0,0-.422.3,1.369,1.369,0,0,0-.273.453A1.585,1.585,0,0,0,123.063,8.813Zm38.883-3.266V17h-2.461V8.328a2.947,2.947,0,0,1-.48.34,4.96,4.96,0,0,1-.59.289,5.267,5.267,0,0,1-.648.219,4.736,4.736,0,0,1-.664.129V7.227a10.265,10.265,0,0,0,1.813-.719,10.315,10.315,0,0,0,1.539-.961Zm11.375,7.727a4.107,4.107,0,0,1-.289,1.547,3.776,3.776,0,0,1-.8,1.246,3.723,3.723,0,0,1-1.227.828,4.208,4.208,0,0,1-3.246-.051,3.414,3.414,0,0,1-1.262-1.02,4.767,4.767,0,0,1-.789-1.637,8.088,8.088,0,0,1-.273-2.2,9.038,9.038,0,0,1,.355-2.621A6.018,6.018,0,0,1,166.8,7.359a4.562,4.562,0,0,1,1.6-1.293,4.751,4.751,0,0,1,2.109-.457,5.321,5.321,0,0,1,2.016.3V7.977a3.7,3.7,0,0,0-1.859-.484,2.6,2.6,0,0,0-1.133.242,2.5,2.5,0,0,0-.871.688,3.324,3.324,0,0,0-.57,1.074,4.781,4.781,0,0,0-.223,1.4h.047a2.717,2.717,0,0,1,2.352-1.1,3.064,3.064,0,0,1,1.258.25,2.729,2.729,0,0,1,.961.707,3.243,3.243,0,0,1,.617,1.1A4.379,4.379,0,0,1,173.32,13.273Zm-2.414.156q0-1.8-1.477-1.8a1.449,1.449,0,0,0-.609.125,1.356,1.356,0,0,0-.469.352,1.6,1.6,0,0,0-.3.535,2.1,2.1,0,0,0-.105.684,2.644,2.644,0,0,0,.109.773,2.054,2.054,0,0,0,.309.629,1.528,1.528,0,0,0,.473.426,1.206,1.206,0,0,0,.609.156,1.319,1.319,0,0,0,.605-.137,1.356,1.356,0,0,0,.461-.383,1.759,1.759,0,0,0,.293-.594A2.709,2.709,0,0,0,170.906,13.43Zm10.719-1.953a2.553,2.553,0,0,1-1.926-.758,2.814,2.814,0,0,1-.73-2.039,3.094,3.094,0,0,1,.777-2.219,2.723,2.723,0,0,1,2.074-.82,2.538,2.538,0,0,1,1.941.742,2.924,2.924,0,0,1,.7,2.086,3.053,3.053,0,0,1-.773,2.2A2.714,2.714,0,0,1,181.625,11.477Zm.148-4.461q-1.141,0-1.141,1.586,0,1.5,1.086,1.5,1.109,0,1.109-1.562Q182.828,7.016,181.773,7.016ZM189.8,5.8l-7.3,11.2H180.6l7.281-11.2Zm-1.2,11.359a2.553,2.553,0,0,1-1.926-.758,2.814,2.814,0,0,1-.73-2.039,3.094,3.094,0,0,1,.777-2.219,2.723,2.723,0,0,1,2.074-.82,2.55,2.55,0,0,1,1.945.734,2.9,2.9,0,0,1,.7,2.078,3.081,3.081,0,0,1-.773,2.2A2.7,2.7,0,0,1,188.6,17.156Zm.125-4.461q-1.133,0-1.133,1.586,0,1.5,1.1,1.5t1.109-1.562a1.853,1.853,0,0,0-.3-1.125A.929.929,0,0,0,188.727,12.7ZM9.148,31.852h-3.2V41H3.422V31.852H.242V29.8H9.148ZM12.789,41.2a4.3,4.3,0,0,1-3.145-1.121A4.064,4.064,0,0,1,8.5,37.031a4.065,4.065,0,0,1,1.188-3.105A4.487,4.487,0,0,1,12.9,32.8a4.249,4.249,0,0,1,3.125,1.121,3.985,3.985,0,0,1,1.133,2.965,4.23,4.23,0,0,1-1.168,3.148A4.348,4.348,0,0,1,12.789,41.2Zm.063-6.5a1.647,1.647,0,0,0-1.359.6,2.653,2.653,0,0,0-.484,1.7q0,2.3,1.859,2.3,1.773,0,1.773-2.367Q14.641,34.7,12.852,34.7ZM21.227,41H18.758V29.156h2.469Zm3.328-9.266a1.442,1.442,0,0,1-1.023-.371,1.2,1.2,0,0,1-.4-.91,1.153,1.153,0,0,1,.4-.906,1.671,1.671,0,0,1,2.051,0,1.158,1.158,0,0,1,.395.906,1.191,1.191,0,0,1-.395.922A1.466,1.466,0,0,1,24.555,31.734ZM25.773,41H23.3V33h2.469Zm14.781,0H38.094V36.438q0-1.742-1.281-1.742a1.177,1.177,0,0,0-.992.523,2.151,2.151,0,0,0-.383,1.3V41H32.969V36.391q0-1.7-1.258-1.7a1.206,1.206,0,0,0-1.012.5,2.2,2.2,0,0,0-.379,1.359V41H27.852V33H30.32v1.25h.031A3.031,3.031,0,0,1,32.938,32.8a2.3,2.3,0,0,1,2.32,1.492A2.959,2.959,0,0,1,37.945,32.8q2.609,0,2.609,3.219Zm8.609,0H46.828V39.852H46.8A2.607,2.607,0,0,1,44.414,41.2a2.492,2.492,0,0,1-1.832-.66,2.366,2.366,0,0,1-.668-1.762q0-2.328,2.758-2.687l2.172-.289q0-1.312-1.422-1.312a4.853,4.853,0,0,0-2.719.852V33.477a6.116,6.116,0,0,1,1.41-.469,7.413,7.413,0,0,1,1.629-.2q3.422,0,3.422,3.414Zm-2.32-3.25v-.539l-1.453.188q-1.2.156-1.2,1.086a.9.9,0,0,0,.293.691,1.126,1.126,0,0,0,.793.27,1.462,1.462,0,0,0,1.133-.48A1.735,1.735,0,0,0,46.844,37.75Zm75.945-8.2V41h-2.461V32.328a2.947,2.947,0,0,1-.48.34,4.96,4.96,0,0,1-.59.289,5.267,5.267,0,0,1-.648.219,4.737,4.737,0,0,1-.664.129V31.227a10.435,10.435,0,0,0,3.352-1.68Zm9.2,0V41h-2.461V32.328a2.947,2.947,0,0,1-.48.34,4.96,4.96,0,0,1-.59.289,5.267,5.267,0,0,1-.648.219,4.737,4.737,0,0,1-.664.129V31.227a10.435,10.435,0,0,0,3.352-1.68Zm28.125,9.406h4.75V41h-7.453v-.844a3.927,3.927,0,0,1,.289-1.543,5.12,5.12,0,0,1,.727-1.227,6.3,6.3,0,0,1,.957-.961q.52-.418.988-.754.492-.352.863-.672a4.919,4.919,0,0,0,.625-.637,2.421,2.421,0,0,0,.379-.641,1.905,1.905,0,0,0,.125-.691,1.39,1.39,0,0,0-.406-1.086,1.806,1.806,0,0,0-1.242-.367,4.172,4.172,0,0,0-2.766,1.148V30.555a5.937,5.937,0,0,1,3.3-.945,4.869,4.869,0,0,1,1.527.223,3.231,3.231,0,0,1,1.145.637,2.716,2.716,0,0,1,.715,1,3.388,3.388,0,0,1,.246,1.316,3.712,3.712,0,0,1-.238,1.375,4.225,4.225,0,0,1-.633,1.094,5.74,5.74,0,0,1-.91.9q-.516.41-1.07.793-.375.266-.723.527A6.851,6.851,0,0,0,160.7,38a2.8,2.8,0,0,0-.422.5A.856.856,0,0,0,160.117,38.953Zm9.2,0h4.75V41h-7.453v-.844a3.927,3.927,0,0,1,.289-1.543,5.12,5.12,0,0,1,.727-1.227,6.3,6.3,0,0,1,.957-.961q.52-.418.988-.754.492-.352.863-.672a4.919,4.919,0,0,0,.625-.637,2.421,2.421,0,0,0,.379-.641,1.905,1.905,0,0,0,.125-.691,1.39,1.39,0,0,0-.406-1.086,1.806,1.806,0,0,0-1.242-.367,4.172,4.172,0,0,0-2.766,1.148V30.555a5.937,5.937,0,0,1,3.3-.945,4.869,4.869,0,0,1,1.527.223,3.231,3.231,0,0,1,1.145.637,2.716,2.716,0,0,1,.715,1,3.388,3.388,0,0,1,.246,1.316,3.712,3.712,0,0,1-.238,1.375,4.225,4.225,0,0,1-.633,1.094,5.74,5.74,0,0,1-.91.9q-.516.41-1.07.793-.375.266-.723.527A6.851,6.851,0,0,0,169.9,38a2.8,2.8,0,0,0-.422.5A.856.856,0,0,0,169.32,38.953Zm13.625-3.477a2.553,2.553,0,0,1-1.926-.758,2.814,2.814,0,0,1-.73-2.039,3.094,3.094,0,0,1,.777-2.219,2.723,2.723,0,0,1,2.074-.82,2.538,2.538,0,0,1,1.941.742,2.924,2.924,0,0,1,.7,2.086,3.053,3.053,0,0,1-.773,2.2A2.714,2.714,0,0,1,182.945,35.477Zm.148-4.461q-1.141,0-1.141,1.586,0,1.5,1.086,1.5,1.109,0,1.109-1.562Q184.148,31.016,183.094,31.016Zm8.031-1.219-7.3,11.2h-1.906L189.2,29.8Zm-1.2,11.359A2.553,2.553,0,0,1,188,40.4a2.814,2.814,0,0,1-.73-2.039,3.094,3.094,0,0,1,.777-2.219,2.723,2.723,0,0,1,2.074-.82,2.55,2.55,0,0,1,1.945.734,2.9,2.9,0,0,1,.7,2.078,3.081,3.081,0,0,1-.773,2.2A2.7,2.7,0,0,1,189.922,41.156Zm.125-4.461q-1.133,0-1.133,1.586,0,1.5,1.1,1.5t1.109-1.562a1.853,1.853,0,0,0-.3-1.125A.929.929,0,0,0,190.047,36.7ZM9.313,64.6a7.388,7.388,0,0,1-3.2.594A5.4,5.4,0,0,1,2.055,63.68,5.54,5.54,0,0,1,.578,59.641a5.919,5.919,0,0,1,1.66-4.359,5.807,5.807,0,0,1,4.309-1.672,8.058,8.058,0,0,1,2.766.414v2.43a4.9,4.9,0,0,0-2.562-.672,3.4,3.4,0,0,0-2.547.992,3.682,3.682,0,0,0-.969,2.688,3.611,3.611,0,0,0,.914,2.59,3.229,3.229,0,0,0,2.461.965,5.249,5.249,0,0,0,2.7-.719Zm9.313.4H16.164V63.781h-.039A2.792,2.792,0,0,1,13.68,65.2q-2.781,0-2.781-3.367V57h2.461v4.609q0,1.7,1.344,1.7a1.329,1.329,0,0,0,1.063-.465,1.874,1.874,0,0,0,.4-1.262V57h2.461Zm9.8,0H25.969V60.555q0-1.859-1.328-1.859a1.318,1.318,0,0,0-1.055.492,1.875,1.875,0,0,0-.414,1.25V65H20.7V57h2.469v1.266H23.2a2.829,2.829,0,0,1,2.57-1.461q2.656,0,2.656,3.3Zm9.781,0H35.742V63.9h-.031a2.768,2.768,0,0,1-2.477,1.3,3.033,3.033,0,0,1-2.414-1.059,4.382,4.382,0,0,1-.914-2.957A4.77,4.77,0,0,1,30.914,58a3.287,3.287,0,0,1,2.641-1.2,2.246,2.246,0,0,1,2.156,1.109h.031V53.156h2.469Zm-2.422-3.891v-.6a1.893,1.893,0,0,0-.453-1.3,1.6,1.6,0,0,0-2.461.129,2.993,2.993,0,0,0-.461,1.77,2.59,2.59,0,0,0,.445,1.625,1.581,1.581,0,0,0,2.457-.031A2.507,2.507,0,0,0,35.789,61.109Zm5.75-5.375a1.442,1.442,0,0,1-1.023-.371,1.2,1.2,0,0,1-.4-.91,1.153,1.153,0,0,1,.4-.906,1.671,1.671,0,0,1,2.051,0,1.158,1.158,0,0,1,.395.906,1.191,1.191,0,0,1-.395.922A1.466,1.466,0,0,1,41.539,55.734ZM42.758,65H40.289V57h2.469Zm9.8,0H50.1V60.555q0-1.859-1.328-1.859a1.318,1.318,0,0,0-1.055.492,1.875,1.875,0,0,0-.414,1.25V65H44.836V57H47.3v1.266h.031a2.829,2.829,0,0,1,2.57-1.461q2.656,0,2.656,3.3Zm8.609,0H58.836V63.852H58.8A2.607,2.607,0,0,1,56.422,65.2a2.492,2.492,0,0,1-1.832-.66,2.365,2.365,0,0,1-.668-1.762q0-2.328,2.758-2.687l2.172-.289q0-1.312-1.422-1.312a4.853,4.853,0,0,0-2.719.852V57.477a6.116,6.116,0,0,1,1.41-.469,7.413,7.413,0,0,1,1.629-.2q3.422,0,3.422,3.414Zm-2.32-3.25v-.539L57.4,61.4q-1.2.156-1.2,1.086a.9.9,0,0,0,.293.691,1.126,1.126,0,0,0,.793.27,1.462,1.462,0,0,0,1.133-.48A1.735,1.735,0,0,0,58.852,61.75ZM75.828,65H73.367V60.438q0-1.742-1.281-1.742a1.177,1.177,0,0,0-.992.523,2.151,2.151,0,0,0-.383,1.3V65H68.242V60.391q0-1.7-1.258-1.7a1.206,1.206,0,0,0-1.012.5,2.2,2.2,0,0,0-.379,1.359V65H63.125V57h2.469v1.25h.031A3.031,3.031,0,0,1,68.211,56.8a2.3,2.3,0,0,1,2.32,1.492A2.959,2.959,0,0,1,73.219,56.8q2.609,0,2.609,3.219Zm8.609,0H82.1V63.852H82.07A2.607,2.607,0,0,1,79.688,65.2a2.492,2.492,0,0,1-1.832-.66,2.365,2.365,0,0,1-.668-1.762q0-2.328,2.758-2.687l2.172-.289q0-1.312-1.422-1.312a4.853,4.853,0,0,0-2.719.852V57.477a6.117,6.117,0,0,1,1.41-.469,7.413,7.413,0,0,1,1.629-.2q3.422,0,3.422,3.414Zm-2.32-3.25v-.539l-1.453.188q-1.2.156-1.2,1.086a.9.9,0,0,0,.293.691,1.126,1.126,0,0,0,.793.27,1.462,1.462,0,0,0,1.133-.48A1.735,1.735,0,0,0,82.117,61.75Zm9.492-2.523a2.142,2.142,0,0,0-1.039-.242,1.5,1.5,0,0,0-1.258.59,2.573,2.573,0,0,0-.453,1.605V65H86.391V57h2.469v1.484h.031A2.136,2.136,0,0,1,91,56.859a1.59,1.59,0,0,1,.609.094Zm7.148,5.484a4.881,4.881,0,0,1-2.414.484,4.083,4.083,0,0,1-2.984-1.117A3.859,3.859,0,0,1,92.219,61.2a4.251,4.251,0,0,1,1.223-3.215,4.518,4.518,0,0,1,3.27-1.176,4.2,4.2,0,0,1,2.047.375v2.094a2.814,2.814,0,0,0-1.727-.578,2.275,2.275,0,0,0-1.684.621,2.317,2.317,0,0,0-.621,1.715A2.28,2.28,0,0,0,95.32,62.7a2.182,2.182,0,0,0,1.633.605,3.258,3.258,0,0,0,1.8-.578Zm8.273.289H104.7V63.852h-.031a2.607,2.607,0,0,1-2.383,1.344,2.492,2.492,0,0,1-1.832-.66,2.365,2.365,0,0,1-.668-1.762q0-2.328,2.758-2.687l2.172-.289q0-1.312-1.422-1.312a4.853,4.853,0,0,0-2.719.852V57.477a6.117,6.117,0,0,1,1.41-.469,7.413,7.413,0,0,1,1.629-.2q3.422,0,3.422,3.414Zm-2.32-3.25v-.539l-1.453.188q-1.2.156-1.2,1.086a.9.9,0,0,0,.293.691,1.126,1.126,0,0,0,.793.27,1.462,1.462,0,0,0,1.133-.48A1.735,1.735,0,0,0,104.711,61.75Zm18.563-8.2V65h-2.461V56.328a2.947,2.947,0,0,1-.48.34,4.96,4.96,0,0,1-.59.289,5.267,5.267,0,0,1-.648.219,4.737,4.737,0,0,1-.664.129V55.227a10.435,10.435,0,0,0,3.352-1.68Zm11.375,7.727a4.107,4.107,0,0,1-.289,1.547,3.776,3.776,0,0,1-.8,1.246,3.723,3.723,0,0,1-1.227.828,4.208,4.208,0,0,1-3.246-.051,3.414,3.414,0,0,1-1.262-1.02,4.767,4.767,0,0,1-.789-1.637,8.089,8.089,0,0,1-.273-2.2,9.039,9.039,0,0,1,.355-2.621,6.018,6.018,0,0,1,1.016-2.012,4.562,4.562,0,0,1,1.6-1.293,4.751,4.751,0,0,1,2.109-.457,5.321,5.321,0,0,1,2.016.3v2.063a3.7,3.7,0,0,0-1.859-.484,2.6,2.6,0,0,0-1.133.242,2.5,2.5,0,0,0-.871.688,3.324,3.324,0,0,0-.57,1.074,4.781,4.781,0,0,0-.223,1.4h.047a2.717,2.717,0,0,1,2.352-1.1,3.064,3.064,0,0,1,1.258.25,2.729,2.729,0,0,1,.961.707,3.243,3.243,0,0,1,.617,1.1A4.379,4.379,0,0,1,134.648,61.273Zm-2.414.156q0-1.8-1.477-1.8a1.449,1.449,0,0,0-.609.125,1.356,1.356,0,0,0-.469.352,1.6,1.6,0,0,0-.3.535,2.1,2.1,0,0,0-.105.684,2.644,2.644,0,0,0,.109.773,2.054,2.054,0,0,0,.309.629,1.528,1.528,0,0,0,.473.426,1.206,1.206,0,0,0,.609.156,1.319,1.319,0,0,0,.605-.137,1.356,1.356,0,0,0,.461-.383,1.759,1.759,0,0,0,.293-.594A2.709,2.709,0,0,0,132.234,61.43Zm30.344,3.2V62.484a4.336,4.336,0,0,0,2.625.82,2.363,2.363,0,0,0,1.473-.406,1.349,1.349,0,0,0,.527-1.133,1.288,1.288,0,0,0-.652-1.156,3.38,3.38,0,0,0-1.793-.406h-1.039V58.313h.961q2.187,0,2.188-1.453,0-1.367-1.68-1.367a3.829,3.829,0,0,0-2.187.727V54.2a6.042,6.042,0,0,1,2.75-.594,4.15,4.15,0,0,1,2.676.773,2.461,2.461,0,0,1,.957,2.008,2.611,2.611,0,0,1-2.227,2.75v.039a3.027,3.027,0,0,1,1.875.863,2.434,2.434,0,0,1,.688,1.754,3.006,3.006,0,0,1-1.148,2.484,4.965,4.965,0,0,1-3.172.914A6.13,6.13,0,0,1,162.578,64.633Zm11.641-1.68h4.75V65h-7.453v-.844a3.927,3.927,0,0,1,.289-1.543,5.12,5.12,0,0,1,.727-1.227,6.3,6.3,0,0,1,.957-.961q.52-.418.988-.754.492-.352.863-.672a4.919,4.919,0,0,0,.625-.637,2.421,2.421,0,0,0,.379-.641,1.905,1.905,0,0,0,.125-.691,1.39,1.39,0,0,0-.406-1.086,1.806,1.806,0,0,0-1.242-.367,4.172,4.172,0,0,0-2.766,1.148V54.555a5.937,5.937,0,0,1,3.3-.945,4.869,4.869,0,0,1,1.527.223,3.231,3.231,0,0,1,1.145.637,2.716,2.716,0,0,1,.715,1,3.388,3.388,0,0,1,.246,1.316,3.712,3.712,0,0,1-.238,1.375,4.225,4.225,0,0,1-.633,1.094,5.74,5.74,0,0,1-.91.9q-.516.41-1.07.793-.375.266-.723.527A6.851,6.851,0,0,0,174.8,62a2.8,2.8,0,0,0-.422.5A.856.856,0,0,0,174.219,62.953Zm13.625-3.477a2.553,2.553,0,0,1-1.926-.758,2.814,2.814,0,0,1-.73-2.039,3.094,3.094,0,0,1,.777-2.219,2.723,2.723,0,0,1,2.074-.82,2.538,2.538,0,0,1,1.941.742,2.924,2.924,0,0,1,.7,2.086,3.053,3.053,0,0,1-.773,2.2A2.714,2.714,0,0,1,187.844,59.477Zm.148-4.461q-1.141,0-1.141,1.586,0,1.5,1.086,1.5,1.109,0,1.109-1.562Q189.047,55.016,187.992,55.016Zm8.031-1.219-7.3,11.2H186.82L194.1,53.8Zm-1.2,11.359a2.553,2.553,0,0,1-1.926-.758,2.814,2.814,0,0,1-.73-2.039,3.094,3.094,0,0,1,.777-2.219,2.723,2.723,0,0,1,2.074-.82,2.55,2.55,0,0,1,1.945.734,2.9,2.9,0,0,1,.7,2.078,3.081,3.081,0,0,1-.773,2.2A2.7,2.7,0,0,1,194.82,65.156Zm.125-4.461q-1.133,0-1.133,1.586,0,1.5,1.1,1.5t1.109-1.562a1.853,1.853,0,0,0-.3-1.125A.929.929,0,0,0,194.945,60.7ZM11.133,89H8.383l-.8-2.492H3.6L2.813,89H.078L4.156,77.8H7.148ZM7.008,84.57,5.8,80.8A4.907,4.907,0,0,1,5.617,79.8H5.555a4.273,4.273,0,0,1-.2.977l-1.219,3.8ZM20.016,89H17.555V84.555q0-1.859-1.328-1.859a1.318,1.318,0,0,0-1.055.492,1.875,1.875,0,0,0-.414,1.25V89H12.289V81h2.469v1.266h.031a2.829,2.829,0,0,1,2.57-1.461q2.656,0,2.656,3.3Zm6.789-.094a3.649,3.649,0,0,1-1.648.289q-2.609,0-2.609-2.711V82.82h-1.3V81h1.3V79.273l2.461-.7V81h1.8v1.82h-1.8v3.234q0,1.25.992,1.25a1.673,1.673,0,0,0,.8-.227Zm2.641-9.172a1.442,1.442,0,0,1-1.023-.371,1.2,1.2,0,0,1-.4-.91,1.153,1.153,0,0,1,.4-.906,1.671,1.671,0,0,1,2.051,0,1.158,1.158,0,0,1,.395.906,1.191,1.191,0,0,1-.395.922A1.466,1.466,0,0,1,29.445,79.734ZM30.664,89H28.2V81h2.469Zm5.891.2a4.3,4.3,0,0,1-3.145-1.121,4.636,4.636,0,0,1,.043-6.148A4.487,4.487,0,0,1,36.664,80.8a4.249,4.249,0,0,1,3.125,1.121,3.985,3.985,0,0,1,1.133,2.965,4.23,4.23,0,0,1-1.168,3.148A4.348,4.348,0,0,1,36.555,89.2Zm.063-6.5a1.647,1.647,0,0,0-1.359.6,2.653,2.653,0,0,0-.484,1.7q0,2.3,1.859,2.3,1.773,0,1.773-2.367Q38.406,82.7,36.617,82.7ZM50.352,92.68H47.883V87.9h-.031a2.742,2.742,0,0,1-2.461,1.3,3.064,3.064,0,0,1-2.426-1.051,4.339,4.339,0,0,1-.918-2.949A4.794,4.794,0,0,1,43.055,82a3.271,3.271,0,0,1,2.625-1.2,2.381,2.381,0,0,1,2.172,1.125h.031V81h2.469Zm-2.422-7.5v-.641a1.952,1.952,0,0,0-.453-1.312,1.46,1.46,0,0,0-1.164-.531,1.507,1.507,0,0,0-1.289.645,2.986,2.986,0,0,0-.469,1.785,2.52,2.52,0,0,0,.457,1.6A1.448,1.448,0,0,0,46.2,87.3a1.53,1.53,0,0,0,1.254-.586A2.376,2.376,0,0,0,47.93,85.18ZM60.031,89H57.57V87.781h-.039A2.792,2.792,0,0,1,55.086,89.2q-2.781,0-2.781-3.367V81h2.461v4.609q0,1.7,1.344,1.7a1.329,1.329,0,0,0,1.063-.465,1.874,1.874,0,0,0,.4-1.262V81h2.461Zm4.547,0H62.109V81h2.469Zm1.273-11.789-2.445,2.523H61.625l2.031-2.523ZM73.313,89H70.977V87.852h-.031A2.607,2.607,0,0,1,68.563,89.2a2.492,2.492,0,0,1-1.832-.66,2.365,2.365,0,0,1-.668-1.762q0-2.328,2.758-2.687l2.172-.289q0-1.312-1.422-1.312a4.853,4.853,0,0,0-2.719.852V81.477a6.116,6.116,0,0,1,1.41-.469,7.413,7.413,0,0,1,1.629-.2q3.422,0,3.422,3.414Zm-2.32-3.25v-.539l-1.453.188q-1.2.156-1.2,1.086a.9.9,0,0,0,.293.691,1.126,1.126,0,0,0,.793.27,1.462,1.462,0,0,0,1.133-.48A1.735,1.735,0,0,0,70.992,85.75Zm53.875-8.2V89h-2.461V80.328a2.947,2.947,0,0,1-.48.34,4.96,4.96,0,0,1-.59.289,5.267,5.267,0,0,1-.648.219,4.736,4.736,0,0,1-.664.129V79.227a10.435,10.435,0,0,0,3.352-1.68Zm3.813,11.164V86.6a4.605,4.605,0,0,0,2.445.7,2.3,2.3,0,0,0,1.527-.465,1.565,1.565,0,0,0,.551-1.262q0-1.664-2.352-1.664a17.414,17.414,0,0,0-2,.133l.422-6.25h5.93v2.016h-4.047L131,82.055q.6-.047,1.039-.047a3.821,3.821,0,0,1,2.7.906,3.165,3.165,0,0,1,.977,2.438,3.6,3.6,0,0,1-1.164,2.77A4.473,4.473,0,0,1,131.4,89.2,6.754,6.754,0,0,1,128.68,88.711Zm31.078-.078V86.484a4.336,4.336,0,0,0,2.625.82,2.363,2.363,0,0,0,1.473-.406,1.349,1.349,0,0,0,.527-1.133,1.288,1.288,0,0,0-.652-1.156,3.38,3.38,0,0,0-1.793-.406H160.9V82.313h.961q2.187,0,2.188-1.453,0-1.367-1.68-1.367a3.829,3.829,0,0,0-2.187.727V78.2a6.041,6.041,0,0,1,2.75-.594,4.15,4.15,0,0,1,2.676.773,2.461,2.461,0,0,1,.957,2.008,2.611,2.611,0,0,1-2.227,2.75v.039a3.027,3.027,0,0,1,1.875.863A2.434,2.434,0,0,1,166.9,85.8a3.006,3.006,0,0,1-1.148,2.484,4.965,4.965,0,0,1-3.172.914A6.13,6.13,0,0,1,159.758,88.633Zm12.828.563q-4,0-4-5.617a7.643,7.643,0,0,1,1.082-4.441,3.605,3.605,0,0,1,3.137-1.527q3.906,0,3.906,5.711a7.526,7.526,0,0,1-1.066,4.359A3.513,3.513,0,0,1,172.586,89.2Zm.109-9.7q-1.6,0-1.6,4.023,0,3.789,1.57,3.789,1.531,0,1.531-3.906T172.7,79.492Zm12.328,3.984a2.553,2.553,0,0,1-1.926-.758,2.814,2.814,0,0,1-.73-2.039,3.094,3.094,0,0,1,.777-2.219,2.723,2.723,0,0,1,2.074-.82,2.538,2.538,0,0,1,1.941.742,2.924,2.924,0,0,1,.7,2.086,3.053,3.053,0,0,1-.773,2.2A2.714,2.714,0,0,1,185.023,83.477Zm.148-4.461q-1.141,0-1.141,1.586,0,1.5,1.086,1.5,1.109,0,1.109-1.562Q186.227,79.016,185.172,79.016ZM193.2,77.8l-7.3,11.2H184l7.281-11.2ZM192,89.156a2.553,2.553,0,0,1-1.926-.758,2.814,2.814,0,0,1-.73-2.039,3.094,3.094,0,0,1,.777-2.219,2.723,2.723,0,0,1,2.074-.82,2.55,2.55,0,0,1,1.945.734,2.9,2.9,0,0,1,.7,2.078,3.081,3.081,0,0,1-.773,2.2A2.7,2.7,0,0,1,192,89.156Zm.125-4.461q-1.133,0-1.133,1.586,0,1.5,1.1,1.5t1.109-1.562a1.853,1.853,0,0,0-.3-1.125A.929.929,0,0,0,192.125,84.7Z" transform="translate(1230.333 10854.064)" fill="#12263f"/>
        <line id="Línea_1211" data-name="Línea 1211" y2="13" transform="translate(1377.53 10859.564)" fill="none" stroke="#707070" stroke-width="1"/>
        <line id="Línea_1212" data-name="Línea 1212" y2="13" transform="translate(1377.53 10880.564)" fill="none" stroke="#707070" stroke-width="1"/>
        <line id="Línea_1213" data-name="Línea 1213" y2="13" transform="translate(1377.53 10904.564)" fill="none" stroke="#707070" stroke-width="1"/>
        <line id="Línea_1214" data-name="Línea 1214" y2="13" transform="translate(1377.53 10928.564)" fill="none" stroke="#707070" stroke-width="1"/>
        <rect id="Rectángulo_53321" data-name="Rectángulo 53321" width="12" height="13" transform="translate(1215.333 10857.064)" fill="#ced371"/>
        <rect id="Rectángulo_53322" data-name="Rectángulo 53322" width="12" height="13" transform="translate(1215.333 10881.064)" fill="#a3314f"/>
        <rect id="Rectángulo_53323" data-name="Rectángulo 53323" width="12" height="13" transform="translate(1215.333 10905.064)" fill="#e2e2e2"/>
        <rect id="Rectángulo_53324" data-name="Rectángulo 53324" width="12" height="13" transform="translate(1215.333 10929.064)" fill="#ffb500"/>
      </g>
    </g>
  </g>
</svg>
