<svg id="Grupo_238302" data-name="Grupo 238302" xmlns="http://www.w3.org/2000/svg" xmlns:xlink="http://www.w3.org/1999/xlink" width="102" height="102" viewBox="0 0 102 102">
  <defs>
    <clipPath id="clip-path">
      <rect id="Rectángulo_295103" data-name="Rectángulo 295103" width="102" height="102" fill="none"/>
    </clipPath>
  </defs>
  <g id="Grupo_238301" data-name="Grupo 238301" clip-path="url(#clip-path)">
    <path id="Trazado_267673" data-name="Trazado 267673" d="M83.454,59.713c-3.757,0-7.351-.011-10.945.007-1.137.005-1.718.634-1.723,1.822-.012,2.837,0,5.675,0,8.512,0,3.649-1.83,5.495-5.447,5.5-6.234,0-12.469-.057-18.7.023a12.072,12.072,0,0,1-9.1-3.377c0,1.749.014,3.307,0,4.865a4.73,4.73,0,0,1-3.848,4.726,6.88,6.88,0,0,1-1.377.094q-10.439.008-20.879,0c-.3,0-.6-.017-.89.011a1.574,1.574,0,0,0-.043,3.142,8.061,8.061,0,0,0,.89.013c9.137,0,18.273.019,27.41-.016a5.261,5.261,0,0,1,4.38,1.851,3.792,3.792,0,0,0,3.285,1.36c9.3-.054,18.6-.028,27.9-.028H75.5V85.566l2.1-.819-.857-1.906,6.079-6.1,1.9.865.794-2.03H94.05l.781,2.035,1.841-.827,6.117,6.109-.815,1.855,2.03.779v8.544l-2.035.777.848,1.891-6.085,6.094-1.9-.851-.78,2.032H85.515L84.733,102l-1.813.815-6.137-6.129.811-1.839-2.055-.776V91.385H74.445c-9.532,0-19.065-.02-28.6.018a5.38,5.38,0,0,1-4.473-1.873,3.717,3.717,0,0,0-3.194-1.34c-9.137.053-18.273.037-27.41.022a4.749,4.749,0,1,1,0-9.494q10.588-.013,21.176,0c2.022,0,2.422-.4,2.423-2.423,0-1.281,0-2.562,0-3.989-.26.192-.434.3-.587.435a10.984,10.984,0,0,1-12.52,1.509A11.117,11.117,0,0,1,15.45,63.121a1.162,1.162,0,0,0-.392-.858,11.017,11.017,0,0,1-4.129-11.516,1.241,1.241,0,0,0-.412-1.008c-6.238-4.731-6.219-13.332.042-18.109a1.147,1.147,0,0,0,.372-.934,11.021,11.021,0,0,1,4.1-11.526,1.172,1.172,0,0,0,.41-.85A11.1,11.1,0,0,1,22.5,6.623a10.954,10.954,0,0,1,13.1,4.089c.093.129.2.249.352.443.219-.288.411-.537.6-.789a11.083,11.083,0,0,1,19.915,7.879,1.145,1.145,0,0,0,.345.875,11.019,11.019,0,0,1,4.15,11.6,1.156,1.156,0,0,0,.39.932,11.38,11.38,0,0,1,4.577,7.477c.366,0,.754,0,1.141,0,1.624,0,2.133-.505,2.135-2.115,0-2.342,0-4.685,0-7.027a4.773,4.773,0,0,1,5.135-5.11c.36,0,.719,0,1.158,0V15.408h6.336V12.237h6.337V9.066H94.5V5.921h9.477V28.04H74.627c-1.811,0-2.26.455-2.261,2.284,0,2.276,0,4.553,0,6.829a4.778,4.778,0,0,1-5.11,5.138c-.425,0-.85,0-1.316,0a11.361,11.361,0,0,1-4.766,7.6.986.986,0,0,0-.212.832,10.983,10.983,0,0,1-4.1,11.52c-.2.165-.467.463-.44.664a11.236,11.236,0,0,1-3.138,9.42c.341.023.584.053.828.054q5.739,0,11.478,0c1.483,0,2.02-.542,2.023-2.028.005-2.837,0-5.675,0-8.512,0-3.368,1.908-5.291,5.247-5.295q3.414,0,6.828,0h1.149a14.683,14.683,0,0,1-4.791-7.3,14.233,14.233,0,1,1,27.8-5.82,13.75,13.75,0,0,1-5.987,13.732,3.787,3.787,0,0,0-1.767,3.4,17.321,17.321,0,0,1-.189,3.738,6.241,6.241,0,0,1-6.709,4.9,6.364,6.364,0,0,1-5.738-6.043c-.037-1.112-.006-2.226-.006-3.438M18.589,64.088c-.016.228-.048.454-.044.679a7.908,7.908,0,0,0,15.81-.266q.04-23.8-.011-47.6A7.431,7.431,0,0,0,29.71,9.777a7.41,7.41,0,0,0-8.4,1.2,7.571,7.571,0,0,0-2.468,8.132c.112.436.222.873.325,1.28-4.255,2.533-5.9,5.294-5.3,8.789a8.012,8.012,0,0,0,2.221,4.43,8.158,8.158,0,0,0,5.559,2.382v3.144a11.268,11.268,0,0,1-9.15-4.874,7.78,7.78,0,0,0-3.062,8.918,7.922,7.922,0,0,0,7.976,5.431,7.689,7.689,0,0,0,4.678-1.893A8.1,8.1,0,0,0,24.9,40.766H28A11.106,11.106,0,0,1,14.11,51.456c-1.522,4.634,1.934,9.193,7.52,9.9v3.181l-3.041-.445m28.4-23.446H43.892A11.137,11.137,0,0,1,57.8,29.947c1.44-4.71-1.867-9.061-7.559-9.9V16.894c1.053.143,2.046.278,3.038.411.5-4.041-3.1-8.059-7.391-8.257a7.9,7.9,0,0,0-8.347,7.885c-.035,6.763-.01,13.526-.009,20.289,0,9.138-.034,18.276.019,27.414a7.9,7.9,0,1,0,15.642-1.673c-.131-.666-.308-1.323-.456-1.955,4.115-2.359,5.829-5.154,5.323-8.6A8.04,8.04,0,0,0,56,48.007a8.194,8.194,0,0,0-5.739-2.586V42.278a11.251,11.251,0,0,1,9.117,4.858c2.766-1.549,4.145-5.415,3.128-8.73a7.914,7.914,0,0,0-8.34-5.583,8.01,8.01,0,0,0-7.181,7.818M92.952,59.685a7.09,7.09,0,0,1,3.285-5.273A10.538,10.538,0,0,0,100.691,43.7,11,11,0,0,0,90.9,34.417a11.2,11.2,0,0,0-11.386,6.847,10.9,10.9,0,0,0,3.526,12.931c1.932,1.421,3.383,3,3.559,5.477h1.488c.055-.066.094-.091.094-.117.008-2.869-.011-5.739.034-8.607a1.355,1.355,0,0,0-.809-1.44,4.63,4.63,0,0,1-1.873-6.155,4.742,4.742,0,0,1,8.783,3.489,4.89,4.89,0,0,1-2.9,3.082v9.763ZM83.41,99.066c.44-.193.887-.39,1.335-.585.811-.352,2.2.064,2.374.9.3,1.455,1.178,1.669,2.406,1.516a5,5,0,0,1,1.283,0c.779.107,1.155-.163,1.4-.95a1.961,1.961,0,0,1,3.03-1.284c.317.148.645.271.994.417.825-.84,1.61-1.638,2.394-2.438.137-.14.27-.285.431-.456-.2-.454-.4-.9-.6-1.348-.35-.807.067-2.2.9-2.369,1.533-.314,1.647-1.283,1.511-2.513a4.757,4.757,0,0,1,0-1.185c.112-.78-.163-1.158-.951-1.395-1.522-.457-1.945-1.58-1.276-3.029.146-.317.265-.648.37-.905l-2.865-2.909c-.442.2-.887.4-1.336.589-.8.345-2.208-.083-2.375-.9-.3-1.456-1.177-1.669-2.405-1.516a4.983,4.983,0,0,1-1.283,0c-.779-.107-1.155.163-1.395.951-.463,1.524-1.582,1.944-3.029,1.278-.318-.146-.648-.264-1-.407-.844.858-1.652,1.68-2.46,2.5-.115.117-.223.24-.36.388.2.452.4.9.594,1.345.349.8-.07,2.2-.9,2.371-1.523.317-1.654,1.277-1.512,2.51a4.638,4.638,0,0,1,0,1.185c-.114.782.17,1.15.951,1.393,1.531.476,1.944,1.579,1.277,3.029-.146.317-.264.647-.375.922l2.87,2.893M100.806,9.1h-3.05V24.841h3.05Zm-6.313,3.182H91.437V24.794h3.056ZM88.16,15.422H85.079v9.4H88.16ZM78.725,24.81h3.08V18.6h-3.08ZM92.89,62.942H86.64a3.166,3.166,0,0,0,3.225,3.1,3.1,3.1,0,0,0,3.025-3.1M88.2,45.462a1.581,1.581,0,1,0,1.552-1.585A1.594,1.594,0,0,0,88.2,45.462" transform="translate(-4.087 -4.286)" fill="#020202"/>
    <path id="Trazado_267674" data-name="Trazado 267674" d="M27.5,72.788l3.041.445V70.053c-5.586-.7-9.042-5.262-7.52-9.9A11.105,11.105,0,0,0,36.911,49.467h-3.1A8.1,8.1,0,0,1,31,55.415a7.689,7.689,0,0,1-4.678,1.893,7.922,7.922,0,0,1-7.976-5.43,7.78,7.78,0,0,1,3.062-8.918,11.267,11.267,0,0,0,9.15,4.874V44.689A8.157,8.157,0,0,1,25,42.307a8.012,8.012,0,0,1-2.221-4.43c-.592-3.495,1.049-6.256,5.3-8.789-.1-.408-.213-.844-.325-1.28a7.571,7.571,0,0,1,2.468-8.132,7.409,7.409,0,0,1,8.4-1.2A7.431,7.431,0,0,1,43.26,25.6q.071,23.8.011,47.6a7.908,7.908,0,0,1-15.81.266c0-.225.028-.451.044-.679m7.907,5.1A4.643,4.643,0,0,0,40.064,73.2H37.327l-1.916,1.913Zm-.426-55.357H32.255c-.183,2.649,2.615,5,4.671,4.589V24.462l-1.94-1.935M25.919,36.7h2.732l1.918-1.912V32.019a4.633,4.633,0,0,0-4.65,4.681m6.318,4.834A4.634,4.634,0,0,0,36.907,46.2V43.45l-1.914-1.915Zm-.007,22.172a4.639,4.639,0,0,0,4.678,4.656V65.624L35,63.707Z" transform="translate(-13.003 -12.986)" fill="#a3314f"/>
    <path id="Trazado_267675" data-name="Trazado 267675" d="M135.365,49.492a8.01,8.01,0,0,1,7.18-7.818,7.914,7.914,0,0,1,8.34,5.583c1.017,3.315-.361,7.181-3.128,8.73a11.25,11.25,0,0,0-9.116-4.858v3.142a8.192,8.192,0,0,1,5.739,2.586,8.04,8.04,0,0,1,2.062,4.4c.506,3.443-1.208,6.239-5.323,8.6.149.631.326,1.288.457,1.954a7.9,7.9,0,1,1-15.642,1.673c-.053-9.138-.018-18.276-.019-27.414,0-6.763-.025-13.526.01-20.289a7.9,7.9,0,0,1,8.347-7.884c4.291.2,7.887,4.215,7.392,8.257l-3.038-.412V28.9c5.691.842,9,5.192,7.559,9.9a11.137,11.137,0,0,0-13.91,10.694Zm-1.177-17.407h2.781a4.614,4.614,0,0,0-4.686-4.631v2.711l1.9,1.92m-5.081,4.4,1.926,1.954h2.726c.28-2.063-1.98-4.923-4.652-4.608Zm9.513,23.781,1.912,1.918H143.3a4.635,4.635,0,0,0-4.68-4.653Zm-7.92,1.573,1.9,1.92h2.782a4.613,4.613,0,0,0-4.686-4.63Zm-3.178,9.927c0,2.974,2.824,4.958,4.7,4.614V73.713l-1.933-1.949Z" transform="translate(-92.468 -13.137)" fill="#a3314f"/>
    <path id="Trazado_267676" data-name="Trazado 267676" d="M296.177,139.157H294.64v-9.763a4.889,4.889,0,0,0,2.9-3.081,4.742,4.742,0,0,0-8.783-3.489,4.63,4.63,0,0,0,1.873,6.155,1.355,1.355,0,0,1,.809,1.441c-.044,2.868-.026,5.738-.034,8.607,0,.025-.04.051-.094.117h-1.488c-.177-2.476-1.628-4.055-3.56-5.476a10.9,10.9,0,0,1-3.526-12.931,11.2,11.2,0,0,1,11.386-6.847,11,11,0,0,1,9.793,9.282,10.539,10.539,0,0,1-4.454,10.713,7.09,7.09,0,0,0-3.286,5.274" transform="translate(-207.312 -83.758)" fill="#ffb500"/>
    <path id="Trazado_267677" data-name="Trazado 267677" d="M286.544,302.2l-2.87-2.893c.111-.274.229-.6.375-.922.667-1.45.254-2.553-1.277-3.029-.781-.243-1.065-.611-.951-1.393a4.636,4.636,0,0,0,0-1.185c-.142-1.234-.011-2.194,1.512-2.51.833-.173,1.252-1.567.9-2.371-.194-.448-.394-.893-.594-1.345.137-.148.245-.271.36-.388.807-.823,1.616-1.645,2.46-2.5.352.142.682.26,1,.407,1.447.666,2.565.246,3.029-1.278.239-.788.616-1.058,1.395-.951a4.988,4.988,0,0,0,1.283,0c1.228-.153,2.109.06,2.405,1.516.166.819,1.577,1.246,2.375.9.448-.194.894-.394,1.336-.589l2.865,2.909c-.1.258-.223.588-.37.905-.669,1.45-.246,2.573,1.276,3.029.788.236,1.062.615.951,1.395a4.762,4.762,0,0,0,0,1.185c.136,1.229.022,2.2-1.511,2.513-.837.171-1.254,1.562-.9,2.369.194.448.395.893.6,1.348-.161.17-.294.316-.431.456-.784.8-1.569,1.6-2.394,2.438-.349-.145-.677-.269-.994-.417a1.961,1.961,0,0,0-3.03,1.284c-.24.788-.616,1.058-1.4.951a4.983,4.983,0,0,0-1.283,0c-1.228.153-2.107-.06-2.406-1.516-.171-.834-1.562-1.251-2.373-.9-.448.195-.895.392-1.335.585m14.284-9.233a7.914,7.914,0,1,0-7.972,7.884,7.933,7.933,0,0,0,7.972-7.884" transform="translate(-207.221 -207.42)" fill="#e2e2e2"/>
    <path id="Trazado_267691" data-name="Trazado 267691" d="M0,0H3.05V15.742H0Z" transform="translate(93.668 4.813)" fill="#e77a97"/>
    <rect id="Rectángulo_295100" data-name="Rectángulo 295100" width="3.056" height="12.514" transform="translate(87.35 7.995)" fill="#e77a97"/>
    <rect id="Rectángulo_295101" data-name="Rectángulo 295101" width="3.081" height="9.399" transform="translate(80.991 11.136)" fill="#e77a97"/>
    <rect id="Rectángulo_295102" data-name="Rectángulo 295102" width="3.08" height="6.21" transform="translate(74.638 14.314)" fill="#e77a97"/>
    <path id="Trazado_267678" data-name="Trazado 267678" d="M318.329,222.2a3.1,3.1,0,0,1-3.025,3.1,3.166,3.166,0,0,1-3.225-3.1Z" transform="translate(-229.527 -163.548)" fill="#c7ccd4"/>
    <path id="Trazado_267679" data-name="Trazado 267679" d="M317.995,151.525a1.581,1.581,0,1,1,1.559,1.578,1.592,1.592,0,0,1-1.559-1.578" transform="translate(-233.882 -110.348)" fill="#efcc6a"/>
    <path id="Trazado_267680" data-name="Trazado 267680" d="M84.1,232.8v-2.768l1.916-1.913h2.737A4.643,4.643,0,0,1,84.1,232.8" transform="translate(-61.696 -167.905)" fill="#030202"/>
    <path id="Trazado_267681" data-name="Trazado 267681" d="M74.848,36.033l1.94,1.935v2.655c-2.055.411-4.853-1.94-4.671-4.59Z" transform="translate(-52.865 -26.492)" fill="#030202"/>
    <path id="Trazado_267682" data-name="Trazado 267682" d="M48.125,76.692a4.633,4.633,0,0,1,4.65-4.681V74.78l-1.918,1.912Z" transform="translate(-35.209 -52.979)" fill="#030202"/>
    <path id="Trazado_267683" data-name="Trazado 267683" d="M72.076,108.08h2.755L76.745,110v2.75a4.634,4.634,0,0,1-4.669-4.665" transform="translate(-52.841 -79.532)" fill="#030202"/>
    <path id="Trazado_267684" data-name="Trazado 267684" d="M72.049,192.124h2.765l1.913,1.917v2.739a4.639,4.639,0,0,1-4.678-4.656" transform="translate(-52.821 -141.404)" fill="#030202"/>
    <path id="Trazado_267685" data-name="Trazado 267685" d="M151.99,58.767l-1.9-1.92V54.136a4.614,4.614,0,0,1,4.686,4.631Z" transform="translate(-110.27 -39.818)" fill="#030202"/>
    <path id="Trazado_267686" data-name="Trazado 267686" d="M138.045,80.893V78.239c2.671-.315,4.932,2.545,4.652,4.608h-2.726l-1.926-1.954" transform="translate(-101.406 -57.546)" fill="#030202"/>
    <path id="Trazado_267687" data-name="Trazado 267687" d="M174.1,170.875V168.14a4.634,4.634,0,0,1,4.68,4.653h-2.768l-1.912-1.918" transform="translate(-127.952 -123.747)" fill="#030202"/>
    <path id="Trazado_267688" data-name="Trazado 267688" d="M144.084,176.9v-2.71a4.613,4.613,0,0,1,4.686,4.63h-2.782l-1.9-1.92" transform="translate(-105.852 -128.201)" fill="#030202"/>
    <path id="Trazado_267689" data-name="Trazado 267689" d="M132.039,222.1H134.8l1.933,1.949v2.666c-1.872.344-4.7-1.641-4.7-4.614" transform="translate(-96.985 -163.47)" fill="#030202"/>
    <path id="Trazado_267690" data-name="Trazado 267690" d="M309.815,301.956a7.914,7.914,0,1,1-7.905-7.948,7.941,7.941,0,0,1,7.905,7.948m-3.167-.06a4.747,4.747,0,1,0-4.77,4.775,4.765,4.765,0,0,0,4.77-4.775" transform="translate(-216.208 -216.409)" fill="#040403"/>
  </g>
</svg>
