<svg id="Grupo_238304" data-name="Grupo 238304" xmlns="http://www.w3.org/2000/svg" width="102.226" height="102.227" viewBox="0 0 102.226 102.227">
  <g id="Grupo_238305" data-name="Grupo 238305">
    <path id="Trazado_267692" data-name="Trazado 267692" d="M0,51.512v-1c1.274-1.344,2.578-2.661,3.8-4.047a3.131,3.131,0,0,0,.746-1.54A46.7,46.7,0,0,1,19.059,16.776c.843-.8,1.345-.814,2.366-.119.593,1.11.521,1.5-.525,2.5A43.752,43.752,0,0,0,8.909,38.8c-.253.863-.444,1.745-.664,2.618a25.762,25.762,0,0,0,2.931-2.58c1.247-1.249,1.964-1.22,3.08.162.906,1.123,1.818,2.241,2.824,3.482a38.691,38.691,0,0,1,4.108-9.879l.172-.265h0l.24-.38-.012.016.486-.681.04-.066c.2-.262.4-.522.6-.786C29.767,21.149,39.11,16.3,50.782,15.97c1.34-.037,1.855.5,1.894,1.85.009.3.035.608.063,1.076l5.2-4.3,2.579-2L52.763,5.134c-.3,1.657-.644,1.964-2.217,1.988A43.258,43.258,0,0,0,26.171,14.9a1.794,1.794,0,0,1-2.362.03c-.557-1.222-.441-1.757.584-2.465A46,46,0,0,1,44.576,4.575c1.667-.227,3.347-.352,5.1-.532,0-.683.047-1.345-.011-2A1.9,1.9,0,0,1,50.714,0h1c.961.909,1.975,1.769,2.869,2.738A6.122,6.122,0,0,0,58.406,4.7a45.882,45.882,0,0,1,27.24,14.5A45.983,45.983,0,0,1,97.865,45.988c.134,1.211.218,2.428.324,3.631,1.414.257,2.96-.458,4.037.895v1.2c-1.276,1.343-2.569,2.669-3.814,4.04a2.371,2.371,0,0,0-.583,1.19A47.061,47.061,0,0,1,83.685,85.049c-.988.963-1.463.995-2.6.213a1.748,1.748,0,0,1,.45-2.318c.252-.215.48-.458.713-.694A41.023,41.023,0,0,0,90.3,71.1l.367-.767.221-.439a36.888,36.888,0,0,0,3.229-9.371C93,61.557,91.976,62.48,90.99,63.446c-1.172,1.148-1.928,1.131-2.956-.136-.891-1.1-1.78-2.2-2.782-3.441-.17.553-.286.922-.4,1.292C80.516,75.692,67,86.067,52.164,86.254c-2.313.029-2.523-.174-2.63-2.522,0-.077-.069-.152-.139-.3l-7.688,6.218,3.212,2.989,4.43,4.7c.479-1.985.77-2.224,2.491-2.25a43.173,43.173,0,0,0,24.552-7.939,1.871,1.871,0,0,1,2.451-.066c.5,1.23.405,1.736-.547,2.408a46,46,0,0,1-20.461,8.142c-1.729.241-3.475.363-5.286.547,0,.68-.048,1.343.011,2a1.919,1.919,0,0,1-1.049,2.045h-1c-1.273-1.209-2.572-2.391-3.807-3.638a3.067,3.067,0,0,0-1.9-.924,44.123,44.123,0,0,1-18.147-6.448C14.131,83.3,6.73,72,4.579,57.309c-.229-1.563-.33-3.146-.494-4.76-.711,0-1.377-.048-2.034.011A1.907,1.907,0,0,1,0,51.512M81.071,32.54l.17.266c.2.38.4.763.6,1.139a34.8,34.8,0,0,1,4.446,16.562c.022,1.7-.4,2.145-2.068,2.171-.24,0-.479.039-.85.071L89.638,60.5l7.414-7.7c-1.661-.443-1.78-.637-1.895-2.344a54.281,54.281,0,0,0-.515-5.853C91.534,27.13,81.569,15.385,64.906,9.318c-1.449-.528-2.973-.849-4.251-1.207.923,1.029,1.891,2.155,2.909,3.234.978,1.036.956,1.84-.151,2.76-.509.424-1.013.853-1.519,1.28l-2.106,1.636a35.755,35.755,0,0,1,13.768,6.987,39.78,39.78,0,0,1,6.9,7.555l-.007-.011.175.251-.022-.021.249.384-.009-.014.23.383ZM12.137,71.325l-.009-.007a7.562,7.562,0,0,0,.314.726A43.762,43.762,0,0,0,37.748,93.025c1.29.426,2.618.734,3.929,1.1l.12-.254-3.245-3.04c-.9-1.2-.824-1.825.336-2.769.335-.273.673-.542,1.009-.814L42.414,85.2c-.47-.15-.717-.233-.968-.307A35.209,35.209,0,0,1,16,51.681c-.038-1.622.437-2.1,2.024-2.133.238,0,.475-.045.828-.08l-6.264-7.745L5.178,49.415c1.738.417,1.95.711,2,2.441.038,1.262.085,2.527.215,3.781A41.263,41.263,0,0,0,11.508,70.1l.629,1.224m6.826-18.777c.213,1.608.356,3.122.619,4.615,2.2,12.511,12.748,23.191,25.137,25.443a1.916,1.916,0,0,0,1.323-.362c1.331-.993,2.607-2.06,3.893-3.114a1.537,1.537,0,0,1,2.62,1.225c-.026.95-.006,1.9-.006,3.109a71.559,71.559,0,0,0,7.283-1.433c12.181-3.714,19.718-11.873,22.794-24.2a1.79,1.79,0,0,0-.441-1.8c-1.076-1.221-2.057-2.525-3.09-3.784-.444-.541-.674-1.181-.225-1.723a2.467,2.467,0,0,1,1.437-.809,21.991,21.991,0,0,1,2.91-.036,6.876,6.876,0,0,0-.01-1.247,55.139,55.139,0,0,0-1.572-7.379C77.623,29.538,69.544,22.458,57.714,19.612a1.65,1.65,0,0,0-1.632.381c-1.173,1.029-2.428,1.966-3.63,2.965a1.59,1.59,0,0,1-2.785-1.371c.03-.851.007-1.7.007-2.656-1.223.149-2.311.261-3.393.415a32.136,32.136,0,0,0-26.638,25.43,1.765,1.765,0,0,0,.319,1.238c1.017,1.355,2.157,2.62,3.14,4a2.3,2.3,0,0,1,.277,1.626c-.137.68-.757.936-1.471.917-.925-.025-1.852-.006-2.943-.006M8.294,41.515l-.085.145.159.082.075-.165-.149-.063" fill="#030403"/>
    <path id="Trazado_267698" data-name="Trazado 267698" d="M229.081,37.742c.506-.427,1.01-.856,1.519-1.28,1.106-.921,1.128-1.724.151-2.76-1.018-1.079-1.987-2.2-2.909-3.234,1.278.358,2.8.679,4.251,1.207,16.663,6.067,26.629,17.812,29.736,35.293a54.273,54.273,0,0,1,.515,5.853c.115,1.707.233,1.9,1.895,2.344l-7.414,7.7-6.267-7.754c.371-.032.61-.067.851-.071,1.672-.026,2.09-.468,2.068-2.171A34.806,34.806,0,0,0,249.03,56.3c-.207-.376-.4-.759-.6-1.139l-.17-.266,0,0-.23-.383.009.014-.25-.384.022.021-.175-.251.007.01a6.364,6.364,0,0,0-.5-1.375,37.179,37.179,0,0,0-6.321-7.616,35.38,35.38,0,0,0-10.992-6.651,3.542,3.542,0,0,1-.742-.536" transform="translate(-167.187 -22.357)" fill="#fdc94a"/>
    <path id="Trazado_267699" data-name="Trazado 267699" d="M25.779,185.105a41.26,41.26,0,0,1-4.113-14.463c-.13-1.254-.177-2.52-.215-3.781-.052-1.731-.265-2.024-2-2.441l7.408-7.691,6.264,7.745c-.354.035-.591.076-.828.08-1.587.031-2.062.512-2.024,2.133A35.21,35.21,0,0,0,55.717,199.9c.25.074.5.158.967.307l-2.517,2.041c-.336.272-.674.541-1.009.814-1.161.944-1.236,1.565-.336,2.769a2.721,2.721,0,0,1-.894.056c-.73-.207-1.436-.495-2.153-.749a42.335,42.335,0,0,1-15.294-9.413,98.5,98.5,0,0,1-6.471-7.515q-.8-.945-1.611-1.889l.009.007-.629-1.224" transform="translate(-14.271 -115.005)" fill="#e2e2e2"/>
    <path id="Trazado_267700" data-name="Trazado 267700" d="M44.149,30.808l2.384-1.728a1.794,1.794,0,0,0,2.362-.03A43.259,43.259,0,0,1,73.27,21.273c1.573-.024,1.914-.33,2.217-1.988l7.753,7.463-2.579,2a34.127,34.127,0,0,0-13.114-.035A33.256,33.256,0,0,0,45.661,43.464a11.128,11.128,0,0,0-.823,1.917l-.04.066-.486.681.012-.016-.24.38h0l-.172.265A38.708,38.708,0,0,0,39.8,56.636c-1.006-1.24-1.918-2.359-2.824-3.481-1.116-1.382-1.833-1.411-3.08-.162a25.789,25.789,0,0,1-2.931,2.58c.22-.873.411-1.755.664-2.618A43.748,43.748,0,0,1,43.624,33.307c1.046-1,1.118-1.39.525-2.5" transform="translate(-22.725 -14.151)" fill="#fde079"/>
    <path id="Trazado_267701" data-name="Trazado 267701" d="M205.629,235.353l-.366.768a3.591,3.591,0,0,0-.667.626,46.662,46.662,0,0,1-8.742,10.145,43,43,0,0,1-12.108,7.526,41.814,41.814,0,0,1-15.409,3.429c-2.817.037-5.637-.116-8.455-.183l-3.212-2.989,7.688-6.218c.07.145.135.219.139.3.106,2.348.317,2.551,2.63,2.522,14.836-.187,28.351-10.562,32.691-25.093.11-.371.227-.74.4-1.292,1,1.24,1.891,2.341,2.782,3.44,1.028,1.267,1.784,1.284,2.956.137.986-.966,2.015-1.888,3.126-2.925a36.885,36.885,0,0,1-3.229,9.371l-.221.439" transform="translate(-114.962 -165.022)" fill="#b55a72"/>
    <path id="Trazado_267702" data-name="Trazado 267702" d="M168.734,288.618c2.818.067,5.638.22,8.455.183a41.813,41.813,0,0,0,15.409-3.429,43,43,0,0,0,12.108-7.527,46.658,46.658,0,0,0,8.742-10.145,3.6,3.6,0,0,1,.666-.626,41.033,41.033,0,0,1-8.057,11.15c-.233.236-.461.479-.713.694a1.747,1.747,0,0,0-.45,2.318l-2.237,1.827a1.871,1.871,0,0,0-2.451.067,43.171,43.171,0,0,1-24.552,7.939c-1.721.026-2.011.265-2.491,2.25l-4.43-4.7" transform="translate(-123.815 -195.975)" fill="#e77a97"/>
    <path id="Trazado_267703" data-name="Trazado 267703" d="M83.066,69.652a11.129,11.129,0,0,1,.823-1.917,33.256,33.256,0,0,1,21.888-14.754,34.127,34.127,0,0,1,13.114.035l-5.2,4.3c-.028-.468-.054-.772-.063-1.076-.039-1.348-.554-1.887-1.894-1.85-11.673.325-21.015,5.179-28.065,14.473-.2.263-.4.524-.6.786" transform="translate(-60.953 -38.423)" fill="#f4cb57"/>
    <path id="Trazado_267704" data-name="Trazado 267704" d="M45.557,267.894q.805.944,1.611,1.889a98.491,98.491,0,0,0,6.471,7.515,42.335,42.335,0,0,0,15.294,9.413c.716.254,1.423.542,2.153.749a2.722,2.722,0,0,0,.894-.056l3.246,3.04-.12.254c-1.311-.362-2.64-.67-3.929-1.1a43.764,43.764,0,0,1-25.305-20.982,7.565,7.565,0,0,1-.314-.727" transform="translate(-33.429 -196.577)" fill="#afafaf"/>
    <path id="Trazado_267705" data-name="Trazado 267705" d="M226.694,57.792a3.541,3.541,0,0,0,.742.536,35.38,35.38,0,0,1,10.992,6.651,37.179,37.179,0,0,1,6.321,7.616,6.362,6.362,0,0,1,.5,1.375,39.779,39.779,0,0,0-6.9-7.555,35.754,35.754,0,0,0-13.768-6.987l2.106-1.636" transform="translate(-164.8 -42.407)" fill="#ffb500"/>
    <path id="Trazado_267706" data-name="Trazado 267706" d="M43.23,263.324l.629,1.224-.629-1.224" transform="translate(-31.722 -193.224)" fill="#6ac0f9"/>
    <path id="Trazado_267707" data-name="Trazado 267707" d="M81.088,118.237l.486-.681-.486.681" transform="translate(-59.501 -86.261)" fill="#f4cb57"/>
    <path id="Trazado_267708" data-name="Trazado 267708" d="M302.756,119.389l.249.384-.249-.384" transform="translate(-222.158 -87.606)" fill="#f8a83d"/>
    <path id="Trazado_267709" data-name="Trazado 267709" d="M80.232,120.434l.24-.38-.24.38" transform="translate(-58.873 -88.094)" fill="#f4cb57"/>
    <path id="Trazado_267710" data-name="Trazado 267710" d="M303.66,120.78l.23.382-.23-.382" transform="translate(-222.822 -88.627)" fill="#f8a83d"/>
    <path id="Trazado_267711" data-name="Trazado 267711" d="M30.921,155.946l.149.063-.075.165-.159-.082.085-.145" transform="translate(-22.627 -114.431)" fill="#fde079"/>
    <path id="Trazado_267712" data-name="Trazado 267712" d="M340.577,262.981l.221-.439-.221.439" transform="translate(-249.911 -192.65)" fill="#80d060"/>
    <path id="Trazado_267713" data-name="Trazado 267713" d="M302.182,118.524l.175.251-.175-.251" transform="translate(-221.737 -86.971)" fill="#f8a83d"/>
    <path id="Trazado_267714" data-name="Trazado 267714" d="M79.585,121.751l.172-.265-.172.265" transform="translate(-58.398 -89.145)" fill="#f4cb57"/>
    <path id="Trazado_267715" data-name="Trazado 267715" d="M304.532,122.233l.17.266-.17-.266" transform="translate(-223.461 -89.693)" fill="#f8a83d"/>
    <path id="Trazado_267716" data-name="Trazado 267716" d="M136.126,142.54c-1.756.68-3.368,1.278-4.951,1.943a1.328,1.328,0,0,0-.652.8c-.2.769-.24,1.577-.416,2.353a2.681,2.681,0,0,1-2.617,2.18c-1,.038-2,.036-2.994.005a2.591,2.591,0,0,1-2.723-2.4c-.041-2.139-.908-3.322-3.031-3.643a3.086,3.086,0,0,1-1.442-.642c-1.042-.865-1.825-.51-2.737.255a5.081,5.081,0,0,1-2.243,1.174c-1.943.334-5.428-2.957-5.112-4.9a7.436,7.436,0,0,1,1.491-2.843,1.576,1.576,0,0,0,.157-2,21.372,21.372,0,0,1-1.468-3.578c-.181-.531-.333-.859-.965-.889a15.135,15.135,0,0,1-2.067-.318,2.792,2.792,0,0,1-2.4-2.757q-.046-1.446,0-2.894a2.587,2.587,0,0,1,2.4-2.713c2.125-.062,3.325-.913,3.64-3.043a3.161,3.161,0,0,1,.655-1.439,1.793,1.793,0,0,0-.269-2.733,5.533,5.533,0,0,1-.813-1.131,2.688,2.688,0,0,1,.294-3.322c.686-.767,1.421-1.5,2.18-2.192a2.754,2.754,0,0,1,3.569-.26c.8.527,1.544,1.481,2.369,1.547s1.707-.744,2.57-1.16a2.021,2.021,0,0,1,.651-.24c1.878-.173,2.383-1.345,2.518-3.052.156-1.968,1.225-2.795,3.172-2.809.865-.006,1.731-.022,2.595.014a2.69,2.69,0,0,1,2.622,2.177c.228.992.1,2.242.674,2.927.547.656,1.894.57,2.706,1.094,1.745,1.125,3.163,1.119,4.74-.389,1.131-1.081,2.606-.832,3.773.26.655.614,1.293,1.249,1.9,1.909a2.622,2.622,0,0,1,.247,3.7c-1.509,1.57-1.618,3.016-.4,4.743a3.956,3.956,0,0,1,.658,1.758c.115,1.009.7,1.221,1.564,1.361,3.7.6,4.013.991,3.994,4.783a6.907,6.907,0,0,1-.214,2.065,2.971,2.971,0,0,1-3.079,1.931,2.206,2.206,0,0,0-2.476,2.01,11.419,11.419,0,0,1-1.321,2.987A1,1,0,0,0,143,136.5a15.559,15.559,0,0,1,1.24,1.685,2.821,2.821,0,0,1-.264,3.58,29.287,29.287,0,0,1-2.116,2.117,2.787,2.787,0,0,1-3.58.23c-.771-.518-1.5-1.093-2.151-1.567M104.985,127.1c1.164.18,2.239.375,3.323.507a1.684,1.684,0,0,1,1.623,1.478,15.447,15.447,0,0,0,2.385,5.758,1.691,1.691,0,0,1-.077,2.2c-.684.887-1.333,1.8-1.891,2.562l1.645,1.986c.972-.716,1.868-1.35,2.733-2.022a1.693,1.693,0,0,1,2.193-.106,15.645,15.645,0,0,0,5.758,2.386,1.679,1.679,0,0,1,1.489,1.612c.131,1.111.347,2.212.523,3.3h2.546c.167-1.123.347-2.169.472-3.222a1.754,1.754,0,0,1,1.541-1.694,15.227,15.227,0,0,0,5.669-2.339,1.739,1.739,0,0,1,2.277.082c.878.693,1.8,1.33,2.674,1.969l1.785-1.823c-.674-.916-1.357-1.852-2.048-2.781a1.572,1.572,0,0,1-.1-1.945,16.99,16.99,0,0,0,2.507-6.031,1.587,1.587,0,0,1,1.512-1.345q1.333-.174,2.659-.4c.244-.042.662-.163.673-.28a7.878,7.878,0,0,0,0-2.166c-.036-.194-.72-.3-1.12-.385a16.8,16.8,0,0,0-2.065-.326c-1.031-.08-1.428-.69-1.756-1.6-.682-1.891-1.448-3.759-2.306-5.576a1.954,1.954,0,0,1,.087-2.295c.686-.885,1.335-1.8,1.949-2.629L139.9,110.1c-.917.672-1.817,1.291-2.67,1.969a1.971,1.971,0,0,1-2.372.1,56.5,56.5,0,0,0-5.578-2.3,1.993,1.993,0,0,1-1.581-1.786c-.117-1.05-.308-2.091-.474-3.184h-2.54c-.183,1.147-.393,2.256-.53,3.374a1.634,1.634,0,0,1-1.44,1.544,15.566,15.566,0,0,0-5.761,2.376,1.746,1.746,0,0,1-2.279-.12c-.859-.672-1.752-1.3-2.6-1.926l-1.868,1.745c.7.955,1.332,1.852,2.009,2.71a1.73,1.73,0,0,1,.068,2.279,15.167,15.167,0,0,0-2.346,5.667,1.694,1.694,0,0,1-1.594,1.51c-1.114.144-2.22.339-3.36.517Z" transform="translate(-74.795 -74.724)" fill="#040303"/>
    <path id="Trazado_267717" data-name="Trazado 267717" d="M113.406,135.55v-2.53c1.14-.178,2.246-.373,3.36-.517a1.693,1.693,0,0,0,1.594-1.51,15.171,15.171,0,0,1,2.346-5.667,1.73,1.73,0,0,0-.067-2.279c-.677-.858-1.3-1.755-2.009-2.71l1.868-1.745c.848.625,1.742,1.253,2.6,1.926a1.746,1.746,0,0,0,2.279.12,15.568,15.568,0,0,1,5.762-2.376,1.634,1.634,0,0,0,1.44-1.544c.137-1.118.346-2.227.53-3.374h2.54c.166,1.094.358,2.135.474,3.184a1.993,1.993,0,0,0,1.581,1.786,56.471,56.471,0,0,1,5.578,2.3,1.97,1.97,0,0,0,2.372-.1c.853-.678,1.753-1.3,2.67-1.969l1.74,1.869c-.614.831-1.263,1.744-1.949,2.629a1.953,1.953,0,0,0-.087,2.295c.859,1.817,1.624,3.685,2.306,5.576.329.911.726,1.521,1.756,1.6a16.8,16.8,0,0,1,2.065.326c.4.082,1.084.191,1.12.385a7.878,7.878,0,0,1,0,2.166c-.011.116-.429.238-.673.28q-1.325.23-2.659.4a1.588,1.588,0,0,0-1.512,1.345,16.99,16.99,0,0,1-2.507,6.031,1.572,1.572,0,0,0,.1,1.945c.691.929,1.374,1.865,2.048,2.781L148.29,150c-.873-.639-1.8-1.277-2.674-1.969a1.739,1.739,0,0,0-2.277-.082,15.224,15.224,0,0,1-5.669,2.339,1.754,1.754,0,0,0-1.541,1.694c-.126,1.053-.305,2.1-.473,3.222h-2.546c-.176-1.085-.393-2.185-.523-3.3a1.679,1.679,0,0,0-1.489-1.612,15.646,15.646,0,0,1-5.758-2.386,1.693,1.693,0,0,0-2.193.107c-.865.672-1.76,1.306-2.733,2.022l-1.645-1.986c.558-.759,1.206-1.675,1.891-2.562a1.691,1.691,0,0,0,.077-2.2,15.442,15.442,0,0,1-2.385-5.758,1.685,1.685,0,0,0-1.623-1.478c-1.084-.131-2.16-.326-3.323-.507m29.282,5.24a2.14,2.14,0,0,1,.166-.344,10.062,10.062,0,0,0,1.749-8.505,10.5,10.5,0,0,0-20.613,3.906c.167,1.143.216,2.445,1.547,3.039a6.194,6.194,0,0,0,.047.992,9.191,9.191,0,0,0,7.99,6.977,9.048,9.048,0,0,0,8.942-5.208,4.14,4.14,0,0,0,.171-.858" transform="translate(-83.216 -83.17)" fill="#ac556c"/>
    <path id="Trazado_267718" data-name="Trazado 267718" d="M154.4,167.59c-1.331-.594-1.381-1.9-1.547-3.039a10.5,10.5,0,0,1,20.613-3.906,10.062,10.062,0,0,1-1.75,8.5,2.187,2.187,0,0,0-.166.344c-.277.285-.553.572-.832.856a10.481,10.481,0,0,1-12.4,1.92c-1.234-.652-1.434-1.186-.941-2.5.782-.75,1.547-.561,2.445-.12a7.49,7.49,0,0,0,10.623-8.682,7.491,7.491,0,1,0-14.4,4.144c.277.964.3,1.756-.62,2.356l-1.024.128" transform="translate(-112.077 -111.874)" fill="#040203"/>
    <path id="Trazado_267719" data-name="Trazado 267719" d="M161.95,211.115c-.493,1.319-.292,1.852.941,2.5a10.481,10.481,0,0,0,12.4-1.92c.279-.284.555-.57.832-.855a4.141,4.141,0,0,1-.171.858,9.048,9.048,0,0,1-8.942,5.208,9.191,9.191,0,0,1-7.99-6.977,6.193,6.193,0,0,1-.047-.992l1.023-.127,1.95,2.3" transform="translate(-116.655 -153.224)" fill="#a3314f"/>
  </g>
</svg>
