<svg xmlns="http://www.w3.org/2000/svg" width="102.226" height="108.883" viewBox="0 0 102.226 108.883">
  <g id="Grupo_238299" data-name="Grupo 238299" transform="translate(0)">
    <g id="Grupo_238300" data-name="Grupo 238300">
      <path id="Trazado_267661" data-name="Trazado 267661" d="M71.183,361.969q-7.75-6.907-15.488-13.829c-.524-.472-.93-.27-1.421-.092q-12.794,4.653-25.59,9.3-5.875,2.134-11.752,4.263c-.192.07-.389.128-.661.216l-1.2-3.283c.059-.065.08-.11.106-.114,2.069-.305,2.4-1.573,2.335-3.485-.155-4.673-.053-9.355-.049-14.033,0-1.985.554-2.539,2.516-2.539q6.647,0,13.293,0c1.742,0,2.364.624,2.367,2.374.006,3.365,0,6.729,0,10.211l7.248-2.631c0-4.341,0-8.628,0-12.915,0-1.928.54-2.481,2.45-2.483q6.593-.008,13.187,0c1.935,0,2.487.545,2.488,2.443,0,3.934.015,7.868-.014,11.8a1.7,1.7,0,0,0,.653,1.442c2.161,1.874,4.286,3.788,6.557,5.806.027-.484.061-.813.061-1.143q.006-6.22,0-12.44c0-1.89.586-2.465,2.488-2.466q6.593,0,13.187,0c1.943,0,2.507.575,2.509,2.555,0,2.374,0,4.747,0,7.353l24.181-16.114-6.325-1.077.568-3.575c3.245.537,6.415,1.06,9.584,1.589a12.222,12.222,0,0,1,1.558.317,1.621,1.621,0,0,1,1.249,1.86c-.555,3.635-1.191,7.258-1.817,11l-3.566-.574,1.08-6.7c-.87.562-1.579,1.007-2.275,1.471q-18.906,12.6-37.806,25.206a1.119,1.119,0,0,0-.215.277ZM72,342.038V357.87c.439-.27.741-.444,1.03-.636,2.24-1.487,4.378-3.165,6.743-4.416,2.465-1.3,3.517-3,3.1-5.794a34.334,34.334,0,0,1-.044-4.986Zm-39.993.021H21.217v14.095c.447-.144.782-.24,1.109-.358,2.628-.95,5.262-1.885,7.88-2.864,2.233-.835,1.767-.249,1.795-2.548.033-2.755.008-5.51.008-8.324m25.329-5.384H46.548v10.244c.388-.109.727-.181,1.049-.3,2.093-.759,4.191-1.5,6.27-2.3,1.2-.459,2.355-.883,3.469.5Z" transform="translate(-15.067 -253.086)" fill="#030404"/>
      <rect id="Rectángulo_295091" data-name="Rectángulo 295091" width="3.616" height="16.282" transform="translate(89.507 92.601)" fill="#010101"/>
      <rect id="Rectángulo_295092" data-name="Rectángulo 295092" width="3.616" height="10.829" transform="translate(78.66 98.054)" fill="#010101"/>
      <rect id="Rectángulo_295093" data-name="Rectángulo 295093" width="3.616" height="9.04" transform="translate(38.675 99.842)" fill="#040404"/>
      <rect id="Rectángulo_295094" data-name="Rectángulo 295094" width="3.616" height="7.206" transform="translate(27.828 101.676)"/>
      <path id="Trazado_267662" data-name="Trazado 267662" d="M113.326,22.457q0,2.966,0,5.932a24.749,24.749,0,0,0-8.545-.36c-9.3,1.547-15.9,6.657-19.05,15.534s-1.376,17.118,5.081,24c6.095,6.5,13.765,8.565,22.477,6.85q.022,3,.043,6l-1.792.1v5.352c-2.706,0-5.289.019-7.871-.03-.254-.005-.629-.389-.729-.674-.646-1.833-1.172-3.709-1.868-5.521a3.016,3.016,0,0,0-1.307-1.527,44.477,44.477,0,0,0-4.992-2.068,2.738,2.738,0,0,0-1.806.1c-1.757.742-3.448,1.64-5.2,2.4a1.333,1.333,0,0,1-1.182-.13c-1.919-1.827-3.772-3.724-5.663-5.581a1.046,1.046,0,0,1-.133-1.414c.821-1.645,1.662-3.286,2.346-4.989a3.312,3.312,0,0,0,.062-2.1c-.506-1.54-1.233-3.007-1.823-4.521a2.525,2.525,0,0,0-1.705-1.6c-1.82-.577-3.619-1.217-5.445-1.772a.964.964,0,0,1-.79-1.127c.034-2.621.03-5.243,0-7.864a.9.9,0,0,1,.76-1.043c1.826-.555,3.619-1.216,5.44-1.787a2.52,2.52,0,0,0,1.725-1.573c.6-1.513,1.322-2.98,1.817-4.523a3.5,3.5,0,0,0-.078-2.2c-.678-1.7-1.525-3.344-2.339-4.992a.978.978,0,0,1,.144-1.317q2.791-2.756,5.541-5.555a1.1,1.1,0,0,1,1.5-.142c1.577.8,3.2,1.5,4.78,2.295a2.7,2.7,0,0,0,2.441.066c1.4-.6,2.8-1.192,4.216-1.737a2.78,2.78,0,0,0,1.788-1.929c.617-2.022,1.316-4.02,1.983-6.034H111.6v5.373l1.729.1" transform="translate(-60.137 -13.301)" fill="#a3314f"/>
      <path id="Trazado_267663" data-name="Trazado 267663" d="M101.044,9.971l-1.729-.1V4.5H90.868C90.2,6.512,89.5,8.51,88.885,10.532A2.78,2.78,0,0,1,87.1,12.462c-1.419.545-2.819,1.138-4.216,1.737a2.7,2.7,0,0,1-2.441-.066c-1.576-.8-3.2-1.5-4.78-2.295a1.1,1.1,0,0,0-1.5.142q-2.752,2.8-5.541,5.555a.978.978,0,0,0-.144,1.317c.815,1.648,1.662,3.287,2.339,4.992a3.5,3.5,0,0,1,.078,2.2c-.5,1.543-1.222,3.01-1.817,4.523a2.52,2.52,0,0,1-1.725,1.573c-1.821.57-3.614,1.232-5.44,1.787a.9.9,0,0,0-.76,1.043c.027,2.621.032,5.243,0,7.864a.964.964,0,0,0,.79,1.127c1.826.555,3.626,1.2,5.445,1.772a2.525,2.525,0,0,1,1.705,1.6c.59,1.515,1.316,2.981,1.823,4.521a3.312,3.312,0,0,1-.062,2.1c-.684,1.7-1.525,3.344-2.346,4.989a1.046,1.046,0,0,0,.133,1.414c1.891,1.857,3.743,3.754,5.663,5.581a1.333,1.333,0,0,0,1.182.13c1.749-.764,3.44-1.662,5.2-2.4a2.738,2.738,0,0,1,1.806-.1,44.476,44.476,0,0,1,4.992,2.068,3.016,3.016,0,0,1,1.307,1.527c.7,1.812,1.223,3.688,1.868,5.521.1.285.475.669.729.674,2.582.05,5.165.03,7.871.03V68.032l1.792-.1,1.85.089v3.965c0,.992.014,1.984,0,2.976a1.813,1.813,0,0,1-2.013,2.055c-3.721.022-7.441.008-11.162.009a1.871,1.871,0,0,1-1.948-1.462c-.647-2.016-1.3-4.032-2.033-6.018a2.7,2.7,0,0,0-1.032-1.162,4.836,4.836,0,0,0-5.834.086,31.255,31.255,0,0,1-3.233,1.579,2.006,2.006,0,0,1-2.278-.215,39.917,39.917,0,0,1-8.611-8.6,2.081,2.081,0,0,1-.212-2.37c.881-1.77,1.734-3.556,2.531-5.365a2.416,2.416,0,0,0,.058-1.364A4.877,4.877,0,0,0,62.756,48a29.014,29.014,0,0,1-3.828-1.231,1.827,1.827,0,0,1-1.4-1.888q0-5.952,0-11.9a1.894,1.894,0,0,1,1.5-1.931c1.982-.644,3.954-1.316,5.944-1.933a2.083,2.083,0,0,0,1.255-1.119,4.994,4.994,0,0,0-.109-5.765A32.381,32.381,0,0,1,64.537,19a2.059,2.059,0,0,1,.213-2.368,39.606,39.606,0,0,1,8.61-8.6,2.061,2.061,0,0,1,2.284-.208c1.783.855,3.557,1.733,5.369,2.523a2.658,2.658,0,0,0,1.47.051,4.741,4.741,0,0,0,4.04-4.2,37.537,37.537,0,0,1,1.226-3.83,1.96,1.96,0,0,1,2.1-1.553c3.65.016,7.3,0,10.949.01,1.213,0,2.039.607,2.065,1.672.061,2.435.019,4.872.019,7.364l-1.842.11" transform="translate(-47.855 -0.815)" fill="#030202"/>
      <path id="Trazado_267664" data-name="Trazado 267664" d="M149.809,111.061c-8.712,1.716-16.383-.35-22.478-6.85-6.457-6.886-8.232-15.123-5.081-24S132,66.221,141.3,64.674a24.75,24.75,0,0,1,8.545.36,23.977,23.977,0,0,1,9.817,5.043c6.853,6.1,9.689,13.74,7.814,22.726-1.917,9.189-7.7,15.125-16.649,17.961-.337.107-.678.2-1.017.3m-5.331-3.05a19.964,19.964,0,1,0-20-19.882,20.011,20.011,0,0,0,20,19.882" transform="translate(-96.658 -49.945)" fill="#040302"/>
      <path id="Trazado_267665" data-name="Trazado 267665" d="M312.121,44.784l2.426,2.385L307,54.711l-2.385-2.424,7.508-7.5" transform="translate(-238.649 -34.767)" fill="#0b0b0b"/>
      <path id="Trazado_267666" data-name="Trazado 267666" d="M304.566,249.78l2.316-2.419,7.539,7.528-2.367,2.4-7.488-7.507" transform="translate(-238.613 -191.193)" fill="#040404"/>
      <rect id="Rectángulo_295095" data-name="Rectángulo 295095" width="10.772" height="3.53" transform="translate(75.047 36.373)" fill="#040404"/>
      <rect id="Rectángulo_295096" data-name="Rectángulo 295096" width="3.546" height="3.496" transform="translate(91.403 0.068)" fill="#050505"/>
      <rect id="Rectángulo_295097" data-name="Rectángulo 295097" width="3.525" height="3.485" transform="translate(98.679 0.073)" fill="#030303"/>
      <rect id="Rectángulo_295098" data-name="Rectángulo 295098" width="3.492" height="3.53" transform="translate(98.677 7.32)" fill="#050505"/>
      <path id="Trazado_267667" data-name="Trazado 267667" d="M264.975,391.266H275.8a34.306,34.306,0,0,0,.044,4.986c.417,2.8-.634,4.489-3.1,5.794-2.365,1.251-4.5,2.929-6.743,4.416-.289.192-.591.366-1.03.636Z" transform="translate(-208.042 -302.314)" fill="#e2e2e2"/>
      <path id="Trazado_267668" data-name="Trazado 267668" d="M52.852,391.36c0,2.815.025,5.57-.008,8.324-.028,2.3.438,1.713-1.795,2.548-2.617.979-5.251,1.914-7.88,2.864-.327.118-.661.215-1.109.358V391.36Z" transform="translate(-35.911 -302.387)" fill="#e2e2e2"/>
      <path id="Trazado_267669" data-name="Trazado 267669" d="M164.04,367.726v8.143c-1.114-1.382-2.271-.959-3.469-.5-2.079.8-4.177,1.543-6.27,2.3-.322.117-.661.189-1.049.3V367.726Z" transform="translate(-121.771 -284.137)" fill="#e2e2e2"/>
      <path id="Trazado_267670" data-name="Trazado 267670" d="M157.187,120.356a19.964,19.964,0,1,1,19.93-19.973,19.971,19.971,0,0,1-19.93,19.973m1.757-7.179c.439-.065.788-.107,1.134-.17a7.242,7.242,0,0,0-1.122-14.4c-1.1-.025-2.2.031-3.3-.02a5.58,5.58,0,0,1-1.755-.33,3.554,3.554,0,0,1-2.168-3.856,3.517,3.517,0,0,1,3.446-3.035c2.692-.062,5.387-.024,8.08-.028h1.1V87.687h-5.437V84.137h-3.634v3.49c-.3.054-.539.108-.781.139a7.257,7.257,0,0,0-6.449,7.02,7.151,7.151,0,0,0,6.217,7.3c1.6.213,3.252.1,4.878.164a3.6,3.6,0,0,1,.76,7.061,6.391,6.391,0,0,1-1.574.166c-2.789.015-5.579.007-8.382.007v3.661h5.376v3.534h3.607Z" transform="translate(-109.367 -62.291)" fill="#ffb500"/>
      <path id="Trazado_267671" data-name="Trazado 267671" d="M195.79,125.75v3.505h-3.607v-3.534h-5.376V122.06c2.8,0,5.593.008,8.382-.007a6.39,6.39,0,0,0,1.574-.166,3.6,3.6,0,0,0-.76-7.061c-1.626-.069-3.273.05-4.878-.164a7.151,7.151,0,0,1-6.217-7.3,7.257,7.257,0,0,1,6.449-7.02c.242-.031.48-.085.78-.139V96.71h3.634v3.549h5.437v3.656h-1.1c-2.693,0-5.388-.034-8.08.028a3.517,3.517,0,0,0-3.446,3.035,3.554,3.554,0,0,0,2.168,3.856,5.579,5.579,0,0,0,1.755.33c1.1.051,2.2,0,3.3.02a7.242,7.242,0,0,1,1.122,14.4c-.345.063-.694.1-1.134.17" transform="translate(-146.213 -74.863)" fill="#050402"/>
    </g>
  </g>
</svg>
