<svg id="Grupo_80157" data-name="Grupo 80157" xmlns="http://www.w3.org/2000/svg" xmlns:xlink="http://www.w3.org/1999/xlink" width="210" height="154.75" viewBox="0 0 210 154.75">
  <defs>
    <clipPath id="clip-path">
      <rect id="Rectángulo_33803" data-name="Rectángulo 33803" width="210" height="154.75" fill="none"/>
    </clipPath>
    <clipPath id="clip-path-2">
      <path id="Trazado_114221" data-name="Trazado 114221" d="M1.8,22C.46,29.808,3.731,55.945,6.977,55.3s8.473-28.447,7.642-32.274C14.2,21.1,10.012,19.467,7.6,19.217a6.076,6.076,0,0,0-.623-.031c-2.29,0-4.9,1.206-5.178,2.813" transform="translate(-1.491 -19.186)" fill="none"/>
    </clipPath>
    <clipPath id="clip-path-3">
      <path id="Trazado_114198" data-name="Trazado 114198" d="M40.741,44.942c-1.422,1.775,6.844,23.1,8.983,23.53s130.7-15.828,131.766-17.54,1.5-22.032,0-23.958c-.077-.1-.512-.146-1.266-.146-13.964,0-137.86,16.085-139.483,18.114" transform="translate(-40.577 -26.828)" fill="none"/>
    </clipPath>
    <clipPath id="clip-path-5">
      <path id="Trazado_114205" data-name="Trazado 114205" d="M53.813,78.546c-1.512,1.512,6.525,24.172,8.824,25.241S178.092,83.467,178.948,81.969s.941-23.335.3-24.4c-.017-.029-.121-.042-.306-.042-6.757,0-122.629,18.525-125.128,21.023" transform="translate(-53.625 -57.523)" fill="none"/>
    </clipPath>
    <clipPath id="clip-path-7">
      <path id="Trazado_114211" data-name="Trazado 114211" d="M70.393,113.725c-1.541,1.961,4.331,11.123,5.186,11.336s96.64-20.748,97.2-21.818,1.8-10.267,0-11.123a.7.7,0,0,0-.247-.027c-5.715,0-99.834,18.7-102.137,21.632" transform="translate(-70.136 -92.093)" fill="none"/>
    </clipPath>
  </defs>
  <g id="Grupo_80144" data-name="Grupo 80144">
    <g id="Grupo_80143" data-name="Grupo 80143" clip-path="url(#clip-path)">
      <path id="Trazado_114159" data-name="Trazado 114159" d="M5.62,6.048s29.869-.481,32.008,2.514S59.307,69.543,59.307,69.543" transform="translate(0.819 0.877)" fill="none" stroke="#552a1a" stroke-linecap="round" stroke-miterlimit="10" stroke-width="4"/>
      <path id="Trazado_114160" data-name="Trazado 114160" d="M32.75,1.791c1.453,1.13,2.776,11.675.532,12.9s-28.127,2.2-30.693,0S-1.047,2.218,1.306.721,30.825.293,32.75,1.791" transform="translate(0 0)" fill="#b0b855"/>
      <path id="Trazado_114161" data-name="Trazado 114161" d="M97.4,128.057a9.412,9.412,0,1,1-9.412-9.412,9.412,9.412,0,0,1,9.412,9.412" transform="translate(11.446 17.282)" fill="#263347"/>
      <path id="Trazado_114162" data-name="Trazado 114162" d="M92.459,127.5a5.027,5.027,0,1,1-5.027-5.027,5.028,5.028,0,0,1,5.027,5.027" transform="translate(12.003 17.84)" fill="#ffc674"/>
      <path id="Trazado_114163" data-name="Trazado 114163" d="M89.327,127.146a2.248,2.248,0,1,1-2.248-2.248,2.248,2.248,0,0,1,2.248,2.248" transform="translate(12.357 18.193)" fill="#263347"/>
      <path id="Trazado_114164" data-name="Trazado 114164" d="M163.505,112.966a9.412,9.412,0,1,1-9.412-9.412,9.412,9.412,0,0,1,9.412,9.412" transform="translate(21.075 15.084)" fill="#263347"/>
      <path id="Trazado_114165" data-name="Trazado 114165" d="M158.562,112.408a5.027,5.027,0,1,1-5.027-5.027,5.028,5.028,0,0,1,5.027,5.027" transform="translate(21.632 15.641)" fill="#ffc674"/>
      <path id="Trazado_114166" data-name="Trazado 114166" d="M155.43,112.055a2.248,2.248,0,1,1-2.248-2.248,2.247,2.247,0,0,1,2.248,2.248" transform="translate(21.985 15.995)" fill="#263347"/>
      <path id="Trazado_114167" data-name="Trazado 114167" d="M64.328,33.119S58.467,24.925,59.9,17.2c0,0,2.137-1.594,3.821.268,0,0-.879,9.4.611,15.651" transform="translate(8.692 2.413)" fill="#b0b855"/>
      <path id="Trazado_114168" data-name="Trazado 114168" d="M65.537,30.63c1.971-.406,3.775-5.881,7.809-9.335S88.01,20.731,91.5,28.49s3.367,24.06.074,26.586S82.956,57.011,82.01,58.4s-3.444,5.577-5.341,5.939-19.342-1.605-25.405-10.5-3.964-16.627.843-20.3S63.253,31.1,65.537,30.63" transform="translate(6.924 2.892)" fill="#b21b23"/>
      <path id="Trazado_114169" data-name="Trazado 114169" d="M55.733,33.449c-5.4,1.485-7.066,18.136,2,20.354s12.318-4.208,11.4-10.19-6.019-12.194-13.4-10.164" transform="translate(7.473 4.815)" fill="#dd242d"/>
      <path id="Trazado_114170" data-name="Trazado 114170" d="M98.232,23.876s-1.1-12.192,2.533-17.754c0,0,3.636-.642,3.851,1.283Z" transform="translate(14.286 0.877)" fill="#b0b855"/>
      <path id="Trazado_114171" data-name="Trazado 114171" d="M100.284,20.57c1.385,1.5,10.8-5.348,16.792-2.995s11.765,16.918,5.347,27.71S109.8,57.362,107.236,56.4s-5.561-2.46-8.128-.749-9.24,3.34-14.545-5.026S71.82,27.27,82.85,19.073c6.287-4.672,11.123-5.348,17.434,1.5" transform="translate(11.237 2.257)" fill="#dd1112"/>
      <path id="Trazado_114172" data-name="Trazado 114172" d="M92.016,20.355c-5.26-3.065-12.459,4.759-11.179,11.315s4.39,13.151,11.179,12.113,8.933-18.223,0-23.428" transform="translate(11.753 2.865)" fill="#e53c4c"/>
      <path id="Trazado_114173" data-name="Trazado 114173" d="M130.681,28.486s-3.45-9.465,0-16.524c0,0,2.486-.964,3.61,1.283,0,0-3.369,8.824-3.61,15.241" transform="translate(18.812 1.713)" fill="#b0b855"/>
      <path id="Trazado_114174" data-name="Trazado 114174" d="M133.187,25.479c2.007.139,5.214-4.653,10.027-6.9s14.278,3.389,15.562,11.8-3.209,24.081-7.058,25.632-8.824-.449-10.107.631-4.813,4.449-6.739,4.288S116.669,54.2,113.213,44s.642-17.082,6.256-19.327,11.391.642,13.717.8" transform="translate(16.306 2.634)" fill="#b21b23"/>
      <path id="Trazado_114175" data-name="Trazado 114175" d="M122.546,26.359c-5.6-.018-11.671,15.576-3.53,20.145s13-.75,13.717-6.758S130.2,26.384,122.546,26.359" transform="translate(16.76 3.84)" fill="#dd242d"/>
      <path id="Trazado_114176" data-name="Trazado 114176" d="M89.535,53.185s-3.45-9.465,0-16.524c0,0,2.486-.964,3.61,1.283,0,0-3.369,8.824-3.61,15.241" transform="translate(12.819 5.31)" fill="#b0b855"/>
      <path id="Trazado_114177" data-name="Trazado 114177" d="M92.041,50.178c2.007.139,5.214-4.653,10.027-6.9s14.278,3.389,15.562,11.8-3.209,24.081-7.058,25.632-8.824-.449-10.107.631-4.813,4.449-6.739,4.288S75.523,78.9,72.067,68.7s.642-17.082,6.256-19.327,11.391.642,13.717.8" transform="translate(10.313 6.232)" fill="#b21b23"/>
      <path id="Trazado_114178" data-name="Trazado 114178" d="M81.4,51.058C75.8,51.04,69.729,66.634,77.87,71.2s13-.75,13.717-6.758S89.058,51.083,81.4,51.058" transform="translate(10.767 7.437)" fill="#dd242d"/>
      <path id="Trazado_114179" data-name="Trazado 114179" d="M118.189,47.246s1.1-12.192-2.533-17.754c0,0-3.636-.642-3.851,1.283Z" transform="translate(16.286 4.281)" fill="#b0b855"/>
      <path id="Trazado_114180" data-name="Trazado 114180" d="M121.419,43.94c-1.385,1.5-10.8-5.348-16.792-2.995s-11.765,16.918-5.348,27.71S111.9,80.732,114.467,79.769s5.561-2.46,8.128-.749,9.24,3.34,14.545-5.026,12.742-23.354,1.712-31.552c-6.287-4.672-11.123-5.348-17.434,1.5" transform="translate(14.052 5.661)" fill="#dd1112"/>
      <path id="Trazado_114181" data-name="Trazado 114181" d="M125.766,43.725c5.26-3.065,12.459,4.759,11.179,11.315s-4.39,13.151-11.179,12.113-8.933-18.223,0-23.428" transform="translate(17.457 6.269)" fill="#e53c4c"/>
      <path id="Trazado_114182" data-name="Trazado 114182" d="M92.591,80.287s-1.1-12.192,2.533-17.754c0,0,3.636-.642,3.851,1.283Z" transform="translate(13.464 9.094)" fill="#b0b855"/>
      <path id="Trazado_114183" data-name="Trazado 114183" d="M94.643,76.981c1.385,1.5,10.8-5.348,16.792-2.995S123.2,90.9,116.782,101.7s-12.619,12.076-15.187,11.114-5.561-2.46-8.128-.749-9.24,3.34-14.545-5.026S66.179,83.681,77.209,75.484c6.287-4.672,11.123-5.348,17.434,1.5" transform="translate(10.416 10.474)" fill="#dd1112"/>
      <path id="Trazado_114184" data-name="Trazado 114184" d="M86.375,76.766C81.116,73.7,73.916,81.525,75.2,88.081s4.39,13.151,11.179,12.113,8.933-18.223,0-23.428" transform="translate(10.931 11.082)" fill="#e53c4c"/>
      <path id="Trazado_114185" data-name="Trazado 114185" d="M135.438,78.875s1.35-12.168,6.022-16.893c0,0,3.691.1,3.517,2.026Z" transform="translate(19.728 9.028)" fill="#b0b855"/>
      <path id="Trazado_114186" data-name="Trazado 114186" d="M138.11,75.789c1.056,1.748,11.65-3.086,17.05.414s8.157,18.923-.283,28.22-14.774,9.318-17.1,7.863-4.96-3.519-7.816-2.354-9.72,1.43-13.252-7.826-7.829-25.426,4.614-31.258c7.092-3.325,11.965-3.023,16.785,4.942" transform="translate(16.464 10.029)" fill="#dd1112"/>
      <path id="Trazado_114187" data-name="Trazado 114187" d="M129.9,74.057c-4.543-4.052-13.158,2.18-13.211,8.858s1.681,13.763,8.541,14.1,12.386-16.075,4.67-22.957" transform="translate(16.997 10.6)" fill="#e53c4c"/>
      <path id="Trazado_114188" data-name="Trazado 114188" d="M111.679,77.7s-3.45-9.465,0-16.524c0,0,2.486-.964,3.61,1.283,0,0-3.369,8.824-3.61,15.241" transform="translate(16.044 8.882)" fill="#b0b855"/>
      <path id="Trazado_114189" data-name="Trazado 114189" d="M114.185,74.7c2.007.139,5.214-4.653,10.027-6.9s14.278,3.389,15.562,11.8-3.209,24.081-7.058,25.632-8.824-.449-10.107.631-4.813,4.449-6.739,4.288-18.2-6.734-21.658-16.929.642-17.082,6.256-19.327,11.391.642,13.717.8" transform="translate(13.538 9.804)" fill="#b21b23"/>
      <path id="Trazado_114190" data-name="Trazado 114190" d="M103.544,75.577c-5.6-.018-11.671,15.576-3.53,20.145s13-.75,13.717-6.758S111.2,75.6,103.544,75.577" transform="translate(13.992 11.009)" fill="#dd242d"/>
      <path id="Trazado_114191" data-name="Trazado 114191" d="M45.577,45.363c-1.2,1.993,37.9,89.268,39.484,89.482s10.508-1.218,10.784-3.637S58.84,44.576,58.2,43.079s-11.551.5-12.621,2.284" transform="translate(6.635 6.198)" fill="#552a1a"/>
      <path id="Trazado_114192" data-name="Trazado 114192" d="M151.75,30.934c-2.456.984-7.815,87.148-5.567,87.789s8.879.4,10.162-1.083,8.343-84.48,7.915-86.4-9.3-1.583-12.511-.3" transform="translate(21.215 4.353)" fill="#552a1a"/>
      <g id="Grupo_80178" data-name="Grupo 80178" transform="translate(-523.16 -1094.462) rotate(38)">
        <g id="Grupo_80159" data-name="Grupo 80159" transform="translate(1212.494 449.08)">
          <g id="Grupo_80170" data-name="Grupo 80170" transform="translate(0 0)">
            <g id="Grupo_80171" data-name="Grupo 80171">
              <path id="Trazado_114214" data-name="Trazado 114214" d="M6.8,16.167S1.489,8.028,4.467,1.281c0,0,4.328,6.406,3.622,12.159,0,0,.906-6.008,5.661-8.631a17.512,17.512,0,0,1-5.391,11.63Z" transform="translate(-0.791 -1.281)" fill="#e2de85"/>
              <path id="Trazado_114215" data-name="Trazado 114215" d="M6.375,18.278S-.7,12.347.058,7.328a21.782,21.782,0,0,1,6.427,8.73S5.117,9.462,7.9,5.6c0,0,2.971,6.093.214,10.729a9.878,9.878,0,0,1,6.749-4.3s-3.041,4.952-8.483,6.246" transform="translate(0 -2.241)" fill="#b0b855"/>
              <path id="Trazado_114216" data-name="Trazado 114216" d="M1.8,22c.3-1.756,3.388-3.032,5.8-2.782s6.6,1.884,7.019,3.809c.832,3.827-4.4,31.627-7.642,32.274S.46,29.809,1.8,22" transform="translate(-0.331 -5.257)" fill="#ed6f29"/>
            </g>
          </g>
        </g>
        <g id="Grupo_80160" data-name="Grupo 80160" transform="translate(1213.654 463.009)" clip-path="url(#clip-path-2)">
          <path id="Trazado_114217" data-name="Trazado 114217" d="M9.838,25.824s-5.148-.741-8.8,2.4" transform="translate(-1.392 -20.643)" fill="none" stroke="#c9551b" stroke-linecap="round" stroke-miterlimit="10" stroke-width="2"/>
          <path id="Trazado_114218" data-name="Trazado 114218" d="M8.361,35.72a8.168,8.168,0,0,0-6.817,1.8" transform="translate(-1.503 -22.825)" fill="none" stroke="#c9551b" stroke-linecap="round" stroke-miterlimit="10" stroke-width="2"/>
          <path id="Trazado_114219" data-name="Trazado 114219" d="M7.708,46.676s-2.275-.7-4.884,1.543" transform="translate(-1.787 -25.268)" fill="none" stroke="#c9551b" stroke-linecap="round" stroke-miterlimit="10" stroke-width="2"/>
          <path id="Trazado_114220" data-name="Trazado 114220" d="M7.5,55.174a4.841,4.841,0,0,0-3.514,1.778" transform="translate(-2.046 -27.178)" fill="none" stroke="#c9551b" stroke-linecap="round" stroke-miterlimit="10" stroke-width="2"/>
        </g>
      </g>
      <path id="Trazado_114193" data-name="Trazado 114193" d="M40.74,44.942c-1.421,1.776,6.845,23.1,8.984,23.53s130.7-15.828,131.766-17.54,1.5-22.032,0-23.958S42.451,42.8,40.74,44.942" transform="translate(5.911 3.908)" fill="#a2563c"/>
    </g>
  </g>
  <g id="Grupo_80146" data-name="Grupo 80146" transform="translate(46.488 30.736)">
    <g id="Grupo_80145" data-name="Grupo 80145" clip-path="url(#clip-path-3)">
      <path id="Trazado_114194" data-name="Trazado 114194" d="M36.087,50.126c9.68-3.124,19.865-3.736,29.838-5.4,10.962-1.831,21.986-3.215,33-4.7s21.939-3.319,32.863-5.354c10.9-2.028,21.847-3.965,32.924-4.673,2.711-.174,5.419-.249,8.118-.573,2.545-.306,5.073-.734,7.592-1.2a150.8,150.8,0,0,1,15.654-2.514q1.961-.153,3.926-.16a.573.573,0,0,0,0-1.146c-10.6.036-20.764,3.675-31.314,4.242-5.5.3-10.965.736-16.428,1.464s-10.914,1.653-16.344,2.64c-10.975,1.995-21.915,4.037-32.968,5.577-11,1.533-22.039,2.852-33.015,4.588-5.18.82-10.36,1.567-15.554,2.29a129.976,129.976,0,0,0-15.012,2.771q-1.808.473-3.585,1.047c-.7.226-.4,1.331.3,1.1" transform="translate(-41.334 -27.182)" fill="#ff9149"/>
      <path id="Trazado_114195" data-name="Trazado 114195" d="M32.914,57.358C43.506,54.393,54.273,52.1,65.1,50.209c10.882-1.905,21.825-3.427,32.772-4.9s21.917-2.982,32.862-4.582c11.239-1.641,22.484-3.249,33.743-4.741,5.11-.677,10.212-1.1,15.353-1.464a101.144,101.144,0,0,0,15-1.87q1.839-.411,3.639-.965c.7-.217.4-1.322-.3-1.1-9.768,3-20.112,2.522-30.155,3.793-11.147,1.411-22.272,3.021-33.39,4.635-11.024,1.6-22.047,3.18-33.088,4.659-10.9,1.46-21.8,2.926-32.642,4.732s-21.628,3.951-32.256,6.753q-2.019.533-4.032,1.1a.573.573,0,0,0,.3,1.1" transform="translate(-41.797 -26.285)" fill="#ff9149"/>
      <path id="Trazado_114196" data-name="Trazado 114196" d="M39.108,62.2c10.531-1.257,20.773-4.232,31.313-5.414,10.831-1.214,21.611-2.833,32.409-4.3,10.882-1.482,21.816-2.52,32.693-4.028,10.761-1.492,21.473-3.31,32.167-5.221,10.765-1.925,21.513-3.942,32.287-5.819q2-.349,3.992-.689c.725-.124.418-1.228-.3-1.106-10.733,1.833-21.435,3.83-32.15,5.766-10.689,1.93-21.391,3.8-32.14,5.371-10.8,1.579-21.673,2.61-32.5,4.036C96,52.23,85.15,53.882,74.258,55.207c-5.247.639-10.444,1.322-15.635,2.336-5.165,1.008-10.308,2.142-15.509,2.959q-2,.314-4.006.556c-.723.086-.732,1.233,0,1.146" transform="translate(-40.871 -25.548)" fill="#ff9149"/>
      <path id="Trazado_114197" data-name="Trazado 114197" d="M41.268,66.153a5.091,5.091,0,0,1,1.831-.4c.881-.1,1.765-.149,2.65-.2,2.052-.119,4.106-.257,6.155-.441,5.092-.461,10.144-1.274,15.182-2.136,5.312-.909,10.617-1.84,15.949-2.632,5.315-.788,10.639-1.5,15.959-2.251,10.617-1.492,21.181-3.287,31.729-5.2,10.6-1.922,21.181-3.936,31.784-5.831,10.556-1.886,21.136-3.656,31.763-5.1q2.071-.282,4.144-.544c.722-.092.731-1.238,0-1.146-10.691,1.36-21.333,3.067-31.948,4.926-10.662,1.869-21.3,3.885-31.942,5.837s-21.293,3.857-32,5.4c-10.736,1.55-21.49,2.933-32.175,4.815-5.182.913-10.376,1.818-15.605,2.416-2.39.273-4.785.438-7.183.621-1.718.131-3.45.155-5.158.4a4.972,4.972,0,0,0-1.71.471c-.646.354-.069,1.343.579.989" transform="translate(-40.602 -24.87)" fill="#ff9149"/>
    </g>
  </g>
  <g id="Grupo_80148" data-name="Grupo 80148">
    <g id="Grupo_80147" data-name="Grupo 80147" clip-path="url(#clip-path)">
      <path id="Trazado_114199" data-name="Trazado 114199" d="M57.4,52.568a2.46,2.46,0,1,1-2.461-2.46,2.46,2.46,0,0,1,2.461,2.46" transform="translate(7.645 7.299)" fill="#e2de85"/>
      <path id="Trazado_114200" data-name="Trazado 114200" d="M157.816,39.937a2.46,2.46,0,1,1-2.46-2.46,2.459,2.459,0,0,1,2.46,2.46" transform="translate(22.271 5.459)" fill="#e2de85"/>
      <path id="Trazado_114201" data-name="Trazado 114201" d="M53.813,78.546c-1.512,1.512,6.525,24.171,8.824,25.241S178.092,83.466,178.948,81.968s.941-23.334.3-24.4S56.38,75.98,53.813,78.546" transform="translate(7.811 8.379)" fill="#a2563c"/>
    </g>
  </g>
  <g id="Grupo_80150" data-name="Grupo 80150" transform="translate(61.436 65.902)">
    <g id="Grupo_80149" data-name="Grupo 80149" clip-path="url(#clip-path-5)">
      <path id="Trazado_114202" data-name="Trazado 114202" d="M47.511,84.664a75.509,75.509,0,0,0,14.447-1.471c2.443-.425,4.881-.878,7.329-1.267,2.487-.4,4.985-.654,7.486-.938,10.382-1.179,20.7-2.872,30.984-4.7s20.549-3.781,30.856-5.488c10.131-1.677,20.283-3.259,30.341-5.346a120.864,120.864,0,0,0,12.7-3.1c3.683-1.193,7.349-2.658,11.174-3.345a13.45,13.45,0,0,1,2.276-.229.573.573,0,0,0,0-1.146c-3.555.03-7.1,1.4-10.427,2.509-1.9.636-3.794,1.287-5.718,1.846-1.98.574-4.005.983-6.016,1.433-10.014,2.244-20.15,3.893-30.274,5.554-10.278,1.686-20.519,3.555-30.768,5.408-10.375,1.875-20.771,3.674-31.235,4.991-4.944.622-9.884,1.11-14.8,1.968a128.414,128.414,0,0,1-14.778,2.109q-1.791.1-3.584.065a.573.573,0,0,0,0,1.146" transform="translate(-54.596 -57.507)" fill="#ff9149"/>
      <path id="Trazado_114203" data-name="Trazado 114203" d="M47.884,92.807c4.4.093,8.7-1.13,12.86-2.433,2.187-.685,4.364-1.409,6.572-2.029a60.052,60.052,0,0,1,6.586-1.4c9.949-1.628,19.96-2.824,29.938-4.246,4.974-.708,9.941-1.473,14.884-2.374,4.864-.886,9.695-1.942,14.552-2.86,9.666-1.825,19.365-3.513,28.947-5.76q7.23-1.7,14.34-3.856c4.734-1.43,9.421-3.054,14.254-4.129q1.753-.388,3.529-.664c.726-.112.418-1.217-.3-1.106a98.426,98.426,0,0,0-14.253,3.7c-4.7,1.471-9.425,2.853-14.2,4.055-9.492,2.391-19.128,4.137-28.745,5.929-9.778,1.82-19.495,3.9-29.335,5.379-9.877,1.479-19.8,2.652-29.67,4.155-2.425.37-4.869.708-7.274,1.2a65.33,65.33,0,0,0-6.4,1.724c-4.3,1.342-8.613,2.925-13.113,3.428a24.212,24.212,0,0,1-3.17.144.573.573,0,0,0,0,1.146" transform="translate(-54.542 -56.879)" fill="#ff9149"/>
      <path id="Trazado_114204" data-name="Trazado 114204" d="M52.705,98.365c9.31-2.608,18.988-3.45,28.5-4.979Q95.8,91.04,110.332,88.394c4.767-.871,9.548-1.7,14.29-2.7,4.672-.978,9.305-2.129,13.926-3.322,9.279-2.4,18.545-5.09,28-6.726,9.03-1.563,18.155-2.837,26.9-5.674q1.621-.526,3.218-1.127c.684-.257.387-1.364-.3-1.1-8.613,3.234-17.734,4.737-26.772,6.24-9.424,1.568-18.645,3.969-27.88,6.386-4.617,1.208-9.239,2.4-13.893,3.459-4.7,1.067-9.437,1.916-14.172,2.8Q99.11,89.326,84.517,91.7c-4.788.781-9.58,1.492-14.384,2.168-4.766.67-9.533,1.391-14.222,2.492q-1.765.416-3.51.905a.573.573,0,0,0,.3,1.1" transform="translate(-53.862 -56.04)" fill="#ff9149"/>
    </g>
  </g>
  <g id="Grupo_80152" data-name="Grupo 80152">
    <g id="Grupo_80151" data-name="Grupo 80151" clip-path="url(#clip-path)">
      <path id="Trazado_114206" data-name="Trazado 114206" d="M155.669,69.863a2.46,2.46,0,1,1-2.46-2.46,2.459,2.459,0,0,1,2.46,2.46" transform="translate(21.959 9.818)" fill="#e2de85"/>
      <path id="Trazado_114207" data-name="Trazado 114207" d="M71.674,86.421a2.46,2.46,0,1,1-2.461-2.46,2.46,2.46,0,0,1,2.461,2.46" transform="translate(9.723 12.23)" fill="#e2de85"/>
      <path id="Trazado_114208" data-name="Trazado 114208" d="M70.393,113.725c-1.541,1.961,4.331,11.123,5.186,11.337s96.639-20.749,97.2-21.819,1.8-10.267,0-11.123-100.03,18.61-102.383,21.6" transform="translate(10.216 13.415)" fill="#a2563c"/>
    </g>
  </g>
  <g id="Grupo_80154" data-name="Grupo 80154" transform="translate(80.352 105.508)">
    <g id="Grupo_80153" data-name="Grupo 80153" clip-path="url(#clip-path-7)">
      <path id="Trazado_114209" data-name="Trazado 114209" d="M64.314,119.049c17.162-2.177,33.978-6.338,50.721-10.593,8.327-2.116,16.695-4.1,24.991-6.324,8.246-2.215,16.445-4.62,24.762-6.566,2.218-.519,4.447-1.045,6.691-1.442,1.678-.3,3.382-.448,5.075-.628,3.308-.352,6.967-.566,9.975-2.119.655-.338.077-1.327-.579-.989-2.661,1.374-5.941,1.59-8.869,1.906-1.56.168-3.123.317-4.678.534-1.76.244-3.5.639-5.23,1.022-8.256,1.819-16.383,4.159-24.534,6.386-8.183,2.236-16.437,4.2-24.657,6.289-8.324,2.118-16.65,4.241-25.027,6.142-9.468,2.148-19.009,4.014-28.643,5.237-.722.092-.731,1.238,0,1.146" transform="translate(-71.064 -92.351)" fill="#ff9149"/>
      <path id="Trazado_114210" data-name="Trazado 114210" d="M67.83,123.239c16.219-3.783,32.494-7.33,48.678-11.269,4.048-.985,8.077-2.074,12.142-2.986,3.959-.889,7.95-1.625,11.948-2.3,8.122-1.369,16.287-2.48,24.363-4.1,8.977-1.807,17.744-4.746,27-4.776a.573.573,0,0,0,0-1.146c-8.163.026-16.106,2.205-23.988,4.083-8.031,1.912-16.256,2.983-24.4,4.3-4.1.662-8.188,1.362-12.252,2.2-3.987.82-7.918,1.853-11.867,2.829-8.148,2.013-16.323,3.915-24.5,5.787-9.142,2.093-18.293,4.147-27.425,6.278-.717.167-.414,1.272.306,1.1" transform="translate(-70.576 -91.428)" fill="#ff9149"/>
    </g>
  </g>
  <g id="Grupo_80156" data-name="Grupo 80156">
    <g id="Grupo_80155" data-name="Grupo 80155" clip-path="url(#clip-path)">
      <path id="Trazado_114212" data-name="Trazado 114212" d="M153.521,99.127a2.46,2.46,0,1,1-2.46-2.46,2.459,2.459,0,0,1,2.46,2.46" transform="translate(21.646 14.081)" fill="#e2de85"/>
      <path id="Trazado_114213" data-name="Trazado 114213" d="M84.161,114.229a2.46,2.46,0,1,1-2.46-2.46,2.459,2.459,0,0,1,2.46,2.46" transform="translate(11.543 16.281)" fill="#e2de85"/>
    </g>
  </g>
</svg>
