<svg id="Grupo_238194" data-name="Grupo 238194" xmlns="http://www.w3.org/2000/svg" xmlns:xlink="http://www.w3.org/1999/xlink" width="258.876" height="243.755" viewBox="0 0 258.876 243.755">
  <defs>
    <clipPath id="clip-path">
      <rect id="Rectángulo_295024" data-name="Rectángulo 295024" width="258.876" height="243.755" fill="none"/>
    </clipPath>
    <clipPath id="clip-path-2">
      <rect id="Rectángulo_295029" data-name="Rectángulo 295029" width="1.562" height="1.584" fill="none"/>
    </clipPath>
    <clipPath id="clip-path-3">
      <rect id="Rectángulo_295030" data-name="Rectángulo 295030" width="13.631" height="8.236" fill="none"/>
    </clipPath>
    <clipPath id="clip-path-4">
      <rect id="Rectángulo_295031" data-name="Rectángulo 295031" width="21.76" height="17.467" fill="none"/>
    </clipPath>
  </defs>
  <g id="Grupo_238195" data-name="Grupo 238195">
    <g id="Grupo_238177" data-name="Grupo 238177">
      <g id="Grupo_238198" data-name="Grupo 238198">
        <path id="Trazado_266939" data-name="Trazado 266939" d="M35.288,330.282a18.579,18.579,0,0,0-7.948-2.736,5.3,5.3,0,0,0-3.759.691.774.774,0,0,0-.387.687.835.835,0,0,0,.368.469,11.363,11.363,0,0,0,11.726.888" transform="translate(-10.385 -146.675)" fill="#ac556c"/>
        <path id="Trazado_266940" data-name="Trazado 266940" d="M37.884,322.033a38.789,38.789,0,0,1-5.134-4.516,12.99,12.99,0,0,1-3.218-5.952,2.4,2.4,0,0,1,.255-1.992c4.092,3.2,7.306,7.329,8.1,12.46" transform="translate(-13.184 -138.651)" fill="#ac556c"/>
        <path id="Trazado_266941" data-name="Trazado 266941" d="M44.817,322.514a18.565,18.565,0,0,1,.095-6.74,9.113,9.113,0,0,1,3.59-5.561,7.958,7.958,0,0,1-.094,5.284,25.691,25.691,0,0,1-3.56,7.5" transform="translate(-19.956 -138.938)" fill="#ac556c"/>
        <path id="Trazado_266942" data-name="Trazado 266942" d="M44.166,345.511a11.745,11.745,0,0,0-6.374,3.226A12.06,12.06,0,0,0,34.146,355c2.388-.147,4.415-1.832,5.884-3.72s2.488-3.961,4.1-5.727" transform="translate(-15.293 -154.747)" fill="#ac556c"/>
        <path id="Trazado_266943" data-name="Trazado 266943" d="M52.983,335.531a15.72,15.72,0,0,1,1.815-14.87,18.93,18.93,0,0,1-1.815,14.87" transform="translate(-23.239 -143.618)" fill="#ac556c"/>
        <path id="Trazado_266944" data-name="Trazado 266944" d="M54.52,359.006a11.366,11.366,0,0,0-10.869,6.257c-.135.269-.253.611-.073.852a.81.81,0,0,0,.721.212,9.46,9.46,0,0,0,5.607-2.9A53.728,53.728,0,0,1,54.568,359" transform="translate(-19.477 -160.782)" fill="#ac556c"/>
        <path id="Trazado_266945" data-name="Trazado 266945" d="M62.427,346.184a20.241,20.241,0,0,1-.2-11.308,5.514,5.514,0,0,1,2.413-3.671.474.474,0,0,1,.369-.065.486.486,0,0,1,.234.27,6.817,6.817,0,0,1,.569,3.244,20.386,20.386,0,0,1-.509,3.284c-.424,2.008-.649,4.165-1.75,5.9a11.938,11.938,0,0,0-.7,1.295c-.208.44-.21.6-.4.945" transform="translate(-27.552 -148.304)" fill="#ac556c"/>
        <path id="Trazado_266946" data-name="Trazado 266946" d="M88.259,352.082a14.58,14.58,0,0,1,2.555-11.988c.183-.239.427-.494.727-.467.459.043.578.654.557,1.114a21.658,21.658,0,0,1-3.839,11.341" transform="translate(-39.355 -152.111)" fill="#b55a72"/>
        <path id="Trazado_266947" data-name="Trazado 266947" d="M90.866,360.39a17.439,17.439,0,0,0,14.309-2.91,11.583,11.583,0,0,0-7.746-.951,11.053,11.053,0,0,0-6.563,3.861" transform="translate(-40.697 -159.555)" fill="#b55a72"/>
        <path id="Trazado_266948" data-name="Trazado 266948" d="M92.8,352.892a16.537,16.537,0,0,1,12.986-7.509,8,8,0,0,1-4.247,4.7A23.571,23.571,0,0,1,95.3,351.9a4.394,4.394,0,0,0-2.5.99" transform="translate(-41.562 -154.69)" fill="#b55a72"/>
        <path id="Trazado_266949" data-name="Trazado 266949" d="M87.545,323.576a37.729,37.729,0,0,0,1.661-7.605,12.667,12.667,0,0,0-1.514-7.523,16.56,16.56,0,0,0-.222,15.389" transform="translate(-38.374 -138.147)" fill="#b55a72"/>
        <path id="Trazado_266950" data-name="Trazado 266950" d="M104.382,319.824c2.939-5.341,8.934-9.607,15-10.205-2.34,5.827-8.723,10.331-15,10.205" transform="translate(-46.751 -138.672)" fill="#b55a72"/>
        <path id="Trazado_266951" data-name="Trazado 266951" d="M101.034,329.288c4.383.668,8.117,3.467,12.212,5.163a5.468,5.468,0,0,0,2.761.529,2.161,2.161,0,0,0,1.353-3.823,5.912,5.912,0,0,0-2.005-1.216,22.287,22.287,0,0,0-13.944-.777" transform="translate(-45.251 -147.089)" fill="#b55a72"/>
        <path id="Trazado_266952" data-name="Trazado 266952" d="M96.44,335.394a5.176,5.176,0,0,1,2.117,1.467,22.839,22.839,0,0,0,9.261,4.757c.354.088.818.123.993-.2.153-.279-.041-.617-.24-.866a12.751,12.751,0,0,0-5.591-3.8c-2.137-.8-3.989-1.755-6.54-1.549" transform="translate(-43.194 -150.121)" fill="#b55a72"/>
        <path id="Trazado_266953" data-name="Trazado 266953" d="M91.257,301.556a17.528,17.528,0,0,0,13.437,4.572.919.919,0,0,0,.611-.22c.338-.368-.067-.936-.462-1.243a15.481,15.481,0,0,0-13.587-3.109" transform="translate(-40.872 -134.849)" fill="#b55a72"/>
        <path id="Trazado_266954" data-name="Trazado 266954" d="M97.4,296.732a18.727,18.727,0,0,1,16.766-2.767,13.309,13.309,0,0,1-7.989,3.508,25.287,25.287,0,0,1-8.777-.741" transform="translate(-43.625 -131.266)" fill="#b55a72"/>
        <path id="Trazado_266955" data-name="Trazado 266955" d="M93.123,274.621c-.388-3.943-.136-7.056-.41-11.017-.022-.316-.09-.7-.386-.812-.412-.158-.756.348-.891.769a12.627,12.627,0,0,0,1.681,10.973" transform="translate(-40.693 -117.686)" fill="#b55a72"/>
        <path id="Trazado_266956" data-name="Trazado 266956" d="M94.446,274.974a23.183,23.183,0,0,0,6.532-6.348c1.29-1.765,2.378-3.88,2.084-6.046a6.251,6.251,0,0,0-4.711,2.339,13.147,13.147,0,0,0-2.4,4.833c-.523,1.735-.889,3.518-1.5,5.223" transform="translate(-42.3 -117.603)" fill="#b55a72"/>
        <path id="Trazado_266957" data-name="Trazado 266957" d="M106,273.789a52.671,52.671,0,0,0,16.074-9.478,8.207,8.207,0,0,0-6.038.464,19.042,19.042,0,0,0-10.12,8.971" transform="translate(-47.438 -118.201)" fill="#b55a72"/>
        <path id="Trazado_266958" data-name="Trazado 266958" d="M97.714,285.164a32.7,32.7,0,0,0,8.926.044,37.857,37.857,0,0,0,8.333-2.769.98.98,0,0,0,.566-.43.652.652,0,0,0-.2-.713,1.725,1.725,0,0,0-.711-.333,15.43,15.43,0,0,0-9.005.538,41.762,41.762,0,0,0-7.906,3.663" transform="translate(-43.764 -125.637)" fill="#b55a72"/>
        <path id="Trazado_266959" data-name="Trazado 266959" d="M65.82,291.585a15.787,15.787,0,0,1-.144-13.067,9.979,9.979,0,0,1,1.156,6.5c-.225,2.233-.9,4.53-.949,6.773" transform="translate(-28.813 -124.743)" fill="#b55a72"/>
        <path id="Trazado_266960" data-name="Trazado 266960" d="M41.392,294.794a18.225,18.225,0,0,0-13.543,5.769,12.654,12.654,0,0,0,7.416-1.375,37.714,37.714,0,0,0,6.355-4.254" transform="translate(-12.473 -132.031)" fill="#b55a72"/>
        <path id="Trazado_266961" data-name="Trazado 266961" d="M32.2,291.311c-2.473-.2-4.852-.507-7.229.222a8.671,8.671,0,0,0-5.51,4.672,13.064,13.064,0,0,0,6.778-1.28,39.033,39.033,0,0,0,5.962-3.614" transform="translate(-8.714 -130.365)" fill="#b55a72"/>
        <path id="Trazado_266962" data-name="Trazado 266962" d="M45.351,288.575a22.815,22.815,0,0,0-7.1-3.546c-2.59-.6-5.592-.157-7.4,1.795,2.1,1.23,4.641,1.375,7.072,1.374s5.411-.029,7.7.781" transform="translate(-13.819 -127.547)" fill="#b55a72"/>
        <path id="Trazado_266963" data-name="Trazado 266963" d="M53.634,279.254c-3.8-3.735-5.245-10.443-3.715-15.548a23.692,23.692,0,0,1,3.715,15.548" transform="translate(-22.088 -118.109)" fill="#b55a72"/>
        <path id="Trazado_266964" data-name="Trazado 266964" d="M76.075,262.749c.717-1.667,1.222-3.418,1.865-5.115a14.693,14.693,0,0,1,2.659-4.715,7,7,0,0,1,4.71-2.441,18.97,18.97,0,0,1-9.141,12.3" transform="translate(-34.072 -112.184)" fill="#b55a72"/>
        <path id="Trazado_266965" data-name="Trazado 266965" d="M64.668,271.259c-1.187-1.634-2.558-3.851-4.168-5.071a6.971,6.971,0,0,0-5.669-1.489,13.206,13.206,0,0,0,9.837,6.56" transform="translate(-24.558 -118.49)" fill="#b55a72"/>
        <path id="Trazado_266966" data-name="Trazado 266966" d="M71.7,263.009a28.221,28.221,0,0,1-1.876-6.076,9.476,9.476,0,0,1,.951-6.178c2.088,3.946,2.759,8.182,1.031,12.3" transform="translate(-31.211 -112.308)" fill="#b55a72"/>
        <path id="Trazado_266967" data-name="Trazado 266967" d="M76.11,243.972c1.182-3.912,4.764-6.792,8.631-8.114a3.224,3.224,0,0,1,1.513-.227,1.314,1.314,0,0,1,1.116.931c.141.665-.409,1.262-.926,1.7a29.384,29.384,0,0,1-10.335,5.706" transform="translate(-34.088 -105.524)" fill="#b55a72"/>
        <path id="Trazado_266968" data-name="Trazado 266968" d="M76.137,234.3a28.01,28.01,0,0,1,1.128-7.471,9.445,9.445,0,0,1,4.7-5.677c.391,2.547-.733,5.082-2.088,7.274s-2.989,4.261-3.8,6.707" transform="translate(-34.072 -99.048)" fill="#b55a72"/>
        <path id="Trazado_266969" data-name="Trazado 266969" d="M70.125,236.982c-.977-2.851-1.078-6.472-2.785-8.956-1.193-1.736-3.1-2.918-4.133-4.758a7.239,7.239,0,0,0,.241,5.4,15.613,15.613,0,0,0,3.158,4.521c1.263,1.349,2.345,2.364,3.519,3.791" transform="translate(-28.122 -99.997)" fill="#b55a72"/>
        <path id="Trazado_266970" data-name="Trazado 266970" d="M75.991,331.258c-.076,0-.142-19.018-.147-42.473s.052-42.477.128-42.477.142,19.014.147,42.477-.052,42.473-.128,42.473" transform="translate(-33.969 -110.316)" fill="#e0e0e0"/>
        <path id="Trazado_266971" data-name="Trazado 266971" d="M92.709,296.984a4.078,4.078,0,0,1-.715.268l-1.968.664c-1.66.565-3.939,1.384-6.413,2.4-2.449,1.051-4.759,1.9-6.075,3.044a4.474,4.474,0,0,0-1.221,1.615c-.189.447-.223.72-.247.715a.541.541,0,0,1,.008-.2,3,3,0,0,1,.14-.554,4.288,4.288,0,0,1,1.191-1.721,10.684,10.684,0,0,1,2.636-1.638c1.054-.492,2.223-1.005,3.464-1.515,2.481-1.017,4.778-1.809,6.456-2.328.838-.262,1.523-.454,2-.581a4.074,4.074,0,0,1,.746-.166" transform="translate(-34.068 -133.012)" fill="#e0e0e0"/>
        <path id="Trazado_266972" data-name="Trazado 266972" d="M99.218,272.751a1.183,1.183,0,0,1-.2.214l-.61.574-2.279,2.069-7.583,6.752c-2.96,2.635-5.518,5.152-7.291,7.048-.888.947-1.587,1.731-2.063,2.278l-.551.629a1.175,1.175,0,0,1-.206.209,1.16,1.16,0,0,1,.163-.243c.115-.153.283-.38.512-.663.453-.57,1.131-1.375,2-2.341a95.95,95.95,0,0,1,7.251-7.121c2.97-2.629,5.673-4.99,7.637-6.693l2.336-2,.644-.534a1.176,1.176,0,0,1,.237-.172" transform="translate(-35.129 -122.159)" fill="#e0e0e0"/>
        <path id="Trazado_266973" data-name="Trazado 266973" d="M90.957,289.666c-.078-.035.541-1.463,1.157-3.268s.915-3.329.993-3.316a11.15,11.15,0,0,1-.733,3.4,22.08,22.08,0,0,1-.921,2.285,3.559,3.559,0,0,1-.5.894" transform="translate(-40.735 -126.787)" fill="#e0e0e0"/>
        <path id="Trazado_266974" data-name="Trazado 266974" d="M67.2,304.59a3.383,3.383,0,0,1-.456-.529l-1.169-1.5c-.981-1.269-2.338-3.02-3.859-4.937s-2.92-3.636-3.933-4.88l-1.194-1.478a3.391,3.391,0,0,1-.412-.565,3.425,3.425,0,0,1,.494.5c.3.33.735.816,1.262,1.422,1.052,1.213,2.475,2.915,4,4.834s2.857,3.691,3.8,4.991c.472.65.847,1.18,1.1,1.551a3.385,3.385,0,0,1,.37.593" transform="translate(-25.16 -130.2)" fill="#e0e0e0"/>
        <path id="Trazado_266975" data-name="Trazado 266975" d="M68.007,302.719a6.7,6.7,0,0,1-1.527-2.858,8.155,8.155,0,0,1-.346-2.882l.121.009c-.055.22-.094.337-.116.333s-.023-.126,0-.352l.121.01a13.185,13.185,0,0,0,.488,2.8,21.366,21.366,0,0,0,1.263,2.936" transform="translate(-29.612 -133.007)" fill="#e0e0e0"/>
        <path id="Trazado_266976" data-name="Trazado 266976" d="M54.342,295.716a4.923,4.923,0,0,0-1.066-.619,7.128,7.128,0,0,0-2.959-.236,18.347,18.347,0,0,0-2.98.481,8.968,8.968,0,0,1-1.226.294,4.292,4.292,0,0,1,1.174-.481,13.608,13.608,0,0,1,3.011-.568,6.459,6.459,0,0,1,3.053.329,1.894,1.894,0,0,1,.993.8" transform="translate(-20.652 -131.922)" fill="#e0e0e0"/>
        <path id="Trazado_266977" data-name="Trazado 266977" d="M49.617,292.648c-.021.043-.621-.249-1.633-.595a16.431,16.431,0,0,0-8.229-.627c-1.052.188-1.689.385-1.7.34a1.543,1.543,0,0,1,.433-.185,10.279,10.279,0,0,1,1.233-.346,14.532,14.532,0,0,1,8.334.635,10.115,10.115,0,0,1,1.167.53,1.53,1.53,0,0,1,.4.248" transform="translate(-17.042 -130.288)" fill="#e0e0e0"/>
        <path id="Trazado_266978" data-name="Trazado 266978" d="M74.352,276.315a67.316,67.316,0,0,1-2.115-8.341,33.979,33.979,0,0,1,1.191,4.137,33.916,33.916,0,0,1,.924,4.2" transform="translate(-32.35 -120.02)" fill="#e0e0e0"/>
        <path id="Trazado_266979" data-name="Trazado 266979" d="M73.565,279.443a19.9,19.9,0,0,0-1.32-2.477,10.916,10.916,0,0,0-1.942-2,1.811,1.811,0,0,1,.75.386,6.052,6.052,0,0,1,1.418,1.46,5.488,5.488,0,0,1,1.095,2.635" transform="translate(-31.486 -123.148)" fill="#e0e0e0"/>
        <path id="Trazado_266980" data-name="Trazado 266980" d="M61.977,359.288c-.03,0-.086-.457-.3-1.265a18.07,18.07,0,0,0-1.271-3.293,45.566,45.566,0,0,0-6.743-9.5c-1.506-1.72-2.966-3.343-4.206-4.9A34.373,34.373,0,0,1,46.45,336a20.844,20.844,0,0,1-1.518-3.219c-.14-.4-.242-.706-.3-.92a1.51,1.51,0,0,1-.078-.329c.024-.008.163.435.476,1.21a23.548,23.548,0,0,0,1.586,3.159,36.309,36.309,0,0,0,3.037,4.277c1.244,1.538,2.707,3.151,4.215,4.874a43.21,43.21,0,0,1,6.711,9.6,16.459,16.459,0,0,1,1.2,3.352,9.369,9.369,0,0,1,.168.954,1.572,1.572,0,0,1,.028.337" transform="translate(-19.955 -148.485)" fill="#e0e0e0"/>
        <path id="Trazado_266981" data-name="Trazado 266981" d="M91.126,351.082a7.013,7.013,0,0,1-.788.442,17.239,17.239,0,0,0-2.041,1.349,23.41,23.41,0,0,0-2.682,2.446c-.941.994-1.91,2.148-2.9,3.386-1.978,2.482-3.827,4.678-4.935,6.431-.563.87-.971,1.6-1.239,2.117a6.645,6.645,0,0,1-.434.792.747.747,0,0,1,.073-.223c.058-.141.138-.354.264-.617a20.177,20.177,0,0,1,1.171-2.173,70.9,70.9,0,0,1,4.886-6.5c.992-1.24,1.973-2.4,2.931-3.389a21.808,21.808,0,0,1,2.748-2.425,14.322,14.322,0,0,1,2.109-1.289c.261-.131.473-.211.614-.272a.737.737,0,0,1,.223-.075" transform="translate(-34.086 -157.242)" fill="#e0e0e0"/>
        <path id="Trazado_266982" data-name="Trazado 266982" d="M95.423,361.033a11.465,11.465,0,0,1-1.664.242,21.964,21.964,0,0,0-3.945.777,11.852,11.852,0,0,0-3.533,1.854c-.814.629-1.2,1.15-1.236,1.12a1.266,1.266,0,0,1,.247-.383,6.29,6.29,0,0,1,.866-.887,10.707,10.707,0,0,1,3.572-1.965,17.834,17.834,0,0,1,4.011-.709,9.15,9.15,0,0,1,1.683-.048" transform="translate(-38.089 -161.69)" fill="#e0e0e0"/>
        <path id="Trazado_266983" data-name="Trazado 266983" d="M85.92,362.614c-.087-.049.663-1.194,1.244-2.735.546-1.554.674-2.917.771-2.9a2.634,2.634,0,0,1-.028.892,9.579,9.579,0,0,1-.485,2.1,10.191,10.191,0,0,1-.965,1.929,2.7,2.7,0,0,1-.538.712" transform="translate(-38.479 -159.883)" fill="#e0e0e0"/>
        <path id="Trazado_266984" data-name="Trazado 266984" d="M96,324.324a1.248,1.248,0,0,1-.266.141l-.782.356c-.343.147-.758.333-1.227.58s-1.018.492-1.59.835l-.908.516c-.314.181-.626.4-.957.6-.669.406-1.339.906-2.055,1.416A35.246,35.246,0,0,0,80.3,336.96c-.486.733-.962,1.419-1.346,2.1-.2.338-.4.656-.57.977l-.485.925c-.324.582-.554,1.139-.781,1.617s-.4.9-.538,1.246l-.328.793a1.259,1.259,0,0,1-.133.271,1.237,1.237,0,0,1,.08-.289l.281-.813c.12-.354.278-.784.5-1.268s.434-1.052.748-1.643l.472-.939c.166-.325.367-.649.56-.992.377-.692.85-1.389,1.333-2.131a33.939,33.939,0,0,1,7.971-8.248c.725-.509,1.4-1,2.084-1.405.336-.2.652-.416.972-.594l.922-.5c.58-.334,1.138-.573,1.616-.8s.9-.407,1.251-.539l.8-.309a1.245,1.245,0,0,1,.287-.09" transform="translate(-34.092 -145.257)" fill="#e0e0e0"/>
        <path id="Trazado_266985" data-name="Trazado 266985" d="M90.59,337.138a1.914,1.914,0,0,1,.654-.973,4.127,4.127,0,0,1,2.633-1.01,7.193,7.193,0,0,1,2.771.542,3.949,3.949,0,0,1,1.048.509,6.475,6.475,0,0,1-1.111-.326,8.367,8.367,0,0,0-2.7-.45,4.286,4.286,0,0,0-2.515.883,7.663,7.663,0,0,0-.78.826" transform="translate(-40.572 -150.108)" fill="#e0e0e0"/>
        <path id="Trazado_266986" data-name="Trazado 266986" d="M87.37,338.034a7.032,7.032,0,0,0,.58-4.972,1.623,1.623,0,0,1,.309.708,5.035,5.035,0,0,1-.425,3.646c-.232.42-.437.637-.464.618" transform="translate(-39.129 -149.171)" fill="#e0e0e0"/>
        <path id="Trazado_266987" data-name="Trazado 266987" d="M52.319,386.742c.41,7.268,2.6,14.659,5.969,22.133H72.937a63.645,63.645,0,0,0,5.615-22.133Z" transform="translate(-23.433 -173.214)" fill="#e77a97"/>
        <path id="Trazado_266988" data-name="Trazado 266988" d="M78.054,407.931c0,.076-4.823.138-10.772.138s-10.773-.062-10.773-.138,4.823-.137,10.773-.137,10.772.062,10.772.137" transform="translate(-25.309 -182.643)" fill="#fafafa"/>
        <path id="Trazado_266989" data-name="Trazado 266989" d="M78.554,412.7c0,.076-4.522.137-10.1.137s-10.1-.061-10.1-.137,4.521-.138,10.1-.138,10.1.062,10.1.138" transform="translate(-26.136 -184.779)" fill="#fafafa"/>
        <path id="Trazado_266990" data-name="Trazado 266990" d="M63.446,395.385a41.478,41.478,0,0,1,0,6.749,41.478,41.478,0,0,1,0-6.749" transform="translate(-28.355 -177.085)" fill="#fafafa"/>
        <path id="Trazado_266991" data-name="Trazado 266991" d="M77.662,395.385a44.477,44.477,0,0,1,0,6.989,44.479,44.479,0,0,1,0-6.989" transform="translate(-34.722 -177.085)" fill="#fafafa"/>
        <path id="Trazado_266992" data-name="Trazado 266992" d="M91.008,395.278a46.263,46.263,0,0,1,0,7.128,46.263,46.263,0,0,1,0-7.128" transform="translate(-40.699 -177.037)" fill="#fafafa"/>
        <path id="Trazado_266993" data-name="Trazado 266993" d="M78.489,395.273c0,.076-5.657.137-12.634.137s-12.635-.061-12.635-.137,5.656-.137,12.635-.137,12.634.062,12.634.137" transform="translate(-23.836 -176.973)" fill="#fafafa"/>
        <path id="Trazado_266994" data-name="Trazado 266994" d="M398.311,402.758c-.865-.742-2.794-3.092-1.306-5.825a5.192,5.192,0,0,1,2.752-1.94,11.169,11.169,0,0,0,3.018-1.563c1.637-1.392,2.088-3.705,3.174-5.563a6.952,6.952,0,0,1,6.034-3.617c2.816.128,5.165,2.428,6.229,5.05s1.1,5.534,1.124,8.366c.012,1.566-.057,3.331-1.207,4.389-1.06.975-2.656.987-4.092.943l-15.389-.473" transform="translate(-177.566 -172.095)" fill="#f5f5f5"/>
        <path id="Trazado_266995" data-name="Trazado 266995" d="M420.294,341.128H379.822l7.291,43.471a4.853,4.853,0,0,0,3.455,3.87c.046.014.095.025.142.039.12.031.237.072.361.093a5.042,5.042,0,0,0,.823.094l.007.041.2-.031h18.039a5.056,5.056,0,0,0,.991-.1,4.874,4.874,0,0,0,4.095-4.249l3.514-29.953.158-1.191h-.019l1.392-11.862Zm-7.635,27.73h-4.154l.419-12.616h4.812Zm1.481-12.616h3.976l-1.48,12.616h-3.574Zm-11.866,26.6-.252-10.96H408l-.364,10.96Zm-6.466-10.96h5.812l.252,10.96H396.66Zm.449,10.96h-4.872c-.463-2.959-1.066-6.8-1.718-10.96h5.739Zm-.685-13.986-.98-12.616h6.667l.29,12.616Zm6.379,0-.29-12.616h6.861l-.419,12.616Zm-.36-15.642-.269-11.684h7.689l-.388,11.684Zm-.4,0h-6.832l-.908-11.684h7.471Zm-7.236,0h-7.229c-.256-1.614-.5-3.141-.718-4.515-.754-4.724-1.038-6.5-1.195-7.169h8.234Zm.235,3.026.981,12.616h-5.978c-.2-1.28-.4-2.575-.608-3.871-.469-2.978-.938-5.955-1.379-8.745Zm-5.4,12.616H384.88l-2.116-12.616H386.8c.617,3.9,1.3,8.238,1.988,12.616m.475,3.026c.6,3.793,1.182,7.532,1.718,10.96h-3.752l-1.839-10.96Zm18.781,10.96.364-10.96h4l-.937,10.96Zm.984-29.628.388-11.684h5.58l-1,11.684Zm-24.6-11.684c.161.845.9,5.442,1.889,11.684h-4.062L380.3,341.532ZM415,382.843h-3.128l.936-10.96h3.477Zm3.476-29.628H414.4l1-11.684h4.446Z" transform="translate(-170.115 -152.784)" fill="#e0e0e0"/>
        <path id="Trazado_266996" data-name="Trazado 266996" d="M377.021,1.883V54.1h-75l-2.7-51.856Z" transform="translate(-134.057 -0.843)" fill="#e0e0e0"/>
        <rect id="Rectángulo_295012" data-name="Rectángulo 295012" width="75.004" height="51.746" transform="translate(165.257 1.405)" fill="#f5f5f5"/>
        <path id="Trazado_266997" data-name="Trazado 266997" d="M374.386,54.358H298.67V1.9h75.716Zm-75-.712h74.293V2.611H299.382Z" transform="translate(-133.768 -0.851)" fill="#e0e0e0"/>
        <rect id="Rectángulo_295013" data-name="Rectángulo 295013" width="58.757" height="38.888" transform="translate(173.381 7.834)" fill="#fff"/>
        <path id="Trazado_266998" data-name="Trazado 266998" d="M372.634,14.051s-.1.007-.29.01l-.835.01-3.227.021-12.108.045-42.3.084.17-.17c0,11.882.01,25.046.015,38.884v0l-.186-.185,58.757.038-.147.147c.032-11.834.059-21.538.077-28.295.016-3.377.029-6.015.038-7.824q.011-1.34.017-2.056c.005-.466.016-.713.016-.713s.01.226.016.682.009,1.147.017,2.028c.009,1.8.021,4.428.038,7.791.018,6.779.045,16.513.077,28.386v.147h-.148l-58.757.038h-.185v-.19c.006-13.837.01-27,.015-38.884V13.88h.169l42.408.084,12.07.045,3.193.021.816.01c.182,0,.27.01.27.01" transform="translate(-140.496 -6.217)" fill="#e0e0e0"/>
        <path id="Trazado_266999" data-name="Trazado 266999" d="M299.313,2.278a6.349,6.349,0,0,1,1.29.835c.767.554,1.812,1.34,2.94,2.243s2.121,1.757,2.82,2.4a6.063,6.063,0,0,1,1.074,1.1c-.07.078-1.873-1.409-4.125-3.208a40.82,40.82,0,0,1-4-3.367" transform="translate(-134.055 -1.019)" fill="#e0e0e0"/>
        <path id="Trazado_267000" data-name="Trazado 267000" d="M428.57,2.541a36.413,36.413,0,0,1-3.947,3.36,36.328,36.328,0,0,1-4.177,3.069,36.423,36.423,0,0,1,3.947-3.36,36.432,36.432,0,0,1,4.177-3.069" transform="translate(-188.309 -1.137)" fill="#e0e0e0"/>
        <path id="Trazado_267001" data-name="Trazado 267001" d="M428.27,90.782,419.908,84" transform="translate(-188.068 -37.624)" fill="#fff"/>
        <path id="Trazado_267002" data-name="Trazado 267002" d="M419.906,84a39.275,39.275,0,0,1,4.3,3.245,39.272,39.272,0,0,1,4.065,3.533,39.279,39.279,0,0,1-4.3-3.245A39.224,39.224,0,0,1,419.906,84" transform="translate(-188.066 -37.621)" fill="#e0e0e0"/>
        <path id="Trazado_267003" data-name="Trazado 267003" d="M299.313,91.106a35.62,35.62,0,0,1,3.905-3.325,35.513,35.513,0,0,1,4.135-3.034,35.664,35.664,0,0,1-3.906,3.325,35.637,35.637,0,0,1-4.135,3.034" transform="translate(-134.055 -37.955)" fill="#e0e0e0"/>
        <rect id="Rectángulo_295014" data-name="Rectángulo 295014" width="36.971" height="13.021" transform="translate(185.311 19.95)" fill="#e0e0e0"/>
        <path id="Trazado_267004" data-name="Trazado 267004" d="M191.176,395.406v17.15h52.742v-17.15Z" transform="translate(-85.624 -177.094)" fill="#f5f5f5"/>
        <path id="Trazado_267005" data-name="Trazado 267005" d="M187.168,386.721v4.795h56.8v-4.795h-56.8Z" transform="translate(-83.829 -173.205)" fill="#ebebeb"/>
        <path id="Trazado_267006" data-name="Trazado 267006" d="M237.708,408.666h26.555v-17.15h1.844v-4.8H236.6v4.351Z" transform="translate(-105.969 -173.205)" fill="#ebebeb"/>
        <rect id="Rectángulo_295015" data-name="Rectángulo 295015" width="10.696" height="2.582" transform="translate(112.928 221.077)" fill="#e0e0e0"/>
        <rect id="Rectángulo_295016" data-name="Rectángulo 295016" width="13.734" height="5.452" transform="translate(111.553 226.886)" fill="#fff"/>
        <path id="Trazado_267007" data-name="Trazado 267007" d="M205.873,355.7V372.85h52.742V355.7Z" transform="translate(-92.206 -159.311)" fill="#f5f5f5"/>
        <path id="Trazado_267008" data-name="Trazado 267008" d="M201.865,347.016v4.795h56.8v-4.795h-56.8Z" transform="translate(-90.411 -155.421)" fill="#ebebeb"/>
        <path id="Trazado_267009" data-name="Trazado 267009" d="M252.4,368.961H278.96V351.81H280.8v-4.795H251.3v4.351Z" transform="translate(-112.551 -155.421)" fill="#ebebeb"/>
        <rect id="Rectángulo_295017" data-name="Rectángulo 295017" width="10.696" height="2.582" transform="translate(121.043 199.155)" fill="#e0e0e0"/>
        <rect id="Rectángulo_295018" data-name="Rectángulo 295018" width="13.734" height="5.452" transform="translate(119.667 204.964)" fill="#fff"/>
        <rect id="Rectángulo_295019" data-name="Rectángulo 295019" width="32.265" height="33.634" transform="translate(23.779 0.01)" fill="#e0e0e0"/>
        <rect id="Rectángulo_295020" data-name="Rectángulo 295020" width="32.265" height="33.634" transform="translate(21.595 0.01)" fill="#fafafa"/>
        <path id="Trazado_267010" data-name="Trazado 267010" d="M71.379,33.654H39.094V0H71.379Zm-32.265-.02H71.359V.02H39.114Z" transform="translate(-17.509)" fill="#e0e0e0"/>
        <rect id="Rectángulo_295021" data-name="Rectángulo 295021" width="23.59" height="24.591" transform="translate(25.932 4.532)" fill="#fafafa"/>
        <path id="Trazado_267011" data-name="Trazado 267011" d="M43.474,53.042a3.841,3.841,0,0,1-.582.677c-.377.4-.907.936-1.5,1.52s-1.139,1.106-1.542,1.475a3.739,3.739,0,0,1-.682.568,3.773,3.773,0,0,1,.579-.674c.377-.4.908-.937,1.5-1.523s1.142-1.108,1.544-1.478a3.679,3.679,0,0,1,.679-.565" transform="translate(-17.542 -23.756)" fill="#e0e0e0"/>
        <path id="Trazado_267012" data-name="Trazado 267012" d="M89.694,52.932a3.841,3.841,0,0,1,.677.582c.4.377.936.907,1.52,1.5S93,56.153,93.366,56.555a3.739,3.739,0,0,1,.568.682,3.8,3.8,0,0,1-.674-.579c-.4-.377-.937-.908-1.523-1.5s-1.108-1.142-1.478-1.544a3.679,3.679,0,0,1-.565-.679" transform="translate(-40.171 -23.707)" fill="#e0e0e0"/>
        <path id="Trazado_267013" data-name="Trazado 267013" d="M89.577,4.885a3.84,3.84,0,0,1,.582-.677c.377-.4.907-.936,1.5-1.52S92.8,1.582,93.2,1.213a3.739,3.739,0,0,1,.682-.568,3.8,3.8,0,0,1-.579.674c-.377.4-.908.937-1.5,1.523S90.658,3.95,90.256,4.32a3.679,3.679,0,0,1-.679.565" transform="translate(-40.119 -0.288)" fill="#e0e0e0"/>
        <path id="Trazado_267014" data-name="Trazado 267014" d="M43.41,4.942a3.841,3.841,0,0,1-.677-.582c-.4-.377-.936-.907-1.52-1.5s-1.106-1.139-1.475-1.542A3.739,3.739,0,0,1,39.17.637a3.8,3.8,0,0,1,.674.579c.4.377.937.908,1.523,1.5s1.108,1.142,1.478,1.544a3.679,3.679,0,0,1,.565.679" transform="translate(-17.543 -0.285)" fill="#e0e0e0"/>
        <path id="Trazado_267015" data-name="Trazado 267015" d="M70.409,32.714a1.165,1.165,0,0,1,0-.119c0-.084,0-.2-.006-.343,0-.308-.006-.751-.01-1.327-.006-1.165-.014-2.86-.024-5.012-.011-4.307-.027-10.442-.046-17.789l.091.091-23.524.014h0l.1-.1c-.006,9.026-.01,17.47-.015,24.591l-.089-.089,17.034.046,4.785.023,1.265.01.327,0a1.061,1.061,0,0,1,.114,0,.76.76,0,0,1-.1,0l-.317,0-1.249.01-4.764.024L46.883,32.8h-.09v-.09c0-7.121-.009-15.565-.015-24.591v-.1h.107l23.524.014H70.5v.091c-.019,7.37-.035,13.526-.046,17.847-.01,2.143-.018,3.831-.024,4.991,0,.568-.008,1.005-.01,1.31,0,.142,0,.252-.006.333a.841.841,0,0,1,0,.109" transform="translate(-20.951 -3.591)" fill="#e0e0e0"/>
        <rect id="Rectángulo_295022" data-name="Rectángulo 295022" width="7.872" height="7.872" transform="translate(33.791 12.891)" fill="#ebebeb"/>
      </g>
    </g>
    <g id="Grupo_238179" data-name="Grupo 238179">
      <g id="Grupo_238178" data-name="Grupo 238178" clip-path="url(#clip-path)">
        <path id="Trazado_267016" data-name="Trazado 267016" d="M258.876,426.979c0,.079-57.956.144-129.432.144-71.5,0-129.444-.064-129.444-.144s57.944-.144,129.444-.144c71.476,0,129.432.064,129.432.144" transform="translate(0 -191.171)" fill="#263238"/>
      </g>
    </g>
    <g id="Grupo_238181" data-name="Grupo 238181">
      <g id="Grupo_238197" data-name="Grupo 238197">
        <path id="Trazado_267017" data-name="Trazado 267017" d="M217.151,257.037H151.422a4.171,4.171,0,0,1-4.171-4.171V191.432a3.955,3.955,0,0,1,3.955-3.955h66.629a4,4,0,0,1,4,4v60.885a4.68,4.68,0,0,1-4.68,4.68" transform="translate(-65.951 -83.967)" fill="#fff"/>
        <rect id="Rectángulo_295025" data-name="Rectángulo 295025" width="37.721" height="37.721" transform="translate(81.3 114.801)" fill="#f5f5f5"/>
        <path id="Trazado_267018" data-name="Trazado 267018" d="M221.83,198.768H147.25v-7.336a3.955,3.955,0,0,1,3.955-3.955h66.629a4,4,0,0,1,4,4Z" transform="translate(-65.95 -83.967)" fill="#a3314f"/>
        <path id="Trazado_267019" data-name="Trazado 267019" d="M157.171,196.925a1.407,1.407,0,1,1-1.407-1.407,1.407,1.407,0,0,1,1.407,1.407" transform="translate(-69.133 -87.569)" fill="#fff"/>
        <path id="Trazado_267020" data-name="Trazado 267020" d="M164.877,196.925a1.407,1.407,0,1,1-1.407-1.407,1.407,1.407,0,0,1,1.407,1.407" transform="translate(-72.585 -87.569)" fill="#fff"/>
        <path id="Trazado_267021" data-name="Trazado 267021" d="M172.583,196.925a1.407,1.407,0,1,1-1.407-1.407,1.407,1.407,0,0,1,1.407,1.407" transform="translate(-76.036 -87.569)" fill="#fff"/>
        <path id="Trazado_267022" data-name="Trazado 267022" d="M249.151,229.55c0,.079-5.437.144-12.142.144s-12.142-.064-12.142-.144,5.435-.144,12.142-.144,12.142.064,12.142.144" transform="translate(-100.713 -102.746)" fill="#263238"/>
        <path id="Trazado_267023" data-name="Trazado 267023" d="M249.151,236.176c0,.079-5.437.144-12.142.144s-12.142-.064-12.142-.144,5.435-.144,12.142-.144,12.142.064,12.142.144" transform="translate(-100.713 -105.714)" fill="#263238"/>
        <path id="Trazado_267024" data-name="Trazado 267024" d="M249.151,242.8c0,.079-5.437.144-12.142.144s-12.142-.064-12.142-.144,5.435-.144,12.142-.144,12.142.064,12.142.144" transform="translate(-100.713 -108.682)" fill="#263238"/>
        <path id="Trazado_267025" data-name="Trazado 267025" d="M249.151,256.53c0,.079-5.437.144-12.142.144s-12.142-.064-12.142-.144,5.435-.144,12.142-.144,12.142.064,12.142.144" transform="translate(-100.713 -114.83)" fill="#263238"/>
        <path id="Trazado_267026" data-name="Trazado 267026" d="M238.637,263.156c0,.079-3.083.144-6.885.144s-6.885-.064-6.885-.144,3.082-.144,6.885-.144,6.885.064,6.885.144" transform="translate(-100.713 -117.798)" fill="#263238"/>
        <path id="Trazado_267027" data-name="Trazado 267027" d="M236.037,249.428a54.374,54.374,0,0,1-5.585.144,54.371,54.371,0,0,1-5.585-.144,54.363,54.363,0,0,1,5.585-.144,54.366,54.366,0,0,1,5.585.144" transform="translate(-100.713 -111.649)" fill="#ff725e"/>
        <path id="Trazado_267028" data-name="Trazado 267028" d="M236.037,221.419a54.371,54.371,0,0,1-5.585.144,54.368,54.368,0,0,1-5.585-.144,54.368,54.368,0,0,1,5.585-.144,54.371,54.371,0,0,1,5.585.144" transform="translate(-100.713 -99.105)" fill="#ff725e"/>
        <path id="Trazado_267029" data-name="Trazado 267029" d="M179.4,213.96a1.7,1.7,0,0,1,1.757-.892,2.33,2.33,0,0,1,2.869.013,2.072,2.072,0,0,1,3.15,1.649,1.731,1.731,0,0,1,1.554,2.9,1.664,1.664,0,0,1-.654,3.246l-8.338-4.969a1.7,1.7,0,0,1-.339-1.941" transform="translate(-80.274 -95.21)" fill="#e0e0e0"/>
        <path id="Trazado_267030" data-name="Trazado 267030" d="M185.108,222.827a7.06,7.06,0,0,0-7.132-6.39l-.366.006c-3.939.287-5.895,3.793-5.5,7.722l.762,13.119.158,2.328,9.219.878-.273-4.224s3.781-.644,3.773-4.434c0-1.831-.319-5.6-.644-9.006" transform="translate(-77.063 -96.938)" fill="#ffbe9d"/>
        <path id="Trazado_267031" data-name="Trazado 267031" d="M186.036,251.222a9.194,9.194,0,0,1-4.986-1.381s1.208,2.71,4.983,2.313Z" transform="translate(-81.089 -111.899)" fill="#eb996e"/>
        <path id="Trazado_267032" data-name="Trazado 267032" d="M192.436,233.975a.541.541,0,0,1-.513.553.518.518,0,0,1-.565-.479.542.542,0,0,1,.513-.554.519.519,0,0,1,.565.48" transform="translate(-85.705 -104.577)" fill="#263238"/>
        <path id="Trazado_267033" data-name="Trazado 267033" d="M192.53,230.941c-.066.072-.48-.226-1.062-.216s-1,.308-1.069.237c-.031-.031.035-.16.219-.3a1.488,1.488,0,0,1,.855-.277,1.428,1.428,0,0,1,.847.26c.181.135.243.262.211.294" transform="translate(-85.272 -103.186)" fill="#263238"/>
        <path id="Trazado_267034" data-name="Trazado 267034" d="M182.489,234.23a.541.541,0,0,1-.513.553.518.518,0,0,1-.565-.48.542.542,0,0,1,.513-.554.518.518,0,0,1,.565.48" transform="translate(-81.25 -104.691)" fill="#263238"/>
        <path id="Trazado_267035" data-name="Trazado 267035" d="M182.167,231.289c-.066.072-.481-.226-1.063-.216s-1,.308-1.069.237c-.031-.031.034-.159.219-.3a1.481,1.481,0,0,1,.854-.277,1.424,1.424,0,0,1,.848.26c.181.134.243.261.211.293" transform="translate(-80.631 -103.342)" fill="#263238"/>
        <path id="Trazado_267036" data-name="Trazado 267036" d="M187.565,235.57a3.837,3.837,0,0,1,.943-.184c.149-.018.289-.049.313-.151a.756.756,0,0,0-.106-.439l-.456-1.126a19.478,19.478,0,0,1-1.03-2.947,19.549,19.549,0,0,1,1.265,2.857q.229.593.438,1.133a.857.857,0,0,1,.086.582.373.373,0,0,1-.241.221,1.013,1.013,0,0,1-.252.039,3.8,3.8,0,0,1-.958.015" transform="translate(-83.853 -103.336)" fill="#263238"/>
        <path id="Trazado_267037" data-name="Trazado 267037" d="M184.677,240.278c.094-.007.1.625.653,1.066s1.219.362,1.225.45c.009.039-.148.125-.432.137a1.577,1.577,0,0,1-1.023-.34,1.371,1.371,0,0,1-.506-.894c-.028-.264.04-.422.083-.419" transform="translate(-82.673 -107.616)" fill="#263238"/>
        <path id="Trazado_267038" data-name="Trazado 267038" d="M181.961,227.26c-.055.159-.638.093-1.32.185s-1.232.287-1.325.146c-.041-.067.052-.218.273-.374a2.315,2.315,0,0,1,2.014-.252c.252.1.38.22.357.3" transform="translate(-80.308 -101.597)" fill="#e0e0e0"/>
        <path id="Trazado_267039" data-name="Trazado 267039" d="M192.223,227.866c-.1.134-.5,0-.986,0-.483-.016-.889.1-.986-.035-.042-.066.02-.2.2-.327a1.427,1.427,0,0,1,1.588.026c.172.134.23.269.186.334" transform="translate(-85.204 -101.793)" fill="#e0e0e0"/>
        <path id="Trazado_267040" data-name="Trazado 267040" d="M183.981,220.716s-1.034-2.358-2.186-2.9c-1.4-.65-1.969.879-3.294.529s-2.657-.973-3.991.066c-1.46,1.138-.756,1.912-.823,3.594-.271,6.821-1.487,8.767-1.888,5.562-.044-.351-1.025-.617-1.191-2.1a16.732,16.732,0,0,1,.087-5.637,5.4,5.4,0,0,1,2.157-2.859c1.84-1.413,4.395-1.48,6.133-1.331s5.112,2.1,5,5.071" transform="translate(-76.325 -96.558)" fill="#e0e0e0"/>
        <path id="Trazado_267041" data-name="Trazado 267041" d="M171.287,236.3a1.028,1.028,0,0,0-1.125-.975c-.706.078-1.486.49-1.418,1.95a1.948,1.948,0,0,0,2.7,1.86c0-.051-.093-1.751-.153-2.835" transform="translate(-75.575 -105.396)" fill="#ffbe9d"/>
        <path id="Trazado_267042" data-name="Trazado 267042" d="M171.553,238.872c-.012-.008-.044.034-.118.072a.451.451,0,0,1-.337.023,1.118,1.118,0,0,1-.563-.978,1.486,1.486,0,0,1,.1-.652.521.521,0,0,1,.323-.362.23.23,0,0,1,.272.111c.038.071.024.123.038.127s.054-.046.028-.152a.29.29,0,0,0-.109-.157.341.341,0,0,0-.252-.054.633.633,0,0,0-.453.423,1.53,1.53,0,0,0-.123.729,1.172,1.172,0,0,0,.71,1.088.481.481,0,0,0,.409-.088c.077-.067.088-.126.079-.13" transform="translate(-76.296 -106.078)" fill="#eb996e"/>
        <path id="Trazado_267043" data-name="Trazado 267043" d="M171.264,221.728a2.46,2.46,0,0,0,1.1.491.845.845,0,0,0,.929-.608c.028-.181-.019-.389.1-.53.139-.168.4-.12.618-.1a1.654,1.654,0,0,0,1.7-1.21.694.694,0,0,0,.932.075,3.708,3.708,0,0,0,.695-.765,1.067,1.067,0,0,1,.883-.458,2.562,2.562,0,0,0,.565.116c.34-.035.5-.436.547-.774s.081-.733.367-.921a1.354,1.354,0,0,1,.926-.039c.314.041.717-.038.792-.346a.615.615,0,0,0-.123-.468,1.678,1.678,0,0,0-1.989-.606,2.274,2.274,0,0,0-4.185-.38,2.308,2.308,0,0,0-3.677.895,1.673,1.673,0,0,0-1.851,2.461,1.588,1.588,0,0,0-.855,1.278.909.909,0,0,0,1.044.914.926.926,0,0,0,1.615.9" transform="translate(-75.574 -95.841)" fill="#e0e0e0"/>
        <path id="Trazado_267044" data-name="Trazado 267044" d="M170.278,226.232a.622.622,0,0,0,.168.5.833.833,0,0,0,.524.3.9.9,0,0,0,.735-.226l-.11-.014a2.6,2.6,0,0,0,.526.638,1.488,1.488,0,0,0,.476.287,1.15,1.15,0,0,0,1.263-.4,1.5,1.5,0,0,0,.2-.542.5.5,0,0,0,.017-.21c-.011,0-.032.07-.073.2a1.74,1.74,0,0,1-.232.5,1.056,1.056,0,0,1-1.556.059,2.588,2.588,0,0,1-.5-.6l-.047-.076-.063.061a.786.786,0,0,1-.622.208.762.762,0,0,1-.473-.24,1.268,1.268,0,0,1-.235-.437" transform="translate(-76.26 -101.325)" fill="#fff"/>
        <path id="Trazado_267045" data-name="Trazado 267045" d="M178.993,214.565c0,.009.068.017.184.065a.889.889,0,0,1,.407.336l.032.049.035-.049a3.23,3.23,0,0,1,1.238-1.032,2.515,2.515,0,0,1,1.016-.239,2.1,2.1,0,0,1,1.1.3,2.132,2.132,0,0,1,.663.61,1.752,1.752,0,0,1,.3.777l.009.082.078-.023a1.454,1.454,0,0,1,1.078.115,1.417,1.417,0,0,1,.6.623,1.934,1.934,0,0,1,.173.765.512.512,0,0,0,.028-.212,1.446,1.446,0,0,0-.125-.588,1.48,1.48,0,0,0-.618-.689,1.556,1.556,0,0,0-1.172-.146l.087.059a1.868,1.868,0,0,0-.312-.845,2.252,2.252,0,0,0-.707-.656,2.222,2.222,0,0,0-1.18-.313,2.6,2.6,0,0,0-1.07.265,3.147,3.147,0,0,0-1.248,1.1h.067a.881.881,0,0,0-.46-.331.394.394,0,0,0-.2-.024" transform="translate(-80.167 -95.645)" fill="#fff"/>
        <path id="Trazado_267046" data-name="Trazado 267046" d="M183.116,240.3c.042,0,.054-.274.271-.5s.48-.272.477-.314c0-.018-.073-.039-.19-.017a.77.77,0,0,0-.591.645c-.012.119.015.19.034.188" transform="translate(-81.998 -107.248)" fill="#eb996e"/>
        <path id="Trazado_267047" data-name="Trazado 267047" d="M182.7,239.44c.036.022.129-.07.266-.133s.264-.083.27-.125-.155-.1-.335-.01-.239.251-.2.268" transform="translate(-81.824 -107.1)" fill="#eb996e"/>
        <path id="Trazado_267048" data-name="Trazado 267048" d="M177.1,248.92c0-.012-.038-.019-.07-.067a.226.226,0,0,1-.009-.229c.041-.1.157-.187.235-.355a.339.339,0,0,0-.007-.3,2.129,2.129,0,0,0-.169-.219c-.2-.256.382-.439.3-.768a.4.4,0,0,0-.143-.275c-.059-.045-.1-.049-.1-.041a.526.526,0,0,1,.142.321.4.4,0,0,1-.188.308.664.664,0,0,0-.173.217.318.318,0,0,0,.04.325c.062.086.13.142.163.2a.2.2,0,0,1,.008.181c-.047.128-.162.236-.2.368a.279.279,0,0,0,.065.308c.063.052.114.034.112.027" transform="translate(-79.223 -110.475)" fill="#eb996e"/>
        <path id="Trazado_267049" data-name="Trazado 267049" d="M175.7,248.715c.012,0,.012-.038.033-.094a.878.878,0,0,1,.141-.219,1.051,1.051,0,0,0,.11-.167.371.371,0,0,0,.035-.253c-.045-.186-.2-.3-.272-.435s-.012-.244.1-.358a.776.776,0,0,0,.137-.192.451.451,0,0,0,.039-.211c-.025-.27-.207-.348-.207-.329a.678.678,0,0,1,.1.329.44.44,0,0,1-.171.308.669.669,0,0,0-.158.214.356.356,0,0,0,.03.31c.1.171.239.275.268.4s-.041.23-.1.329a.646.646,0,0,0-.111.266c-.006.072.016.108.024.106" transform="translate(-78.633 -110.383)" fill="#eb996e"/>
        <path id="Trazado_267050" data-name="Trazado 267050" d="M181.264,259.591c-.995-.665-8.359-4.061-8.359-4.061a18.2,18.2,0,0,1-9.426-.477s-7.779,2.71-8.981,3.575c-.942.679-2.967,8.255-2.967,8.255l32.9-.128s-2.17-6.5-3.165-7.164" transform="translate(-67.868 -114.233)" fill="#a3314f"/>
        <path id="Trazado_267051" data-name="Trazado 267051" d="M163.98,272.73a18.281,18.281,0,0,1-.205-4.571,18.284,18.284,0,0,1,.205,4.571" transform="translate(-73.318 -120.103)" fill="#263238"/>
        <path id="Trazado_267052" data-name="Trazado 267052" d="M201.315,271.919a11.38,11.38,0,0,1-.21-4.362,31.391,31.391,0,0,1,.21,4.362" transform="translate(-90.015 -119.833)" fill="#263238"/>
        <path id="Trazado_267053" data-name="Trazado 267053" d="M217.051,296.8H151.2a4.171,4.171,0,0,1-4.171-4.171V276.248h74.7v15.868a4.68,4.68,0,0,1-4.68,4.68" transform="translate(-65.851 -123.726)" fill="#ebebeb"/>
        <path id="Trazado_267054" data-name="Trazado 267054" d="M163.7,286.286a28.043,28.043,0,0,1-4.006.144,28.042,28.042,0,0,1-4.007-.144,28.039,28.039,0,0,1,4.007-.144,28.04,28.04,0,0,1,4.006.144" transform="translate(-69.73 -128.157)" fill="#263238"/>
        <path id="Trazado_267055" data-name="Trazado 267055" d="M180.9,291.58c0,.079-5.678.144-12.679.144s-12.68-.065-12.68-.144,5.676-.144,12.68-.144,12.679.064,12.679.144" transform="translate(-69.665 -130.528)" fill="#263238"/>
        <path id="Trazado_267056" data-name="Trazado 267056" d="M180.9,297.547c0,.079-5.678.144-12.679.144s-12.68-.064-12.68-.144,5.676-.144,12.68-.144,12.679.064,12.679.144" transform="translate(-69.665 -133.201)" fill="#263238"/>
        <path id="Trazado_267057" data-name="Trazado 267057" d="M173.283,303.514c0,.079-3.971.144-8.869.144s-8.87-.064-8.87-.144,3.97-.144,8.87-.144,8.869.064,8.869.144" transform="translate(-69.665 -135.873)" fill="#263238"/>
        <path id="Trazado_267058" data-name="Trazado 267058" d="M231.147,286.286a55.992,55.992,0,0,1-8.013,0,55.98,55.98,0,0,1,8.013,0" transform="translate(-99.937 -128.157)" fill="#263238"/>
        <path id="Trazado_267059" data-name="Trazado 267059" d="M248.347,291.58c0,.079-5.677.144-12.679.144s-12.681-.065-12.681-.144,5.676-.144,12.681-.144,12.679.064,12.679.144" transform="translate(-99.872 -130.528)" fill="#263238"/>
        <path id="Trazado_267060" data-name="Trazado 267060" d="M248.347,297.547c0,.079-5.677.144-12.679.144s-12.681-.064-12.681-.144,5.676-.144,12.681-.144,12.679.064,12.679.144" transform="translate(-99.872 -133.201)" fill="#263238"/>
        <path id="Trazado_267061" data-name="Trazado 267061" d="M240.727,303.514c0,.079-3.971.144-8.869.144s-8.87-.064-8.87-.144,3.97-.144,8.87-.144,8.869.064,8.869.144" transform="translate(-99.872 -135.873)" fill="#263238"/>
        <path id="Trazado_267062" data-name="Trazado 267062" d="M217.026,256.919c0-.016.248,0,.72-.076a4.662,4.662,0,0,0,3.8-3.592,10.141,10.141,0,0,0,.108-2.191q0-1.183-.007-2.517c-.011-7.116-.026-17.405-.046-30.117-.005-6.358-.011-13.322-.018-20.8q0-2.8,0-5.7a6.227,6.227,0,0,0-.1-1.42,3.768,3.768,0,0,0-.554-1.3,3.882,3.882,0,0,0-2.3-1.609,5.652,5.652,0,0,0-1.459-.114h-1.509l-3.05,0-6.225,0-54.695.012a5.358,5.358,0,0,0-1.756.174,3.906,3.906,0,0,0-1.488.882,3.949,3.949,0,0,0-1.182,3.163q0,3.593,0,7.138,0,7.087,0,13.955c0,9.149-.006,17.974-.008,26.381q0,6.306-.006,12.285c0,.495-.012,1,.01,1.481a4.012,4.012,0,0,0,2.229,3.4,3.909,3.909,0,0,0,1.334.4c.457.046.943.025,1.416.031l2.828,0,20.8.018,30.115.046,8.187.027,2.13.014c.48,0,.725.015.725.015s-.246.01-.725.015l-2.13.014-8.187.027-30.115.046-20.8.018-2.828,0c-.476,0-.947.018-1.444-.03a4.149,4.149,0,0,1-1.416-.422,4.26,4.26,0,0,1-2.37-3.61c-.023-.507-.007-.994-.012-1.495q0-5.974-.006-12.285c0-8.407-.006-17.232-.008-26.381q0-6.862,0-13.955,0-3.544,0-7.138a4.244,4.244,0,0,1,1.27-3.37,4.194,4.194,0,0,1,1.6-.949,5.639,5.639,0,0,1,1.842-.188l54.695.011,6.225,0h4.56a5.879,5.879,0,0,1,1.519.124,4.129,4.129,0,0,1,2.446,1.715,4.028,4.028,0,0,1,.589,1.383,6.434,6.434,0,0,1,.1,1.474q0,2.9,0,5.7c-.006,7.476-.012,14.44-.018,20.8-.019,12.712-.035,23-.045,30.117q0,1.333-.007,2.517a10.176,10.176,0,0,1-.123,2.21,4.726,4.726,0,0,1-1.909,2.825,4.646,4.646,0,0,1-1.973.776,3.459,3.459,0,0,1-.542.045c-.121,0-.183,0-.183,0" transform="translate(-65.826 -83.849)" fill="#263238"/>
        <path id="Trazado_267063" data-name="Trazado 267063" d="M96.4,173.952H30.67a4.171,4.171,0,0,1-4.171-4.171V108.347a3.955,3.955,0,0,1,3.955-3.955H97.083a4,4,0,0,1,4,4v60.885a4.68,4.68,0,0,1-4.68,4.68" transform="translate(-11.868 -46.755)" fill="#fff"/>
        <rect id="Rectángulo_295026" data-name="Rectángulo 295026" width="37.721" height="37.721" transform="translate(14.631 68.928)" fill="#f5f5f5"/>
        <path id="Trazado_267064" data-name="Trazado 267064" d="M101.078,115.683H26.5v-7.336a3.956,3.956,0,0,1,3.955-3.955H97.083a4,4,0,0,1,4,4Z" transform="translate(-11.868 -46.755)" fill="#a3314f"/>
        <path id="Trazado_267065" data-name="Trazado 267065" d="M36.42,113.84a1.407,1.407,0,1,1-1.407-1.407,1.407,1.407,0,0,1,1.407,1.407" transform="translate(-15.051 -50.356)" fill="#fff"/>
        <path id="Trazado_267066" data-name="Trazado 267066" d="M44.126,113.84a1.407,1.407,0,1,1-1.407-1.407,1.407,1.407,0,0,1,1.407,1.407" transform="translate(-18.503 -50.356)" fill="#fff"/>
        <path id="Trazado_267067" data-name="Trazado 267067" d="M51.831,113.84a1.407,1.407,0,1,1-1.407-1.407,1.407,1.407,0,0,1,1.407,1.407" transform="translate(-21.954 -50.356)" fill="#fff"/>
        <path id="Trazado_267068" data-name="Trazado 267068" d="M128.4,146.465c0,.08-5.437.144-12.142.144s-12.142-.064-12.142-.144,5.435-.144,12.142-.144,12.142.064,12.142.144" transform="translate(-46.631 -65.534)" fill="#263238"/>
        <path id="Trazado_267069" data-name="Trazado 267069" d="M128.4,153.091c0,.08-5.437.144-12.142.144s-12.142-.064-12.142-.144,5.435-.144,12.142-.144,12.142.064,12.142.144" transform="translate(-46.631 -68.502)" fill="#263238"/>
        <path id="Trazado_267070" data-name="Trazado 267070" d="M128.4,159.717c0,.079-5.437.144-12.142.144s-12.142-.064-12.142-.144,5.435-.144,12.142-.144,12.142.064,12.142.144" transform="translate(-46.631 -71.469)" fill="#263238"/>
        <path id="Trazado_267071" data-name="Trazado 267071" d="M128.4,173.445c0,.079-5.437.144-12.142.144s-12.142-.064-12.142-.144,5.435-.144,12.142-.144,12.142.064,12.142.144" transform="translate(-46.631 -77.618)" fill="#263238"/>
        <path id="Trazado_267072" data-name="Trazado 267072" d="M117.885,180.071c0,.079-3.083.144-6.885.144s-6.885-.064-6.885-.144,3.082-.144,6.885-.144,6.885.064,6.885.144" transform="translate(-46.631 -80.586)" fill="#263238"/>
        <path id="Trazado_267073" data-name="Trazado 267073" d="M115.285,166.343a54.373,54.373,0,0,1-5.585.144,54.371,54.371,0,0,1-5.585-.144,54.368,54.368,0,0,1,5.585-.144,54.37,54.37,0,0,1,5.585.144" transform="translate(-46.631 -74.437)" fill="#ff725e"/>
        <path id="Trazado_267074" data-name="Trazado 267074" d="M115.285,138.334a54.37,54.37,0,0,1-5.585.144,54.368,54.368,0,0,1-5.585-.144,54.368,54.368,0,0,1,5.585-.144,54.37,54.37,0,0,1,5.585.144" transform="translate(-46.631 -61.892)" fill="#ff725e"/>
        <path id="Trazado_267075" data-name="Trazado 267075" d="M44.26,170.628l3.752-.313s2.07,2.729,4.885,2.517,3.122-2.1,3.122-2.1,5.022.966,7.75,3.853l.062.079,3.612,8.266H42.521Z" transform="translate(-19.044 -76.281)" fill="#455a64"/>
        <path id="Trazado_267076" data-name="Trazado 267076" d="M39.227,170.835a11.18,11.18,0,0,0-3.139,1.015c-2.651,1.559-4.961,11.312-4.961,11.312h7.39a28.862,28.862,0,0,0,2.9-5.75,18.586,18.586,0,0,0-.255-3.7s-1.935-2.816-1.936-2.879" transform="translate(-13.941 -76.514)" fill="#455a64"/>
        <path id="Trazado_267077" data-name="Trazado 267077" d="M77.657,188.561c-.056,0-.058-.6-.23-1.312s-.428-1.256-.376-1.28a2.875,2.875,0,0,1,.554,1.237,2.661,2.661,0,0,1,.052,1.354" transform="translate(-34.507 -83.292)" fill="#263238"/>
        <path id="Trazado_267078" data-name="Trazado 267078" d="M44.516,186.717a7.834,7.834,0,0,1,.183-1.02,24.818,24.818,0,0,0,.35-2.465c.085-.97.1-1.851.1-2.49a7.043,7.043,0,0,1,.023-1.037,4.955,4.955,0,0,1,.106,1.034,18.9,18.9,0,0,1-.052,2.509,16.813,16.813,0,0,1-.406,2.477,4.693,4.693,0,0,1-.31.993" transform="translate(-19.936 -80.486)" fill="#263238"/>
        <path id="Trazado_267079" data-name="Trazado 267079" d="M96.3,213.711H30.448a4.171,4.171,0,0,1-4.171-4.171V193.163h74.7v15.868a4.68,4.68,0,0,1-4.68,4.68" transform="translate(-11.769 -86.514)" fill="#ebebeb"/>
        <path id="Trazado_267080" data-name="Trazado 267080" d="M42.95,203.2a28.035,28.035,0,0,1-4.006.144,28.033,28.033,0,0,1-4.007-.144,28.04,28.04,0,0,1,4.007-.144,28.042,28.042,0,0,1,4.006.144" transform="translate(-15.648 -90.946)" fill="#263238"/>
        <path id="Trazado_267081" data-name="Trazado 267081" d="M60.151,208.495c0,.08-5.677.144-12.679.144s-12.681-.064-12.681-.144,5.676-.144,12.681-.144,12.679.064,12.679.144" transform="translate(-15.583 -93.316)" fill="#263238"/>
        <path id="Trazado_267082" data-name="Trazado 267082" d="M60.151,214.462c0,.079-5.677.144-12.679.144s-12.681-.064-12.681-.144,5.676-.144,12.681-.144,12.679.064,12.679.144" transform="translate(-15.583 -95.989)" fill="#263238"/>
        <path id="Trazado_267083" data-name="Trazado 267083" d="M52.531,220.429c0,.079-3.971.144-8.869.144s-8.87-.064-8.87-.144,3.97-.144,8.87-.144,8.869.064,8.869.144" transform="translate(-15.583 -98.661)" fill="#263238"/>
        <path id="Trazado_267084" data-name="Trazado 267084" d="M110.395,203.2a28.035,28.035,0,0,1-4.006.144,28.033,28.033,0,0,1-4.007-.144,28.04,28.04,0,0,1,4.007-.144,28.041,28.041,0,0,1,4.006.144" transform="translate(-45.855 -90.946)" fill="#263238"/>
        <path id="Trazado_267085" data-name="Trazado 267085" d="M127.6,208.495c0,.08-5.677.144-12.679.144s-12.681-.064-12.681-.144,5.676-.144,12.681-.144,12.679.064,12.679.144" transform="translate(-45.789 -93.316)" fill="#263238"/>
        <path id="Trazado_267086" data-name="Trazado 267086" d="M127.6,214.462c0,.079-5.677.144-12.679.144s-12.681-.064-12.681-.144,5.676-.144,12.681-.144,12.679.064,12.679.144" transform="translate(-45.789 -95.989)" fill="#263238"/>
        <path id="Trazado_267087" data-name="Trazado 267087" d="M119.976,220.429c0,.079-3.971.144-8.869.144s-8.87-.064-8.87-.144,3.97-.144,8.87-.144,8.869.064,8.869.144" transform="translate(-45.79 -98.661)" fill="#263238"/>
        <path id="Trazado_267088" data-name="Trazado 267088" d="M96.274,173.834c0-.016.248,0,.72-.076a4.66,4.66,0,0,0,3.8-3.592,10.141,10.141,0,0,0,.108-2.191q0-1.183-.007-2.517c-.011-7.116-.027-17.405-.046-30.117,0-6.358-.011-13.322-.018-20.8q0-2.8,0-5.7a6.259,6.259,0,0,0-.1-1.42,3.786,3.786,0,0,0-.555-1.3,3.883,3.883,0,0,0-2.3-1.608,5.65,5.65,0,0,0-1.459-.114H94.913l-3.05,0-6.225,0-54.695.012a5.359,5.359,0,0,0-1.756.174,3.906,3.906,0,0,0-1.488.882,3.951,3.951,0,0,0-1.182,3.163q0,3.593,0,7.138,0,7.087,0,13.955c0,9.149-.006,17.974-.008,26.381q0,6.306-.006,12.285c0,.495-.012,1,.01,1.481a4.012,4.012,0,0,0,2.229,3.4,3.911,3.911,0,0,0,1.334.4c.457.046.942.025,1.416.031l2.828,0,20.8.018,30.115.046,8.187.027,2.13.014c.48,0,.725.015.725.015s-.246.01-.725.015l-2.13.014-8.187.027-30.115.046-20.8.018-2.828,0c-.476,0-.947.018-1.444-.03a4.148,4.148,0,0,1-1.416-.422,4.26,4.26,0,0,1-2.37-3.61c-.023-.507-.007-.994-.012-1.495q0-5.974-.006-12.285c0-8.407-.006-17.232-.008-26.381q0-6.862,0-13.955,0-3.544,0-7.138a4.242,4.242,0,0,1,1.27-3.37,4.188,4.188,0,0,1,1.6-.949,5.639,5.639,0,0,1,1.842-.188l54.695.011,6.225,0,3.05,0h1.509a5.9,5.9,0,0,1,1.519.124,4.129,4.129,0,0,1,2.446,1.715,4.017,4.017,0,0,1,.589,1.383,6.434,6.434,0,0,1,.1,1.474q0,2.9,0,5.7c-.006,7.476-.012,14.44-.018,20.8-.019,12.712-.035,23-.045,30.117q0,1.333-.007,2.517a10.142,10.142,0,0,1-.123,2.21,4.727,4.727,0,0,1-1.909,2.825,4.638,4.638,0,0,1-1.973.776,3.457,3.457,0,0,1-.542.045c-.121,0-.183,0-.183,0" transform="translate(-11.743 -46.637)" fill="#263238"/>
        <path id="Trazado_267089" data-name="Trazado 267089" d="M47.684,134.948a9.227,9.227,0,0,1,7.141-3.547,9.932,9.932,0,0,1,3.462.624,5.124,5.124,0,0,1,2.919,1.927,8.551,8.551,0,0,1,1.68,3.911,24,24,0,0,1,.211,4.408,8.041,8.041,0,0,1-1.378,4.14l-3.746.649a23.616,23.616,0,0,1-6.181-.333,7.938,7.938,0,0,1-5.052-3.315c-1.5-2.449-.877-6.243.944-8.464" transform="translate(-20.557 -58.851)" fill="#263238"/>
        <path id="Trazado_267090" data-name="Trazado 267090" d="M72.5,159.628c-.007.009.061.092.224.2a1.839,1.839,0,0,0,.772.26,2,2,0,0,0,1.19-.241,1.992,1.992,0,0,0,.721-2.66,2,2,0,0,0-.907-.807,1.849,1.849,0,0,0-.8-.163.575.575,0,0,0-.292.057,2.81,2.81,0,0,1,1.021.248,1.931,1.931,0,0,1,.8.766,1.834,1.834,0,0,1-.645,2.382,1.936,1.936,0,0,1-1.074.261,2.8,2.8,0,0,1-1.008-.3" transform="translate(-32.47 -69.964)" fill="#e0e0e0"/>
        <path id="Trazado_267091" data-name="Trazado 267091" d="M42.541,155.54a2.79,2.79,0,0,1,1.268-2.1,2.017,2.017,0,0,1,2.365.2l.589.7a2.413,2.413,0,0,1,1.391,2.433,2.647,2.647,0,0,1-1.837,2.163,2.938,2.938,0,0,1-2.792-.673,3.277,3.277,0,0,1-.982-2.724" transform="translate(-19.045 -68.593)" fill="#263238"/>
        <path id="Trazado_267092" data-name="Trazado 267092" d="M43.633,158.814a1.265,1.265,0,0,1-.2-.744,3.375,3.375,0,0,1,.857-1.68,5.068,5.068,0,0,1,1.5-1.2c.439-.235.74-.321.731-.352a2.056,2.056,0,0,0-.788.235,4.515,4.515,0,0,0-1.583,1.2,4.417,4.417,0,0,0-.606.919,2.016,2.016,0,0,0-.242.876,1.054,1.054,0,0,0,.168.592c.084.121.157.163.163.155" transform="translate(-19.394 -69.347)" fill="#455a64"/>
        <path id="Trazado_267093" data-name="Trazado 267093" d="M47.036,160.228a6.586,6.586,0,0,1,1.233-4.7,1.994,1.994,0,0,0-.495.554,5.191,5.191,0,0,0-.9,3.422,2,2,0,0,0,.159.725" transform="translate(-20.985 -69.657)" fill="#455a64"/>
        <path id="Trazado_267094" data-name="Trazado 267094" d="M60.9,155.464s-.02-3.473-.02-3.467,3.054-.336,3.9-4.242a42.06,42.06,0,0,0,.476-7.8c-.019-2.372-2.043-5.6-4.978-5.613l-1.3-.151-4.993,1.98a1.39,1.39,0,0,0-1.32,1.338l-.15,16.684,8.343,11.693Z" transform="translate(-23.516 -60.103)" fill="#b56760"/>
        <path id="Trazado_267095" data-name="Trazado 267095" d="M64.09,156.516a.83.83,0,0,1,.288-.513.853.853,0,0,1,1.033-.059,1.138,1.138,0,0,1,.433,1.069,1.04,1.04,0,0,1-.742.43,1.306,1.306,0,0,1-.14,0,.936.936,0,0,1-.628-.248.827.827,0,0,1-.245-.683" transform="translate(-28.702 -69.779)" fill="#8a4a43"/>
        <path id="Trazado_267096" data-name="Trazado 267096" d="M71.785,149.169a.506.506,0,0,1-.516.483.484.484,0,0,1-.5-.484.506.506,0,0,1,.516-.483.485.485,0,0,1,.5.484" transform="translate(-31.697 -66.593)" fill="#263238"/>
        <path id="Trazado_267097" data-name="Trazado 267097" d="M72.21,146.807c-.066.062-.435-.242-.979-.271s-.96.222-1.015.152c-.028-.031.043-.147.224-.264a1.4,1.4,0,0,1,.817-.2,1.342,1.342,0,0,1,.775.3c.161.137.211.26.178.288" transform="translate(-31.445 -65.489)" fill="#263238"/>
        <path id="Trazado_267098" data-name="Trazado 267098" d="M67.623,151.059a3.642,3.642,0,0,1,.894-.111c.14-.007.273-.027.3-.12a.706.706,0,0,0-.071-.417l-.353-1.08a18.133,18.133,0,0,1-.772-2.816,18.15,18.15,0,0,1,1,2.747q.176.568.336,1.085A.806.806,0,0,1,69,150.9a.351.351,0,0,1-.24.19.965.965,0,0,1-.238.02,3.561,3.561,0,0,1-.9-.048" transform="translate(-30.284 -65.621)" fill="#263238"/>
        <path id="Trazado_267099" data-name="Trazado 267099" d="M63.442,165.06a10.078,10.078,0,0,1-5.211-1.7s1.259,2.808,5.231,2.656Z" transform="translate(-26.08 -73.167)" fill="#8a4a43"/>
        <path id="Trazado_267100" data-name="Trazado 267100" d="M64.6,155.267c.089,0,.057.59.541,1.037s1.116.416,1.116.5c.006.038-.147.107-.414.1a1.477,1.477,0,0,1-.934-.383,1.282,1.282,0,0,1-.416-.867c-.009-.248.065-.39.105-.385" transform="translate(-28.886 -69.541)" fill="#263238"/>
        <path id="Trazado_267101" data-name="Trazado 267101" d="M72,143.146c-.1.128-.511.016-1,.03-.49,0-.9.12-1-.006-.045-.061.016-.188.192-.312a1.553,1.553,0,0,1,1.614-.019c.178.12.24.245.2.307" transform="translate(-31.344 -63.878)" fill="#263238"/>
        <path id="Trazado_267102" data-name="Trazado 267102" d="M61.55,149.133a.507.507,0,0,0,.48.519.485.485,0,0,0,.531-.447.507.507,0,0,0-.48-.519.485.485,0,0,0-.531.447" transform="translate(-27.567 -66.593)" fill="#263238"/>
        <path id="Trazado_267103" data-name="Trazado 267103" d="M60.3,146.513c.062.067.451-.21,1-.2s.941.29,1,.224c.03-.029-.033-.149-.2-.279a1.4,1.4,0,0,0-.8-.262,1.335,1.335,0,0,0-.795.241c-.17.125-.229.243-.2.274" transform="translate(-27.004 -65.389)" fill="#263238"/>
        <path id="Trazado_267104" data-name="Trazado 267104" d="M59.726,144.371c.105.125.528,0,1.035.007.506-.013.933.1,1.034-.028.044-.062-.021-.187-.206-.308a1.563,1.563,0,0,0-.838-.217,1.544,1.544,0,0,0-.829.234c-.182.124-.242.25-.2.311" transform="translate(-26.743 -64.417)" fill="#263238"/>
        <path id="Trazado_267105" data-name="Trazado 267105" d="M51.676,151.28c.015-.294-.287-1-.574-1.065A1.714,1.714,0,0,0,48.81,152a2.026,2.026,0,0,0,2.58,2.221c.008-.06.232-1.93.285-2.943" transform="translate(-21.858 -67.248)" fill="#b56760"/>
        <path id="Trazado_267106" data-name="Trazado 267106" d="M51.327,153.919c-.011-.009-.049.03-.13.061a.471.471,0,0,1-.351-.014,1.16,1.16,0,0,1-.473-1.072,1.555,1.555,0,0,1,.172-.662.541.541,0,0,1,.375-.337.239.239,0,0,1,.269.145c.031.077.011.13.025.135s.06-.041.045-.153a.3.3,0,0,0-.1-.175.358.358,0,0,0-.255-.084.659.659,0,0,0-.515.386,1.59,1.59,0,0,0-.209.738,1.216,1.216,0,0,0,.612,1.2.5.5,0,0,0,.433-.045c.087-.061.1-.12.1-.126" transform="translate(-22.477 -67.971)" fill="#8a4a43"/>
        <path id="Trazado_267107" data-name="Trazado 267107" d="M51.607,142.733l.684.708c2.953-2.82,8.724-9.882,8.4-9.462a8.616,8.616,0,0,0-4.219-.457c-2.2.373-6.36,1.47-6.3,4.054a13.459,13.459,0,0,0,1.429,5.157" transform="translate(-22.473 -59.759)" fill="#263238"/>
        <path id="Trazado_267108" data-name="Trazado 267108" d="M50.324,159.628c.007.009-.061.092-.224.2a1.839,1.839,0,0,1-.772.26,2,2,0,0,1-1.19-.241,1.992,1.992,0,0,1-.721-2.66,2,2,0,0,1,.907-.807,1.85,1.85,0,0,1,.8-.163.575.575,0,0,1,.292.057,2.81,2.81,0,0,0-1.021.248,1.931,1.931,0,0,0-.8.766,1.834,1.834,0,0,0,.645,2.382,1.936,1.936,0,0,0,1.074.261,2.8,2.8,0,0,0,1.008-.3" transform="translate(-21.127 -69.964)" fill="#e0e0e0"/>
        <path id="Trazado_267109" data-name="Trazado 267109" d="M45.683,142.088a.728.728,0,0,1,.041-.155,2.732,2.732,0,0,1,.184-.423,3.912,3.912,0,0,1,1.125-1.263,7.37,7.37,0,0,1,2.265-1.087c.9-.293,1.915-.52,2.911-.946a13.2,13.2,0,0,0,2.659-1.486,13.781,13.781,0,0,0,1.877-1.637,14.466,14.466,0,0,0,1.085-1.285l.27-.37a.682.682,0,0,1,.1-.125.75.75,0,0,1-.078.14c-.056.088-.135.222-.25.386a12.223,12.223,0,0,1-1.057,1.32,13.162,13.162,0,0,1-1.873,1.673,12.9,12.9,0,0,1-2.681,1.511,29.716,29.716,0,0,1-2.926.94,7.479,7.479,0,0,0-2.245,1.045,4.035,4.035,0,0,0-1.136,1.211c-.2.343-.258.558-.272.553" transform="translate(-20.46 -59.706)" fill="#455a64"/>
        <path id="Trazado_267110" data-name="Trazado 267110" d="M47.1,142.976a1.413,1.413,0,0,1,.1-.587,2.743,2.743,0,0,1,1.011-1.264,6.09,6.09,0,0,1,2.246-.878,13.332,13.332,0,0,0,2.79-.884,11.852,11.852,0,0,0,2.488-1.533,12.136,12.136,0,0,0,1.706-1.673,12.785,12.785,0,0,0,.951-1.3l.228-.377a.648.648,0,0,1,.088-.127.651.651,0,0,1-.063.14c-.055.1-.123.232-.206.391a10.992,10.992,0,0,1-.921,1.338,11.592,11.592,0,0,1-4.212,3.269,12.992,12.992,0,0,1-2.819.882,6.167,6.167,0,0,0-2.218.834,2.77,2.77,0,0,0-1.018,1.2,3.212,3.212,0,0,0-.155.568" transform="translate(-21.095 -60.172)" fill="#455a64"/>
        <path id="Trazado_267111" data-name="Trazado 267111" d="M202.84,79.586H137.111a4.171,4.171,0,0,1-4.171-4.171V13.981a3.955,3.955,0,0,1,3.955-3.955h66.629a4,4,0,0,1,4,4V74.906a4.68,4.68,0,0,1-4.68,4.68" transform="translate(-59.541 -4.49)" fill="#fff"/>
        <rect id="Rectángulo_295027" data-name="Rectángulo 295027" width="37.721" height="37.721" transform="translate(73.399 16.827)" fill="#f5f5f5"/>
        <path id="Trazado_267112" data-name="Trazado 267112" d="M207.52,21.318H132.94V13.982a3.955,3.955,0,0,1,3.955-3.955h66.629a4,4,0,0,1,4,4Z" transform="translate(-59.541 -4.491)" fill="#a3314f"/>
        <path id="Trazado_267113" data-name="Trazado 267113" d="M142.861,19.474a1.407,1.407,0,1,1-1.407-1.407,1.407,1.407,0,0,1,1.407,1.407" transform="translate(-62.724 -8.092)" fill="#fff"/>
        <path id="Trazado_267114" data-name="Trazado 267114" d="M150.567,19.474a1.407,1.407,0,1,1-1.407-1.407,1.407,1.407,0,0,1,1.407,1.407" transform="translate(-66.176 -8.092)" fill="#fff"/>
        <path id="Trazado_267115" data-name="Trazado 267115" d="M158.273,19.474a1.407,1.407,0,1,1-1.407-1.407,1.407,1.407,0,0,1,1.407,1.407" transform="translate(-69.627 -8.092)" fill="#fff"/>
        <path id="Trazado_267116" data-name="Trazado 267116" d="M234.841,52.1c0,.08-5.437.144-12.142.144s-12.142-.064-12.142-.144,5.435-.144,12.142-.144,12.142.064,12.142.144" transform="translate(-94.304 -23.27)" fill="#263238"/>
        <path id="Trazado_267117" data-name="Trazado 267117" d="M234.841,58.725c0,.08-5.437.144-12.142.144s-12.142-.064-12.142-.144,5.435-.144,12.142-.144,12.142.064,12.142.144" transform="translate(-94.304 -26.237)" fill="#263238"/>
        <path id="Trazado_267118" data-name="Trazado 267118" d="M234.841,65.351c0,.079-5.437.144-12.142.144s-12.142-.064-12.142-.144,5.435-.144,12.142-.144,12.142.064,12.142.144" transform="translate(-94.304 -29.205)" fill="#263238"/>
        <path id="Trazado_267119" data-name="Trazado 267119" d="M234.841,79.08c0,.08-5.437.144-12.142.144s-12.142-.064-12.142-.144,5.435-.144,12.142-.144,12.142.064,12.142.144" transform="translate(-94.304 -35.354)" fill="#263238"/>
        <path id="Trazado_267120" data-name="Trazado 267120" d="M224.327,85.706c0,.08-3.083.144-6.885.144s-6.885-.064-6.885-.144,3.082-.144,6.885-.144,6.885.064,6.885.144" transform="translate(-94.304 -38.321)" fill="#263238"/>
        <path id="Trazado_267121" data-name="Trazado 267121" d="M221.726,71.977a54.368,54.368,0,0,1-5.585.144,54.365,54.365,0,0,1-5.585-.144,54.367,54.367,0,0,1,5.585-.144,54.37,54.37,0,0,1,5.585.144" transform="translate(-94.304 -32.173)" fill="#ff725e"/>
        <path id="Trazado_267122" data-name="Trazado 267122" d="M221.726,43.968a54.368,54.368,0,0,1-5.585.144,54.365,54.365,0,0,1-5.585-.144,54.366,54.366,0,0,1,5.585-.144,54.369,54.369,0,0,1,5.585.144" transform="translate(-94.304 -19.628)" fill="#ff725e"/>
        <path id="Trazado_267123" data-name="Trazado 267123" d="M166.352,42.6a4.97,4.97,0,0,0-2.465-2.942,6.272,6.272,0,0,0-4.228-.388,13.275,13.275,0,0,0-3.937,1.761,6.507,6.507,0,0,0-1.862,1.54,9.249,9.249,0,0,0-1.789,4.588,16.321,16.321,0,0,0,1.04,5.239,2.688,2.688,0,0,0,1.174,1,10.159,10.159,0,0,0,2.243,2.8l.761-2.428Z" transform="translate(-68.109 -17.503)" fill="#263238"/>
        <path id="Trazado_267124" data-name="Trazado 267124" d="M174.7,42.545l-2.364-.353c1.373,3.025,1.921,10.017,2.749,13.234.831-1.283,2.735-5.172,2.584-6.692s-.182-6.528-2.969-6.188" transform="translate(-77.185 -18.897)" fill="#263238"/>
        <path id="Trazado_267125" data-name="Trazado 267125" d="M156.673,48.3a4.019,4.019,0,0,1,2.916-3.785l5.377-1.537c2.334-.319,3.979,2.515,4.2,4.86a37.27,37.27,0,0,1,.179,7.313c-.5,3.936-3.488,4.526-3.488,4.526s.052,1.863.083,3.007l-.876,5.126-7.09-6.052L156.661,48.35c0-.067.009.041.013-.048" transform="translate(-70.165 -19.239)" fill="#ffbe9d"/>
        <path id="Trazado_267126" data-name="Trazado 267126" d="M176.3,57a.5.5,0,0,1-.469.522.481.481,0,0,1-.532-.437.5.5,0,0,1,.468-.522A.48.48,0,0,1,176.3,57" transform="translate(-78.512 -25.334)" fill="#263238"/>
        <path id="Trazado_267127" data-name="Trazado 267127" d="M176.713,54.208c-.06.067-.449-.2-.99-.184s-.928.3-.989.236c-.03-.029.03-.149.2-.28a1.377,1.377,0,0,1,.789-.27,1.327,1.327,0,0,1,.79.229c.17.123.23.239.2.269" transform="translate(-78.257 -24.055)" fill="#263238"/>
        <path id="Trazado_267128" data-name="Trazado 267128" d="M167.538,57.24a.5.5,0,0,1-.469.522.481.481,0,0,1-.532-.437.5.5,0,0,1,.468-.522.481.481,0,0,1,.532.437" transform="translate(-74.588 -25.44)" fill="#263238"/>
        <path id="Trazado_267129" data-name="Trazado 267129" d="M167.416,54.474c-.061.067-.45-.2-.99-.184s-.929.3-.989.236c-.03-.029.029-.149.2-.28a1.38,1.38,0,0,1,.789-.27,1.325,1.325,0,0,1,.791.229c.169.123.23.239.2.269" transform="translate(-74.093 -24.174)" fill="#263238"/>
        <path id="Trazado_267130" data-name="Trazado 267130" d="M171.99,58.832a3.613,3.613,0,0,1,.873-.186c.137-.018.267-.05.288-.145a.7.7,0,0,0-.1-.406l-.441-1.038a18.111,18.111,0,0,1-1-2.721,18.059,18.059,0,0,1,1.218,2.634q.222.547.423,1.045a.8.8,0,0,1,.088.539.347.347,0,0,1-.221.209.923.923,0,0,1-.234.04,3.5,3.5,0,0,1-.889.029" transform="translate(-76.855 -24.336)" fill="#263238"/>
        <path id="Trazado_267131" data-name="Trazado 267131" d="M163.836,70.991s1.352,2.653,5.259,2.167l-.025-.921a9.873,9.873,0,0,1-5.235-1.246" transform="translate(-73.379 -31.795)" fill="#eb996e"/>
        <path id="Trazado_267132" data-name="Trazado 267132" d="M166.624,51.045c-.049.149-.591.1-1.222.192s-1.139.284-1.227.155c-.039-.062.045-.2.248-.351a2.148,2.148,0,0,1,1.866-.264c.236.087.356.2.336.269" transform="translate(-73.526 -22.695)" fill="#263238"/>
        <path id="Trazado_267133" data-name="Trazado 267133" d="M176.424,51.2c-.091.125-.468.009-.915.018-.448-.008-.824.108-.915-.018-.04-.061.015-.186.178-.307a1.326,1.326,0,0,1,1.475,0c.162.121.218.246.178.308" transform="translate(-78.191 -22.691)" fill="#263238"/>
        <path id="Trazado_267134" data-name="Trazado 267134" d="M167.262,43.1a1.723,1.723,0,0,0-1.549-.932,3.347,3.347,0,0,0-1.792.578c-2.294,1.415-3.4,4.706-5.665,6.167-.557.359-1.3.066-1.773.534a1.664,1.664,0,0,0-.478,1.8,5.515,5.515,0,0,1-.838-1.33,1.853,1.853,0,0,1,.021-1.528c.19-.351.534-.625.62-1.015a5.2,5.2,0,0,0-.065-1.046,2.278,2.278,0,0,1,.331-1.009,10.171,10.171,0,0,1,3.631-4.046,6.638,6.638,0,0,1,3.412-.987,5.072,5.072,0,0,1,3.308,1.205c.529.465,1.085.947.836,1.607" transform="translate(-69.427 -18.043)" fill="#263238"/>
        <path id="Trazado_267135" data-name="Trazado 267135" d="M156.12,57.6a1.367,1.367,0,0,0-2.074,1.382,1.586,1.586,0,0,0,2.153,1.574c0-.061-.08-2.956-.08-2.956" transform="translate(-68.994 -25.713)" fill="#ffbe9d"/>
        <path id="Trazado_267136" data-name="Trazado 267136" d="M155.963,60.331c-.009-.007-.036.027-.1.056a.369.369,0,0,1-.275.01.909.909,0,0,1-.436-.808,1.21,1.21,0,0,1,.093-.528.422.422,0,0,1,.271-.287.187.187,0,0,1,.219.1c.029.059.017.1.028.1s.045-.036.026-.123a.233.233,0,0,0-.086-.131.277.277,0,0,0-.2-.05.517.517,0,0,0-.378.334,1.253,1.253,0,0,0-.117.591.955.955,0,0,0,.554.9.392.392,0,0,0,.335-.062c.065-.053.075-.1.067-.1" transform="translate(-69.424 -26.277)" fill="#eb996e"/>
        <path id="Trazado_267137" data-name="Trazado 267137" d="M156.227,49.857a.862.862,0,0,0,.125-.075c.079-.054.2-.126.347-.235a7.253,7.253,0,0,0,1.109-1.069,20.214,20.214,0,0,0,1.341-1.849,16.636,16.636,0,0,1,1.679-2.218,6.65,6.65,0,0,1,1.1-.919,5.483,5.483,0,0,1,1.2-.586,6.009,6.009,0,0,1,2.227-.338,5.759,5.759,0,0,1,1.506.251c.174.047.3.1.395.134a.763.763,0,0,0,.139.045.921.921,0,0,0-.132-.063,3.658,3.658,0,0,0-.391-.151,5.458,5.458,0,0,0-1.514-.283,5.954,5.954,0,0,0-2.259.322,5.466,5.466,0,0,0-1.22.59,6.62,6.62,0,0,0-1.116.933,16.127,16.127,0,0,0-1.684,2.234,21.769,21.769,0,0,1-1.319,1.855,7.856,7.856,0,0,1-1.08,1.083c-.141.113-.259.189-.335.248a.757.757,0,0,0-.114.091" transform="translate(-69.971 -19.031)" fill="#fff"/>
        <path id="Trazado_267138" data-name="Trazado 267138" d="M157.212,54.39a3.25,3.25,0,0,0,.255,1.691,1.119,1.119,0,0,0,1.455.533,1.594,1.594,0,0,0,.565-1.24c.162-1.349.215-2.71.388-4.058Z" transform="translate(-70.409 -22.983)" fill="#263238"/>
        <path id="Trazado_267139" data-name="Trazado 267139" d="M167.738,43.524c0,.012-.187-.03-.526-.031a3.611,3.611,0,0,0-1.389.295,4.634,4.634,0,0,0-.862.475,9.414,9.414,0,0,0-.882.715,10.845,10.845,0,0,0-1.712,1.955c-.257.384-.484.778-.73,1.143a5.374,5.374,0,0,1-.819.975,9.384,9.384,0,0,1-1.749,1.243c-.532.3-.977.513-1.284.66l-.357.164a.559.559,0,0,1-.128.05.66.66,0,0,1,.118-.071l.346-.183c.3-.16.74-.384,1.263-.692a9.747,9.747,0,0,0,1.716-1.251,5.308,5.308,0,0,0,.8-.96c.242-.362.468-.756.728-1.144a10.625,10.625,0,0,1,1.738-1.97,9.182,9.182,0,0,1,.9-.714,4.586,4.586,0,0,1,.886-.473,3.487,3.487,0,0,1,1.421-.263,2.393,2.393,0,0,1,.392.043.606.606,0,0,1,.133.034" transform="translate(-70.451 -19.458)" fill="#455a64"/>
        <path id="Trazado_267140" data-name="Trazado 267140" d="M155.125,52.355a.961.961,0,0,1-.183.131l-.526.329-.177.108a.57.57,0,0,1-.229.083.22.22,0,0,1-.144-.03.181.181,0,0,1-.083-.137.47.47,0,0,1,.092-.269l.592-1.01.086.075a2.208,2.208,0,0,1-1.421.468.64.64,0,0,1-.193-.028.258.258,0,0,1-.168-.138.231.231,0,0,1,.029-.214.918.918,0,0,1,.116-.136,4.427,4.427,0,0,0,.693-.926,7.506,7.506,0,0,0,.429-.984,1.115,1.115,0,0,1-.059.285,3.915,3.915,0,0,1-.3.739,4.26,4.26,0,0,1-.687.963c-.077.076-.152.165-.12.23s.148.1.258.093a2.1,2.1,0,0,0,.712-.107,2.136,2.136,0,0,0,.634-.336l.247-.192-.161.267-.6,1a.393.393,0,0,0-.084.209.1.1,0,0,0,.124.086,1.08,1.08,0,0,0,.375-.167l.543-.3a.954.954,0,0,1,.2-.1" transform="translate(-68.417 -22.249)" fill="#fff"/>
        <path id="Trazado_267141" data-name="Trazado 267141" d="M168.626,63.938a.706.706,0,0,1,.713-.557.74.74,0,0,1,.579.387.908.908,0,0,1,.052.7l-.01.051a.8.8,0,0,1-.9.218.751.751,0,0,1-.436-.8" transform="translate(-75.519 -28.387)" fill="#eb996e"/>
        <path id="Trazado_267142" data-name="Trazado 267142" d="M170.511,64.237c0-.082-.547-.04-.971-.477s-.41-1.023-.486-1.021c-.035,0-.1.138-.083.384a1.361,1.361,0,0,0,.375.854,1.187,1.187,0,0,0,.812.365c.23,0,.36-.068.354-.105" transform="translate(-75.677 -28.099)" fill="#263238"/>
        <path id="Trazado_267143" data-name="Trazado 267143" d="M167.488,62.22c-.023,0-.056-.07-.04-.191a.6.6,0,0,1,.706-.5c.12.026.176.08.167.1-.014.046-.283-.022-.52.147s-.264.443-.312.442" transform="translate(-74.995 -27.553)" fill="#eb996e"/>
        <path id="Trazado_267144" data-name="Trazado 267144" d="M163.014,56.982c-.006-.049.154-.107.351-.068s.324.152.3.195-.167.017-.335-.015-.311-.06-.316-.112" transform="translate(-73.011 -25.485)" fill="#eb996e"/>
        <path id="Trazado_267145" data-name="Trazado 267145" d="M178.532,57.654c-.032-.038.021-.131.136-.15s.195.051.177.1-.082.07-.147.082-.134.01-.166-.03" transform="translate(-79.957 -25.753)" fill="#eb996e"/>
        <path id="Trazado_267146" data-name="Trazado 267146" d="M163.257,56.44c0-.05.146-.074.3-.006s.229.19.195.227-.145,0-.269-.06-.23-.111-.224-.162" transform="translate(-73.119 -25.257)" fill="#eb996e"/>
        <path id="Trazado_267147" data-name="Trazado 267147" d="M150.7,76.262l3.752-.313s2.07,2.728,4.885,2.517,3.122-2.1,3.122-2.1,5.022.967,7.75,3.854l.062.078,3.612,8.267H148.962Z" transform="translate(-66.717 -34.016)" fill="#a3314f"/>
        <path id="Trazado_267148" data-name="Trazado 267148" d="M145.669,76.469a11.18,11.18,0,0,0-3.139,1.015c-2.651,1.559-4.961,11.312-4.961,11.312h7.39a28.894,28.894,0,0,0,2.9-5.75,18.585,18.585,0,0,0-.255-3.7s-1.935-2.816-1.936-2.879" transform="translate(-61.614 -34.249)" fill="#a3314f"/>
        <path id="Trazado_267149" data-name="Trazado 267149" d="M184.1,94.2c-.056,0-.058-.6-.23-1.312s-.428-1.255-.376-1.28a2.875,2.875,0,0,1,.554,1.237A2.661,2.661,0,0,1,184.1,94.2" transform="translate(-82.179 -41.027)" fill="#263238"/>
        <path id="Trazado_267150" data-name="Trazado 267150" d="M150.957,92.351a7.837,7.837,0,0,1,.183-1.02,24.791,24.791,0,0,0,.35-2.465c.085-.97.1-1.851.1-2.49a7.044,7.044,0,0,1,.023-1.037,4.954,4.954,0,0,1,.106,1.034,18.9,18.9,0,0,1-.052,2.509,16.812,16.812,0,0,1-.406,2.477,4.692,4.692,0,0,1-.31.993" transform="translate(-67.608 -38.222)" fill="#263238"/>
        <path id="Trazado_267151" data-name="Trazado 267151" d="M202.74,119.345H136.889a4.171,4.171,0,0,1-4.171-4.171V98.8h74.7v15.868a4.68,4.68,0,0,1-4.68,4.68" transform="translate(-59.442 -44.249)" fill="#ebebeb"/>
        <path id="Trazado_267152" data-name="Trazado 267152" d="M149.392,108.836a28.041,28.041,0,0,1-4.006.144,28.039,28.039,0,0,1-4.007-.144,28.036,28.036,0,0,1,4.007-.144,28.037,28.037,0,0,1,4.006.144" transform="translate(-63.321 -48.681)" fill="#263238"/>
        <path id="Trazado_267153" data-name="Trazado 267153" d="M166.592,114.129c0,.079-5.677.144-12.679.144s-12.681-.064-12.681-.144,5.676-.144,12.681-.144,12.679.064,12.679.144" transform="translate(-63.255 -51.052)" fill="#263238"/>
        <path id="Trazado_267154" data-name="Trazado 267154" d="M166.592,120.1c0,.08-5.677.144-12.679.144s-12.681-.064-12.681-.144,5.676-.144,12.681-.144,12.679.064,12.679.144" transform="translate(-63.255 -53.724)" fill="#263238"/>
        <path id="Trazado_267155" data-name="Trazado 267155" d="M158.973,126.063c0,.08-3.972.144-8.87.144s-8.87-.064-8.87-.144,3.97-.144,8.87-.144,8.87.064,8.87.144" transform="translate(-63.255 -56.397)" fill="#263238"/>
        <path id="Trazado_267156" data-name="Trazado 267156" d="M216.836,108.836a55.983,55.983,0,0,1-8.013,0,55.98,55.98,0,0,1,8.013,0" transform="translate(-93.528 -48.681)" fill="#263238"/>
        <path id="Trazado_267157" data-name="Trazado 267157" d="M234.037,114.129c0,.079-5.677.144-12.679.144s-12.681-.064-12.681-.144,5.676-.144,12.681-.144,12.679.064,12.679.144" transform="translate(-93.463 -51.052)" fill="#263238"/>
        <path id="Trazado_267158" data-name="Trazado 267158" d="M234.037,120.1c0,.08-5.677.144-12.679.144s-12.681-.064-12.681-.144,5.676-.144,12.681-.144,12.679.064,12.679.144" transform="translate(-93.463 -53.724)" fill="#263238"/>
        <path id="Trazado_267159" data-name="Trazado 267159" d="M226.417,126.063c0,.08-3.971.144-8.869.144s-8.87-.064-8.87-.144,3.97-.144,8.87-.144,8.869.064,8.869.144" transform="translate(-93.463 -56.397)" fill="#263238"/>
        <path id="Trazado_267160" data-name="Trazado 267160" d="M202.715,79.468c0-.016.248,0,.72-.076a4.66,4.66,0,0,0,3.8-3.592,10.141,10.141,0,0,0,.108-2.191q0-1.183-.007-2.517c-.011-7.116-.027-17.405-.046-30.117,0-6.358-.011-13.322-.018-20.8q0-2.8,0-5.7a6.227,6.227,0,0,0-.1-1.42,3.767,3.767,0,0,0-.554-1.3,3.881,3.881,0,0,0-2.3-1.609,5.652,5.652,0,0,0-1.459-.114h-1.509l-3.05,0-6.225,0-54.695.012a5.36,5.36,0,0,0-1.756.174,3.906,3.906,0,0,0-1.488.882,3.951,3.951,0,0,0-1.182,3.163q0,3.593,0,7.138,0,7.087,0,13.955c0,9.149-.006,17.974-.008,26.381q0,6.306-.006,12.285c0,.495-.012,1,.01,1.481a4.012,4.012,0,0,0,2.229,3.4,3.912,3.912,0,0,0,1.334.4c.457.045.943.026,1.416.031l2.828,0,20.8.018,30.115.046,8.187.027,2.13.014c.48,0,.725.015.725.015s-.246.01-.725.015l-2.13.014-8.187.027-30.115.046-20.8.018-2.828,0c-.476,0-.947.018-1.444-.03a4.148,4.148,0,0,1-1.416-.422,4.26,4.26,0,0,1-2.37-3.61c-.023-.507-.007-.994-.012-1.495q0-5.974-.006-12.285c0-8.407-.006-17.232-.008-26.381q0-6.862,0-13.955,0-3.544,0-7.138a4.242,4.242,0,0,1,1.27-3.37,4.188,4.188,0,0,1,1.6-.949,5.639,5.639,0,0,1,1.842-.188l54.695.011,6.225,0h4.56a5.879,5.879,0,0,1,1.519.124,4.129,4.129,0,0,1,2.446,1.715A4.017,4.017,0,0,1,207.416,13a6.433,6.433,0,0,1,.1,1.474q0,2.9,0,5.7c-.006,7.476-.012,14.44-.018,20.8-.019,12.712-.035,23-.045,30.117q0,1.333-.007,2.517a10.143,10.143,0,0,1-.123,2.21,4.724,4.724,0,0,1-1.909,2.825,4.646,4.646,0,0,1-1.973.776,3.457,3.457,0,0,1-.542.045c-.121,0-.183,0-.183,0" transform="translate(-59.416 -4.372)" fill="#263238"/>
      </g>
    </g>
    <g id="Grupo_238192" data-name="Grupo 238192">
      <g id="Grupo_238196" data-name="Grupo 238196">
        <path id="Trazado_267161" data-name="Trazado 267161" d="M352.751,55.759a2.543,2.543,0,0,1-.824-4.993,2.646,2.646,0,0,1,2.53-4.339,3.166,3.166,0,0,1,4.9-2.349,3.56,3.56,0,0,1,4.382.135,2.532,2.532,0,0,1,2.015,4.4" transform="translate(-156.781 -19.433)" fill="#263238"/>
        <path id="Trazado_267162" data-name="Trazado 267162" d="M353.047,58.787a10.79,10.79,0,0,1,11.235-9.377l.558.028c6,.651,8.8,6.11,7.983,12.09l-1.867,20-.1.971-14.024,2.094.273-5.107s-5.74-1.187-5.524-6.974c.1-2.795.787-8.533,1.466-13.719" transform="translate(-157.463 -22.124)" fill="#9f7362"/>
        <path id="Trazado_267163" data-name="Trazado 267163" d="M361.468,102.371a14.047,14.047,0,0,0,7.689-1.841s-1.989,4.074-7.735,3.266Z" transform="translate(-161.874 -45.025)" fill="#65463c"/>
        <path id="Trazado_267164" data-name="Trazado 267164" d="M356.514,75.5a.825.825,0,0,0,.754.873.791.791,0,0,0,.888-.7.826.826,0,0,0-.754-.873.791.791,0,0,0-.889.7" transform="translate(-159.674 -33.496)" fill="#263238"/>
        <path id="Trazado_267165" data-name="Trazado 267165" d="M356.229,71c.1.113.745-.319,1.634-.273s1.518.523,1.62.42c.05-.046-.045-.246-.319-.467a2.268,2.268,0,0,0-1.29-.469,2.174,2.174,0,0,0-1.307.351c-.284.2-.386.386-.338.437" transform="translate(-159.543 -31.445)" fill="#263238"/>
        <path id="Trazado_267166" data-name="Trazado 267166" d="M371.177,76.275a.827.827,0,0,0,.755.873.792.792,0,0,0,.888-.7.827.827,0,0,0-.754-.873.791.791,0,0,0-.889.7" transform="translate(-166.241 -33.845)" fill="#263238"/>
        <path id="Trazado_267167" data-name="Trazado 267167" d="M372.038,72.087c.1.113.746-.319,1.635-.272s1.518.523,1.619.419c.05-.046-.044-.246-.319-.467a2.27,2.27,0,0,0-1.29-.469,2.181,2.181,0,0,0-1.308.351c-.283.2-.386.386-.338.437" transform="translate(-166.623 -31.932)" fill="#263238"/>
        <path id="Trazado_267168" data-name="Trazado 267168" d="M363.8,78.385a5.891,5.891,0,0,0-1.431-.332c-.226-.034-.438-.091-.469-.247a1.159,1.159,0,0,1,.185-.665l.757-1.694A29.781,29.781,0,0,0,364.574,71a29.83,29.83,0,0,0-2.086,4.3q-.382.894-.729,1.707a1.316,1.316,0,0,0-.162.885.57.57,0,0,0,.357.351,1.54,1.54,0,0,0,.383.072,5.805,5.805,0,0,0,1.463.075" transform="translate(-161.938 -31.799)" fill="#263238"/>
        <path id="Trazado_267169" data-name="Trazado 267169" d="M371.7,68.355c.106.231.88.025,1.819.041.94,0,1.721.211,1.819-.019.043-.11-.114-.32-.443-.518a2.823,2.823,0,0,0-1.392-.366,2.717,2.717,0,0,0-1.379.349c-.321.193-.47.4-.423.512" transform="translate(-166.471 -30.229)" fill="#263238"/>
        <path id="Trazado_267170" data-name="Trazado 267170" d="M356.471,64.323c.177.211.921.038,1.8.072.883.008,1.623.217,1.8.014.081-.1-.027-.307-.344-.515a2.88,2.88,0,0,0-1.449-.4,2.83,2.83,0,0,0-1.459.335c-.322.192-.435.395-.357.5" transform="translate(-159.645 -28.436)" fill="#263238"/>
        <path id="Trazado_267171" data-name="Trazado 267171" d="M355.487,55.56s1.706-3.546,3.494-4.3c2.165-.918,2.961,1.448,5,.985s4.111-1.345,6.092.315c2.169,1.817,1.054,2.96,1.066,5.534.047,10.432,1.8,13.469,2.586,8.595.086-.534,1.6-.887,1.931-3.144.432-2.927.723-6.493.17-8.614a8.246,8.246,0,0,0-3.141-4.482c-2.735-2.257-6.633-2.5-9.3-2.361s-7.921,2.93-7.9,7.477" transform="translate(-159.215 -21.522)" fill="#263238"/>
        <path id="Trazado_267172" data-name="Trazado 267172" d="M387.557,80.308a1.572,1.572,0,0,1,1.77-1.429c1.074.156,2.244.829,2.062,3.054-.322,3.948-4.22,2.81-4.217,2.7,0-.077.236-2.67.385-4.321" transform="translate(-173.406 -35.321)" fill="#9f7362"/>
        <path id="Trazado_267173" data-name="Trazado 267173" d="M388.944,84.257c.018-.011.065.054.177.117a.687.687,0,0,0,.513.052,1.706,1.706,0,0,0,.912-1.462,2.28,2.28,0,0,0-.112-1,.8.8,0,0,0-.474-.57.351.351,0,0,0-.421.156c-.062.106-.043.187-.065.192s-.079-.073-.034-.234a.442.442,0,0,1,.176-.235A.521.521,0,0,1,390,81.2a.969.969,0,0,1,.668.67,2.342,2.342,0,0,1,.148,1.12,1.791,1.791,0,0,1-1.143,1.623.74.74,0,0,1-.62-.156c-.114-.108-.128-.2-.114-.2" transform="translate(-174.198 -36.364)" fill="#65463c"/>
        <path id="Trazado_267174" data-name="Trazado 267174" d="M376.051,57.75a3.758,3.758,0,0,1-1.713.69,1.292,1.292,0,0,1-1.386-.978c-.033-.278.05-.594-.12-.815-.2-.264-.606-.2-.939-.186a2.526,2.526,0,0,1-2.53-1.94,1.061,1.061,0,0,1-1.428.063,5.678,5.678,0,0,1-1.02-1.206,1.63,1.63,0,0,0-1.323-.746,3.9,3.9,0,0,1-.87.147c-.517-.072-.74-.692-.793-1.212s-.084-1.124-.51-1.426a2.075,2.075,0,0,0-1.412-.109c-.481.047-1.093-.1-1.192-.57a.94.94,0,0,1,.213-.708,2.564,2.564,0,0,1,3.071-.819,3.476,3.476,0,0,1,6.411-.356,3.527,3.527,0,0,1,5.568,1.564A2.556,2.556,0,0,1,378.771,53a2.429,2.429,0,0,1,1.238,2,1.39,1.39,0,0,1-1.643,1.341,1.416,1.416,0,0,1-2.515,1.289" transform="translate(-161.596 -20.428)" fill="#263238"/>
        <path id="Trazado_267175" data-name="Trazado 267175" d="M366.132,51.9a.2.2,0,0,0,0,.072c0,.048,0,.12.015.213a2.488,2.488,0,0,0,.249.776,2.835,2.835,0,0,0,.83.978,2.636,2.636,0,0,0,1.6.542l-.062-.091a1.432,1.432,0,0,0,.025,1.1,4.094,4.094,0,0,0,.628,1.006,2.957,2.957,0,0,0,.42.476,1.389,1.389,0,0,0,.615.264,1.446,1.446,0,0,0,1.3-.393l-.146-.05a2.971,2.971,0,0,0,1.156,2.115,2.166,2.166,0,0,0,1.278.49,3.907,3.907,0,0,0,1.294-.218l-.1-.052a3.118,3.118,0,0,0,.876,1.267,1.661,1.661,0,0,0,1.359.444,2.181,2.181,0,0,0,1.762-1.622l-.092.038a2.042,2.042,0,0,0,1.349.267,2.206,2.206,0,0,0,.968-.375,1.908,1.908,0,0,0,.466-.461.911.911,0,0,0,.11-.2,2.364,2.364,0,0,1-.613.606,2.193,2.193,0,0,1-.944.336,1.951,1.951,0,0,1-1.272-.274l-.072-.045-.02.083a2.057,2.057,0,0,1-1.666,1.5,1.51,1.51,0,0,1-1.232-.417,2.975,2.975,0,0,1-.822-1.2l-.028-.075-.076.023a3.779,3.779,0,0,1-1.237.206,2,2,0,0,1-1.179-.456,2.809,2.809,0,0,1-1.094-1.993l-.015-.188-.13.139a1.283,1.283,0,0,1-1.144.346,1.225,1.225,0,0,1-.545-.229,2.88,2.88,0,0,1-.4-.446,4,4,0,0,1-.616-.963,1.3,1.3,0,0,1-.037-.993l.037-.093-.1,0a2.543,2.543,0,0,1-1.532-.5,2.82,2.82,0,0,1-.827-.928,3.062,3.062,0,0,1-.327-1.026" transform="translate(-163.982 -23.245)" fill="#455a64"/>
        <path id="Trazado_267176" data-name="Trazado 267176" d="M367.4,88.8a12.943,12.943,0,0,1-3.811.536A12.942,12.942,0,0,1,367.4,88.8" transform="translate(-162.845 -39.755)" fill="#263238"/>
        <path id="Trazado_267177" data-name="Trazado 267177" d="M410.285,364.029a6.359,6.359,0,0,0,0,1.046c.022.673.069,1.645.137,2.846.136,2.4.374,5.717.651,9.375s.517,6.972.673,9.371c.077,1.157.14,2.114.188,2.842a6.361,6.361,0,0,0,.107,1.041,6.413,6.413,0,0,0,.021-1.046c-.007-.673-.035-1.646-.084-2.848-.1-2.4-.3-5.723-.578-9.384-.289-3.63-.551-6.915-.746-9.366-.1-1.156-.179-2.112-.241-2.838a6.4,6.4,0,0,0-.129-1.039" transform="translate(-183.751 -163.041)" fill="#455a64"/>
        <path id="Trazado_267178" data-name="Trazado 267178" d="M410.285,364.029a6.359,6.359,0,0,0,0,1.046c.022.673.069,1.645.137,2.846.136,2.4.374,5.717.651,9.375s.517,6.972.673,9.371c.077,1.157.14,2.114.188,2.842a6.361,6.361,0,0,0,.107,1.041,6.413,6.413,0,0,0,.021-1.046c-.007-.673-.035-1.646-.084-2.848-.1-2.4-.3-5.723-.578-9.384-.289-3.63-.551-6.915-.746-9.366-.1-1.156-.179-2.112-.241-2.838a6.4,6.4,0,0,0-.129-1.039" transform="translate(-183.751 -163.041)" fill="#455a64"/>
        <path id="Trazado_267179" data-name="Trazado 267179" d="M353.195,395.384l.2,11.214s-11.332,3.968-11.5,6.044l21.756.4.409-17.485Z" transform="translate(-153.128 -177.084)" fill="#263238"/>
        <path id="Trazado_267180" data-name="Trazado 267180" d="M374.062,414.176a.888.888,0,0,1,.6,1.025.854.854,0,0,1-1.011.6.937.937,0,0,1-.625-1.089.886.886,0,0,1,1.121-.507" transform="translate(-167.053 -185.483)" fill="#e0e0e0"/>
        <path id="Trazado_267181" data-name="Trazado 267181" d="M363.648,425.928l-.029-1.764-20.849.279s-.976.4-.878,1.088Z" transform="translate(-153.123 -189.974)" fill="#455a64"/>
        <path id="Trazado_267182" data-name="Trazado 267182" d="M362.084,415.407c0,.107.532.164,1.048.515s.787.8.885.762c.1-.019-.049-.657-.681-1.071s-1.273-.3-1.252-.206" transform="translate(-162.17 -186.011)" fill="#fff"/>
        <path id="Trazado_267183" data-name="Trazado 267183" d="M357.919,417.083c-.026.1.431.292.783.748s.448.933.554.93c.1.018.184-.6-.264-1.161s-1.068-.618-1.073-.517" transform="translate(-160.304 -186.784)" fill="#fff"/>
        <path id="Trazado_267184" data-name="Trazado 267184" d="M354.819,420.521c.1.024.253-.5-.009-1.09s-.755-.828-.8-.74c-.062.087.255.4.463.889s.241.929.347.941" transform="translate(-158.55 -187.515)" fill="#fff"/>
        <path id="Trazado_267185" data-name="Trazado 267185" d="M362.513,410.549c.043.1.533-.04,1.132.012s1.064.25,1.121.16-.386-.477-1.093-.528-1.211.273-1.161.357" transform="translate(-162.361 -183.714)" fill="#fff"/>
        <path id="Trazado_267186" data-name="Trazado 267186" d="M409.628,394.141l1.178,13.518-2.151,10.96a1.39,1.39,0,0,0,2.386,1.211c1.94-2.114,9.035-9.928,8.893-10.912-.164-1.14-.3-14.342-.3-14.342Z" transform="translate(-183.016 -176.528)" fill="#263238"/>
        <path id="Trazado_267187" data-name="Trazado 267187" d="M410.831,431.512l10.03-12.263.036.574a2.093,2.093,0,0,1-.408,1.386c-.8,1.065-3.055,3.96-8.422,9.864a1.389,1.389,0,0,1-1.237.438" transform="translate(-184.003 -187.773)" fill="#455a64"/>
        <g id="Grupo_238184" data-name="Grupo 238184" transform="translate(233.498 227.126)" opacity="0.6">
          <g id="Grupo_238183" data-name="Grupo 238183">
            <g id="Grupo_238182" data-name="Grupo 238182" clip-path="url(#clip-path-2)">
              <path id="Trazado_267188" data-name="Trazado 267188" d="M423.212,411.532a.841.841,0,0,0-.16,1.111.808.808,0,0,0,1.1.168.887.887,0,0,0,.163-1.178.839.839,0,0,0-1.163-.047" transform="translate(-422.911 -411.372)" fill="#fff"/>
            </g>
          </g>
        </g>
        <path id="Trazado_267189" data-name="Trazado 267189" d="M413.45,429.227a3,3,0,0,0-2.833-1.175c-.014-.032.151-.149.465-.214a2.219,2.219,0,0,1,2.191.909c.176.268.21.467.177.48" transform="translate(-183.907 -191.604)" fill="#fff"/>
        <path id="Trazado_267190" data-name="Trazado 267190" d="M412.126,433.087a11.428,11.428,0,0,0-1.237-.505,11.266,11.266,0,0,0-1.333-.086,1.541,1.541,0,0,1,1.4-.2c.812.182,1.238.755,1.17.8" transform="translate(-183.431 -193.588)" fill="#fff"/>
        <path id="Trazado_267191" data-name="Trazado 267191" d="M415.571,424.832a7.145,7.145,0,0,0-3.895-1.248,3.8,3.8,0,0,1,3.895,1.248" transform="translate(-184.381 -189.648)" fill="#fff"/>
        <path id="Trazado_267192" data-name="Trazado 267192" d="M415.83,418.1c-.031.083-.8-.181-1.775-.154s-1.733.311-1.767.229a3.452,3.452,0,0,1,3.541-.075" transform="translate(-184.655 -187.056)" fill="#fff"/>
        <path id="Trazado_267193" data-name="Trazado 267193" d="M415.33,410.844a4.418,4.418,0,0,0-3.61.357c-.024-.026.113-.206.414-.406a3.029,3.029,0,0,1,2.711-.268c.334.137.5.287.485.318" transform="translate(-184.4 -183.776)" fill="#fff"/>
        <path id="Trazado_267194" data-name="Trazado 267194" d="M413.055,407.292a1.172,1.172,0,0,1-.051-.511,3.564,3.564,0,0,1,.321-1.368,1.586,1.586,0,0,1,.628-.8.559.559,0,0,1,.637.084.909.909,0,0,1,.253.6,1.964,1.964,0,0,1-1.6,1.924,2.278,2.278,0,0,1-2.311-1.046.791.791,0,0,1-.08-.654.547.547,0,0,1,.554-.326,1.948,1.948,0,0,1,.922.406,3.977,3.977,0,0,1,.992.993,1.208,1.208,0,0,1,.238.454,6.331,6.331,0,0,0-1.347-1.272,1.813,1.813,0,0,0-.812-.335.293.293,0,0,0-.3.176.544.544,0,0,0,.077.427,2.034,2.034,0,0,0,2.014.884,1.706,1.706,0,0,0,1.384-1.614.66.66,0,0,0-.16-.425.3.3,0,0,0-.35-.051,1.428,1.428,0,0,0-.545.665,5.253,5.253,0,0,0-.459,1.787" transform="translate(-183.993 -181.191)" fill="#fff"/>
        <path id="Trazado_267195" data-name="Trazado 267195" d="M342.249,223.344a48.179,48.179,0,0,0-1.051,14.17c.231,3.011,10.394,86.32,10.394,86.32h13.72l-3.857-78.3,1.124.243s7.49,33.394,8.1,38.8c.549,4.86,6.866,40.166,6.866,40.166l12.545.144-4.007-46.7-4.663-44.81-1.754-13.044Z" transform="translate(-152.757 -98.684)" fill="#455a64"/>
        <path id="Trazado_267196" data-name="Trazado 267196" d="M376.123,242.577a2.636,2.636,0,0,1-.573.322,6.586,6.586,0,0,1-1.7.595,3.567,3.567,0,0,1-1.264.009,2.6,2.6,0,0,1-1.322-.634,3.148,3.148,0,0,1-.8-1.4c-.161-.533-.254-1.088-.367-1.651-.438-2.26-.734-4.323-.907-5.82-.087-.749-.144-1.356-.176-1.777a2.869,2.869,0,0,1-.017-.656,2.865,2.865,0,0,1,.13.643c.072.477.161,1.066.267,1.763.224,1.487.552,3.54.988,5.793a5.439,5.439,0,0,0,1.068,2.912,2.851,2.851,0,0,0,2.369.617,7.729,7.729,0,0,0,1.686-.5,3.112,3.112,0,0,1,.618-.219" transform="translate(-165.261 -103.712)" fill="#263238"/>
        <path id="Trazado_267197" data-name="Trazado 267197" d="M373.632,232.207c0-.013.089-.072.282-.084a1.232,1.232,0,0,1,.767.247,1.371,1.371,0,0,1,.578,1.06,1.36,1.36,0,0,1-2.316.868,1.371,1.371,0,0,1-.261-1.178,1.227,1.227,0,0,1,.416-.691c.154-.118.263-.135.268-.123a1.543,1.543,0,0,0-.482.852,1.2,1.2,0,0,0,.261.963,1.112,1.112,0,0,0,1.847-.693,1.2,1.2,0,0,0-.437-.9,1.547,1.547,0,0,0-.923-.325" transform="translate(-166.901 -103.963)" fill="#263238"/>
        <path id="Trazado_267198" data-name="Trazado 267198" d="M405.2,238.876a1.494,1.494,0,0,1-.467.073,8.764,8.764,0,0,1-1.287.015,12.456,12.456,0,0,1-7.7-3.245,8.694,8.694,0,0,1-.888-.931c-.192-.236-.289-.372-.274-.385.039-.034.479.471,1.3,1.162a13.83,13.83,0,0,0,7.583,3.194c1.067.1,1.736.066,1.739.117" transform="translate(-176.722 -104.983)" fill="#263238"/>
        <path id="Trazado_267199" data-name="Trazado 267199" d="M347.3,232.733a5.843,5.843,0,0,1-.712,1.4,15.725,15.725,0,0,1-5.4,5.248,5.874,5.874,0,0,1-1.418.672,14.471,14.471,0,0,1,1.311-.848,19.022,19.022,0,0,0,5.333-5.186,14.69,14.69,0,0,1,.884-1.286" transform="translate(-152.175 -104.236)" fill="#263238"/>
        <path id="Trazado_267200" data-name="Trazado 267200" d="M271.829,130.23l7.07,2.92,7.324,10.621-2.339,3.452L281.86,145.2s-8.027-1.878-8.547-3.015a2.065,2.065,0,0,1,.19-2.047,4.592,4.592,0,0,1,.05-2.155,1.437,1.437,0,0,1,1.076-1.018,1.058,1.058,0,0,1-.433-1.464,1.915,1.915,0,0,1,1.239-1.228s-4.716-2.461-5.112-3.108a.5.5,0,0,1,.082-.618,1.241,1.241,0,0,1,1.424-.317" transform="translate(-121.039 -58.283)" fill="#9f7362"/>
        <path id="Trazado_267201" data-name="Trazado 267201" d="M292.249,143.121l-1.351-2.032-2.851-5.625-6.906-2.182s-1.207.465.315,2.553a4.351,4.351,0,0,0,3.826,1.8s-.73,4.325.4,6.334,4.463,2.357,4.463,2.357Z" transform="translate(-125.714 -59.694)" fill="#9f7362"/>
        <path id="Trazado_267202" data-name="Trazado 267202" d="M285.658,144.293a1.649,1.649,0,0,1-.284-.447,6.238,6.238,0,0,1-.505-1.36,7.19,7.19,0,0,1,.449-4.743l.1.2-.248-.052a8.816,8.816,0,0,1-2.605-.881,3.426,3.426,0,0,1-1.512-1.672,2.413,2.413,0,0,1-.141-1.514,1.072,1.072,0,0,1,.238-.5c.025.012-.072.187-.129.527a2.453,2.453,0,0,0,.219,1.411,3.3,3.3,0,0,0,1.456,1.523,9.073,9.073,0,0,0,2.535.83l.247.052.178.038-.077.164a7.353,7.353,0,0,0-.514,4.575,14.568,14.568,0,0,0,.595,1.852" transform="translate(-125.786 -59.712)" fill="#65463c"/>
        <path id="Trazado_267203" data-name="Trazado 267203" d="M277.654,142.919a6.727,6.727,0,0,1,.7.285c.449.189,1.111.433,1.916.783a7.178,7.178,0,0,1,1.274.691,1.381,1.381,0,0,1,.548.661,1,1,0,0,1-.186.91,1.559,1.559,0,0,1-1.755.566c-.156-.035-.306-.073-.458-.1a3.647,3.647,0,0,1-.485-.135c-.314-.107-.62-.235-.928-.368l-.818-.358.105-.266a7.392,7.392,0,0,1,1.551.956l.679.5a7.245,7.245,0,0,1,.671.479.98.98,0,0,1,.354.77.644.644,0,0,1-.169.407.871.871,0,0,1-.345.214,3.153,3.153,0,0,1-1.326.1,6.374,6.374,0,0,1-1.789-.56,2.924,2.924,0,0,1-.6-.319,3.669,3.669,0,0,1,.64.221,7.2,7.2,0,0,0,1.769.464,3.029,3.029,0,0,0,1.226-.123.463.463,0,0,0,.351-.419.737.737,0,0,0-.284-.569,7.783,7.783,0,0,0-.651-.449l-.69-.5a7.351,7.351,0,0,0-1.488-.911l.106-.266.822.358c.3.131.606.258.905.361a3.466,3.466,0,0,0,.445.126c.162.03.319.071.469.107a1.3,1.3,0,0,0,1.479-.451.744.744,0,0,0,.157-.675,1.157,1.157,0,0,0-.448-.545,7.315,7.315,0,0,0-1.217-.7c-.786-.37-1.44-.644-1.878-.866a2.734,2.734,0,0,1-.657-.387" transform="translate(-123.882 -64.01)" fill="#65463c"/>
        <path id="Trazado_267204" data-name="Trazado 267204" d="M279.257,137.738a5.083,5.083,0,0,1,1.461.578,11.388,11.388,0,0,1,1.455.9c.261.19.527.4.792.631a1.462,1.462,0,0,1,.622.978.741.741,0,0,1-.286.584,1.078,1.078,0,0,1-.555.227,3.63,3.63,0,0,1-1.038-.069,12.777,12.777,0,0,1-1.653-.437,4.617,4.617,0,0,1-1.434-.64c.018-.034.565.2,1.493.446a16.284,16.284,0,0,0,1.639.37,3.563,3.563,0,0,0,.954.051c.3-.032.6-.246.594-.529a1.25,1.25,0,0,0-.521-.77c-.257-.228-.513-.438-.764-.629a14.024,14.024,0,0,0-1.395-.934c-.828-.483-1.38-.714-1.363-.756" transform="translate(-124.788 -61.688)" fill="#65463c"/>
        <path id="Trazado_267205" data-name="Trazado 267205" d="M310.265,141.444l6.406-20.492,10.37-5.649-6.155,35.383-1.238,2.644c-2.877,5.373-8.479,4.139-13.332,1.438q-.263-.146-.508-.3l-13.98-12.028,5.268-8.063Z" transform="translate(-130.703 -51.642)" fill="#e0e0e0"/>
        <path id="Trazado_267206" data-name="Trazado 267206" d="M326.369,169.109c-.089,0-.04-1.483-.439-3.244s-1.059-3.085-.979-3.124a9.721,9.721,0,0,1,1.418,6.368" transform="translate(-145.536 -72.888)" fill="#263238"/>
        <path id="Trazado_267207" data-name="Trazado 267207" d="M345.226,113.908c-2.619.161-7.359,1.738-9.366,5.486-1.677,3.133-2.134,16.522-2.224,16.841l5.046,1.308,6.445,9.533,26.394-5.888,1.653,4.161,1.014-29.8s-26.342-1.8-28.961-1.64" transform="translate(-149.428 -51.012)" fill="#e0e0e0"/>
        <path id="Trazado_267208" data-name="Trazado 267208" d="M379.186,153.219l2.02-28.476-.469-13.508-12.342-5.441-1.227-4.722-12.778,6.041-2.677-2.957-1.121,3.333-2.8.915-6.524,11.14.094,18.641s-.686,22.769-.139,30.689a2.449,2.449,0,0,0,1.646,2.153,23.627,23.627,0,0,0,6.991,1.032c12.873.311,30.405-.5,30.405-.5l.179-.563a11.214,11.214,0,0,0,.436-4.867Z" transform="translate(-152.732 -45.268)" fill="#e0e0e0"/>
        <path id="Trazado_267209" data-name="Trazado 267209" d="M356.438,179.123a.514.514,0,0,1-.023-.154c-.009-.124-.02-.273-.034-.455q-.036-.646-.1-1.751c-.068-1.554-.166-3.747-.285-6.442-.2-5.441-.46-12.963-.375-21.28.051-4.159.19-8.126.588-11.718.415-3.588,1.031-6.778,1.587-9.445s1.081-4.807,1.44-6.285q.269-1.072.427-1.7c.047-.175.087-.319.119-.439a.506.506,0,0,1,.052-.147.569.569,0,0,1-.019.155c-.023.121-.052.269-.087.447l-.365,1.715c-.321,1.488-.8,3.637-1.335,6.3s-1.116,5.857-1.511,9.429c-.379,3.572-.509,7.532-.559,11.685-.086,8.3.134,15.825.276,21.268.075,2.7.135,4.891.178,6.447q.022,1.106.035,1.754c0,.182,0,.332,0,.456a.575.575,0,0,1-.012.156" transform="translate(-159.268 -53.435)" fill="#263238"/>
        <path id="Trazado_267210" data-name="Trazado 267210" d="M378.021,101.072a32.169,32.169,0,0,0-5.1,2.371c-3.595,1.918-7.681,3.67-7.681,3.67l.311,5.77,13.6-6.827" transform="translate(-163.584 -45.268)" fill="#e0e0e0"/>
        <path id="Trazado_267211" data-name="Trazado 267211" d="M359.471,106.658l2.677,2.957-1.431,6.185-2.384-5.59" transform="translate(-160.49 -47.77)" fill="#e0e0e0"/>
        <g id="Grupo_238187" data-name="Grupo 238187" transform="translate(200.746 61.385)" opacity="0.3">
          <g id="Grupo_238186" data-name="Grupo 238186">
            <g id="Grupo_238185" data-name="Grupo 238185" clip-path="url(#clip-path-3)">
              <path id="Trazado_267212" data-name="Trazado 267212" d="M364.453,112.279c-.118.088-.862,7.138-.862,7.138l13.631-8.236-12.409,6.23Z" transform="translate(-363.591 -111.181)"/>
            </g>
          </g>
        </g>
        <path id="Trazado_267213" data-name="Trazado 267213" d="M356.491,125.624a200.776,200.776,0,0,0-4.559,29.759c-.526,6.953-.915,16.167-.915,16.167l3.1,3.841,4.753-4.206s-.206-19.574.043-26.127c.2-5.391-.645-19.148-.645-19.148Z" transform="translate(-157.213 -56.264)" fill="#a3314f"/>
        <path id="Trazado_267214" data-name="Trazado 267214" d="M363.226,116.626l-1.217-.475-1.154,1.979-.209,3.251,1.625.262,1.222-2.006Z" transform="translate(-161.526 -52.022)" fill="#a3314f"/>
        <path id="Trazado_267215" data-name="Trazado 267215" d="M362.23,111.923c.023.016-.262.453-.694,1.176s-1,1.736-1.548,2.9l-.129.279-.085.183-.086-.182a22.653,22.653,0,0,1-1.138-2.882c-.118-.375-.2-.68-.255-.893a1.207,1.207,0,0,1-.061-.335c.026-.007.172.45.438,1.186s.662,1.747,1.186,2.842h-.171l.13-.28a24.105,24.105,0,0,1,1.605-2.889c.231-.354.429-.633.57-.823a1.356,1.356,0,0,1,.237-.282" transform="translate(-160.445 -50.128)" fill="#263238"/>
        <path id="Trazado_267216" data-name="Trazado 267216" d="M379.265,109.622a.956.956,0,0,1-.187.112l-.552.288-2.032,1.053c-1.714.891-4.061,2.161-6.662,3.551-1.584.844-3.084,1.626-4.389,2.279l-.12.06v-.133c-.017-1.693-.031-3.119-.041-4.151,0-.485,0-.876,0-1.17a2.571,2.571,0,0,1,.019-.416,2.449,2.449,0,0,1,.034.415c.011.294.026.685.045,1.169.027,1.031.065,2.457.109,4.149l-.121-.073c1.3-.664,2.793-1.453,4.376-2.3,2.6-1.389,4.959-2.642,6.691-3.5.865-.432,1.57-.771,2.06-1l.568-.257a.918.918,0,0,1,.2-.078" transform="translate(-163.602 -49.097)" fill="#263238"/>
        <path id="Trazado_267217" data-name="Trazado 267217" d="M362.013,125.817c-.028.044-.337-.1-.69-.324s-.617-.439-.59-.484.337.1.691.324.617.44.589.484" transform="translate(-161.564 -55.986)" fill="#263238"/>
        <path id="Trazado_267218" data-name="Trazado 267218" d="M362.908,122.309a17.915,17.915,0,0,1-1.48-3.368,17.915,17.915,0,0,1,1.48,3.368" transform="translate(-161.874 -53.271)" fill="#263238"/>
        <path id="Trazado_267219" data-name="Trazado 267219" d="M340.927,145.61c.079,0,.144,5.383.144,12.022s-.064,12.023-.144,12.023-.144-5.382-.144-12.023.064-12.022.144-12.022" transform="translate(-152.63 -65.216)" fill="#263238"/>
        <path id="Trazado_267220" data-name="Trazado 267220" d="M353.437,107.617a16.545,16.545,0,0,1-.178-3.927,13.174,13.174,0,0,0,.759-2.99c-.134-.446-.357-.937-1.249-.491a3.464,3.464,0,0,0-2.142,2.723,7.821,7.821,0,0,1-.357,2.008l-.848-1.294.178-1.339s1.26-.317,1.3-.991a14.688,14.688,0,0,0-1.273-.9s-2.262.111-2.485.959-.8,2.677-.8,2.677-1.874.313-2.1,1.83a5.125,5.125,0,0,0-1.026,2.321,4.209,4.209,0,0,0-.535,1.874c.044.848,2.5,4.418,2.5,4.418l.68,5.078,6.962-1.813-.457-5.095s1.428-3.213,1.071-5.043" transform="translate(-153.48 -44.803)" fill="#9f7362"/>
        <path id="Trazado_267221" data-name="Trazado 267221" d="M353.321,107.54a2.112,2.112,0,0,1,.067.345,4.941,4.941,0,0,1-.017,1.021,14,14,0,0,1-1.048,3.709l.007-.04.485,5.092.009.091-.089.023-6.956,1.835-.142.037-.02-.146c-.218-1.606-.449-3.309-.688-5.077l.023.06c-.631-.929-1.264-1.895-1.853-2.928q-.22-.388-.419-.8a2.124,2.124,0,0,1-.257-.921,4.334,4.334,0,0,1,.555-1.794l-.019.078a2.491,2.491,0,0,1,.234-1.005,7.56,7.56,0,0,1,.822-1.408l-.027.065a2.085,2.085,0,0,1,.815-1.337,3.5,3.5,0,0,1,1.4-.612l-.112.1.826-2.725a1.094,1.094,0,0,1,.552-.55,3.437,3.437,0,0,1,.674-.246,7.45,7.45,0,0,1,1.364-.208l.045,0,.037.025.7.473.343.243.171.131.047.041a.212.212,0,0,1,.034.036.19.19,0,0,1,.034.109l-.022.126a1.2,1.2,0,0,1-.6.663,3.4,3.4,0,0,1-.776.313l.1-.108c-.062.456-.122.9-.182,1.338l-.019-.086.844,1.3-.214.02a7.921,7.921,0,0,0,.308-1.536,3.905,3.905,0,0,1,.356-1.512,4.139,4.139,0,0,1,2.148-1.829.882.882,0,0,1,.7-.008.9.9,0,0,1,.4.548.741.741,0,0,1,.05.329,2.362,2.362,0,0,1-.04.305c-.038.2-.083.384-.132.566-.2.728-.417,1.376-.621,1.956l0-.017a18.55,18.55,0,0,0,0,2.916c.029.331.059.582.082.75a1.357,1.357,0,0,1,.026.256,1.38,1.38,0,0,1-.063-.25c-.035-.167-.077-.417-.118-.748a16.87,16.87,0,0,1-.067-2.935V103.6l0-.009c.193-.579.4-1.231.589-1.953.046-.18.088-.366.122-.554a2.28,2.28,0,0,0,.033-.282.531.531,0,0,0-.043-.262.73.73,0,0,0-.309-.438.7.7,0,0,0-.549.025,3.952,3.952,0,0,0-2.017,1.742,3.692,3.692,0,0,0-.322,1.439,8.006,8.006,0,0,1-.315,1.6l-.077.229-.137-.209-.851-1.291-.025-.039.006-.047c.057-.438.115-.883.175-1.339l.011-.084.086-.024a3.164,3.164,0,0,0,.708-.289.961.961,0,0,0,.479-.5l.014-.077v0h0c-.026,0,.241.015.125.007h-.007a.132.132,0,0,0-.051.006c-.024,0-.077.05-.054.055.018.021,0,0,0,0l-.031-.027-.158-.12-.338-.237-.7-.468.081.022a7.229,7.229,0,0,0-1.308.2c-.409.113-.895.285-1.033.623q-.4,1.335-.818,2.718l-.024.079-.088.018a3.249,3.249,0,0,0-1.274.559,1.8,1.8,0,0,0-.705,1.152l0,.035-.022.03a7.318,7.318,0,0,0-.787,1.349,2.234,2.234,0,0,0-.211.878v.041l-.019.037a4.077,4.077,0,0,0-.518,1.661,1.857,1.857,0,0,0,.229.792c.127.264.264.524.409.779.579,1.02,1.21,1.987,1.834,2.911l.019.028,0,.033c.234,1.768.459,3.472.671,5.079l-.161-.108,6.968-1.791-.08.113-.43-5.1,0-.02.008-.019a14.7,14.7,0,0,0,1.109-3.654,5.633,5.633,0,0,0,.035-1.356" transform="translate(-153.364 -44.725)" fill="#65463c"/>
        <path id="Trazado_267222" data-name="Trazado 267222" d="M357.749,111.16a4.9,4.9,0,0,1-.956-1.35,4.8,4.8,0,0,1-.705-1.49,4.854,4.854,0,0,1,.956,1.35,4.777,4.777,0,0,1,.705,1.49" transform="translate(-159.48 -48.513)" fill="#65463c"/>
        <g id="Grupo_238190" data-name="Grupo 238190" transform="translate(203.933 85.51)" opacity="0.3">
          <g id="Grupo_238189" data-name="Grupo 238189">
            <g id="Grupo_238188" data-name="Grupo 238188" clip-path="url(#clip-path-4)">
              <path id="Trazado_267223" data-name="Trazado 267223" d="M369.363,172.342a22.563,22.563,0,0,0,21.76-17.467Z" transform="translate(-369.363 -154.875)"/>
            </g>
          </g>
        </g>
        <path id="Trazado_267224" data-name="Trazado 267224" d="M352.281,125.878l5.151,13.99L372.086,123s6.443-7.227,9.472-2.964,1.488,12.334-.431,16.163c-1.787,3.565-21.95,20.29-24.978,20.627s-6.711.316-8.73-3.5-6.406-24.737-6.406-24.737Z" transform="translate(-152.732 -53.158)" fill="#e0e0e0"/>
        <path id="Trazado_267225" data-name="Trazado 267225" d="M372.917,126.1s-.082.112-.256.316l-.772.9-2.972,3.421L358.135,143.05l-.128.146-.068-.182-5.169-13.769.16.084-10.347,2.494.108-.162c.353,2.122.743,4.36,1.156,6.626.677,3.706,1.378,7.317,2.144,10.783.4,1.728.785,3.431,1.273,5.062a17.3,17.3,0,0,0,.851,2.359,7.489,7.489,0,0,0,1.428,1.955,6.613,6.613,0,0,0,4.221,1.789,10.506,10.506,0,0,0,2.252-.091,6.4,6.4,0,0,0,2.073-.627,44.936,44.936,0,0,0,6.688-4.462c3.9-3.02,6.9-5.66,8.976-7.483l2.368-2.121.616-.552c.14-.123.216-.181.216-.181s-.063.072-.2.2l-.6.573c-.526.5-1.311,1.232-2.333,2.161-2.049,1.851-5.034,4.515-8.927,7.561-.971.764-2.012,1.535-3.115,2.314a29.027,29.027,0,0,1-3.595,2.2,6.662,6.662,0,0,1-2.141.655,10.737,10.737,0,0,1-2.306.1,6.862,6.862,0,0,1-4.385-1.85,7.754,7.754,0,0,1-1.486-2.023,17.518,17.518,0,0,1-.874-2.4c-.495-1.643-.881-3.348-1.285-5.08-.772-3.471-1.475-7.084-2.152-10.792-.414-2.269-.8-4.507-1.155-6.632l-.022-.131.129-.031,10.349-2.481.118-.028.042.113,5.133,13.783-.2-.036,10.856-12.245,3.02-3.38.8-.88c.182-.2.282-.293.282-.293" transform="translate(-153.348 -56.477)" fill="#263238"/>
        <path id="Trazado_267226" data-name="Trazado 267226" d="M406.471,119.492a9.581,9.581,0,0,0-5.909,2.068,6.433,6.433,0,0,1,5.909-2.068" transform="translate(-179.402 -53.463)" fill="#263238"/>
      </g>
    </g>
  </g>
</svg>
