<svg id="Grupo_237800" data-name="Grupo 237800" xmlns="http://www.w3.org/2000/svg" xmlns:xlink="http://www.w3.org/1999/xlink" width="715" height="481.212" viewBox="0 0 715 481.212">
  <defs>
    <clipPath id="clip-path">
      <rect id="Rectángulo_294745" data-name="Rectángulo 294745" width="715" height="481.212" fill="none"/>
    </clipPath>
    <clipPath id="clip-path-2">
      <rect id="Rectángulo_294743" data-name="Rectángulo 294743" width="106.068" height="103.185" fill="none"/>
    </clipPath>
    <clipPath id="clip-path-5">
      <rect id="Rectángulo_294769" data-name="Rectángulo 294769" width="50.028" height="142.145" fill="none"/>
    </clipPath>
    <clipPath id="clip-path-6">
      <rect id="Rectángulo_294772" data-name="Rectángulo 294772" width="53.647" height="15.736" fill="none"/>
    </clipPath>
    <clipPath id="clip-path-7">
      <rect id="Rectángulo_294774" data-name="Rectángulo 294774" width="44.012" height="28.465" fill="none"/>
    </clipPath>
    <clipPath id="clip-path-8">
      <rect id="Rectángulo_294775" data-name="Rectángulo 294775" width="50.324" height="5.13" fill="none"/>
    </clipPath>
    <clipPath id="clip-path-9">
      <rect id="Rectángulo_294776" data-name="Rectángulo 294776" width="47.466" height="40.817" fill="none"/>
    </clipPath>
  </defs>
  <g id="Grupo_237801" data-name="Grupo 237801">
    <g id="Grupo_237771" data-name="Grupo 237771">
      <g id="Grupo_237770" data-name="Grupo 237770" clip-path="url(#clip-path)">
        <path id="Trazado_265154" data-name="Trazado 265154" d="M663.169,290l-5.529-9.745a26.115,26.115,0,1,0-6.254,6.956l-.009.012Z" transform="translate(51.831 20.46)" fill="#ebebeb"/>
        <path id="Trazado_265155" data-name="Trazado 265155" d="M134.958,20.868a10.7,10.7,0,0,0,6.377-9.9c.024-5.911-4.45-10.725-9.993-10.751s-10.055,4.746-10.08,10.657a10.688,10.688,0,0,0,6.4,9.993c-15.445,2.326-14.744,19.113-14.744,19.113l36.523.168s.833-16.969-14.478-19.281" transform="translate(9.604 0.018)" fill="#ebebeb"/>
        <path id="Trazado_265156" data-name="Trazado 265156" d="M29.668,345.873a37.971,37.971,0,0,0-16.247-5.592c-2.654-.272-5.555-.194-7.684,1.414a1.579,1.579,0,0,0-.792,1.4,1.716,1.716,0,0,0,.752.96c6.61,5.042,16.609,5.679,23.971,1.815" transform="translate(0.419 28.933)" fill="#e0e0e0"/>
        <path id="Trazado_265157" data-name="Trazado 265157" d="M28.7,347a79.244,79.244,0,0,1-10.494-9.233A26.543,26.543,0,0,1,11.626,325.6c-.282-1.387-.37-2.971.52-4.071C20.511,328.06,27.081,336.508,28.7,347" transform="translate(0.972 27.348)" fill="#e0e0e0"/>
        <path id="Trazado_265158" data-name="Trazado 265158" d="M27.691,347.338a37.944,37.944,0,0,1,.194-13.777,18.628,18.628,0,0,1,7.338-11.368c1.446,3.378.825,7.27-.193,10.8a52.519,52.519,0,0,1-7.277,15.321" transform="translate(2.31 27.405)" fill="#e0e0e0"/>
        <path id="Trazado_265159" data-name="Trazado 265159" d="M36.812,358.907c-4.977.6-9.313,3.229-13.029,6.594a24.649,24.649,0,0,0-7.452,12.794c4.883-.3,9.024-3.745,12.028-7.605s5.086-8.1,8.385-11.707" transform="translate(1.389 30.528)" fill="#e0e0e0"/>
        <path id="Trazado_265160" data-name="Trazado 265160" d="M37.023,363.456a32.134,32.134,0,0,1,3.711-30.4c2.835,10.088,1.795,21.481-3.711,30.4" transform="translate(2.959 28.329)" fill="#e0e0e0"/>
        <path id="Trazado_265161" data-name="Trazado 265161" d="M48.6,372.965a23.234,23.234,0,0,0-22.218,12.79c-.276.55-.519,1.249-.15,1.743a1.652,1.652,0,0,0,1.472.433c4.379-.283,8.259-2.918,11.463-5.918s5.992-6.466,9.53-9.06" transform="translate(2.215 31.72)" fill="#e0e0e0"/>
        <path id="Trazado_265162" data-name="Trazado 265162" d="M46.659,374.728a41.379,41.379,0,0,1-.413-23.115c.815-2.975,2.182-6.108,4.933-7.5a.966.966,0,0,1,.755-.132,1,1,0,0,1,.477.552,13.927,13.927,0,0,1,1.162,6.632,41.449,41.449,0,0,1-1.038,6.713c-.867,4.1-1.328,8.512-3.579,12.051a24.481,24.481,0,0,0-1.43,2.648c-.426.9-.43,1.215-.82,1.931" transform="translate(3.81 29.255)" fill="#e0e0e0"/>
        <path id="Trazado_265163" data-name="Trazado 265163" d="M73.005,378.248c-2.125-8.082.13-17.88,5.223-24.5.375-.488.872-1.011,1.484-.955.939.087,1.182,1.337,1.139,2.278a44.275,44.275,0,0,1-7.847,23.182" transform="translate(6.142 30.007)" fill="#e0e0e0"/>
        <path id="Trazado_265164" data-name="Trazado 265164" d="M75.326,378.545c9.819,2.555,21.084.072,29.25-5.949a23.684,23.684,0,0,0-15.834-1.943c-5.29,1.21-10.123,3.58-13.416,7.893" transform="translate(6.407 31.478)" fill="#e0e0e0"/>
        <path id="Trazado_265165" data-name="Trazado 265165" d="M77.335,374.125c5.5-8.966,16.043-14.818,26.547-15.35-1.211,4.273-4.721,7.593-8.683,9.6s-8.384,2.881-12.743,3.727c-1.7.329-4.022.691-5.121,2.024" transform="translate(6.578 30.517)" fill="#e0e0e0"/>
        <path id="Trazado_265166" data-name="Trazado 265166" d="M73.746,351.281c1.489-5.1,2.986-10.248,3.4-15.547s-.346-10.831-3.1-15.379c-5.137,9.94-5.656,21.554-.452,31.458" transform="translate(5.948 27.249)" fill="#e0e0e0"/>
        <path id="Trazado_265167" data-name="Trazado 265167" d="M89.385,342.436c6.007-10.918,18.263-19.638,30.664-20.861-4.783,11.912-17.83,21.117-30.664,20.861" transform="translate(7.603 27.353)" fill="#e0e0e0"/>
        <path id="Trazado_265168" data-name="Trazado 265168" d="M85.9,342.913c8.959,1.365,16.592,7.086,24.964,10.555a11.2,11.2,0,0,0,5.643,1.081,4.418,4.418,0,0,0,2.766-7.816,12.073,12.073,0,0,0-4.1-2.487c-9.119-3.8-18.9-3.891-28.5-1.589" transform="translate(7.307 29.015)" fill="#e0e0e0"/>
        <path id="Trazado_265169" data-name="Trazado 265169" d="M81.124,348.6c2.028.581,2.721,1.631,4.327,3a46.693,46.693,0,0,0,18.931,9.724c.723.18,1.671.251,2.029-.4.314-.571-.082-1.261-.489-1.77a26.054,26.054,0,0,0-11.43-7.759c-4.368-1.628-8.153-3.588-13.368-3.167" transform="translate(6.9 29.614)" fill="#e0e0e0"/>
        <path id="Trazado_265170" data-name="Trazado 265170" d="M75.733,313.664a35.825,35.825,0,0,0,27.466,9.345,1.883,1.883,0,0,0,1.251-.448c.691-.752-.138-1.913-.944-2.541-8.075-6.3-17.857-8.906-27.773-6.355" transform="translate(6.442 26.597)" fill="#e0e0e0"/>
        <path id="Trazado_265171" data-name="Trazado 265171" d="M82.125,311.834a38.282,38.282,0,0,1,34.274-5.655c-4.316,4.255-10.3,6.543-16.332,7.17a51.658,51.658,0,0,1-17.941-1.515" transform="translate(6.985 25.889)" fill="#e0e0e0"/>
        <path id="Trazado_265172" data-name="Trazado 265172" d="M79.948,297.077c-.793-8.06-.279-14.423-.838-22.52-.046-.648-.184-1.426-.789-1.659-.843-.324-1.546.712-1.822,1.571a25.814,25.814,0,0,0,3.436,22.43" transform="translate(6.406 23.207)" fill="#e0e0e0"/>
        <path id="Trazado_265173" data-name="Trazado 265173" d="M79.05,297.984c5.463-3.379,9.562-7.791,13.352-12.977,2.637-3.608,4.86-7.931,4.261-12.359a12.778,12.778,0,0,0-9.631,4.782,26.867,26.867,0,0,0-4.91,9.878c-1.069,3.546-1.817,7.191-3.072,10.676" transform="translate(6.724 23.191)" fill="#e0e0e0"/>
        <path id="Trazado_265174" data-name="Trazado 265174" d="M91.153,294.222a107.652,107.652,0,0,0,32.858-19.375c-3.925-1.581-8.419-.635-12.343.949-8.965,3.619-16.29,9.728-20.687,18.338" transform="translate(7.739 23.309)" fill="#e0e0e0"/>
        <path id="Trazado_265175" data-name="Trazado 265175" d="M82.449,300.806c6.065.663,12.228,1.095,18.245.089,5.916-.988,11.5-3.333,17.033-5.66a2,2,0,0,0,1.157-.879,1.331,1.331,0,0,0-.414-1.457,3.518,3.518,0,0,0-1.453-.68c-6.009-1.681-12.494-.894-18.407,1.1a85.43,85.43,0,0,0-16.161,7.488" transform="translate(7.013 24.778)" fill="#e0e0e0"/>
        <path id="Trazado_265176" data-name="Trazado 265176" d="M50.767,315.936c-4.138-8.354-3.869-18.1-.3-26.711,2.517,3.835,2.824,8.717,2.364,13.281s-1.85,9.26-1.939,13.845" transform="translate(4.06 24.601)" fill="#e0e0e0"/>
        <path id="Trazado_265177" data-name="Trazado 265177" d="M37.463,306.158A37.252,37.252,0,0,0,9.78,317.952c5.156.809,10.468-.521,15.158-2.81s8.86-5.5,12.99-8.7" transform="translate(0.832 26.041)" fill="#e0e0e0"/>
        <path id="Trazado_265178" data-name="Trazado 265178" d="M27.091,302.77c-5.054-.41-9.919-1.035-14.778.454s-9.283,4.87-11.264,9.551A26.714,26.714,0,0,0,14.9,310.158a79.675,79.675,0,0,0,12.187-7.388" transform="translate(0.089 25.712)" fill="#e0e0e0"/>
        <path id="Trazado_265179" data-name="Trazado 265179" d="M42.539,303.5c-4.547-2.978-9.216-6.013-14.51-7.246s-11.431-.323-15.122,3.666c4.286,2.516,9.486,2.814,14.455,2.808s11.061-.06,15.745,1.6" transform="translate(1.098 25.155)" fill="#e0e0e0"/>
        <path id="Trazado_265180" data-name="Trazado 265180" d="M40.933,305.6c-7.774-7.633-10.72-21.346-7.593-31.782A48.427,48.427,0,0,1,40.933,305.6" transform="translate(2.731 23.29)" fill="#e0e0e0"/>
        <path id="Trazado_265181" data-name="Trazado 265181" d="M59.942,285.143c1.465-3.408,2.5-6.986,3.813-10.455a30.005,30.005,0,0,1,5.435-9.639,14.318,14.318,0,0,1,9.628-4.99A38.771,38.771,0,0,1,60.132,285.2" transform="translate(5.099 22.12)" fill="#e0e0e0"/>
        <path id="Trazado_265182" data-name="Trazado 265182" d="M57.953,288.4c-2.426-3.34-5.229-7.872-8.52-10.366s-7.574-4-11.59-3.044A27,27,0,0,0,57.953,288.4" transform="translate(3.219 23.366)" fill="#e0e0e0"/>
        <path id="Trazado_265183" data-name="Trazado 265183" d="M57.413,285.4a57.65,57.65,0,0,1-3.835-12.42c-.643-4.295-.252-8.881,1.943-12.628,4.268,8.066,5.642,16.725,2.109,25.139" transform="translate(4.533 22.145)" fill="#e0e0e0"/>
        <path id="Trazado_265184" data-name="Trazado 265184" d="M59.978,261.689c2.416-8,9.739-13.884,17.644-16.586a6.586,6.586,0,0,1,3.093-.463,2.683,2.683,0,0,1,2.28,1.9c.289,1.36-.836,2.579-1.892,3.483a60.059,60.059,0,0,1-21.125,11.663" transform="translate(5.102 20.805)" fill="#e0e0e0"/>
        <path id="Trazado_265185" data-name="Trazado 265185" d="M60.068,256.429c.307-5.156.629-10.386,2.306-15.271s4.909-9.468,9.61-11.606c.8,5.207-1.5,10.387-4.268,14.869s-6.111,8.711-7.776,13.709" transform="translate(5.098 19.525)" fill="#e0e0e0"/>
        <path id="Trazado_265186" data-name="Trazado 265186" d="M61.117,259.79c-2-5.828-2.2-13.23-5.694-18.307-2.44-3.549-6.345-5.967-8.447-9.725a14.793,14.793,0,0,0,.49,11.04,31.964,31.964,0,0,0,6.457,9.243c2.582,2.757,4.793,4.832,7.194,7.749" transform="translate(3.923 19.713)" fill="#e0e0e0"/>
        <path id="Trazado_265187" data-name="Trazado 265187" d="M60,429.372c-.155,0-.29-38.877-.3-86.821-.011-47.962.106-86.83.262-86.83s.29,38.868.3,86.829c.011,47.945-.106,86.822-.262,86.822" transform="translate(5.078 21.751)" fill="#e0e0e0"/>
        <path id="Trazado_265188" data-name="Trazado 265188" d="M93.955,308.437a8.213,8.213,0,0,1-1.462.549l-4.022,1.357c-3.392,1.156-8.051,2.828-13.109,4.9-5.008,2.148-9.73,3.892-12.418,6.223a9.12,9.12,0,0,0-2.5,3.3c-.385.913-.455,1.471-.506,1.462a1.12,1.12,0,0,1,.016-.408,6.276,6.276,0,0,1,.285-1.133,8.781,8.781,0,0,1,2.436-3.519,21.827,21.827,0,0,1,5.388-3.347c2.155-1.006,4.544-2.055,7.081-3.1,5.072-2.078,9.768-3.7,13.2-4.759,1.714-.534,3.113-.929,4.083-1.188a8.359,8.359,0,0,1,1.525-.34" transform="translate(5.098 26.234)" fill="#e0e0e0"/>
        <path id="Trazado_265189" data-name="Trazado 265189" d="M104.88,283.227a2.39,2.39,0,0,1-.409.437c-.332.31-.744.7-1.248,1.172l-4.657,4.231-15.5,13.8c-6.05,5.385-11.279,10.532-14.9,14.406-1.814,1.936-3.243,3.538-4.219,4.657l-1.126,1.287a2.43,2.43,0,0,1-.42.426,2.413,2.413,0,0,1,.332-.5c.235-.312.578-.778,1.047-1.355.924-1.164,2.312-2.811,4.094-4.786a196.667,196.667,0,0,1,14.821-14.557c6.072-5.373,11.6-10.2,15.612-13.68l4.775-4.1,1.317-1.093a2.449,2.449,0,0,1,.485-.353" transform="translate(5.307 24.091)" fill="#e0e0e0"/>
        <path id="Trazado_265190" data-name="Trazado 265190" d="M75.427,307.431c-.158-.071,1.106-2.989,2.364-6.68s1.87-6.805,2.031-6.779a22.8,22.8,0,0,1-1.5,6.958,45.314,45.314,0,0,1-1.883,4.672,7.259,7.259,0,0,1-1.015,1.828" transform="translate(6.415 25.005)" fill="#e0e0e0"/>
        <path id="Trazado_265191" data-name="Trazado 265191" d="M61.776,330.287a6.9,6.9,0,0,1-.932-1.083c-.634-.811-1.433-1.838-2.389-3.062-2.006-2.594-4.78-6.174-7.888-10.091s-5.969-7.433-8.039-9.976l-2.44-3.021a7.037,7.037,0,0,1-.843-1.153,6.868,6.868,0,0,1,1.009,1.011c.623.675,1.5,1.668,2.579,2.908,2.15,2.479,5.06,5.958,8.174,9.882s5.84,7.546,7.767,10.2c.964,1.328,1.731,2.412,2.247,3.172a6.963,6.963,0,0,1,.756,1.212" transform="translate(3.338 25.679)" fill="#e0e0e0"/>
        <path id="Trazado_265192" data-name="Trazado 265192" d="M53.448,320.169a13.683,13.683,0,0,1-3.121-5.842,16.69,16.69,0,0,1-.707-5.891l.248.021c-.112.45-.193.688-.238.68s-.047-.258-.01-.72l.248.021a26.877,26.877,0,0,0,1,5.729,43.676,43.676,0,0,0,2.582,6" transform="translate(4.217 26.233)" fill="#e0e0e0"/>
        <path id="Trazado_265193" data-name="Trazado 265193" d="M45.6,308.286a10.065,10.065,0,0,0-2.179-1.266,14.567,14.567,0,0,0-6.049-.48,37.419,37.419,0,0,0-6.092.982,19.055,19.055,0,0,1-2.506.6,8.694,8.694,0,0,1,2.4-.986,27.88,27.88,0,0,1,6.157-1.16,13.193,13.193,0,0,1,6.24.673,3.866,3.866,0,0,1,2.03,1.634" transform="translate(2.447 26.019)" fill="#e0e0e0"/>
        <path id="Trazado_265194" data-name="Trazado 265194" d="M44.034,305.678c-.043.088-1.27-.509-3.338-1.215a33.6,33.6,0,0,0-16.823-1.283c-2.152.385-3.454.788-3.483.7a3.173,3.173,0,0,1,.885-.378,20.76,20.76,0,0,1,2.521-.707,29.7,29.7,0,0,1,17.035,1.3,20.611,20.611,0,0,1,2.384,1.082,3.174,3.174,0,0,1,.818.507" transform="translate(1.734 25.696)" fill="#e0e0e0"/>
        <path id="Trazado_265195" data-name="Trazado 265195" d="M60.282,295.309a69.191,69.191,0,0,1-2.434-8.456,68.715,68.715,0,0,1-1.89-8.595,69.409,69.409,0,0,1,2.434,8.457,69.109,69.109,0,0,1,1.89,8.594" transform="translate(4.758 23.668)" fill="#e0e0e0"/>
        <path id="Trazado_265196" data-name="Trazado 265196" d="M60.607,294.691a40.627,40.627,0,0,0-2.7-5.063,22.325,22.325,0,0,0-3.97-4.1,3.7,3.7,0,0,1,1.532.791,12.347,12.347,0,0,1,2.9,2.985,11.221,11.221,0,0,1,2.238,5.385" transform="translate(4.588 24.286)" fill="#e0e0e0"/>
        <path id="Trazado_265197" data-name="Trazado 265197" d="M62.77,401.108c-.061.009-.175-.934-.613-2.586a36.869,36.869,0,0,0-2.6-6.731c-2.687-5.489-7.574-12.448-13.785-19.418-3.077-3.517-6.062-6.833-8.6-10.009a70.321,70.321,0,0,1-6.147-8.867,42.539,42.539,0,0,1-3.1-6.579c-.285-.812-.495-1.444-.61-1.883a3.193,3.193,0,0,1-.16-.671c.05-.016.333.89.973,2.474a48.152,48.152,0,0,0,3.242,6.458,74.468,74.468,0,0,0,6.208,8.741c2.544,3.143,5.534,6.442,8.616,9.964,6.227,6.989,11.1,14.036,13.718,19.616a33.512,33.512,0,0,1,2.452,6.851,19.129,19.129,0,0,1,.345,1.95,3.178,3.178,0,0,1,.056.688" transform="translate(2.31 29.291)" fill="#e0e0e0"/>
        <path id="Trazado_265198" data-name="Trazado 265198" d="M90.677,364.7a14.234,14.234,0,0,1-1.609.9,35.274,35.274,0,0,0-4.173,2.759,47.884,47.884,0,0,0-5.481,5c-1.924,2.032-3.905,4.391-5.928,6.921-4.043,5.074-7.825,9.563-10.09,13.147-1.149,1.777-1.986,3.276-2.533,4.327a13.843,13.843,0,0,1-.886,1.62,1.591,1.591,0,0,1,.15-.457c.119-.289.282-.724.54-1.26a40.879,40.879,0,0,1,2.394-4.443c2.2-3.67,5.95-8.22,9.987-13.285,2.027-2.534,4.032-4.9,5.993-6.927a44.415,44.415,0,0,1,5.616-4.959,29.223,29.223,0,0,1,4.31-2.635c.533-.268.968-.432,1.255-.557a1.584,1.584,0,0,1,.455-.153" transform="translate(5.101 31.021)" fill="#e0e0e0"/>
        <path id="Trazado_265199" data-name="Trazado 265199" d="M90.487,375.073a23.51,23.51,0,0,1-3.4.494,44.891,44.891,0,0,0-8.065,1.589,24.275,24.275,0,0,0-7.222,3.79c-1.664,1.286-2.449,2.35-2.526,2.288a2.6,2.6,0,0,1,.5-.783,12.817,12.817,0,0,1,1.772-1.813,21.873,21.873,0,0,1,7.3-4.017,36.47,36.47,0,0,1,8.2-1.449,18.755,18.755,0,0,1,3.441-.1" transform="translate(5.892 31.899)" fill="#e0e0e0"/>
        <path id="Trazado_265200" data-name="Trazado 265200" d="M70.189,382.355c-.178-.1,1.355-2.441,2.543-5.59,1.117-3.177,1.377-5.964,1.578-5.931a5.387,5.387,0,0,1-.056,1.824,19.536,19.536,0,0,1-.993,4.3,20.781,20.781,0,0,1-1.972,3.942,5.5,5.5,0,0,1-1.1,1.456" transform="translate(5.969 31.542)" fill="#e0e0e0"/>
        <path id="Trazado_265201" data-name="Trazado 265201" d="M100.618,336.871a2.584,2.584,0,0,1-.545.29l-1.6.726c-.7.3-1.551.681-2.508,1.186s-2.082,1.006-3.25,1.707l-1.854,1.055c-.643.37-1.28.809-1.957,1.234-1.367.829-2.738,1.851-4.2,2.895A72.057,72.057,0,0,0,68.531,362.7c-.993,1.5-1.967,2.9-2.75,4.3-.4.692-.818,1.343-1.165,2l-.991,1.89c-.661,1.19-1.133,2.329-1.6,3.305s-.824,1.837-1.1,2.547l-.672,1.621a2.55,2.55,0,0,1-.27.554,2.47,2.47,0,0,1,.164-.592c.151-.438.341-.988.574-1.662.245-.725.569-1.6,1.015-2.592s.886-2.15,1.529-3.358l.965-1.919c.34-.665.75-1.326,1.145-2.027.77-1.415,1.736-2.839,2.725-4.355A69.444,69.444,0,0,1,84.4,345.546c1.482-1.04,2.871-2.054,4.259-2.872.688-.418,1.334-.851,1.987-1.213l1.885-1.03c1.186-.682,2.326-1.172,3.3-1.642s1.841-.833,2.556-1.1l1.643-.63a2.486,2.486,0,0,1,.586-.184" transform="translate(5.102 28.653)" fill="#e0e0e0"/>
        <path id="Trazado_265202" data-name="Trazado 265202" d="M75.041,352.191a3.909,3.909,0,0,1,1.336-1.99,8.441,8.441,0,0,1,5.383-2.065,14.727,14.727,0,0,1,5.665,1.107,8.092,8.092,0,0,1,2.142,1.041,13.2,13.2,0,0,1-2.273-.665,17.1,17.1,0,0,0-5.515-.92,8.759,8.759,0,0,0-5.142,1.8,15.788,15.788,0,0,0-1.6,1.688" transform="translate(6.382 29.611)" fill="#e0e0e0"/>
        <path id="Trazado_265203" data-name="Trazado 265203" d="M71.7,356.123a14.378,14.378,0,0,0,1.186-10.164,3.293,3.293,0,0,1,.632,1.449,10.277,10.277,0,0,1-.87,7.451c-.474.859-.893,1.3-.947,1.264" transform="translate(6.097 29.426)" fill="#e0e0e0"/>
        <path id="Trazado_265204" data-name="Trazado 265204" d="M35.232,401.794c.838,14.857,5.315,29.966,12.2,45.243H77.379c6.567-15.125,10.734-30.21,11.476-45.243Z" transform="translate(2.997 34.176)" fill="#e0e0e0"/>
        <path id="Trazado_265205" data-name="Trazado 265205" d="M83.63,423.972c0,.155-9.86.281-22.019.281s-22.021-.126-22.021-.281,9.857-.281,22.021-.281,22.019.126,22.019.281" transform="translate(3.367 36.038)" fill="#fafafa"/>
        <path id="Trazado_265206" data-name="Trazado 265206" d="M82.8,428.932c0,.155-9.244.281-20.642.281s-20.644-.126-20.644-.281,9.24-.281,20.644-.281,20.642.126,20.642.281" transform="translate(3.531 36.46)" fill="#fafafa"/>
        <path id="Trazado_265207" data-name="Trazado 265207" d="M46.944,410.784a84.791,84.791,0,0,1,0,13.8,84.79,84.79,0,0,1,0-13.8" transform="translate(3.969 34.94)" fill="#fafafa"/>
        <path id="Trazado_265208" data-name="Trazado 265208" d="M61.731,410.784a90.917,90.917,0,0,1,0,14.286,90.917,90.917,0,0,1,0-14.286" transform="translate(5.227 34.94)" fill="#fafafa"/>
        <path id="Trazado_265209" data-name="Trazado 265209" d="M75.612,410.672a94.58,94.58,0,0,1,0,14.571,94.58,94.58,0,0,1,0-14.571" transform="translate(6.407 34.931)" fill="#fafafa"/>
        <path id="Trazado_265210" data-name="Trazado 265210" d="M87.824,410.806c0,.155-11.565.281-25.825.281s-25.829-.126-25.829-.281,11.561-.281,25.829-.281,25.825.126,25.825.281" transform="translate(3.077 34.918)" fill="#fafafa"/>
        <path id="Trazado_265211" data-name="Trazado 265211" d="M622.835,30.5a28.017,28.017,0,1,0-52.167,14.153h-.015l.08.106c1.074,1.81,2.42,3.1,3.779,5.006l16.267,21.549a5.06,5.06,0,0,0,8.076,0l16-21.193a60.448,60.448,0,0,0,4.07-5.391l.057-.077h-.011A27.839,27.839,0,0,0,622.835,30.5M594.817,42.7a12.33,12.33,0,1,1,12.33-12.33,12.33,12.33,0,0,1-12.33,12.33" transform="translate(48.211 0.211)" fill="#f5f5f5"/>
        <rect id="Rectángulo_294742" data-name="Rectángulo 294742" width="108.49" height="104.962" transform="translate(0.354 138.423) rotate(-9.986)" fill="#f5f5f5"/>
        <path id="Trazado_265212" data-name="Trazado 265212" d="M23.3,217.92l20.191-58.4,30.162,29.742,11.51-20.642,28.414,33.4Z" transform="translate(1.982 13.569)" fill="#e0e0e0"/>
        <path id="Trazado_265213" data-name="Trazado 265213" d="M73.216,144.9a7.808,7.808,0,1,1-9.043-6.336,7.807,7.807,0,0,1,9.043,6.336" transform="translate(4.909 11.776)" fill="#e0e0e0"/>
        <g id="Grupo_237769" data-name="Grupo 237769" transform="translate(9.546 129.115)" opacity="0.3">
          <g id="Grupo_237768" data-name="Grupo 237768">
            <g id="Grupo_237767" data-name="Grupo 237767" clip-path="url(#clip-path-2)">
              <path id="Trazado_265214" data-name="Trazado 265214" d="M114.861,205.76a3.539,3.539,0,0,1-.1-.42c-.059-.308-.138-.7-.235-1.2q-.309-1.647-.87-4.643c-.749-4.1-1.83-10.017-3.2-17.537-2.713-15.089-6.575-36.576-11.214-62.376l.514.359L9.5,135.91c-.1.129.787-1.125.412-.582l0,.023.008.046.016.092.033.184.065.37.13.737.259,1.472.516,2.936q.516,2.931,1.026,5.837,1.022,5.809,2.024,11.509,2,11.4,3.909,22.277c2.533,14.48,4.925,28.17,7.128,40.763l-.522-.365,65.313-11.267,18.431-3.125,4.894-.808,1.27-.2a3.2,3.2,0,0,1,.449-.053,2.249,2.249,0,0,1-.391.094l-1.213.24q-1.7.316-4.788.9l-18.29,3.34L24.662,222.1l-.443.08-.078-.447c-2.232-12.588-4.659-26.273-7.225-40.746Q15,170.125,12.981,158.713q-1.006-5.7-2.029-11.509-.513-2.905-1.029-5.835l-.518-2.936-.259-1.472-.13-.737-.065-.369-.033-.184-.016-.093-.008-.046,0-.023c-.375.526.506-.747.426-.615L99.6,119.07l.438-.076.076.437c4.473,25.946,8.2,47.556,10.815,62.733,1.27,7.493,2.269,13.4,2.96,17.476q.485,2.952.754,4.578c.074.484.132.864.179,1.162a1.867,1.867,0,0,1,.041.38" transform="translate(-8.797 -118.994)" fill="#e0e0e0"/>
            </g>
          </g>
        </g>
        <rect id="Rectángulo_294744" data-name="Rectángulo 294744" width="42.246" height="62.677" transform="matrix(0.191, -0.982, 0.982, 0.191, 0, 69.93)" fill="#f5f5f5"/>
        <path id="Trazado_265215" data-name="Trazado 265215" d="M69.042,38.673a4.1,4.1,0,0,1-.68.441l-2,1.169-7.43,4.209L34.252,58.222l-.2.113-.152-.178c-.115-.136-.24-.283-.366-.43L15.044,35.879c-2.314-2.777-4.2-5.04-5.552-6.662C8.874,28.455,8.379,27.847,8,27.387a4.715,4.715,0,0,1-.489-.663,4.245,4.245,0,0,1,.576.588q.594.664,1.569,1.76c1.385,1.594,3.319,3.817,5.691,6.547L33.966,57.358c.125.149.25.294.365.43l-.354-.065c9.662-5.3,18.385-10.087,24.758-13.583l7.517-4.049,2.055-1.076a4.292,4.292,0,0,1,.736-.342" transform="translate(0.639 2.273)" fill="#e0e0e0"/>
        <path id="Trazado_265216" data-name="Trazado 265216" d="M.092,66.584c-.1-.123,5.633-4.909,12.8-10.689S25.949,45.527,26.048,45.649s-5.63,4.907-12.8,10.689S.191,66.707.092,66.584" transform="translate(0.008 3.883)" fill="#e0e0e0"/>
        <path id="Trazado_265217" data-name="Trazado 265217" d="M42.955,48.832c.14-.072,3.615,6.459,7.763,14.585s7.4,14.775,7.256,14.847-3.614-6.458-7.763-14.588-7.4-14.773-7.256-14.845" transform="translate(3.653 4.154)" fill="#e0e0e0"/>
        <path id="Trazado_265218" data-name="Trazado 265218" d="M621.328,214.4l-60.32-21.107A8,8,0,0,1,556.1,183.1L585.315,99.61A8,8,0,0,1,595.5,94.7l38.255,13.386,18.933,40.883L631.517,209.49a8,8,0,0,1-10.189,4.907" transform="translate(47.262 8.017)" fill="#ebebeb"/>
        <path id="Trazado_265219" data-name="Trazado 265219" d="M628.313,107l-8.221,23.5a7.436,7.436,0,0,0,4.562,9.476l22.593,7.91Z" transform="translate(52.708 9.102)" fill="#f5f5f5"/>
        <path id="Trazado_265220" data-name="Trazado 265220" d="M619.712,130.659s-2.292,5.595,3.541,9.738a7.374,7.374,0,0,0,.685.429c2.766,1.559,20.977,11.81,21.134,11.363.169-.483,2.209-6.314,2.209-6.314l-22.594-7.9s-5.573-2.167-4.974-7.311" transform="translate(52.674 11.114)" fill="#e0e0e0"/>
        <path id="Trazado_265221" data-name="Trazado 265221" d="M617.894,126.913c-.105.3-6.439-1.64-14.145-4.336s-13.868-5.127-13.762-5.429,6.438,1.638,14.145,4.336,13.867,5.127,13.762,5.429" transform="translate(50.183 9.962)" fill="#fafafa"/>
        <path id="Trazado_265222" data-name="Trazado 265222" d="M631.633,145.462c-.105.3-10.474-3.051-23.155-7.489s-22.881-8.28-22.775-8.582,10.472,3.05,23.158,7.489,22.877,8.28,22.772,8.582" transform="translate(49.819 11.004)" fill="#fafafa"/>
        <path id="Trazado_265223" data-name="Trazado 265223" d="M632.192,157.134c-.105.3-11.4-3.376-25.223-8.212s-24.949-9-24.844-9.307,11.4,3.375,25.225,8.213,24.947,9,24.841,9.305" transform="translate(49.514 11.874)" fill="#fafafa"/>
        <path id="Trazado_265224" data-name="Trazado 265224" d="M628.816,166.781c-.105.3-11.4-3.375-25.223-8.212s-24.949-9-24.843-9.307,11.4,3.375,25.226,8.213,24.945,9,24.84,9.305" transform="translate(49.227 12.694)" fill="#fafafa"/>
        <path id="Trazado_265225" data-name="Trazado 265225" d="M625.441,176.427c-.105.3-11.4-3.375-25.223-8.212s-24.949-9-24.844-9.307,11.4,3.375,25.225,8.213,24.947,9,24.841,9.305" transform="translate(48.94 13.515)" fill="#fafafa"/>
        <path id="Trazado_265226" data-name="Trazado 265226" d="M622.066,186.074c-.106.3-11.4-3.376-25.224-8.212s-24.949-9-24.843-9.307,11.4,3.373,25.227,8.213,24.945,9,24.841,9.305" transform="translate(48.653 14.335)" fill="#fafafa"/>
        <path id="Trazado_265227" data-name="Trazado 265227" d="M599.9,356.65a22.317,22.317,0,0,1,5.445-2.367l1.122-5.389,9.107-.161,1.311,5.347a22.286,22.286,0,0,1,5.526,2.174l4.6-3.018,6.553,6.327-2.853,4.7a22.23,22.23,0,0,1,2.367,5.447l5.389,1.122.161,9.106-5.347,1.312a22.376,22.376,0,0,1-2.173,5.525l3.017,4.6-6.326,6.553-4.706-2.854a22.326,22.326,0,0,1-5.446,2.367l-1.122,5.391-9.107.16-1.311-5.347a22.321,22.321,0,0,1-5.525-2.174l-4.6,3.018-6.553-6.327,2.853-4.7a22.314,22.314,0,0,1-2.367-5.447l-5.389-1.121-.161-9.107,5.347-1.311a22.348,22.348,0,0,1,2.174-5.525l-3.016-4.6,6.326-6.553Zm4.855,12.132a9.771,9.771,0,1,0,13.816-.243,9.77,9.77,0,0,0-13.816.243" transform="translate(49.704 29.662)" fill="#f5f5f5"/>
        <path id="Trazado_265228" data-name="Trazado 265228" d="M463.286,28.684A24.625,24.625,0,0,1,469.3,26.07l1.239-5.955,10.06-.177,1.447,5.907a24.661,24.661,0,0,1,6.1,2.4l5.085-3.332,7.238,6.989-3.152,5.2a24.636,24.636,0,0,1,2.615,6.017l5.953,1.239.177,10.06-5.906,1.449a24.689,24.689,0,0,1-2.4,6.1l3.332,5.085-6.988,7.238-5.2-3.152a24.591,24.591,0,0,1-6.017,2.614l-1.239,5.955-10.06.176-1.449-5.906a24.689,24.689,0,0,1-6.1-2.4l-5.083,3.333-7.24-6.989,3.152-5.2a24.634,24.634,0,0,1-2.615-6.017L446.3,55.466l-.177-10.06,5.907-1.449a24.712,24.712,0,0,1,2.4-6.1L451.1,32.77l6.988-7.238Zm5.362,13.4a10.793,10.793,0,1,0,15.261-.268,10.794,10.794,0,0,0-15.261.268" transform="translate(37.946 1.696)" fill="#e0e0e0"/>
      </g>
    </g>
    <g id="Grupo_237773" data-name="Grupo 237773">
      <g id="Grupo_237772" data-name="Grupo 237772" clip-path="url(#clip-path)">
        <path id="Trazado_265229" data-name="Trazado 265229" d="M675.386,442.245c0,.156-148.723.282-332.141.282-183.481,0-332.173-.126-332.173-.282s148.692-.282,332.173-.282c183.417,0,332.141.126,332.141.282" transform="translate(0.942 37.592)" fill="#263238"/>
      </g>
    </g>
    <g id="Grupo_237775" data-name="Grupo 237775">
      <g id="Grupo_237774" data-name="Grupo 237774" clip-path="url(#clip-path)">
        <path id="Trazado_265230" data-name="Trazado 265230" d="M571.221,57.916H99.138A14.735,14.735,0,0,0,84.4,72.651V406.095a14.736,14.736,0,0,0,14.736,14.736H280.322s11.526,35.64-24.2,54.08H425.537s-40.338-13.83-29.966-54.08H571.222A14.736,14.736,0,0,0,585.958,406.1V72.652a14.736,14.736,0,0,0-14.737-14.736" transform="translate(7.179 4.926)" fill="#455a64"/>
        <path id="Trazado_265231" data-name="Trazado 265231" d="M322.555,360.284c6.421,9.177-3.628,19.228-12.809,12.808a3.27,3.27,0,0,1-.789-.791c-6.4-9.175,3.634-19.213,12.808-12.807a3.251,3.251,0,0,1,.79.79" transform="translate(26.107 30.406)" fill="#263238"/>
        <path id="Trazado_265232" data-name="Trazado 265232" d="M577.192,359.351H91.893V74.068a10.522,10.522,0,0,1,10.522-10.522H566.67a10.522,10.522,0,0,1,10.522,10.522Z" transform="translate(7.816 5.405)" fill="#fff"/>
        <path id="Trazado_265233" data-name="Trazado 265233" d="M577.192,88.125H91.893V73.478a9.933,9.933,0,0,1,9.932-9.933H569.036a8.155,8.155,0,0,1,8.155,8.155Z" transform="translate(7.816 5.405)" fill="#ebebeb"/>
        <path id="Trazado_265234" data-name="Trazado 265234" d="M478.8,392.447c0,.156-67.178.283-150.027.283-82.878,0-150.042-.127-150.042-.283s67.164-.283,150.042-.283c82.849,0,150.027.127,150.027.283" transform="translate(15.202 33.357)" fill="#263238"/>
      </g>
    </g>
    <rect id="Rectángulo_294748" data-name="Rectángulo 294748" width="295.93" height="347.407" transform="translate(206.789 17.734)" fill="#fff"/>
    <rect id="Rectángulo_294749" data-name="Rectángulo 294749" width="40.287" height="37.915" transform="translate(462.349 17.791)" fill="#f5f5f5"/>
    <rect id="Rectángulo_294750" data-name="Rectángulo 294750" width="3.191" height="3.2" transform="translate(477.49 30.152)" fill="#fff"/>
    <rect id="Rectángulo_294751" data-name="Rectángulo 294751" width="3.191" height="3.2" transform="translate(481.924 30.152)" fill="#fff"/>
    <rect id="Rectángulo_294752" data-name="Rectángulo 294752" width="3.191" height="3.2" transform="translate(486.36 30.152)" fill="#fff"/>
    <rect id="Rectángulo_294753" data-name="Rectángulo 294753" width="3.191" height="3.2" transform="translate(477.49 34.919)" fill="#fff"/>
    <rect id="Rectángulo_294754" data-name="Rectángulo 294754" width="3.191" height="3.2" transform="translate(481.924 34.919)" fill="#fff"/>
    <rect id="Rectángulo_294755" data-name="Rectángulo 294755" width="3.191" height="3.2" transform="translate(486.36 34.919)" fill="#fff"/>
    <rect id="Rectángulo_294756" data-name="Rectángulo 294756" width="3.191" height="3.2" transform="translate(477.49 39.687)" fill="#fff"/>
    <rect id="Rectángulo_294757" data-name="Rectángulo 294757" width="3.191" height="3.2" transform="translate(481.924 39.687)" fill="#fff"/>
    <rect id="Rectángulo_294758" data-name="Rectángulo 294758" width="3.191" height="3.2" transform="translate(486.36 39.687)" fill="#fff"/>
    <rect id="Rectángulo_294759" data-name="Rectángulo 294759" width="295.93" height="17.555" transform="translate(206.705 0.235)" fill="#e0e0e0"/>
    <g id="Grupo_237777" data-name="Grupo 237777">
      <g id="Grupo_237802" data-name="Grupo 237802">
        <path id="Trazado_265235" data-name="Trazado 265235" d="M201.07,8.534a2.9,2.9,0,1,1-2.9-2.9,2.9,2.9,0,0,1,2.9,2.9" transform="translate(16.61 0.479)" fill="#fff"/>
        <path id="Trazado_265236" data-name="Trazado 265236" d="M208.675,8.534a2.9,2.9,0,1,1-2.9-2.9,2.9,2.9,0,0,1,2.9,2.9" transform="translate(17.257 0.479)" fill="#fff"/>
        <path id="Trazado_265237" data-name="Trazado 265237" d="M216.281,8.534a2.9,2.9,0,1,1-2.9-2.9,2.9,2.9,0,0,1,2.9,2.9" transform="translate(17.904 0.479)" fill="#fff"/>
        <path id="Trazado_265238" data-name="Trazado 265238" d="M223.324,45.972V56.055H221V51.92h-4.565v4.135h-2.325V45.972h2.325v3.976H221V45.972Z" transform="translate(18.212 3.91)" fill="#263238"/>
        <path id="Trazado_265239" data-name="Trazado 265239" d="M232.222,52.64h-5.843a2.061,2.061,0,0,0,2.21,1.556,2.616,2.616,0,0,0,1.939-.75l1.191,1.3A4.038,4.038,0,0,1,228.533,56c-2.67,0-4.408-1.685-4.408-3.99a3.938,3.938,0,0,1,4.12-3.99,3.829,3.829,0,0,1,4.019,4.018c0,.174-.028.418-.042.605M226.35,51.33h3.8a1.927,1.927,0,0,0-3.8,0" transform="translate(19.064 4.084)" fill="#263238"/>
        <rect id="Rectángulo_294760" data-name="Rectángulo 294760" width="2.24" height="10.688" transform="translate(252.823 49.277)" fill="#263238"/>
        <rect id="Rectángulo_294761" data-name="Rectángulo 294761" width="2.238" height="10.688" transform="translate(257.144 49.277)" fill="#263238"/>
        <path id="Trazado_265240" data-name="Trazado 265240" d="M240.439,52.007a4.25,4.25,0,1,1,4.25,3.99,3.982,3.982,0,0,1-4.25-3.99m6.216,0a1.981,1.981,0,1,0-1.966,2.145,1.953,1.953,0,0,0,1.966-2.145" transform="translate(20.451 4.084)" fill="#263238"/>
        <path id="Trazado_265241" data-name="Trazado 265241" d="M249.331,54.859a1.382,1.382,0,0,1,2.757,0,1.38,1.38,0,0,1-2.757,0m.043-8.887h2.669l-.445,6.582h-1.779Z" transform="translate(21.208 3.91)" fill="#263238"/>
        <path id="Trazado_265242" data-name="Trazado 265242" d="M264.367,65.439c0,.156-11.33.282-25.3.282s-25.3-.126-25.3-.282,11.327-.282,25.3-.282,25.3.126,25.3.282" transform="translate(18.182 5.542)" fill="#263238"/>
        <path id="Trazado_265243" data-name="Trazado 265243" d="M309.444,73.317c0,.156-21.421.282-47.84.282s-47.845-.126-47.845-.282,21.417-.282,47.845-.282,47.84.126,47.84.282" transform="translate(18.182 6.212)" fill="#263238"/>
        <path id="Trazado_265244" data-name="Trazado 265244" d="M325.392,82.132c0,.156-24.891.282-55.59.282s-55.594-.126-55.594-.282,24.886-.282,55.594-.282,55.59.126,55.59.282" transform="translate(18.22 6.962)" fill="#e0e0e0"/>
        <path id="Trazado_265245" data-name="Trazado 265245" d="M325.392,88.037c0,.156-24.891.282-55.59.282s-55.594-.126-55.594-.282,24.886-.282,55.594-.282,55.59.126,55.59.282" transform="translate(18.22 7.464)" fill="#e0e0e0"/>
        <path id="Trazado_265246" data-name="Trazado 265246" d="M271.7,112.12h0a7.713,7.713,0,1,1,7.691-7.713,7.7,7.7,0,0,1-7.691,7.713" transform="translate(22.456 8.225)" fill="#a3314f"/>
        <rect id="Rectángulo_294762" data-name="Rectángulo 294762" width="1.592" height="5.156" transform="translate(290.67 110.913)" fill="#fff"/>
        <path id="Trazado_265247" data-name="Trazado 265247" d="M268.685,101.746a.952.952,0,1,0-.941-.952.946.946,0,0,0,.941.952" transform="translate(22.774 8.492)" fill="#fff"/>
        <path id="Trazado_265248" data-name="Trazado 265248" d="M271.816,104.681c0-.725.333-1.157.97-1.157.585,0,.866.414.866,1.157v2.707h1.584v-3.265a1.864,1.864,0,0,0-3.42-1.2v-.694h-1.527v5.157h1.527Z" transform="translate(22.99 8.682)" fill="#fff"/>
        <path id="Trazado_265249" data-name="Trazado 265249" d="M238.028,112.188h0a7.775,7.775,0,1,1,7.754-7.776,7.764,7.764,0,0,1-7.754,7.776" transform="translate(19.587 8.22)" fill="#a3314f"/>
        <path id="Trazado_265250" data-name="Trazado 265250" d="M239.534,103.865H236.4l0,.9h2.113a2.074,2.074,0,0,1-2.055,1.768,2.464,2.464,0,1,1,1.67-4.271l.693-.6a3.373,3.373,0,1,0-2.363,5.784,3.056,3.056,0,0,0,3.077-3.232Z" transform="translate(19.826 8.564)" fill="#fff"/>
        <path id="Trazado_265251" data-name="Trazado 265251" d="M243.446,103.752h-1.293v-1.3h-.825v1.3h-1.293v.827h1.293v1.3h.825v-1.3h1.293Z" transform="translate(20.417 8.715)" fill="#fff"/>
        <path id="Trazado_265252" data-name="Trazado 265252" d="M255.1,112.07h0a7.658,7.658,0,1,1,7.637-7.658,7.648,7.648,0,0,1-7.637,7.658" transform="translate(21.049 8.23)" fill="#a3314f"/>
        <path id="Trazado_265253" data-name="Trazado 265253" d="M254.832,100.7c1.118,0,1.25,0,1.692.025a2.306,2.306,0,0,1,.778.144,1.389,1.389,0,0,1,.794.8,2.328,2.328,0,0,1,.144.78c.021.443.025.575.025,1.7s0,1.253-.025,1.7a2.313,2.313,0,0,1-.144.779,1.381,1.381,0,0,1-.794.8,2.3,2.3,0,0,1-.778.145c-.442.02-.574.024-1.692.024s-1.251,0-1.692-.024a2.3,2.3,0,0,1-.778-.145,1.381,1.381,0,0,1-.794-.8,2.313,2.313,0,0,1-.144-.779c-.021-.444-.025-.576-.025-1.7s0-1.254.025-1.7a2.328,2.328,0,0,1,.144-.78,1.389,1.389,0,0,1,.794-.8,2.306,2.306,0,0,1,.778-.144c.441-.021.574-.025,1.692-.025m0-.756c-1.137,0-1.279,0-1.726.025a3.094,3.094,0,0,0-1.017.2,2.15,2.15,0,0,0-1.224,1.228,3.073,3.073,0,0,0-.2,1.019c-.021.448-.025.591-.025,1.732s0,1.283.025,1.731a3.086,3.086,0,0,0,.2,1.02,2.144,2.144,0,0,0,1.224,1.227,3.066,3.066,0,0,0,1.017.2c.447.021.589.026,1.726.026s1.279-.005,1.726-.026a3.065,3.065,0,0,0,1.017-.2,2.144,2.144,0,0,0,1.224-1.227,3.086,3.086,0,0,0,.2-1.02c.021-.448.025-.59.025-1.731s0-1.284-.025-1.732a3.073,3.073,0,0,0-.2-1.019,2.15,2.15,0,0,0-1.224-1.228,3.094,3.094,0,0,0-1.017-.2c-.447-.021-.589-.025-1.726-.025" transform="translate(21.319 8.501)" fill="#fff"/>
        <path id="Trazado_265254" data-name="Trazado 265254" d="M254.673,101.824a2.156,2.156,0,1,0,2.151,2.156,2.154,2.154,0,0,0-2.151-2.156m0,3.556a1.4,1.4,0,1,1,1.4-1.4,1.4,1.4,0,0,1-1.4,1.4" transform="translate(21.479 8.661)" fill="#fff"/>
        <path id="Trazado_265255" data-name="Trazado 265255" d="M257.106,101.784a.5.5,0,1,1-.5-.5.5.5,0,0,1,.5.5" transform="translate(21.783 8.615)" fill="#fff"/>
        <path id="Trazado_265256" data-name="Trazado 265256" d="M221.175,112.17h0a7.708,7.708,0,1,1,7.687-7.708,7.7,7.7,0,0,1-7.687,7.708" transform="translate(18.159 8.23)" fill="#a3314f"/>
        <path id="Trazado_265257" data-name="Trazado 265257" d="M219.569,108.881h1.871v-4.7h1.306l.139-1.573H221.44v-.9c0-.371.075-.518.433-.518h1.012V99.563h-1.3c-1.393,0-2.02.615-2.02,1.793v1.254H218.6V104.2h.973Z" transform="translate(18.593 8.469)" fill="#fff"/>
        <path id="Trazado_265258" data-name="Trazado 265258" d="M295.986,120.592c0,.156-19.451.282-43.438.282s-43.442-.126-43.442-.282,19.446-.282,43.442-.282,43.438.126,43.438.282" transform="translate(17.786 10.233)" fill="#263238"/>
        <rect id="Rectángulo_294763" data-name="Rectángulo 294763" width="265.221" height="205.383" transform="translate(224.274 159.244)" fill="#f5f5f5"/>
        <path id="Trazado_265259" data-name="Trazado 265259" d="M286.7,169.284c0,.156-8.066.282-18.014.282s-18.015-.126-18.015-.282,8.064-.282,18.015-.282,18.014.126,18.014.282" transform="translate(21.322 14.375)" fill="#a3314f"/>
        <path id="Trazado_265260" data-name="Trazado 265260" d="M405.769,169.284c0,.156-8.066.282-18.014.282s-18.015-.126-18.015-.282S377.8,169,387.755,169s18.014.126,18.014.282" transform="translate(31.449 14.375)" fill="#a3314f"/>
        <path id="Trazado_265261" data-name="Trazado 265261" d="M405.769,207.559c0,.156-8.066.282-18.014.282s-18.015-.126-18.015-.282,8.064-.282,18.015-.282,18.014.126,18.014.282" transform="translate(31.449 17.631)" fill="#a3314f"/>
        <path id="Trazado_265262" data-name="Trazado 265262" d="M298.856,181.556c0,.156-10.476.282-23.4.282s-23.4-.126-23.4-.282,10.475-.282,23.4-.282,23.4.126,23.4.282" transform="translate(21.44 15.419)" fill="#455a64"/>
        <path id="Trazado_265263" data-name="Trazado 265263" d="M297.526,204.189c0,.156-10.477.282-23.4.282s-23.4-.126-23.4-.282,10.475-.282,23.4-.282,23.4.126,23.4.282" transform="translate(21.326 17.344)" fill="#263238"/>
        <path id="Trazado_265264" data-name="Trazado 265264" d="M249.012,181.619a1.079,1.079,0,1,1-1.079-1.082,1.08,1.08,0,0,1,1.079,1.082" transform="translate(20.997 15.356)" fill="#263238"/>
        <path id="Trazado_265265" data-name="Trazado 265265" d="M249.012,204.252a1.079,1.079,0,1,1-1.079-1.082,1.08,1.08,0,0,1,1.079,1.082" transform="translate(20.997 17.281)" fill="#263238"/>
        <path id="Trazado_265266" data-name="Trazado 265266" d="M248.959,223.391a1.079,1.079,0,1,1-1.079-1.082,1.08,1.08,0,0,1,1.079,1.082" transform="translate(20.992 18.909)" fill="#263238"/>
        <path id="Trazado_265267" data-name="Trazado 265267" d="M247.818,202.934a80.121,80.121,0,0,1-.282-9.5,80.121,80.121,0,0,1,.282-9.5,80.117,80.117,0,0,1,.282,9.5,80.117,80.117,0,0,1-.282,9.5" transform="translate(21.055 15.645)" fill="#263238"/>
        <path id="Trazado_265268" data-name="Trazado 265268" d="M247.818,220.689a38.516,38.516,0,0,1-.282-6.575,38.514,38.514,0,0,1,.282-6.577,38.512,38.512,0,0,1,.282,6.577,38.514,38.514,0,0,1-.282,6.575" transform="translate(21.055 17.653)" fill="#263238"/>
        <path id="Trazado_265269" data-name="Trazado 265269" d="M271.35,185.223a76.585,76.585,0,0,1-9.287.282,76.592,76.592,0,0,1-9.289-.282,76.59,76.59,0,0,1,9.289-.282,76.583,76.583,0,0,1,9.287.282" transform="translate(21.5 15.731)" fill="#455a64"/>
        <path id="Trazado_265270" data-name="Trazado 265270" d="M298.387,192.213c0,.156-10.129.282-22.621.282s-22.625-.126-22.625-.282,10.128-.282,22.625-.282,22.621.126,22.621.282" transform="translate(21.532 16.325)" fill="#e0e0e0"/>
        <path id="Trazado_265271" data-name="Trazado 265271" d="M285.73,198.034c0,.156-7.3.282-16.293.282s-16.294-.126-16.294-.282,7.294-.282,16.294-.282,16.293.126,16.293.282" transform="translate(21.532 16.82)" fill="#e0e0e0"/>
        <path id="Trazado_265272" data-name="Trazado 265272" d="M298.02,195.033c0,.156-10.129.282-22.621.282s-22.625-.126-22.625-.282,10.128-.282,22.625-.282,22.621.126,22.621.282" transform="translate(21.5 16.565)" fill="#e0e0e0"/>
        <path id="Trazado_265273" data-name="Trazado 265273" d="M298.387,210.493c0,.157-10.129.283-22.621.283s-22.625-.126-22.625-.283,10.128-.281,22.625-.281,22.621.125,22.621.281" transform="translate(21.532 17.88)" fill="#e0e0e0"/>
        <path id="Trazado_265274" data-name="Trazado 265274" d="M285.73,216.315c0,.156-7.3.282-16.293.282s-16.294-.126-16.294-.282,7.294-.282,16.294-.282,16.293.126,16.293.282" transform="translate(21.532 18.375)" fill="#e0e0e0"/>
        <path id="Trazado_265275" data-name="Trazado 265275" d="M298.02,213.314c0,.156-10.129.282-22.621.282s-22.625-.126-22.625-.282,10.128-.282,22.625-.282,22.621.126,22.621.282" transform="translate(21.5 18.12)" fill="#e0e0e0"/>
        <path id="Trazado_265276" data-name="Trazado 265276" d="M297.526,223.519c0,.156-10.477.282-23.4.282s-23.4-.126-23.4-.282,10.475-.282,23.4-.282,23.4.126,23.4.282" transform="translate(21.326 18.988)" fill="#263238"/>
        <path id="Trazado_265277" data-name="Trazado 265277" d="M298.387,229.823c0,.156-10.129.282-22.621.282s-22.625-.126-22.625-.282,10.128-.282,22.625-.282,22.621.126,22.621.282" transform="translate(21.532 19.524)" fill="#e0e0e0"/>
        <path id="Trazado_265278" data-name="Trazado 265278" d="M285.73,235.645c0,.156-7.3.282-16.293.282s-16.294-.126-16.294-.282,7.294-.282,16.294-.282,16.293.126,16.293.282" transform="translate(21.532 20.019)" fill="#e0e0e0"/>
        <path id="Trazado_265279" data-name="Trazado 265279" d="M298.02,232.643c0,.157-10.129.283-22.621.283s-22.625-.126-22.625-.283,10.128-.282,22.625-.282,22.621.126,22.621.282" transform="translate(21.5 19.764)" fill="#e0e0e0"/>
        <path id="Trazado_265280" data-name="Trazado 265280" d="M286.7,248.645c0,.156-8.066.282-18.014.282s-18.015-.126-18.015-.282,8.064-.282,18.015-.282,18.014.126,18.014.282" transform="translate(21.322 21.125)" fill="#a3314f"/>
        <path id="Trazado_265281" data-name="Trazado 265281" d="M298.856,260.917c0,.156-10.476.282-23.4.282s-23.4-.126-23.4-.282,10.475-.282,23.4-.282,23.4.126,23.4.282" transform="translate(21.44 22.169)" fill="#455a64"/>
        <path id="Trazado_265282" data-name="Trazado 265282" d="M297.526,283.55c0,.156-10.477.282-23.4.282s-23.4-.126-23.4-.282,10.475-.282,23.4-.282,23.4.126,23.4.282" transform="translate(21.326 24.094)" fill="#263238"/>
        <path id="Trazado_265283" data-name="Trazado 265283" d="M249.012,260.98a1.079,1.079,0,1,1-1.079-1.082,1.081,1.081,0,0,1,1.079,1.082" transform="translate(20.997 22.106)" fill="#263238"/>
        <path id="Trazado_265284" data-name="Trazado 265284" d="M249.012,283.613a1.079,1.079,0,1,1-1.079-1.082,1.08,1.08,0,0,1,1.079,1.082" transform="translate(20.997 24.031)" fill="#263238"/>
        <path id="Trazado_265285" data-name="Trazado 265285" d="M248.959,302.752a1.079,1.079,0,1,1-1.079-1.082,1.08,1.08,0,0,1,1.079,1.082" transform="translate(20.992 25.659)" fill="#263238"/>
        <path id="Trazado_265286" data-name="Trazado 265286" d="M247.818,282.295a80.11,80.11,0,0,1-.282-9.5,80.133,80.133,0,0,1,.282-9.5,80.128,80.128,0,0,1,.282,9.5,80.105,80.105,0,0,1-.282,9.5" transform="translate(21.055 22.395)" fill="#263238"/>
        <path id="Trazado_265287" data-name="Trazado 265287" d="M247.818,300.05a38.517,38.517,0,0,1-.282-6.575,38.514,38.514,0,0,1,.282-6.577,38.512,38.512,0,0,1,.282,6.577,38.515,38.515,0,0,1-.282,6.575" transform="translate(21.055 24.403)" fill="#263238"/>
        <path id="Trazado_265288" data-name="Trazado 265288" d="M271.35,264.584a76.6,76.6,0,0,1-9.287.282,76.6,76.6,0,0,1-9.289-.282,76.581,76.581,0,0,1,9.289-.282,76.573,76.573,0,0,1,9.287.282" transform="translate(21.5 22.481)" fill="#455a64"/>
        <path id="Trazado_265289" data-name="Trazado 265289" d="M298.387,271.574c0,.156-10.129.282-22.621.282s-22.625-.126-22.625-.282,10.128-.282,22.625-.282,22.621.126,22.621.282" transform="translate(21.532 23.076)" fill="#e0e0e0"/>
        <path id="Trazado_265290" data-name="Trazado 265290" d="M285.73,277.4c0,.156-7.3.282-16.293.282s-16.294-.126-16.294-.282,7.294-.282,16.294-.282,16.293.126,16.293.282" transform="translate(21.532 23.571)" fill="#e0e0e0"/>
        <path id="Trazado_265291" data-name="Trazado 265291" d="M298.02,274.394c0,.156-10.129.282-22.621.282s-22.625-.126-22.625-.282,10.128-.282,22.625-.282,22.621.126,22.621.282" transform="translate(21.5 23.315)" fill="#e0e0e0"/>
        <path id="Trazado_265292" data-name="Trazado 265292" d="M298.387,289.854c0,.157-10.129.282-22.621.282s-22.625-.125-22.625-.282,10.128-.282,22.625-.282,22.621.126,22.621.282" transform="translate(21.532 24.63)" fill="#e0e0e0"/>
        <path id="Trazado_265293" data-name="Trazado 265293" d="M285.73,295.676c0,.156-7.3.282-16.293.282s-16.294-.126-16.294-.282,7.294-.282,16.294-.282,16.293.126,16.293.282" transform="translate(21.532 25.126)" fill="#e0e0e0"/>
        <path id="Trazado_265294" data-name="Trazado 265294" d="M298.02,292.675c0,.156-10.129.282-22.621.282s-22.625-.126-22.625-.282,10.128-.282,22.625-.282,22.621.126,22.621.282" transform="translate(21.5 24.87)" fill="#e0e0e0"/>
        <path id="Trazado_265295" data-name="Trazado 265295" d="M297.526,302.88c0,.156-10.477.282-23.4.282s-23.4-.126-23.4-.282,10.475-.282,23.4-.282,23.4.126,23.4.282" transform="translate(21.326 25.738)" fill="#263238"/>
        <path id="Trazado_265296" data-name="Trazado 265296" d="M298.387,309.184c0,.156-10.129.282-22.621.282s-22.625-.126-22.625-.282,10.128-.282,22.625-.282,22.621.126,22.621.282" transform="translate(21.532 26.275)" fill="#e0e0e0"/>
        <path id="Trazado_265297" data-name="Trazado 265297" d="M285.73,315.006c0,.156-7.3.282-16.293.282s-16.294-.126-16.294-.282,7.294-.282,16.294-.282,16.293.126,16.293.282" transform="translate(21.532 26.77)" fill="#e0e0e0"/>
        <path id="Trazado_265298" data-name="Trazado 265298" d="M298.02,312c0,.156-10.129.282-22.621.282s-22.625-.126-22.625-.282,10.128-.282,22.625-.282,22.621.126,22.621.282" transform="translate(21.5 26.514)" fill="#e0e0e0"/>
        <path id="Trazado_265299" data-name="Trazado 265299" d="M331.683,351.542c-.156,0-.282-45.58-.282-101.794,0-56.232.126-101.8.282-101.8s.282,45.571.282,101.8c0,56.214-.126,101.794-.282,101.794" transform="translate(28.188 12.584)" fill="#455a64"/>
        <path id="Trazado_265300" data-name="Trazado 265300" d="M431.1,180.466c0,.156-14.259.282-31.844.282s-31.848-.126-31.848-.282,14.257-.282,31.848-.282,31.844.126,31.844.282" transform="translate(31.251 15.326)" fill="#455a64"/>
        <path id="Trazado_265301" data-name="Trazado 265301" d="M431.84,185.223c0,.156-14.152.282-31.607.282s-31.609-.126-31.609-.282,14.149-.282,31.609-.282,31.607.126,31.607.282" transform="translate(31.354 15.731)" fill="#455a64"/>
        <path id="Trazado_265302" data-name="Trazado 265302" d="M405.769,280.917c0,.156-8.066.282-18.014.282s-18.015-.126-18.015-.282,8.064-.282,18.015-.282,18.014.126,18.014.282" transform="translate(31.449 23.87)" fill="#a3314f"/>
        <path id="Trazado_265303" data-name="Trazado 265303" d="M431.1,292.1c0,.156-14.259.282-31.844.282s-31.848-.126-31.848-.282,14.257-.282,31.848-.282,31.844.126,31.844.282" transform="translate(31.251 24.821)" fill="#455a64"/>
        <path id="Trazado_265304" data-name="Trazado 265304" d="M431.944,296.856c0,.157-14.449.282-32.267.282s-32.271-.125-32.271-.282,14.445-.282,32.271-.282,32.267.126,32.267.282" transform="translate(31.251 25.226)" fill="#455a64"/>
        <path id="Trazado_265305" data-name="Trazado 265305" d="M425.839,223.778H371.061a2.437,2.437,0,1,1,0-4.874h54.778a2.437,2.437,0,1,1,0,4.874" transform="translate(31.354 18.62)" fill="#e0e0e0"/>
        <path id="Trazado_265306" data-name="Trazado 265306" d="M400.527,223.778H371.061a2.437,2.437,0,1,1,0-4.874h29.466a2.437,2.437,0,1,1,0,4.874" transform="translate(31.354 18.62)" fill="#a3314f"/>
        <path id="Trazado_265307" data-name="Trazado 265307" d="M425.839,233.779H371.061a2.437,2.437,0,0,1,0-4.874h54.778a2.437,2.437,0,0,1,0,4.874" transform="translate(31.354 19.47)" fill="#e0e0e0"/>
        <path id="Trazado_265308" data-name="Trazado 265308" d="M390.945,233.779H371.061a2.437,2.437,0,0,1,0-4.874h19.884a2.437,2.437,0,1,1,0,4.874" transform="translate(31.354 19.47)" fill="#a3314f"/>
        <path id="Trazado_265309" data-name="Trazado 265309" d="M425.839,243.78H371.061a2.437,2.437,0,1,1,0-4.874h54.778a2.437,2.437,0,1,1,0,4.874" transform="translate(31.354 20.321)" fill="#e0e0e0"/>
        <path id="Trazado_265310" data-name="Trazado 265310" d="M417.9,243.78H371.061a2.437,2.437,0,0,1,0-4.874H417.9a2.437,2.437,0,1,1,0,4.874" transform="translate(31.354 20.321)" fill="#a3314f"/>
        <path id="Trazado_265311" data-name="Trazado 265311" d="M425.839,253.781H371.061a2.436,2.436,0,1,1,0-4.873h54.778a2.436,2.436,0,1,1,0,4.873" transform="translate(31.354 21.172)" fill="#e0e0e0"/>
        <path id="Trazado_265312" data-name="Trazado 265312" d="M411.254,253.781H371.061a2.436,2.436,0,1,1,0-4.873h40.193a2.436,2.436,0,1,1,0,4.873" transform="translate(31.354 21.172)" fill="#a3314f"/>
        <path id="Trazado_265313" data-name="Trazado 265313" d="M364.52,222.131a47.11,47.11,0,0,1-10.316,0,47.292,47.292,0,0,1,10.316,0" transform="translate(30.128 18.87)" fill="#455a64"/>
        <path id="Trazado_265314" data-name="Trazado 265314" d="M364.52,231.173a47.292,47.292,0,0,1-10.316,0,47.29,47.29,0,0,1,10.316,0" transform="translate(30.128 19.639)" fill="#455a64"/>
        <path id="Trazado_265315" data-name="Trazado 265315" d="M364.52,240.215a47.287,47.287,0,0,1-10.316,0,47.292,47.292,0,0,1,10.316,0" transform="translate(30.128 20.408)" fill="#455a64"/>
        <path id="Trazado_265316" data-name="Trazado 265316" d="M364.52,249.257a47.292,47.292,0,0,1-10.316,0,47.292,47.292,0,0,1,10.316,0" transform="translate(30.128 21.177)" fill="#455a64"/>
        <path id="Trazado_265317" data-name="Trazado 265317" d="M226.763,164.237l9.125-4.006,8.282,4.006-8.469,4.345Z" transform="translate(19.288 13.629)" fill="#a3314f"/>
        <path id="Trazado_265318" data-name="Trazado 265318" d="M228.53,165.93l-.124,5.457h13.513v-5.271l-6.526,3.2Z" transform="translate(19.428 14.114)" fill="#a3314f"/>
        <rect id="Rectángulo_294764" data-name="Rectángulo 294764" width="13.508" height="8.582" transform="translate(378.018 177.431)" fill="#a3314f"/>
        <rect id="Rectángulo_294765" data-name="Rectángulo 294765" width="5.424" height="2.687" transform="translate(382.06 186.012)" fill="#a3314f"/>
        <path id="Trazado_265319" data-name="Trazado 265319" d="M360.822,173.844a64.585,64.585,0,0,1-12.06,0,64.592,64.592,0,0,1,12.06,0" transform="translate(29.665 14.763)" fill="#a3314f"/>
        <path id="Trazado_265410" data-name="Trazado 265410" d="M0,0H13.508V8.583H0Z" transform="translate(242.833 264.135)" fill="#a3314f"/>
        <rect id="Rectángulo_294767" data-name="Rectángulo 294767" width="5.424" height="2.687" transform="translate(246.874 272.718)" fill="#a3314f"/>
        <path id="Trazado_265320" data-name="Trazado 265320" d="M236.235,253.752a32.44,32.44,0,0,1-6.031.282,32.43,32.43,0,0,1-6.031-.282,32.425,32.425,0,0,1,6.031-.282,32.435,32.435,0,0,1,6.031.282" transform="translate(19.068 21.56)" fill="#a3314f"/>
        <path id="Trazado_265321" data-name="Trazado 265321" d="M361.087,210.884l-1.235-2.176a5.831,5.831,0,1,0-1.4,1.553v0Z" transform="translate(29.692 16.998)" fill="#a3314f"/>
        <path id="Trazado_265322" data-name="Trazado 265322" d="M357.653,278.5a3.335,3.335,0,0,0,1.987-3.084,3.133,3.133,0,1,0-6.253-.029,3.33,3.33,0,0,0,1.992,3.113c-4.81.725-4.592,5.954-4.592,5.954l11.376.052s.259-5.285-4.509-6.006" transform="translate(29.837 23.141)" fill="#a3314f"/>
        <path id="Trazado_265323" data-name="Trazado 265323" d="M486.454.235c0,2.206.1,147.934.253,364.961v.253h-.253l-295.9.03h-.315V365.2c.017-135.037.034-260.6.048-364.961V0h.235l295.93.235L190.524.471l.235-.235c.013,104.361.029,229.925.047,364.961l-.282-.282h.031l295.9.03-.253.252c.151-217.028.252-362.757.253-364.961" transform="translate(16.181)" fill="#263238"/>
      </g>
    </g>
    <g id="Grupo_237782" data-name="Grupo 237782">
      <g id="Grupo_237804" data-name="Grupo 237804">
        <path id="Trazado_265324" data-name="Trazado 265324" d="M581.922,214.446c-12.877,6.67-22.752,18.155-29.852,30.8s-11.676,26.521-16.21,40.3l-3.966,71.047c14.984-25.491,27.01-55.457,30.259-84.846l-9.971-.888c6.685-1.021,12.3-5.865,15.868-11.609s5.408-12.366,7.2-18.888l-12.165,1.809a45.087,45.087,0,0,0,18.834-27.723" transform="translate(45.242 18.24)" fill="#455a64"/>
        <path id="Trazado_265325" data-name="Trazado 265325" d="M581.922,214.446c-12.877,6.67-22.752,18.155-29.852,30.8s-11.676,26.521-16.21,40.3l-3.966,71.047c14.984-25.491,27.01-55.457,30.259-84.846l-9.971-.888c6.685-1.021,12.3-5.865,15.868-11.609s5.408-12.366,7.2-18.888l-12.165,1.809a45.087,45.087,0,0,0,18.834-27.723" transform="translate(45.242 18.24)" fill="#a3314f"/>
        <g id="Grupo_237780" data-name="Grupo 237780" transform="translate(577.304 232.686)" opacity="0.3">
          <g id="Grupo_237779" data-name="Grupo 237779">
            <g id="Grupo_237778" data-name="Grupo 237778" clip-path="url(#clip-path-5)">
              <path id="Trazado_265326" data-name="Trazado 265326" d="M581.922,214.446c-12.877,6.67-22.752,18.155-29.852,30.8s-11.676,26.521-16.21,40.3l-3.966,71.047c14.984-25.491,27.01-55.457,30.259-84.846l-9.971-.888c6.685-1.021,12.3-5.865,15.868-11.609s5.408-12.366,7.2-18.888l-12.165,1.809a45.087,45.087,0,0,0,18.834-27.723" transform="translate(-531.894 -214.446)"/>
            </g>
          </g>
        </g>
        <path id="Trazado_265327" data-name="Trazado 265327" d="M532.375,373.7s-32.522-38.926-32.147-76.088h13.138s-14.271-9.384-13.141-14.64,1.5-25.148,1.5-25.148l12.012,3s-9.009-4.5-10.136-11.636,2.628-40.163,2.628-40.163,14.639,15.389,19.144,31.155,16.327,34.158,12.856,82.2-5.858,51.314-5.858,51.314" transform="translate(42.542 17.779)" fill="#a3314f"/>
        <path id="Trazado_265328" data-name="Trazado 265328" d="M545.046,374.05s35.235-23.473,43.064-53.43l-10.563-2.874s13.526-4.423,13.768-8.9,4.292-20.548,4.292-20.548l-10.313-.214s8.228-1.65,10.693-7.138,6.675-32.865,6.675-32.865-15.137,9.17-22.208,20.859-20.6,23.89-28.32,63.277-7.089,41.828-7.089,41.828" transform="translate(46.359 21.102)" fill="#a3314f"/>
        <path id="Trazado_265329" data-name="Trazado 265329" d="M513.945,240.3a2.342,2.342,0,0,1,.115.4l.281,1.2c.242,1.087.587,2.638,1.028,4.62.449,2.005.972,4.465,1.541,7.33s1.251,6.118,1.91,9.733c1.39,7.218,2.858,15.846,4.37,25.447,1.466,9.607,2.93,20.192,4.231,31.332,1.275,11.146,2.266,21.788,3.031,31.478.718,9.694,1.258,18.431,1.551,25.776.184,3.67.271,6.993.361,9.911s.153,5.432.173,7.487c.024,2.03.041,3.619.054,4.732,0,.519,0,.926,0,1.232a2.288,2.288,0,0,1-.02.419,2.4,2.4,0,0,1-.038-.418c-.014-.3-.033-.712-.055-1.23-.038-1.113-.091-2.7-.159-4.729-.054-2.053-.138-4.566-.269-7.48s-.235-6.237-.445-9.9c-.343-7.338-.923-16.068-1.67-25.753-.793-9.682-1.8-20.316-3.073-31.455-1.3-11.132-2.747-21.712-4.184-31.318-1.482-9.6-2.909-18.229-4.249-25.452-.633-3.619-1.278-6.878-1.826-9.745s-1.03-5.333-1.445-7.346c-.4-1.991-.706-3.548-.924-4.641-.1-.51-.17-.91-.226-1.21a2.322,2.322,0,0,1-.059-.417" transform="translate(43.715 20.44)" fill="#263238"/>
        <path id="Trazado_265330" data-name="Trazado 265330" d="M530.921,389.879s-29.762-33.769-39-54.183l6.977-2.98c-5.057.833-10.237-1.339-14.159-4.64s-6.8-7.642-9.623-11.919L484.3,314.6a34.165,34.165,0,0,1-20.079-15.554c10.844,1.784,20.656,7.741,28.741,15.185,6.547,6.03,12.092,13.029,17.415,20.18a68.709,68.709,0,0,1,6.764,11.121c5,10.338,13.8,31.941,13.778,44.343" transform="translate(39.486 25.437)" fill="#a3314f"/>
        <path id="Trazado_265331" data-name="Trazado 265331" d="M589.2,266.2a1.83,1.83,0,0,1-.14.343c-.116.247-.267.572-.459.98l-1.815,3.746c-1.6,3.241-3.861,7.956-6.6,13.807s-5.9,12.862-9.3,20.7c-3.365,7.849-6.949,16.53-10.513,25.718-3.546,9.2-6.734,18.035-9.526,26.108-2.761,8.084-5.143,15.4-7.045,21.573s-3.41,11.18-4.407,14.653c-.5,1.707-.9,3.045-1.176,3.992-.132.431-.239.773-.319,1.034a1.744,1.744,0,0,1-.128.347,1.763,1.763,0,0,1,.072-.362l.266-1.049,1.074-4.021c.933-3.492,2.373-8.521,4.237-14.71s4.2-13.526,6.935-21.624c2.767-8.088,5.943-16.936,9.491-26.143,3.568-9.2,7.169-17.876,10.563-25.721,3.422-7.832,6.621-14.834,9.415-20.663s5.1-10.524,6.762-13.736c.816-1.581,1.457-2.82,1.91-3.7l.51-.955a1.763,1.763,0,0,1,.191-.317" transform="translate(45.741 22.642)" fill="#263238"/>
        <path id="Trazado_265332" data-name="Trazado 265332" d="M529.728,400.62a2.7,2.7,0,0,1-.138-.621c-.076-.472-.17-1.064-.288-1.794-.112-.78-.256-1.733-.462-2.833s-.391-2.36-.69-3.736c-.532-2.765-1.3-6.031-2.27-9.621-1-3.582-2.239-7.485-3.745-11.5-1.528-4.015-3.181-7.759-4.794-11.112-1.643-3.339-3.228-6.294-4.656-8.721-.685-1.23-1.374-2.3-1.951-3.261s-1.095-1.772-1.526-2.432l-.97-1.535a2.742,2.742,0,0,1-.307-.557,2.584,2.584,0,0,1,.4.493c.279.388.629.877,1.059,1.478.46.641,1.009,1.436,1.609,2.384s1.319,2,2.029,3.226c1.476,2.408,3.1,5.355,4.779,8.695,1.646,3.355,3.321,7.11,4.857,11.142,1.511,4.039,2.737,7.963,3.717,11.568.951,3.613,1.677,6.9,2.16,9.683.275,1.386.439,2.653.61,3.762s.289,2.067.368,2.853c.074.736.135,1.334.182,1.809a2.7,2.7,0,0,1,.025.635" transform="translate(43.204 29.166)" fill="#263238"/>
        <rect id="Rectángulo_294770" data-name="Rectángulo 294770" width="65.138" height="13.288" transform="translate(547.064 421.842)" fill="#263238"/>
        <path id="Trazado_265333" data-name="Trazado 265333" d="M509.9,401.02l7.046,44.694h39.361l6.567-44.694Z" transform="translate(43.371 34.11)" fill="#263238"/>
        <path id="Trazado_265334" data-name="Trazado 265334" d="M564.845,401.042c0,.156-12.322.282-27.519.282s-27.523-.126-27.523-.282,12.32-.282,27.523-.282,27.519.126,27.519.282" transform="translate(43.363 34.088)" fill="#455a64"/>
      </g>
    </g>
    <g id="Grupo_237787" data-name="Grupo 237787">
      <g id="Grupo_237805" data-name="Grupo 237805">
        <path id="Trazado_265335" data-name="Trazado 265335" d="M363.04,75.538s-12.057,4.124-13.548,12.146c-1.521,8.188-3.173,19.045-3.173,19.045l18.236-1.023Z" transform="translate(29.457 6.425)" fill="#a3314f"/>
        <path id="Trazado_265336" data-name="Trazado 265336" d="M372.323,71.932,361.03,76.273,358.676,133.9l-1.5,19.23h56.438L406.85,75.844l-17.606-3.687Z" transform="translate(30.38 6.118)" fill="#a3314f"/>
        <path id="Trazado_265337" data-name="Trazado 265337" d="M417.708,104.157s-2.834-27-14.372-28.619L398.479,93.4v10.757Z" transform="translate(33.894 6.425)" fill="#a3314f"/>
        <path id="Trazado_265338" data-name="Trazado 265338" d="M362.6,105.564s4.09-1.956,6.012-1.268,9.981,4.468,9.981,4.468l-15.179,5.023-3.741-4.272Z" transform="translate(30.593 8.859)" fill="#ffbe9d"/>
        <g id="Grupo_237785" data-name="Grupo 237785" transform="translate(389.102 128.459)" opacity="0.3">
          <g id="Grupo_237784" data-name="Grupo 237784">
            <g id="Grupo_237783" data-name="Grupo 237783" clip-path="url(#clip-path-6)">
              <path id="Trazado_265339" data-name="Trazado 265339" d="M411.818,126.526a9.286,9.286,0,0,0-5.521-4.9,27.518,27.518,0,0,0-7.462-1.306l-21.283-1.732c-2.687-.219-5.458-.429-8.022.407-4.547,1.483-8.42,5.986-10.929,10.058V130c2.173,1.612,5.172,1.592,7.8.935s5.1-1.864,7.744-2.432c4.975-1.066,10.119.207,15.048,1.472l13.515,3.471c2.429.623,5.19,1.2,7.3-.154,2.132-1.368,2.756-4.421,1.809-6.771" transform="translate(-358.6 -118.389)"/>
            </g>
          </g>
        </g>
        <path id="Trazado_265340" data-name="Trazado 265340" d="M347.656,104.364s-.515,19.756,3.736,23.409,6.881,3.045,11.537,2.436S394.3,116.221,394.3,116.221l-2.834-9.556-27.731,5.075-.151-8.4Z" transform="translate(29.569 8.79)" fill="#ffbe9d"/>
        <path id="Trazado_265341" data-name="Trazado 265341" d="M417.4,101.914s1.214,22.124,0,24.966-5.667,5.886-10.525,5.075-30.91-7.913-30.934-7.9,9.072-9.553,9.072-9.553l18.825-.406-1.214-12.179Z" transform="translate(31.977 8.669)" fill="#ffbe9d"/>
        <path id="Trazado_265342" data-name="Trazado 265342" d="M401.594,104.38c-5.247-3.76-13.562,2.3-13.562,2.3V107.7l2.079,6.849,12.7-.558s2.165-7.184-1.214-9.607" transform="translate(33.005 8.774)" fill="#ffbe9d"/>
        <path id="Trazado_265343" data-name="Trazado 265343" d="M403.474,113.037a20.067,20.067,0,0,1-3.065.259c-1.927.1-4.643.219-7.8.329l.142-.046c-1.16.782-2.433,1.61-3.768,2.44-3.608,2.249-7,4.074-9.491,5.31-1.246.621-2.269,1.09-2.982,1.4a4.917,4.917,0,0,1-1.134.428,5.054,5.054,0,0,1,1.037-.625l2.894-1.561c2.439-1.324,5.784-3.2,9.377-5.435,1.33-.827,2.6-1.644,3.767-2.41l.066-.043.076,0c3.153-.075,5.871-.118,7.8-.127a20.136,20.136,0,0,1,3.075.079" transform="translate(31.929 9.608)" fill="#eb996e"/>
        <path id="Trazado_265344" data-name="Trazado 265344" d="M400.536,101.914a14.217,14.217,0,0,1,.388,2.819c.167,1.746.36,4.16.538,6.83.052.829.1,1.632.151,2.395l-.108-.2a18.689,18.689,0,0,1,3.682,3.762,6.26,6.26,0,0,1,1.056,1.8,31.591,31.591,0,0,0-5.067-5.125l-.1-.074-.009-.127c-.053-.762-.11-1.565-.168-2.394-.178-2.669-.307-5.088-.373-6.841a14.228,14.228,0,0,1,.011-2.845" transform="translate(34.064 8.669)" fill="#eb996e"/>
        <path id="Trazado_265345" data-name="Trazado 265345" d="M381.478,107.933a24.674,24.674,0,0,1-3.676.877c-2.284.47-5.446,1.081-8.945,1.721l-6,1.063.148-.087c-1.3,1.557-2.4,2.853-3.181,3.749a8.9,8.9,0,0,1-1.3,1.361,8.666,8.666,0,0,1,1.068-1.546c.718-.951,1.762-2.289,3.024-3.877l.055-.071.093-.018,5.987-1.13c3.5-.64,6.673-1.19,8.976-1.558a24.957,24.957,0,0,1,3.748-.484" transform="translate(30.495 9.179)" fill="#eb996e"/>
        <path id="Trazado_265346" data-name="Trazado 265346" d="M362.354,103.341a15.812,15.812,0,0,1,.358,4.194,15.863,15.863,0,0,1-.207,4.2,15.877,15.877,0,0,1-.358-4.195,15.855,15.855,0,0,1,.207-4.2" transform="translate(30.803 8.79)" fill="#eb996e"/>
        <path id="Trazado_265347" data-name="Trazado 265347" d="M360.734,88.726a73.871,73.871,0,0,1,1.173,9.046,73.889,73.889,0,0,1,.611,9.1,73.881,73.881,0,0,1-1.173-9.048,73.856,73.856,0,0,1-.611-9.1" transform="translate(30.68 7.547)" fill="#263238"/>
        <path id="Trazado_265348" data-name="Trazado 265348" d="M401.486,86.854a69.957,69.957,0,0,1-.139,8.88,69.8,69.8,0,0,1-.7,8.853,70.212,70.212,0,0,1,.139-8.88,69.826,69.826,0,0,1,.7-8.853" transform="translate(34.071 7.388)" fill="#263238"/>
        <path id="Trazado_265349" data-name="Trazado 265349" d="M404.947,46.012c-1.328-1.429-2.936-2.779-3.4-4.676-.425-1.745.19-3.741-.728-5.283-1.131-1.9-3.956-2.057-5.316-3.8-.658-.842-.888-1.957-1.538-2.806-1.109-1.444-3.175-1.772-4.976-1.521s-3.521.956-5.329,1.14c-2.482.252-5.074-.481-7.44.31-2.611.873-4.148,3.263-5.791,5.58l-2.153,2.7a9.862,9.862,0,0,1-1.451,1.259,17.706,17.706,0,0,0-2.768,1.9,4.425,4.425,0,0,0,.489,6.351,4.722,4.722,0,0,0-3.028,4.73,13.647,13.647,0,0,0,.954,3.177,4.724,4.724,0,0,1,.192,3.25A2.067,2.067,0,0,1,360,59.576a4.964,4.964,0,0,0,2.8,3.224,2.962,2.962,0,0,1-1.964.951c2.169,4.685,7.736,7.006,12.886,6.865s10.014-2.258,14.727-4.341L402.2,62.207c1.209-.319,1.667-1.82,1.608-3.071s-.417-2.544-.009-3.728c.559-1.624,2.39-2.536,2.977-4.149.668-1.835-.5-3.817-1.833-5.246" transform="translate(30.621 2.369)" fill="#263238"/>
        <path id="Trazado_265350" data-name="Trazado 265350" d="M371.823,59.063a57.3,57.3,0,0,1-2.759-9.493,20.061,20.061,0,0,1,.5-9.786c.16-.473,1.551-3.661,2.05-3.626.355.025-.473,2.985-.285,3.289a17.029,17.029,0,0,1,2.187,9.839,44.847,44.847,0,0,1-1.7,9.777" transform="translate(31.36 3.075)" fill="#263238"/>
        <path id="Trazado_265351" data-name="Trazado 265351" d="M383.834,31.207l-.764-.018c-8.25.277-12.625,7.457-12.12,15.719l.2,28.489a9.662,9.662,0,0,0,19.321.215c.044-1.5.08-2.544.086-2.544s7.95-1.037,8.245-8.975c.142-3.835-.205-11.754-.6-18.918a14.774,14.774,0,0,0-14.368-13.968" transform="translate(31.549 2.653)" fill="#ffbe9d"/>
        <path id="Trazado_265352" data-name="Trazado 265352" d="M389.822,70.045a19.09,19.09,0,0,1-10.233-3.314s2.37,5.838,10.289,5.32Z" transform="translate(32.287 5.676)" fill="#eb996e"/>
        <path id="Trazado_265353" data-name="Trazado 265353" d="M393.11,50.146a1.132,1.132,0,0,1-1.119,1.117,1.083,1.083,0,0,1-1.14-1.051,1.134,1.134,0,0,1,1.118-1.118,1.085,1.085,0,0,1,1.141,1.053" transform="translate(33.245 4.176)" fill="#263238"/>
        <path id="Trazado_265354" data-name="Trazado 265354" d="M394.778,47.175c-.144.144-.984-.513-2.2-.54-1.215-.044-2.123.561-2.251.408-.064-.067.086-.331.482-.605a3.1,3.1,0,0,1,1.808-.509,2.974,2.974,0,0,1,1.747.614c.367.3.487.567.417.633" transform="translate(33.199 3.906)" fill="#263238"/>
        <path id="Trazado_265355" data-name="Trazado 265355" d="M382.6,50.146a1.132,1.132,0,0,1-1.119,1.117,1.083,1.083,0,0,1-1.14-1.051,1.134,1.134,0,0,1,1.118-1.118,1.085,1.085,0,0,1,1.141,1.053" transform="translate(32.351 4.176)" fill="#263238"/>
        <path id="Trazado_265356" data-name="Trazado 265356" d="M383.783,47.356c-.144.144-.986-.512-2.2-.539-1.215-.046-2.123.56-2.253.408-.063-.068.085-.331.483-.605a3.1,3.1,0,0,1,1.807-.51,2.975,2.975,0,0,1,1.748.614c.366.3.487.569.417.633" transform="translate(32.264 3.922)" fill="#263238"/>
        <path id="Trazado_265357" data-name="Trazado 265357" d="M387.266,56.8a8,8,0,0,1,1.985-.308c.313-.025.608-.079.665-.291a1.585,1.585,0,0,0-.184-.929q-.41-1.141-.859-2.395a40.8,40.8,0,0,1-1.91-6.258,41.008,41.008,0,0,1,2.407,6.088c.286.841.561,1.642.821,2.409a1.81,1.81,0,0,1,.13,1.227.78.78,0,0,1-.522.443,2.08,2.08,0,0,1-.53.06,7.918,7.918,0,0,1-2-.047" transform="translate(32.913 3.965)" fill="#263238"/>
        <path id="Trazado_265358" data-name="Trazado 265358" d="M383.938,56.7c.2-.007.168,1.318,1.275,2.286s2.516.857,2.523,1.043c.016.084-.32.25-.915.251a3.286,3.286,0,0,1-2.108-.8,2.877,2.877,0,0,1-.984-1.915c-.036-.554.119-.879.209-.869" transform="translate(32.639 4.822)" fill="#263238"/>
        <path id="Trazado_265359" data-name="Trazado 265359" d="M383.92,42.769c-.128.329-1.339.141-2.771.278-1.434.109-2.6.5-2.778.2-.081-.144.127-.451.6-.761a4.823,4.823,0,0,1,4.227-.361c.519.225.776.492.72.648" transform="translate(32.182 3.555)" fill="#263238"/>
        <path id="Trazado_265360" data-name="Trazado 265360" d="M394.382,43.431c-.221.271-1.051-.037-2.059-.076-1.006-.074-1.866.14-2.055-.154-.082-.143.059-.418.437-.671a2.978,2.978,0,0,1,3.316.186c.349.294.459.583.361.715" transform="translate(33.193 3.582)" fill="#263238"/>
        <path id="Trazado_265361" data-name="Trazado 265361" d="M371.829,51.132c-.135-.062-5.4-1.749-5.363,3.683s5.471,4.274,5.477,4.118-.114-7.8-.114-7.8" transform="translate(31.171 4.324)" fill="#ffbe9d"/>
        <path id="Trazado_265362" data-name="Trazado 265362" d="M370.167,56.748c-.024-.017-.094.066-.253.141a.939.939,0,0,1-.705.02,2.343,2.343,0,0,1-1.1-2.093,3.159,3.159,0,0,1,.255-1.357,1.094,1.094,0,0,1,.705-.731.481.481,0,0,1,.559.256c.073.151.04.26.068.269s.116-.092.071-.316a.6.6,0,0,0-.216-.34.712.712,0,0,0-.523-.135,1.329,1.329,0,0,0-.98.85,3.236,3.236,0,0,0-.317,1.517,2.459,2.459,0,0,0,1.394,2.336,1.01,1.01,0,0,0,.862-.15c.167-.136.194-.257.176-.267" transform="translate(31.279 4.462)" fill="#eb996e"/>
        <path id="Trazado_265363" data-name="Trazado 265363" d="M394.725,36.306c.869-.5-1.807-3.3-3.977-4.25-3.28-1.429-8.266-2.262-11.255-1.361-3.6,1.085-6.572,2.936-8.334,6.264a21.4,21.4,0,0,0-2.219,10.947,6.5,6.5,0,0,0,.815,3.306c.776,1.189,2.24,1.922,2.2,3.58a2.276,2.276,0,0,0,.588,1.649c1.008,1.042,2.2.029,2.746-.975,1.158-2.146,1.25-4.69,1.316-7.128a15.911,15.911,0,0,0-.425-5.161c-.279-.9-.718-1.75-.947-2.666a3.273,3.273,0,0,1,.341-2.718,3.493,3.493,0,0,1,.433-.454,5.64,5.64,0,0,1,5.588-1.159c3.067,1.034,8.3,2.567,9.646,1.508a8.366,8.366,0,0,0,2.387-2.506Z" transform="translate(31.379 2.579)" fill="#263238"/>
        <path id="Trazado_265364" data-name="Trazado 265364" d="M379.506,30.04a11.866,11.866,0,0,1,9.159.358,6.205,6.205,0,0,1,3.324,3.555,3.564,3.564,0,0,1-1.71,4.246l-.105.069c-2.3.816-3.806.53-6.123-.233-1.949-.642-3.692-1.814-5.646-2.447a10.971,10.971,0,0,0-6.446-.086,17.975,17.975,0,0,1,7.548-5.462" transform="translate(31.638 2.492)" fill="#263238"/>
      </g>
    </g>
    <g id="Grupo_237798" data-name="Grupo 237798">
      <g id="Grupo_237803" data-name="Grupo 237803">
        <path id="Trazado_265365" data-name="Trazado 265365" d="M141.249,397.18l-13.683,22.026s17.792,21.305,15.66,25.623l-43.659-25,19.912-35.193Z" transform="translate(8.469 32.717)" fill="#455a64"/>
        <path id="Trazado_265366" data-name="Trazado 265366" d="M114.12,407.633a2.055,2.055,0,0,0-2.4,1.329,1.975,1.975,0,0,0,1.3,2.388,2.168,2.168,0,0,0,2.531-1.42,2.048,2.048,0,0,0-1.623-2.335" transform="translate(9.497 34.668)" fill="#e0e0e0"/>
        <g id="Grupo_237790" data-name="Grupo 237790" transform="translate(108.035 449.079)" opacity="0.6">
          <g id="Grupo_237789" data-name="Grupo 237789">
            <g id="Grupo_237788" data-name="Grupo 237788" clip-path="url(#clip-path-7)">
              <path id="Trazado_265367" data-name="Trazado 265367" d="M99.566,417.344l2.146-3.469,41.058,25.263s1.459,1.959.456,3.2Z" transform="translate(-99.566 -413.875)" fill="#fff"/>
            </g>
          </g>
        </g>
        <path id="Trazado_265368" data-name="Trazado 265368" d="M126.561,416.749c-.129.209-1.25-.3-2.692-.219-1.443.047-2.513.661-2.661.464-.173-.154.875-1.247,2.622-1.319s2.89.9,2.731,1.074" transform="translate(10.308 35.356)" fill="#263238"/>
        <path id="Trazado_265369" data-name="Trazado 265369" d="M129.729,420.865c-.069.234-1.2.068-2.44.556-1.255.45-2,1.32-2.2,1.19-.22-.081.347-1.415,1.9-1.991s2.854.039,2.742.245" transform="translate(10.636 35.756)" fill="#263238"/>
        <path id="Trazado_265370" data-name="Trazado 265370" d="M128.871,427.473c-.219-.065.093-1.3,1.31-2.155s2.478-.748,2.467-.519c.02.244-.986.5-1.974,1.217-1,.692-1.58,1.556-1.8,1.456" transform="translate(10.956 36.119)" fill="#263238"/>
        <path id="Trazado_265371" data-name="Trazado 265371" d="M128.867,411.92c-.2.143-1.01-.711-2.262-1.318-1.239-.634-2.409-.766-2.415-1.013-.035-.225,1.332-.489,2.8.247s2.081,1.977,1.88,2.084" transform="translate(10.563 34.819)" fill="#263238"/>
        <path id="Trazado_265372" data-name="Trazado 265372" d="M138.251,404.583l-1.476,25.888s25.819,10.193,26.012,15l-50.3-1.058.643-40.43Z" transform="translate(9.568 34.362)" fill="#455a64"/>
        <path id="Trazado_265373" data-name="Trazado 265373" d="M120.7,426.09a2.056,2.056,0,0,0-1.47,2.314,1.977,1.977,0,0,0,2.282,1.477,2.167,2.167,0,0,0,1.543-2.459,2.049,2.049,0,0,0-2.542-1.274" transform="translate(10.138 36.236)" fill="#e0e0e0"/>
        <g id="Grupo_237793" data-name="Grupo 237793" transform="translate(122.057 474.707)" opacity="0.6">
          <g id="Grupo_237792" data-name="Grupo 237792">
            <g id="Grupo_237791" data-name="Grupo 237791" clip-path="url(#clip-path-8)">
              <path id="Trazado_265374" data-name="Trazado 265374" d="M112.489,441.567l.225-4.072,48.141,2.537s2.219,1.021,1.932,2.593Z" transform="translate(-112.489 -437.494)" fill="#fff"/>
            </g>
          </g>
        </g>
        <path id="Trazado_265375" data-name="Trazado 265375" d="M135.992,428.193c-.013.245-1.243.331-2.469,1.095-1.246.732-1.891,1.784-2.115,1.682-.225-.053.171-1.514,1.671-2.413s2.971-.588,2.912-.363" transform="translate(11.172 36.4)" fill="#263238"/>
        <path id="Trazado_265376" data-name="Trazado 265376" d="M140.715,430.3c.051.239-1.021.635-1.877,1.656-.886,1-1.12,2.115-1.365,2.1-.231.035-.371-1.407.717-2.657s2.525-1.331,2.525-1.1" transform="translate(11.679 36.591)" fill="#263238"/>
        <path id="Trazado_265377" data-name="Trazado 265377" d="M143.109,436.493c-.225.048-.54-1.187.118-2.518s1.82-1.843,1.919-1.636c.133.205-.627.911-1.151,2.013-.55,1.088-.642,2.123-.887,2.142" transform="translate(12.149 36.77)" fill="#263238"/>
        <path id="Trazado_265378" data-name="Trazado 265378" d="M135.745,422.775c-.107.221-1.227-.141-2.617-.076-1.392.037-2.482.481-2.605.267-.139-.18.935-1.068,2.574-1.121s2.773.74,2.649.93" transform="translate(11.101 35.881)" fill="#263238"/>
        <path id="Trazado_265379" data-name="Trazado 265379" d="M181.983,252.24s-3.377,82.022-5.457,89.647S131.864,427.5,131.864,427.5l-25.692-12.616,34.072-82.335V253.081Z" transform="translate(9.031 21.455)" fill="#263238"/>
        <path id="Trazado_265380" data-name="Trazado 265380" d="M115.785,252.678s-2.7,19.963-1.309,22.043,3.813,8.665,3.813,8.665L116.2,347.514,109.97,441.8h29.951l12.853-83.144s4.506-7.626,6.239-14.212,11.965-72.1,11.965-72.1V247.089Z" transform="translate(9.354 21.017)" fill="#263238"/>
        <path id="Trazado_265381" data-name="Trazado 265381" d="M171.937,255.471a2.812,2.812,0,0,1-.047.487c-.049.349-.114.819-.2,1.42-.193,1.28-.469,3.11-.822,5.452-.747,4.762-1.817,11.6-3.139,20.031-1.35,8.465-2.955,18.527-4.736,29.7-.908,5.586-1.807,11.455-2.853,17.531a106.614,106.614,0,0,1-4.666,18.515c-2.256,6.156-5.478,11.759-6.561,17.824-1.29,6.006-2.19,11.884-3.066,17.471-1.695,11.189-3.058,21.291-4.22,29.772s-2.1,15.346-2.808,20.081c-.357,2.368-.643,4.2-.87,5.446l-.265,1.409a2.96,2.96,0,0,1-.111.476,2.765,2.765,0,0,1,.048-.487c.05-.349.117-.819.2-1.419.177-1.281.43-3.114.754-5.459l2.611-20.105c1.107-8.489,2.425-18.6,4.09-29.8.863-5.6,1.749-11.476,3.038-17.517,1.1-6.163,4.348-11.822,6.573-17.908a106.822,106.822,0,0,0,4.648-18.406c1.051-6.06,1.964-11.935,2.887-17.517,1.832-11.162,3.481-21.218,4.868-29.676,1.4-8.42,2.542-15.244,3.335-20,.4-2.334.717-4.158.937-5.433.11-.6.2-1.064.259-1.411a2.767,2.767,0,0,1,.11-.477" transform="translate(11.702 21.73)" fill="#455a64"/>
        <path id="Trazado_265382" data-name="Trazado 265382" d="M113.321,379.864a11.93,11.93,0,0,1,0,1.985c-.04,1.276-.13,3.121-.259,5.4-.258,4.556-.709,10.843-1.236,17.782s-.981,13.225-1.276,17.775c-.144,2.194-.265,4.009-.356,5.389a12.078,12.078,0,0,1-.2,1.974,12.293,12.293,0,0,1-.04-1.985c.013-1.276.067-3.122.16-5.4.182-4.56.567-10.855,1.095-17.8.549-6.886,1.046-13.116,1.417-17.766.186-2.192.34-4,.457-5.383a12.189,12.189,0,0,1,.245-1.969" transform="translate(9.351 32.31)" fill="#455a64"/>
        <path id="Trazado_265383" data-name="Trazado 265383" d="M180.9,96.668c-1.943-2.091-4.3-4.065-4.973-6.841-.623-2.551.279-5.474-1.066-7.729-1.654-2.776-5.788-3.01-7.777-5.554-.964-1.232-1.3-2.865-2.25-4.1-1.622-2.114-4.645-2.592-7.28-2.227s-5.152,1.4-7.8,1.668c-3.631.37-7.423-.7-10.885.456-3.819,1.278-6.07,4.773-8.473,8.164l-3.15,3.944a14.371,14.371,0,0,1-2.122,1.841,25.867,25.867,0,0,0-4.049,2.776,6.474,6.474,0,0,0,.715,9.291,6.911,6.911,0,0,0-4.429,6.921,19.866,19.866,0,0,0,1.4,4.648,6.928,6.928,0,0,1,.28,4.756c-.6,1.508-2.463,2.589-3.9,1.837a7.265,7.265,0,0,0,4.1,4.716,4.331,4.331,0,0,1-2.873,1.391c3.174,6.855,11.319,10.251,18.854,10.045s14.652-3.305,21.549-6.352l20.112-5.95c1.768-.467,2.438-2.663,2.352-4.493s-.61-3.723-.013-5.456c.817-2.376,3.5-3.71,4.357-6.071.979-2.684-.739-5.585-2.681-7.676" transform="translate(9.794 5.963)" fill="#263238"/>
        <path id="Trazado_265384" data-name="Trazado 265384" d="M132.438,115.762a83.916,83.916,0,0,1-4.035-13.889,29.371,29.371,0,0,1,.735-14.318c.234-.693,2.27-5.357,3-5.306.52.036-.692,4.366-.417,4.811,2.628,4.242,3.457,9.41,3.2,14.4a65.5,65.5,0,0,1-2.48,14.305" transform="translate(10.876 6.996)" fill="#263238"/>
        <path id="Trazado_265385" data-name="Trazado 265385" d="M150.012,75.006l-1.118-.027c-12.071.4-18.471,10.911-17.733,23l.3,41.684a14.137,14.137,0,0,0,28.269.315c.065-2.191.117-3.723.125-3.723s11.632-1.518,12.064-13.131c.208-5.611-.3-17.2-.881-27.679a21.619,21.619,0,0,0-21.024-20.438" transform="translate(11.151 6.378)" fill="#ffbe9d"/>
        <path id="Trazado_265386" data-name="Trazado 265386" d="M158.774,131.83a27.936,27.936,0,0,1-14.973-4.848s3.283,8.588,14.87,7.831Z" transform="translate(12.231 10.801)" fill="#eb996e"/>
        <path id="Trazado_265387" data-name="Trazado 265387" d="M165.51,102.716a1.658,1.658,0,0,1-1.637,1.634,1.585,1.585,0,0,1-1.669-1.539,1.659,1.659,0,0,1,1.636-1.635,1.588,1.588,0,0,1,1.67,1.54" transform="translate(13.797 8.606)" fill="#263238"/>
        <path id="Trazado_265388" data-name="Trazado 265388" d="M166.025,98.369c-.21.21-1.441-.751-3.222-.79-1.777-.065-3.108.82-3.294.6-.092-.1.126-.485.705-.885a4.531,4.531,0,0,1,2.644-.745,4.351,4.351,0,0,1,2.557.9c.536.435.713.831.609.926" transform="translate(13.566 8.212)" fill="#263238"/>
        <path id="Trazado_265389" data-name="Trazado 265389" d="M149.731,102.716a1.657,1.657,0,0,1-1.636,1.634,1.585,1.585,0,0,1-1.669-1.539,1.659,1.659,0,0,1,1.635-1.635,1.586,1.586,0,0,1,1.67,1.54" transform="translate(12.455 8.606)" fill="#263238"/>
        <path id="Trazado_265390" data-name="Trazado 265390" d="M149.937,98.634c-.211.211-1.442-.75-3.222-.79-1.777-.065-3.108.82-3.3.6-.092-.1.125-.484.706-.884a4.522,4.522,0,0,1,2.643-.747,4.358,4.358,0,0,1,2.557.9c.536.435.713.831.61.926" transform="translate(12.197 8.234)" fill="#263238"/>
        <path id="Trazado_265391" data-name="Trazado 265391" d="M155.034,112.448a11.755,11.755,0,0,1,2.9-.451c.456-.036.889-.115.972-.424a2.321,2.321,0,0,0-.269-1.36q-.6-1.67-1.259-3.5c-1.745-4.989-2.995-9.086-2.794-9.155s1.778,3.919,3.522,8.908q.628,1.844,1.2,3.524a2.645,2.645,0,0,1,.192,1.795,1.144,1.144,0,0,1-.765.648,3.036,3.036,0,0,1-.775.089,11.537,11.537,0,0,1-2.931-.069" transform="translate(13.147 8.298)" fill="#263238"/>
        <path id="Trazado_265392" data-name="Trazado 265392" d="M150.165,112.3c.29-.01.245,1.928,1.865,3.345s3.683,1.254,3.691,1.526c.023.123-.469.366-1.339.368a4.811,4.811,0,0,1-3.084-1.165,4.21,4.21,0,0,1-1.44-2.8c-.053-.812.174-1.286.306-1.272" transform="translate(12.746 9.552)" fill="#263238"/>
        <path id="Trazado_265393" data-name="Trazado 265393" d="M150.139,91.924c-.189.482-1.961.207-4.055.407-2.1.158-3.8.729-4.065.288-.119-.212.186-.661.879-1.114a7.067,7.067,0,0,1,6.186-.528c.76.329,1.136.72,1.055.948" transform="translate(12.078 7.698)" fill="#263238"/>
        <path id="Trazado_265394" data-name="Trazado 265394" d="M165.446,92.891c-.323.4-1.539-.054-3.013-.111-1.472-.109-2.731.205-3.008-.227-.12-.208.086-.61.641-.981a4.355,4.355,0,0,1,4.851.272c.511.43.672.852.528,1.046" transform="translate(13.558 7.737)" fill="#263238"/>
        <path id="Trazado_265395" data-name="Trazado 265395" d="M132.447,104.159c-.2-.09-7.9-2.56-7.846,5.389s8,6.252,8.015,6.024-.169-11.414-.169-11.414" transform="translate(10.598 8.823)" fill="#ffbe9d"/>
        <path id="Trazado_265396" data-name="Trazado 265396" d="M130.016,112.377c-.035-.025-.138.1-.37.206a1.376,1.376,0,0,1-1.032.029c-.84-.3-1.554-1.631-1.6-3.063a4.609,4.609,0,0,1,.372-1.986,1.6,1.6,0,0,1,1.032-1.07.7.7,0,0,1,.817.374c.107.22.059.38.1.394.023.02.169-.135.1-.462a.883.883,0,0,0-.316-.5,1.044,1.044,0,0,0-.765-.2,1.941,1.941,0,0,0-1.433,1.242,4.715,4.715,0,0,0-.463,2.219c.062,1.6.891,3.095,2.039,3.418a1.471,1.471,0,0,0,1.261-.219c.244-.2.284-.375.257-.39" transform="translate(10.756 9.025)" fill="#eb996e"/>
        <path id="Trazado_265397" data-name="Trazado 265397" d="M165.948,82.467c1.272-.73-2.644-4.835-5.819-6.218-4.8-2.092-12.094-3.311-16.467-1.992-5.265,1.589-9.617,4.3-12.2,9.167a31.337,31.337,0,0,0-3.246,16.017,9.52,9.52,0,0,0,1.194,4.838c1.135,1.739,3.276,2.812,3.222,5.238a3.338,3.338,0,0,0,.862,2.413c1.475,1.525,3.226.042,4.018-1.428,1.694-3.141,1.828-6.861,1.925-10.43a23.261,23.261,0,0,0-.621-7.55c-.408-1.319-1.051-2.561-1.387-3.9a4.788,4.788,0,0,1,.5-3.977,5.032,5.032,0,0,1,.634-.663,8.249,8.249,0,0,1,8.175-1.7c4.489,1.513,12.148,3.756,14.114,2.206,2.83-2.231,3.492-3.666,3.492-3.666Z" transform="translate(10.903 6.269)" fill="#263238"/>
        <path id="Trazado_265398" data-name="Trazado 265398" d="M143.68,73.3a17.37,17.37,0,0,1,13.4.523,9.082,9.082,0,0,1,4.862,5.2c.7,2.343-.259,5.254-2.5,6.212l-.154.1c-3.364,1.2-5.569.776-8.958-.341-2.853-.94-5.4-2.654-8.261-3.581a16.069,16.069,0,0,0-9.431-.125A26.3,26.3,0,0,1,143.68,73.3" transform="translate(11.282 6.142)" fill="#263238"/>
        <path id="Trazado_265399" data-name="Trazado 265399" d="M116.551,200.2c-.468,9.788-3.206,65.488-3.206,65.488a94.682,94.682,0,0,0,39.612,4.109c21.234-2.607,30.235,1.451,30.235,1.451l-6.262-97.218-15.9-37.073s-22.186-3.019-28.06-2.361c0,0-4.827,3.113-5.988,4.434-5.96,6.784-10.013,21.254-10.239,33.317Z" transform="translate(9.641 11.441)" fill="#a3314f"/>
        <g id="Grupo_237796" data-name="Grupo 237796" transform="translate(141.934 179.159)" opacity="0.3">
          <g id="Grupo_237795" data-name="Grupo 237795">
            <g id="Grupo_237794" data-name="Grupo 237794" clip-path="url(#clip-path-9)">
              <path id="Trazado_265400" data-name="Trazado 265400" d="M148.662,174.552c-5.874-5.033-13.838-2.826-17.854-9.437a194.408,194.408,0,0,0,16.29,32.143,3.754,3.754,0,0,0,1.583,1.629c1.557.634,3.045-.9,4.461-1.809,2.627-1.681,6.146-1.241,8.948.128s5.117,3.537,7.63,5.384,5.435,3.435,8.552,3.338a204.118,204.118,0,0,0-29.611-31.376" transform="translate(-130.808 -165.115)"/>
            </g>
          </g>
        </g>
        <path id="Trazado_265401" data-name="Trazado 265401" d="M170.463,170.2l14.924,13.709,16.135-36.714,13.637,4.571s-14.65,54.3-18.455,58.444c-5.2,5.668-13.764,4.9-18.243.919-5.144-4.572-24.373-23.545-24.373-23.545Z" transform="translate(13.106 12.52)" fill="#ffbe9d"/>
        <path id="Trazado_265402" data-name="Trazado 265402" d="M182.961,190.021a22.388,22.388,0,0,1,.111-9.228,29.146,29.146,0,0,1,.028,4.615,29.2,29.2,0,0,1-.139,4.614" transform="translate(15.526 15.378)" fill="#eb996e"/>
        <path id="Trazado_265403" data-name="Trazado 265403" d="M197.012,152.579l2.843-18.341a2.477,2.477,0,0,1,.906-1.559l1.216-.967s-.149-.245,2.021-3.082,5.261-2.8,6.034-1.177c0,0,4.052-2.1,4.935.812.519,1.706-1.041,4.06-1.041,4.06s3.752,1.2,2.28,5.828c0,0,2.021-.047.15,5.018-.8,2.156-6.409,13.432-6.409,13.432Z" transform="translate(16.757 10.746)" fill="#ffbe9d"/>
        <path id="Trazado_265404" data-name="Trazado 265404" d="M187.435,138.394h0a1.417,1.417,0,0,0,1.911.877l18.849-8.074,2.485-3.73-22.429,9.189a1.418,1.418,0,0,0-.815,1.738" transform="translate(15.937 10.842)" fill="#263238"/>
        <path id="Trazado_265405" data-name="Trazado 265405" d="M213.663,130.482a10.749,10.749,0,0,1-1.468,3.189c-.97,1.706-2.223,2.777-2.331,2.643-.094-.11.9-1.271,1.846-2.933s1.8-2.989,1.953-2.9" transform="translate(17.85 11.098)" fill="#eb996e"/>
        <path id="Trazado_265406" data-name="Trazado 265406" d="M204.271,135.079a19.739,19.739,0,0,1,2.383-4.047,19.725,19.725,0,0,1,2.853-3.732,19.656,19.656,0,0,1-2.384,4.047,19.742,19.742,0,0,1-2.852,3.732" transform="translate(17.374 10.828)" fill="#eb996e"/>
        <path id="Trazado_265407" data-name="Trazado 265407" d="M213.375,139.357c-.113-.114.267-.662.672-1.351s.711-1.283.865-1.238.074.767-.379,1.526-1.054,1.174-1.158,1.063" transform="translate(18.147 11.633)" fill="#eb996e"/>
        <path id="Trazado_265408" data-name="Trazado 265408" d="M174.545,169.027,150.3,194.558c-8.855-8.452-16.911-21.934-21.051-33.178a23.564,23.564,0,0,1-.8-12.737c1.03-3.733,2.156-4.8,4.75-6.979,0,0,7.821-6.251,18.694,3.4,6.607,5.864,22.652,23.962,22.652,23.962" transform="translate(10.879 11.88)" fill="#a3314f"/>
        <path id="Trazado_265409" data-name="Trazado 265409" d="M174.567,169.046a2.869,2.869,0,0,1-.279-.27l-.777-.829-2.957-3.213c-2.57-2.788-6.276-6.836-10.962-11.733-2.352-2.435-4.927-5.119-7.875-7.778a25.729,25.729,0,0,0-5.022-3.467,15.348,15.348,0,0,0-6.141-1.764,11.671,11.671,0,0,0-6.475,1.454,12.13,12.13,0,0,0-4.611,5.133,16.7,16.7,0,0,0-1.013,3.472,19.981,19.981,0,0,0-.242,3.685,24.376,24.376,0,0,0,1.272,7.43A99.831,99.831,0,0,0,138.9,179.9a80.438,80.438,0,0,0,11.582,14.5l-.339.008,17.638-18.394c2.127-2.2,3.805-3.938,4.977-5.15l1.328-1.357c.3-.307.481-.465.481-.465a4.877,4.877,0,0,1-.406.468l-1.258,1.365-4.851,5.2-17.562,18.665-.165.175-.175-.166a80.056,80.056,0,0,1-11.708-14.558,99.3,99.3,0,0,1-9.491-18.834,24.855,24.855,0,0,1-1.3-7.611,20.519,20.519,0,0,1,.254-3.788,17.143,17.143,0,0,1,1.054-3.6,9.423,9.423,0,0,1,2.063-3.077c.429-.436.882-.833,1.334-1.223l.681-.577a7.106,7.106,0,0,1,.774-.508,12.187,12.187,0,0,1,6.773-1.506,15.8,15.8,0,0,1,6.34,1.842,26.048,26.048,0,0,1,5.105,3.557c2.96,2.7,5.515,5.4,7.855,7.854,4.654,4.937,8.315,9.028,10.835,11.861,1.233,1.406,2.2,2.509,2.88,3.284.307.363.55.65.735.867a2.159,2.159,0,0,1,.235.308" transform="translate(10.857 11.861)" fill="#263238"/>
      </g>
    </g>
  </g>
</svg>
