<svg xmlns="http://www.w3.org/2000/svg" width="1029" height="430" viewBox="0 0 1029 430">
  <g id="Grupo_891218" data-name="Grupo 891218" transform="translate(-285.333 -5191.064)">
    <rect id="Rectángulo_53242" data-name="Rectángulo 53242" width="191" height="58" transform="translate(285.333 5191.064)" fill="#ffb500"/>
    <rect id="Rectángulo_53243" data-name="Rectángulo 53243" width="189" height="58" transform="translate(547.333 5191.064)" fill="#ffb500"/>
    <rect id="Rectángulo_53244" data-name="Rectángulo 53244" width="188" height="58" transform="translate(791.333 5191.064)" fill="#ffb500"/>
    <rect id="Rectángulo_53245" data-name="Rectángulo 53245" width="191" height="57" transform="translate(285.333 5564.064)" fill="#ffb500"/>
    <rect id="Rectángulo_53246" data-name="Rectángulo 53246" width="189" height="57" transform="translate(547.333 5564.064)" fill="#ffb500"/>
    <rect id="Rectángulo_53247" data-name="Rectángulo 53247" width="188" height="57" transform="translate(791.333 5564.064)" fill="#ffb500"/>
    <rect id="Rectángulo_53248" data-name="Rectángulo 53248" width="209" height="58" transform="translate(1105.333 5377.064)" fill="#ffb500"/>
    <g id="Grupo_167686" data-name="Grupo 167686" transform="translate(349.459 5250.176)">
      <line id="Línea_1128" data-name="Línea 1128" x1="709" transform="translate(-0.126 155.888)" fill="none" stroke="#707070" stroke-width="3"/>
      <path id="Polígono_72" data-name="Polígono 72" d="M14.5,0,29,24H0Z" transform="translate(731.874 141.888) rotate(90)" fill="#636363"/>
      <line id="Línea_1129" data-name="Línea 1129" y1="134.317" x2="131.918" transform="translate(544.352 171.494)" fill="none" stroke="#707070" stroke-width="3"/>
      <line id="Línea_1131" data-name="Línea 1131" y1="134.317" x2="134.317" transform="translate(292.508 171.494)" fill="none" stroke="#707070" stroke-width="3"/>
      <line id="Línea_1132" data-name="Línea 1132" x2="85.147" y2="134.317" transform="translate(292.508 8.395)" fill="none" stroke="#707070" stroke-width="3"/>
      <line id="Línea_1133" data-name="Línea 1133" y1="134.317" x2="137.915" transform="translate(40.664 171.494)" fill="none" stroke="#707070" stroke-width="3"/>
      <line id="Línea_1134" data-name="Línea 1134" x2="85.147" y2="134.317" transform="translate(40.664 8.395)" fill="none" stroke="#707070" stroke-width="3"/>
      <path id="Polígono_74" data-name="Polígono 74" d="M5.4,0l5.4,9.594H0Z" transform="matrix(0.899, 0.438, -0.438, 0.899, 374.907, 134.235)" fill="#636363"/>
      <path id="Polígono_75" data-name="Polígono 75" d="M5.4,0l5.4,9.594H0Z" transform="matrix(0.899, 0.438, -0.438, 0.899, 123.063, 134.235)" fill="#636363"/>
      <path id="Polígono_76" data-name="Polígono 76" d="M5.4,0l5.4,9.594H0Z" transform="matrix(0.208, -0.978, 0.978, 0.208, 670.456, 172.777)" fill="#636363"/>
      <path id="Polígono_77" data-name="Polígono 77" d="M5.4,0l5.4,9.594H0Z" transform="matrix(0.208, -0.978, 0.978, 0.208, 421.01, 172.777)" fill="#636363"/>
      <path id="Polígono_78" data-name="Polígono 78" d="M5.4,0l5.4,9.594H0Z" transform="matrix(0.208, -0.978, 0.978, 0.208, 172.764, 172.777)" fill="#636363"/>
      <line id="Línea_1321" data-name="Línea 1321" x2="85.147" y2="134.317" transform="translate(542.508 8.395)" fill="none" stroke="#707070" stroke-width="3"/>
      <path id="Polígono_96" data-name="Polígono 96" d="M5.4,0l5.4,9.594H0Z" transform="matrix(0.899, 0.438, -0.438, 0.899, 624.907, 134.235)" fill="#636363"/>
    </g>
    <path id="Trazado_622248" data-name="Trazado 622248" d="M29.176,7.852h-3.2V17H23.449V7.852H20.27V5.8h8.906Zm5.281,3.375a2.142,2.142,0,0,0-1.039-.242,1.5,1.5,0,0,0-1.258.59,2.573,2.573,0,0,0-.453,1.605V17H29.238V9h2.469v1.484h.031a2.136,2.136,0,0,1,2.109-1.625,1.59,1.59,0,0,1,.609.094ZM42.262,17H39.926V15.852h-.031A2.607,2.607,0,0,1,37.512,17.2a2.492,2.492,0,0,1-1.832-.66,2.366,2.366,0,0,1-.668-1.762q0-2.328,2.758-2.687l2.172-.289q0-1.312-1.422-1.312a4.853,4.853,0,0,0-2.719.852V9.477a6.116,6.116,0,0,1,1.41-.469,7.413,7.413,0,0,1,1.629-.2q3.422,0,3.422,3.414Zm-2.32-3.25v-.539l-1.453.188q-1.2.156-1.2,1.086a.9.9,0,0,0,.293.691,1.126,1.126,0,0,0,.793.27,1.462,1.462,0,0,0,1.133-.48A1.735,1.735,0,0,0,39.941,13.75Zm6.773,2.32h-.031V17H44.215V5.156h2.469V10.2h.031a2.929,2.929,0,0,1,2.6-1.4A2.855,2.855,0,0,1,51.7,9.867a4.582,4.582,0,0,1,.836,2.906,4.962,4.962,0,0,1-.977,3.211A3.181,3.181,0,0,1,48.949,17.2,2.521,2.521,0,0,1,46.715,16.07Zm-.07-3.375v.82A1.872,1.872,0,0,0,47.09,14.8a1.449,1.449,0,0,0,1.141.508,1.514,1.514,0,0,0,1.309-.652A3.15,3.15,0,0,0,50,12.8a2.506,2.506,0,0,0-.426-1.551,1.437,1.437,0,0,0-1.215-.559,1.569,1.569,0,0,0-1.23.555A2.107,2.107,0,0,0,46.645,12.7ZM60.637,17H58.3V15.852H58.27A2.607,2.607,0,0,1,55.887,17.2a2.492,2.492,0,0,1-1.832-.66,2.366,2.366,0,0,1-.668-1.762q0-2.328,2.758-2.687l2.172-.289q0-1.312-1.422-1.312a4.853,4.853,0,0,0-2.719.852V9.477a6.116,6.116,0,0,1,1.41-.469,7.413,7.413,0,0,1,1.629-.2q3.422,0,3.422,3.414Zm-2.32-3.25v-.539l-1.453.188q-1.2.156-1.2,1.086a.9.9,0,0,0,.293.691,1.126,1.126,0,0,0,.793.27,1.462,1.462,0,0,0,1.133-.48A1.735,1.735,0,0,0,58.316,13.75ZM63.84,7.734a1.442,1.442,0,0,1-1.023-.371,1.2,1.2,0,0,1-.4-.91,1.153,1.153,0,0,1,.4-.906,1.671,1.671,0,0,1,2.051,0,1.158,1.158,0,0,1,.395.906,1.191,1.191,0,0,1-.395.922A1.466,1.466,0,0,1,63.84,7.734Zm1.219,9.125a4.349,4.349,0,0,1-.867,2.836,3.041,3.041,0,0,1-2.5,1.063,3.457,3.457,0,0,1-1.18-.234V18.586a1.923,1.923,0,0,0,.914.289q1.164,0,1.164-1.828V9h2.469Zm5.891.336A4.3,4.3,0,0,1,67.8,16.074a4.064,4.064,0,0,1-1.145-3.043,4.065,4.065,0,0,1,1.188-3.105A4.487,4.487,0,0,1,71.059,8.8a4.249,4.249,0,0,1,3.125,1.121,3.985,3.985,0,0,1,1.133,2.965,4.23,4.23,0,0,1-1.168,3.148A4.348,4.348,0,0,1,70.949,17.2Zm.063-6.5a1.647,1.647,0,0,0-1.359.6,2.653,2.653,0,0,0-.484,1.7q0,2.3,1.859,2.3,1.773,0,1.773-2.367Q72.8,10.7,71.012,10.7Zm14.133,6.5A4.3,4.3,0,0,1,82,16.074a4.064,4.064,0,0,1-1.145-3.043,4.065,4.065,0,0,1,1.188-3.105A4.487,4.487,0,0,1,85.254,8.8a4.249,4.249,0,0,1,3.125,1.121,3.985,3.985,0,0,1,1.133,2.965,4.23,4.23,0,0,1-1.168,3.148A4.348,4.348,0,0,1,85.145,17.2Zm.063-6.5a1.647,1.647,0,0,0-1.359.6,2.653,2.653,0,0,0-.484,1.7q0,2.3,1.859,2.3Q87,15.3,87,12.938,87,10.7,85.207,10.7Zm8.406,5.375h-.031V17H91.113V5.156h2.469V10.2h.031a2.929,2.929,0,0,1,2.6-1.4A2.855,2.855,0,0,1,98.6,9.867a4.582,4.582,0,0,1,.836,2.906,4.962,4.962,0,0,1-.977,3.211A3.181,3.181,0,0,1,95.848,17.2,2.521,2.521,0,0,1,93.613,16.07Zm-.07-3.375v.82a1.872,1.872,0,0,0,.445,1.281,1.449,1.449,0,0,0,1.141.508,1.514,1.514,0,0,0,1.309-.652A3.15,3.15,0,0,0,96.9,12.8a2.506,2.506,0,0,0-.426-1.551,1.437,1.437,0,0,0-1.215-.559,1.569,1.569,0,0,0-1.23.555A2.107,2.107,0,0,0,93.543,12.7Zm12.711-1.469a2.141,2.141,0,0,0-1.039-.242,1.5,1.5,0,0,0-1.258.59,2.573,2.573,0,0,0-.453,1.605V17h-2.469V9H103.5v1.484h.031a2.136,2.136,0,0,1,2.109-1.625,1.59,1.59,0,0,1,.609.094Zm7.8,5.773h-2.336V15.852h-.031a2.607,2.607,0,0,1-2.383,1.344,2.492,2.492,0,0,1-1.832-.66,2.366,2.366,0,0,1-.668-1.762q0-2.328,2.758-2.687l2.172-.289q0-1.312-1.422-1.312a4.853,4.853,0,0,0-2.719.852V9.477a6.116,6.116,0,0,1,1.41-.469,7.413,7.413,0,0,1,1.629-.2q3.422,0,3.422,3.414Zm-2.32-3.25v-.539l-1.453.188q-1.2.156-1.2,1.086a.9.9,0,0,0,.293.691,1.126,1.126,0,0,0,.793.27,1.462,1.462,0,0,0,1.133-.48A1.735,1.735,0,0,0,111.738,13.75Z" transform="translate(313.333 5210.064)" fill="#12263f"/>
    <path id="Trazado_622249" data-name="Trazado 622249" d="M37.082,17H34.59V10.3q0-1.086.094-2.4h-.062a11.8,11.8,0,0,1-.352,1.484L31.645,17H29.582L26.91,9.461A14.671,14.671,0,0,1,26.559,7.9h-.07q.1,1.656.1,2.906V17H24.316V5.8h3.7L30.3,12.438a9.35,9.35,0,0,1,.4,1.6h.047a16.127,16.127,0,0,1,.445-1.617L33.48,5.8h3.6Zm8.961,0H43.707V15.852h-.031A2.607,2.607,0,0,1,41.293,17.2a2.492,2.492,0,0,1-1.832-.66,2.366,2.366,0,0,1-.668-1.762q0-2.328,2.758-2.687l2.172-.289q0-1.312-1.422-1.312a4.853,4.853,0,0,0-2.719.852V9.477a6.116,6.116,0,0,1,1.41-.469,7.413,7.413,0,0,1,1.629-.2q3.422,0,3.422,3.414Zm-2.32-3.25v-.539L42.27,13.4q-1.2.156-1.2,1.086a.9.9,0,0,0,.293.691,1.126,1.126,0,0,0,.793.27,1.462,1.462,0,0,0,1.133-.48A1.735,1.735,0,0,0,43.723,13.75Zm12.1,6.93H53.355V15.9h-.031a2.742,2.742,0,0,1-2.461,1.3,3.064,3.064,0,0,1-2.426-1.051A4.339,4.339,0,0,1,47.52,13.2,4.794,4.794,0,0,1,48.527,10a3.271,3.271,0,0,1,2.625-1.2A2.381,2.381,0,0,1,53.324,9.93h.031V9h2.469ZM53.4,13.18v-.641a1.952,1.952,0,0,0-.453-1.312,1.46,1.46,0,0,0-1.164-.531,1.507,1.507,0,0,0-1.289.645,2.986,2.986,0,0,0-.469,1.785,2.52,2.52,0,0,0,.457,1.6,1.448,1.448,0,0,0,1.191.578,1.53,1.53,0,0,0,1.254-.586A2.376,2.376,0,0,0,53.4,13.18ZM65.5,17H63.043V15.781H63A2.792,2.792,0,0,1,60.559,17.2q-2.781,0-2.781-3.367V9h2.461v4.609q0,1.7,1.344,1.7a1.329,1.329,0,0,0,1.063-.465,1.874,1.874,0,0,0,.4-1.262V9H65.5Zm3.328-9.266a1.442,1.442,0,0,1-1.023-.371,1.2,1.2,0,0,1-.4-.91,1.153,1.153,0,0,1,.4-.906,1.671,1.671,0,0,1,2.051,0,1.158,1.158,0,0,1,.395.906,1.191,1.191,0,0,1-.395.922A1.466,1.466,0,0,1,68.832,7.734ZM70.051,17H67.582V9h2.469Zm9.8,0H77.395V12.555q0-1.859-1.328-1.859a1.318,1.318,0,0,0-1.055.492,1.875,1.875,0,0,0-.414,1.25V17H72.129V9H74.6v1.266h.031A2.829,2.829,0,0,1,77.2,8.8q2.656,0,2.656,3.3Zm8.609,0H86.129V15.852H86.1A2.607,2.607,0,0,1,83.715,17.2a2.492,2.492,0,0,1-1.832-.66,2.366,2.366,0,0,1-.668-1.762q0-2.328,2.758-2.687l2.172-.289q0-1.312-1.422-1.312A4.853,4.853,0,0,0,82,11.336V9.477a6.116,6.116,0,0,1,1.41-.469,7.413,7.413,0,0,1,1.629-.2q3.422,0,3.422,3.414Zm-2.32-3.25v-.539l-1.453.188q-1.2.156-1.2,1.086a.9.9,0,0,0,.293.691,1.126,1.126,0,0,0,.793.27,1.462,1.462,0,0,0,1.133-.48A1.735,1.735,0,0,0,86.145,13.75Zm9.492-2.523a2.141,2.141,0,0,0-1.039-.242,1.5,1.5,0,0,0-1.258.59,2.573,2.573,0,0,0-.453,1.605V17H90.418V9h2.469v1.484h.031a2.136,2.136,0,0,1,2.109-1.625,1.59,1.59,0,0,1,.609.094ZM98.1,7.734a1.442,1.442,0,0,1-1.023-.371,1.2,1.2,0,0,1-.4-.91,1.153,1.153,0,0,1,.4-.906,1.671,1.671,0,0,1,2.051,0,1.158,1.158,0,0,1,.395.906,1.191,1.191,0,0,1-.395.922A1.466,1.466,0,0,1,98.1,7.734ZM99.316,17H96.848V9h2.469Zm8.734,0h-2.336V15.852h-.031A2.607,2.607,0,0,1,103.3,17.2a2.492,2.492,0,0,1-1.832-.66,2.366,2.366,0,0,1-.668-1.762q0-2.328,2.758-2.687l2.172-.289q0-1.312-1.422-1.312a4.853,4.853,0,0,0-2.719.852V9.477A6.116,6.116,0,0,1,103,9.008a7.413,7.413,0,0,1,1.629-.2q3.422,0,3.422,3.414Zm-2.32-3.25v-.539l-1.453.188q-1.2.156-1.2,1.086a.9.9,0,0,0,.293.691,1.126,1.126,0,0,0,.793.27,1.462,1.462,0,0,0,1.133-.48A1.735,1.735,0,0,0,105.73,13.75Z" transform="translate(579.333 5210.064)" fill="#12263f"/>
    <path id="Trazado_622250" data-name="Trazado 622250" d="M43.492,17H36.773V5.8h6.461V7.852H39.3v2.492h3.664v2.047H39.3v2.563h4.2Zm9.281,0H50.313V12.555q0-1.859-1.328-1.859a1.318,1.318,0,0,0-1.055.492,1.875,1.875,0,0,0-.414,1.25V17H45.047V9h2.469v1.266h.031A2.829,2.829,0,0,1,50.117,8.8q2.656,0,2.656,3.3Zm6.789-.094a3.649,3.649,0,0,1-1.648.289q-2.609,0-2.609-2.711V10.82h-1.3V9h1.3V7.273l2.461-.7V9h1.8v1.82h-1.8v3.234q0,1.25.992,1.25a1.673,1.673,0,0,0,.8-.227ZM64.7,17.2a4.3,4.3,0,0,1-3.145-1.121,4.064,4.064,0,0,1-1.145-3.043A4.065,4.065,0,0,1,61.6,9.926,4.487,4.487,0,0,1,64.813,8.8a4.249,4.249,0,0,1,3.125,1.121,3.985,3.985,0,0,1,1.133,2.965A4.23,4.23,0,0,1,67.9,16.039,4.348,4.348,0,0,1,64.7,17.2Zm.063-6.5a1.647,1.647,0,0,0-1.359.6,2.653,2.653,0,0,0-.484,1.7q0,2.3,1.859,2.3,1.773,0,1.773-2.367Q66.555,10.7,64.766,10.7Zm11.125.531a2.141,2.141,0,0,0-1.039-.242,1.5,1.5,0,0,0-1.258.59,2.573,2.573,0,0,0-.453,1.605V17H70.672V9h2.469v1.484h.031a2.136,2.136,0,0,1,2.109-1.625,1.59,1.59,0,0,1,.609.094ZM84.813,17H82.352V12.555q0-1.859-1.328-1.859a1.318,1.318,0,0,0-1.055.492,1.875,1.875,0,0,0-.414,1.25V17H77.086V9h2.469v1.266h.031A2.829,2.829,0,0,1,82.156,8.8q2.656,0,2.656,3.3Zm5.766.2a4.3,4.3,0,0,1-3.145-1.121,4.064,4.064,0,0,1-1.145-3.043,4.065,4.065,0,0,1,1.188-3.105A4.487,4.487,0,0,1,90.688,8.8a4.249,4.249,0,0,1,3.125,1.121,3.985,3.985,0,0,1,1.133,2.965,4.23,4.23,0,0,1-1.168,3.148A4.348,4.348,0,0,1,90.578,17.2Zm.063-6.5a1.647,1.647,0,0,0-1.359.6A2.653,2.653,0,0,0,88.8,13q0,2.3,1.859,2.3,1.773,0,1.773-2.367Q92.43,10.7,90.641,10.7Z" transform="translate(820.333 5210.064)" fill="#12263f"/>
    <path id="Trazado_622260" data-name="Trazado 622260" d="M42.262,17H39.77V10.3q0-1.086.094-2.4H39.8a11.8,11.8,0,0,1-.352,1.484L36.824,17H34.762L32.09,9.461A14.67,14.67,0,0,1,31.738,7.9h-.07q.1,1.656.1,2.906V17H29.5V5.8h3.7l2.289,6.641a9.35,9.35,0,0,1,.4,1.6h.047a16.127,16.127,0,0,1,.445-1.617L38.66,5.8h3.6Zm8.961,0H48.887V15.852h-.031A2.607,2.607,0,0,1,46.473,17.2a2.492,2.492,0,0,1-1.832-.66,2.366,2.366,0,0,1-.668-1.762q0-2.328,2.758-2.687L48.9,11.8q0-1.312-1.422-1.312a4.853,4.853,0,0,0-2.719.852V9.477a6.116,6.116,0,0,1,1.41-.469A7.413,7.413,0,0,1,47.8,8.8q3.422,0,3.422,3.414ZM48.9,13.75v-.539l-1.453.188q-1.2.156-1.2,1.086a.9.9,0,0,0,.293.691,1.126,1.126,0,0,0,.793.27,1.462,1.462,0,0,0,1.133-.48A1.735,1.735,0,0,0,48.9,13.75Zm9.109,3.156a3.649,3.649,0,0,1-1.648.289q-2.609,0-2.609-2.711V10.82h-1.3V9h1.3V7.273l2.461-.7V9h1.8v1.82h-1.8v3.234q0,1.25.992,1.25a1.673,1.673,0,0,0,.8-.227Zm8.516-3.2H61.309q.125,1.742,2.2,1.742a4.286,4.286,0,0,0,2.32-.625V16.6a6.1,6.1,0,0,1-2.883.594,4.058,4.058,0,0,1-3.008-1.074,4.058,4.058,0,0,1-1.07-3A4.281,4.281,0,0,1,60.02,9.969,3.852,3.852,0,0,1,62.863,8.8,3.5,3.5,0,0,1,65.57,9.844a4,4,0,0,1,.957,2.82Zm-2.289-1.516q0-1.719-1.391-1.719a1.328,1.328,0,0,0-1.027.492,2.234,2.234,0,0,0-.527,1.227Zm8.977-.961a2.141,2.141,0,0,0-1.039-.242,1.5,1.5,0,0,0-1.258.59,2.573,2.573,0,0,0-.453,1.605V17H68V9h2.469v1.484H70.5a2.136,2.136,0,0,1,2.109-1.625,1.59,1.59,0,0,1,.609.094Zm2.461-3.492a1.442,1.442,0,0,1-1.023-.371,1.2,1.2,0,0,1-.4-.91,1.153,1.153,0,0,1,.4-.906,1.671,1.671,0,0,1,2.051,0,1.158,1.158,0,0,1,.395.906,1.191,1.191,0,0,1-.395.922A1.466,1.466,0,0,1,75.676,7.734ZM76.895,17H74.426V9h2.469Zm8.734,0H83.293V15.852h-.031A2.607,2.607,0,0,1,80.879,17.2a2.492,2.492,0,0,1-1.832-.66,2.366,2.366,0,0,1-.668-1.762q0-2.328,2.758-2.687l2.172-.289q0-1.312-1.422-1.312a4.853,4.853,0,0,0-2.719.852V9.477a6.116,6.116,0,0,1,1.41-.469,7.413,7.413,0,0,1,1.629-.2q3.422,0,3.422,3.414Zm-2.32-3.25v-.539l-1.453.188q-1.2.156-1.2,1.086a.9.9,0,0,0,.293.691,1.126,1.126,0,0,0,.793.27,1.462,1.462,0,0,0,1.133-.48A1.735,1.735,0,0,0,83.309,13.75ZM90.051,17H87.582V5.156h2.469Zm9.266-3.3H94.1q.125,1.742,2.2,1.742a4.286,4.286,0,0,0,2.32-.625V16.6a6.1,6.1,0,0,1-2.883.594,4.058,4.058,0,0,1-3.008-1.074,4.058,4.058,0,0,1-1.07-3,4.281,4.281,0,0,1,1.156-3.156A3.852,3.852,0,0,1,95.652,8.8a3.5,3.5,0,0,1,2.707,1.039,4,4,0,0,1,.957,2.82Zm-2.289-1.516q0-1.719-1.391-1.719a1.328,1.328,0,0,0-1.027.492,2.234,2.234,0,0,0-.527,1.227Zm3.234,4.6v-2a5.256,5.256,0,0,0,1.215.547,4.028,4.028,0,0,0,1.145.18,2.455,2.455,0,0,0,1.035-.18.581.581,0,0,0,.379-.547.506.506,0,0,0-.172-.391,1.6,1.6,0,0,0-.441-.273,5.009,5.009,0,0,0-.59-.211q-.32-.094-.617-.211a5.913,5.913,0,0,1-.84-.387,2.427,2.427,0,0,1-.609-.48,1.889,1.889,0,0,1-.375-.633,2.525,2.525,0,0,1-.129-.852,2.192,2.192,0,0,1,.293-1.156,2.393,2.393,0,0,1,.781-.793,3.57,3.57,0,0,1,1.117-.453,5.825,5.825,0,0,1,1.309-.145,7.261,7.261,0,0,1,1.078.082,8.047,8.047,0,0,1,1.078.238v1.906a3.9,3.9,0,0,0-1-.41,4.235,4.235,0,0,0-1.051-.137,2.328,2.328,0,0,0-.457.043,1.505,1.505,0,0,0-.379.125.7.7,0,0,0-.258.211.486.486,0,0,0-.094.293.541.541,0,0,0,.141.375,1.221,1.221,0,0,0,.367.27,3.625,3.625,0,0,0,.5.2q.277.09.551.184a7.161,7.161,0,0,1,.891.375,2.848,2.848,0,0,1,.684.477,1.872,1.872,0,0,1,.438.641,2.563,2.563,0,0,1-.156,2.09,2.471,2.471,0,0,1-.82.82,3.72,3.72,0,0,1-1.18.461,6.54,6.54,0,0,1-1.387.145A7.149,7.149,0,0,1,100.262,16.789Z" transform="translate(313.333 5582.064)" fill="#12263f"/>
    <path id="Trazado_622262" data-name="Trazado 622262" d="M45,17H42.5V10.3q0-1.086.094-2.4h-.062a11.8,11.8,0,0,1-.352,1.484L39.559,17H37.5L34.824,9.461A14.67,14.67,0,0,1,34.473,7.9H34.4q.1,1.656.1,2.906V17H32.23V5.8h3.7l2.289,6.641a9.35,9.35,0,0,1,.4,1.6h.047a16.127,16.127,0,0,1,.445-1.617L41.395,5.8H45Zm9.492-3.3H49.27q.125,1.742,2.2,1.742a4.286,4.286,0,0,0,2.32-.625V16.6A6.1,6.1,0,0,1,50.9,17.2a4.058,4.058,0,0,1-3.008-1.074,4.058,4.058,0,0,1-1.07-3A4.281,4.281,0,0,1,47.98,9.969,3.852,3.852,0,0,1,50.824,8.8a3.5,3.5,0,0,1,2.707,1.039,4,4,0,0,1,.957,2.82ZM52.2,12.188q0-1.719-1.391-1.719a1.328,1.328,0,0,0-1.027.492,2.234,2.234,0,0,0-.527,1.227ZM63.785,17H61.316V15.9h-.031a2.768,2.768,0,0,1-2.477,1.3,3.033,3.033,0,0,1-2.414-1.059,4.382,4.382,0,0,1-.914-2.957A4.77,4.77,0,0,1,56.488,10a3.287,3.287,0,0,1,2.641-1.2,2.246,2.246,0,0,1,2.156,1.109h.031V5.156h2.469Zm-2.422-3.891v-.6a1.893,1.893,0,0,0-.453-1.3,1.6,1.6,0,0,0-2.461.129,2.993,2.993,0,0,0-.461,1.77,2.59,2.59,0,0,0,.445,1.625,1.581,1.581,0,0,0,2.457-.031A2.507,2.507,0,0,0,61.363,13.109Zm5.75-5.375a1.442,1.442,0,0,1-1.023-.371,1.2,1.2,0,0,1-.4-.91,1.153,1.153,0,0,1,.4-.906,1.671,1.671,0,0,1,2.051,0,1.158,1.158,0,0,1,.395.906,1.191,1.191,0,0,1-.395.922A1.466,1.466,0,0,1,67.113,7.734ZM68.332,17H65.863V9h2.469Zm8.141-.289a4.881,4.881,0,0,1-2.414.484,4.083,4.083,0,0,1-2.984-1.117A3.859,3.859,0,0,1,69.934,13.2,4.251,4.251,0,0,1,71.156,9.98,4.518,4.518,0,0,1,74.426,8.8a4.2,4.2,0,0,1,2.047.375v2.094a2.814,2.814,0,0,0-1.727-.578,2.275,2.275,0,0,0-1.684.621,2.317,2.317,0,0,0-.621,1.715,2.28,2.28,0,0,0,.594,1.668,2.182,2.182,0,0,0,1.633.605,3.258,3.258,0,0,0,1.8-.578ZM79.34,7.734a1.442,1.442,0,0,1-1.023-.371,1.2,1.2,0,0,1-.4-.91,1.153,1.153,0,0,1,.4-.906,1.671,1.671,0,0,1,2.051,0,1.158,1.158,0,0,1,.395.906,1.191,1.191,0,0,1-.395.922A1.466,1.466,0,0,1,79.34,7.734ZM80.559,17H78.09V9h2.469Zm5.891.2A4.3,4.3,0,0,1,83.3,16.074a4.064,4.064,0,0,1-1.145-3.043,4.065,4.065,0,0,1,1.188-3.105A4.487,4.487,0,0,1,86.559,8.8a4.249,4.249,0,0,1,3.125,1.121,3.985,3.985,0,0,1,1.133,2.965,4.23,4.23,0,0,1-1.168,3.148A4.348,4.348,0,0,1,86.449,17.2Zm.063-6.5a1.647,1.647,0,0,0-1.359.6,2.653,2.653,0,0,0-.484,1.7q0,2.3,1.859,2.3,1.773,0,1.773-2.367Q88.3,10.7,86.512,10.7ZM89.16,5.211,86.715,7.734H84.934l2.031-2.523ZM100.137,17H97.676V12.555q0-1.859-1.328-1.859a1.318,1.318,0,0,0-1.055.492,1.875,1.875,0,0,0-.414,1.25V17H92.41V9h2.469v1.266h.031A2.829,2.829,0,0,1,97.48,8.8q2.656,0,2.656,3.3Z" transform="translate(579.333 5582.064)" fill="#12263f"/>
    <path id="Trazado_622263" data-name="Trazado 622263" d="M49.746,17H47.254V10.3q0-1.086.094-2.4h-.062a11.8,11.8,0,0,1-.352,1.484L44.309,17H42.246L39.574,9.461A14.67,14.67,0,0,1,39.223,7.9h-.07q.1,1.656.1,2.906V17H36.98V5.8h3.7l2.289,6.641a9.35,9.35,0,0,1,.4,1.6h.047a16.127,16.127,0,0,1,.445-1.617L46.145,5.8h3.6Zm9.492-3.3H54.02q.125,1.742,2.2,1.742a4.286,4.286,0,0,0,2.32-.625V16.6a6.1,6.1,0,0,1-2.883.594,4.058,4.058,0,0,1-3.008-1.074,4.058,4.058,0,0,1-1.07-3A4.281,4.281,0,0,1,52.73,9.969,3.852,3.852,0,0,1,55.574,8.8a3.5,3.5,0,0,1,2.707,1.039,4,4,0,0,1,.957,2.82Zm-2.289-1.516q0-1.719-1.391-1.719a1.328,1.328,0,0,0-1.027.492A2.234,2.234,0,0,0,54,12.188Zm1.258-6.977L55.762,7.734H53.98l2.031-2.523Zm7.336,11.7a3.649,3.649,0,0,1-1.648.289q-2.609,0-2.609-2.711V10.82h-1.3V9h1.3V7.273l2.461-.7V9h1.8v1.82h-1.8v3.234q0,1.25.992,1.25a1.673,1.673,0,0,0,.8-.227Zm5.141.289a4.3,4.3,0,0,1-3.145-1.121,4.064,4.064,0,0,1-1.145-3.043,4.065,4.065,0,0,1,1.188-3.105A4.487,4.487,0,0,1,70.793,8.8a4.249,4.249,0,0,1,3.125,1.121,3.985,3.985,0,0,1,1.133,2.965,4.23,4.23,0,0,1-1.168,3.148A4.348,4.348,0,0,1,70.684,17.2Zm.063-6.5a1.647,1.647,0,0,0-1.359.6A2.653,2.653,0,0,0,68.9,13q0,2.3,1.859,2.3,1.773,0,1.773-2.367Q72.535,10.7,70.746,10.7ZM84.48,17H82.012V15.9H81.98A2.768,2.768,0,0,1,79.5,17.2a3.033,3.033,0,0,1-2.414-1.059,4.382,4.382,0,0,1-.914-2.957A4.77,4.77,0,0,1,77.184,10a3.287,3.287,0,0,1,2.641-1.2A2.246,2.246,0,0,1,81.98,9.914h.031V5.156H84.48Zm-2.422-3.891v-.6a1.893,1.893,0,0,0-.453-1.3,1.6,1.6,0,0,0-2.461.129,2.993,2.993,0,0,0-.461,1.77,2.59,2.59,0,0,0,.445,1.625,1.581,1.581,0,0,0,2.457-.031A2.507,2.507,0,0,0,82.059,13.109ZM90.371,17.2a4.3,4.3,0,0,1-3.145-1.121,4.064,4.064,0,0,1-1.145-3.043A4.065,4.065,0,0,1,87.27,9.926,4.487,4.487,0,0,1,90.48,8.8a4.249,4.249,0,0,1,3.125,1.121,3.985,3.985,0,0,1,1.133,2.965,4.23,4.23,0,0,1-1.168,3.148A4.348,4.348,0,0,1,90.371,17.2Zm.063-6.5a1.647,1.647,0,0,0-1.359.6A2.653,2.653,0,0,0,88.59,13q0,2.3,1.859,2.3,1.773,0,1.773-2.367Q92.223,10.7,90.434,10.7Z" transform="translate(820.333 5582.064)" fill="#12263f"/>
    <path id="Trazado_622253" data-name="Trazado 622253" d="M10.779,13.619a5.339,5.339,0,0,1-2.514.533,4.054,4.054,0,0,1-3.11-1.25A4.614,4.614,0,0,1,3.987,9.62,4.836,4.836,0,0,1,5.3,6.091,4.46,4.46,0,0,1,8.633,4.745a5.343,5.343,0,0,1,2.146.375V6.256A4.351,4.351,0,0,0,8.62,5.71,3.312,3.312,0,0,0,6.078,6.757a3.946,3.946,0,0,0-.974,2.8,3.754,3.754,0,0,0,.911,2.65,3.1,3.1,0,0,0,2.39.987,4.483,4.483,0,0,0,2.374-.609ZM17.145,14H16.1V12.984h-.025a2.179,2.179,0,0,1-2,1.168,2.137,2.137,0,0,1-1.52-.514,1.781,1.781,0,0,1-.549-1.365q0-1.822,2.146-2.12L16.1,9.88q0-1.657-1.339-1.657a3.2,3.2,0,0,0-2.12.8V7.957a4.028,4.028,0,0,1,2.209-.609q2.292,0,2.292,2.425ZM16.1,10.712l-1.568.216a2.546,2.546,0,0,0-1.092.359,1.034,1.034,0,0,0-.368.911.992.992,0,0,0,.34.778,1.312,1.312,0,0,0,.9.3,1.671,1.671,0,0,0,1.279-.543,1.939,1.939,0,0,0,.5-1.374Zm4.069,2.349h-.025V16.99H19.107V7.5h1.041V8.643h.025A2.462,2.462,0,0,1,22.42,7.348a2.38,2.38,0,0,1,1.961.873,3.615,3.615,0,0,1,.7,2.339,4.029,4.029,0,0,1-.793,2.612,2.642,2.642,0,0,1-2.171.981A2.175,2.175,0,0,1,20.173,13.061Zm-.025-2.622v.908a1.933,1.933,0,0,0,.524,1.368,1.868,1.868,0,0,0,2.812-.162,3.32,3.32,0,0,0,.536-2.012,2.621,2.621,0,0,0-.5-1.7,1.66,1.66,0,0,0-1.358-.616,1.844,1.844,0,0,0-1.46.632A2.319,2.319,0,0,0,20.148,10.439ZM31.4,14H30.361V12.984h-.025a2.179,2.179,0,0,1-2,1.168,2.137,2.137,0,0,1-1.52-.514,1.781,1.781,0,0,1-.549-1.365q0-1.822,2.146-2.12l1.949-.273q0-1.657-1.339-1.657a3.2,3.2,0,0,0-2.12.8V7.957a4.028,4.028,0,0,1,2.209-.609q2.292,0,2.292,2.425Zm-1.041-3.288-1.568.216a2.546,2.546,0,0,0-1.092.359,1.034,1.034,0,0,0-.368.911.992.992,0,0,0,.34.778,1.312,1.312,0,0,0,.9.3,1.671,1.671,0,0,0,1.279-.543,1.939,1.939,0,0,0,.5-1.374Zm7.433,2.99a3.383,3.383,0,0,1-1.777.451,2.943,2.943,0,0,1-2.244-.9,3.278,3.278,0,0,1-.854-2.345,3.6,3.6,0,0,1,.92-2.58A3.22,3.22,0,0,1,36.3,7.348a3.419,3.419,0,0,1,1.511.317V8.731a2.647,2.647,0,0,0-1.549-.508,2.093,2.093,0,0,0-1.635.714,2.71,2.71,0,0,0-.638,1.876,2.58,2.58,0,0,0,.6,1.8,2.068,2.068,0,0,0,1.609.66,2.609,2.609,0,0,0,1.6-.565ZM39.9,5.85a.66.66,0,0,1-.476-.19.643.643,0,0,1-.2-.482A.667.667,0,0,1,39.9,4.5a.672.672,0,0,1,.486.194.678.678,0,0,1,0,.962A.667.667,0,0,1,39.9,5.85ZM40.409,14H39.368V7.5h1.041Zm5.123-.063a2.007,2.007,0,0,1-.971.2q-1.708,0-1.708-1.9V8.389H41.736V7.5h1.117V5.913l1.041-.336V7.5h1.638v.889H43.894v3.663a1.518,1.518,0,0,0,.222.933.887.887,0,0,0,.736.279,1.094,1.094,0,0,0,.679-.216ZM51.575,14H50.534V12.984h-.025a2.179,2.179,0,0,1-2,1.168,2.137,2.137,0,0,1-1.52-.514,1.781,1.781,0,0,1-.549-1.365q0-1.822,2.146-2.12l1.949-.273q0-1.657-1.339-1.657a3.2,3.2,0,0,0-2.12.8V7.957a4.028,4.028,0,0,1,2.209-.609q2.292,0,2.292,2.425Zm-1.041-3.288-1.568.216a2.546,2.546,0,0,0-1.092.359,1.034,1.034,0,0,0-.368.911.992.992,0,0,0,.34.778,1.312,1.312,0,0,0,.9.3,1.671,1.671,0,0,0,1.279-.543,1.939,1.939,0,0,0,.5-1.374Zm7.433,2.99a3.383,3.383,0,0,1-1.777.451,2.943,2.943,0,0,1-2.244-.9,3.278,3.278,0,0,1-.854-2.345,3.6,3.6,0,0,1,.92-2.58,3.22,3.22,0,0,1,2.457-.974,3.419,3.419,0,0,1,1.511.317V8.731a2.647,2.647,0,0,0-1.549-.508,2.093,2.093,0,0,0-1.635.714,2.71,2.71,0,0,0-.638,1.876,2.58,2.58,0,0,0,.6,1.8,2.068,2.068,0,0,0,1.609.66,2.609,2.609,0,0,0,1.6-.565ZM60.074,5.85a.66.66,0,0,1-.476-.19.643.643,0,0,1-.2-.482.667.667,0,0,1,.673-.679.672.672,0,0,1,.486.194.678.678,0,0,1,0,.962A.667.667,0,0,1,60.074,5.85ZM60.582,14H59.541V7.5h1.041Zm4.824.152a3.015,3.015,0,0,1-2.3-.911,3.374,3.374,0,0,1-.86-2.415,3.515,3.515,0,0,1,.9-2.558,3.218,3.218,0,0,1,2.418-.92,2.915,2.915,0,0,1,2.269.9,3.549,3.549,0,0,1,.816,2.482,3.492,3.492,0,0,1-.879,2.491A3.081,3.081,0,0,1,65.406,14.152Zm.076-5.929a1.98,1.98,0,0,0-1.587.682,2.8,2.8,0,0,0-.584,1.882,2.65,2.65,0,0,0,.59,1.822,2.006,2.006,0,0,0,1.581.667,1.9,1.9,0,0,0,1.552-.654,2.837,2.837,0,0,0,.543-1.86,2.886,2.886,0,0,0-.543-1.879A1.9,1.9,0,0,0,65.483,8.224Zm1.523-4.037L65.343,6.269h-.806l1.416-2.082ZM75.7,14H74.661V10.293q0-2.069-1.511-2.069a1.639,1.639,0,0,0-1.292.587,2.176,2.176,0,0,0-.511,1.482V14H70.307V7.5h1.041V8.579h.025a2.346,2.346,0,0,1,2.133-1.231,1.989,1.989,0,0,1,1.631.689,3.068,3.068,0,0,1,.565,1.99Z" transform="translate(302.333 5288.064)" fill="#12263f"/>
    <path id="Trazado_622254" data-name="Trazado 622254" d="M34.632,14h-1.27l-1.523-2.552a5.558,5.558,0,0,0-.406-.606,2.316,2.316,0,0,0-.4-.409,1.4,1.4,0,0,0-.444-.232,1.827,1.827,0,0,0-.536-.073h-.876V14H28.106V4.9h2.717a3.872,3.872,0,0,1,1.1.149A2.464,2.464,0,0,1,32.8,5.5a2.109,2.109,0,0,1,.581.759,2.515,2.515,0,0,1,.209,1.063,2.56,2.56,0,0,1-.143.873,2.279,2.279,0,0,1-.406.708,2.463,2.463,0,0,1-.635.53,3.241,3.241,0,0,1-.835.34V9.8a1.92,1.92,0,0,1,.4.232,2.183,2.183,0,0,1,.321.308,4.078,4.078,0,0,1,.3.4q.149.225.333.524ZM29.173,5.862v3.3H30.62a2.195,2.195,0,0,0,.74-.121,1.712,1.712,0,0,0,.587-.346,1.569,1.569,0,0,0,.387-.552,1.849,1.849,0,0,0,.14-.733A1.427,1.427,0,0,0,32,6.272a2.031,2.031,0,0,0-1.368-.409Zm8.906,8.29a3.015,3.015,0,0,1-2.3-.911,3.374,3.374,0,0,1-.86-2.415,3.515,3.515,0,0,1,.9-2.558,3.218,3.218,0,0,1,2.418-.92,2.915,2.915,0,0,1,2.269.9,3.549,3.549,0,0,1,.816,2.482,3.492,3.492,0,0,1-.879,2.491A3.081,3.081,0,0,1,38.079,14.152Zm.076-5.929a1.98,1.98,0,0,0-1.587.682,2.8,2.8,0,0,0-.584,1.882,2.65,2.65,0,0,0,.59,1.822,2.006,2.006,0,0,0,1.581.667,1.9,1.9,0,0,0,1.552-.654,2.837,2.837,0,0,0,.543-1.86,2.886,2.886,0,0,0-.543-1.879A1.9,1.9,0,0,0,38.155,8.224Zm7.839,5.713a2.007,2.007,0,0,1-.971.2q-1.708,0-1.708-1.9V8.389H42.2V7.5h1.117V5.913l1.041-.336V7.5h1.638v.889H44.356v3.663a1.518,1.518,0,0,0,.222.933.887.887,0,0,0,.736.279,1.094,1.094,0,0,0,.679-.216ZM52.037,14H51V12.984h-.025a2.179,2.179,0,0,1-2,1.168,2.137,2.137,0,0,1-1.52-.514,1.781,1.781,0,0,1-.549-1.365q0-1.822,2.146-2.12L51,9.88q0-1.657-1.339-1.657a3.2,3.2,0,0,0-2.12.8V7.957a4.028,4.028,0,0,1,2.209-.609q2.292,0,2.292,2.425ZM51,10.712l-1.568.216a2.546,2.546,0,0,0-1.092.359,1.034,1.034,0,0,0-.368.911.992.992,0,0,0,.34.778,1.312,1.312,0,0,0,.9.3,1.671,1.671,0,0,0,1.279-.543,1.939,1.939,0,0,0,.5-1.374Zm7.433,2.99a3.383,3.383,0,0,1-1.777.451,2.943,2.943,0,0,1-2.244-.9,3.278,3.278,0,0,1-.854-2.345,3.6,3.6,0,0,1,.92-2.58,3.22,3.22,0,0,1,2.457-.974,3.419,3.419,0,0,1,1.511.317V8.731a2.647,2.647,0,0,0-1.549-.508,2.093,2.093,0,0,0-1.635.714,2.71,2.71,0,0,0-.638,1.876,2.58,2.58,0,0,0,.6,1.8,2.068,2.068,0,0,0,1.609.66,2.609,2.609,0,0,0,1.6-.565ZM60.537,5.85a.66.66,0,0,1-.476-.19.643.643,0,0,1-.2-.482.667.667,0,0,1,.673-.679.672.672,0,0,1,.486.194.678.678,0,0,1,0,.962A.667.667,0,0,1,60.537,5.85ZM61.044,14H60V7.5h1.041Zm4.824.152a3.015,3.015,0,0,1-2.3-.911,3.374,3.374,0,0,1-.86-2.415,3.515,3.515,0,0,1,.9-2.558,3.218,3.218,0,0,1,2.418-.92,2.915,2.915,0,0,1,2.269.9,3.549,3.549,0,0,1,.816,2.482,3.492,3.492,0,0,1-.879,2.491A3.081,3.081,0,0,1,65.869,14.152Zm.076-5.929a1.98,1.98,0,0,0-1.587.682,2.8,2.8,0,0,0-.584,1.882,2.65,2.65,0,0,0,.59,1.822,2.006,2.006,0,0,0,1.581.667,1.9,1.9,0,0,0,1.552-.654,2.837,2.837,0,0,0,.543-1.86A2.886,2.886,0,0,0,67.5,8.884,1.9,1.9,0,0,0,65.945,8.224Zm1.523-4.037L65.805,6.269H65l1.416-2.082ZM76.165,14H75.124V10.293q0-2.069-1.511-2.069a1.639,1.639,0,0,0-1.292.587,2.176,2.176,0,0,0-.511,1.482V14H70.769V7.5H71.81V8.579h.025a2.346,2.346,0,0,1,2.133-1.231,1.989,1.989,0,0,1,1.631.689,3.068,3.068,0,0,1,.565,1.99Zm11.07,0H86.194V12.9h-.025a2.4,2.4,0,0,1-2.234,1.257,2.428,2.428,0,0,1-1.958-.873,3.581,3.581,0,0,1-.733-2.377,3.9,3.9,0,0,1,.813-2.583,2.68,2.68,0,0,1,2.165-.971A2.084,2.084,0,0,1,86.168,8.4h.025V4.377h1.041Zm-1.041-2.939V10.1a1.86,1.86,0,0,0-.521-1.333,1.746,1.746,0,0,0-1.32-.546,1.8,1.8,0,0,0-1.5.7,3.06,3.06,0,0,0-.546,1.93,2.752,2.752,0,0,0,.524,1.774,1.712,1.712,0,0,0,1.406.651,1.778,1.778,0,0,0,1.412-.628A2.341,2.341,0,0,0,86.194,11.061Zm8.373-.051H89.977a2.431,2.431,0,0,0,.584,1.676,2.013,2.013,0,0,0,1.536.59,3.194,3.194,0,0,0,2.019-.724v.978a3.773,3.773,0,0,1-2.266.622,2.747,2.747,0,0,1-2.165-.885,3.624,3.624,0,0,1-.787-2.491,3.554,3.554,0,0,1,.86-2.472,2.758,2.758,0,0,1,2.136-.955,2.444,2.444,0,0,1,1.974.825,3.441,3.441,0,0,1,.7,2.292ZM93.5,10.128a2.118,2.118,0,0,0-.435-1.4,1.481,1.481,0,0,0-1.19-.5,1.682,1.682,0,0,0-1.25.527,2.391,2.391,0,0,0-.635,1.377ZM29.236,31.937a2.007,2.007,0,0,1-.971.2q-1.708,0-1.708-1.9V26.389H25.44V25.5h1.117V23.913l1.041-.336V25.5h1.638v.889H27.6v3.663a1.518,1.518,0,0,0,.222.933.887.887,0,0,0,.736.279,1.094,1.094,0,0,0,.679-.216Zm4.78-5.383a1.273,1.273,0,0,0-.787-.209,1.328,1.328,0,0,0-1.114.628,2.905,2.905,0,0,0-.448,1.714V32H30.626V25.5h1.041v1.339h.025a2.27,2.27,0,0,1,.679-1.07,1.549,1.549,0,0,1,1.022-.384,1.7,1.7,0,0,1,.622.089ZM39.8,32H38.758V30.984h-.025a2.179,2.179,0,0,1-2,1.168,2.137,2.137,0,0,1-1.52-.514,1.781,1.781,0,0,1-.549-1.365q0-1.822,2.146-2.12l1.949-.273q0-1.657-1.339-1.657a3.2,3.2,0,0,0-2.12.8V25.957a4.028,4.028,0,0,1,2.209-.609q2.292,0,2.292,2.425Zm-1.041-3.288-1.568.216a2.546,2.546,0,0,0-1.092.359,1.034,1.034,0,0,0-.368.911.992.992,0,0,0,.34.778,1.312,1.312,0,0,0,.9.3,1.671,1.671,0,0,0,1.279-.543,1.939,1.939,0,0,0,.5-1.374Zm4.069,2.349H42.8V32H41.76V22.377H42.8v4.266h.025a2.462,2.462,0,0,1,2.247-1.295,2.382,2.382,0,0,1,1.958.873,3.6,3.6,0,0,1,.708,2.339,4.029,4.029,0,0,1-.793,2.612,2.642,2.642,0,0,1-2.171.981A2.138,2.138,0,0,1,42.827,31.061ZM42.8,28.439v.908a1.933,1.933,0,0,0,.524,1.368,1.868,1.868,0,0,0,2.812-.162,3.32,3.32,0,0,0,.536-2.012,2.621,2.621,0,0,0-.5-1.7,1.66,1.66,0,0,0-1.358-.616,1.844,1.844,0,0,0-1.46.632A2.319,2.319,0,0,0,42.8,28.439ZM54.056,32H53.015V30.984h-.025a2.179,2.179,0,0,1-2,1.168,2.137,2.137,0,0,1-1.52-.514,1.781,1.781,0,0,1-.549-1.365q0-1.822,2.146-2.12l1.949-.273q0-1.657-1.339-1.657a3.2,3.2,0,0,0-2.12.8V25.957a4.028,4.028,0,0,1,2.209-.609q2.292,0,2.292,2.425Zm-1.041-3.288-1.568.216a2.546,2.546,0,0,0-1.092.359,1.034,1.034,0,0,0-.368.911.992.992,0,0,0,.34.778,1.312,1.312,0,0,0,.9.3,1.671,1.671,0,0,0,1.279-.543,1.939,1.939,0,0,0,.5-1.374Zm4.043,3.015a4.074,4.074,0,0,1-.644,2.466,2.16,2.16,0,0,1-1.844.866,1.957,1.957,0,0,1-.863-.2v-.971a1.723,1.723,0,0,0,.889.286q1.422,0,1.422-2.272V25.5h1.041ZM56.55,23.85a.66.66,0,0,1-.476-.19.643.643,0,0,1-.2-.482.667.667,0,0,1,.673-.679.672.672,0,0,1,.486.194.678.678,0,0,1,0,.962A.667.667,0,0,1,56.55,23.85ZM63.818,32H62.777V30.984h-.025a2.179,2.179,0,0,1-2,1.168,2.137,2.137,0,0,1-1.52-.514,1.781,1.781,0,0,1-.549-1.365q0-1.822,2.146-2.12l1.949-.273q0-1.657-1.339-1.657a3.2,3.2,0,0,0-2.12.8V25.957a4.028,4.028,0,0,1,2.209-.609q2.292,0,2.292,2.425Zm-1.041-3.288-1.568.216a2.546,2.546,0,0,0-1.092.359,1.034,1.034,0,0,0-.368.911.992.992,0,0,0,.34.778,1.312,1.312,0,0,0,.9.3,1.671,1.671,0,0,0,1.279-.543,1.939,1.939,0,0,0,.5-1.374ZM71.328,32H70.287V30.9h-.025a2.4,2.4,0,0,1-2.234,1.257,2.428,2.428,0,0,1-1.958-.873,3.581,3.581,0,0,1-.733-2.377,3.9,3.9,0,0,1,.813-2.583,2.68,2.68,0,0,1,2.165-.971A2.084,2.084,0,0,1,70.261,26.4h.025V22.377h1.041Zm-1.041-2.939V28.1a1.86,1.86,0,0,0-.521-1.333,1.746,1.746,0,0,0-1.32-.546,1.8,1.8,0,0,0-1.5.7,3.06,3.06,0,0,0-.546,1.93,2.752,2.752,0,0,0,.524,1.774,1.712,1.712,0,0,0,1.406.651,1.778,1.778,0,0,0,1.412-.628A2.341,2.341,0,0,0,70.287,29.061Zm5.865,3.091a3.015,3.015,0,0,1-2.3-.911,3.374,3.374,0,0,1-.86-2.415,3.515,3.515,0,0,1,.9-2.558,3.218,3.218,0,0,1,2.418-.92,2.915,2.915,0,0,1,2.269.9,3.549,3.549,0,0,1,.816,2.482,3.492,3.492,0,0,1-.879,2.491A3.081,3.081,0,0,1,76.152,32.152Zm.076-5.929a1.98,1.98,0,0,0-1.587.682,2.8,2.8,0,0,0-.584,1.882,2.65,2.65,0,0,0,.59,1.822,2.006,2.006,0,0,0,1.581.667,1.9,1.9,0,0,0,1.552-.654,2.837,2.837,0,0,0,.543-1.86,2.886,2.886,0,0,0-.543-1.879A1.9,1.9,0,0,0,76.228,26.224Zm8.214.33a1.273,1.273,0,0,0-.787-.209,1.328,1.328,0,0,0-1.114.628,2.905,2.905,0,0,0-.448,1.714V32H81.052V25.5h1.041v1.339h.025a2.27,2.27,0,0,1,.679-1.07,1.549,1.549,0,0,1,1.022-.384,1.7,1.7,0,0,1,.622.089ZM90.8,29.01H86.207a2.431,2.431,0,0,0,.584,1.676,2.013,2.013,0,0,0,1.536.59,3.194,3.194,0,0,0,2.019-.724v.978a3.773,3.773,0,0,1-2.266.622,2.747,2.747,0,0,1-2.165-.885,3.624,3.624,0,0,1-.787-2.491,3.554,3.554,0,0,1,.86-2.472,2.758,2.758,0,0,1,2.136-.955,2.444,2.444,0,0,1,1.974.825,3.441,3.441,0,0,1,.7,2.292Zm-1.066-.882a2.118,2.118,0,0,0-.435-1.4,1.481,1.481,0,0,0-1.19-.5,1.682,1.682,0,0,0-1.25.527,2.391,2.391,0,0,0-.635,1.377Zm2.247,3.637V30.648a3.081,3.081,0,0,0,1.873.628q1.371,0,1.371-.914a.793.793,0,0,0-.117-.441,1.17,1.17,0,0,0-.317-.321,2.443,2.443,0,0,0-.47-.251q-.27-.111-.581-.232a7.481,7.481,0,0,1-.759-.346,2.292,2.292,0,0,1-.546-.394,1.464,1.464,0,0,1-.33-.5,1.763,1.763,0,0,1-.111-.654,1.553,1.553,0,0,1,.209-.809,1.857,1.857,0,0,1,.559-.59,2.6,2.6,0,0,1,.8-.359,3.534,3.534,0,0,1,.924-.121,3.729,3.729,0,0,1,1.511.292v1.054a2.944,2.944,0,0,0-1.65-.47,1.929,1.929,0,0,0-.527.067,1.29,1.29,0,0,0-.4.187.865.865,0,0,0-.26.289.761.761,0,0,0-.092.371.891.891,0,0,0,.092.425.936.936,0,0,0,.27.3,2.062,2.062,0,0,0,.432.241q.254.108.578.235a8.04,8.04,0,0,1,.774.34,2.656,2.656,0,0,1,.584.394,1.538,1.538,0,0,1,.371.5,1.628,1.628,0,0,1,.13.679,1.6,1.6,0,0,1-.213.838,1.822,1.822,0,0,1-.568.59,2.6,2.6,0,0,1-.819.349,4.043,4.043,0,0,1-.971.114A3.688,3.688,0,0,1,91.977,31.765Z" transform="translate(290.333 5338.064)" fill="#12263f"/>
    <path id="Trazado_622252" data-name="Trazado 622252" d="M19.535,14h-1.06V7.894q0-.724.089-1.771h-.025A5.662,5.662,0,0,1,18.266,7l-3.11,7h-.521l-3.1-6.944a5.441,5.441,0,0,1-.273-.933h-.025q.051.546.051,1.784V14H10.255V4.9h1.409l2.793,6.348a8.128,8.128,0,0,1,.419,1.092h.038q.273-.749.438-1.117L18.2,4.9h1.333Zm6.906,0H25.4V12.984h-.025a2.179,2.179,0,0,1-2,1.168,2.137,2.137,0,0,1-1.52-.514,1.781,1.781,0,0,1-.549-1.365q0-1.822,2.146-2.12L25.4,9.88q0-1.657-1.339-1.657a3.2,3.2,0,0,0-2.12.8V7.957a4.028,4.028,0,0,1,2.209-.609q2.292,0,2.292,2.425ZM25.4,10.712l-1.568.216a2.546,2.546,0,0,0-1.092.359,1.034,1.034,0,0,0-.368.911.992.992,0,0,0,.34.778,1.312,1.312,0,0,0,.9.3,1.671,1.671,0,0,0,1.279-.543,1.939,1.939,0,0,0,.5-1.374ZM33.8,14H32.757V10.293q0-2.069-1.511-2.069a1.639,1.639,0,0,0-1.292.587,2.176,2.176,0,0,0-.511,1.482V14H28.4V7.5h1.041V8.579h.025A2.346,2.346,0,0,1,31.6,7.348a1.989,1.989,0,0,1,1.631.689,3.068,3.068,0,0,1,.565,1.99Zm4.977-.063a2.007,2.007,0,0,1-.971.2q-1.708,0-1.708-1.9V8.389H34.979V7.5H36.1V5.913l1.041-.336V7.5h1.638v.889H37.137v3.663a1.518,1.518,0,0,0,.222.933.887.887,0,0,0,.736.279,1.094,1.094,0,0,0,.679-.216Zm6.614-2.926H40.8a2.431,2.431,0,0,0,.584,1.676,2.013,2.013,0,0,0,1.536.59,3.194,3.194,0,0,0,2.019-.724v.978a3.773,3.773,0,0,1-2.266.622,2.747,2.747,0,0,1-2.165-.885,3.624,3.624,0,0,1-.787-2.491,3.554,3.554,0,0,1,.86-2.472,2.758,2.758,0,0,1,2.136-.955,2.444,2.444,0,0,1,1.974.825,3.44,3.44,0,0,1,.7,2.292Zm-1.066-.882a2.118,2.118,0,0,0-.435-1.4,1.481,1.481,0,0,0-1.19-.5,1.682,1.682,0,0,0-1.25.527,2.391,2.391,0,0,0-.635,1.377ZM52.359,14H51.318V10.293q0-2.069-1.511-2.069a1.639,1.639,0,0,0-1.292.587A2.176,2.176,0,0,0,48,10.293V14H46.963V7.5H48V8.579h.025a2.346,2.346,0,0,1,2.133-1.231,1.989,1.989,0,0,1,1.631.689,3.068,3.068,0,0,1,.565,1.99Zm2.495-8.15a.66.66,0,0,1-.476-.19.643.643,0,0,1-.2-.482.667.667,0,0,1,.673-.679.672.672,0,0,1,.486.194.678.678,0,0,1,0,.962A.667.667,0,0,1,54.854,5.85ZM55.361,14H54.32V7.5h1.041ZM66.7,14H65.657V10.268a2.816,2.816,0,0,0-.333-1.562,1.264,1.264,0,0,0-1.12-.482,1.387,1.387,0,0,0-1.133.609,2.331,2.331,0,0,0-.467,1.46V14H61.563V10.141q0-1.917-1.479-1.917a1.37,1.37,0,0,0-1.13.574,2.375,2.375,0,0,0-.444,1.495V14H57.469V7.5H58.51V8.528h.025a2.208,2.208,0,0,1,2.019-1.181,1.877,1.877,0,0,1,1.841,1.346,2.32,2.32,0,0,1,2.158-1.346q2.146,0,2.146,2.647Zm2.5-8.15a.66.66,0,0,1-.476-.19.643.643,0,0,1-.2-.482A.667.667,0,0,1,69.2,4.5a.672.672,0,0,1,.486.194.678.678,0,0,1,0,.962A.667.667,0,0,1,69.2,5.85ZM69.707,14H68.666V7.5h1.041Zm7.332-2.99H72.449a2.431,2.431,0,0,0,.584,1.676,2.013,2.013,0,0,0,1.536.59,3.194,3.194,0,0,0,2.019-.724v.978a3.773,3.773,0,0,1-2.266.622,2.747,2.747,0,0,1-2.165-.885,3.624,3.624,0,0,1-.787-2.491A3.554,3.554,0,0,1,72.23,8.3a2.758,2.758,0,0,1,2.136-.955,2.444,2.444,0,0,1,1.974.825,3.441,3.441,0,0,1,.7,2.292Zm-1.066-.882a2.118,2.118,0,0,0-.435-1.4,1.481,1.481,0,0,0-1.19-.5,1.682,1.682,0,0,0-1.25.527,2.391,2.391,0,0,0-.635,1.377ZM84.008,14H82.967V10.293q0-2.069-1.511-2.069a1.639,1.639,0,0,0-1.292.587,2.176,2.176,0,0,0-.511,1.482V14H78.613V7.5h1.041V8.579h.025a2.346,2.346,0,0,1,2.133-1.231,1.989,1.989,0,0,1,1.631.689,3.068,3.068,0,0,1,.565,1.99Zm4.977-.063a2.007,2.007,0,0,1-.971.2q-1.708,0-1.708-1.9V8.389H85.189V7.5h1.117V5.913l1.041-.336V7.5h1.638v.889H87.347v3.663a1.518,1.518,0,0,0,.222.933.887.887,0,0,0,.736.279,1.094,1.094,0,0,0,.679-.216Zm4.107.216a3.015,3.015,0,0,1-2.3-.911,3.374,3.374,0,0,1-.86-2.415,3.515,3.515,0,0,1,.9-2.558,3.218,3.218,0,0,1,2.418-.92,2.915,2.915,0,0,1,2.269.9,3.549,3.549,0,0,1,.816,2.482,3.492,3.492,0,0,1-.879,2.491A3.081,3.081,0,0,1,93.092,14.152Zm.076-5.929a1.98,1.98,0,0,0-1.587.682A2.8,2.8,0,0,0,91,10.788a2.65,2.65,0,0,0,.59,1.822,2.006,2.006,0,0,0,1.581.667,1.9,1.9,0,0,0,1.552-.654,2.837,2.837,0,0,0,.543-1.86,2.886,2.886,0,0,0-.543-1.879A1.9,1.9,0,0,0,93.168,8.224Z" transform="translate(535.333 5324.064)" fill="#12263f"/>
    <path id="Trazado_622251" data-name="Trazado 622251" d="M30.211,5.862H27.583V14H26.517V5.862H23.9V4.9h6.316ZM34.692,14H33.651V12.984h-.025a2.179,2.179,0,0,1-2,1.168,2.137,2.137,0,0,1-1.52-.514,1.781,1.781,0,0,1-.549-1.365q0-1.822,2.146-2.12l1.949-.273q0-1.657-1.339-1.657a3.2,3.2,0,0,0-2.12.8V7.957A4.028,4.028,0,0,1,32.4,7.348q2.292,0,2.292,2.425Zm-1.041-3.288-1.568.216a2.546,2.546,0,0,0-1.092.359,1.034,1.034,0,0,0-.368.911.992.992,0,0,0,.34.778,1.312,1.312,0,0,0,.9.3,1.671,1.671,0,0,0,1.279-.543,1.939,1.939,0,0,0,.5-1.374Zm2.609,3.053V12.648a3.081,3.081,0,0,0,1.873.628q1.371,0,1.371-.914a.793.793,0,0,0-.117-.441,1.17,1.17,0,0,0-.317-.321,2.443,2.443,0,0,0-.47-.251q-.27-.111-.581-.232a7.48,7.48,0,0,1-.759-.346,2.292,2.292,0,0,1-.546-.394,1.464,1.464,0,0,1-.33-.5,1.763,1.763,0,0,1-.111-.654,1.553,1.553,0,0,1,.209-.809,1.858,1.858,0,0,1,.559-.59,2.6,2.6,0,0,1,.8-.359,3.534,3.534,0,0,1,.924-.121,3.729,3.729,0,0,1,1.511.292V8.693a2.944,2.944,0,0,0-1.65-.47,1.929,1.929,0,0,0-.527.067,1.29,1.29,0,0,0-.4.187.865.865,0,0,0-.26.289.761.761,0,0,0-.092.371.891.891,0,0,0,.092.425.936.936,0,0,0,.27.3,2.062,2.062,0,0,0,.432.241q.254.108.578.235a8.039,8.039,0,0,1,.774.34,2.656,2.656,0,0,1,.584.394,1.538,1.538,0,0,1,.371.5,1.628,1.628,0,0,1,.13.679,1.6,1.6,0,0,1-.213.838,1.822,1.822,0,0,1-.568.59,2.6,2.6,0,0,1-.819.349,4.043,4.043,0,0,1-.971.114A3.688,3.688,0,0,1,36.26,13.765ZM46.823,14H45.782V12.984h-.025a2.179,2.179,0,0,1-2,1.168,2.137,2.137,0,0,1-1.52-.514,1.781,1.781,0,0,1-.549-1.365q0-1.822,2.146-2.12l1.949-.273q0-1.657-1.339-1.657a3.2,3.2,0,0,0-2.12.8V7.957a4.028,4.028,0,0,1,2.209-.609q2.292,0,2.292,2.425Zm-1.041-3.288-1.568.216a2.546,2.546,0,0,0-1.092.359,1.034,1.034,0,0,0-.368.911.992.992,0,0,0,.34.778,1.312,1.312,0,0,0,.9.3,1.671,1.671,0,0,0,1.279-.543,1.939,1.939,0,0,0,.5-1.374Zm2.609,3.053V12.648a3.081,3.081,0,0,0,1.873.628q1.371,0,1.371-.914a.793.793,0,0,0-.117-.441A1.17,1.17,0,0,0,51.2,11.6a2.443,2.443,0,0,0-.47-.251q-.27-.111-.581-.232a7.48,7.48,0,0,1-.759-.346,2.292,2.292,0,0,1-.546-.394,1.464,1.464,0,0,1-.33-.5,1.763,1.763,0,0,1-.111-.654,1.553,1.553,0,0,1,.209-.809,1.858,1.858,0,0,1,.559-.59,2.6,2.6,0,0,1,.8-.359,3.534,3.534,0,0,1,.924-.121A3.729,3.729,0,0,1,52.4,7.64V8.693a2.944,2.944,0,0,0-1.65-.47,1.929,1.929,0,0,0-.527.067,1.29,1.29,0,0,0-.4.187.865.865,0,0,0-.26.289.761.761,0,0,0-.092.371.891.891,0,0,0,.092.425.936.936,0,0,0,.27.3,2.062,2.062,0,0,0,.432.241q.254.108.578.235a8.039,8.039,0,0,1,.774.34,2.656,2.656,0,0,1,.584.394,1.538,1.538,0,0,1,.371.5,1.628,1.628,0,0,1,.13.679,1.6,1.6,0,0,1-.213.838,1.822,1.822,0,0,1-.568.59,2.6,2.6,0,0,1-.819.349,4.043,4.043,0,0,1-.971.114A3.688,3.688,0,0,1,48.391,13.765ZM63.409,14H62.368V12.9h-.025a2.4,2.4,0,0,1-2.234,1.257,2.428,2.428,0,0,1-1.958-.873,3.581,3.581,0,0,1-.733-2.377,3.9,3.9,0,0,1,.813-2.583,2.68,2.68,0,0,1,2.165-.971A2.084,2.084,0,0,1,62.343,8.4h.025V4.377h1.041Zm-1.041-2.939V10.1a1.86,1.86,0,0,0-.521-1.333,1.746,1.746,0,0,0-1.32-.546,1.8,1.8,0,0,0-1.5.7,3.06,3.06,0,0,0-.546,1.93,2.752,2.752,0,0,0,.524,1.774,1.712,1.712,0,0,0,1.406.651,1.778,1.778,0,0,0,1.412-.628A2.341,2.341,0,0,0,62.368,11.061Zm8.373-.051H66.151a2.431,2.431,0,0,0,.584,1.676,2.013,2.013,0,0,0,1.536.59,3.194,3.194,0,0,0,2.019-.724v.978a3.773,3.773,0,0,1-2.266.622,2.747,2.747,0,0,1-2.165-.885,3.624,3.624,0,0,1-.787-2.491,3.554,3.554,0,0,1,.86-2.472,2.758,2.758,0,0,1,2.136-.955,2.444,2.444,0,0,1,1.974.825,3.441,3.441,0,0,1,.7,2.292Zm-1.066-.882a2.118,2.118,0,0,0-.435-1.4,1.481,1.481,0,0,0-1.19-.5,1.682,1.682,0,0,0-1.25.527,2.391,2.391,0,0,0-.635,1.377ZM76.409,5.85a.66.66,0,0,1-.476-.19.643.643,0,0,1-.2-.482.667.667,0,0,1,.673-.679.672.672,0,0,1,.486.194.678.678,0,0,1,0,.962A.667.667,0,0,1,76.409,5.85ZM76.917,14H75.876V7.5h1.041Zm7.5,0H83.379V10.293q0-2.069-1.511-2.069a1.639,1.639,0,0,0-1.292.587,2.176,2.176,0,0,0-.511,1.482V14H79.024V7.5h1.041V8.579h.025a2.346,2.346,0,0,1,2.133-1.231,1.989,1.989,0,0,1,1.631.689,3.068,3.068,0,0,1,.565,1.99Zm4.977-.063a2.007,2.007,0,0,1-.971.2q-1.708,0-1.708-1.9V8.389H85.6V7.5h1.117V5.913l1.041-.336V7.5H89.4v.889H87.759v3.663a1.518,1.518,0,0,0,.222.933.887.887,0,0,0,.736.279,1.094,1.094,0,0,0,.679-.216Zm6.614-2.926H91.421a2.431,2.431,0,0,0,.584,1.676,2.013,2.013,0,0,0,1.536.59,3.194,3.194,0,0,0,2.019-.724v.978a3.773,3.773,0,0,1-2.266.622,2.747,2.747,0,0,1-2.165-.885,3.624,3.624,0,0,1-.787-2.491A3.554,3.554,0,0,1,91.2,8.3a2.758,2.758,0,0,1,2.136-.955,2.444,2.444,0,0,1,1.974.825,3.441,3.441,0,0,1,.7,2.292Zm-1.066-.882a2.118,2.118,0,0,0-.435-1.4,1.481,1.481,0,0,0-1.19-.5,1.682,1.682,0,0,0-1.25.527,2.391,2.391,0,0,0-.635,1.377Zm6.03-1.574a1.273,1.273,0,0,0-.787-.209,1.328,1.328,0,0,0-1.114.628,2.905,2.905,0,0,0-.448,1.714V14H97.585V7.5h1.041V8.839h.025a2.27,2.27,0,0,1,.679-1.07,1.549,1.549,0,0,1,1.022-.384,1.7,1.7,0,0,1,.622.089Zm6.354,2.457h-4.589a2.431,2.431,0,0,0,.584,1.676,2.013,2.013,0,0,0,1.536.59,3.194,3.194,0,0,0,2.019-.724v.978a3.773,3.773,0,0,1-2.266.622,2.747,2.747,0,0,1-2.165-.885,3.624,3.624,0,0,1-.787-2.491,3.554,3.554,0,0,1,.86-2.472,2.758,2.758,0,0,1,2.136-.955,2.444,2.444,0,0,1,1.974.825,3.441,3.441,0,0,1,.7,2.292Zm-1.066-.882a2.118,2.118,0,0,0-.435-1.4,1.481,1.481,0,0,0-1.19-.5,1.682,1.682,0,0,0-1.25.527,2.391,2.391,0,0,0-.635,1.377ZM106.1,4.187l-1.663,2.082h-.806l1.416-2.082Zm2.412,9.579V12.648a3.081,3.081,0,0,0,1.873.628q1.371,0,1.371-.914a.793.793,0,0,0-.117-.441,1.17,1.17,0,0,0-.317-.321,2.443,2.443,0,0,0-.47-.251q-.27-.111-.581-.232a7.48,7.48,0,0,1-.759-.346,2.292,2.292,0,0,1-.546-.394,1.464,1.464,0,0,1-.33-.5,1.763,1.763,0,0,1-.111-.654,1.553,1.553,0,0,1,.209-.809,1.857,1.857,0,0,1,.559-.59,2.6,2.6,0,0,1,.8-.359,3.534,3.534,0,0,1,.924-.121,3.729,3.729,0,0,1,1.511.292V8.693a2.944,2.944,0,0,0-1.65-.47,1.929,1.929,0,0,0-.527.067,1.29,1.29,0,0,0-.4.187.865.865,0,0,0-.26.289.761.761,0,0,0-.092.371.891.891,0,0,0,.092.425.936.936,0,0,0,.27.3,2.062,2.062,0,0,0,.432.241q.254.108.578.235a8.04,8.04,0,0,1,.774.34,2.656,2.656,0,0,1,.584.394,1.538,1.538,0,0,1,.371.5,1.628,1.628,0,0,1,.13.679,1.6,1.6,0,0,1-.213.838,1.822,1.822,0,0,1-.568.59,2.6,2.6,0,0,1-.819.349,4.043,4.043,0,0,1-.971.114A3.688,3.688,0,0,1,108.509,13.765Z" transform="translate(707.333 5290.064)" fill="#12263f"/>
    <path id="Trazado_622255" data-name="Trazado 622255" d="M27.352,14H22.63V4.9H23.7v8.138h3.656Zm6.481-2.99H29.244a2.431,2.431,0,0,0,.584,1.676,2.013,2.013,0,0,0,1.536.59,3.194,3.194,0,0,0,2.019-.724v.978a3.773,3.773,0,0,1-2.266.622,2.747,2.747,0,0,1-2.165-.885,3.624,3.624,0,0,1-.787-2.491,3.554,3.554,0,0,1,.86-2.472,2.758,2.758,0,0,1,2.136-.955,2.444,2.444,0,0,1,1.974.825,3.44,3.44,0,0,1,.7,2.292Zm-1.066-.882a2.118,2.118,0,0,0-.435-1.4,1.481,1.481,0,0,0-1.19-.5,1.682,1.682,0,0,0-1.25.527,2.391,2.391,0,0,0-.635,1.377Zm8.188,3.352q0,3.58-3.428,3.58A4.6,4.6,0,0,1,35.42,16.6V15.562a4.328,4.328,0,0,0,2.095.609q2.4,0,2.4-2.552v-.711h-.025a2.63,2.63,0,0,1-4.186.378,3.464,3.464,0,0,1-.74-2.326,4.047,4.047,0,0,1,.8-2.634,2.661,2.661,0,0,1,2.18-.978A2.119,2.119,0,0,1,39.889,8.4h.025V7.5h1.041Zm-1.041-2.418V10.1a1.86,1.86,0,0,0-.524-1.327,1.724,1.724,0,0,0-1.3-.552,1.808,1.808,0,0,0-1.511.7,3.131,3.131,0,0,0-.546,1.965,2.688,2.688,0,0,0,.524,1.736,1.692,1.692,0,0,0,1.387.651,1.812,1.812,0,0,0,1.425-.622A2.319,2.319,0,0,0,39.914,11.061ZM43.6,5.85a.66.66,0,0,1-.476-.19.643.643,0,0,1-.2-.482A.667.667,0,0,1,43.6,4.5a.672.672,0,0,1,.486.194.678.678,0,0,1,0,.962A.667.667,0,0,1,43.6,5.85ZM44.1,14H43.063V7.5H44.1Zm1.714-.235V12.648a3.081,3.081,0,0,0,1.873.628q1.371,0,1.371-.914a.793.793,0,0,0-.117-.441,1.17,1.17,0,0,0-.317-.321,2.443,2.443,0,0,0-.47-.251q-.27-.111-.581-.232a7.48,7.48,0,0,1-.759-.346,2.292,2.292,0,0,1-.546-.394,1.464,1.464,0,0,1-.33-.5,1.763,1.763,0,0,1-.111-.654,1.553,1.553,0,0,1,.209-.809,1.858,1.858,0,0,1,.559-.59,2.6,2.6,0,0,1,.8-.359,3.534,3.534,0,0,1,.924-.121,3.729,3.729,0,0,1,1.511.292V8.693a2.944,2.944,0,0,0-1.65-.47,1.929,1.929,0,0,0-.527.067,1.29,1.29,0,0,0-.4.187.865.865,0,0,0-.26.289.761.761,0,0,0-.092.371.891.891,0,0,0,.092.425.936.936,0,0,0,.27.3,2.062,2.062,0,0,0,.432.241q.254.108.578.235a8.039,8.039,0,0,1,.774.34,2.656,2.656,0,0,1,.584.394,1.538,1.538,0,0,1,.371.5,1.628,1.628,0,0,1,.13.679,1.6,1.6,0,0,1-.213.838,1.822,1.822,0,0,1-.568.59,2.6,2.6,0,0,1-.819.349,4.043,4.043,0,0,1-.971.114A3.688,3.688,0,0,1,45.818,13.765ZM52.768,14H51.727V4.377h1.041Zm6.76,0H58.488V12.984h-.025a2.179,2.179,0,0,1-2,1.168,2.137,2.137,0,0,1-1.52-.514,1.781,1.781,0,0,1-.549-1.365q0-1.822,2.146-2.12l1.949-.273q0-1.657-1.339-1.657a3.2,3.2,0,0,0-2.12.8V7.957a4.028,4.028,0,0,1,2.209-.609q2.292,0,2.292,2.425Zm-1.041-3.288-1.568.216a2.546,2.546,0,0,0-1.092.359,1.034,1.034,0,0,0-.368.911.992.992,0,0,0,.34.778,1.312,1.312,0,0,0,.9.3,1.671,1.671,0,0,0,1.279-.543,1.939,1.939,0,0,0,.5-1.374Zm7.433,2.99a3.383,3.383,0,0,1-1.777.451,2.943,2.943,0,0,1-2.244-.9,3.278,3.278,0,0,1-.854-2.345,3.6,3.6,0,0,1,.92-2.58,3.22,3.22,0,0,1,2.457-.974,3.419,3.419,0,0,1,1.511.317V8.731a2.647,2.647,0,0,0-1.549-.508,2.093,2.093,0,0,0-1.635.714,2.71,2.71,0,0,0-.638,1.876,2.58,2.58,0,0,0,.6,1.8,2.068,2.068,0,0,0,1.609.66,2.609,2.609,0,0,0,1.6-.565ZM68.028,5.85a.66.66,0,0,1-.476-.19.643.643,0,0,1-.2-.482.667.667,0,0,1,.673-.679.672.672,0,0,1,.486.194.678.678,0,0,1,0,.962A.667.667,0,0,1,68.028,5.85ZM68.536,14H67.495V7.5h1.041Zm4.824.152a3.015,3.015,0,0,1-2.3-.911,3.374,3.374,0,0,1-.86-2.415,3.515,3.515,0,0,1,.9-2.558,3.218,3.218,0,0,1,2.418-.92,2.915,2.915,0,0,1,2.269.9,3.549,3.549,0,0,1,.816,2.482,3.492,3.492,0,0,1-.879,2.491A3.081,3.081,0,0,1,73.36,14.152Zm.076-5.929a1.98,1.98,0,0,0-1.587.682,2.8,2.8,0,0,0-.584,1.882,2.65,2.65,0,0,0,.59,1.822,2.006,2.006,0,0,0,1.581.667,1.9,1.9,0,0,0,1.552-.654,2.837,2.837,0,0,0,.543-1.86,2.886,2.886,0,0,0-.543-1.879A1.9,1.9,0,0,0,73.436,8.224ZM74.96,4.187,73.3,6.269H72.49l1.416-2.082ZM83.656,14H82.615V10.293q0-2.069-1.511-2.069a1.639,1.639,0,0,0-1.292.587,2.176,2.176,0,0,0-.511,1.482V14H78.26V7.5H79.3V8.579h.025A2.346,2.346,0,0,1,81.46,7.348a1.989,1.989,0,0,1,1.631.689,3.068,3.068,0,0,1,.565,1.99Z" transform="translate(789.333 5338.064)" fill="#12263f"/>
    <path id="Trazado_622257" data-name="Trazado 622257" d="M23.026,14h-1.06V7.894q0-.724.089-1.771H22.03A5.662,5.662,0,0,1,21.757,7l-3.11,7h-.521l-3.1-6.944a5.441,5.441,0,0,1-.273-.933h-.025q.051.546.051,1.784V14H13.746V4.9h1.409l2.793,6.348a8.128,8.128,0,0,1,.419,1.092h.038q.273-.749.438-1.117L21.693,4.9h1.333ZM30.5,11.01H25.915a2.431,2.431,0,0,0,.584,1.676,2.013,2.013,0,0,0,1.536.59,3.194,3.194,0,0,0,2.019-.724v.978a3.773,3.773,0,0,1-2.266.622,2.747,2.747,0,0,1-2.165-.885,3.624,3.624,0,0,1-.787-2.491A3.554,3.554,0,0,1,25.7,8.3a2.758,2.758,0,0,1,2.136-.955,2.444,2.444,0,0,1,1.974.825,3.441,3.441,0,0,1,.7,2.292Zm-1.066-.882A2.118,2.118,0,0,0,29,8.725a1.481,1.481,0,0,0-1.19-.5,1.682,1.682,0,0,0-1.25.527,2.391,2.391,0,0,0-.635,1.377Zm3.682,3.6a4.074,4.074,0,0,1-.644,2.466,2.16,2.16,0,0,1-1.844.866,1.957,1.957,0,0,1-.863-.2v-.971a1.723,1.723,0,0,0,.889.286q1.422,0,1.422-2.272V7.5h1.041ZM32.611,5.85a.66.66,0,0,1-.476-.19.643.643,0,0,1-.2-.482.667.667,0,0,1,.673-.679.672.672,0,0,1,.486.194.678.678,0,0,1,0,.962A.667.667,0,0,1,32.611,5.85Zm5.332,8.3a3.015,3.015,0,0,1-2.3-.911,3.374,3.374,0,0,1-.86-2.415,3.515,3.515,0,0,1,.9-2.558,3.218,3.218,0,0,1,2.418-.92,2.915,2.915,0,0,1,2.269.9,3.549,3.549,0,0,1,.816,2.482,3.492,3.492,0,0,1-.879,2.491A3.081,3.081,0,0,1,37.943,14.152Zm.076-5.929a1.98,1.98,0,0,0-1.587.682,2.8,2.8,0,0,0-.584,1.882,2.65,2.65,0,0,0,.59,1.822,2.006,2.006,0,0,0,1.581.667,1.9,1.9,0,0,0,1.552-.654,2.837,2.837,0,0,0,.543-1.86,2.886,2.886,0,0,0-.543-1.879A1.9,1.9,0,0,0,38.02,8.224Zm8.214.33a1.273,1.273,0,0,0-.787-.209,1.328,1.328,0,0,0-1.114.628,2.905,2.905,0,0,0-.448,1.714V14H42.844V7.5h1.041V8.839h.025a2.27,2.27,0,0,1,.679-1.07,1.549,1.549,0,0,1,1.022-.384,1.7,1.7,0,0,1,.622.089ZM52.016,14H50.975V12.984H50.95a2.179,2.179,0,0,1-2,1.168,2.137,2.137,0,0,1-1.52-.514,1.781,1.781,0,0,1-.549-1.365q0-1.822,2.146-2.12l1.949-.273q0-1.657-1.339-1.657a3.2,3.2,0,0,0-2.12.8V7.957a4.028,4.028,0,0,1,2.209-.609q2.292,0,2.292,2.425Zm-1.041-3.288-1.568.216a2.546,2.546,0,0,0-1.092.359,1.034,1.034,0,0,0-.368.911.992.992,0,0,0,.34.778,1.312,1.312,0,0,0,.9.3,1.671,1.671,0,0,0,1.279-.543,1.939,1.939,0,0,0,.5-1.374ZM63.207,14H62.166V10.268a2.816,2.816,0,0,0-.333-1.562,1.264,1.264,0,0,0-1.12-.482,1.387,1.387,0,0,0-1.133.609,2.331,2.331,0,0,0-.467,1.46V14H58.072V10.141q0-1.917-1.479-1.917a1.37,1.37,0,0,0-1.13.574,2.375,2.375,0,0,0-.444,1.495V14H53.978V7.5h1.041V8.528h.025a2.208,2.208,0,0,1,2.019-1.181A1.877,1.877,0,0,1,58.9,8.693a2.32,2.32,0,0,1,2.158-1.346q2.146,0,2.146,2.647Zm2.5-8.15a.66.66,0,0,1-.476-.19.643.643,0,0,1-.2-.482.667.667,0,0,1,.673-.679.672.672,0,0,1,.486.194.678.678,0,0,1,0,.962A.667.667,0,0,1,65.708,5.85ZM66.216,14H65.175V7.5h1.041Zm7.332-2.99H68.958a2.431,2.431,0,0,0,.584,1.676,2.013,2.013,0,0,0,1.536.59,3.194,3.194,0,0,0,2.019-.724v.978a3.773,3.773,0,0,1-2.266.622,2.747,2.747,0,0,1-2.165-.885,3.624,3.624,0,0,1-.787-2.491,3.554,3.554,0,0,1,.86-2.472,2.758,2.758,0,0,1,2.136-.955,2.444,2.444,0,0,1,1.974.825,3.441,3.441,0,0,1,.7,2.292Zm-1.066-.882a2.118,2.118,0,0,0-.435-1.4,1.481,1.481,0,0,0-1.19-.5,1.682,1.682,0,0,0-1.25.527,2.391,2.391,0,0,0-.635,1.377ZM80.517,14H79.476V10.293q0-2.069-1.511-2.069a1.639,1.639,0,0,0-1.292.587,2.176,2.176,0,0,0-.511,1.482V14H75.122V7.5h1.041V8.579h.025a2.346,2.346,0,0,1,2.133-1.231,1.989,1.989,0,0,1,1.631.689,3.068,3.068,0,0,1,.565,1.99Zm4.977-.063a2.007,2.007,0,0,1-.971.2q-1.708,0-1.708-1.9V8.389H81.7V7.5h1.117V5.913l1.041-.336V7.5h1.638v.889H83.856v3.663a1.518,1.518,0,0,0,.222.933.887.887,0,0,0,.736.279,1.094,1.094,0,0,0,.679-.216Zm4.107.216a3.015,3.015,0,0,1-2.3-.911,3.374,3.374,0,0,1-.86-2.415,3.515,3.515,0,0,1,.9-2.558,3.218,3.218,0,0,1,2.418-.92,2.915,2.915,0,0,1,2.269.9,3.549,3.549,0,0,1,.816,2.482,3.492,3.492,0,0,1-.879,2.491A3.081,3.081,0,0,1,89.6,14.152Zm.076-5.929a1.98,1.98,0,0,0-1.587.682,2.8,2.8,0,0,0-.584,1.882,2.65,2.65,0,0,0,.59,1.822,2.006,2.006,0,0,0,1.581.667,1.9,1.9,0,0,0,1.552-.654,2.837,2.837,0,0,0,.543-1.86,2.886,2.886,0,0,0-.543-1.879A1.9,1.9,0,0,0,89.677,8.224Z" transform="translate(822.333 5443.064)" fill="#12263f"/>
    <path id="Trazado_622261" data-name="Trazado 622261" d="M28.5,14H23.68V4.9H28.3v.965H24.747V8.89h3.288v.958H24.747v3.187H28.5Zm1.219-.235V12.648a3.081,3.081,0,0,0,1.873.628q1.371,0,1.371-.914a.793.793,0,0,0-.117-.441,1.17,1.17,0,0,0-.317-.321,2.443,2.443,0,0,0-.47-.251q-.27-.111-.581-.232a7.48,7.48,0,0,1-.759-.346,2.292,2.292,0,0,1-.546-.394,1.464,1.464,0,0,1-.33-.5,1.763,1.763,0,0,1-.111-.654,1.553,1.553,0,0,1,.209-.809,1.857,1.857,0,0,1,.559-.59,2.6,2.6,0,0,1,.8-.359,3.534,3.534,0,0,1,.924-.121,3.729,3.729,0,0,1,1.511.292V8.693a2.944,2.944,0,0,0-1.65-.47,1.929,1.929,0,0,0-.527.067,1.29,1.29,0,0,0-.4.187.865.865,0,0,0-.26.289.761.761,0,0,0-.092.371.891.891,0,0,0,.092.425.936.936,0,0,0,.27.3,2.062,2.062,0,0,0,.432.241q.254.108.578.235a8.039,8.039,0,0,1,.774.34,2.656,2.656,0,0,1,.584.394,1.538,1.538,0,0,1,.371.5,1.628,1.628,0,0,1,.13.679,1.6,1.6,0,0,1-.213.838,1.822,1.822,0,0,1-.568.59,2.6,2.6,0,0,1-.819.349,4.043,4.043,0,0,1-.971.114A3.688,3.688,0,0,1,29.723,13.765Zm8.925.171a2.007,2.007,0,0,1-.971.2q-1.708,0-1.708-1.9V8.389H34.852V7.5h1.117V5.913l1.041-.336V7.5h1.638v.889H37.01v3.663a1.518,1.518,0,0,0,.222.933.887.887,0,0,0,.736.279,1.094,1.094,0,0,0,.679-.216ZM44.691,14H43.65V12.984h-.025a2.179,2.179,0,0,1-2,1.168,2.137,2.137,0,0,1-1.52-.514,1.781,1.781,0,0,1-.549-1.365q0-1.822,2.146-2.12L43.65,9.88q0-1.657-1.339-1.657a3.2,3.2,0,0,0-2.12.8V7.957A4.028,4.028,0,0,1,42.4,7.348q2.292,0,2.292,2.425ZM43.65,10.712l-1.568.216a2.546,2.546,0,0,0-1.092.359,1.034,1.034,0,0,0-.368.911.992.992,0,0,0,.34.778,1.312,1.312,0,0,0,.9.3,1.671,1.671,0,0,0,1.279-.543,1.939,1.939,0,0,0,.5-1.374ZM52.048,14H51.007V10.293q0-2.069-1.511-2.069a1.639,1.639,0,0,0-1.292.587,2.176,2.176,0,0,0-.511,1.482V14H46.653V7.5h1.041V8.579h.025a2.346,2.346,0,0,1,2.133-1.231,1.989,1.989,0,0,1,1.631.689,3.068,3.068,0,0,1,.565,1.99Zm7.509,0H58.516V12.9h-.025a2.4,2.4,0,0,1-2.234,1.257A2.428,2.428,0,0,1,54.3,13.28a3.581,3.581,0,0,1-.733-2.377,3.9,3.9,0,0,1,.813-2.583,2.68,2.68,0,0,1,2.165-.971A2.084,2.084,0,0,1,58.491,8.4h.025V4.377h1.041Zm-1.041-2.939V10.1A1.86,1.86,0,0,0,58,8.77a1.746,1.746,0,0,0-1.32-.546,1.8,1.8,0,0,0-1.5.7,3.06,3.06,0,0,0-.546,1.93,2.752,2.752,0,0,0,.524,1.774,1.712,1.712,0,0,0,1.406.651,1.778,1.778,0,0,0,1.412-.628A2.341,2.341,0,0,0,58.516,11.061ZM66.318,14H65.277V12.984h-.025a2.179,2.179,0,0,1-2,1.168,2.137,2.137,0,0,1-1.52-.514,1.781,1.781,0,0,1-.549-1.365q0-1.822,2.146-2.12l1.949-.273q0-1.657-1.339-1.657a3.2,3.2,0,0,0-2.12.8V7.957a4.028,4.028,0,0,1,2.209-.609q2.292,0,2.292,2.425Zm-1.041-3.288-1.568.216a2.546,2.546,0,0,0-1.092.359,1.034,1.034,0,0,0-.368.911.992.992,0,0,0,.34.778,1.312,1.312,0,0,0,.9.3,1.671,1.671,0,0,0,1.279-.543,1.939,1.939,0,0,0,.5-1.374Zm6.392-2.158a1.273,1.273,0,0,0-.787-.209,1.328,1.328,0,0,0-1.114.628,2.905,2.905,0,0,0-.448,1.714V14H68.279V7.5H69.32V8.839h.025a2.27,2.27,0,0,1,.679-1.07,1.549,1.549,0,0,1,1.022-.384,1.7,1.7,0,0,1,.622.089Zm1.663-2.7a.66.66,0,0,1-.476-.19.643.643,0,0,1-.2-.482.667.667,0,0,1,.673-.679.672.672,0,0,1,.486.194.678.678,0,0,1,0,.962A.667.667,0,0,1,73.332,5.85ZM73.84,14H72.8V7.5H73.84Zm6.64-6.2-3.847,5.313h3.809V14H75.1v-.324l3.847-5.288H75.465V7.5h5.015Zm6,6.2H85.437V12.984h-.025a2.179,2.179,0,0,1-2,1.168,2.137,2.137,0,0,1-1.52-.514,1.781,1.781,0,0,1-.549-1.365q0-1.822,2.146-2.12l1.949-.273q0-1.657-1.339-1.657a3.2,3.2,0,0,0-2.12.8V7.957a4.028,4.028,0,0,1,2.209-.609q2.292,0,2.292,2.425Zm-1.041-3.288-1.568.216a2.546,2.546,0,0,0-1.092.359,1.034,1.034,0,0,0-.368.911.992.992,0,0,0,.34.778,1.312,1.312,0,0,0,.9.3,1.671,1.671,0,0,0,1.279-.543,1.939,1.939,0,0,0,.5-1.374ZM92.87,13.7a3.383,3.383,0,0,1-1.777.451,2.943,2.943,0,0,1-2.244-.9,3.278,3.278,0,0,1-.854-2.345,3.6,3.6,0,0,1,.92-2.58,3.22,3.22,0,0,1,2.457-.974,3.419,3.419,0,0,1,1.511.317V8.731a2.647,2.647,0,0,0-1.549-.508,2.093,2.093,0,0,0-1.635.714,2.71,2.71,0,0,0-.638,1.876,2.58,2.58,0,0,0,.6,1.8,2.068,2.068,0,0,0,1.609.66,2.609,2.609,0,0,0,1.6-.565ZM94.977,5.85a.66.66,0,0,1-.476-.19.643.643,0,0,1-.2-.482.667.667,0,0,1,.673-.679.672.672,0,0,1,.486.194.678.678,0,0,1,0,.962A.667.667,0,0,1,94.977,5.85ZM95.485,14H94.444V7.5h1.041Zm4.824.152a3.015,3.015,0,0,1-2.3-.911,3.374,3.374,0,0,1-.86-2.415,3.515,3.515,0,0,1,.9-2.558,3.218,3.218,0,0,1,2.418-.92,2.915,2.915,0,0,1,2.269.9,3.549,3.549,0,0,1,.816,2.482,3.492,3.492,0,0,1-.879,2.491A3.081,3.081,0,0,1,100.309,14.152Zm.076-5.929a1.98,1.98,0,0,0-1.587.682,2.8,2.8,0,0,0-.584,1.882,2.65,2.65,0,0,0,.59,1.822,2.006,2.006,0,0,0,1.581.667,1.9,1.9,0,0,0,1.552-.654,2.837,2.837,0,0,0,.543-1.86,2.886,2.886,0,0,0-.543-1.879A1.9,1.9,0,0,0,100.385,8.224Zm1.523-4.037-1.663,2.082H99.44l1.416-2.082Zm8.7,9.813h-1.041V10.293q0-2.069-1.511-2.069a1.639,1.639,0,0,0-1.292.587,2.176,2.176,0,0,0-.511,1.482V14H105.21V7.5h1.041V8.579h.025a2.346,2.346,0,0,1,2.133-1.231,1.989,1.989,0,0,1,1.631.689,3.068,3.068,0,0,1,.565,1.99Z" transform="translate(756.333 5501.064)" fill="#12263f"/>
    <path id="Trazado_622258" data-name="Trazado 622258" d="M12.829,5.862H9.274V9.011h3.288v.958H9.274V14H8.208V4.9h4.621ZM18.624,14H17.583V12.984h-.025a2.179,2.179,0,0,1-2,1.168,2.137,2.137,0,0,1-1.52-.514,1.781,1.781,0,0,1-.549-1.365q0-1.822,2.146-2.12l1.949-.273q0-1.657-1.339-1.657a3.2,3.2,0,0,0-2.12.8V7.957a4.028,4.028,0,0,1,2.209-.609q2.292,0,2.292,2.425Zm-1.041-3.288-1.568.216a2.546,2.546,0,0,0-1.092.359,1.034,1.034,0,0,0-.368.911.992.992,0,0,0,.34.778,1.312,1.312,0,0,0,.9.3,1.671,1.671,0,0,0,1.279-.543,1.939,1.939,0,0,0,.5-1.374ZM21.626,14H20.585V4.377h1.041Zm5.123-.063a2.007,2.007,0,0,1-.971.2q-1.708,0-1.708-1.9V8.389H22.953V7.5H24.07V5.913l1.041-.336V7.5h1.638v.889H25.111v3.663a1.518,1.518,0,0,0,.222.933.887.887,0,0,0,.736.279,1.094,1.094,0,0,0,.679-.216ZM32.792,14H31.751V12.984h-.025a2.179,2.179,0,0,1-2,1.168,2.137,2.137,0,0,1-1.52-.514,1.781,1.781,0,0,1-.549-1.365q0-1.822,2.146-2.12l1.949-.273q0-1.657-1.339-1.657a3.2,3.2,0,0,0-2.12.8V7.957A4.028,4.028,0,0,1,30.5,7.348q2.292,0,2.292,2.425Zm-1.041-3.288-1.568.216a2.546,2.546,0,0,0-1.092.359,1.034,1.034,0,0,0-.368.911.992.992,0,0,0,.34.778,1.312,1.312,0,0,0,.9.3,1.671,1.671,0,0,0,1.279-.543,1.939,1.939,0,0,0,.5-1.374ZM43.862,14H42.821V12.9H42.8a2.4,2.4,0,0,1-2.234,1.257A2.428,2.428,0,0,1,38.6,13.28,3.581,3.581,0,0,1,37.87,10.9a3.9,3.9,0,0,1,.813-2.583,2.68,2.68,0,0,1,2.165-.971A2.084,2.084,0,0,1,42.8,8.4h.025V4.377h1.041Zm-1.041-2.939V10.1A1.86,1.86,0,0,0,42.3,8.77a1.746,1.746,0,0,0-1.32-.546,1.8,1.8,0,0,0-1.5.7,3.06,3.06,0,0,0-.546,1.93,2.752,2.752,0,0,0,.524,1.774,1.712,1.712,0,0,0,1.406.651,1.778,1.778,0,0,0,1.412-.628A2.341,2.341,0,0,0,42.821,11.061Zm8.373-.051H46.6a2.431,2.431,0,0,0,.584,1.676,2.013,2.013,0,0,0,1.536.59,3.194,3.194,0,0,0,2.019-.724v.978a3.773,3.773,0,0,1-2.266.622,2.747,2.747,0,0,1-2.165-.885,3.624,3.624,0,0,1-.787-2.491,3.554,3.554,0,0,1,.86-2.472,2.758,2.758,0,0,1,2.136-.955,2.444,2.444,0,0,1,1.974.825,3.44,3.44,0,0,1,.7,2.292Zm-1.066-.882a2.118,2.118,0,0,0-.435-1.4,1.481,1.481,0,0,0-1.19-.5,1.682,1.682,0,0,0-1.25.527,2.391,2.391,0,0,0-.635,1.377Zm9.591-1.574a1.273,1.273,0,0,0-.787-.209,1.328,1.328,0,0,0-1.114.628,2.905,2.905,0,0,0-.448,1.714V14H56.329V7.5H57.37V8.839H57.4a2.27,2.27,0,0,1,.679-1.07A1.549,1.549,0,0,1,59.1,7.386a1.7,1.7,0,0,1,.622.089Zm6.354,2.457H61.483a2.431,2.431,0,0,0,.584,1.676,2.013,2.013,0,0,0,1.536.59,3.194,3.194,0,0,0,2.019-.724v.978a3.773,3.773,0,0,1-2.266.622,2.747,2.747,0,0,1-2.165-.885,3.624,3.624,0,0,1-.787-2.491,3.554,3.554,0,0,1,.86-2.472A2.758,2.758,0,0,1,63.4,7.348a2.444,2.444,0,0,1,1.974.825,3.441,3.441,0,0,1,.7,2.292Zm-1.066-.882a2.118,2.118,0,0,0-.435-1.4,1.481,1.481,0,0,0-1.19-.5,1.682,1.682,0,0,0-1.25.527,2.391,2.391,0,0,0-.635,1.377Zm8.188,3.352q0,3.58-3.428,3.58A4.6,4.6,0,0,1,67.66,16.6V15.562a4.328,4.328,0,0,0,2.095.609q2.4,0,2.4-2.552v-.711h-.025a2.63,2.63,0,0,1-4.186.378,3.464,3.464,0,0,1-.74-2.326A4.047,4.047,0,0,1,68,8.325a2.661,2.661,0,0,1,2.18-.978A2.119,2.119,0,0,1,72.128,8.4h.025V7.5h1.041Zm-1.041-2.418V10.1a1.86,1.86,0,0,0-.524-1.327,1.724,1.724,0,0,0-1.3-.552,1.808,1.808,0,0,0-1.511.7,3.131,3.131,0,0,0-.546,1.965,2.688,2.688,0,0,0,.524,1.736,1.692,1.692,0,0,0,1.387.651,1.812,1.812,0,0,0,1.425-.622A2.319,2.319,0,0,0,72.154,11.061ZM75.835,5.85a.66.66,0,0,1-.476-.19.643.643,0,0,1-.2-.482.667.667,0,0,1,.673-.679.672.672,0,0,1,.486.194.678.678,0,0,1,0,.962A.667.667,0,0,1,75.835,5.85ZM76.343,14H75.3V7.5h1.041Zm1.714-.235V12.648a3.081,3.081,0,0,0,1.873.628q1.371,0,1.371-.914a.793.793,0,0,0-.117-.441,1.17,1.17,0,0,0-.317-.321,2.443,2.443,0,0,0-.47-.251q-.27-.111-.581-.232a7.48,7.48,0,0,1-.759-.346,2.292,2.292,0,0,1-.546-.394,1.464,1.464,0,0,1-.33-.5,1.763,1.763,0,0,1-.111-.654,1.553,1.553,0,0,1,.209-.809,1.857,1.857,0,0,1,.559-.59,2.6,2.6,0,0,1,.8-.359,3.534,3.534,0,0,1,.924-.121,3.729,3.729,0,0,1,1.511.292V8.693a2.944,2.944,0,0,0-1.65-.47,1.929,1.929,0,0,0-.527.067,1.29,1.29,0,0,0-.4.187.865.865,0,0,0-.26.289.761.761,0,0,0-.092.371.891.891,0,0,0,.092.425.936.936,0,0,0,.27.3,2.062,2.062,0,0,0,.432.241q.254.108.578.235a8.04,8.04,0,0,1,.774.34,2.656,2.656,0,0,1,.584.394,1.538,1.538,0,0,1,.371.5,1.628,1.628,0,0,1,.13.679,1.6,1.6,0,0,1-.213.838,1.822,1.822,0,0,1-.568.59,2.6,2.6,0,0,1-.819.349,4.043,4.043,0,0,1-.971.114A3.688,3.688,0,0,1,78.057,13.765Zm8.925.171a2.007,2.007,0,0,1-.971.2q-1.708,0-1.708-1.9V8.389H83.186V7.5H84.3V5.913l1.041-.336V7.5h1.638v.889H85.344v3.663a1.518,1.518,0,0,0,.222.933.887.887,0,0,0,.736.279,1.094,1.094,0,0,0,.679-.216Zm4.78-5.383a1.273,1.273,0,0,0-.787-.209,1.328,1.328,0,0,0-1.114.628,2.905,2.905,0,0,0-.448,1.714V14H88.372V7.5h1.041V8.839h.025a2.27,2.27,0,0,1,.679-1.07,1.549,1.549,0,0,1,1.022-.384,1.7,1.7,0,0,1,.622.089Zm3.847,5.6a3.015,3.015,0,0,1-2.3-.911,3.374,3.374,0,0,1-.86-2.415,3.515,3.515,0,0,1,.9-2.558,3.218,3.218,0,0,1,2.418-.92,2.915,2.915,0,0,1,2.269.9,3.549,3.549,0,0,1,.816,2.482,3.492,3.492,0,0,1-.879,2.491A3.081,3.081,0,0,1,95.608,14.152Zm.076-5.929a1.98,1.98,0,0,0-1.587.682,2.8,2.8,0,0,0-.584,1.882,2.65,2.65,0,0,0,.59,1.822,2.006,2.006,0,0,0,1.581.667,1.9,1.9,0,0,0,1.552-.654,2.837,2.837,0,0,0,.543-1.86,2.886,2.886,0,0,0-.543-1.879A1.9,1.9,0,0,0,95.685,8.224Zm4.431,5.542V12.648a3.081,3.081,0,0,0,1.873.628q1.371,0,1.371-.914a.793.793,0,0,0-.117-.441,1.17,1.17,0,0,0-.317-.321,2.443,2.443,0,0,0-.47-.251q-.27-.111-.581-.232a7.48,7.48,0,0,1-.759-.346,2.292,2.292,0,0,1-.546-.394,1.464,1.464,0,0,1-.33-.5,1.763,1.763,0,0,1-.111-.654,1.553,1.553,0,0,1,.209-.809,1.857,1.857,0,0,1,.559-.59,2.6,2.6,0,0,1,.8-.359,3.534,3.534,0,0,1,.924-.121,3.729,3.729,0,0,1,1.511.292V8.693a2.944,2.944,0,0,0-1.65-.47,1.929,1.929,0,0,0-.527.067,1.29,1.29,0,0,0-.4.187.865.865,0,0,0-.26.289.761.761,0,0,0-.092.371.891.891,0,0,0,.092.425.936.936,0,0,0,.27.3,2.062,2.062,0,0,0,.432.241q.254.108.578.235a8.04,8.04,0,0,1,.774.34,2.656,2.656,0,0,1,.584.394,1.538,1.538,0,0,1,.371.5,1.628,1.628,0,0,1,.13.679,1.6,1.6,0,0,1-.213.838,1.822,1.822,0,0,1-.568.59,2.6,2.6,0,0,1-.819.349,4.043,4.043,0,0,1-.971.114A3.688,3.688,0,0,1,100.115,13.765ZM115.134,14h-1.041V12.9h-.025a2.4,2.4,0,0,1-2.234,1.257,2.428,2.428,0,0,1-1.958-.873,3.581,3.581,0,0,1-.733-2.377,3.9,3.9,0,0,1,.813-2.583,2.68,2.68,0,0,1,2.165-.971A2.084,2.084,0,0,1,114.067,8.4h.025V4.377h1.041Zm-1.041-2.939V10.1a1.86,1.86,0,0,0-.521-1.333,1.746,1.746,0,0,0-1.32-.546,1.8,1.8,0,0,0-1.5.7,3.06,3.06,0,0,0-.546,1.93,2.752,2.752,0,0,0,.524,1.774,1.712,1.712,0,0,0,1.406.651,1.778,1.778,0,0,0,1.412-.628A2.341,2.341,0,0,0,114.093,11.061Zm8.373-.051h-4.589a2.431,2.431,0,0,0,.584,1.676,2.013,2.013,0,0,0,1.536.59,3.194,3.194,0,0,0,2.019-.724v.978a3.773,3.773,0,0,1-2.266.622,2.747,2.747,0,0,1-2.165-.885,3.624,3.624,0,0,1-.787-2.491,3.554,3.554,0,0,1,.86-2.472,2.758,2.758,0,0,1,2.136-.955,2.444,2.444,0,0,1,1.974.825,3.441,3.441,0,0,1,.7,2.292Zm-1.066-.882a2.118,2.118,0,0,0-.435-1.4,1.481,1.481,0,0,0-1.19-.5,1.682,1.682,0,0,0-1.25.527,2.391,2.391,0,0,0-.635,1.377ZM42.663,32H41.622V28.268a2.816,2.816,0,0,0-.333-1.562,1.264,1.264,0,0,0-1.12-.482,1.387,1.387,0,0,0-1.133.609,2.331,2.331,0,0,0-.467,1.46V32H37.527V28.141q0-1.917-1.479-1.917a1.37,1.37,0,0,0-1.13.574,2.375,2.375,0,0,0-.444,1.495V32H33.433V25.5h1.041v1.028H34.5a2.208,2.208,0,0,1,2.019-1.181,1.877,1.877,0,0,1,1.841,1.346,2.32,2.32,0,0,1,2.158-1.346q2.146,0,2.146,2.647Zm7.192-2.99H45.265a2.431,2.431,0,0,0,.584,1.676,2.013,2.013,0,0,0,1.536.59,3.194,3.194,0,0,0,2.019-.724v.978a3.773,3.773,0,0,1-2.266.622,2.747,2.747,0,0,1-2.165-.885,3.624,3.624,0,0,1-.787-2.491,3.554,3.554,0,0,1,.86-2.472,2.758,2.758,0,0,1,2.136-.955,2.444,2.444,0,0,1,1.974.825,3.44,3.44,0,0,1,.7,2.292Zm-1.066-.882a2.118,2.118,0,0,0-.435-1.4,1.481,1.481,0,0,0-1.19-.5,1.682,1.682,0,0,0-1.25.527,2.391,2.391,0,0,0-.635,1.377ZM56.977,32H55.936V30.9H55.91a2.4,2.4,0,0,1-2.234,1.257,2.428,2.428,0,0,1-1.958-.873,3.581,3.581,0,0,1-.733-2.377,3.9,3.9,0,0,1,.813-2.583,2.68,2.68,0,0,1,2.165-.971A2.084,2.084,0,0,1,55.91,26.4h.025V22.377h1.041Zm-1.041-2.939V28.1a1.86,1.86,0,0,0-.521-1.333,1.746,1.746,0,0,0-1.32-.546,1.8,1.8,0,0,0-1.5.7,3.06,3.06,0,0,0-.546,1.93,2.752,2.752,0,0,0,.524,1.774,1.712,1.712,0,0,0,1.406.651,1.778,1.778,0,0,0,1.412-.628A2.341,2.341,0,0,0,55.936,29.061Zm3.682-5.211a.66.66,0,0,1-.476-.19.643.643,0,0,1-.2-.482.667.667,0,0,1,.673-.679.672.672,0,0,1,.486.194.678.678,0,0,1,0,.962A.667.667,0,0,1,59.617,23.85ZM60.125,32H59.084V25.5h1.041Zm6.538-.3a3.383,3.383,0,0,1-1.777.451,2.943,2.943,0,0,1-2.244-.9,3.278,3.278,0,0,1-.854-2.345,3.6,3.6,0,0,1,.92-2.58,3.22,3.22,0,0,1,2.457-.974,3.419,3.419,0,0,1,1.511.317v1.066a2.647,2.647,0,0,0-1.549-.508,2.093,2.093,0,0,0-1.635.714,2.71,2.71,0,0,0-.638,1.876,2.58,2.58,0,0,0,.6,1.8,2.068,2.068,0,0,0,1.609.66,2.609,2.609,0,0,0,1.6-.565Zm2.107-7.852a.66.66,0,0,1-.476-.19.643.643,0,0,1-.2-.482.667.667,0,0,1,.673-.679.672.672,0,0,1,.486.194.678.678,0,0,1,0,.962A.667.667,0,0,1,68.771,23.85ZM69.278,32H68.237V25.5h1.041Zm4.824.152a3.015,3.015,0,0,1-2.3-.911,3.374,3.374,0,0,1-.86-2.415,3.515,3.515,0,0,1,.9-2.558,3.218,3.218,0,0,1,2.418-.92,2.915,2.915,0,0,1,2.269.9,3.549,3.549,0,0,1,.816,2.482,3.492,3.492,0,0,1-.879,2.491A3.081,3.081,0,0,1,74.1,32.152Zm.076-5.929a1.98,1.98,0,0,0-1.587.682,2.8,2.8,0,0,0-.584,1.882,2.65,2.65,0,0,0,.59,1.822,2.006,2.006,0,0,0,1.581.667,1.9,1.9,0,0,0,1.552-.654,2.837,2.837,0,0,0,.543-1.86,2.886,2.886,0,0,0-.543-1.879A1.9,1.9,0,0,0,74.179,26.224ZM84.4,32H83.357V28.293q0-2.069-1.511-2.069a1.639,1.639,0,0,0-1.292.587,2.176,2.176,0,0,0-.511,1.482V32H79V25.5h1.041v1.079h.025A2.346,2.346,0,0,1,82.2,25.348a1.989,1.989,0,0,1,1.631.689,3.068,3.068,0,0,1,.565,1.99Zm7.186-2.99H86.995a2.431,2.431,0,0,0,.584,1.676,2.013,2.013,0,0,0,1.536.59,3.194,3.194,0,0,0,2.019-.724v.978a3.773,3.773,0,0,1-2.266.622,2.747,2.747,0,0,1-2.165-.885,3.624,3.624,0,0,1-.787-2.491,3.554,3.554,0,0,1,.86-2.472,2.758,2.758,0,0,1,2.136-.955,2.444,2.444,0,0,1,1.974.825,3.441,3.441,0,0,1,.7,2.292Zm-1.066-.882a2.118,2.118,0,0,0-.435-1.4,1.481,1.481,0,0,0-1.19-.5,1.682,1.682,0,0,0-1.25.527,2.391,2.391,0,0,0-.635,1.377Zm2.247,3.637V30.648a3.081,3.081,0,0,0,1.873.628q1.371,0,1.371-.914a.793.793,0,0,0-.117-.441,1.17,1.17,0,0,0-.317-.321,2.443,2.443,0,0,0-.47-.251q-.27-.111-.581-.232a7.481,7.481,0,0,1-.759-.346,2.292,2.292,0,0,1-.546-.394,1.464,1.464,0,0,1-.33-.5,1.763,1.763,0,0,1-.111-.654,1.553,1.553,0,0,1,.209-.809,1.857,1.857,0,0,1,.559-.59,2.6,2.6,0,0,1,.8-.359,3.534,3.534,0,0,1,.924-.121,3.729,3.729,0,0,1,1.511.292v1.054a2.944,2.944,0,0,0-1.65-.47,1.929,1.929,0,0,0-.527.067,1.29,1.29,0,0,0-.4.187.865.865,0,0,0-.26.289.761.761,0,0,0-.092.371.891.891,0,0,0,.092.425.936.936,0,0,0,.27.3,2.062,2.062,0,0,0,.432.241q.254.108.578.235a8.04,8.04,0,0,1,.774.34,2.656,2.656,0,0,1,.584.394,1.538,1.538,0,0,1,.371.5,1.628,1.628,0,0,1,.13.679,1.6,1.6,0,0,1-.213.838,1.822,1.822,0,0,1-.568.59,2.6,2.6,0,0,1-.819.349,4.043,4.043,0,0,1-.971.114A3.688,3.688,0,0,1,92.765,31.765Z" transform="translate(549.333 5443.064)" fill="#12263f"/>
    <path id="Trazado_622259" data-name="Trazado 622259" d="M19.586,10.56V14H18.52V4.9h2.5a3.3,3.3,0,0,1,2.263.711,2.538,2.538,0,0,1,.8,2.006,2.759,2.759,0,0,1-.892,2.12,3.408,3.408,0,0,1-2.409.825Zm0-4.7V9.595H20.7a2.5,2.5,0,0,0,1.685-.5,1.787,1.787,0,0,0,.581-1.425q0-1.8-2.133-1.8ZM29.05,8.554a1.273,1.273,0,0,0-.787-.209,1.328,1.328,0,0,0-1.114.628,2.905,2.905,0,0,0-.448,1.714V14H25.661V7.5H26.7V8.839h.025a2.27,2.27,0,0,1,.679-1.07,1.549,1.549,0,0,1,1.022-.384,1.7,1.7,0,0,1,.622.089Zm3.847,5.6a3.015,3.015,0,0,1-2.3-.911,3.374,3.374,0,0,1-.86-2.415,3.515,3.515,0,0,1,.9-2.558,3.218,3.218,0,0,1,2.418-.92,2.915,2.915,0,0,1,2.269.9,3.549,3.549,0,0,1,.816,2.482,3.492,3.492,0,0,1-.879,2.491A3.081,3.081,0,0,1,32.9,14.152Zm.076-5.929a1.98,1.98,0,0,0-1.587.682,2.8,2.8,0,0,0-.584,1.882,2.65,2.65,0,0,0,.59,1.822,2.006,2.006,0,0,0,1.581.667,1.9,1.9,0,0,0,1.552-.654,2.837,2.837,0,0,0,.543-1.86,2.886,2.886,0,0,0-.543-1.879A1.9,1.9,0,0,0,32.973,8.224ZM42.907,7.5,40.317,14H39.3L36.833,7.5h1.143l1.65,4.723a4.239,4.239,0,0,1,.229.908h.025a4.292,4.292,0,0,1,.2-.882L41.809,7.5Zm6.341,3.51H44.659a2.431,2.431,0,0,0,.584,1.676,2.013,2.013,0,0,0,1.536.59,3.194,3.194,0,0,0,2.019-.724v.978a3.773,3.773,0,0,1-2.266.622,2.747,2.747,0,0,1-2.165-.885,3.624,3.624,0,0,1-.787-2.491A3.554,3.554,0,0,1,44.44,8.3a2.758,2.758,0,0,1,2.136-.955,2.444,2.444,0,0,1,1.974.825,3.44,3.44,0,0,1,.7,2.292Zm-1.066-.882a2.118,2.118,0,0,0-.435-1.4,1.481,1.481,0,0,0-1.19-.5,1.682,1.682,0,0,0-1.25.527,2.391,2.391,0,0,0-.635,1.377Zm7.865.882H51.458a2.431,2.431,0,0,0,.584,1.676,2.013,2.013,0,0,0,1.536.59,3.194,3.194,0,0,0,2.019-.724v.978a3.773,3.773,0,0,1-2.266.622,2.747,2.747,0,0,1-2.165-.885,3.624,3.624,0,0,1-.787-2.491,3.554,3.554,0,0,1,.86-2.472,2.758,2.758,0,0,1,2.136-.955,2.444,2.444,0,0,1,1.974.825,3.44,3.44,0,0,1,.7,2.292Zm-1.066-.882a2.118,2.118,0,0,0-.435-1.4,1.481,1.481,0,0,0-1.19-.5,1.682,1.682,0,0,0-1.25.527,2.391,2.391,0,0,0-.635,1.377ZM63.169,14H62.128V12.9H62.1a2.4,2.4,0,0,1-2.234,1.257,2.428,2.428,0,0,1-1.958-.873,3.581,3.581,0,0,1-.733-2.377,3.9,3.9,0,0,1,.813-2.583,2.68,2.68,0,0,1,2.165-.971A2.084,2.084,0,0,1,62.1,8.4h.025V4.377h1.041Zm-1.041-2.939V10.1a1.86,1.86,0,0,0-.521-1.333,1.746,1.746,0,0,0-1.32-.546,1.8,1.8,0,0,0-1.5.7,3.06,3.06,0,0,0-.546,1.93,2.752,2.752,0,0,0,.524,1.774,1.712,1.712,0,0,0,1.406.651,1.778,1.778,0,0,0,1.412-.628A2.341,2.341,0,0,0,62.128,11.061Zm5.865,3.091a3.015,3.015,0,0,1-2.3-.911,3.374,3.374,0,0,1-.86-2.415,3.515,3.515,0,0,1,.9-2.558,3.218,3.218,0,0,1,2.418-.92,2.915,2.915,0,0,1,2.269.9,3.549,3.549,0,0,1,.816,2.482,3.492,3.492,0,0,1-.879,2.491A3.081,3.081,0,0,1,67.993,14.152Zm.076-5.929a1.98,1.98,0,0,0-1.587.682,2.8,2.8,0,0,0-.584,1.882,2.65,2.65,0,0,0,.59,1.822,2.006,2.006,0,0,0,1.581.667,1.9,1.9,0,0,0,1.552-.654,2.837,2.837,0,0,0,.543-1.86,2.886,2.886,0,0,0-.543-1.879A1.9,1.9,0,0,0,68.069,8.224Zm8.214.33a1.273,1.273,0,0,0-.787-.209,1.328,1.328,0,0,0-1.114.628,2.905,2.905,0,0,0-.448,1.714V14H72.894V7.5h1.041V8.839h.025a2.27,2.27,0,0,1,.679-1.07,1.549,1.549,0,0,1,1.022-.384,1.7,1.7,0,0,1,.622.089Zm6.354,2.457H78.048a2.431,2.431,0,0,0,.584,1.676,2.013,2.013,0,0,0,1.536.59,3.194,3.194,0,0,0,2.019-.724v.978a3.773,3.773,0,0,1-2.266.622,2.747,2.747,0,0,1-2.165-.885,3.624,3.624,0,0,1-.787-2.491,3.554,3.554,0,0,1,.86-2.472,2.758,2.758,0,0,1,2.136-.955,2.444,2.444,0,0,1,1.974.825,3.441,3.441,0,0,1,.7,2.292Zm-1.066-.882a2.118,2.118,0,0,0-.435-1.4,1.481,1.481,0,0,0-1.19-.5,1.682,1.682,0,0,0-1.25.527,2.391,2.391,0,0,0-.635,1.377Zm2.247,3.637V12.648a3.081,3.081,0,0,0,1.873.628q1.371,0,1.371-.914a.793.793,0,0,0-.117-.441,1.17,1.17,0,0,0-.317-.321,2.443,2.443,0,0,0-.47-.251q-.27-.111-.581-.232a7.48,7.48,0,0,1-.759-.346,2.292,2.292,0,0,1-.546-.394,1.464,1.464,0,0,1-.33-.5,1.763,1.763,0,0,1-.111-.654,1.553,1.553,0,0,1,.209-.809,1.857,1.857,0,0,1,.559-.59,2.6,2.6,0,0,1,.8-.359,3.534,3.534,0,0,1,.924-.121,3.729,3.729,0,0,1,1.511.292V8.693a2.944,2.944,0,0,0-1.65-.47,1.929,1.929,0,0,0-.527.067,1.29,1.29,0,0,0-.4.187.865.865,0,0,0-.26.289.761.761,0,0,0-.092.371.891.891,0,0,0,.092.425.936.936,0,0,0,.27.3,2.062,2.062,0,0,0,.432.241q.254.108.578.235a8.04,8.04,0,0,1,.774.34,2.656,2.656,0,0,1,.584.394,1.538,1.538,0,0,1,.371.5,1.628,1.628,0,0,1,.13.679,1.6,1.6,0,0,1-.213.838,1.822,1.822,0,0,1-.568.59,2.6,2.6,0,0,1-.819.349,4.043,4.043,0,0,1-.971.114A3.688,3.688,0,0,1,83.818,13.765Z" transform="translate(325.333 5470.064)" fill="#12263f"/>
    <path id="Trazado_622256" data-name="Trazado 622256" d="M24.531,17H17.813V5.8h6.461V7.852H20.336v2.492H24v2.047H20.336v2.563h4.2ZM31.3,7.047a2.494,2.494,0,0,0-.914-.187q-1.187,0-1.187,1.289V9h1.828v1.82H29.2V17H26.742V10.82H25.4V9h1.344V8.008a2.88,2.88,0,0,1,.891-2.2,3.4,3.4,0,0,1,2.422-.836,4.253,4.253,0,0,1,1.25.156Zm8.1,6.656H34.188q.125,1.742,2.2,1.742a4.286,4.286,0,0,0,2.32-.625V16.6a6.1,6.1,0,0,1-2.883.594,4.058,4.058,0,0,1-3.008-1.074,4.058,4.058,0,0,1-1.07-3A4.281,4.281,0,0,1,32.9,9.969,3.852,3.852,0,0,1,35.742,8.8a3.5,3.5,0,0,1,2.707,1.039,4,4,0,0,1,.957,2.82Zm-2.289-1.516q0-1.719-1.391-1.719a1.328,1.328,0,0,0-1.027.492,2.234,2.234,0,0,0-.527,1.227Zm9.82,4.523a4.881,4.881,0,0,1-2.414.484,4.083,4.083,0,0,1-2.984-1.117A3.859,3.859,0,0,1,40.4,13.2,4.251,4.251,0,0,1,41.621,9.98,4.518,4.518,0,0,1,44.891,8.8a4.2,4.2,0,0,1,2.047.375v2.094a2.814,2.814,0,0,0-1.727-.578,2.275,2.275,0,0,0-1.684.621,2.317,2.317,0,0,0-.621,1.715A2.28,2.28,0,0,0,43.5,14.7a2.182,2.182,0,0,0,1.633.605,3.258,3.258,0,0,0,1.8-.578Zm6.453.2a3.649,3.649,0,0,1-1.648.289q-2.609,0-2.609-2.711V10.82h-1.3V9h1.3V7.273l2.461-.7V9h1.8v1.82h-1.8v3.234q0,1.25.992,1.25a1.673,1.673,0,0,0,.8-.227Zm5.141.289a4.3,4.3,0,0,1-3.145-1.121,4.064,4.064,0,0,1-1.145-3.043A4.065,4.065,0,0,1,55.43,9.926,4.487,4.487,0,0,1,58.641,8.8a4.249,4.249,0,0,1,3.125,1.121A3.985,3.985,0,0,1,62.9,12.891a4.23,4.23,0,0,1-1.168,3.148A4.348,4.348,0,0,1,58.531,17.2Zm.063-6.5a1.647,1.647,0,0,0-1.359.6A2.653,2.653,0,0,0,56.75,13q0,2.3,1.859,2.3,1.773,0,1.773-2.367Q60.383,10.7,58.594,10.7Zm14.133,6.5a4.3,4.3,0,0,1-3.145-1.121,4.064,4.064,0,0,1-1.145-3.043,4.065,4.065,0,0,1,1.188-3.105A4.487,4.487,0,0,1,72.836,8.8a4.249,4.249,0,0,1,3.125,1.121,3.985,3.985,0,0,1,1.133,2.965,4.23,4.23,0,0,1-1.168,3.148A4.348,4.348,0,0,1,72.727,17.2Zm.063-6.5a1.647,1.647,0,0,0-1.359.6,2.653,2.653,0,0,0-.484,1.7q0,2.3,1.859,2.3,1.773,0,1.773-2.367Q74.578,10.7,72.789,10.7Zm12.82,5.375h-.031V20.68H83.109V9h2.469v1.2h.031a3.142,3.142,0,0,1,4.973-.332,4.54,4.54,0,0,1,.848,2.9,4.922,4.922,0,0,1-.988,3.211A3.222,3.222,0,0,1,87.813,17.2,2.491,2.491,0,0,1,85.609,16.07Zm-.07-3.281v.641a2.037,2.037,0,0,0,.438,1.352,1.424,1.424,0,0,0,1.148.523,1.514,1.514,0,0,0,1.309-.652A3.15,3.15,0,0,0,88.9,12.8q0-2.109-1.641-2.109a1.541,1.541,0,0,0-1.238.574A2.29,2.29,0,0,0,85.539,12.789ZM98.25,11.227a2.141,2.141,0,0,0-1.039-.242,1.5,1.5,0,0,0-1.258.59A2.573,2.573,0,0,0,95.5,13.18V17H93.031V9H95.5v1.484h.031a2.136,2.136,0,0,1,2.109-1.625,1.59,1.59,0,0,1,.609.094Zm4.9,5.969A4.3,4.3,0,0,1,100,16.074a4.064,4.064,0,0,1-1.145-3.043,4.065,4.065,0,0,1,1.188-3.105A4.487,4.487,0,0,1,103.258,8.8a4.249,4.249,0,0,1,3.125,1.121,3.985,3.985,0,0,1,1.133,2.965,4.23,4.23,0,0,1-1.168,3.148A4.348,4.348,0,0,1,103.148,17.2Zm.063-6.5a1.647,1.647,0,0,0-1.359.6,2.653,2.653,0,0,0-.484,1.7q0,2.3,1.859,2.3Q105,15.3,105,12.938,105,10.7,103.211,10.7Zm8.406,5.375h-.031V17h-2.469V5.156h2.469V10.2h.031a2.929,2.929,0,0,1,2.6-1.4A2.855,2.855,0,0,1,116.6,9.867a4.582,4.582,0,0,1,.836,2.906,4.962,4.962,0,0,1-.977,3.211,3.181,3.181,0,0,1-2.609,1.211A2.521,2.521,0,0,1,111.617,16.07Zm-.07-3.375v.82a1.872,1.872,0,0,0,.445,1.281,1.449,1.449,0,0,0,1.141.508,1.514,1.514,0,0,0,1.309-.652,3.15,3.15,0,0,0,.465-1.848,2.506,2.506,0,0,0-.426-1.551,1.437,1.437,0,0,0-1.215-.559,1.569,1.569,0,0,0-1.23.555A2.107,2.107,0,0,0,111.547,12.7Zm9.961,4.3h-2.469V5.156h2.469Zm9.266-3.3h-5.219q.125,1.742,2.2,1.742a4.286,4.286,0,0,0,2.32-.625V16.6a6.1,6.1,0,0,1-2.883.594,4.058,4.058,0,0,1-3.008-1.074,4.058,4.058,0,0,1-1.07-3,4.281,4.281,0,0,1,1.156-3.156A3.852,3.852,0,0,1,127.109,8.8a3.5,3.5,0,0,1,2.707,1.039,4,4,0,0,1,.957,2.82Zm-2.289-1.516q0-1.719-1.391-1.719a1.328,1.328,0,0,0-1.027.492,2.234,2.234,0,0,0-.527,1.227ZM144.945,17h-2.461V12.438q0-1.742-1.281-1.742a1.177,1.177,0,0,0-.992.523,2.151,2.151,0,0,0-.383,1.3V17h-2.469V12.391q0-1.7-1.258-1.7a1.206,1.206,0,0,0-1.012.5,2.2,2.2,0,0,0-.379,1.359V17h-2.469V9h2.469v1.25h.031A3.031,3.031,0,0,1,137.328,8.8a2.3,2.3,0,0,1,2.32,1.492A2.959,2.959,0,0,1,142.336,8.8q2.609,0,2.609,3.219Zm8.609,0h-2.336V15.852h-.031A2.607,2.607,0,0,1,148.8,17.2a2.492,2.492,0,0,1-1.832-.66,2.366,2.366,0,0,1-.668-1.762q0-2.328,2.758-2.687l2.172-.289q0-1.312-1.422-1.312a4.853,4.853,0,0,0-2.719.852V9.477a6.116,6.116,0,0,1,1.41-.469,7.413,7.413,0,0,1,1.629-.2q3.422,0,3.422,3.414Zm-2.32-3.25v-.539l-1.453.188q-1.2.156-1.2,1.086a.9.9,0,0,0,.293.691,1.126,1.126,0,0,0,.793.27,1.462,1.462,0,0,0,1.133-.48A1.735,1.735,0,0,0,151.234,13.75Z" transform="translate(1124.333 5396.064)" fill="#12263f"/>
    <g id="Grupo_167687" data-name="Grupo 167687" transform="translate(304.976 5308.94)">
      <line id="Línea_1135" data-name="Línea 1135" x2="97.14" transform="translate(0 3.598)" fill="none" stroke="#707070" stroke-width="2"/>
      <g id="Polígono_79" data-name="Polígono 79" transform="translate(101.937 0) rotate(90)" fill="#636363">
        <path d="M 6.312440395355225 5.49628210067749 L 0.8831009268760681 5.49628210067749 L 3.597770690917969 0.971835196018219 L 6.312440395355225 5.49628210067749 Z" stroke="none"/>
        <path d="M 3.597770690917969 1.943651676177979 L 1.766191005706787 4.99628210067749 L 5.429349899291992 4.99628210067749 L 3.597770690917969 1.943651676177979 M 3.597770690917969 2.384185791015625e-06 L 7.195540904998779 5.99628210067749 L 4.76837158203125e-07 5.99628210067749 L 3.597770690917969 2.384185791015625e-06 Z" stroke="none" fill="#707070"/>
      </g>
    </g>
    <g id="Grupo_167688" data-name="Grupo 167688" transform="translate(350.548 5380.896)">
      <line id="Línea_1135-2" data-name="Línea 1135" x2="97.14" transform="translate(0 3.598)" fill="none" stroke="#707070" stroke-width="2"/>
      <g id="Polígono_79-2" data-name="Polígono 79" transform="translate(101.937 0) rotate(90)" fill="#636363">
        <path d="M 6.312440395355225 5.49628210067749 L 0.8831009268760681 5.49628210067749 L 3.597770690917969 0.971835196018219 L 6.312440395355225 5.49628210067749 Z" stroke="none"/>
        <path d="M 3.597770690917969 1.943651676177979 L 1.766191005706787 4.99628210067749 L 5.429349899291992 4.99628210067749 L 3.597770690917969 1.943651676177979 M 3.597770690917969 2.384185791015625e-06 L 7.195540904998779 5.99628210067749 L 4.76837158203125e-07 5.99628210067749 L 3.597770690917969 2.384185791015625e-06 Z" stroke="none" fill="#707070"/>
      </g>
    </g>
    <g id="Grupo_167689" data-name="Grupo 167689" transform="translate(580.805 5344.918)">
      <line id="Línea_1135-3" data-name="Línea 1135" x2="97.14" transform="translate(0 3.598)" fill="none" stroke="#707070" stroke-width="2"/>
      <g id="Polígono_79-3" data-name="Polígono 79" transform="translate(101.937 0) rotate(90)" fill="#636363">
        <path d="M 6.312440395355225 5.49628210067749 L 0.8831009268760681 5.49628210067749 L 3.597770690917969 0.971835196018219 L 6.312440395355225 5.49628210067749 Z" stroke="none"/>
        <path d="M 3.597770690917969 1.943651676177979 L 1.766191005706787 4.99628210067749 L 5.429349899291992 4.99628210067749 L 3.597770690917969 1.943651676177979 M 3.597770690917969 2.384185791015625e-06 L 7.195540904998779 5.99628210067749 L 4.76837158203125e-07 5.99628210067749 L 3.597770690917969 2.384185791015625e-06 Z" stroke="none" fill="#707070"/>
      </g>
    </g>
    <g id="Grupo_167690" data-name="Grupo 167690" transform="translate(813.461 5307.741)">
      <line id="Línea_1135-4" data-name="Línea 1135" x2="97.14" transform="translate(0 3.598)" fill="none" stroke="#707070" stroke-width="2"/>
      <g id="Polígono_79-4" data-name="Polígono 79" transform="translate(101.937 0) rotate(90)" fill="#636363">
        <path d="M 6.312440395355225 5.49628210067749 L 0.8831009268760681 5.49628210067749 L 3.597770690917969 0.971835196018219 L 6.312440395355225 5.49628210067749 Z" stroke="none"/>
        <path d="M 3.597770690917969 1.943651676177979 L 1.766191005706787 4.99628210067749 L 5.429349899291992 4.99628210067749 L 3.597770690917969 1.943651676177979 M 3.597770690917969 2.384185791015625e-06 L 7.195540904998779 5.99628210067749 L 4.76837158203125e-07 5.99628210067749 L 3.597770690917969 2.384185791015625e-06 Z" stroke="none" fill="#707070"/>
      </g>
    </g>
    <g id="Grupo_167691" data-name="Grupo 167691" transform="translate(845.841 5359.309)">
      <line id="Línea_1135-5" data-name="Línea 1135" x2="97.14" transform="translate(0 3.598)" fill="none" stroke="#707070" stroke-width="2"/>
      <g id="Polígono_79-5" data-name="Polígono 79" transform="translate(101.937 0) rotate(90)" fill="#636363">
        <path d="M 6.312440395355225 5.49628210067749 L 0.8831009268760681 5.49628210067749 L 3.597770690917969 0.971835196018219 L 6.312440395355225 5.49628210067749 Z" stroke="none"/>
        <path d="M 3.597770690917969 1.943651676177979 L 1.766191005706787 4.99628210067749 L 5.429349899291992 4.99628210067749 L 3.597770690917969 1.943651676177979 M 3.597770690917969 2.384185791015625e-06 L 7.195540904998779 5.99628210067749 L 4.76837158203125e-07 5.99628210067749 L 3.597770690917969 2.384185791015625e-06 Z" stroke="none" fill="#707070"/>
      </g>
    </g>
    <g id="Grupo_167692" data-name="Grupo 167692" transform="translate(862.63 5461.246)">
      <line id="Línea_1135-6" data-name="Línea 1135" x2="97.14" transform="translate(0 3.598)" fill="none" stroke="#707070" stroke-width="2"/>
      <g id="Polígono_79-6" data-name="Polígono 79" transform="translate(101.937 0) rotate(90)" fill="#636363">
        <path d="M 6.312440395355225 5.49628210067749 L 0.8831009268760681 5.49628210067749 L 3.597770690917969 0.971835196018219 L 6.312440395355225 5.49628210067749 Z" stroke="none"/>
        <path d="M 3.597770690917969 1.943651676177979 L 1.766191005706787 4.99628210067749 L 5.429349899291992 4.99628210067749 L 3.597770690917969 1.943651676177979 M 3.597770690917969 2.384185791015625e-06 L 7.195540904998779 5.99628210067749 L 4.76837158203125e-07 5.99628210067749 L 3.597770690917969 2.384185791015625e-06 Z" stroke="none" fill="#707070"/>
      </g>
    </g>
    <g id="Grupo_167693" data-name="Grupo 167693" transform="translate(803.867 5521.208)">
      <line id="Línea_1135-7" data-name="Línea 1135" x2="97.14" transform="translate(0 3.598)" fill="none" stroke="#707070" stroke-width="2"/>
      <g id="Polígono_79-7" data-name="Polígono 79" transform="translate(101.937 0) rotate(90)" fill="#636363">
        <path d="M 6.312440395355225 5.49628210067749 L 0.8831009268760681 5.49628210067749 L 3.597770690917969 0.971835196018219 L 6.312440395355225 5.49628210067749 Z" stroke="none"/>
        <path d="M 3.597770690917969 1.943651676177979 L 1.766191005706787 4.99628210067749 L 5.429349899291992 4.99628210067749 L 3.597770690917969 1.943651676177979 M 3.597770690917969 2.384185791015625e-06 L 7.195540904998779 5.99628210067749 L 4.76837158203125e-07 5.99628210067749 L 3.597770690917969 2.384185791015625e-06 Z" stroke="none" fill="#707070"/>
      </g>
    </g>
    <g id="Grupo_167694" data-name="Grupo 167694" transform="translate(585.602 5486.43)">
      <line id="Línea_1135-8" data-name="Línea 1135" x2="97.14" transform="translate(0 3.598)" fill="none" stroke="#707070" stroke-width="2"/>
      <g id="Polígono_79-8" data-name="Polígono 79" transform="translate(101.937 0) rotate(90)" fill="#636363">
        <path d="M 6.312440395355225 5.49628210067749 L 0.8831009268760681 5.49628210067749 L 3.597770690917969 0.971835196018219 L 6.312440395355225 5.49628210067749 Z" stroke="none"/>
        <path d="M 3.597770690917969 1.943651676177979 L 1.766191005706787 4.99628210067749 L 5.429349899291992 4.99628210067749 L 3.597770690917969 1.943651676177979 M 3.597770690917969 2.384185791015625e-06 L 7.195540904998779 5.99628210067749 L 4.76837158203125e-07 5.99628210067749 L 3.597770690917969 2.384185791015625e-06 Z" stroke="none" fill="#707070"/>
      </g>
    </g>
    <g id="Grupo_167695" data-name="Grupo 167695" transform="translate(334.957 5488.829)">
      <line id="Línea_1135-9" data-name="Línea 1135" x2="97.14" transform="translate(0 3.598)" fill="none" stroke="#707070" stroke-width="2"/>
      <g id="Polígono_79-9" data-name="Polígono 79" transform="translate(101.937 0) rotate(90)" fill="#636363">
        <path d="M 6.312440395355225 5.49628210067749 L 0.8831009268760681 5.49628210067749 L 3.597770690917969 0.971835196018219 L 6.312440395355225 5.49628210067749 Z" stroke="none"/>
        <path d="M 3.597770690917969 1.943651676177979 L 1.766191005706787 4.99628210067749 L 5.429349899291992 4.99628210067749 L 3.597770690917969 1.943651676177979 M 3.597770690917969 2.384185791015625e-06 L 7.195540904998779 5.99628210067749 L 4.76837158203125e-07 5.99628210067749 L 3.597770690917969 2.384185791015625e-06 Z" stroke="none" fill="#707070"/>
      </g>
    </g>
  </g>
</svg>
