<svg xmlns="http://www.w3.org/2000/svg" xmlns:xlink="http://www.w3.org/1999/xlink" width="150" height="150" viewBox="0 0 150 150">
  <defs>
    <filter id="Elipse_6112" x="0" y="0" width="150" height="150" filterUnits="userSpaceOnUse">
      <feOffset dy="12" input="SourceAlpha"/>
      <feGaussianBlur stdDeviation="6" result="blur"/>
      <feFlood flood-opacity="0.161"/>
      <feComposite operator="in" in2="blur"/>
      <feComposite in="SourceGraphic"/>
    </filter>
    <filter id="Elipse_6112-2" x="0" y="0" width="150" height="150" filterUnits="userSpaceOnUse">
      <feOffset dy="4" input="SourceAlpha"/>
      <feGaussianBlur stdDeviation="3" result="blur-2"/>
      <feFlood flood-opacity="0.161" result="color"/>
      <feComposite operator="out" in="SourceGraphic" in2="blur-2"/>
      <feComposite operator="in" in="color"/>
      <feComposite operator="in" in2="SourceGraphic"/>
    </filter>
  </defs>
  <g id="Grupo_891222" data-name="Grupo 891222" transform="translate(11705 6897)">
    <g data-type="innerShadowGroup">
      <g transform="matrix(1, 0, 0, 1, -11705, -6897)" filter="url(#Elipse_6112)">
        <circle id="Elipse_6112-3" data-name="Elipse 6112" cx="57" cy="57" r="57" transform="translate(18 6)" fill="#fff"/>
      </g>
      <g transform="matrix(1, 0, 0, 1, -11705, -6897)" filter="url(#Elipse_6112-2)">
        <circle id="Elipse_6112-4" data-name="Elipse 6112" cx="57" cy="57" r="57" transform="translate(18 6)" fill="#fff"/>
      </g>
    </g>
    <g id="Grupo_238266" data-name="Grupo 238266" transform="translate(-11664.891 -6868.164)">
      <g id="Grupo_166757" data-name="Grupo 166757" transform="translate(1.236)">
        <g id="Grupo_166758" data-name="Grupo 166758" transform="translate(0 0)">
          <path id="Trazado_257926" data-name="Trazado 257926" d="M233.8,138.536h11.054v11.1a12.727,12.727,0,0,0,1.34-.016.76.76,0,0,0,.456-.33,4.029,4.029,0,0,1,3.578-1.879c.973.006,1.946-.015,2.918.006a3.971,3.971,0,0,1,3.839,4.894c-.518,2.129-1.155,4.231-1.787,6.33a1.675,1.675,0,0,0,.215,1.538c1.212,1.885,2.428,3.772,3.552,5.71a11.462,11.462,0,0,1-4.635,15.9,10.242,10.242,0,0,1-4.663,1.184c-5.211.023-10.422.011-15.633.011a2.265,2.265,0,0,1-.235-.028Zm15.539,22.221c-1.088,0-2.177.021-3.264-.011a.873.873,0,0,0-.884.48c-1.034,1.7-2.071,3.4-3.157,5.06a9.95,9.95,0,0,0-1.6,5.919,8.938,8.938,0,0,0,10.785,8.358,9.193,9.193,0,0,0,5.667-13.846c-1.133-1.854-2.306-3.684-3.444-5.535a.768.768,0,0,0-.766-.437c-1.11.03-2.222.011-3.333.011m-13.307-19.992v39.946h6.534a11.477,11.477,0,0,1-4.077-11.746,14.939,14.939,0,0,1,2.4-5.039c.859-1.362,1.71-2.73,2.589-4.135-.976-.968-1.913-1.893-2.845-2.824a4.209,4.209,0,0,1-1.306-2.972c-.044-2,1.045-3.407,3.291-4.282v-8.948Zm16.912,17.768c.645-2.278,1.328-4.53,1.909-6.808a1.755,1.755,0,0,0-1.783-2.078c-.925-.028-1.852-.012-2.778-.006a1.851,1.851,0,0,0-2.071,2.045c-.006.781,0,1.561,0,2.362h-2.245v-2.185c-.784,0-1.5.007-2.214,0a2.015,2.015,0,0,0-2.048,1.261,1.993,1.993,0,0,0,.558,2.335c.919.915,1.826,1.841,2.757,2.743a1.065,1.065,0,0,0,.637.32c2.407.022,4.813.014,7.278.014" transform="translate(-191.509 -114.09)" fill="#010101"/>
          <path id="Trazado_257927" data-name="Trazado 257927" d="M67.707,9.059h-6.1v-2.2h9.943V16.8H69.379V10.634c-.223.212-.348.326-.467.445q-5.429,5.427-10.864,10.85a.7.7,0,0,0-.21.935,4.4,4.4,0,0,1-6.743,5.246.794.794,0,0,0-1.077-.067c-2.334,1.362-4.686,2.7-7.035,4.031-.3.169-.487.293-.4.731a4.378,4.378,0,0,1-2.732,4.847,4.445,4.445,0,0,1-5.36-1.742c-.123-.19-.229-.39-.331-.564a1.111,1.111,0,0,0-.183-.007c-1.16.2-2.319.4-3.533.6A12.224,12.224,0,0,1,26.063,46.2a11.936,11.936,0,0,1-8.189,2.873A12.238,12.238,0,1,1,30.08,33.731c1.125-.182,2.26-.351,3.386-.566a.657.657,0,0,0,.4-.443A4.439,4.439,0,0,1,41.1,30.106a.77.77,0,0,0,.694.059q3.691-2.061,7.344-4.189a.77.77,0,0,0,.27-.637,4.271,4.271,0,0,1,1.621-4.186,4.173,4.173,0,0,1,4.5-.605c.307.13.522.254.839-.065q5.579-5.621,11.192-11.209a1.887,1.887,0,0,0,.149-.216M18.254,26.84a10.006,10.006,0,1,0,9.964,10.014A10.025,10.025,0,0,0,18.254,26.84m35.54,0a2.223,2.223,0,1,0-2.221-2.259,2.245,2.245,0,0,0,2.221,2.259M38.285,31.287a2.224,2.224,0,1,0,2.164,2.246,2.236,2.236,0,0,0-2.164-2.246" transform="translate(-5.978 -6.857)" fill="#030303"/>
          <path id="Trazado_257928" data-name="Trazado 257928" d="M172.979,222.1h-11.04V186.578h11.04Zm-8.812-2.254h6.585V188.783h-6.585Z" transform="translate(-132.985 -153.214)"/>
          <path id="Trazado_257929" data-name="Trazado 257929" d="M18.047,246.467H29.112v24.381H18.047Zm2.226,22.152h6.612V248.7H20.273Z" transform="translate(-15.806 -201.984)"/>
          <path id="Trazado_257930" data-name="Trazado 257930" d="M101.1,280.589H90.039V258.425H101.1Zm-2.223-19.932H92.269v17.7h6.612Z" transform="translate(-74.433 -211.722)"/>
          <path id="Trazado_257931" data-name="Trazado 257931" d="M278.4,258.178c1.111,0,2.223.019,3.333-.011a.768.768,0,0,1,.766.437c1.138,1.851,2.312,3.68,3.444,5.535a9.193,9.193,0,0,1-5.667,13.846,8.938,8.938,0,0,1-10.785-8.358,9.95,9.95,0,0,1,1.6-5.919c1.087-1.665,2.123-3.362,3.157-5.06a.873.873,0,0,1,.884-.48c1.087.032,2.176.011,3.264.011m1.1,17.767c0-.684-.028-1.308.016-1.927a.79.79,0,0,1,.34-.56,3.186,3.186,0,0,0-.085-5.827,14.229,14.229,0,0,1-1.965-1.02,1.225,1.225,0,0,1-.452-1.022,1.287,1.287,0,0,1,.871-.708c.732-.16,1.037.132,1.383,1.051h2.113a3.045,3.045,0,0,0-1.7-2.9.809.809,0,0,1-.526-.9c.037-.566.009-1.137.009-1.682h-2.225c0,.63-.017,1.208.006,1.786a.664.664,0,0,1-.433.741,2.971,2.971,0,0,0-1.786,2.758,3.059,3.059,0,0,0,1.78,2.911c.656.343,1.322.663,1.982,1,.51.258.813.644.606,1.232a1.028,1.028,0,0,1-1.248.633.946.946,0,0,1-.905-1.032c-.006-.384,0-.768,0-1.135h-2.191c-.188,1.814.141,3.329,1.951,4.156.129.059.221.326.228.5.027.64.011,1.281.011,1.942Z" transform="translate(-220.568 -211.512)" fill="#ced371"/>
          <path id="Trazado_257932" data-name="Trazado 257932" d="M245.825,150.54h6.586v8.948c-2.246.875-3.335,2.284-3.291,4.282a4.209,4.209,0,0,0,1.306,2.972c.932.931,1.87,1.856,2.845,2.824-.879,1.4-1.729,2.772-2.589,4.135a14.936,14.936,0,0,0-2.4,5.039,11.477,11.477,0,0,0,4.077,11.746h-6.534Z" transform="translate(-201.298 -123.866)" fill="#a3314f"/>
          <path id="Trazado_257933" data-name="Trazado 257933" d="M286.895,207.2c-2.465,0-4.872.008-7.278-.014a1.065,1.065,0,0,1-.638-.32c-.931-.9-1.839-1.828-2.757-2.743a1.993,1.993,0,0,1-.558-2.334,2.015,2.015,0,0,1,2.048-1.261c.715.009,1.43,0,2.214,0v2.185h2.245c0-.8-.005-1.582,0-2.362a1.851,1.851,0,0,1,2.071-2.045c.926-.005,1.853-.022,2.778.007a1.755,1.755,0,0,1,1.783,2.078c-.581,2.278-1.264,4.53-1.909,6.808" transform="translate(-225.456 -162.754)" fill="#ced371"/>
          <path id="Trazado_257934" data-name="Trazado 257934" d="M28.02,114.495a10.006,10.006,0,1,1-10.05,9.926,10.028,10.028,0,0,1,10.05-9.926m1.069,2.257H26.865c0,.653.033,1.276-.018,1.892a.873.873,0,0,1-.38.6,3.151,3.151,0,0,0-1.815,2.9,3.094,3.094,0,0,0,1.854,2.868c.638.324,1.281.64,1.922.96a.945.945,0,0,1,.614,1.174c-.187.618-.7.756-1.281.684a.929.929,0,0,1-.89-.972c-.017-.406,0-.813,0-1.194H24.675c-.194,1.845.161,3.373,2.014,4.182.107.047.163.308.168.471.019.64.008,1.282.008,1.931H29.09c0-.658-.027-1.281.015-1.9a.789.789,0,0,1,.327-.567,3.186,3.186,0,0,0-.054-5.826,14.97,14.97,0,0,1-1.964-1.018,1.381,1.381,0,0,1-.49-1.022c.012-.473.427-.725.931-.749.758-.037,1.047.194,1.316,1.071h2.142a2.654,2.654,0,0,0-1.224-2.541,1.867,1.867,0,0,1-1-2.177c.019-.23,0-.462,0-.765" transform="translate(-15.744 -94.512)" fill="#ffb500"/>
          <path id="Trazado_257935" data-name="Trazado 257935" d="M253.8,94.982a2.223,2.223,0,1,1,2.224-2.188,2.241,2.241,0,0,1-2.224,2.188" transform="translate(-205.982 -75.001)" fill="#ffb500"/>
          <path id="Trazado_257936" data-name="Trazado 257936" d="M170,138.446a2.224,2.224,0,1,1-2.28,2.129,2.243,2.243,0,0,1,2.28-2.129" transform="translate(-137.689 -114.017)" fill="#ffb500"/>
          <rect id="Rectángulo_52712" data-name="Rectángulo 52712" width="6.585" height="31.063" transform="translate(31.181 35.57)" fill="#a3314f"/>
          <rect id="Rectángulo_52713" data-name="Rectángulo 52713" width="6.612" height="19.924" transform="translate(4.467 46.711)" fill="#a3314f"/>
          <rect id="Rectángulo_52714" data-name="Rectángulo 52714" width="6.612" height="17.7" transform="translate(17.836 48.934)" fill="#a3314f"/>
          <path id="Trazado_257937" data-name="Trazado 257937" d="M303.885,285.974H301.66c0-.661.016-1.3-.011-1.942-.007-.175-.1-.442-.228-.5-1.809-.827-2.138-2.342-1.951-4.156h2.191c0,.366,0,.75,0,1.134a.945.945,0,0,0,.905,1.032,1.028,1.028,0,0,0,1.248-.633c.208-.588-.1-.974-.606-1.232-.66-.334-1.327-.655-1.982-1a3.059,3.059,0,0,1-1.781-2.911,2.971,2.971,0,0,1,1.786-2.758.664.664,0,0,0,.433-.741c-.023-.577-.006-1.156-.006-1.786h2.225c0,.545.028,1.115-.009,1.682a.808.808,0,0,0,.526.9,3.045,3.045,0,0,1,1.7,2.9h-2.113c-.346-.919-.651-1.211-1.383-1.051a1.287,1.287,0,0,0-.871.708,1.225,1.225,0,0,0,.452,1.022,14.23,14.23,0,0,0,1.965,1.021,3.186,3.186,0,0,1,.085,5.827.79.79,0,0,0-.34.56c-.044.619-.016,1.243-.016,1.927" transform="translate(-244.947 -221.541)" fill="#020201"/>
          <path id="Trazado_257938" data-name="Trazado 257938" d="M58.295,126.65c0,.3.017.535,0,.765a1.867,1.867,0,0,0,1,2.177,2.654,2.654,0,0,1,1.224,2.541H58.376c-.268-.877-.558-1.108-1.316-1.071-.5.025-.919.276-.931.749a1.381,1.381,0,0,0,.49,1.022,14.971,14.971,0,0,0,1.964,1.018,3.186,3.186,0,0,1,.054,5.826.789.789,0,0,0-.327.567c-.042.618-.015,1.241-.015,1.9H56.07c0-.649.011-1.291-.008-1.931,0-.164-.061-.425-.168-.471-1.853-.809-2.208-2.337-2.014-4.182h2.192c0,.381-.013.788,0,1.194a.929.929,0,0,0,.89.972c.58.072,1.094-.066,1.281-.684a.945.945,0,0,0-.614-1.174c-.641-.32-1.284-.636-1.922-.96a3.094,3.094,0,0,1-1.854-2.868,3.151,3.151,0,0,1,1.815-2.9.873.873,0,0,0,.38-.6c.051-.616.018-1.239.018-1.892Z" transform="translate(-44.949 -104.411)" fill="#030201"/>
        </g>
      </g>
      <g id="Grupo_166760" data-name="Grupo 166760" transform="translate(0 39.833)">
        <g id="Grupo_166761" data-name="Grupo 166761" transform="translate(0 0)">
          <path id="Trazado_257940" data-name="Trazado 257940" d="M33.8,21.451c.365.227.42.39.26.786a7.338,7.338,0,0,1-1.529,2.324,7.6,7.6,0,0,1,1.193,2.315,4.67,4.67,0,0,1,.13,2.983A3.691,3.691,0,0,1,29.6,32.291a.4.4,0,0,0-.328.073,3.677,3.677,0,0,1-4.625.847c-.533.313-1.025.623-1.538.891a4.068,4.068,0,0,1-.758.228H21.236a5.065,5.065,0,0,1-.747-.276c-.463-.256-.906-.549-1.4-.85a3.517,3.517,0,0,1-3.4.091,9.754,9.754,0,0,1-1.2-.892.517.517,0,0,0-.347-.113,3.684,3.684,0,0,1-4.421-3.017,4.969,4.969,0,0,1,.4-2.752c.273-.66.63-1.285.976-1.977a12.785,12.785,0,0,1-1.451-3.107.993.993,0,0,0-.211-.283,4.687,4.687,0,0,1-1.029-4.863,2.124,2.124,0,0,0,.12-1.57,5.427,5.427,0,0,1,.012-2.563c.065-.453.128-.909.236-1.353a1.157,1.157,0,0,1,1.79-.859c.547.265,1.053.614,1.582.917.453.26.912.51,1.369.765a5.946,5.946,0,0,1,.336-.72.822.822,0,0,1,1.363-.162,3.934,3.934,0,0,0,2.59,1.091c.27.036.543.05.816.068.376.025.5.135.589.524a.508.508,0,0,1-.573.462A5.842,5.842,0,0,1,14.6,11.526a5.232,5.232,0,0,0-.115.579,5.91,5.91,0,0,0,1.652,4.439.574.574,0,0,0,.378.135,7.08,7.08,0,0,0,3.606-.6.464.464,0,0,1,.69.455.759.759,0,0,1-.356.458,7.135,7.135,0,0,1-3.429.69c-.169,0-.339,0-.581,0A12.642,12.642,0,0,0,16.729,19a1.008,1.008,0,0,0,1.013.743,4.5,4.5,0,0,0,2.525-.673.489.489,0,1,1,.547.808,4.411,4.411,0,0,1-.959.481c-.521.167-1.064.268-1.621.4a2.5,2.5,0,0,0,1.488,1.123,5.683,5.683,0,0,0,3.11.308,4.462,4.462,0,0,0,3.812-2.831,6.977,6.977,0,0,0,.4-3.281,2.88,2.88,0,0,0-2.466-2.74.6.6,0,0,0-.149-.058c-1.083-.11-2.166-.224-3.25-.321-.4-.036-.531-.129-.609-.533a.552.552,0,0,1,.648-.456,14.419,14.419,0,0,1,3.178.381.425.425,0,0,0,.327-.055,11.93,11.93,0,0,0,3.6-4.5c.022-.047.035-.1.056-.158a2.459,2.459,0,0,1-1.2-1.758,2.417,2.417,0,0,1,1.5-2.6.4.4,0,0,0,.217-.249A2.44,2.44,0,0,1,30.782.825a2.392,2.392,0,0,1,2.674,1.238.862.862,0,0,0,.059.079,2.452,2.452,0,0,1,2.366,3.84l3.43,1.667c.176.086.356.166.524.266a.736.736,0,0,1,.412.725.749.749,0,0,1-.53.646c-.809.322-1.619.64-2.429.959l-.118.047c.047.407.11.8.135,1.2a4.019,4.019,0,0,1-.269,1.8,1.948,1.948,0,0,1-2.868,1.052c-.046-.024-.094-.042-.247-.109.141.869.293,1.659.393,2.455q.179,1.426.28,2.861c.033.461-.111.589-.571.674a.56.56,0,0,1-.409-.59,12.23,12.23,0,0,0-.354-3.209,7.473,7.473,0,0,1,.14-4.382c.407-1.062.947-2.074,1.449-3.1a2.245,2.245,0,0,0,.311-1.4,2.826,2.826,0,0,0-2.91-2.179,2.482,2.482,0,0,0-1.932.877,5.346,5.346,0,0,0-1.076,1.926A9.611,9.611,0,0,1,26.275,12.4c-.136.112-.278.216-.439.341a3.673,3.673,0,0,1,2,2.269,6.953,6.953,0,0,1,.154,2.888,5.821,5.821,0,0,1-1.594,3.64A6.906,6.906,0,0,1,19,22.672a3.063,3.063,0,0,1-1.811-1.9A.351.351,0,0,0,17,20.583a1.97,1.97,0,0,1-1.216-1.329c-.145-.53-.17-1.092-.264-1.636a.979.979,0,0,0-.177-.459,7.86,7.86,0,0,1-1.748-3.432c-.08-.355-.034-.8-.233-1.051-.213-.274-.653-.366-.983-.556-.708-.407-1.406-.833-2.116-1.238-.351-.2-.49-.157-.54.186-.13.9-.263,1.792-.33,2.693a2.155,2.155,0,0,0,.588,1.681,8.844,8.844,0,0,0,1.975,1.551.726.726,0,0,1,.34.4.637.637,0,0,1-.183.477.45.45,0,0,1-.6-.006c-.7-.479-1.393-.965-2.1-1.454a3.02,3.02,0,0,0-.24,2.035A3.425,3.425,0,0,0,10.9,21.009c.87.45,1.746.886,2.622,1.324.2.1.427.168.626.279a.448.448,0,0,1,.23.582.462.462,0,0,1-.571.317,1.194,1.194,0,0,1-.274-.1c-.83-.375-1.658-.751-2.524-1.144a8.988,8.988,0,0,0,3.548,4.309,17.951,17.951,0,0,1,1.213-1.342,2.1,2.1,0,0,1,2.093-.523,2.975,2.975,0,0,1,1.407.975c.194.226.371.467.559.705a2.738,2.738,0,0,1,2.055-1.107,2.72,2.72,0,0,1,1.971,1.048,14.594,14.594,0,0,1,1.354-1.292,2.036,2.036,0,0,1,2.5,0,8.778,8.778,0,0,1,.741.638l.356.463c.542-.37,1.079-.7,1.579-1.084a8.126,8.126,0,0,0,2.826-3.317.488.488,0,0,1,.594-.286m1.758-11.6,3.353-1.3-.766-.362L36.125,7.2a3.318,3.318,0,0,1-.231,1.886l-.382.711-.03.066.079-.009m-.294,3.768a.739.739,0,0,0,.7-.4,3.473,3.473,0,0,0,.257-2.527,1.542,1.542,0,0,0-.174.042c-.131.052-.26.108-.39.162-.244.092-.494.173-.73.283a.487.487,0,0,0-.241.232c-.179.478-.342.962-.5,1.449a.322.322,0,0,0,.04.264,1.132,1.132,0,0,0,1.037.5M29.673,27.779a5.136,5.136,0,0,1,.211,3.524,2.12,2.12,0,0,0,1.392-.1A2.522,2.522,0,0,0,32.964,29.4a4.035,4.035,0,0,0-.285-2.522,5.417,5.417,0,0,0-.846-1.588L29.311,27l.361.782M13.035,31.354h.824a5.216,5.216,0,0,1,.282-3.766L11.708,25.5l-.386.754a14.842,14.842,0,0,0-.612,1.942,2.651,2.651,0,0,0,2.326,3.154M34.476,4.968l.556.44a1.366,1.366,0,0,0-.35-2.038A1.3,1.3,0,0,0,33.441,3.2c-.419.124-.608.023-.742-.389a1.423,1.423,0,0,0-2.768.659.51.51,0,0,1-.477.64,2.023,2.023,0,0,0-.615.2,1.339,1.339,0,0,0-.7,1.251A1.316,1.316,0,0,0,28.771,6.7a.37.37,0,0,0,.049-.043c.051-.083.1-.168.153-.251a3.764,3.764,0,0,1,3.55-2.037,4.693,4.693,0,0,1,1.954.6M26.613,32.675a2.659,2.659,0,0,0,2.5-2.336,4.873,4.873,0,0,0-.656-2.818,7.555,7.555,0,0,0-1.082-1.495,1.09,1.09,0,0,0-1.358-.307,3.035,3.035,0,0,0-1.274,1.227.607.607,0,0,0-.031.707c.722,1.5,1.2,3.03.43,4.693a2.44,2.44,0,0,0,1.474.329m-8.721-.063.72-.244a3.7,3.7,0,0,1-.4-2,7.437,7.437,0,0,1,.839-2.794c.054-.107.125-.27.083-.349a3.329,3.329,0,0,0-1.338-1.479,1.012,1.012,0,0,0-1.109.053,5,5,0,0,0-.69.585,6.086,6.086,0,0,0-1.365,3.135,2.682,2.682,0,0,0,3.264,3.1m4.274.7a5.39,5.39,0,0,0,1.149-.414,2.511,2.511,0,0,0,1.216-2.5,5.906,5.906,0,0,0-1.646-3.643,1.291,1.291,0,0,0-1.192-.47,3.57,3.57,0,0,0-.858.49,5.658,5.658,0,0,0-1.644,3.871,2.636,2.636,0,0,0,2.976,2.667" transform="translate(-8.113 -0.763)" fill="#040303"/>
          <path id="Trazado_257941" data-name="Trazado 257941" d="M86.749,124.556c.078.4.209.5.609.533,1.084.1,2.167.211,3.25.321a.6.6,0,0,1,.149.058c.068.16.129.322.2.478a4.57,4.57,0,0,1,.373,2.065,12.106,12.106,0,0,1-.185,1.579,4.844,4.844,0,0,1-1.3,2.72A5.319,5.319,0,0,1,87,133.8c-.365.076-.733.142-1.1.213a2.5,2.5,0,0,1-1.488-1.123c.557-.135,1.1-.235,1.621-.4a4.407,4.407,0,0,0,.959-.481.489.489,0,1,0-.547-.808,4.5,4.5,0,0,1-2.525.673,1.008,1.008,0,0,1-1.013-.743,12.644,12.644,0,0,1-.286-1.32c.242,0,.411,0,.581,0a7.134,7.134,0,0,0,3.428-.69.759.759,0,0,0,.356-.458.464.464,0,0,0-.69-.455,7.081,7.081,0,0,1-3.606.6.574.574,0,0,1-.377-.135,5.91,5.91,0,0,1-1.652-4.439,5.253,5.253,0,0,1,.115-.579,5.843,5.843,0,0,0,4.042,1.365.508.508,0,0,0,.573-.462h1.359" transform="translate(-74.289 -112.888)" fill="#dbd8ea"/>
          <path id="Trazado_257942" data-name="Trazado 257942" d="M245.637,69.327a.489.489,0,0,0-.594.286,8.125,8.125,0,0,1-2.826,3.317c-.5.381-1.036.714-1.579,1.084l-.356-.463a9.4,9.4,0,0,0,2.007-1.7,6.868,6.868,0,0,0,1.725-4.56,22.269,22.269,0,0,0-.469-3.7,9.065,9.065,0,0,1-.072-2.272,11.391,11.391,0,0,1,1.718-4.3,2.613,2.613,0,0,0,.293-1.888,3.028,3.028,0,0,0-1.4-1.892,2.826,2.826,0,0,1,2.91,2.179,2.245,2.245,0,0,1-.311,1.405c-.5,1.024-1.042,2.036-1.449,3.1a7.473,7.473,0,0,0-.14,4.382,12.232,12.232,0,0,1,.354,3.209.56.56,0,0,0,.409.59l-.22,1.227" transform="translate(-219.947 -48.639)" fill="#dbd8e9"/>
          <path id="Trazado_257943" data-name="Trazado 257943" d="M42.51,53.244a3.028,3.028,0,0,1,1.4,1.892,2.613,2.613,0,0,1-.293,1.888,11.391,11.391,0,0,0-1.718,4.3,9.067,9.067,0,0,0,.072,2.272,22.27,22.27,0,0,1,.469,3.7,6.868,6.868,0,0,1-1.725,4.56,9.4,9.4,0,0,1-2.007,1.7,8.81,8.81,0,0,0-.741-.638,2.036,2.036,0,0,0-2.5,0,14.619,14.619,0,0,0-1.354,1.292,2.721,2.721,0,0,0-1.971-1.048,2.738,2.738,0,0,0-2.055,1.107c-.188-.239-.364-.48-.559-.705a2.976,2.976,0,0,0-1.407-.975,2.1,2.1,0,0,0-2.093.523,17.947,17.947,0,0,0-1.213,1.342,8.988,8.988,0,0,1-3.548-4.308c.865.392,1.694.769,2.524,1.144a1.193,1.193,0,0,0,.274.1.462.462,0,0,0,.571-.317.447.447,0,0,0-.23-.582c-.2-.111-.422-.177-.626-.279-.876-.437-1.753-.874-2.622-1.324a3.425,3.425,0,0,1-1.725-2.564,3.02,3.02,0,0,1,.24-2.036c.7.489,1.4.975,2.1,1.454a.45.45,0,0,0,.6.005.636.636,0,0,0,.183-.477.725.725,0,0,0-.34-.4,8.844,8.844,0,0,1-1.975-1.551,2.156,2.156,0,0,1-.588-1.681c.066-.9.2-1.8.33-2.694.05-.343.189-.386.54-.186.71.4,1.408.83,2.116,1.238.33.19.77.282.983.556.2.256.152.7.233,1.051A7.859,7.859,0,0,0,25.6,65.043a.98.98,0,0,1,.177.459c.095.545.12,1.106.264,1.636a1.97,1.97,0,0,0,1.216,1.329.351.351,0,0,1,.192.185,3.063,3.063,0,0,0,1.811,1.9,6.906,6.906,0,0,0,7.391-1.137,5.82,5.82,0,0,0,1.594-3.64,6.952,6.952,0,0,0-.154-2.888,3.673,3.673,0,0,0-2-2.269c.161-.125.3-.229.439-.341A9.611,9.611,0,0,0,39.5,56.047a5.347,5.347,0,0,1,1.076-1.926,2.483,2.483,0,0,1,1.932-.877m1.134,2.431a2.183,2.183,0,0,0-.4-.592.571.571,0,0,0-.5.044.771.771,0,0,0,0,1.074.578.578,0,0,0,.5.045c.163-.109.246-.337.4-.57" transform="translate(-18.373 -48.647)" fill="#f7f4f4"/>
          <path id="Trazado_257944" data-name="Trazado 257944" d="M137.539,299.2a2.636,2.636,0,0,1-2.976-2.667,5.658,5.658,0,0,1,1.644-3.871,3.571,3.571,0,0,1,.858-.49.907.907,0,0,0,.094.166,7.2,7.2,0,0,1,1.577,3.075,3.392,3.392,0,0,1-.561,3.107c-.192.242-.422.454-.635.68" transform="translate(-123.486 -266.647)" fill="#fdddce"/>
          <path id="Trazado_257945" data-name="Trazado 257945" d="M140.665,152.938c.367-.07.735-.136,1.1-.212a5.32,5.32,0,0,0,2.848-1.489,4.845,4.845,0,0,0,1.3-2.72,12.118,12.118,0,0,0,.185-1.579,4.568,4.568,0,0,0-.373-2.065c-.075-.156-.136-.319-.2-.478a2.88,2.88,0,0,1,2.466,2.74,6.977,6.977,0,0,1-.4,3.281,4.462,4.462,0,0,1-3.812,2.831,5.683,5.683,0,0,1-3.11-.308" transform="translate(-129.055 -131.814)" fill="#cecce5"/>
          <path id="Trazado_257946" data-name="Trazado 257946" d="M85.474,293.367a2.682,2.682,0,0,1-3.264-3.1,6.086,6.086,0,0,1,1.365-3.135,4.993,4.993,0,0,1,.69-.585,2.38,2.38,0,0,1,.64.3c.7.636,1.148,1.042.619,2.012a4.754,4.754,0,0,0-.44,3.171,12.354,12.354,0,0,0,.39,1.337" transform="translate(-75.695 -261.519)" fill="#fdece4"/>
          <path id="Trazado_257947" data-name="Trazado 257947" d="M198.477,292.645a2.441,2.441,0,0,1-1.474-.329c.771-1.663.292-3.2-.43-4.693a.607.607,0,0,1,.031-.707,3.036,3.036,0,0,1,1.274-1.227,13.314,13.314,0,0,1,1.092,1.153,4.926,4.926,0,0,1,1.022,3.472,2.6,2.6,0,0,1-1.514,2.331" transform="translate(-179.977 -260.733)" fill="#fdece4"/>
          <path id="Trazado_257948" data-name="Trazado 257948" d="M243.1,15.2a4.692,4.692,0,0,0-1.954-.6,3.764,3.764,0,0,0-3.55,2.037c-.052.083-.1.168-.153.251a.38.38,0,0,1-.049.043,1.316,1.316,0,0,1-.631-1.135,1.339,1.339,0,0,1,.7-1.251,2.025,2.025,0,0,1,.615-.2.51.51,0,0,0,.477-.64,1.423,1.423,0,0,1,2.768-.659c.134.412.323.513.742.389a1.3,1.3,0,0,1,1.241.167,2.376,2.376,0,0,1-.206,1.6" transform="translate(-216.735 -11)" fill="#a3314f"/>
          <path id="Trazado_257949" data-name="Trazado 257949" d="M39.6,296.937a2.651,2.651,0,0,1-2.326-3.154,14.833,14.833,0,0,1,.612-1.942,2.006,2.006,0,0,1,.178.141c.479.472.964.939,1.428,1.425a.531.531,0,0,1,.088.373c-.045.506-.161,1.01-.157,1.514a15.491,15.491,0,0,0,.177,1.642" transform="translate(-34.68 -266.346)" fill="#fdddcd"/>
          <path id="Trazado_257950" data-name="Trazado 257950" d="M255.87,302.5a2.12,2.12,0,0,1-1.392.1,5.136,5.136,0,0,0-.211-3.524,1.847,1.847,0,0,0,.368-.12c.434-.249.868-.5,1.285-.774.2-.132.285-.106.349.114s.145.411.2.62a3.7,3.7,0,0,1-.028,2.609,9.907,9.907,0,0,1-.575.977" transform="translate(-232.707 -272.054)" fill="#fdddcd"/>
          <path id="Trazado_257951" data-name="Trazado 257951" d="M252.107,286.716a9.894,9.894,0,0,0,.575-.977,3.7,3.7,0,0,0,.028-2.609c-.06-.209-.144-.411-.2-.62s-.149-.246-.349-.114c-.417.276-.851.525-1.285.774a1.844,1.844,0,0,1-.368.12l-.361-.782,2.522-1.706a5.419,5.419,0,0,1,.846,1.588,4.035,4.035,0,0,1,.285,2.523,2.523,2.523,0,0,1-1.689,1.805" transform="translate(-228.944 -256.272)" fill="#f7c4b5"/>
          <path id="Trazado_257952" data-name="Trazado 257952" d="M163.621,298.989c.213-.226.443-.438.635-.68a3.392,3.392,0,0,0,.561-3.107,7.2,7.2,0,0,0-1.576-3.075.907.907,0,0,1-.094-.166,1.291,1.291,0,0,1,1.192.47,5.906,5.906,0,0,1,1.646,3.643,2.511,2.511,0,0,1-1.216,2.5,5.393,5.393,0,0,1-1.149.414" transform="translate(-149.568 -266.437)" fill="#f7c4b5"/>
          <path id="Trazado_257953" data-name="Trazado 257953" d="M213.089,291.372a2.6,2.6,0,0,0,1.514-2.331,4.926,4.926,0,0,0-1.022-3.472,13.317,13.317,0,0,0-1.092-1.153,1.09,1.09,0,0,1,1.358.307,7.558,7.558,0,0,1,1.082,1.494,4.873,4.873,0,0,1,.656,2.818,2.659,2.659,0,0,1-2.5,2.336" transform="translate(-194.589 -259.46)" fill="#fbdbcc"/>
          <path id="Trazado_257954" data-name="Trazado 257954" d="M107.165,291.357a12.358,12.358,0,0,1-.39-1.337,4.754,4.754,0,0,1,.44-3.171c.529-.97.084-1.376-.619-2.012a2.38,2.38,0,0,0-.64-.3,1.012,1.012,0,0,1,1.109-.053,3.329,3.329,0,0,1,1.338,1.479c.043.08-.029.243-.083.349a7.438,7.438,0,0,0-.839,2.794,3.7,3.7,0,0,0,.4,2l-.72.244" transform="translate(-97.386 -259.508)" fill="#fbdbcc"/>
          <path id="Trazado_257955" data-name="Trazado 257955" d="M46.459,289.086a15.489,15.489,0,0,1-.177-1.642c0-.5.112-1.008.157-1.514a.531.531,0,0,0-.088-.373c-.464-.486-.949-.954-1.428-1.426a2.012,2.012,0,0,0-.178-.141l.386-.754,2.434,2.084a5.216,5.216,0,0,0-.282,3.766Z" transform="translate(-41.536 -258.495)" fill="#f7c4b5"/>
          <path id="Trazado_257956" data-name="Trazado 257956" d="M306.785,119.121a1.132,1.132,0,0,1-1.037-.5.321.321,0,0,1-.04-.264c.154-.487.317-.971.5-1.449a.487.487,0,0,1,.241-.232c.236-.109.486-.19.73-.283a3.915,3.915,0,0,1-.389,2.727" transform="translate(-279.632 -106.266)" fill="#a3314f"/>
          <path id="Trazado_257957" data-name="Trazado 257957" d="M325.292,76.091a3.318,3.318,0,0,0,.231-1.886l2.023.992-2.254.894" transform="translate(-297.511 -67.772)" fill="#ffb500"/>
          <path id="Trazado_257958" data-name="Trazado 257958" d="M321.312,86.428l2.254-.894.766.362-3.353,1.3-.049-.057.382-.711" transform="translate(-293.531 -78.109)" fill="#ffb500"/>
          <path id="Trazado_257959" data-name="Trazado 257959" d="M318.129,117a3.915,3.915,0,0,0,.39-2.727c.13-.054.259-.11.39-.162a1.55,1.55,0,0,1,.174-.041,3.474,3.474,0,0,1-.257,2.526.74.74,0,0,1-.7.4" transform="translate(-290.975 -104.144)" fill="#b55a72"/>
          <path id="Trazado_257960" data-name="Trazado 257960" d="M309.11,32.131a2.376,2.376,0,0,0,.206-1.6,1.366,1.366,0,0,1,.35,2.038l-.556-.44" transform="translate(-282.746 -27.926)" fill="#b55a72"/>
          <path id="Trazado_257961" data-name="Trazado 257961" d="M320.669,103.913l-.079.009.03-.066.049.057" transform="translate(-293.221 -94.826)" fill="#f8cb62"/>
          <path id="Trazado_257962" data-name="Trazado 257962" d="M284.99,74.414c-.154.233-.237.461-.4.57a.578.578,0,0,1-.5-.045.771.771,0,0,1,0-1.074.571.571,0,0,1,.5-.044,2.183,2.183,0,0,1,.4.592" transform="translate(-259.718 -67.385)" fill="#070707"/>
        </g>
      </g>
    </g>
  </g>
</svg>
