<svg xmlns="http://www.w3.org/2000/svg" xmlns:xlink="http://www.w3.org/1999/xlink" width="160" height="160" viewBox="0 0 160 160">
  <defs>
    <filter id="Elipse_6109" x="0" y="0" width="160" height="160" filterUnits="userSpaceOnUse">
      <feOffset dy="12" input="SourceAlpha"/>
      <feGaussianBlur stdDeviation="6" result="blur"/>
      <feFlood flood-opacity="0.161"/>
      <feComposite operator="in" in2="blur"/>
      <feComposite in="SourceGraphic"/>
    </filter>
    <filter id="Elipse_6109-2" x="0" y="0" width="160" height="160" filterUnits="userSpaceOnUse">
      <feOffset dy="4" input="SourceAlpha"/>
      <feGaussianBlur stdDeviation="3" result="blur-2"/>
      <feFlood flood-opacity="0.161" result="color"/>
      <feComposite operator="out" in="SourceGraphic" in2="blur-2"/>
      <feComposite operator="in" in="color"/>
      <feComposite operator="in" in2="SourceGraphic"/>
    </filter>
  </defs>
  <g id="Grupo_891220" data-name="Grupo 891220" transform="translate(9273 6552)">
    <g data-type="innerShadowGroup">
      <g transform="matrix(1, 0, 0, 1, -9273, -6552)" filter="url(#Elipse_6109)">
        <circle id="Elipse_6109-3" data-name="Elipse 6109" cx="62" cy="62" r="62" transform="translate(18 6)" fill="#fff"/>
      </g>
      <g transform="matrix(1, 0, 0, 1, -9273, -6552)" filter="url(#Elipse_6109-2)">
        <circle id="Elipse_6109-4" data-name="Elipse 6109" cx="62" cy="62" r="62" transform="translate(18 6)" fill="#fff"/>
      </g>
    </g>
    <g id="Grupo_238260" data-name="Grupo 238260" transform="translate(-9232.295 -6515.021)">
      <g id="Grupo_166744" data-name="Grupo 166744" transform="translate(0 0)">
        <g id="Grupo_166745" data-name="Grupo 166745" transform="translate(0 0)">
          <path id="Trazado_257840" data-name="Trazado 257840" d="M37.205,80.5l-1.972-6.5h-.7q-8.444,0-16.888,0c-3.583,0-5.739-2.153-5.739-5.729q0-21.705,0-43.411c0-3.557,2.119-5.7,5.655-5.7q33.491-.005,66.982,0c3.6,0,5.7,2.127,5.7,5.743q0,21.665,0,43.329c0,3.628-2.145,5.772-5.778,5.773q-8.4,0-16.807,0h-.745l-1.966,6.484c1.885,1.882,3.942,3.936,6,5.992,1.188,1.188,1.107,2.126-.429,2.725a6.936,6.936,0,0,0-4.234,4.224c-.586,1.539-1.534,1.619-2.715.438-2.058-2.058-4.125-4.106-6.164-6.183a.909.909,0,0,0-1.123-.252,15.219,15.219,0,0,1-10.452-.012.85.85,0,0,0-1.053.239c-2.08,2.112-4.181,4.2-6.281,6.3-1.067,1.063-2.055.97-2.577-.417a6.982,6.982,0,0,0-4.395-4.384c-1.385-.5-1.471-1.516-.4-2.584C33.2,84.5,35.277,82.425,37.205,80.5M51.074,21.774q-16.765,0-33.531,0c-1.946,0-3.021,1-3.022,2.819q0,21.991,0,43.981a2.624,2.624,0,0,0,2.8,2.813c5.847.014,11.694,0,17.541.016.485,0,.643-.146.709-.626A15.181,15.181,0,0,1,49.491,57.193,15.352,15.352,0,0,1,66.559,70.618c.081.632.278.792.9.789,5.657-.024,11.313-.014,16.969-.014,2.269,0,3.208-.947,3.208-3.228,0-14.361-.025-28.723.03-43.084a2.991,2.991,0,0,0-3.3-3.337c-11.095.067-22.191.03-33.286.03m0,37.918A12.853,12.853,0,0,0,38.021,72.786a13.055,13.055,0,0,0,26.11.007,12.855,12.855,0,0,0-13.052-13.1m-17.15,27.9a4.616,4.616,0,0,1,3.608,3.5l5.086-5.084-3.751-3.32-4.943,4.9M63.3,82.677,59.538,86l5.022,5a9.873,9.873,0,0,1,1.318-2.22,9.611,9.611,0,0,1,2.208-1.3L63.3,82.677" transform="translate(-11.907 -19.16)" fill="#030303"/>
          <path id="Trazado_257841" data-name="Trazado 257841" d="M60.446,31.045c11.1,0,22.191.037,33.286-.03a2.991,2.991,0,0,1,3.3,3.337C96.978,48.713,97,63.074,97,77.436c0,2.282-.94,3.228-3.209,3.229-5.656,0-11.313-.01-16.969.014-.617,0-.814-.158-.9-.789A15.352,15.352,0,0,0,58.863,66.464,15.181,15.181,0,0,0,44.945,80.048c-.066.48-.225.628-.71.626-5.847-.016-11.693,0-17.541-.016a2.624,2.624,0,0,1-2.8-2.813q-.006-21.99,0-43.981c0-1.819,1.076-2.818,3.022-2.819q16.765,0,33.531,0M71.565,44.1H53.371c-.353,0-.708,0-1.06.022A3.882,3.882,0,0,0,48.8,48.635a3.938,3.938,0,0,0,4.2,3.3q18.52,0,37.04,0c.163,0,.327,0,.489-.005a3.92,3.92,0,1,0-.368-7.83q-9.3-.011-18.6,0m-5.9-10.446c-4.269,0-8.539-.008-12.808,0a3.92,3.92,0,1,0,0,7.829c4.378.019,8.757.005,13.135.005,4.161,0,8.321.014,12.482-.005a3.92,3.92,0,1,0,0-7.829c-4.27-.012-8.539,0-12.808,0M60.436,61.076H34.908c-1.246,0-1.871.442-1.862,1.307s.655,1.305,1.885,1.307H85.9a5.4,5.4,0,0,0,.733-.018,1.345,1.345,0,0,0,1.213-1.312,1.3,1.3,0,0,0-1.317-1.277c-.243-.016-.489-.008-.734-.008H60.436M35.659,33.663a9.136,9.136,0,0,0,0,18.272,9.136,9.136,0,0,0,0-18.272m24.788,22.19q-6.849,0-13.7,0a6.535,6.535,0,0,0-.814.024,1.2,1.2,0,0,0-1.126,1.191,1.175,1.175,0,0,0,.895,1.294,3.441,3.441,0,0,0,.963.1q13.779.007,27.557,0a3.44,3.44,0,0,0,.963-.1,1.174,1.174,0,0,0,.9-1.293,1.2,1.2,0,0,0-1.126-1.192,6.491,6.491,0,0,0-.814-.024q-6.849,0-13.7,0" transform="translate(-21.279 -28.43)" fill="#d2e1f1"/>
          <path id="Trazado_257842" data-name="Trazado 257842" d="M144.76,205.1a12.855,12.855,0,0,1,13.052,13.1,13.055,13.055,0,0,1-26.11-.007A12.853,12.853,0,0,1,144.76,205.1m.014,23.372A10.246,10.246,0,0,0,155.2,217.954a10.444,10.444,0,0,0-20.886.034,10.255,10.255,0,0,0,10.46,10.482" transform="translate(-105.589 -164.566)" fill="#ffb500"/>
          <path id="Trazado_257843" data-name="Trazado 257843" d="M112.928,315.5l4.944-4.9,3.751,3.32L116.536,319a4.616,4.616,0,0,0-3.608-3.5" transform="translate(-90.907 -247.067)" fill="#ffb500"/>
          <path id="Trazado_257844" data-name="Trazado 257844" d="M234.174,310.544l4.785,4.809a9.609,9.609,0,0,0-2.208,1.3,9.872,9.872,0,0,0-1.318,2.22l-5.022-5,3.764-3.321" transform="translate(-182.779 -247.026)" fill="#ffb500"/>
          <path id="Trazado_257845" data-name="Trazado 257845" d="M160.721,91.039q9.3,0,18.6,0a3.92,3.92,0,1,1,.368,7.83c-.163.01-.326.006-.489.006q-18.52,0-37.04,0a3.938,3.938,0,0,1-4.2-3.3,3.881,3.881,0,0,1,3.508-4.512c.352-.024.707-.022,1.06-.022q9.1,0,18.194,0m-.029,2.613H147.81c-1.984,0-3.968-.012-5.952.009a1.284,1.284,0,0,0-1.376,1.294,1.351,1.351,0,0,0,1.313,1.3c.189.018.38.007.57.007q18.345,0,36.69,0a3.507,3.507,0,0,0,.809-.052,1.218,1.218,0,0,0,1.038-1.353,1.2,1.2,0,0,0-1.214-1.191c-.271-.019-.543-.014-.815-.014H160.692" transform="translate(-110.435 -75.369)" fill="#050505"/>
          <path id="Trazado_257846" data-name="Trazado 257846" d="M154.819,43.113c4.269,0,8.539-.008,12.808,0a3.92,3.92,0,1,1,0,7.829c-4.161.019-8.321.005-12.482.005-4.378,0-8.757.014-13.135-.005a3.92,3.92,0,1,1,0-7.829c4.27-.012,8.539,0,12.808,0m.009,2.613h-12.39c-.244,0-.49,0-.733.014a1.2,1.2,0,0,0-1.212,1.192,1.218,1.218,0,0,0,1.038,1.352,3.52,3.52,0,0,0,.809.052q12.471,0,24.942,0a3.527,3.527,0,0,0,.964-.1,1.173,1.173,0,0,0,.9-1.287,1.2,1.2,0,0,0-1.119-1.2,6.285,6.285,0,0,0-.814-.024q-6.195,0-12.39,0" transform="translate(-110.43 -37.889)" fill="#050505"/>
          <path id="Trazado_257847" data-name="Trazado 257847" d="M93.279,168.912h25.364c.245,0,.49-.008.734.008a1.3,1.3,0,0,1,1.317,1.276,1.345,1.345,0,0,1-1.213,1.312,5.4,5.4,0,0,1-.733.018H67.775c-1.231,0-1.876-.45-1.886-1.307s.616-1.307,1.862-1.307H93.279" transform="translate(-54.122 -136.266)" fill="#050505"/>
          <path id="Trazado_257848" data-name="Trazado 257848" d="M45.209,43.162a9.136,9.136,0,0,1,0,18.272,9.136,9.136,0,0,1,0-18.272m.008,2.611a6.524,6.524,0,1,0,6.5,6.536,6.509,6.509,0,0,0-6.5-6.536" transform="translate(-30.828 -37.93)" fill="#040404"/>
          <path id="Trazado_257849" data-name="Trazado 257849" d="M135.478,144.956q6.849,0,13.7,0a6.5,6.5,0,0,1,.814.024,1.2,1.2,0,0,1,1.126,1.192,1.174,1.174,0,0,1-.9,1.293,3.44,3.44,0,0,1-.963.1q-13.779.007-27.557,0a3.44,3.44,0,0,1-.963-.1,1.175,1.175,0,0,1-.895-1.294,1.2,1.2,0,0,1,1.126-1.191,6.537,6.537,0,0,1,.814-.024q6.848,0,13.7,0" transform="translate(-96.31 -117.534)" fill="#050505"/>
          <path id="Trazado_257850" data-name="Trazado 257850" d="M154.143,237.672a10.255,10.255,0,0,1-10.459-10.482,10.444,10.444,0,0,1,20.886-.034,10.246,10.246,0,0,1-10.426,10.516m-.042-18.151a7.679,7.679,0,0,0-7.8,7.884,7.831,7.831,0,0,0,15.661-.051,7.674,7.674,0,0,0-7.856-7.832" transform="translate(-114.958 -173.768)" fill="#040404"/>
          <path id="Trazado_257851" data-name="Trazado 257851" d="M169.956,103.023h18.182c.272,0,.544-.006.815.014a1.2,1.2,0,0,1,1.214,1.191,1.218,1.218,0,0,1-1.038,1.353,3.508,3.508,0,0,1-.809.052q-18.345,0-36.69,0c-.19,0-.382.012-.57-.007a1.351,1.351,0,0,1-1.313-1.3,1.284,1.284,0,0,1,1.376-1.294c1.984-.021,3.968-.009,5.952-.009h12.882" transform="translate(-119.699 -84.739)" fill="#a3314f"/>
          <path id="Trazado_257852" data-name="Trazado 257852" d="M164.139,55.107q6.195,0,12.39,0a6.284,6.284,0,0,1,.814.024,1.2,1.2,0,0,1,1.119,1.2,1.173,1.173,0,0,1-.9,1.287,3.527,3.527,0,0,1-.964.1q-12.471.008-24.942,0a3.521,3.521,0,0,1-.809-.052,1.218,1.218,0,0,1-1.038-1.352,1.2,1.2,0,0,1,1.212-1.192c.243-.018.489-.014.733-.014h12.39" transform="translate(-119.74 -47.271)" fill="#a3314f"/>
          <path id="Trazado_257853" data-name="Trazado 257853" d="M54.41,55.14a6.524,6.524,0,1,1-6.551,6.4,6.5,6.5,0,0,1,6.551-6.4" transform="translate(-40.022 -47.297)" fill="#fcfcfc"/>
          <path id="Trazado_257854" data-name="Trazado 257854" d="M163.476,229.048a7.674,7.674,0,0,1,7.856,7.833,7.831,7.831,0,0,1-15.661.051,7.679,7.679,0,0,1,7.8-7.884m-1.039,8.609c-.642-.585-1.252-1.162-1.886-1.712a1.308,1.308,0,0,0-1.892,0,1.26,1.26,0,0,0,.106,1.88c.9.864,1.827,1.7,2.757,2.534a1.2,1.2,0,0,0,1.7.087q2.588-2.294,5.1-4.675a1.222,1.222,0,0,0-.135-1.923,1.3,1.3,0,0,0-1.772.162c-1.318,1.209-2.638,2.415-3.978,3.642" transform="translate(-124.332 -183.295)" fill="#ced371"/>
          <path id="Trazado_257855" data-name="Trazado 257855" d="M171.822,253.9c1.34-1.227,2.66-2.433,3.978-3.642a1.3,1.3,0,0,1,1.772-.162,1.222,1.222,0,0,1,.135,1.923q-2.509,2.382-5.1,4.674a1.2,1.2,0,0,1-1.7-.087c-.93-.832-1.856-1.67-2.757-2.534a1.26,1.26,0,0,1-.106-1.88,1.308,1.308,0,0,1,1.892,0c.634.55,1.244,1.127,1.886,1.712" transform="translate(-133.717 -199.536)" fill="#040404"/>
        </g>
      </g>
    </g>
  </g>
</svg>
