<svg xmlns="http://www.w3.org/2000/svg" width="1017.655" height="462.392" viewBox="0 0 1017.655 462.392">
  <g id="Grupo_891219" data-name="Grupo 891219" transform="translate(-284.998 -8804.674)">
    <g id="Grupo_167780" data-name="Grupo 167780" transform="translate(285 8809.564)">
      <g id="Trazado_259394" data-name="Trazado 259394" transform="translate(0 334.5)" fill="#fff">
        <path d="M 980.5344848632812 122 L 0.9999619126319885 122 L 0.9999619126319885 39.04523468017578 L 104.2590866088867 39.14687347412109 L 105.2385864257812 39.14787673950195 L 105.2598342895508 38.16862487792969 L 106.0413436889648 2.23674464225769 L 980.5344848632812 1.00141453742981 L 980.5344848632812 122 Z" stroke="none"/>
        <path d="M 979.5344848632812 2.002830505371094 L 107.0197143554688 3.235366821289062 L 106.2171020507812 40.14875030517578 L 104.258056640625 40.14687347412109 L 1.99993896484375 40.04621887207031 L 1.99993896484375 121 L 979.5344848632812 121 L 979.5344848632812 2.002830505371094 M 981.5344848632812 0 L 981.5344848632812 123 L -6.103515625e-05 123 L -6.103515625e-05 38.04425048828125 L 104.2600708007812 38.14687347412109 L 105.0626831054688 1.238128662109375 L 981.5344848632812 0 Z" stroke="none" fill="#707070"/>
      </g>
      <line id="Línea_1174" data-name="Línea 1174" x2="981.351" y2="2" transform="translate(0 415.5)" fill="none" stroke="#707070" stroke-width="2"/>
      <line id="Línea_1194" data-name="Línea 1194" x2="876.518" y2="0.5" transform="translate(104.833 287)" fill="none" stroke="#707070" stroke-width="2"/>
      <line id="Línea_1195" data-name="Línea 1195" x2="876.518" y2="0.5" transform="translate(104.833 246)" fill="none" stroke="#707070" stroke-width="2"/>
      <line id="Línea_1196" data-name="Línea 1196" x2="876.518" y2="0.5" transform="translate(104.833 205)" fill="none" stroke="#707070" stroke-width="2"/>
      <line id="Línea_1197" data-name="Línea 1197" x2="876.518" y2="0.5" transform="translate(104.833 164)" fill="none" stroke="#707070" stroke-width="2"/>
      <line id="Línea_1198" data-name="Línea 1198" x2="876.518" y2="0.5" transform="translate(104.833 123)" fill="none" stroke="#707070" stroke-width="2"/>
      <line id="Línea_1199" data-name="Línea 1199" x2="876.518" y2="0.5" transform="translate(104.833 82)" fill="none" stroke="#707070" stroke-width="2"/>
      <line id="Línea_1200" data-name="Línea 1200" x2="876.518" y2="0.5" transform="translate(104.833 41)" fill="none" stroke="#707070" stroke-width="2"/>
      <line id="Línea_1201" data-name="Línea 1201" x2="876.518" y2="0.5" transform="translate(104.833)" fill="none" stroke="#707070" stroke-width="2"/>
    </g>
    <path id="Trazado_259396" data-name="Trazado 259396" d="M-.333-1.043l876.375.328L876.351,39H-.024Z" transform="translate(390 9145.064)" fill="#e8e8e8"/>
    <path id="Trazado_259397" data-name="Trazado 259397" d="M0-.042V123" transform="translate(390 9144.064)" fill="none" stroke="#707070" stroke-width="2"/>
    <path id="Trazado_259395" data-name="Trazado 259395" d="M-.062.9,0,123" transform="translate(971.021 9144.064)" fill="none" stroke="#707070" stroke-width="2"/>
    <line id="Línea_1180" data-name="Línea 1180" x2="981.351" y2="1" transform="translate(285 9183.064)" fill="none" stroke="#707070" stroke-width="2"/>
    <path id="Trazado_622309" data-name="Trazado 622309" d="M23.531,17H16.813V5.8h6.461V7.852H19.336v2.492H23v2.047H19.336v2.563h4.2Zm9.281,0H30.352V12.555q0-1.859-1.328-1.859a1.318,1.318,0,0,0-1.055.492,1.875,1.875,0,0,0-.414,1.25V17H25.086V9h2.469v1.266h.031A2.829,2.829,0,0,1,30.156,8.8q2.656,0,2.656,3.3Zm9.141-3.3H36.734q.125,1.742,2.2,1.742a4.286,4.286,0,0,0,2.32-.625V16.6a6.1,6.1,0,0,1-2.883.594,4.058,4.058,0,0,1-3.008-1.074,4.058,4.058,0,0,1-1.07-3,4.281,4.281,0,0,1,1.156-3.156A3.852,3.852,0,0,1,38.289,8.8,3.5,3.5,0,0,1,41,9.844a4,4,0,0,1,.957,2.82Zm-2.289-1.516q0-1.719-1.391-1.719a1.328,1.328,0,0,0-1.027.492,2.234,2.234,0,0,0-.527,1.227Zm8.977-.961a2.142,2.142,0,0,0-1.039-.242,1.5,1.5,0,0,0-1.258.59,2.573,2.573,0,0,0-.453,1.605V17H43.422V9h2.469v1.484h.031a2.136,2.136,0,0,1,2.109-1.625,1.59,1.59,0,0,1,.609.094Zm4.9,5.969a4.3,4.3,0,0,1-3.145-1.121,4.064,4.064,0,0,1-1.145-3.043,4.065,4.065,0,0,1,1.188-3.105A4.487,4.487,0,0,1,53.648,8.8a4.249,4.249,0,0,1,3.125,1.121,3.985,3.985,0,0,1,1.133,2.965,4.23,4.23,0,0,1-1.168,3.148A4.348,4.348,0,0,1,53.539,17.2Zm.063-6.5a1.647,1.647,0,0,0-1.359.6,2.653,2.653,0,0,0-.484,1.7q0,2.3,1.859,2.3,1.773,0,1.773-2.367Q55.391,10.7,53.6,10.7Z" transform="translate(430 9155.064)" fill="#12263f"/>
    <path id="Trazado_622307" data-name="Trazado 622307" d="M10.345,5.8,6.485,17H3.626L-.186,5.8H2.532l2.336,7.8a5.584,5.584,0,0,1,.227,1.117h.047a6.314,6.314,0,0,1,.242-1.148L7.7,5.8Zm6.61,7.906H11.736q.125,1.742,2.2,1.742a4.286,4.286,0,0,0,2.32-.625V16.6a6.1,6.1,0,0,1-2.883.594,4.058,4.058,0,0,1-3.008-1.074,4.058,4.058,0,0,1-1.07-3,4.281,4.281,0,0,1,1.156-3.156A3.852,3.852,0,0,1,13.291,8.8,3.5,3.5,0,0,1,16,9.844a4,4,0,0,1,.957,2.82Zm-2.289-1.516q0-1.719-1.391-1.719a1.328,1.328,0,0,0-1.027.492,2.234,2.234,0,0,0-.527,1.227ZM25.51,17H23.049V12.555q0-1.859-1.328-1.859a1.318,1.318,0,0,0-1.055.492,1.875,1.875,0,0,0-.414,1.25V17H17.784V9h2.469v1.266h.031A2.829,2.829,0,0,1,22.854,8.8q2.656,0,2.656,3.3Zm6.149-.094a3.649,3.649,0,0,1-1.648.289q-2.609,0-2.609-2.711V10.82H26.1V9h1.3V7.273l2.461-.7V9h1.8v1.82h-1.8v3.234q0,1.25.992,1.25a1.673,1.673,0,0,0,.8-.227ZM39.066,17H36.73V15.852H36.7A2.607,2.607,0,0,1,34.316,17.2a2.492,2.492,0,0,1-1.832-.66,2.366,2.366,0,0,1-.668-1.762q0-2.328,2.758-2.687l2.172-.289q0-1.312-1.422-1.312a4.853,4.853,0,0,0-2.719.852V9.477a6.116,6.116,0,0,1,1.41-.469,7.413,7.413,0,0,1,1.629-.2q3.422,0,3.422,3.414Zm-2.32-3.25v-.539l-1.453.188q-1.2.156-1.2,1.086a.9.9,0,0,0,.293.691,1.126,1.126,0,0,0,.793.27,1.462,1.462,0,0,0,1.133-.48A1.735,1.735,0,0,0,36.746,13.75Zm3.11,3.039v-2a5.256,5.256,0,0,0,1.215.547,4.028,4.028,0,0,0,1.145.18,2.455,2.455,0,0,0,1.035-.18.581.581,0,0,0,.379-.547.506.506,0,0,0-.172-.391,1.6,1.6,0,0,0-.441-.273,5.009,5.009,0,0,0-.59-.211q-.32-.094-.617-.211a5.914,5.914,0,0,1-.84-.387,2.427,2.427,0,0,1-.609-.48,1.889,1.889,0,0,1-.375-.633,2.525,2.525,0,0,1-.129-.852,2.192,2.192,0,0,1,.293-1.156A2.393,2.393,0,0,1,40.93,9.4a3.57,3.57,0,0,1,1.117-.453A5.825,5.825,0,0,1,43.356,8.8a7.261,7.261,0,0,1,1.078.082,8.047,8.047,0,0,1,1.078.238v1.906a3.9,3.9,0,0,0-1-.41,4.235,4.235,0,0,0-1.051-.137,2.328,2.328,0,0,0-.457.043,1.505,1.505,0,0,0-.379.125.7.7,0,0,0-.258.211.486.486,0,0,0-.094.293.541.541,0,0,0,.141.375,1.221,1.221,0,0,0,.367.27,3.625,3.625,0,0,0,.5.2q.277.09.551.184a7.161,7.161,0,0,1,.891.375,2.848,2.848,0,0,1,.684.477,1.871,1.871,0,0,1,.438.641,2.563,2.563,0,0,1-.156,2.09,2.471,2.471,0,0,1-.82.82,3.72,3.72,0,0,1-1.18.461A6.54,6.54,0,0,1,42.3,17.2,7.149,7.149,0,0,1,39.856,16.789ZM53.02,5.8,47.56,18.859h-2.2L50.794,5.8ZM65.935,17H63.474V12.438q0-1.742-1.281-1.742a1.177,1.177,0,0,0-.992.523,2.151,2.151,0,0,0-.383,1.3V17H58.349V12.391q0-1.7-1.258-1.7a1.206,1.206,0,0,0-1.012.5,2.2,2.2,0,0,0-.379,1.359V17H53.232V9H55.7v1.25h.031A3.031,3.031,0,0,1,58.318,8.8a2.3,2.3,0,0,1,2.32,1.492A2.959,2.959,0,0,1,63.326,8.8q2.609,0,2.609,3.219Zm8.5-3.3H69.217q.125,1.742,2.2,1.742a4.286,4.286,0,0,0,2.32-.625V16.6a6.1,6.1,0,0,1-2.883.594,4.058,4.058,0,0,1-3.008-1.074,4.058,4.058,0,0,1-1.07-3,4.281,4.281,0,0,1,1.156-3.156A3.852,3.852,0,0,1,70.772,8.8a3.5,3.5,0,0,1,2.707,1.039,4,4,0,0,1,.957,2.82Zm-2.289-1.516q0-1.719-1.391-1.719a1.328,1.328,0,0,0-1.027.492,2.234,2.234,0,0,0-.527,1.227Zm2.594,4.6v-2a5.256,5.256,0,0,0,1.215.547,4.028,4.028,0,0,0,1.145.18,2.455,2.455,0,0,0,1.035-.18.581.581,0,0,0,.379-.547.506.506,0,0,0-.172-.391,1.6,1.6,0,0,0-.441-.273,5.009,5.009,0,0,0-.59-.211q-.32-.094-.617-.211a5.913,5.913,0,0,1-.84-.387,2.427,2.427,0,0,1-.609-.48,1.889,1.889,0,0,1-.375-.633,2.525,2.525,0,0,1-.129-.852,2.192,2.192,0,0,1,.293-1.156,2.393,2.393,0,0,1,.781-.793,3.57,3.57,0,0,1,1.117-.453A5.825,5.825,0,0,1,78.241,8.8a7.261,7.261,0,0,1,1.078.082,8.047,8.047,0,0,1,1.078.238v1.906a3.9,3.9,0,0,0-1-.41,4.235,4.235,0,0,0-1.051-.137,2.328,2.328,0,0,0-.457.043,1.505,1.505,0,0,0-.379.125.7.7,0,0,0-.258.211.486.486,0,0,0-.094.293.541.541,0,0,0,.141.375,1.221,1.221,0,0,0,.367.27,3.625,3.625,0,0,0,.5.2q.277.09.551.184a7.161,7.161,0,0,1,.891.375,2.848,2.848,0,0,1,.684.477,1.872,1.872,0,0,1,.438.641,2.563,2.563,0,0,1-.156,2.09,2.471,2.471,0,0,1-.82.82,3.72,3.72,0,0,1-1.18.461,6.54,6.54,0,0,1-1.387.145A7.149,7.149,0,0,1,74.741,16.789Z" transform="translate(305 9196.064)" fill="#12263f"/>
    <path id="Trazado_622311" data-name="Trazado 622311" d="M48.922,11.477A2.553,2.553,0,0,1,47,10.719a2.814,2.814,0,0,1-.73-2.039,3.094,3.094,0,0,1,.777-2.219,2.723,2.723,0,0,1,2.074-.82,2.538,2.538,0,0,1,1.941.742,2.924,2.924,0,0,1,.7,2.086,3.053,3.053,0,0,1-.773,2.2A2.714,2.714,0,0,1,48.922,11.477Zm.148-4.461q-1.141,0-1.141,1.586,0,1.5,1.086,1.5,1.109,0,1.109-1.562Q50.125,7.016,49.07,7.016ZM57.1,5.8,49.8,17H47.9L55.18,5.8ZM55.9,17.156a2.553,2.553,0,0,1-1.926-.758,2.814,2.814,0,0,1-.73-2.039,3.094,3.094,0,0,1,.777-2.219,2.723,2.723,0,0,1,2.074-.82,2.55,2.55,0,0,1,1.945.734,2.9,2.9,0,0,1,.7,2.078,3.081,3.081,0,0,1-.773,2.2A2.7,2.7,0,0,1,55.9,17.156Zm.125-4.461q-1.133,0-1.133,1.586,0,1.5,1.1,1.5T57.1,14.219a1.853,1.853,0,0,0-.3-1.125A.929.929,0,0,0,56.023,12.7Z" transform="translate(285 9237.064)" fill="#12263f"/>
    <path id="Trazado_622308" data-name="Trazado 622308" d="M35.945,13.578a3.771,3.771,0,0,1-.281,1.484,3.245,3.245,0,0,1-.8,1.141,3.586,3.586,0,0,1-1.254.734,4.9,4.9,0,0,1-1.633.258,4.511,4.511,0,0,1-2.32-.469V15.367a4.266,4.266,0,0,0,2.336.734,3.161,3.161,0,0,0,1.1-.18,2.439,2.439,0,0,0,.832-.5,2.141,2.141,0,0,0,.527-.773,2.618,2.618,0,0,0,.184-.992,2.125,2.125,0,0,0-.734-1.715,3.221,3.221,0,0,0-2.133-.621q-.227,0-.477.008t-.5.02q-.25.012-.488.027t-.434.039L30.25,5.8h5.18V6.953h-4.07l-.227,3.289q.25-.016.531-.027t.5-.012a5.028,5.028,0,0,1,1.594.234,3.377,3.377,0,0,1,1.191.668,2.8,2.8,0,0,1,.742,1.063A3.737,3.737,0,0,1,35.945,13.578Zm8.625,0a3.771,3.771,0,0,1-.281,1.484,3.245,3.245,0,0,1-.8,1.141,3.586,3.586,0,0,1-1.254.734A4.9,4.9,0,0,1,40.6,17.2a4.511,4.511,0,0,1-2.32-.469V15.367a4.266,4.266,0,0,0,2.336.734,3.161,3.161,0,0,0,1.1-.18,2.439,2.439,0,0,0,.832-.5,2.141,2.141,0,0,0,.527-.773,2.618,2.618,0,0,0,.184-.992,2.125,2.125,0,0,0-.734-1.715,3.221,3.221,0,0,0-2.133-.621q-.227,0-.477.008t-.5.02q-.25.012-.488.027t-.434.039L38.875,5.8h5.18V6.953h-4.07l-.227,3.289q.25-.016.531-.027t.5-.012a5.028,5.028,0,0,1,1.594.234,3.377,3.377,0,0,1,1.191.668,2.8,2.8,0,0,1,.742,1.063A3.737,3.737,0,0,1,44.57,13.578Z" transform="translate(430 9197.064)" fill="#12263f"/>
    <path id="Trazado_622310" data-name="Trazado 622310" d="M19.246,17H17.965V7.32a2.966,2.966,0,0,1-.434.34,7.068,7.068,0,0,1-.641.379q-.355.188-.75.352a5.451,5.451,0,0,1-.77.258v-1.3a7.448,7.448,0,0,0,.895-.316q.473-.2.93-.445t.863-.516a6.854,6.854,0,0,0,.7-.527h.484Zm3.672-3.125a2.981,2.981,0,0,1,.141-.895,3.24,3.24,0,0,1,.4-.84,3.33,3.33,0,0,1,.648-.711,3.091,3.091,0,0,1,.879-.508,3.322,3.322,0,0,1-1.156-1.043,2.466,2.466,0,0,1-.43-1.41,2.719,2.719,0,0,1,.9-2.047,3.052,3.052,0,0,1,1-.6,3.735,3.735,0,0,1,2.508,0,3.106,3.106,0,0,1,1,.6,2.7,2.7,0,0,1,.656.906A2.74,2.74,0,0,1,29.7,8.469a2.466,2.466,0,0,1-.43,1.41,3.363,3.363,0,0,1-1.141,1.043A3.064,3.064,0,0,1,29,11.43a3.379,3.379,0,0,1,.645.711,3.24,3.24,0,0,1,.4.84,2.981,2.981,0,0,1,.141.895,3.327,3.327,0,0,1-.266,1.344,3,3,0,0,1-.746,1.043,3.444,3.444,0,0,1-1.148.676,4.293,4.293,0,0,1-1.473.242,4.235,4.235,0,0,1-1.461-.242,3.5,3.5,0,0,1-1.148-.676,3.023,3.023,0,0,1-.754-1.043A3.285,3.285,0,0,1,22.918,13.875Zm1.391-.109a2.646,2.646,0,0,0,.16.945,2.038,2.038,0,0,0,.453.719,1.978,1.978,0,0,0,.711.457,2.568,2.568,0,0,0,.926.16,2.439,2.439,0,0,0,.906-.164,2.112,2.112,0,0,0,.715-.461,2.072,2.072,0,0,0,.469-.719,2.514,2.514,0,0,0,.168-.937,2.4,2.4,0,0,0-.16-.879,2.2,2.2,0,0,0-.457-.723,2.147,2.147,0,0,0-.711-.492,2.313,2.313,0,0,0-.93-.18,2.338,2.338,0,0,0-.895.168,2.14,2.14,0,0,0-.711.469,2.171,2.171,0,0,0-.473.719A2.391,2.391,0,0,0,24.309,13.766Zm.4-5.2A1.86,1.86,0,0,0,25.84,10.3a1.846,1.846,0,0,0,1.441,0,1.867,1.867,0,0,0,.59-.4,1.95,1.95,0,0,0,.4-.594,1.8,1.8,0,0,0,.148-.73,1.916,1.916,0,0,0-.145-.75,1.841,1.841,0,0,0-1.715-1.133,1.864,1.864,0,0,0-.754.148,1.821,1.821,0,0,0-.586.4,1.759,1.759,0,0,0-.379.6A2.02,2.02,0,0,0,24.707,8.57Zm8.6,6.648-1.25,3.844h-.914l.914-3.844Zm8.445-1.391a3.266,3.266,0,0,1-.285,1.379,3.045,3.045,0,0,1-.8,1.063,3.714,3.714,0,0,1-1.246.684,5.04,5.04,0,0,1-1.6.242,4.654,4.654,0,0,1-2.547-.609V15.211a4.081,4.081,0,0,0,2.594.891,3.525,3.525,0,0,0,1.059-.148,2.374,2.374,0,0,0,.813-.43,1.909,1.909,0,0,0,.523-.68,2.123,2.123,0,0,0,.184-.9q0-2.2-3.125-2.2h-.93V10.664h.883q2.766,0,2.766-2.062,0-1.906-2.109-1.906a3.592,3.592,0,0,0-2.227.8V6.25a4.868,4.868,0,0,1,2.547-.641,3.913,3.913,0,0,1,1.273.2,2.918,2.918,0,0,1,.977.547,2.423,2.423,0,0,1,.629.844,2.6,2.6,0,0,1,.223,1.086,2.735,2.735,0,0,1-2.234,2.844v.031a3.534,3.534,0,0,1,1.055.277,2.814,2.814,0,0,1,.836.559,2.49,2.49,0,0,1,.551.809A2.582,2.582,0,0,1,41.754,13.828Zm8.719-2.414a2.361,2.361,0,0,1-1.844-.762,2.922,2.922,0,0,1-.687-2.035,3.14,3.14,0,0,1,.727-2.191,2.517,2.517,0,0,1,1.961-.8,2.354,2.354,0,0,1,1.855.742,3.033,3.033,0,0,1,.66,2.086,3.068,3.068,0,0,1-.738,2.152A2.5,2.5,0,0,1,50.473,11.414Zm.109-4.93a1.406,1.406,0,0,0-1.172.551,2.4,2.4,0,0,0-.43,1.512A2.3,2.3,0,0,0,49.4,10.02a1.392,1.392,0,0,0,1.148.527A1.36,1.36,0,0,0,51.7,10a2.461,2.461,0,0,0,.414-1.516,2.347,2.347,0,0,0-.41-1.473A1.343,1.343,0,0,0,50.582,6.484ZM57.973,5.8,50.785,17.078H49.668L56.848,5.8Zm-.828,11.375a2.355,2.355,0,0,1-1.844-.766,2.926,2.926,0,0,1-.687-2.031,3.148,3.148,0,0,1,.734-2.2,2.511,2.511,0,0,1,1.953-.809,2.344,2.344,0,0,1,1.852.75,3.064,3.064,0,0,1,.664,2.1,3.057,3.057,0,0,1-.738,2.145A2.5,2.5,0,0,1,57.145,17.172Zm.109-4.922a1.407,1.407,0,0,0-1.176.547,2.411,2.411,0,0,0-.426,1.516,2.273,2.273,0,0,0,.422,1.457,1.392,1.392,0,0,0,1.148.527,1.356,1.356,0,0,0,1.148-.551,2.464,2.464,0,0,0,.414-1.512,2.31,2.31,0,0,0-.41-1.469A1.355,1.355,0,0,0,57.254,12.25Z" transform="translate(430 9237.064)" fill="#12263f"/>
    <line id="Línea_1188" data-name="Línea 1188" y2="122" transform="translate(528.004 9145.064)" fill="none" stroke="#707070" stroke-width="2"/>
    <line id="Línea_1190" data-name="Línea 1190" y2="122" transform="translate(675.676 9145.064)" fill="none" stroke="#707070" stroke-width="2"/>
    <line id="Línea_1191" data-name="Línea 1191" y2="122" transform="translate(824.282 9145.064)" fill="none" stroke="#707070" stroke-width="2"/>
    <path id="Trazado_622312" data-name="Trazado 622312" d="M15.785,7.852H11.832V10.6h3.633v2.047H11.832V17H9.309V5.8h6.477ZM24.574,13.7H19.355q.125,1.742,2.2,1.742a4.286,4.286,0,0,0,2.32-.625V16.6a6.1,6.1,0,0,1-2.883.594,4.058,4.058,0,0,1-3.008-1.074,4.058,4.058,0,0,1-1.07-3,4.281,4.281,0,0,1,1.156-3.156A3.852,3.852,0,0,1,20.91,8.8a3.5,3.5,0,0,1,2.707,1.039,4,4,0,0,1,.957,2.82Zm-2.289-1.516q0-1.719-1.391-1.719a1.328,1.328,0,0,0-1.027.492,2.234,2.234,0,0,0-.527,1.227Zm6.258,3.883h-.031V17H26.043V5.156h2.469V10.2h.031a2.929,2.929,0,0,1,2.6-1.4,2.855,2.855,0,0,1,2.383,1.063,4.582,4.582,0,0,1,.836,2.906,4.962,4.962,0,0,1-.977,3.211A3.181,3.181,0,0,1,30.777,17.2,2.521,2.521,0,0,1,28.543,16.07Zm-.07-3.375v.82a1.872,1.872,0,0,0,.445,1.281,1.449,1.449,0,0,0,1.141.508,1.514,1.514,0,0,0,1.309-.652,3.15,3.15,0,0,0,.465-1.848,2.506,2.506,0,0,0-.426-1.551,1.437,1.437,0,0,0-1.215-.559,1.569,1.569,0,0,0-1.23.555A2.107,2.107,0,0,0,28.473,12.7Zm12.711-1.469a2.142,2.142,0,0,0-1.039-.242,1.5,1.5,0,0,0-1.258.59,2.573,2.573,0,0,0-.453,1.605V17H35.965V9h2.469v1.484h.031a2.136,2.136,0,0,1,2.109-1.625,1.59,1.59,0,0,1,.609.094ZM49.457,13.7H44.238q.125,1.742,2.2,1.742a4.286,4.286,0,0,0,2.32-.625V16.6a6.1,6.1,0,0,1-2.883.594,4.058,4.058,0,0,1-3.008-1.074,4.058,4.058,0,0,1-1.07-3,4.281,4.281,0,0,1,1.156-3.156A3.852,3.852,0,0,1,45.793,8.8,3.5,3.5,0,0,1,48.5,9.844a4,4,0,0,1,.957,2.82Zm-2.289-1.516q0-1.719-1.391-1.719a1.328,1.328,0,0,0-1.027.492,2.234,2.234,0,0,0-.527,1.227Zm8.977-.961a2.142,2.142,0,0,0-1.039-.242,1.5,1.5,0,0,0-1.258.59,2.573,2.573,0,0,0-.453,1.605V17H50.926V9h2.469v1.484h.031a2.136,2.136,0,0,1,2.109-1.625,1.59,1.59,0,0,1,.609.094Zm4.9,5.969A4.3,4.3,0,0,1,57.9,16.074a4.064,4.064,0,0,1-1.145-3.043,4.065,4.065,0,0,1,1.188-3.105A4.487,4.487,0,0,1,61.152,8.8a4.249,4.249,0,0,1,3.125,1.121,3.985,3.985,0,0,1,1.133,2.965,4.23,4.23,0,0,1-1.168,3.148A4.348,4.348,0,0,1,61.043,17.2Zm.063-6.5a1.647,1.647,0,0,0-1.359.6,2.653,2.653,0,0,0-.484,1.7q0,2.3,1.859,2.3,1.773,0,1.773-2.367Q62.895,10.7,61.105,10.7Z" transform="translate(563.903 9155.064)" fill="#12263f"/>
    <path id="Trazado_622313" data-name="Trazado 622313" d="M34.406,8.734a2.316,2.316,0,0,0-.16-.9,1.739,1.739,0,0,0-1.09-1.016,2.555,2.555,0,0,0-.812-.125,2.688,2.688,0,0,0-.734.1,3.57,3.57,0,0,0-.7.281,4.3,4.3,0,0,0-.656.43,4.74,4.74,0,0,0-.59.555V6.688a3.831,3.831,0,0,1,1.207-.8A4.25,4.25,0,0,1,32.5,5.609a3.932,3.932,0,0,1,1.273.2,2.92,2.92,0,0,1,1.016.582,2.691,2.691,0,0,1,.676.945,3.188,3.188,0,0,1,.246,1.289,4.42,4.42,0,0,1-.152,1.2,3.721,3.721,0,0,1-.461,1.016,4.9,4.9,0,0,1-.777.914,11.011,11.011,0,0,1-1.1.891q-.789.563-1.3.961a5.75,5.75,0,0,0-.812.746,2.165,2.165,0,0,0-.422.7,2.431,2.431,0,0,0-.121.8h5.578V17H29.227v-.555a4.622,4.622,0,0,1,.156-1.266,3.286,3.286,0,0,1,.516-1.039,5.767,5.767,0,0,1,.941-.984q.582-.492,1.426-1.109a9.014,9.014,0,0,0,1.02-.836,4.346,4.346,0,0,0,.66-.8,2.862,2.862,0,0,0,.355-.809A3.486,3.486,0,0,0,34.406,8.734Zm10.563,2.617a11.005,11.005,0,0,1-.254,2.492,5.807,5.807,0,0,1-.734,1.832,3.305,3.305,0,0,1-1.18,1.133,3.23,3.23,0,0,1-1.59.387,3.016,3.016,0,0,1-1.5-.371,3.152,3.152,0,0,1-1.113-1.082A5.484,5.484,0,0,1,37.906,14a10.8,10.8,0,0,1-.234-2.371,12.222,12.222,0,0,1,.246-2.594,5.933,5.933,0,0,1,.723-1.887A3.216,3.216,0,0,1,39.824,6a3.323,3.323,0,0,1,1.621-.387Q44.969,5.609,44.969,11.352Zm-1.312.125q0-4.781-2.273-4.781-2.4,0-2.4,4.867,0,4.539,2.352,4.539Q43.656,16.1,43.656,11.477Z" transform="translate(563.903 9197.064)" fill="#12263f"/>
    <path id="Trazado_622314" data-name="Trazado 622314" d="M25.887,13.445a4.15,4.15,0,0,1-.266,1.508,3.624,3.624,0,0,1-.734,1.188,3.281,3.281,0,0,1-1.117.777,3.538,3.538,0,0,1-1.406.277,3.1,3.1,0,0,1-2.645-1.363,4.853,4.853,0,0,1-.707-1.613,8.74,8.74,0,0,1-.242-2.148,10.1,10.1,0,0,1,.324-2.652,6.444,6.444,0,0,1,.922-2.039A4.25,4.25,0,0,1,21.457,6.07a3.862,3.862,0,0,1,1.883-.461,4.535,4.535,0,0,1,1.859.32V7.141A3.949,3.949,0,0,0,23.371,6.7a2.724,2.724,0,0,0-1.352.336,3.1,3.1,0,0,0-1.031.949,4.63,4.63,0,0,0-.66,1.48,7.511,7.511,0,0,0-.23,1.93h.031a2.69,2.69,0,0,1,2.555-1.4,3.363,3.363,0,0,1,1.324.25,2.859,2.859,0,0,1,1.008.707,3.183,3.183,0,0,1,.645,1.09A4.148,4.148,0,0,1,25.887,13.445Zm-1.312.164a3.486,3.486,0,0,0-.148-1.055,2.288,2.288,0,0,0-.426-.8,1.836,1.836,0,0,0-.684-.5,2.3,2.3,0,0,0-.922-.176,2.158,2.158,0,0,0-.883.18,2.2,2.2,0,0,0-.7.488,2.286,2.286,0,0,0-.633,1.59,3.475,3.475,0,0,0,.164,1.082,2.8,2.8,0,0,0,.461.879,2.192,2.192,0,0,0,.707.59,1.931,1.931,0,0,0,.91.215,2.084,2.084,0,0,0,.883-.184,1.97,1.97,0,0,0,.68-.512,2.369,2.369,0,0,0,.438-.785A3.112,3.112,0,0,0,24.574,13.609ZM29,15.219l-1.25,3.844h-.914l.914-3.844Zm8.891-8.68q-.258.445-.621,1.109T36.5,9.141q-.406.828-.828,1.781t-.789,1.969q-.367,1.016-.645,2.059a15.315,15.315,0,0,0-.4,2.051H32.457a15.579,15.579,0,0,1,.434-2.043q.293-1.043.664-2.047t.785-1.934q.414-.93.8-1.711t.715-1.379q.324-.6.52-.934H30.762V5.8h7.125Zm8.273,4.875a2.361,2.361,0,0,1-1.844-.762,2.922,2.922,0,0,1-.687-2.035,3.14,3.14,0,0,1,.727-2.191,2.517,2.517,0,0,1,1.961-.8,2.354,2.354,0,0,1,1.855.742,3.033,3.033,0,0,1,.66,2.086,3.068,3.068,0,0,1-.738,2.152A2.5,2.5,0,0,1,46.16,11.414Zm.109-4.93a1.406,1.406,0,0,0-1.172.551,2.4,2.4,0,0,0-.43,1.512,2.3,2.3,0,0,0,.422,1.473,1.392,1.392,0,0,0,1.148.527A1.36,1.36,0,0,0,47.387,10,2.461,2.461,0,0,0,47.8,8.484a2.347,2.347,0,0,0-.41-1.473A1.343,1.343,0,0,0,46.27,6.484ZM53.66,5.8,46.473,17.078H45.355L52.535,5.8Zm-.828,11.375a2.355,2.355,0,0,1-1.844-.766,2.926,2.926,0,0,1-.687-2.031,3.148,3.148,0,0,1,.734-2.2,2.511,2.511,0,0,1,1.953-.809,2.344,2.344,0,0,1,1.852.75,3.064,3.064,0,0,1,.664,2.1,3.057,3.057,0,0,1-.738,2.145A2.5,2.5,0,0,1,52.832,17.172Zm.109-4.922a1.407,1.407,0,0,0-1.176.547,2.411,2.411,0,0,0-.426,1.516,2.273,2.273,0,0,0,.422,1.457,1.392,1.392,0,0,0,1.148.527,1.356,1.356,0,0,0,1.148-.551,2.464,2.464,0,0,0,.414-1.512,2.31,2.31,0,0,0-.41-1.469A1.355,1.355,0,0,0,52.941,12.25Z" transform="translate(563.903 9237.064)" fill="#12263f"/>
    <path id="Trazado_622316" data-name="Trazado 622316" d="M27.02,17H24.527V10.3q0-1.086.094-2.4h-.062a11.8,11.8,0,0,1-.352,1.484L21.582,17H19.52L16.848,9.461A14.671,14.671,0,0,1,16.5,7.9h-.07q.1,1.656.1,2.906V17H14.254V5.8h3.7l2.289,6.641a9.35,9.35,0,0,1,.4,1.6h.047a16.127,16.127,0,0,1,.445-1.617L23.418,5.8h3.6Zm8.961,0H33.645V15.852h-.031A2.607,2.607,0,0,1,31.23,17.2a2.492,2.492,0,0,1-1.832-.66,2.366,2.366,0,0,1-.668-1.762q0-2.328,2.758-2.687L33.66,11.8q0-1.312-1.422-1.312a4.853,4.853,0,0,0-2.719.852V9.477a6.116,6.116,0,0,1,1.41-.469,7.413,7.413,0,0,1,1.629-.2q3.422,0,3.422,3.414Zm-2.32-3.25v-.539l-1.453.188q-1.2.156-1.2,1.086a.9.9,0,0,0,.293.691,1.126,1.126,0,0,0,.793.27,1.462,1.462,0,0,0,1.133-.48A1.735,1.735,0,0,0,33.66,13.75Zm9.492-2.523a2.142,2.142,0,0,0-1.039-.242,1.5,1.5,0,0,0-1.258.59A2.573,2.573,0,0,0,40.4,13.18V17H37.934V9H40.4v1.484h.031a2.136,2.136,0,0,1,2.109-1.625,1.59,1.59,0,0,1,.609.094ZM50.957,17h-7.18V15.977l4.016-5.156H44.176V9h6.75v1.219l-3.8,4.961h3.836Zm5.141.2a4.3,4.3,0,0,1-3.145-1.121,4.064,4.064,0,0,1-1.145-3.043A4.065,4.065,0,0,1,53,9.926,4.487,4.487,0,0,1,56.207,8.8a4.249,4.249,0,0,1,3.125,1.121,3.985,3.985,0,0,1,1.133,2.965A4.23,4.23,0,0,1,59.3,16.039,4.348,4.348,0,0,1,56.1,17.2Zm.063-6.5a1.647,1.647,0,0,0-1.359.6,2.653,2.653,0,0,0-.484,1.7q0,2.3,1.859,2.3,1.773,0,1.773-2.367Q57.949,10.7,56.16,10.7Z" transform="translate(713.581 9155.064)" fill="#12263f"/>
    <path id="Trazado_622315" data-name="Trazado 622315" d="M36.266,6.539q-.258.445-.621,1.109t-.77,1.492q-.406.828-.828,1.781t-.789,1.969q-.367,1.016-.645,2.059a15.315,15.315,0,0,0-.4,2.051H30.836a15.579,15.579,0,0,1,.434-2.043q.293-1.043.664-2.047t.785-1.934q.414-.93.8-1.711t.715-1.379q.324-.6.52-.934H29.141V5.8h7.125Zm8.7,4.813a11.005,11.005,0,0,1-.254,2.492,5.807,5.807,0,0,1-.734,1.832,3.305,3.305,0,0,1-1.18,1.133,3.23,3.23,0,0,1-1.59.387,3.016,3.016,0,0,1-1.5-.371,3.152,3.152,0,0,1-1.113-1.082A5.484,5.484,0,0,1,37.906,14a10.8,10.8,0,0,1-.234-2.371,12.222,12.222,0,0,1,.246-2.594,5.933,5.933,0,0,1,.723-1.887A3.216,3.216,0,0,1,39.824,6a3.323,3.323,0,0,1,1.621-.387Q44.969,5.609,44.969,11.352Zm-1.312.125q0-4.781-2.273-4.781-2.4,0-2.4,4.867,0,4.539,2.352,4.539Q43.656,16.1,43.656,11.477Z" transform="translate(713.581 9197.064)" fill="#12263f"/>
    <path id="Trazado_622317" data-name="Trazado 622317" d="M19.621,8.734a2.316,2.316,0,0,0-.16-.9,1.739,1.739,0,0,0-1.09-1.016,2.555,2.555,0,0,0-.812-.125,2.688,2.688,0,0,0-.734.1,3.57,3.57,0,0,0-.7.281,4.3,4.3,0,0,0-.656.43,4.74,4.74,0,0,0-.59.555V6.688a3.831,3.831,0,0,1,1.207-.8,4.25,4.25,0,0,1,1.629-.277,3.932,3.932,0,0,1,1.273.2A2.92,2.92,0,0,1,20,6.391a2.691,2.691,0,0,1,.676.945,3.188,3.188,0,0,1,.246,1.289,4.42,4.42,0,0,1-.152,1.2,3.721,3.721,0,0,1-.461,1.016,4.9,4.9,0,0,1-.777.914,11.011,11.011,0,0,1-1.1.891q-.789.563-1.3.961a5.75,5.75,0,0,0-.812.746,2.165,2.165,0,0,0-.422.7,2.43,2.43,0,0,0-.121.8h5.578V17H14.441v-.555A4.622,4.622,0,0,1,14.6,15.18a3.286,3.286,0,0,1,.516-1.039,5.767,5.767,0,0,1,.941-.984q.582-.492,1.426-1.109a9.014,9.014,0,0,0,1.02-.836,4.346,4.346,0,0,0,.66-.8,2.862,2.862,0,0,0,.355-.809A3.486,3.486,0,0,0,19.621,8.734ZM29.66,13.828a3.266,3.266,0,0,1-.285,1.379,3.045,3.045,0,0,1-.8,1.063,3.714,3.714,0,0,1-1.246.684,5.04,5.04,0,0,1-1.6.242,4.654,4.654,0,0,1-2.547-.609V15.211a4.081,4.081,0,0,0,2.594.891,3.525,3.525,0,0,0,1.059-.148,2.374,2.374,0,0,0,.813-.43,1.909,1.909,0,0,0,.523-.68,2.123,2.123,0,0,0,.184-.9q0-2.2-3.125-2.2h-.93V10.664h.883q2.766,0,2.766-2.062,0-1.906-2.109-1.906a3.592,3.592,0,0,0-2.227.8V6.25a4.868,4.868,0,0,1,2.547-.641,3.913,3.913,0,0,1,1.273.2,2.918,2.918,0,0,1,.977.547,2.423,2.423,0,0,1,.629.844,2.6,2.6,0,0,1,.223,1.086,2.735,2.735,0,0,1-2.234,2.844v.031a3.534,3.534,0,0,1,1.055.277,2.814,2.814,0,0,1,.836.559,2.49,2.49,0,0,1,.551.809A2.582,2.582,0,0,1,29.66,13.828Zm3.648,1.391-1.25,3.844h-.914l.914-3.844Zm8.445-1.391a3.266,3.266,0,0,1-.285,1.379,3.045,3.045,0,0,1-.8,1.063,3.714,3.714,0,0,1-1.246.684,5.04,5.04,0,0,1-1.6.242,4.654,4.654,0,0,1-2.547-.609V15.211a4.081,4.081,0,0,0,2.594.891,3.525,3.525,0,0,0,1.059-.148,2.374,2.374,0,0,0,.813-.43,1.909,1.909,0,0,0,.523-.68,2.123,2.123,0,0,0,.184-.9q0-2.2-3.125-2.2h-.93V10.664h.883q2.766,0,2.766-2.062,0-1.906-2.109-1.906a3.592,3.592,0,0,0-2.227.8V6.25a4.868,4.868,0,0,1,2.547-.641,3.913,3.913,0,0,1,1.273.2,2.918,2.918,0,0,1,.977.547,2.423,2.423,0,0,1,.629.844,2.6,2.6,0,0,1,.223,1.086,2.735,2.735,0,0,1-2.234,2.844v.031a3.534,3.534,0,0,1,1.055.277,2.814,2.814,0,0,1,.836.559,2.49,2.49,0,0,1,.551.809A2.582,2.582,0,0,1,41.754,13.828Zm8.719-2.414a2.361,2.361,0,0,1-1.844-.762,2.922,2.922,0,0,1-.687-2.035,3.14,3.14,0,0,1,.727-2.191,2.517,2.517,0,0,1,1.961-.8,2.354,2.354,0,0,1,1.855.742,3.033,3.033,0,0,1,.66,2.086,3.068,3.068,0,0,1-.738,2.152A2.5,2.5,0,0,1,50.473,11.414Zm.109-4.93a1.406,1.406,0,0,0-1.172.551,2.4,2.4,0,0,0-.43,1.512A2.3,2.3,0,0,0,49.4,10.02a1.392,1.392,0,0,0,1.148.527A1.36,1.36,0,0,0,51.7,10a2.461,2.461,0,0,0,.414-1.516,2.347,2.347,0,0,0-.41-1.473A1.343,1.343,0,0,0,50.582,6.484ZM57.973,5.8,50.785,17.078H49.668L56.848,5.8Zm-.828,11.375a2.355,2.355,0,0,1-1.844-.766,2.926,2.926,0,0,1-.687-2.031,3.148,3.148,0,0,1,.734-2.2,2.511,2.511,0,0,1,1.953-.809,2.344,2.344,0,0,1,1.852.75,3.064,3.064,0,0,1,.664,2.1,3.057,3.057,0,0,1-.738,2.145A2.5,2.5,0,0,1,57.145,17.172Zm.109-4.922a1.407,1.407,0,0,0-1.176.547,2.411,2.411,0,0,0-.426,1.516,2.273,2.273,0,0,0,.422,1.457,1.392,1.392,0,0,0,1.148.527,1.356,1.356,0,0,0,1.148-.551,2.464,2.464,0,0,0,.414-1.512,2.31,2.31,0,0,0-.41-1.469A1.355,1.355,0,0,0,57.254,12.25Z" transform="translate(713.581 9237.064)" fill="#12263f"/>
    <path id="Trazado_622319" data-name="Trazado 622319" d="M29.785,17h-2.75l-.8-2.492H22.254L21.465,17H18.73L22.809,5.8H25.8ZM25.66,12.57,24.457,8.8A4.907,4.907,0,0,1,24.27,7.8h-.062a4.273,4.273,0,0,1-.2.977l-1.219,3.8Zm7.781,3.5H33.41V17H30.941V5.156H33.41V10.2h.031a2.929,2.929,0,0,1,2.6-1.4,2.855,2.855,0,0,1,2.383,1.063,4.582,4.582,0,0,1,.836,2.906,4.962,4.962,0,0,1-.977,3.211A3.181,3.181,0,0,1,35.676,17.2,2.521,2.521,0,0,1,33.441,16.07Zm-.07-3.375v.82a1.872,1.872,0,0,0,.445,1.281,1.449,1.449,0,0,0,1.141.508,1.514,1.514,0,0,0,1.309-.652A3.15,3.15,0,0,0,36.73,12.8a2.506,2.506,0,0,0-.426-1.551A1.437,1.437,0,0,0,35.09,10.7a1.569,1.569,0,0,0-1.23.555A2.107,2.107,0,0,0,33.371,12.7Zm12.711-1.469a2.142,2.142,0,0,0-1.039-.242,1.5,1.5,0,0,0-1.258.59,2.573,2.573,0,0,0-.453,1.605V17H40.863V9h2.469v1.484h.031a2.136,2.136,0,0,1,2.109-1.625,1.59,1.59,0,0,1,.609.094Zm2.461-3.492a1.442,1.442,0,0,1-1.023-.371,1.2,1.2,0,0,1-.4-.91,1.153,1.153,0,0,1,.4-.906,1.671,1.671,0,0,1,2.051,0,1.158,1.158,0,0,1,.395.906,1.191,1.191,0,0,1-.395.922A1.466,1.466,0,0,1,48.543,7.734ZM49.762,17H47.293V9h2.469Zm4.547,0H51.84V5.156h2.469Z" transform="translate(862.329 9155.064)" fill="#12263f"/>
    <path id="Trazado_622318" data-name="Trazado 622318" d="M35.945,13.578a3.771,3.771,0,0,1-.281,1.484,3.245,3.245,0,0,1-.8,1.141,3.586,3.586,0,0,1-1.254.734,4.9,4.9,0,0,1-1.633.258,4.511,4.511,0,0,1-2.32-.469V15.367a4.266,4.266,0,0,0,2.336.734,3.161,3.161,0,0,0,1.1-.18,2.439,2.439,0,0,0,.832-.5,2.141,2.141,0,0,0,.527-.773,2.618,2.618,0,0,0,.184-.992,2.125,2.125,0,0,0-.734-1.715,3.221,3.221,0,0,0-2.133-.621q-.227,0-.477.008t-.5.02q-.25.012-.488.027t-.434.039L30.25,5.8h5.18V6.953h-4.07l-.227,3.289q.25-.016.531-.027t.5-.012a5.028,5.028,0,0,1,1.594.234,3.377,3.377,0,0,1,1.191.668,2.8,2.8,0,0,1,.742,1.063A3.737,3.737,0,0,1,35.945,13.578Zm9.023-2.227a11.005,11.005,0,0,1-.254,2.492,5.807,5.807,0,0,1-.734,1.832,3.305,3.305,0,0,1-1.18,1.133,3.23,3.23,0,0,1-1.59.387,3.016,3.016,0,0,1-1.5-.371,3.152,3.152,0,0,1-1.113-1.082A5.484,5.484,0,0,1,37.906,14a10.8,10.8,0,0,1-.234-2.371,12.222,12.222,0,0,1,.246-2.594,5.933,5.933,0,0,1,.723-1.887A3.216,3.216,0,0,1,39.824,6a3.323,3.323,0,0,1,1.621-.387Q44.969,5.609,44.969,11.352Zm-1.312.125q0-4.781-2.273-4.781-2.4,0-2.4,4.867,0,4.539,2.352,4.539Q43.656,16.1,43.656,11.477Z" transform="translate(862.329 9197.064)" fill="#12263f"/>
    <path id="Trazado_622320" data-name="Trazado 622320" d="M19.246,17H17.965V7.32a2.966,2.966,0,0,1-.434.34,7.068,7.068,0,0,1-.641.379q-.355.188-.75.352a5.451,5.451,0,0,1-.77.258v-1.3a7.448,7.448,0,0,0,.895-.316q.473-.2.93-.445t.863-.516a6.854,6.854,0,0,0,.7-.527h.484ZM30.2,13.445a4.15,4.15,0,0,1-.266,1.508,3.624,3.624,0,0,1-.734,1.188,3.281,3.281,0,0,1-1.117.777,3.538,3.538,0,0,1-1.406.277,3.1,3.1,0,0,1-2.645-1.363,4.853,4.853,0,0,1-.707-1.613,8.74,8.74,0,0,1-.242-2.148,10.1,10.1,0,0,1,.324-2.652,6.444,6.444,0,0,1,.922-2.039A4.25,4.25,0,0,1,25.77,6.07a3.862,3.862,0,0,1,1.883-.461,4.535,4.535,0,0,1,1.859.32V7.141A3.949,3.949,0,0,0,27.684,6.7a2.724,2.724,0,0,0-1.352.336A3.1,3.1,0,0,0,25.3,7.98a4.63,4.63,0,0,0-.66,1.48,7.511,7.511,0,0,0-.23,1.93h.031A2.69,2.69,0,0,1,27,9.992a3.363,3.363,0,0,1,1.324.25,2.859,2.859,0,0,1,1.008.707,3.183,3.183,0,0,1,.645,1.09A4.148,4.148,0,0,1,30.2,13.445Zm-1.312.164a3.486,3.486,0,0,0-.148-1.055,2.288,2.288,0,0,0-.426-.8,1.836,1.836,0,0,0-.684-.5,2.3,2.3,0,0,0-.922-.176,2.158,2.158,0,0,0-.883.18,2.2,2.2,0,0,0-.7.488,2.286,2.286,0,0,0-.633,1.59,3.475,3.475,0,0,0,.164,1.082,2.8,2.8,0,0,0,.461.879,2.192,2.192,0,0,0,.707.59,1.931,1.931,0,0,0,.91.215,2.084,2.084,0,0,0,.883-.184,1.97,1.97,0,0,0,.68-.512,2.369,2.369,0,0,0,.438-.785A3.112,3.112,0,0,0,28.887,13.609Zm4.422,1.609-1.25,3.844h-.914l.914-3.844ZM42.2,6.539q-.258.445-.621,1.109t-.77,1.492q-.406.828-.828,1.781t-.789,1.969q-.367,1.016-.645,2.059a15.315,15.315,0,0,0-.4,2.051H36.77a15.579,15.579,0,0,1,.434-2.043q.293-1.043.664-2.047t.785-1.934q.414-.93.8-1.711t.715-1.379q.324-.6.52-.934H35.074V5.8H42.2Zm8.273,4.875a2.361,2.361,0,0,1-1.844-.762,2.922,2.922,0,0,1-.687-2.035,3.14,3.14,0,0,1,.727-2.191,2.517,2.517,0,0,1,1.961-.8,2.354,2.354,0,0,1,1.855.742,3.033,3.033,0,0,1,.66,2.086,3.068,3.068,0,0,1-.738,2.152A2.5,2.5,0,0,1,50.473,11.414Zm.109-4.93a1.406,1.406,0,0,0-1.172.551,2.4,2.4,0,0,0-.43,1.512A2.3,2.3,0,0,0,49.4,10.02a1.392,1.392,0,0,0,1.148.527A1.36,1.36,0,0,0,51.7,10a2.461,2.461,0,0,0,.414-1.516,2.347,2.347,0,0,0-.41-1.473A1.343,1.343,0,0,0,50.582,6.484ZM57.973,5.8,50.785,17.078H49.668L56.848,5.8Zm-.828,11.375a2.355,2.355,0,0,1-1.844-.766,2.926,2.926,0,0,1-.687-2.031,3.148,3.148,0,0,1,.734-2.2,2.511,2.511,0,0,1,1.953-.809,2.344,2.344,0,0,1,1.852.75,3.064,3.064,0,0,1,.664,2.1,3.057,3.057,0,0,1-.738,2.145A2.5,2.5,0,0,1,57.145,17.172Zm.109-4.922a1.407,1.407,0,0,0-1.176.547,2.411,2.411,0,0,0-.426,1.516,2.273,2.273,0,0,0,.422,1.457,1.392,1.392,0,0,0,1.148.527,1.356,1.356,0,0,0,1.148-.551,2.464,2.464,0,0,0,.414-1.512,2.31,2.31,0,0,0-.41-1.469A1.355,1.355,0,0,0,57.254,12.25Z" transform="translate(862.329 9237.064)" fill="#12263f"/>
    <path id="Trazado_622323" data-name="Trazado 622323" d="M29.969,17H27.477V10.3q0-1.086.094-2.4h-.062a11.8,11.8,0,0,1-.352,1.484L24.531,17H22.469L19.8,9.461A14.671,14.671,0,0,1,19.445,7.9h-.07q.1,1.656.1,2.906V17H17.2V5.8h3.7l2.289,6.641a9.35,9.35,0,0,1,.4,1.6h.047a16.127,16.127,0,0,1,.445-1.617L26.367,5.8h3.6Zm8.961,0H36.594V15.852h-.031A2.607,2.607,0,0,1,34.18,17.2a2.492,2.492,0,0,1-1.832-.66,2.366,2.366,0,0,1-.668-1.762q0-2.328,2.758-2.687l2.172-.289q0-1.312-1.422-1.312a4.853,4.853,0,0,0-2.719.852V9.477a6.116,6.116,0,0,1,1.41-.469,7.413,7.413,0,0,1,1.629-.2q3.422,0,3.422,3.414Zm-2.32-3.25v-.539l-1.453.188q-1.2.156-1.2,1.086a.9.9,0,0,0,.293.691,1.126,1.126,0,0,0,.793.27,1.462,1.462,0,0,0,1.133-.48A1.735,1.735,0,0,0,36.609,13.75ZM48.5,9l-3.25,8.641q-1.172,3.117-3.531,3.117a4.524,4.524,0,0,1-1.477-.2V18.586a2.076,2.076,0,0,0,1.07.289,1.337,1.337,0,0,0,1.328-.9l.422-.992L39.813,9h2.734l1.492,4.867a6.325,6.325,0,0,1,.219,1.07h.031a7.463,7.463,0,0,1,.258-1.055L46.055,9Zm4.648,8.2A4.3,4.3,0,0,1,50,16.074a4.064,4.064,0,0,1-1.145-3.043,4.065,4.065,0,0,1,1.188-3.105A4.487,4.487,0,0,1,53.258,8.8a4.249,4.249,0,0,1,3.125,1.121,3.985,3.985,0,0,1,1.133,2.965,4.23,4.23,0,0,1-1.168,3.148A4.348,4.348,0,0,1,53.148,17.2Zm.063-6.5a1.647,1.647,0,0,0-1.359.6,2.653,2.653,0,0,0-.484,1.7q0,2.3,1.859,2.3Q55,15.3,55,12.938,55,10.7,53.211,10.7Z" transform="translate(1007.358 9155.064)" fill="#12263f"/>
    <path id="Trazado_622322" data-name="Trazado 622322" d="M35.016,5.8v7.4h1.438v1.172H35.016V17H33.75V14.367H28.484V13.258q.734-.828,1.484-1.77T31.4,9.578q.684-.969,1.266-1.934a17.672,17.672,0,0,0,.98-1.848ZM29.93,13.2h3.82V7.711q-.586,1.023-1.109,1.828t-1,1.461q-.473.656-.9,1.188T29.93,13.2Zm15.039-1.844a11.005,11.005,0,0,1-.254,2.492,5.807,5.807,0,0,1-.734,1.832,3.305,3.305,0,0,1-1.18,1.133,3.23,3.23,0,0,1-1.59.387,3.016,3.016,0,0,1-1.5-.371,3.152,3.152,0,0,1-1.113-1.082A5.484,5.484,0,0,1,37.906,14a10.8,10.8,0,0,1-.234-2.371,12.222,12.222,0,0,1,.246-2.594,5.933,5.933,0,0,1,.723-1.887A3.216,3.216,0,0,1,39.824,6a3.323,3.323,0,0,1,1.621-.387Q44.969,5.609,44.969,11.352Zm-1.312.125q0-4.781-2.273-4.781-2.4,0-2.4,4.867,0,4.539,2.352,4.539Q43.656,16.1,43.656,11.477Z" transform="translate(1007.358 9197.064)" fill="#12263f"/>
    <path id="Trazado_622321" data-name="Trazado 622321" d="M19.246,17H17.965V7.32a2.966,2.966,0,0,1-.434.34,7.068,7.068,0,0,1-.641.379q-.355.188-.75.352a5.451,5.451,0,0,1-.77.258v-1.3a7.448,7.448,0,0,0,.895-.316q.473-.2.93-.445t.863-.516a6.854,6.854,0,0,0,.7-.527h.484ZM29.66,13.828a3.266,3.266,0,0,1-.285,1.379,3.045,3.045,0,0,1-.8,1.063,3.714,3.714,0,0,1-1.246.684,5.04,5.04,0,0,1-1.6.242,4.654,4.654,0,0,1-2.547-.609V15.211a4.081,4.081,0,0,0,2.594.891,3.525,3.525,0,0,0,1.059-.148,2.374,2.374,0,0,0,.813-.43,1.909,1.909,0,0,0,.523-.68,2.123,2.123,0,0,0,.184-.9q0-2.2-3.125-2.2h-.93V10.664h.883q2.766,0,2.766-2.062,0-1.906-2.109-1.906a3.592,3.592,0,0,0-2.227.8V6.25a4.868,4.868,0,0,1,2.547-.641,3.913,3.913,0,0,1,1.273.2,2.918,2.918,0,0,1,.977.547,2.423,2.423,0,0,1,.629.844,2.6,2.6,0,0,1,.223,1.086,2.735,2.735,0,0,1-2.234,2.844v.031a3.534,3.534,0,0,1,1.055.277,2.814,2.814,0,0,1,.836.559,2.49,2.49,0,0,1,.551.809A2.582,2.582,0,0,1,29.66,13.828Zm3.648,1.391-1.25,3.844h-.914l.914-3.844Zm8.445-1.391a3.266,3.266,0,0,1-.285,1.379,3.045,3.045,0,0,1-.8,1.063,3.714,3.714,0,0,1-1.246.684,5.04,5.04,0,0,1-1.6.242,4.654,4.654,0,0,1-2.547-.609V15.211a4.081,4.081,0,0,0,2.594.891,3.525,3.525,0,0,0,1.059-.148,2.374,2.374,0,0,0,.813-.43,1.909,1.909,0,0,0,.523-.68,2.123,2.123,0,0,0,.184-.9q0-2.2-3.125-2.2h-.93V10.664h.883q2.766,0,2.766-2.062,0-1.906-2.109-1.906a3.592,3.592,0,0,0-2.227.8V6.25a4.868,4.868,0,0,1,2.547-.641,3.913,3.913,0,0,1,1.273.2,2.918,2.918,0,0,1,.977.547,2.423,2.423,0,0,1,.629.844,2.6,2.6,0,0,1,.223,1.086,2.735,2.735,0,0,1-2.234,2.844v.031a3.534,3.534,0,0,1,1.055.277,2.814,2.814,0,0,1,.836.559,2.49,2.49,0,0,1,.551.809A2.582,2.582,0,0,1,41.754,13.828Zm8.719-2.414a2.361,2.361,0,0,1-1.844-.762,2.922,2.922,0,0,1-.687-2.035,3.14,3.14,0,0,1,.727-2.191,2.517,2.517,0,0,1,1.961-.8,2.354,2.354,0,0,1,1.855.742,3.033,3.033,0,0,1,.66,2.086,3.068,3.068,0,0,1-.738,2.152A2.5,2.5,0,0,1,50.473,11.414Zm.109-4.93a1.406,1.406,0,0,0-1.172.551,2.4,2.4,0,0,0-.43,1.512A2.3,2.3,0,0,0,49.4,10.02a1.392,1.392,0,0,0,1.148.527A1.36,1.36,0,0,0,51.7,10a2.461,2.461,0,0,0,.414-1.516,2.347,2.347,0,0,0-.41-1.473A1.343,1.343,0,0,0,50.582,6.484ZM57.973,5.8,50.785,17.078H49.668L56.848,5.8Zm-.828,11.375a2.355,2.355,0,0,1-1.844-.766,2.926,2.926,0,0,1-.687-2.031,3.148,3.148,0,0,1,.734-2.2,2.511,2.511,0,0,1,1.953-.809,2.344,2.344,0,0,1,1.852.75,3.064,3.064,0,0,1,.664,2.1,3.057,3.057,0,0,1-.738,2.145A2.5,2.5,0,0,1,57.145,17.172Zm.109-4.922a1.407,1.407,0,0,0-1.176.547,2.411,2.411,0,0,0-.426,1.516,2.273,2.273,0,0,0,.422,1.457,1.392,1.392,0,0,0,1.148.527,1.356,1.356,0,0,0,1.148-.551,2.464,2.464,0,0,0,.414-1.512,2.31,2.31,0,0,0-.41-1.469A1.355,1.355,0,0,0,57.254,12.25Z" transform="translate(1007.358 9237.064)" fill="#12263f"/>
    <line id="Línea_1192" data-name="Línea 1192" y2="122" transform="translate(1110.351 9145.064)" fill="none" stroke="#707070" stroke-width="2"/>
    <path id="Trazado_622325" data-name="Trazado 622325" d="M22.547,12.555A5.087,5.087,0,0,1,21.5,16a3.792,3.792,0,0,1-3.02,1.2,4.3,4.3,0,0,1-1.633-.3V14.523a2.344,2.344,0,0,0,1.453.492q1.727,0,1.727-2.562V5.8h2.516ZM32.359,17H29.9V15.781h-.039A2.792,2.792,0,0,1,27.414,17.2q-2.781,0-2.781-3.367V9h2.461v4.609q0,1.7,1.344,1.7A1.329,1.329,0,0,0,29.5,14.84a1.874,1.874,0,0,0,.4-1.262V9h2.461Zm9.8,0H39.7V12.555q0-1.859-1.328-1.859a1.318,1.318,0,0,0-1.055.492,1.875,1.875,0,0,0-.414,1.25V17H34.438V9h2.469v1.266h.031A2.829,2.829,0,0,1,39.508,8.8q2.656,0,2.656,3.3Zm3.2-9.266a1.442,1.442,0,0,1-1.023-.371,1.2,1.2,0,0,1-.4-.91,1.153,1.153,0,0,1,.4-.906,1.671,1.671,0,0,1,2.051,0,1.158,1.158,0,0,1,.395.906,1.191,1.191,0,0,1-.395.922A1.466,1.466,0,0,1,45.367,7.734ZM46.586,17H44.117V9h2.469Zm5.891.2a4.3,4.3,0,0,1-3.145-1.121,4.064,4.064,0,0,1-1.145-3.043,4.065,4.065,0,0,1,1.188-3.105A4.487,4.487,0,0,1,52.586,8.8a4.249,4.249,0,0,1,3.125,1.121,3.985,3.985,0,0,1,1.133,2.965,4.23,4.23,0,0,1-1.168,3.148A4.348,4.348,0,0,1,52.477,17.2Zm.063-6.5a1.647,1.647,0,0,0-1.359.6A2.653,2.653,0,0,0,50.7,13q0,2.3,1.859,2.3,1.773,0,1.773-2.367Q54.328,10.7,52.539,10.7Z" transform="translate(1151.351 9155.064)" fill="#12263f"/>
    <path id="Trazado_622324" data-name="Trazado 622324" d="M36.359,13.445a4.15,4.15,0,0,1-.266,1.508,3.624,3.624,0,0,1-.734,1.188,3.281,3.281,0,0,1-1.117.777,3.538,3.538,0,0,1-1.406.277,3.1,3.1,0,0,1-2.645-1.363,4.853,4.853,0,0,1-.707-1.613,8.74,8.74,0,0,1-.242-2.148,10.1,10.1,0,0,1,.324-2.652,6.444,6.444,0,0,1,.922-2.039A4.25,4.25,0,0,1,31.93,6.07a3.862,3.862,0,0,1,1.883-.461,4.535,4.535,0,0,1,1.859.32V7.141A3.949,3.949,0,0,0,33.844,6.7a2.724,2.724,0,0,0-1.352.336,3.1,3.1,0,0,0-1.031.949,4.63,4.63,0,0,0-.66,1.48,7.511,7.511,0,0,0-.23,1.93H30.6a2.69,2.69,0,0,1,2.555-1.4,3.363,3.363,0,0,1,1.324.25,2.859,2.859,0,0,1,1.008.707,3.183,3.183,0,0,1,.645,1.09A4.148,4.148,0,0,1,36.359,13.445Zm-1.312.164a3.486,3.486,0,0,0-.148-1.055,2.288,2.288,0,0,0-.426-.8,1.836,1.836,0,0,0-.684-.5,2.3,2.3,0,0,0-.922-.176,2.158,2.158,0,0,0-.883.18,2.2,2.2,0,0,0-.7.488,2.286,2.286,0,0,0-.633,1.59,3.475,3.475,0,0,0,.164,1.082,2.8,2.8,0,0,0,.461.879,2.192,2.192,0,0,0,.707.59,1.931,1.931,0,0,0,.91.215,2.084,2.084,0,0,0,.883-.184,1.97,1.97,0,0,0,.68-.512,2.369,2.369,0,0,0,.438-.785A3.112,3.112,0,0,0,35.047,13.609Zm9.523-.031a3.771,3.771,0,0,1-.281,1.484,3.245,3.245,0,0,1-.8,1.141,3.586,3.586,0,0,1-1.254.734A4.9,4.9,0,0,1,40.6,17.2a4.511,4.511,0,0,1-2.32-.469V15.367a4.266,4.266,0,0,0,2.336.734,3.161,3.161,0,0,0,1.1-.18,2.439,2.439,0,0,0,.832-.5,2.141,2.141,0,0,0,.527-.773,2.618,2.618,0,0,0,.184-.992,2.125,2.125,0,0,0-.734-1.715,3.221,3.221,0,0,0-2.133-.621q-.227,0-.477.008t-.5.02q-.25.012-.488.027t-.434.039L38.875,5.8h5.18V6.953h-4.07l-.227,3.289q.25-.016.531-.027t.5-.012a5.028,5.028,0,0,1,1.594.234,3.377,3.377,0,0,1,1.191.668,2.8,2.8,0,0,1,.742,1.063A3.737,3.737,0,0,1,44.57,13.578Z" transform="translate(1151.351 9197.064)" fill="#12263f"/>
    <path id="Trazado_622326" data-name="Trazado 622326" d="M19.621,8.734a2.316,2.316,0,0,0-.16-.9,1.739,1.739,0,0,0-1.09-1.016,2.555,2.555,0,0,0-.812-.125,2.688,2.688,0,0,0-.734.1,3.57,3.57,0,0,0-.7.281,4.3,4.3,0,0,0-.656.43,4.74,4.74,0,0,0-.59.555V6.688a3.831,3.831,0,0,1,1.207-.8,4.25,4.25,0,0,1,1.629-.277,3.932,3.932,0,0,1,1.273.2A2.92,2.92,0,0,1,20,6.391a2.691,2.691,0,0,1,.676.945,3.188,3.188,0,0,1,.246,1.289,4.42,4.42,0,0,1-.152,1.2,3.721,3.721,0,0,1-.461,1.016,4.9,4.9,0,0,1-.777.914,11.011,11.011,0,0,1-1.1.891q-.789.563-1.3.961a5.75,5.75,0,0,0-.812.746,2.165,2.165,0,0,0-.422.7,2.43,2.43,0,0,0-.121.8h5.578V17H14.441v-.555A4.622,4.622,0,0,1,14.6,15.18a3.286,3.286,0,0,1,.516-1.039,5.767,5.767,0,0,1,.941-.984q.582-.492,1.426-1.109a9.014,9.014,0,0,0,1.02-.836,4.346,4.346,0,0,0,.66-.8,2.862,2.862,0,0,0,.355-.809A3.486,3.486,0,0,0,19.621,8.734ZM27.871,17H26.59V7.32a2.966,2.966,0,0,1-.434.34,7.068,7.068,0,0,1-.641.379q-.355.188-.75.352a5.451,5.451,0,0,1-.77.258v-1.3a7.448,7.448,0,0,0,.895-.316q.473-.2.93-.445t.863-.516a6.854,6.854,0,0,0,.7-.527h.484Zm5.438-1.781-1.25,3.844h-.914l.914-3.844ZM42.2,6.539q-.258.445-.621,1.109t-.77,1.492q-.406.828-.828,1.781t-.789,1.969q-.367,1.016-.645,2.059a15.315,15.315,0,0,0-.4,2.051H36.77a15.579,15.579,0,0,1,.434-2.043q.293-1.043.664-2.047t.785-1.934q.414-.93.8-1.711t.715-1.379q.324-.6.52-.934H35.074V5.8H42.2Zm8.273,4.875a2.361,2.361,0,0,1-1.844-.762,2.922,2.922,0,0,1-.687-2.035,3.14,3.14,0,0,1,.727-2.191,2.517,2.517,0,0,1,1.961-.8,2.354,2.354,0,0,1,1.855.742,3.033,3.033,0,0,1,.66,2.086,3.068,3.068,0,0,1-.738,2.152A2.5,2.5,0,0,1,50.473,11.414Zm.109-4.93a1.406,1.406,0,0,0-1.172.551,2.4,2.4,0,0,0-.43,1.512A2.3,2.3,0,0,0,49.4,10.02a1.392,1.392,0,0,0,1.148.527A1.36,1.36,0,0,0,51.7,10a2.461,2.461,0,0,0,.414-1.516,2.347,2.347,0,0,0-.41-1.473A1.343,1.343,0,0,0,50.582,6.484ZM57.973,5.8,50.785,17.078H49.668L56.848,5.8Zm-.828,11.375a2.355,2.355,0,0,1-1.844-.766,2.926,2.926,0,0,1-.687-2.031,3.148,3.148,0,0,1,.734-2.2,2.511,2.511,0,0,1,1.953-.809,2.344,2.344,0,0,1,1.852.75,3.064,3.064,0,0,1,.664,2.1,3.057,3.057,0,0,1-.738,2.145A2.5,2.5,0,0,1,57.145,17.172Zm.109-4.922a1.407,1.407,0,0,0-1.176.547,2.411,2.411,0,0,0-.426,1.516,2.273,2.273,0,0,0,.422,1.457,1.392,1.392,0,0,0,1.148.527,1.356,1.356,0,0,0,1.148-.551,2.464,2.464,0,0,0,.414-1.512,2.31,2.31,0,0,0-.41-1.469A1.355,1.355,0,0,0,57.254,12.25Z" transform="translate(1151.351 9237.064)" fill="#12263f"/>
    <rect id="Rectángulo_53315" data-name="Rectángulo 53315" width="8" height="8" transform="translate(295.333 9201.564)" fill="#a3314f"/>
    <line id="Línea_1207" data-name="Línea 1207" x2="14" transform="translate(295.333 9247.064)" fill="none" stroke="#ced371" stroke-width="6"/>
    <path id="Trazado_259404" data-name="Trazado 259404" d="M0,0H876.535V5.4H0Z" transform="translate(389 9143.524)" fill="#ced371"/>
    <path id="Trazado_622306" data-name="Trazado 622306" d="M16.336,17.2q-4,0-4-5.617a7.643,7.643,0,0,1,1.082-4.441,3.605,3.605,0,0,1,3.137-1.527q3.906,0,3.906,5.711a7.526,7.526,0,0,1-1.066,4.359A3.513,3.513,0,0,1,16.336,17.2Zm.109-9.7q-1.6,0-1.6,4.023,0,3.789,1.57,3.789,1.531,0,1.531-3.906T16.445,7.492Z" transform="translate(351.333 9135.064)" fill="#12263f"/>
    <path id="Trazado_622305" data-name="Trazado 622305" d="M9.094,5.547V17H6.633V8.328a2.947,2.947,0,0,1-.48.34,4.96,4.96,0,0,1-.59.289,5.267,5.267,0,0,1-.648.219A4.736,4.736,0,0,1,4.25,9.3V7.227a10.266,10.266,0,0,0,1.813-.719A10.315,10.315,0,0,0,7.6,5.547ZM16.336,17.2q-4,0-4-5.617a7.643,7.643,0,0,1,1.082-4.441,3.605,3.605,0,0,1,3.137-1.527q3.906,0,3.906,5.711a7.526,7.526,0,0,1-1.066,4.359A3.513,3.513,0,0,1,16.336,17.2Zm.109-9.7q-1.6,0-1.6,4.023,0,3.789,1.57,3.789,1.531,0,1.531-3.906T16.445,7.492Z" transform="translate(351.333 9087.064)" fill="#12263f"/>
    <path id="Trazado_622304" data-name="Trazado 622304" d="M5.945,14.953H10.7V17H3.242v-.844a3.927,3.927,0,0,1,.289-1.543,5.12,5.12,0,0,1,.727-1.227,6.3,6.3,0,0,1,.957-.961q.52-.418.988-.754Q6.7,11.32,7.066,11a4.919,4.919,0,0,0,.625-.637,2.421,2.421,0,0,0,.379-.641A1.905,1.905,0,0,0,8.2,9.031a1.39,1.39,0,0,0-.406-1.086,1.806,1.806,0,0,0-1.242-.367A4.172,4.172,0,0,0,3.781,8.727V6.555a5.937,5.937,0,0,1,3.3-.945,4.869,4.869,0,0,1,1.527.223,3.231,3.231,0,0,1,1.145.637,2.716,2.716,0,0,1,.715,1,3.388,3.388,0,0,1,.246,1.316,3.712,3.712,0,0,1-.238,1.375,4.225,4.225,0,0,1-.633,1.094,5.74,5.74,0,0,1-.91.9q-.516.41-1.07.793-.375.266-.723.527A6.851,6.851,0,0,0,6.523,14a2.8,2.8,0,0,0-.422.5A.856.856,0,0,0,5.945,14.953ZM16.336,17.2q-4,0-4-5.617a7.643,7.643,0,0,1,1.082-4.441,3.605,3.605,0,0,1,3.137-1.527q3.906,0,3.906,5.711a7.526,7.526,0,0,1-1.066,4.359A3.513,3.513,0,0,1,16.336,17.2Zm.109-9.7q-1.6,0-1.6,4.023,0,3.789,1.57,3.789,1.531,0,1.531-3.906T16.445,7.492Z" transform="translate(351.333 9046.064)" fill="#12263f"/>
    <path id="Trazado_622303" data-name="Trazado 622303" d="M3.508,16.633V14.484a4.336,4.336,0,0,0,2.625.82A2.363,2.363,0,0,0,7.605,14.9a1.349,1.349,0,0,0,.527-1.133,1.288,1.288,0,0,0-.652-1.156A3.38,3.38,0,0,0,5.688,12.2H4.648V10.313h.961q2.187,0,2.188-1.453,0-1.367-1.68-1.367a3.829,3.829,0,0,0-2.187.727V6.2a6.042,6.042,0,0,1,2.75-.594,4.15,4.15,0,0,1,2.676.773,2.461,2.461,0,0,1,.957,2.008,2.611,2.611,0,0,1-2.227,2.75v.039a3.027,3.027,0,0,1,1.875.863,2.434,2.434,0,0,1,.688,1.754A3.006,3.006,0,0,1,9.5,16.281a4.965,4.965,0,0,1-3.172.914A6.13,6.13,0,0,1,3.508,16.633Zm12.828.563q-4,0-4-5.617a7.643,7.643,0,0,1,1.082-4.441,3.605,3.605,0,0,1,3.137-1.527q3.906,0,3.906,5.711a7.526,7.526,0,0,1-1.066,4.359A3.513,3.513,0,0,1,16.336,17.2Zm.109-9.7q-1.6,0-1.6,4.023,0,3.789,1.57,3.789,1.531,0,1.531-3.906T16.445,7.492Z" transform="translate(351.333 9005.064)" fill="#12263f"/>
    <path id="Trazado_622302" data-name="Trazado 622302" d="M10.031,5.8v7.063h1.344V14.7H10.031V17H7.781V14.7H2.9v-1.93q.648-.727,1.344-1.59T5.586,9.406q.648-.914,1.207-1.84A18.443,18.443,0,0,0,7.742,5.8ZM5.109,12.859H7.781V8.945q-.273.508-.594,1.027T6.516,11q-.352.5-.711.977T5.109,12.859ZM16.336,17.2q-4,0-4-5.617a7.643,7.643,0,0,1,1.082-4.441,3.605,3.605,0,0,1,3.137-1.527q3.906,0,3.906,5.711a7.526,7.526,0,0,1-1.066,4.359A3.513,3.513,0,0,1,16.336,17.2Zm.109-9.7q-1.6,0-1.6,4.023,0,3.789,1.57,3.789,1.531,0,1.531-3.906T16.445,7.492Z" transform="translate(351.333 8964.064)" fill="#12263f"/>
    <path id="Trazado_622301" data-name="Trazado 622301" d="M3.7,16.711V14.6a4.605,4.605,0,0,0,2.445.7,2.3,2.3,0,0,0,1.527-.465,1.565,1.565,0,0,0,.551-1.262q0-1.664-2.352-1.664a17.413,17.413,0,0,0-2,.133L4.3,5.8h5.93V7.813H6.18l-.156,2.242q.6-.047,1.039-.047a3.821,3.821,0,0,1,2.7.906,3.165,3.165,0,0,1,.977,2.438,3.6,3.6,0,0,1-1.164,2.77A4.473,4.473,0,0,1,6.422,17.2,6.754,6.754,0,0,1,3.7,16.711Zm12.633.484q-4,0-4-5.617a7.643,7.643,0,0,1,1.082-4.441,3.605,3.605,0,0,1,3.137-1.527q3.906,0,3.906,5.711a7.526,7.526,0,0,1-1.066,4.359A3.513,3.513,0,0,1,16.336,17.2Zm.109-9.7q-1.6,0-1.6,4.023,0,3.789,1.57,3.789,1.531,0,1.531-3.906T16.445,7.492Z" transform="translate(351.333 8923.064)" fill="#12263f"/>
    <path id="Trazado_622300" data-name="Trazado 622300" d="M11.266,13.273a4.107,4.107,0,0,1-.289,1.547,3.776,3.776,0,0,1-.8,1.246,3.723,3.723,0,0,1-1.227.828,3.949,3.949,0,0,1-1.555.3A3.922,3.922,0,0,1,5.7,16.844a3.414,3.414,0,0,1-1.262-1.02,4.767,4.767,0,0,1-.789-1.637,8.088,8.088,0,0,1-.273-2.2A9.039,9.039,0,0,1,3.73,9.371,6.018,6.018,0,0,1,4.746,7.359a4.562,4.562,0,0,1,1.6-1.293,4.751,4.751,0,0,1,2.109-.457,5.32,5.32,0,0,1,2.016.3V7.977a3.7,3.7,0,0,0-1.859-.484,2.6,2.6,0,0,0-1.133.242,2.5,2.5,0,0,0-.871.688A3.324,3.324,0,0,0,6.035,9.5a4.781,4.781,0,0,0-.223,1.4h.047A2.717,2.717,0,0,1,8.211,9.8a3.064,3.064,0,0,1,1.258.25,2.729,2.729,0,0,1,.961.707,3.243,3.243,0,0,1,.617,1.1A4.379,4.379,0,0,1,11.266,13.273Zm-2.414.156q0-1.8-1.477-1.8a1.449,1.449,0,0,0-.609.125A1.356,1.356,0,0,0,6.3,12.1a1.6,1.6,0,0,0-.3.535,2.1,2.1,0,0,0-.105.684A2.644,2.644,0,0,0,6,14.094a2.054,2.054,0,0,0,.309.629,1.528,1.528,0,0,0,.473.426,1.206,1.206,0,0,0,.609.156A1.319,1.319,0,0,0,8,15.168a1.356,1.356,0,0,0,.461-.383,1.759,1.759,0,0,0,.293-.594A2.708,2.708,0,0,0,8.852,13.43ZM16.336,17.2q-4,0-4-5.617a7.643,7.643,0,0,1,1.082-4.441,3.605,3.605,0,0,1,3.137-1.527q3.906,0,3.906,5.711a7.526,7.526,0,0,1-1.066,4.359A3.513,3.513,0,0,1,16.336,17.2Zm.109-9.7q-1.6,0-1.6,4.023,0,3.789,1.57,3.789,1.531,0,1.531-3.906T16.445,7.492Z" transform="translate(351.333 8882.064)" fill="#12263f"/>
    <path id="Trazado_622299" data-name="Trazado 622299" d="M11.141,7.219Q10.391,8.57,9.8,9.754T8.75,12.09a22.03,22.03,0,0,0-.773,2.344A22.638,22.638,0,0,0,7.453,17H4.875a21.094,21.094,0,0,1,.578-2.516,23.592,23.592,0,0,1,.832-2.348Q6.758,11,7.332,9.922T8.547,7.813h-5.2V5.8h7.8Zm5.2,9.977q-4,0-4-5.617a7.643,7.643,0,0,1,1.082-4.441,3.605,3.605,0,0,1,3.137-1.527q3.906,0,3.906,5.711a7.526,7.526,0,0,1-1.066,4.359A3.513,3.513,0,0,1,16.336,17.2Zm.109-9.7q-1.6,0-1.6,4.023,0,3.789,1.57,3.789,1.531,0,1.531-3.906T16.445,7.492Z" transform="translate(351.333 8841.064)" fill="#12263f"/>
    <path id="Trazado_622298" data-name="Trazado 622298" d="M3.219,13.984a2.983,2.983,0,0,1,.137-.9,2.734,2.734,0,0,1,.41-.8,3.019,3.019,0,0,1,.684-.664,3.672,3.672,0,0,1,.965-.48,3.46,3.46,0,0,1-1.32-1.082,2.473,2.473,0,0,1-.469-1.465A2.649,2.649,0,0,1,3.895,7.4a2.881,2.881,0,0,1,.746-.945,3.49,3.49,0,0,1,1.137-.621,4.485,4.485,0,0,1,1.441-.223,4.573,4.573,0,0,1,1.461.223,3.572,3.572,0,0,1,1.145.617,2.8,2.8,0,0,1,.746.934,2.615,2.615,0,0,1,.266,1.172,2.326,2.326,0,0,1-.5,1.449,3.722,3.722,0,0,1-1.383,1.074,3.769,3.769,0,0,1,.961.48,3.093,3.093,0,0,1,.7.668,2.736,2.736,0,0,1,.422.816,3.006,3.006,0,0,1,.141.918,2.933,2.933,0,0,1-.289,1.309,2.979,2.979,0,0,1-.816,1.016,3.853,3.853,0,0,1-1.258.66A5.26,5.26,0,0,1,7.2,17.18a5.287,5.287,0,0,1-1.6-.23A3.84,3.84,0,0,1,4.34,16.3a3.025,3.025,0,0,1-.824-1.012A2.852,2.852,0,0,1,3.219,13.984Zm2.336-.211a1.9,1.9,0,0,0,.117.688,1.406,1.406,0,0,0,.336.516,1.5,1.5,0,0,0,.52.324,1.906,1.906,0,0,0,.676.113,1.8,1.8,0,0,0,.66-.117,1.549,1.549,0,0,0,.52-.328,1.493,1.493,0,0,0,.344-.516,1.86,1.86,0,0,0,.008-1.32,1.523,1.523,0,0,0-.336-.527,1.635,1.635,0,0,0-1.2-.488,1.761,1.761,0,0,0-.656.121,1.5,1.5,0,0,0-.523.344,1.622,1.622,0,0,0-.344.527A1.733,1.733,0,0,0,5.555,13.773ZM5.9,8.813A1.48,1.48,0,0,0,6,9.371a1.441,1.441,0,0,0,.285.453,1.3,1.3,0,0,0,.426.3,1.3,1.3,0,0,0,1.043,0,1.331,1.331,0,0,0,.426-.3,1.459,1.459,0,0,0,.395-1.008,1.552,1.552,0,0,0-.1-.566,1.339,1.339,0,0,0-.715-.754,1.342,1.342,0,0,0-1.07,0,1.309,1.309,0,0,0-.422.3A1.369,1.369,0,0,0,6,8.254,1.585,1.585,0,0,0,5.9,8.813ZM16.336,17.2q-4,0-4-5.617a7.643,7.643,0,0,1,1.082-4.441,3.605,3.605,0,0,1,3.137-1.527q3.906,0,3.906,5.711a7.526,7.526,0,0,1-1.066,4.359A3.513,3.513,0,0,1,16.336,17.2Zm.109-9.7q-1.6,0-1.6,4.023,0,3.789,1.57,3.789,1.531,0,1.531-3.906T16.445,7.492Z" transform="translate(351.333 8800.064)" fill="#12263f"/>
    <rect id="Rectángulo_53309" data-name="Rectángulo 53309" width="48" height="235" transform="translate(442.333 8908.064)" fill="#a3314f"/>
    <rect id="Rectángulo_53310" data-name="Rectángulo 53310" width="48" height="89" transform="translate(579.594 9054.064)" fill="#a3314f"/>
    <rect id="Rectángulo_53311" data-name="Rectángulo 53311" width="48" height="294" transform="translate(731.073 8849.064)" fill="#a3314f"/>
    <rect id="Rectángulo_53312" data-name="Rectángulo 53312" width="48" height="212" transform="translate(881.586 8931.064)" fill="#a3314f"/>
    <rect id="Rectángulo_53313" data-name="Rectángulo 53313" width="48" height="171" transform="translate(1029.205 8972.064)" fill="#a3314f"/>
    <rect id="Rectángulo_53314" data-name="Rectángulo 53314" width="48" height="275" transform="translate(1174.167 8868.064)" fill="#a3314f"/>
    <path id="Trazado_259405" data-name="Trazado 259405" d="M-9.67-1.265,138,144" transform="translate(468.297 8909.064)" fill="none" stroke="#ced371" stroke-width="6"/>
    <line id="Línea_1203" data-name="Línea 1203" x1="159" y2="206" transform="translate(599.908 8850.564)" fill="none" stroke="#ced371" stroke-width="6"/>
    <line id="Línea_1204" data-name="Línea 1204" x1="159" y1="83" transform="translate(749.758 8849.564)" fill="none" stroke="#ced371" stroke-width="6"/>
    <path id="Trazado_259398" data-name="Trazado 259398" d="M153,41-.644-.262" transform="translate(902.661 8932.564)" fill="none" stroke="#ced371" stroke-width="6"/>
    <line id="Línea_1206" data-name="Línea 1206" x1="156" y2="105" transform="translate(1042.167 8869.064)" fill="none" stroke="#ced371" stroke-width="6"/>
    <path id="Trazado_622327" data-name="Trazado 622327" d="M4.539,17.2q-4,0-4-5.617A7.643,7.643,0,0,1,1.621,7.137,3.605,3.605,0,0,1,4.758,5.609q3.906,0,3.906,5.711A7.526,7.526,0,0,1,7.6,15.68,3.513,3.513,0,0,1,4.539,17.2Zm.109-9.7q-1.6,0-1.6,4.023,0,3.789,1.57,3.789,1.531,0,1.531-3.906T4.648,7.492Z" transform="translate(1273.167 9136.064)" fill="#12263f"/>
    <path id="Trazado_622328" data-name="Trazado 622328" d="M1.109,16.711V14.6a4.605,4.605,0,0,0,2.445.7,2.3,2.3,0,0,0,1.527-.465,1.565,1.565,0,0,0,.551-1.262q0-1.664-2.352-1.664a17.413,17.413,0,0,0-2,.133L1.7,5.8h5.93V7.813H3.586L3.43,10.055q.6-.047,1.039-.047a3.821,3.821,0,0,1,2.7.906,3.165,3.165,0,0,1,.977,2.438,3.6,3.6,0,0,1-1.164,2.77A4.473,4.473,0,0,1,3.828,17.2,6.754,6.754,0,0,1,1.109,16.711ZM15.7,11.477a2.553,2.553,0,0,1-1.926-.758,2.814,2.814,0,0,1-.73-2.039,3.094,3.094,0,0,1,.777-2.219,2.723,2.723,0,0,1,2.074-.82,2.538,2.538,0,0,1,1.941.742,2.924,2.924,0,0,1,.7,2.086,3.053,3.053,0,0,1-.773,2.2A2.714,2.714,0,0,1,15.7,11.477Zm.148-4.461Q14.7,7.016,14.7,8.6q0,1.5,1.086,1.5,1.109,0,1.109-1.562Q16.9,7.016,15.845,7.016ZM23.876,5.8,16.579,17H14.673L21.954,5.8Zm-1.2,11.359a2.553,2.553,0,0,1-1.926-.758,2.814,2.814,0,0,1-.73-2.039,3.094,3.094,0,0,1,.777-2.219,2.723,2.723,0,0,1,2.074-.82,2.55,2.55,0,0,1,1.945.734,2.9,2.9,0,0,1,.7,2.078,3.081,3.081,0,0,1-.773,2.2A2.7,2.7,0,0,1,22.673,17.156ZM22.8,12.7q-1.133,0-1.133,1.586,0,1.5,1.1,1.5t1.109-1.562a1.853,1.853,0,0,0-.3-1.125A.929.929,0,0,0,22.8,12.7Z" transform="translate(1273.167 9066.064)" fill="#12263f"/>
    <path id="Trazado_622329" data-name="Trazado 622329" d="M6.5,5.547V17H4.039V8.328a2.947,2.947,0,0,1-.48.34,4.96,4.96,0,0,1-.59.289,5.267,5.267,0,0,1-.648.219,4.736,4.736,0,0,1-.664.129V7.227a10.266,10.266,0,0,0,1.813-.719,10.315,10.315,0,0,0,1.539-.961ZM13.1,17.2q-4,0-4-5.617a7.643,7.643,0,0,1,1.082-4.441,3.605,3.605,0,0,1,3.137-1.527q3.906,0,3.906,5.711a7.526,7.526,0,0,1-1.066,4.359A3.513,3.513,0,0,1,13.1,17.2Zm.109-9.7q-1.6,0-1.6,4.023,0,3.789,1.57,3.789,1.531,0,1.531-3.906T13.212,7.492Zm7.29,7.539-1.148,3.953H17.431l.8-3.953Zm4.86,2.164q-4,0-4-5.617a7.643,7.643,0,0,1,1.082-4.441A3.605,3.605,0,0,1,25.58,5.609q3.906,0,3.906,5.711A7.526,7.526,0,0,1,28.42,15.68,3.513,3.513,0,0,1,25.361,17.2Zm.109-9.7q-1.6,0-1.6,4.023,0,3.789,1.57,3.789,1.531,0,1.531-3.906T25.471,7.492ZM3.359,35.477a2.553,2.553,0,0,1-1.926-.758A2.814,2.814,0,0,1,.7,32.68a3.094,3.094,0,0,1,.777-2.219,2.723,2.723,0,0,1,2.074-.82,2.538,2.538,0,0,1,1.941.742,2.924,2.924,0,0,1,.7,2.086,3.053,3.053,0,0,1-.773,2.2A2.714,2.714,0,0,1,3.359,35.477Zm.148-4.461q-1.141,0-1.141,1.586,0,1.5,1.086,1.5,1.109,0,1.109-1.562Q4.563,31.016,3.508,31.016ZM11.539,29.8,4.242,41H2.336L9.617,29.8Zm-1.2,11.359A2.553,2.553,0,0,1,8.41,40.4a2.814,2.814,0,0,1-.73-2.039,3.094,3.094,0,0,1,.777-2.219,2.723,2.723,0,0,1,2.074-.82,2.55,2.55,0,0,1,1.945.734,2.9,2.9,0,0,1,.7,2.078,3.081,3.081,0,0,1-.773,2.2A2.7,2.7,0,0,1,10.336,41.156Zm.125-4.461q-1.133,0-1.133,1.586,0,1.5,1.1,1.5t1.109-1.562a1.853,1.853,0,0,0-.3-1.125A.929.929,0,0,0,10.461,36.7Z" transform="translate(1273.167 8988.064)" fill="#12263f"/>
    <path id="Trazado_622330" data-name="Trazado 622330" d="M6.5,5.547V17H4.039V8.328a2.947,2.947,0,0,1-.48.34,4.96,4.96,0,0,1-.59.289,5.267,5.267,0,0,1-.648.219,4.736,4.736,0,0,1-.664.129V7.227a10.266,10.266,0,0,0,1.813-.719,10.315,10.315,0,0,0,1.539-.961ZM9.672,16.711V14.6a4.605,4.605,0,0,0,2.445.7,2.3,2.3,0,0,0,1.527-.465,1.565,1.565,0,0,0,.551-1.262q0-1.664-2.352-1.664a17.413,17.413,0,0,0-2,.133l.422-6.25H16.2V7.813H12.149l-.156,2.242q.6-.047,1.039-.047a3.821,3.821,0,0,1,2.7.906,3.165,3.165,0,0,1,.977,2.438,3.6,3.6,0,0,1-1.164,2.77A4.473,4.473,0,0,1,12.391,17.2,6.754,6.754,0,0,1,9.672,16.711ZM20.5,15.031l-1.148,3.953H17.431l.8-3.953Zm4.86,2.164q-4,0-4-5.617a7.643,7.643,0,0,1,1.082-4.441A3.605,3.605,0,0,1,25.58,5.609q3.906,0,3.906,5.711A7.526,7.526,0,0,1,28.42,15.68,3.513,3.513,0,0,1,25.361,17.2Zm.109-9.7q-1.6,0-1.6,4.023,0,3.789,1.57,3.789,1.531,0,1.531-3.906T25.471,7.492ZM3.359,35.477a2.553,2.553,0,0,1-1.926-.758A2.814,2.814,0,0,1,.7,32.68a3.094,3.094,0,0,1,.777-2.219,2.723,2.723,0,0,1,2.074-.82,2.538,2.538,0,0,1,1.941.742,2.924,2.924,0,0,1,.7,2.086,3.053,3.053,0,0,1-.773,2.2A2.714,2.714,0,0,1,3.359,35.477Zm.148-4.461q-1.141,0-1.141,1.586,0,1.5,1.086,1.5,1.109,0,1.109-1.562Q4.563,31.016,3.508,31.016ZM11.539,29.8,4.242,41H2.336L9.617,29.8Zm-1.2,11.359A2.553,2.553,0,0,1,8.41,40.4a2.814,2.814,0,0,1-.73-2.039,3.094,3.094,0,0,1,.777-2.219,2.723,2.723,0,0,1,2.074-.82,2.55,2.55,0,0,1,1.945.734,2.9,2.9,0,0,1,.7,2.078,3.081,3.081,0,0,1-.773,2.2A2.7,2.7,0,0,1,10.336,41.156Zm.125-4.461q-1.133,0-1.133,1.586,0,1.5,1.1,1.5t1.109-1.562a1.853,1.853,0,0,0-.3-1.125A.929.929,0,0,0,10.461,36.7Z" transform="translate(1273.167 8930.064)" fill="#12263f"/>
    <path id="Trazado_622331" data-name="Trazado 622331" d="M3.352,14.953H8.1V17H.648v-.844a3.927,3.927,0,0,1,.289-1.543,5.12,5.12,0,0,1,.727-1.227,6.3,6.3,0,0,1,.957-.961q.52-.418.988-.754Q4.1,11.32,4.473,11a4.919,4.919,0,0,0,.625-.637,2.421,2.421,0,0,0,.379-.641A1.905,1.905,0,0,0,5.6,9.031,1.39,1.39,0,0,0,5.2,7.945a1.806,1.806,0,0,0-1.242-.367A4.172,4.172,0,0,0,1.188,8.727V6.555a5.937,5.937,0,0,1,3.3-.945,4.869,4.869,0,0,1,1.527.223,3.231,3.231,0,0,1,1.145.637,2.716,2.716,0,0,1,.715,1,3.388,3.388,0,0,1,.246,1.316,3.712,3.712,0,0,1-.238,1.375,4.225,4.225,0,0,1-.633,1.094,5.74,5.74,0,0,1-.91.9q-.516.41-1.07.793-.375.266-.723.527A6.851,6.851,0,0,0,3.93,14a2.8,2.8,0,0,0-.422.5A.856.856,0,0,0,3.352,14.953ZM13.1,17.2q-4,0-4-5.617a7.643,7.643,0,0,1,1.082-4.441,3.605,3.605,0,0,1,3.137-1.527q3.906,0,3.906,5.711a7.526,7.526,0,0,1-1.066,4.359A3.513,3.513,0,0,1,13.1,17.2Zm.109-9.7q-1.6,0-1.6,4.023,0,3.789,1.57,3.789,1.531,0,1.531-3.906T13.212,7.492Zm7.29,7.539-1.148,3.953H17.431l.8-3.953Zm4.86,2.164q-4,0-4-5.617a7.643,7.643,0,0,1,1.082-4.441A3.605,3.605,0,0,1,25.58,5.609q3.906,0,3.906,5.711A7.526,7.526,0,0,1,28.42,15.68,3.513,3.513,0,0,1,25.361,17.2Zm.109-9.7q-1.6,0-1.6,4.023,0,3.789,1.57,3.789,1.531,0,1.531-3.906T25.471,7.492ZM3.359,35.477a2.553,2.553,0,0,1-1.926-.758A2.814,2.814,0,0,1,.7,32.68a3.094,3.094,0,0,1,.777-2.219,2.723,2.723,0,0,1,2.074-.82,2.538,2.538,0,0,1,1.941.742,2.924,2.924,0,0,1,.7,2.086,3.053,3.053,0,0,1-.773,2.2A2.714,2.714,0,0,1,3.359,35.477Zm.148-4.461q-1.141,0-1.141,1.586,0,1.5,1.086,1.5,1.109,0,1.109-1.562Q4.563,31.016,3.508,31.016ZM11.539,29.8,4.242,41H2.336L9.617,29.8Zm-1.2,11.359A2.553,2.553,0,0,1,8.41,40.4a2.814,2.814,0,0,1-.73-2.039,3.094,3.094,0,0,1,.777-2.219,2.723,2.723,0,0,1,2.074-.82,2.55,2.55,0,0,1,1.945.734,2.9,2.9,0,0,1,.7,2.078,3.081,3.081,0,0,1-.773,2.2A2.7,2.7,0,0,1,10.336,41.156Zm.125-4.461q-1.133,0-1.133,1.586,0,1.5,1.1,1.5t1.109-1.562a1.853,1.853,0,0,0-.3-1.125A.929.929,0,0,0,10.461,36.7Z" transform="translate(1273.167 8871.064)" fill="#12263f"/>
    <path id="Trazado_622332" data-name="Trazado 622332" d="M3.352,14.953H8.1V17H.648v-.844a3.927,3.927,0,0,1,.289-1.543,5.12,5.12,0,0,1,.727-1.227,6.3,6.3,0,0,1,.957-.961q.52-.418.988-.754Q4.1,11.32,4.473,11a4.919,4.919,0,0,0,.625-.637,2.421,2.421,0,0,0,.379-.641A1.905,1.905,0,0,0,5.6,9.031,1.39,1.39,0,0,0,5.2,7.945a1.806,1.806,0,0,0-1.242-.367A4.172,4.172,0,0,0,1.188,8.727V6.555a5.937,5.937,0,0,1,3.3-.945,4.869,4.869,0,0,1,1.527.223,3.231,3.231,0,0,1,1.145.637,2.716,2.716,0,0,1,.715,1,3.388,3.388,0,0,1,.246,1.316,3.712,3.712,0,0,1-.238,1.375,4.225,4.225,0,0,1-.633,1.094,5.74,5.74,0,0,1-.91.9q-.516.41-1.07.793-.375.266-.723.527A6.851,6.851,0,0,0,3.93,14a2.8,2.8,0,0,0-.422.5A.856.856,0,0,0,3.352,14.953Zm6.321,1.758V14.6a4.605,4.605,0,0,0,2.445.7,2.3,2.3,0,0,0,1.527-.465,1.565,1.565,0,0,0,.551-1.262q0-1.664-2.352-1.664a17.413,17.413,0,0,0-2,.133l.422-6.25H16.2V7.813H12.149l-.156,2.242q.6-.047,1.039-.047a3.821,3.821,0,0,1,2.7.906,3.165,3.165,0,0,1,.977,2.438,3.6,3.6,0,0,1-1.164,2.77A4.473,4.473,0,0,1,12.391,17.2,6.754,6.754,0,0,1,9.672,16.711ZM20.5,15.031l-1.148,3.953H17.431l.8-3.953Zm4.86,2.164q-4,0-4-5.617a7.643,7.643,0,0,1,1.082-4.441A3.605,3.605,0,0,1,25.58,5.609q3.906,0,3.906,5.711A7.526,7.526,0,0,1,28.42,15.68,3.513,3.513,0,0,1,25.361,17.2Zm.109-9.7q-1.6,0-1.6,4.023,0,3.789,1.57,3.789,1.531,0,1.531-3.906T25.471,7.492ZM3.359,35.477a2.553,2.553,0,0,1-1.926-.758A2.814,2.814,0,0,1,.7,32.68a3.094,3.094,0,0,1,.777-2.219,2.723,2.723,0,0,1,2.074-.82,2.538,2.538,0,0,1,1.941.742,2.924,2.924,0,0,1,.7,2.086,3.053,3.053,0,0,1-.773,2.2A2.714,2.714,0,0,1,3.359,35.477Zm.148-4.461q-1.141,0-1.141,1.586,0,1.5,1.086,1.5,1.109,0,1.109-1.562Q4.563,31.016,3.508,31.016ZM11.539,29.8,4.242,41H2.336L9.617,29.8Zm-1.2,11.359A2.553,2.553,0,0,1,8.41,40.4a2.814,2.814,0,0,1-.73-2.039,3.094,3.094,0,0,1,.777-2.219,2.723,2.723,0,0,1,2.074-.82,2.55,2.55,0,0,1,1.945.734,2.9,2.9,0,0,1,.7,2.078,3.081,3.081,0,0,1-.773,2.2A2.7,2.7,0,0,1,10.336,41.156Zm.125-4.461q-1.133,0-1.133,1.586,0,1.5,1.1,1.5t1.109-1.562a1.853,1.853,0,0,0-.3-1.125A.929.929,0,0,0,10.461,36.7Z" transform="translate(1273.167 8799.064)" fill="#12263f"/>
    <path id="Trazado_622297" data-name="Trazado 622297" d="M11.359,17H8.813L4.2,9.961a10.179,10.179,0,0,1-.562-.93H3.6q.062.594.063,1.813V17H1.281V5.8H4l4.445,6.82q.3.461.563.914h.031a11.978,11.978,0,0,1-.062-1.539V5.8h2.383Zm3.57-9.266a1.442,1.442,0,0,1-1.023-.371,1.2,1.2,0,0,1-.4-.91,1.153,1.153,0,0,1,.4-.906,1.671,1.671,0,0,1,2.051,0,1.158,1.158,0,0,1,.395.906,1.191,1.191,0,0,1-.395.922A1.466,1.466,0,0,1,14.93,7.734ZM16.148,17H13.68V9h2.469Zm9.7-8-2.977,8H20.055L17.219,9h2.641l1.391,4.93a7.2,7.2,0,0,1,.273,1.422h.031a8.069,8.069,0,0,1,.289-1.375L23.266,9Zm8.086,4.7H28.711q.125,1.742,2.2,1.742a4.286,4.286,0,0,0,2.32-.625V16.6a6.1,6.1,0,0,1-2.883.594,4.058,4.058,0,0,1-3.008-1.074,4.058,4.058,0,0,1-1.07-3,4.281,4.281,0,0,1,1.156-3.156A3.852,3.852,0,0,1,30.266,8.8a3.5,3.5,0,0,1,2.707,1.039,4,4,0,0,1,.957,2.82Zm-2.289-1.516q0-1.719-1.391-1.719a1.328,1.328,0,0,0-1.027.492,2.234,2.234,0,0,0-.527,1.227ZM37.867,17H35.4V5.156h2.469Zm14.32,0H49.719V15.9h-.031a2.768,2.768,0,0,1-2.477,1.3A3.033,3.033,0,0,1,44.8,16.137a4.382,4.382,0,0,1-.914-2.957A4.77,4.77,0,0,1,44.891,10a3.287,3.287,0,0,1,2.641-1.2,2.246,2.246,0,0,1,2.156,1.109h.031V5.156h2.469Zm-2.422-3.891v-.6a1.893,1.893,0,0,0-.453-1.3,1.6,1.6,0,0,0-2.461.129,2.993,2.993,0,0,0-.461,1.77,2.59,2.59,0,0,0,.445,1.625,1.581,1.581,0,0,0,2.457-.031A2.507,2.507,0,0,0,49.766,13.109Zm11.688.594H56.234q.125,1.742,2.2,1.742a4.286,4.286,0,0,0,2.32-.625V16.6a6.1,6.1,0,0,1-2.883.594,4.058,4.058,0,0,1-3.008-1.074,4.058,4.058,0,0,1-1.07-3,4.281,4.281,0,0,1,1.156-3.156A3.852,3.852,0,0,1,57.789,8.8,3.5,3.5,0,0,1,60.5,9.844a4,4,0,0,1,.957,2.82Zm-2.289-1.516q0-1.719-1.391-1.719a1.328,1.328,0,0,0-1.027.492,2.234,2.234,0,0,0-.527,1.227ZM74.953,9l-2.977,8H69.164L66.328,9h2.641l1.391,4.93a7.2,7.2,0,0,1,.273,1.422h.031a8.069,8.069,0,0,1,.289-1.375L72.375,9Zm8.086,4.7H77.82q.125,1.742,2.2,1.742a4.286,4.286,0,0,0,2.32-.625V16.6a6.1,6.1,0,0,1-2.883.594,4.058,4.058,0,0,1-3.008-1.074,4.058,4.058,0,0,1-1.07-3,4.281,4.281,0,0,1,1.156-3.156A3.852,3.852,0,0,1,79.375,8.8a3.5,3.5,0,0,1,2.707,1.039,4,4,0,0,1,.957,2.82ZM80.75,12.188q0-1.719-1.391-1.719a1.328,1.328,0,0,0-1.027.492,2.234,2.234,0,0,0-.527,1.227ZM92.234,17H89.773V12.555q0-1.859-1.328-1.859a1.318,1.318,0,0,0-1.055.492,1.875,1.875,0,0,0-.414,1.25V17H84.508V9h2.469v1.266h.031A2.829,2.829,0,0,1,89.578,8.8q2.656,0,2.656,3.3Zm6.789-.094a3.649,3.649,0,0,1-1.648.289q-2.609,0-2.609-2.711V10.82h-1.3V9h1.3V7.273l2.461-.7V9h1.8v1.82h-1.8v3.234q0,1.25.992,1.25a1.673,1.673,0,0,0,.8-.227ZM107.07,17h-2.336V15.852H104.7A2.607,2.607,0,0,1,102.32,17.2a2.492,2.492,0,0,1-1.832-.66,2.366,2.366,0,0,1-.668-1.762q0-2.328,2.758-2.687l2.172-.289q0-1.312-1.422-1.312a4.853,4.853,0,0,0-2.719.852V9.477a6.116,6.116,0,0,1,1.41-.469,7.413,7.413,0,0,1,1.629-.2q3.422,0,3.422,3.414Zm-2.32-3.25v-.539L103.3,13.4q-1.2.156-1.2,1.086a.9.9,0,0,0,.293.691,1.126,1.126,0,0,0,.793.27,1.462,1.462,0,0,0,1.133-.48A1.735,1.735,0,0,0,104.75,13.75Zm3.75,3.039v-2a5.256,5.256,0,0,0,1.215.547,4.028,4.028,0,0,0,1.145.18,2.455,2.455,0,0,0,1.035-.18.581.581,0,0,0,.379-.547.506.506,0,0,0-.172-.391,1.6,1.6,0,0,0-.441-.273,5.009,5.009,0,0,0-.59-.211q-.32-.094-.617-.211a5.913,5.913,0,0,1-.84-.387,2.427,2.427,0,0,1-.609-.48,1.889,1.889,0,0,1-.375-.633,2.525,2.525,0,0,1-.129-.852,2.192,2.192,0,0,1,.293-1.156,2.393,2.393,0,0,1,.781-.793,3.57,3.57,0,0,1,1.117-.453A5.825,5.825,0,0,1,112,8.8a7.261,7.261,0,0,1,1.078.082,8.047,8.047,0,0,1,1.078.238v1.906a3.9,3.9,0,0,0-1-.41,4.235,4.235,0,0,0-1.051-.137,2.328,2.328,0,0,0-.457.043,1.505,1.505,0,0,0-.379.125.7.7,0,0,0-.258.211.486.486,0,0,0-.094.293.541.541,0,0,0,.141.375,1.221,1.221,0,0,0,.367.27,3.625,3.625,0,0,0,.5.2q.277.09.551.184a7.161,7.161,0,0,1,.891.375,2.848,2.848,0,0,1,.684.477,1.872,1.872,0,0,1,.438.641,2.563,2.563,0,0,1-.156,2.09,2.471,2.471,0,0,1-.82.82,3.72,3.72,0,0,1-1.18.461,6.54,6.54,0,0,1-1.387.145A7.149,7.149,0,0,1,108.5,16.789ZM127.664,13.7h-5.219q.125,1.742,2.2,1.742a4.286,4.286,0,0,0,2.32-.625V16.6a6.1,6.1,0,0,1-2.883.594,4.058,4.058,0,0,1-3.008-1.074,4.058,4.058,0,0,1-1.07-3,4.281,4.281,0,0,1,1.156-3.156A3.852,3.852,0,0,1,124,8.8a3.5,3.5,0,0,1,2.707,1.039,4,4,0,0,1,.957,2.82Zm-2.289-1.516q0-1.719-1.391-1.719a1.328,1.328,0,0,0-1.027.492,2.234,2.234,0,0,0-.527,1.227ZM136.859,17H134.4V12.555q0-1.859-1.328-1.859a1.318,1.318,0,0,0-1.055.492,1.875,1.875,0,0,0-.414,1.25V17h-2.469V9H131.6v1.266h.031A2.829,2.829,0,0,1,134.2,8.8q2.656,0,2.656,3.3Zm19.07,0h-2.461V12.438q0-1.742-1.281-1.742a1.177,1.177,0,0,0-.992.523,2.151,2.151,0,0,0-.383,1.3V17h-2.469V12.391q0-1.7-1.258-1.7a1.206,1.206,0,0,0-1.012.5,2.2,2.2,0,0,0-.379,1.359V17h-2.469V9H145.7v1.25h.031A3.031,3.031,0,0,1,148.313,8.8a2.3,2.3,0,0,1,2.32,1.492A2.959,2.959,0,0,1,153.32,8.8q2.609,0,2.609,3.219Zm3.2-9.266a1.442,1.442,0,0,1-1.023-.371,1.2,1.2,0,0,1-.4-.91,1.153,1.153,0,0,1,.4-.906,1.671,1.671,0,0,1,2.051,0,1.158,1.158,0,0,1,.395.906,1.191,1.191,0,0,1-.395.922A1.466,1.466,0,0,1,159.133,7.734ZM160.352,17h-2.469V9h2.469Zm4.547,0H162.43V5.156H164.9Zm4.547,0h-2.469V5.156h2.469Zm5.891.2a4.3,4.3,0,0,1-3.145-1.121,4.064,4.064,0,0,1-1.145-3.043,4.065,4.065,0,0,1,1.188-3.105A4.487,4.487,0,0,1,175.445,8.8a4.249,4.249,0,0,1,3.125,1.121,3.985,3.985,0,0,1,1.133,2.965,4.23,4.23,0,0,1-1.168,3.148A4.348,4.348,0,0,1,175.336,17.2Zm.063-6.5a1.647,1.647,0,0,0-1.359.6,2.653,2.653,0,0,0-.484,1.7q0,2.3,1.859,2.3,1.773,0,1.773-2.367Q177.188,10.7,175.4,10.7ZM189.031,17H186.57V12.555q0-1.859-1.328-1.859a1.318,1.318,0,0,0-1.055.492,1.875,1.875,0,0,0-.414,1.25V17H181.3V9h2.469v1.266h.031a2.829,2.829,0,0,1,2.57-1.461q2.656,0,2.656,3.3Zm9.141-3.3h-5.219q.125,1.742,2.2,1.742a4.286,4.286,0,0,0,2.32-.625V16.6a6.1,6.1,0,0,1-2.883.594,4.058,4.058,0,0,1-3.008-1.074,4.058,4.058,0,0,1-1.07-3,4.281,4.281,0,0,1,1.156-3.156A3.852,3.852,0,0,1,194.508,8.8a3.5,3.5,0,0,1,2.707,1.039,4,4,0,0,1,.957,2.82Zm-2.289-1.516q0-1.719-1.391-1.719a1.328,1.328,0,0,0-1.027.492,2.234,2.234,0,0,0-.527,1.227Zm3.234,4.6v-2a5.256,5.256,0,0,0,1.215.547,4.028,4.028,0,0,0,1.145.18,2.455,2.455,0,0,0,1.035-.18.581.581,0,0,0,.379-.547.506.506,0,0,0-.172-.391,1.6,1.6,0,0,0-.441-.273,5.009,5.009,0,0,0-.59-.211q-.32-.094-.617-.211a5.914,5.914,0,0,1-.84-.387,2.427,2.427,0,0,1-.609-.48,1.889,1.889,0,0,1-.375-.633,2.525,2.525,0,0,1-.129-.852,2.192,2.192,0,0,1,.293-1.156,2.393,2.393,0,0,1,.781-.793,3.57,3.57,0,0,1,1.117-.453,5.825,5.825,0,0,1,1.309-.145,7.261,7.261,0,0,1,1.078.082,8.047,8.047,0,0,1,1.078.238v1.906a3.9,3.9,0,0,0-1-.41,4.235,4.235,0,0,0-1.051-.137,2.328,2.328,0,0,0-.457.043,1.505,1.505,0,0,0-.379.125.7.7,0,0,0-.258.211.486.486,0,0,0-.094.293.541.541,0,0,0,.141.375,1.221,1.221,0,0,0,.367.27,3.625,3.625,0,0,0,.5.2q.277.09.551.184a7.161,7.161,0,0,1,.891.375,2.848,2.848,0,0,1,.684.477,1.871,1.871,0,0,1,.438.641,2.563,2.563,0,0,1-.156,2.09,2.471,2.471,0,0,1-.82.82,3.72,3.72,0,0,1-1.18.461,6.54,6.54,0,0,1-1.387.145A7.149,7.149,0,0,1,199.117,16.789Z" transform="translate(305 9070.564) rotate(-90)" fill="#12263f"/>
  </g>
</svg>
