<svg xmlns="http://www.w3.org/2000/svg" width="568.007" height="347.063" viewBox="0 0 568.007 347.063">
  <g id="Grupo_891223" data-name="Grupo 891223" transform="translate(-846.905 -10170.064)">
    <g id="Grupo_167795" data-name="Grupo 167795" transform="translate(840.905 10194.162)">
      <path id="Trazado_259411" data-name="Trazado 259411" d="M199.519,132.545A180.872,180.872,0,0,0,151.54,16.679L35.674,132.545Z" transform="translate(139.338 45.106)" fill="#ced371"/>
      <path id="Trazado_259412" data-name="Trazado 259412" d="M110.654,154.369,215.523,49.5a154.556,154.556,0,0,0-209.73,0Z" transform="translate(52.032 21.167)" fill="#ffb500"/>
      <path id="Trazado_259413" data-name="Trazado 259413" d="M33.834,48.825v135.11A140.85,140.85,0,0,0,168.94,48.825Z" transform="translate(133.962 139.03)" fill="#a3314f"/>
      <path id="Trazado_259414" data-name="Trazado 259414" d="M122.486,114.095,33.845,25.462A127.544,127.544,0,0,0,122.486,239.44Z" transform="translate(35.106 70.768)" fill="#e2e2e2"/>
      <text id="_15_I_30_" data-name="15 I 30 %" transform="translate(143.254 24)" fill="#12263f" font-size="11" font-family="Roboto-Bold, Roboto" font-weight="700"><tspan x="0" y="0">15 </tspan><tspan y="0" font-family="Roboto-Regular, Roboto" font-weight="400">I </tspan><tspan y="0">30 %</tspan></text>
      <text id="_32_" data-name="32 %" transform="translate(6 216.785)" fill="#12263f" font-size="11" font-family="Roboto-Bold, Roboto" font-weight="700"><tspan x="0" y="0">32 %</tspan></text>
    </g>
    <path id="Trazado_622237" data-name="Trazado 622237" d="M4.3,0H2.75V-5.983L.9-5.409V-6.671l3.239-1.16H4.3Zm6.311,0H9.061V-5.983l-1.853.575V-6.671l3.239-1.16h.167Zm6.762,0H16.344V-7.82h1.031Zm9.609,0h-5.36V-1.063l2.53-2.7a6.241,6.241,0,0,0,.771-.994,1.6,1.6,0,0,0,.25-.806,1.2,1.2,0,0,0-.263-.819.95.95,0,0,0-.752-.3,1.025,1.025,0,0,0-.83.363,1.436,1.436,0,0,0-.3.953H21.468a2.564,2.564,0,0,1,.341-1.305,2.4,2.4,0,0,1,.964-.927,2.93,2.93,0,0,1,1.413-.336,2.775,2.775,0,0,1,1.877.58,2.052,2.052,0,0,1,.669,1.638,2.629,2.629,0,0,1-.3,1.182,6.567,6.567,0,0,1-1.031,1.4L23.622-1.251h3.362ZM33.3,0h-5.36V-1.063l2.53-2.7a6.241,6.241,0,0,0,.771-.994,1.6,1.6,0,0,0,.25-.806,1.2,1.2,0,0,0-.263-.819.95.95,0,0,0-.752-.3,1.025,1.025,0,0,0-.83.363,1.436,1.436,0,0,0-.3.953H27.779a2.564,2.564,0,0,1,.341-1.305,2.4,2.4,0,0,1,.964-.927A2.93,2.93,0,0,1,30.5-7.928a2.775,2.775,0,0,1,1.877.58,2.052,2.052,0,0,1,.669,1.638,2.629,2.629,0,0,1-.3,1.182,6.566,6.566,0,0,1-1.031,1.4L29.933-1.251H33.3Zm3.668-6.316a1.546,1.546,0,0,1,.467-1.168,1.7,1.7,0,0,1,1.225-.448,1.721,1.721,0,0,1,1.235.443,1.576,1.576,0,0,1,.467,1.2V-5.9a1.527,1.527,0,0,1-.467,1.166,1.713,1.713,0,0,1-1.225.44,1.724,1.724,0,0,1-1.233-.443,1.564,1.564,0,0,1-.47-1.2ZM38-5.9a.724.724,0,0,0,.185.518.638.638,0,0,0,.486.2.608.608,0,0,0,.478-.2.769.769,0,0,0,.177-.532v-.4a.753.753,0,0,0-.177-.521.621.621,0,0,0-.489-.2.623.623,0,0,0-.478.2A.769.769,0,0,0,38-6.295ZM40.7-1.917a1.526,1.526,0,0,1,.473-1.168A1.718,1.718,0,0,1,42.4-3.529a1.736,1.736,0,0,1,1.233.438,1.567,1.567,0,0,1,.47,1.206V-1.5A1.538,1.538,0,0,1,43.64-.336a1.7,1.7,0,0,1-1.23.443,1.723,1.723,0,0,1-1.241-.446A1.557,1.557,0,0,1,40.7-1.52Zm1.031.419a.718.718,0,0,0,.193.5.631.631,0,0,0,.483.209q.655,0,.655-.725v-.408a.73.73,0,0,0-.183-.518.629.629,0,0,0-.483-.2.629.629,0,0,0-.483.2.753.753,0,0,0-.183.534Zm-2.761.913-.757-.408,3.819-6.112.757.408Z" transform="translate(1109.167 10486.922)" fill="#12263f"/>
    <g id="Grupo_167793" data-name="Grupo 167793" transform="translate(1162.761 10277.142)">
      <g id="Grupo_167796" data-name="Grupo 167796" transform="translate(0 0)">
        <text id="_8_I_16_" data-name="8 I 16 %" transform="translate(0 10)" fill="#12263f" font-size="11" font-family="Roboto-Bold, Roboto" font-weight="700"><tspan x="0" y="0">8 </tspan><tspan y="0" font-family="Roboto-Regular, Roboto" font-weight="400">I </tspan><tspan y="0">16 %</tspan></text>
      </g>
    </g>
    <path id="Trazado_622247" data-name="Trazado 622247" d="M51.2,17H48.852L44.289,9.516V17H41.945V5.625h2.344l4.57,7.5v-7.5H51.2Zm6.961-.859a2.831,2.831,0,0,1-2.312,1.016,2.67,2.67,0,0,1-2.074-.781,3.335,3.335,0,0,1-.73-2.289V8.547H55.3v5.467q0,1.322,1.2,1.322a1.63,1.63,0,0,0,1.578-.8V8.547h2.266V17H58.219ZM57.148,5h2.461L57.445,7.422H55.609Zm7.016,3.547.07.945a2.971,2.971,0,0,1,2.43-1.1A2.255,2.255,0,0,1,68.906,9.68a2.9,2.9,0,0,1,2.539-1.289,2.521,2.521,0,0,1,2.047.8,3.681,3.681,0,0,1,.672,2.41V17H71.9V11.609a1.61,1.61,0,0,0-.281-1.051,1.246,1.246,0,0,0-.992-.332,1.409,1.409,0,0,0-1.406.969l.008,5.8H66.969V11.617a1.59,1.59,0,0,0-.289-1.062,1.259,1.259,0,0,0-.984-.328,1.463,1.463,0,0,0-1.391.8V17H62.047V8.547Zm15.625,8.609a4.15,4.15,0,0,1-3.027-1.141,4.054,4.054,0,0,1-1.168-3.039v-.219a5.106,5.106,0,0,1,.492-2.277A3.612,3.612,0,0,1,77.48,8.934a3.914,3.914,0,0,1,2.059-.543,3.508,3.508,0,0,1,2.73,1.094,4.444,4.444,0,0,1,1,3.1v.922H77.883a2.1,2.1,0,0,0,.66,1.328,2,2,0,0,0,1.395.5,2.437,2.437,0,0,0,2.039-.945l1.109,1.242a3.389,3.389,0,0,1-1.375,1.121A4.511,4.511,0,0,1,79.789,17.156Zm-.258-6.945a1.411,1.411,0,0,0-1.09.455,2.357,2.357,0,0,0-.535,1.3h3.141v-.181a1.681,1.681,0,0,0-.406-1.165A1.456,1.456,0,0,0,79.531,10.211Zm9.766.453a6.134,6.134,0,0,0-.812-.062,1.654,1.654,0,0,0-1.68.867V17H84.547V8.547H86.68l.063,1.008a2.092,2.092,0,0,1,1.883-1.164,2.366,2.366,0,0,1,.7.1ZM89.75,12.7a5.013,5.013,0,0,1,.484-2.242A3.546,3.546,0,0,1,91.629,8.93a4.069,4.069,0,0,1,2.113-.539,3.849,3.849,0,0,1,2.793,1.047,4.2,4.2,0,0,1,1.207,2.844l.016.578a4.418,4.418,0,0,1-1.086,3.121,4.209,4.209,0,0,1-5.832,0A4.5,4.5,0,0,1,89.75,12.8Zm2.258.16a3.16,3.16,0,0,0,.453,1.843,1.628,1.628,0,0,0,2.578.008,3.457,3.457,0,0,0,.461-2.015,3.128,3.128,0,0,0-.461-1.831,1.5,1.5,0,0,0-1.3-.649,1.474,1.474,0,0,0-1.281.646A3.516,3.516,0,0,0,92.008,12.856Zm10.773-.145a5.094,5.094,0,0,1,.887-3.148,2.877,2.877,0,0,1,2.426-1.172,2.589,2.589,0,0,1,2.039.922V5H110.4V17h-2.039l-.109-.9a2.657,2.657,0,0,1-2.172,1.055,2.869,2.869,0,0,1-2.395-1.176A5.258,5.258,0,0,1,102.781,12.711Zm2.258.168a3.337,3.337,0,0,0,.414,1.823,1.349,1.349,0,0,0,1.2.634,1.511,1.511,0,0,0,1.477-.884V11.111a1.489,1.489,0,0,0-1.461-.884Q105.039,10.227,105.039,12.879Zm11,4.277a4.15,4.15,0,0,1-3.027-1.141,4.054,4.054,0,0,1-1.168-3.039v-.219a5.106,5.106,0,0,1,.492-2.277,3.612,3.612,0,0,1,1.395-1.547,3.914,3.914,0,0,1,2.059-.543,3.508,3.508,0,0,1,2.73,1.094,4.444,4.444,0,0,1,1,3.1v.922h-5.383a2.1,2.1,0,0,0,.66,1.328,2,2,0,0,0,1.395.5,2.437,2.437,0,0,0,2.039-.945l1.109,1.242a3.389,3.389,0,0,1-1.375,1.121A4.511,4.511,0,0,1,116.039,17.156Zm-.258-6.945a1.411,1.411,0,0,0-1.09.455,2.357,2.357,0,0,0-.535,1.3H117.3v-.181a1.681,1.681,0,0,0-.406-1.165A1.456,1.456,0,0,0,115.781,10.211Zm12.891,6.945a4.15,4.15,0,0,1-3.027-1.141,4.054,4.054,0,0,1-1.168-3.039v-.219a5.106,5.106,0,0,1,.492-2.277,3.612,3.612,0,0,1,1.395-1.547,3.914,3.914,0,0,1,2.059-.543,3.508,3.508,0,0,1,2.73,1.094,4.444,4.444,0,0,1,1,3.1v.922h-5.383a2.1,2.1,0,0,0,.66,1.328,2,2,0,0,0,1.395.5,2.437,2.437,0,0,0,2.039-.945l1.109,1.242a3.389,3.389,0,0,1-1.375,1.121A4.511,4.511,0,0,1,128.672,17.156Zm-.258-6.945a1.411,1.411,0,0,0-1.09.455,2.357,2.357,0,0,0-.535,1.3h3.141v-.181a1.681,1.681,0,0,0-.406-1.165A1.456,1.456,0,0,0,128.414,10.211Zm7.133-1.664.07.945a2.971,2.971,0,0,1,2.43-1.1,2.255,2.255,0,0,1,2.242,1.289,2.9,2.9,0,0,1,2.539-1.289,2.521,2.521,0,0,1,2.047.8,3.681,3.681,0,0,1,.672,2.41V17h-2.266V11.609A1.61,1.61,0,0,0,143,10.559a1.246,1.246,0,0,0-.992-.332,1.409,1.409,0,0,0-1.406.969l.008,5.8h-2.258V11.617a1.59,1.59,0,0,0-.289-1.062,1.259,1.259,0,0,0-.984-.328,1.463,1.463,0,0,0-1.391.8V17H133.43V8.547Zm19.344,4.3A5.07,5.07,0,0,1,154,15.98a2.843,2.843,0,0,1-2.395,1.176,2.633,2.633,0,0,1-2.07-.891V20.25h-2.258V8.547h2.094l.078.828a2.654,2.654,0,0,1,2.141-.984,2.862,2.862,0,0,1,2.43,1.156,5.207,5.207,0,0,1,.867,3.188Zm-2.258-.164a3.327,3.327,0,0,0-.418-1.82A1.361,1.361,0,0,0,151,10.227a1.479,1.479,0,0,0-1.461.813V14.5a1.5,1.5,0,0,0,1.477.836Q152.633,15.336,152.633,12.688ZM158.672,17h-2.266V5h2.266Zm5.75.156a4.15,4.15,0,0,1-3.027-1.141,4.054,4.054,0,0,1-1.168-3.039v-.219a5.106,5.106,0,0,1,.492-2.277,3.612,3.612,0,0,1,1.395-1.547,3.914,3.914,0,0,1,2.059-.543,3.508,3.508,0,0,1,2.73,1.094,4.444,4.444,0,0,1,1,3.1v.922h-5.383a2.1,2.1,0,0,0,.66,1.328,2,2,0,0,0,1.395.5,2.437,2.437,0,0,0,2.039-.945l1.109,1.242a3.389,3.389,0,0,1-1.375,1.121A4.511,4.511,0,0,1,164.422,17.156Zm-.258-6.945a1.411,1.411,0,0,0-1.09.455,2.357,2.357,0,0,0-.535,1.3h3.141v-.181a1.681,1.681,0,0,0-.406-1.165A1.456,1.456,0,0,0,164.164,10.211ZM174.078,17a2.507,2.507,0,0,1-.227-.758,2.732,2.732,0,0,1-2.133.914,3,3,0,0,1-2.059-.719,2.312,2.312,0,0,1-.816-1.812,2.389,2.389,0,0,1,1-2.062,4.915,4.915,0,0,1,2.879-.727h1.039v-.484a1.393,1.393,0,0,0-.3-.937,1.183,1.183,0,0,0-.949-.352,1.345,1.345,0,0,0-.895.273.929.929,0,0,0-.324.75h-2.258a2.268,2.268,0,0,1,.453-1.359,3,3,0,0,1,1.281-.98,4.669,4.669,0,0,1,1.859-.355,3.689,3.689,0,0,1,2.48.785,2.747,2.747,0,0,1,.918,2.207v3.664a4.041,4.041,0,0,0,.336,1.82V17Zm-1.867-1.57a1.945,1.945,0,0,0,.922-.223,1.462,1.462,0,0,0,.625-.6V13.156h-.844q-1.7,0-1.8,1.172l-.008.133a.9.9,0,0,0,.3.7A1.153,1.153,0,0,0,172.211,15.43Zm5.2-2.719a5.094,5.094,0,0,1,.887-3.148,2.877,2.877,0,0,1,2.426-1.172,2.589,2.589,0,0,1,2.039.922V5h2.266V17h-2.039l-.109-.9a2.657,2.657,0,0,1-2.172,1.055,2.869,2.869,0,0,1-2.395-1.176A5.258,5.258,0,0,1,177.406,12.711Zm2.258.168a3.337,3.337,0,0,0,.414,1.823,1.349,1.349,0,0,0,1.2.634,1.511,1.511,0,0,0,1.477-.884V11.111a1.489,1.489,0,0,0-1.461-.884Q179.664,10.227,179.664,12.879Zm6.758-.184a5.013,5.013,0,0,1,.484-2.242A3.546,3.546,0,0,1,188.3,8.93a4.069,4.069,0,0,1,2.113-.539,3.849,3.849,0,0,1,2.793,1.047,4.2,4.2,0,0,1,1.207,2.844l.016.578a4.418,4.418,0,0,1-1.086,3.121,4.209,4.209,0,0,1-5.832,0,4.5,4.5,0,0,1-1.09-3.187Zm2.258.16a3.16,3.16,0,0,0,.453,1.843,1.628,1.628,0,0,0,2.578.008,3.457,3.457,0,0,0,.461-2.015,3.128,3.128,0,0,0-.461-1.831,1.5,1.5,0,0,0-1.3-.649,1.474,1.474,0,0,0-1.281.646A3.516,3.516,0,0,0,188.68,12.856ZM200.4,14.664a.727.727,0,0,0-.41-.652,4.659,4.659,0,0,0-1.316-.426q-3.016-.633-3.016-2.562a2.323,2.323,0,0,1,.934-1.879,3.766,3.766,0,0,1,2.441-.754,4.053,4.053,0,0,1,2.574.758,2.388,2.388,0,0,1,.965,1.969h-2.258a1.092,1.092,0,0,0-.312-.8,1.322,1.322,0,0,0-.977-.316,1.351,1.351,0,0,0-.883.258.814.814,0,0,0-.312.656.7.7,0,0,0,.355.605,3.657,3.657,0,0,0,1.2.4,9.8,9.8,0,0,1,1.422.379,2.336,2.336,0,0,1,1.789,2.273,2.205,2.205,0,0,1-.992,1.871,4.28,4.28,0,0,1-2.562.715,4.47,4.47,0,0,1-1.887-.379,3.166,3.166,0,0,1-1.293-1.039,2.414,2.414,0,0,1-.469-1.426h2.141a1.179,1.179,0,0,0,.445.922,1.766,1.766,0,0,0,1.109.32,1.635,1.635,0,0,0,.98-.246A.766.766,0,0,0,200.4,14.664Zm15.242-1.812a5.07,5.07,0,0,1-.887,3.129,2.843,2.843,0,0,1-2.395,1.176,2.633,2.633,0,0,1-2.07-.891V20.25h-2.258V8.547h2.094l.078.828a2.654,2.654,0,0,1,2.141-.984,2.862,2.862,0,0,1,2.43,1.156,5.207,5.207,0,0,1,.867,3.188Zm-2.258-.164a3.327,3.327,0,0,0-.418-1.82,1.361,1.361,0,0,0-1.215-.641,1.479,1.479,0,0,0-1.461.813V14.5a1.5,1.5,0,0,0,1.477.836Q213.383,15.336,213.383,12.688Zm3.3.008a5.013,5.013,0,0,1,.484-2.242,3.546,3.546,0,0,1,1.395-1.523,4.069,4.069,0,0,1,2.113-.539,3.849,3.849,0,0,1,2.793,1.047,4.2,4.2,0,0,1,1.207,2.844l.016.578a4.418,4.418,0,0,1-1.086,3.121,4.209,4.209,0,0,1-5.832,0,4.5,4.5,0,0,1-1.09-3.187Zm2.258.16A3.16,3.16,0,0,0,219.4,14.7a1.628,1.628,0,0,0,2.578.008,3.457,3.457,0,0,0,.461-2.015,3.128,3.128,0,0,0-.461-1.831,1.5,1.5,0,0,0-1.3-.649,1.474,1.474,0,0,0-1.281.646A3.516,3.516,0,0,0,218.945,12.856Zm11.891-2.192a6.134,6.134,0,0,0-.812-.062,1.654,1.654,0,0,0-1.68.867V17h-2.258V8.547h2.133l.063,1.008a2.092,2.092,0,0,1,1.883-1.164,2.366,2.366,0,0,1,.7.1Zm9.648,4a.727.727,0,0,0-.41-.652,4.659,4.659,0,0,0-1.316-.426q-3.016-.633-3.016-2.562a2.323,2.323,0,0,1,.934-1.879,3.766,3.766,0,0,1,2.441-.754,4.053,4.053,0,0,1,2.574.758,2.388,2.388,0,0,1,.965,1.969H240.4a1.092,1.092,0,0,0-.312-.8,1.322,1.322,0,0,0-.977-.316,1.351,1.351,0,0,0-.883.258.814.814,0,0,0-.312.656.7.7,0,0,0,.355.605,3.657,3.657,0,0,0,1.2.4,9.8,9.8,0,0,1,1.422.379,2.336,2.336,0,0,1,1.789,2.273,2.205,2.205,0,0,1-.992,1.871,4.28,4.28,0,0,1-2.562.715,4.47,4.47,0,0,1-1.887-.379,3.166,3.166,0,0,1-1.293-1.039,2.414,2.414,0,0,1-.469-1.426h2.141a1.179,1.179,0,0,0,.445.922,1.766,1.766,0,0,0,1.109.32,1.635,1.635,0,0,0,.98-.246A.766.766,0,0,0,240.484,14.664Zm8.711,1.477a2.831,2.831,0,0,1-2.312,1.016,2.67,2.67,0,0,1-2.074-.781,3.335,3.335,0,0,1-.73-2.289V8.547h2.258v5.467q0,1.322,1.2,1.322a1.63,1.63,0,0,0,1.578-.8V8.547h2.266V17h-2.125Zm7.406-.8a1.481,1.481,0,0,0,1.016-.344,1.2,1.2,0,0,0,.406-.914h2.117a2.9,2.9,0,0,1-.469,1.574,3.093,3.093,0,0,1-1.262,1.109,3.949,3.949,0,0,1-1.77.395A3.67,3.67,0,0,1,253.781,16a4.56,4.56,0,0,1-1.047-3.184v-.148a4.508,4.508,0,0,1,1.039-3.117,3.627,3.627,0,0,1,2.852-1.164,3.555,3.555,0,0,1,2.543.9,3.2,3.2,0,0,1,.973,2.4h-2.117a1.551,1.551,0,0,0-.406-1.072,1.51,1.51,0,0,0-2.223.163,3.333,3.333,0,0,0-.4,1.866v.235a3.375,3.375,0,0,0,.4,1.878A1.377,1.377,0,0,0,256.6,15.336Zm9.891.8a2.831,2.831,0,0,1-2.312,1.016,2.67,2.67,0,0,1-2.074-.781,3.335,3.335,0,0,1-.73-2.289V8.547h2.258v5.467q0,1.322,1.2,1.322a1.63,1.63,0,0,0,1.578-.8V8.547h2.266V17h-2.125Zm8.641-5.477a6.134,6.134,0,0,0-.812-.062,1.654,1.654,0,0,0-1.68.867V17h-2.258V8.547h2.133l.063,1.008a2.092,2.092,0,0,1,1.883-1.164,2.366,2.366,0,0,1,.7.1Zm5.664,4a.727.727,0,0,0-.41-.652,4.659,4.659,0,0,0-1.316-.426q-3.016-.633-3.016-2.562a2.323,2.323,0,0,1,.934-1.879,3.766,3.766,0,0,1,2.441-.754A4.053,4.053,0,0,1,282,9.148a2.388,2.388,0,0,1,.965,1.969h-2.258a1.092,1.092,0,0,0-.312-.8,1.322,1.322,0,0,0-.977-.316,1.351,1.351,0,0,0-.883.258.814.814,0,0,0-.312.656.7.7,0,0,0,.355.605,3.657,3.657,0,0,0,1.2.4,9.8,9.8,0,0,1,1.422.379,2.336,2.336,0,0,1,1.789,2.273A2.2,2.2,0,0,1,282,16.441a4.28,4.28,0,0,1-2.562.715,4.47,4.47,0,0,1-1.887-.379,3.166,3.166,0,0,1-1.293-1.039,2.414,2.414,0,0,1-.469-1.426h2.141a1.179,1.179,0,0,0,.445.922,1.766,1.766,0,0,0,1.109.32,1.635,1.635,0,0,0,.98-.246A.766.766,0,0,0,280.8,14.664ZM289.344,17a2.508,2.508,0,0,1-.227-.758,2.732,2.732,0,0,1-2.133.914,3,3,0,0,1-2.059-.719,2.312,2.312,0,0,1-.816-1.812,2.389,2.389,0,0,1,1-2.062,4.915,4.915,0,0,1,2.879-.727h1.039v-.484a1.393,1.393,0,0,0-.3-.937,1.183,1.183,0,0,0-.949-.352,1.345,1.345,0,0,0-.895.273.929.929,0,0,0-.324.75H284.3a2.268,2.268,0,0,1,.453-1.359,3,3,0,0,1,1.281-.98,4.669,4.669,0,0,1,1.859-.355,3.689,3.689,0,0,1,2.48.785,2.747,2.747,0,0,1,.918,2.207v3.664a4.041,4.041,0,0,0,.336,1.82V17Zm-1.867-1.57a1.945,1.945,0,0,0,.922-.223,1.462,1.462,0,0,0,.625-.6V13.156h-.844q-1.7,0-1.8,1.172l-.008.133a.9.9,0,0,0,.3.7A1.153,1.153,0,0,0,287.477,15.43Zm7.93,1.57h-2.266V5h2.266ZM306,10.664a6.134,6.134,0,0,0-.812-.062,1.654,1.654,0,0,0-1.68.867V17H301.25V8.547h2.133l.063,1.008a2.092,2.092,0,0,1,1.883-1.164,2.366,2.366,0,0,1,.7.1Zm4.977,6.492a4.15,4.15,0,0,1-3.027-1.141,4.054,4.054,0,0,1-1.168-3.039v-.219a5.106,5.106,0,0,1,.492-2.277,3.612,3.612,0,0,1,1.395-1.547,3.914,3.914,0,0,1,2.059-.543,3.508,3.508,0,0,1,2.73,1.094,4.444,4.444,0,0,1,1,3.1v.922H309.07a2.1,2.1,0,0,0,.66,1.328,2,2,0,0,0,1.395.5,2.437,2.437,0,0,0,2.039-.945l1.109,1.242a3.389,3.389,0,0,1-1.375,1.121A4.511,4.511,0,0,1,310.977,17.156Zm-.258-6.945a1.411,1.411,0,0,0-1.09.455,2.357,2.357,0,0,0-.535,1.3h3.141v-.181a1.681,1.681,0,0,0-.406-1.165A1.456,1.456,0,0,0,310.719,10.211Zm4.688,2.5a4.954,4.954,0,0,1,.926-3.133,3,3,0,0,1,2.5-1.187,2.631,2.631,0,0,1,2.164.953l.094-.8h2.047v8.172a3.613,3.613,0,0,1-.5,1.93,3.236,3.236,0,0,1-1.418,1.25,4.985,4.985,0,0,1-2.141.43,4.635,4.635,0,0,1-1.812-.371A3.217,3.217,0,0,1,315.922,19l1-1.375a2.645,2.645,0,0,0,2.047.945,1.936,1.936,0,0,0,1.4-.48,1.8,1.8,0,0,0,.5-1.363v-.453a2.612,2.612,0,0,1-2.055.883,2.992,2.992,0,0,1-2.465-1.191,4.953,4.953,0,0,1-.941-3.16Zm2.258.168a3.085,3.085,0,0,0,.461,1.8,1.466,1.466,0,0,0,1.266.653,1.568,1.568,0,0,0,1.477-.775V11a1.564,1.564,0,0,0-1.461-.775,1.476,1.476,0,0,0-1.277.665A3.477,3.477,0,0,0,317.664,12.879ZM327.25,17h-2.266V8.547h2.266Zm-2.4-10.641a1.112,1.112,0,0,1,.34-.836,1.465,1.465,0,0,1,1.848,0,1.105,1.105,0,0,1,.344.836,1.108,1.108,0,0,1-.348.844,1.448,1.448,0,0,1-1.836,0A1.108,1.108,0,0,1,324.852,6.359Zm3.906,6.336a5.013,5.013,0,0,1,.484-2.242,3.546,3.546,0,0,1,1.395-1.523,4.069,4.069,0,0,1,2.113-.539,3.849,3.849,0,0,1,2.793,1.047,4.2,4.2,0,0,1,1.207,2.844l.016.578a4.418,4.418,0,0,1-1.086,3.121,4.209,4.209,0,0,1-5.832,0,4.5,4.5,0,0,1-1.09-3.187Zm2.258.16a3.16,3.16,0,0,0,.453,1.843,1.628,1.628,0,0,0,2.578.008,3.458,3.458,0,0,0,.461-2.015,3.128,3.128,0,0,0-.461-1.831,1.5,1.5,0,0,0-1.3-.649,1.474,1.474,0,0,0-1.281.646A3.516,3.516,0,0,0,331.016,12.856Zm9.219-4.309.07.977a2.951,2.951,0,0,1,2.43-1.133,2.453,2.453,0,0,1,2,.789,3.681,3.681,0,0,1,.672,2.359V17h-2.258V11.594a1.465,1.465,0,0,0-.312-1.043,1.4,1.4,0,0,0-1.039-.324,1.553,1.553,0,0,0-1.43.813V17h-2.258V8.547ZM352.016,17a2.508,2.508,0,0,1-.227-.758,2.732,2.732,0,0,1-2.133.914,3,3,0,0,1-2.059-.719,2.312,2.312,0,0,1-.816-1.812,2.389,2.389,0,0,1,1-2.062,4.915,4.915,0,0,1,2.879-.727H351.7v-.484a1.393,1.393,0,0,0-.3-.937,1.183,1.183,0,0,0-.949-.352,1.345,1.345,0,0,0-.895.273.929.929,0,0,0-.324.75h-2.258a2.268,2.268,0,0,1,.453-1.359,3,3,0,0,1,1.281-.98,4.669,4.669,0,0,1,1.859-.355,3.689,3.689,0,0,1,2.48.785,2.747,2.747,0,0,1,.918,2.207v3.664a4.041,4.041,0,0,0,.336,1.82V17Zm-1.867-1.57a1.945,1.945,0,0,0,.922-.223,1.462,1.462,0,0,0,.625-.6V13.156h-.844q-1.7,0-1.8,1.172l-.008.133a.9.9,0,0,0,.3.7A1.153,1.153,0,0,0,350.148,15.43Zm7.93,1.57h-2.266V5h2.266Z" transform="translate(810.333 10165.064)" fill="#12263f"/>
    <path id="Trazado_622238" data-name="Trazado 622238" d="M1.016,17V5.625H5a5.232,5.232,0,0,1,3.141.793,2.712,2.712,0,0,1,1.07,2.324,2.57,2.57,0,0,1-.43,1.473,2.482,2.482,0,0,1-1.2.934,2.4,2.4,0,0,1,1.379.883,2.61,2.61,0,0,1,.5,1.625,3,3,0,0,1-1.047,2.484A4.713,4.713,0,0,1,5.438,17Zm2.344-4.953v3.07H5.367a1.938,1.938,0,0,0,1.293-.395,1.353,1.353,0,0,0,.465-1.09,1.428,1.428,0,0,0-1.617-1.586Zm0-1.656H5.094q1.773-.031,1.773-1.414a1.307,1.307,0,0,0-.449-1.113A2.363,2.363,0,0,0,5,7.523H3.359Zm7.367,2.3a5.013,5.013,0,0,1,.484-2.242A3.546,3.546,0,0,1,12.605,8.93a4.069,4.069,0,0,1,2.113-.539,3.849,3.849,0,0,1,2.793,1.047,4.2,4.2,0,0,1,1.207,2.844l.016.578a4.418,4.418,0,0,1-1.086,3.121,3.775,3.775,0,0,1-2.914,1.176,3.793,3.793,0,0,1-2.918-1.172,4.5,4.5,0,0,1-1.09-3.187Zm2.258.16a3.16,3.16,0,0,0,.453,1.843,1.628,1.628,0,0,0,2.578.008,3.457,3.457,0,0,0,.461-2.015,3.128,3.128,0,0,0-.461-1.831,1.5,1.5,0,0,0-1.3-.649,1.474,1.474,0,0,0-1.281.646A3.516,3.516,0,0,0,12.984,12.856Zm10.3.949,1.563-5.258h2.422l-3.4,9.766-.187.445a2.577,2.577,0,0,1-2.5,1.656,3.552,3.552,0,0,1-1-.148V18.555l.344.008a1.857,1.857,0,0,0,.957-.2,1.283,1.283,0,0,0,.5-.648l.266-.7L19.281,8.547h2.43ZM33.055,17a2.507,2.507,0,0,1-.227-.758,2.732,2.732,0,0,1-2.133.914,3,3,0,0,1-2.059-.719,2.312,2.312,0,0,1-.816-1.812,2.389,2.389,0,0,1,1-2.062,4.915,4.915,0,0,1,2.879-.727h1.039v-.484a1.393,1.393,0,0,0-.3-.937,1.183,1.183,0,0,0-.949-.352,1.345,1.345,0,0,0-.895.273.929.929,0,0,0-.324.75H28.008a2.268,2.268,0,0,1,.453-1.359,3,3,0,0,1,1.281-.98A4.669,4.669,0,0,1,31.6,8.391a3.689,3.689,0,0,1,2.48.785A2.747,2.747,0,0,1,35,11.383v3.664a4.041,4.041,0,0,0,.336,1.82V17Zm-1.867-1.57a1.945,1.945,0,0,0,.922-.223,1.462,1.462,0,0,0,.625-.6V13.156h-.844q-1.7,0-1.8,1.172l-.008.133a.9.9,0,0,0,.3.7A1.153,1.153,0,0,0,31.188,15.43Zm9.063-.094a1.481,1.481,0,0,0,1.016-.344,1.2,1.2,0,0,0,.406-.914h2.117a2.9,2.9,0,0,1-.469,1.574,3.093,3.093,0,0,1-1.262,1.109,3.949,3.949,0,0,1-1.77.395A3.67,3.67,0,0,1,37.43,16a4.56,4.56,0,0,1-1.047-3.184v-.148a4.508,4.508,0,0,1,1.039-3.117,3.627,3.627,0,0,1,2.852-1.164,3.555,3.555,0,0,1,2.543.9,3.2,3.2,0,0,1,.973,2.4H41.672a1.551,1.551,0,0,0-.406-1.072,1.51,1.51,0,0,0-2.223.163,3.333,3.333,0,0,0-.4,1.866v.235a3.375,3.375,0,0,0,.4,1.878A1.377,1.377,0,0,0,40.25,15.336ZM49.977,17a2.507,2.507,0,0,1-.227-.758,2.732,2.732,0,0,1-2.133.914,3,3,0,0,1-2.059-.719,2.312,2.312,0,0,1-.816-1.812,2.389,2.389,0,0,1,1-2.062,4.915,4.915,0,0,1,2.879-.727h1.039v-.484a1.393,1.393,0,0,0-.3-.937,1.183,1.183,0,0,0-.949-.352,1.345,1.345,0,0,0-.895.273.929.929,0,0,0-.324.75H44.93a2.268,2.268,0,0,1,.453-1.359,3,3,0,0,1,1.281-.98,4.669,4.669,0,0,1,1.859-.355A3.689,3.689,0,0,1,51,9.176a2.747,2.747,0,0,1,.918,2.207v3.664a4.041,4.041,0,0,0,.336,1.82V17Zm-1.867-1.57a1.945,1.945,0,0,0,.922-.223,1.462,1.462,0,0,0,.625-.6V13.156h-.844q-1.7,0-1.8,1.172L47,14.461a.9.9,0,0,0,.3.7A1.153,1.153,0,0,0,48.109,15.43ZM48.969,5H51.43L49.266,7.422H47.43Zm71.773,3.648a2.646,2.646,0,0,1-.414,1.469,2.98,2.98,0,0,1-1.141,1.023,3.3,3.3,0,0,1,1.313,1.1,2.816,2.816,0,0,1,.484,1.645,2.981,2.981,0,0,1-1.031,2.395,4.918,4.918,0,0,1-5.617,0,2.974,2.974,0,0,1-1.039-2.391,2.834,2.834,0,0,1,.484-1.648,3.239,3.239,0,0,1,1.3-1.094,2.95,2.95,0,0,1-1.137-1.023,2.664,2.664,0,0,1-.41-1.469,2.948,2.948,0,0,1,.969-2.316,4.457,4.457,0,0,1,5.262-.008A2.937,2.937,0,0,1,120.742,8.648Zm-2.023,5.07a1.638,1.638,0,0,0-.43-1.187,1.719,1.719,0,0,0-2.3,0,1.635,1.635,0,0,0-.43,1.191,1.634,1.634,0,0,0,.422,1.172,1.762,1.762,0,0,0,2.324.016A1.631,1.631,0,0,0,118.719,13.719Zm-.234-4.961a1.563,1.563,0,0,0-.352-1.066,1.43,1.43,0,0,0-1.977-.012,1.553,1.553,0,0,0-.352,1.078,1.633,1.633,0,0,0,.352,1.094,1.391,1.391,0,0,0,1.98,0A1.645,1.645,0,0,0,118.484,8.758ZM155.883,17h-2.258V8.3l-2.7.836V7.3l4.711-1.687h.242ZM165.7,5.508V7.367h-.219a3.836,3.836,0,0,0-2.465.8,3.238,3.238,0,0,0-1.121,2.148,3.075,3.075,0,0,1,2.289-.922,2.9,2.9,0,0,1,2.359,1.063,4.259,4.259,0,0,1,.875,2.8,4.19,4.19,0,0,1-.48,2.008,3.446,3.446,0,0,1-1.359,1.4,3.949,3.949,0,0,1-1.988.5,3.689,3.689,0,0,1-2.9-1.25,4.852,4.852,0,0,1-1.105-3.336v-.812a7.3,7.3,0,0,1,.7-3.27,5.127,5.127,0,0,1,2.008-2.2,5.884,5.884,0,0,1,3.035-.785Zm-2.2,5.7a1.8,1.8,0,0,0-.992.285,1.715,1.715,0,0,0-.656.753v.686A3.04,3.04,0,0,0,162.3,14.7a1.439,1.439,0,0,0,1.25.635,1.423,1.423,0,0,0,1.176-.573,2.337,2.337,0,0,0,.449-1.485,2.333,2.333,0,0,0-.453-1.5A1.477,1.477,0,0,0,163.5,11.211Zm9.211-3.4a2.249,2.249,0,0,1,.68-1.7,2.465,2.465,0,0,1,1.781-.652,2.5,2.5,0,0,1,1.8.645,2.292,2.292,0,0,1,.68,1.746v.563a2.221,2.221,0,0,1-.68,1.7,2.806,2.806,0,0,1-3.574,0,2.275,2.275,0,0,1-.684-1.738Zm1.5.6a1.053,1.053,0,0,0,.27.754.928.928,0,0,0,.707.285.885.885,0,0,0,.7-.289,1.119,1.119,0,0,0,.258-.773V7.813a1.1,1.1,0,0,0-.258-.758,1,1,0,0,0-1.406,0,1.119,1.119,0,0,0-.266.793Zm3.938,5.8a2.22,2.22,0,0,1,.688-1.7,2.5,2.5,0,0,1,1.781-.645,2.525,2.525,0,0,1,1.793.637,2.279,2.279,0,0,1,.684,1.754v.563a2.237,2.237,0,0,1-.672,1.691,2.476,2.476,0,0,1-1.789.645,2.506,2.506,0,0,1-1.8-.648,2.265,2.265,0,0,1-.68-1.719Zm1.5.609a1.044,1.044,0,0,0,.281.734.917.917,0,0,0,.7.3q.953,0,.953-1.055v-.594a1.062,1.062,0,0,0-.266-.754,1.009,1.009,0,0,0-1.406,0,1.1,1.1,0,0,0-.266.777Zm-4.016,1.328-1.1-.594,5.555-8.891,1.1.594ZM9.578,31.523H6.094V41H3.75V31.523H.313v-1.9H9.578ZM8.789,36.7a5.013,5.013,0,0,1,.484-2.242,3.546,3.546,0,0,1,1.395-1.523,4.069,4.069,0,0,1,2.113-.539,3.849,3.849,0,0,1,2.793,1.047,4.2,4.2,0,0,1,1.207,2.844l.016.578a4.418,4.418,0,0,1-1.086,3.121A3.775,3.775,0,0,1,12.8,41.156a3.793,3.793,0,0,1-2.918-1.172A4.5,4.5,0,0,1,8.789,36.8Zm2.258.16A3.16,3.16,0,0,0,11.5,38.7a1.5,1.5,0,0,0,1.3.638,1.5,1.5,0,0,0,1.281-.63,3.457,3.457,0,0,0,.461-2.015,3.128,3.128,0,0,0-.461-1.831,1.5,1.5,0,0,0-1.3-.649,1.474,1.474,0,0,0-1.281.646A3.516,3.516,0,0,0,11.047,36.856ZM20.57,41H18.3V29H20.57Zm4.242,0H22.547V32.547h2.266Zm-2.4-10.641a1.112,1.112,0,0,1,.34-.836,1.465,1.465,0,0,1,1.848,0,1.193,1.193,0,0,1,0,1.68,1.448,1.448,0,0,1-1.836,0A1.108,1.108,0,0,1,22.414,30.359Zm6.375,2.188.07.945a2.971,2.971,0,0,1,2.43-1.1,2.255,2.255,0,0,1,2.242,1.289,2.9,2.9,0,0,1,2.539-1.289,2.521,2.521,0,0,1,2.047.8,3.681,3.681,0,0,1,.672,2.41V41H36.523V35.609a1.61,1.61,0,0,0-.281-1.051,1.246,1.246,0,0,0-.992-.332,1.409,1.409,0,0,0-1.406.969l.008,5.8H31.594V35.617a1.59,1.59,0,0,0-.289-1.062,1.259,1.259,0,0,0-.984-.328,1.463,1.463,0,0,0-1.391.8V41H26.672V32.547ZM45.422,41a2.507,2.507,0,0,1-.227-.758,2.732,2.732,0,0,1-2.133.914A3,3,0,0,1,41,40.438a2.312,2.312,0,0,1-.816-1.812,2.389,2.389,0,0,1,1-2.062,4.915,4.915,0,0,1,2.879-.727H45.1v-.484a1.393,1.393,0,0,0-.3-.937,1.183,1.183,0,0,0-.949-.352,1.345,1.345,0,0,0-.895.273.929.929,0,0,0-.324.75H40.375a2.268,2.268,0,0,1,.453-1.359,3,3,0,0,1,1.281-.98,4.669,4.669,0,0,1,1.859-.355,3.689,3.689,0,0,1,2.48.785,2.747,2.747,0,0,1,.918,2.207v3.664a4.041,4.041,0,0,0,.336,1.82V41Zm-1.867-1.57a1.945,1.945,0,0,0,.922-.223,1.462,1.462,0,0,0,.625-.6V37.156h-.844q-1.7,0-1.8,1.172l-.008.133a.9.9,0,0,0,.3.7A1.153,1.153,0,0,0,43.555,39.43Zm70.7,1.57H112V32.3l-2.7.836V31.3l4.711-1.687h.242Zm9.18,0H121.18V32.3l-2.7.836V31.3l4.711-1.687h.242Zm35.4,0h-7.8V39.453l3.68-3.922a9.078,9.078,0,0,0,1.121-1.445,2.322,2.322,0,0,0,.363-1.172,1.738,1.738,0,0,0-.383-1.191,1.382,1.382,0,0,0-1.094-.434,1.49,1.49,0,0,0-1.207.527,2.089,2.089,0,0,0-.441,1.387h-2.266a3.729,3.729,0,0,1,.5-1.9,3.5,3.5,0,0,1,1.4-1.348,4.262,4.262,0,0,1,2.055-.488,4.036,4.036,0,0,1,2.73.844,2.985,2.985,0,0,1,.973,2.383,3.825,3.825,0,0,1-.437,1.719,9.552,9.552,0,0,1-1.5,2.039l-2.586,2.727h4.891Zm9.18,0h-7.8V39.453l3.68-3.922a9.078,9.078,0,0,0,1.121-1.445,2.322,2.322,0,0,0,.363-1.172A1.738,1.738,0,0,0,165,31.723a1.382,1.382,0,0,0-1.094-.434,1.49,1.49,0,0,0-1.207.527,2.089,2.089,0,0,0-.441,1.387h-2.266a3.729,3.729,0,0,1,.5-1.9,3.5,3.5,0,0,1,1.4-1.348,4.262,4.262,0,0,1,2.055-.488,4.036,4.036,0,0,1,2.73.844,2.985,2.985,0,0,1,.973,2.383,3.825,3.825,0,0,1-.437,1.719,9.552,9.552,0,0,1-1.5,2.039l-2.586,2.727h4.891Zm5.336-9.187a2.249,2.249,0,0,1,.68-1.7,2.465,2.465,0,0,1,1.781-.652,2.5,2.5,0,0,1,1.8.645,2.292,2.292,0,0,1,.68,1.746v.563a2.221,2.221,0,0,1-.68,1.7,2.806,2.806,0,0,1-3.574,0,2.275,2.275,0,0,1-.684-1.738Zm1.5.6a1.053,1.053,0,0,0,.27.754.928.928,0,0,0,.707.285.885.885,0,0,0,.7-.289,1.119,1.119,0,0,0,.258-.773v-.578a1.1,1.1,0,0,0-.258-.758,1,1,0,0,0-1.406,0,1.119,1.119,0,0,0-.266.793Zm3.938,5.8a2.22,2.22,0,0,1,.688-1.7,2.5,2.5,0,0,1,1.781-.645,2.525,2.525,0,0,1,1.793.637,2.279,2.279,0,0,1,.684,1.754v.563a2.237,2.237,0,0,1-.672,1.691,2.476,2.476,0,0,1-1.789.645,2.506,2.506,0,0,1-1.8-.648,2.265,2.265,0,0,1-.68-1.719Zm1.5.609a1.044,1.044,0,0,0,.281.734.917.917,0,0,0,.7.3q.953,0,.953-1.055v-.594a1.062,1.062,0,0,0-.266-.754,1.009,1.009,0,0,0-1.406,0,1.1,1.1,0,0,0-.266.777Zm-4.016,1.328-1.1-.594,5.555-8.891,1.1.594ZM9.945,61.211A4.025,4.025,0,0,1,8.59,64.1a4.76,4.76,0,0,1-3.223,1.055,4.28,4.28,0,0,1-3.441-1.473A6.038,6.038,0,0,1,.672,59.641v-.7a6.819,6.819,0,0,1,.578-2.891A4.332,4.332,0,0,1,2.9,54.137a4.629,4.629,0,0,1,2.5-.668A4.637,4.637,0,0,1,8.57,54.523a4.326,4.326,0,0,1,1.391,2.961H7.617A2.376,2.376,0,0,0,7,55.887a2.271,2.271,0,0,0-1.605-.5,1.991,1.991,0,0,0-1.754.84,4.707,4.707,0,0,0-.6,2.605V59.7a5.038,5.038,0,0,0,.559,2.7,1.954,1.954,0,0,0,1.762.852,2.314,2.314,0,0,0,1.621-.5A2.241,2.241,0,0,0,7.6,61.211Zm6.453,2.93a2.831,2.831,0,0,1-2.312,1.016,2.67,2.67,0,0,1-2.074-.781,3.335,3.335,0,0,1-.73-2.289V56.547h2.258v5.467q0,1.322,1.2,1.322a1.63,1.63,0,0,0,1.578-.8V56.547h2.266V65H16.461Zm5.969-7.594.07.977a2.951,2.951,0,0,1,2.43-1.133,2.453,2.453,0,0,1,2,.789,3.682,3.682,0,0,1,.672,2.359V65H25.281V59.594a1.465,1.465,0,0,0-.312-1.043,1.4,1.4,0,0,0-1.039-.324,1.553,1.553,0,0,0-1.43.813V65H20.242V56.547ZM28.9,60.711a5.094,5.094,0,0,1,.887-3.148,2.877,2.877,0,0,1,2.426-1.172,2.589,2.589,0,0,1,2.039.922V53h2.266V65H34.477l-.109-.9A2.657,2.657,0,0,1,32.2,65.156,2.869,2.869,0,0,1,29.8,63.98,5.258,5.258,0,0,1,28.9,60.711Zm2.258.168A3.337,3.337,0,0,0,31.57,62.7a1.349,1.349,0,0,0,1.2.634,1.511,1.511,0,0,0,1.477-.884V59.111a1.489,1.489,0,0,0-1.461-.884Q31.156,58.227,31.156,60.879ZM40.648,65H38.383V56.547h2.266Zm-2.4-10.641a1.112,1.112,0,0,1,.34-.836,1.465,1.465,0,0,1,1.848,0,1.193,1.193,0,0,1,0,1.68,1.448,1.448,0,0,1-1.836,0A1.108,1.108,0,0,1,38.25,54.359Zm6.336,2.188.07.977a2.951,2.951,0,0,1,2.43-1.133,2.453,2.453,0,0,1,2,.789,3.682,3.682,0,0,1,.672,2.359V65H47.5V59.594a1.465,1.465,0,0,0-.312-1.043,1.4,1.4,0,0,0-1.039-.324,1.553,1.553,0,0,0-1.43.813V65H42.461V56.547ZM56.367,65a2.507,2.507,0,0,1-.227-.758,2.732,2.732,0,0,1-2.133.914,3,3,0,0,1-2.059-.719,2.312,2.312,0,0,1-.816-1.812,2.389,2.389,0,0,1,1-2.062,4.915,4.915,0,0,1,2.879-.727h1.039v-.484a1.393,1.393,0,0,0-.3-.937,1.183,1.183,0,0,0-.949-.352,1.345,1.345,0,0,0-.895.273.929.929,0,0,0-.324.75H51.32a2.268,2.268,0,0,1,.453-1.359,3,3,0,0,1,1.281-.98,4.669,4.669,0,0,1,1.859-.355,3.689,3.689,0,0,1,2.48.785,2.747,2.747,0,0,1,.918,2.207v3.664a4.041,4.041,0,0,0,.336,1.82V65ZM54.5,63.43a1.945,1.945,0,0,0,.922-.223,1.462,1.462,0,0,0,.625-.6V61.156H55.2q-1.7,0-1.8,1.172l-.008.133a.9.9,0,0,0,.3.7A1.153,1.153,0,0,0,54.5,63.43Zm7.664-6.883.07.945a2.971,2.971,0,0,1,2.43-1.1,2.255,2.255,0,0,1,2.242,1.289,2.9,2.9,0,0,1,2.539-1.289,2.521,2.521,0,0,1,2.047.8,3.681,3.681,0,0,1,.672,2.41V65H69.9V59.609a1.61,1.61,0,0,0-.281-1.051,1.246,1.246,0,0,0-.992-.332,1.409,1.409,0,0,0-1.406.969l.008,5.8H64.969V59.617a1.59,1.59,0,0,0-.289-1.062,1.259,1.259,0,0,0-.984-.328,1.463,1.463,0,0,0-1.391.8V65H60.047V56.547ZM78.8,65a2.507,2.507,0,0,1-.227-.758,2.732,2.732,0,0,1-2.133.914,3,3,0,0,1-2.059-.719,2.312,2.312,0,0,1-.816-1.812,2.389,2.389,0,0,1,1-2.062,4.915,4.915,0,0,1,2.879-.727h1.039v-.484a1.393,1.393,0,0,0-.3-.937,1.183,1.183,0,0,0-.949-.352,1.345,1.345,0,0,0-.895.273.929.929,0,0,0-.324.75H73.75a2.268,2.268,0,0,1,.453-1.359,3,3,0,0,1,1.281-.98,4.669,4.669,0,0,1,1.859-.355,3.689,3.689,0,0,1,2.48.785,2.747,2.747,0,0,1,.918,2.207v3.664a4.041,4.041,0,0,0,.336,1.82V65ZM76.93,63.43a1.945,1.945,0,0,0,.922-.223,1.462,1.462,0,0,0,.625-.6V61.156h-.844q-1.7,0-1.8,1.172l-.008.133a.9.9,0,0,0,.3.7A1.153,1.153,0,0,0,76.93,63.43Zm10.3-4.766a6.134,6.134,0,0,0-.812-.062,1.654,1.654,0,0,0-1.68.867V65H82.477V56.547h2.133l.063,1.008a2.092,2.092,0,0,1,1.883-1.164,2.366,2.366,0,0,1,.7.1Zm4.453,4.672a1.481,1.481,0,0,0,1.016-.344,1.2,1.2,0,0,0,.406-.914h2.117a2.9,2.9,0,0,1-.469,1.574,3.093,3.093,0,0,1-1.262,1.109,3.949,3.949,0,0,1-1.77.395A3.67,3.67,0,0,1,88.859,64a4.56,4.56,0,0,1-1.047-3.184v-.148a4.508,4.508,0,0,1,1.039-3.117A3.627,3.627,0,0,1,91.7,56.391a3.555,3.555,0,0,1,2.543.9,3.2,3.2,0,0,1,.973,2.4H93.1a1.551,1.551,0,0,0-.406-1.072,1.51,1.51,0,0,0-2.223.163,3.333,3.333,0,0,0-.4,1.866v.235a3.375,3.375,0,0,0,.4,1.878A1.377,1.377,0,0,0,91.68,63.336ZM101.406,65a2.507,2.507,0,0,1-.227-.758,2.732,2.732,0,0,1-2.133.914,3,3,0,0,1-2.059-.719,2.312,2.312,0,0,1-.816-1.812,2.389,2.389,0,0,1,1-2.062,4.915,4.915,0,0,1,2.879-.727h1.039v-.484a1.393,1.393,0,0,0-.3-.937,1.183,1.183,0,0,0-.949-.352,1.345,1.345,0,0,0-.895.273.929.929,0,0,0-.324.75H96.359a2.268,2.268,0,0,1,.453-1.359,3,3,0,0,1,1.281-.98,4.669,4.669,0,0,1,1.859-.355,3.689,3.689,0,0,1,2.48.785,2.747,2.747,0,0,1,.918,2.207v3.664a4.041,4.041,0,0,0,.336,1.82V65Zm-1.867-1.57a1.945,1.945,0,0,0,.922-.223,1.462,1.462,0,0,0,.625-.6V61.156h-.844q-1.7,0-1.8,1.172l-.008.133a.9.9,0,0,0,.3.7A1.153,1.153,0,0,0,99.539,63.43ZM114.461,65H112.2V56.3l-2.7.836V55.3l4.711-1.687h.242Zm9.82-11.492v1.859h-.219a3.836,3.836,0,0,0-2.465.8,3.238,3.238,0,0,0-1.121,2.148,3.075,3.075,0,0,1,2.289-.922,2.9,2.9,0,0,1,2.359,1.063,4.259,4.259,0,0,1,.875,2.8,4.19,4.19,0,0,1-.48,2.008,3.446,3.446,0,0,1-1.359,1.4,3.949,3.949,0,0,1-1.988.5,3.689,3.689,0,0,1-2.9-1.25,4.852,4.852,0,0,1-1.105-3.336v-.812a7.3,7.3,0,0,1,.7-3.27,5.127,5.127,0,0,1,2.008-2.2,5.884,5.884,0,0,1,3.035-.785Zm-2.2,5.7a1.8,1.8,0,0,0-.992.285,1.715,1.715,0,0,0-.656.753v.686a3.04,3.04,0,0,0,.445,1.766,1.439,1.439,0,0,0,1.25.635,1.423,1.423,0,0,0,1.176-.573,2.69,2.69,0,0,0,0-2.983A1.477,1.477,0,0,0,122.078,59.211Zm31.461-.9h1.2a1.7,1.7,0,0,0,1.273-.43,1.574,1.574,0,0,0,.414-1.141,1.392,1.392,0,0,0-.41-1.07,1.59,1.59,0,0,0-1.129-.383,1.666,1.666,0,0,0-1.086.355,1.137,1.137,0,0,0-.437.926h-2.258a2.777,2.777,0,0,1,.48-1.6,3.2,3.2,0,0,1,1.344-1.105,4.485,4.485,0,0,1,1.9-.4,4.253,4.253,0,0,1,2.828.863,2.945,2.945,0,0,1,1.023,2.379,2.394,2.394,0,0,1-.477,1.438,3.1,3.1,0,0,1-1.25,1.008,2.826,2.826,0,0,1,1.434,1.031,2.8,2.8,0,0,1,.473,1.625,2.994,2.994,0,0,1-1.105,2.43,4.445,4.445,0,0,1-2.926.914,4.214,4.214,0,0,1-2.785-.9,2.934,2.934,0,0,1-1.082-2.375h2.258a1.308,1.308,0,0,0,.48,1.047,2,2,0,0,0,2.445-.02,1.47,1.47,0,0,0,.457-1.129q0-1.7-1.875-1.7h-1.2ZM168.219,65h-7.8V63.453l3.68-3.922a9.078,9.078,0,0,0,1.121-1.445,2.322,2.322,0,0,0,.363-1.172,1.738,1.738,0,0,0-.383-1.191,1.382,1.382,0,0,0-1.094-.434,1.49,1.49,0,0,0-1.207.527,2.089,2.089,0,0,0-.441,1.387H160.2a3.729,3.729,0,0,1,.5-1.9,3.5,3.5,0,0,1,1.4-1.348,4.262,4.262,0,0,1,2.055-.488,4.036,4.036,0,0,1,2.73.844,2.985,2.985,0,0,1,.973,2.383,3.825,3.825,0,0,1-.437,1.719,9.552,9.552,0,0,1-1.5,2.039l-2.586,2.727h4.891Zm5.336-9.187a2.249,2.249,0,0,1,.68-1.7,2.465,2.465,0,0,1,1.781-.652,2.5,2.5,0,0,1,1.8.645,2.292,2.292,0,0,1,.68,1.746v.563a2.221,2.221,0,0,1-.68,1.7,2.806,2.806,0,0,1-3.574,0,2.275,2.275,0,0,1-.684-1.738Zm1.5.6a1.053,1.053,0,0,0,.27.754.928.928,0,0,0,.707.285.885.885,0,0,0,.7-.289,1.119,1.119,0,0,0,.258-.773v-.578a1.1,1.1,0,0,0-.258-.758,1,1,0,0,0-1.406,0,1.119,1.119,0,0,0-.266.793Zm3.938,5.8a2.22,2.22,0,0,1,.688-1.7,2.5,2.5,0,0,1,1.781-.645,2.525,2.525,0,0,1,1.793.637,2.279,2.279,0,0,1,.684,1.754v.563a2.237,2.237,0,0,1-.672,1.691,2.476,2.476,0,0,1-1.789.645,2.506,2.506,0,0,1-1.8-.648,2.265,2.265,0,0,1-.68-1.719Zm1.5.609a1.044,1.044,0,0,0,.281.734.917.917,0,0,0,.7.3q.953,0,.953-1.055v-.594a1.062,1.062,0,0,0-.266-.754,1.009,1.009,0,0,0-1.406,0,1.1,1.1,0,0,0-.266.777Zm-4.016,1.328-1.1-.594,5.555-8.891,1.1.594ZM7.438,86.656H3.328L2.547,89H.055L4.289,77.625H6.461L10.719,89H8.227Zm-3.477-1.9H6.8L5.375,80.5Zm9.375-4.211.07.977a2.951,2.951,0,0,1,2.43-1.133,2.453,2.453,0,0,1,2,.789,3.682,3.682,0,0,1,.672,2.359V89H16.25V83.594a1.465,1.465,0,0,0-.312-1.043,1.4,1.4,0,0,0-1.039-.324,1.553,1.553,0,0,0-1.43.813V89H11.211V80.547Zm9.586-2.078v2.078h1.445V82.2H22.922v4.219a1.007,1.007,0,0,0,.18.672.9.9,0,0,0,.688.2,3.6,3.6,0,0,0,.664-.055v1.711a4.648,4.648,0,0,1-1.367.2,2.156,2.156,0,0,1-2.422-2.4V82.2H19.43V80.547h1.234V78.469ZM28.008,89H25.742V80.547h2.266Zm-2.4-10.641a1.112,1.112,0,0,1,.34-.836,1.465,1.465,0,0,1,1.848,0,1.193,1.193,0,0,1,0,1.68,1.448,1.448,0,0,1-1.836,0A1.108,1.108,0,0,1,25.609,78.359ZM29.516,84.7A5.013,5.013,0,0,1,30,82.453a3.546,3.546,0,0,1,1.395-1.523,4.069,4.069,0,0,1,2.113-.539A3.849,3.849,0,0,1,36.3,81.438a4.2,4.2,0,0,1,1.207,2.844l.016.578a4.418,4.418,0,0,1-1.086,3.121,3.775,3.775,0,0,1-2.914,1.176,3.793,3.793,0,0,1-2.918-1.172,4.5,4.5,0,0,1-1.09-3.187Zm2.258.16a3.16,3.16,0,0,0,.453,1.843,1.628,1.628,0,0,0,2.578.008,3.457,3.457,0,0,0,.461-2.015A3.128,3.128,0,0,0,34.8,82.86a1.5,1.5,0,0,0-1.3-.649,1.474,1.474,0,0,0-1.281.646A3.516,3.516,0,0,0,31.773,84.856Zm6.789-.16a5.053,5.053,0,0,1,.887-3.148,2.9,2.9,0,0,1,2.434-1.156,2.6,2.6,0,0,1,2.164,1.039l.148-.883H46.18v11.7H43.914V88.273a2.6,2.6,0,0,1-2.047.883,2.878,2.878,0,0,1-2.406-1.172A5.3,5.3,0,0,1,38.563,84.7Zm2.258.16a3.314,3.314,0,0,0,.426,1.847,1.363,1.363,0,0,0,1.2.634,1.518,1.518,0,0,0,1.469-.829v-3.5a1.506,1.506,0,0,0-1.453-.8,1.38,1.38,0,0,0-1.211.634A3.661,3.661,0,0,0,40.82,84.856Zm12.2,3.285A2.831,2.831,0,0,1,50.7,89.156a2.67,2.67,0,0,1-2.074-.781,3.335,3.335,0,0,1-.73-2.289V80.547h2.258v5.467q0,1.322,1.2,1.322a1.63,1.63,0,0,0,1.578-.8V80.547H55.2V89H53.078ZM59.344,89H57.086V80.547h2.258ZM58.68,77.117h2.461l-2.164,2.422H57.141ZM66.188,89a2.507,2.507,0,0,1-.227-.758,2.732,2.732,0,0,1-2.133.914,3,3,0,0,1-2.059-.719,2.312,2.312,0,0,1-.816-1.812,2.389,2.389,0,0,1,1-2.062,4.915,4.915,0,0,1,2.879-.727h1.039v-.484a1.393,1.393,0,0,0-.3-.937,1.183,1.183,0,0,0-.949-.352,1.345,1.345,0,0,0-.895.273.929.929,0,0,0-.324.75H61.141a2.268,2.268,0,0,1,.453-1.359,3,3,0,0,1,1.281-.98,4.669,4.669,0,0,1,1.859-.355,3.689,3.689,0,0,1,2.48.785,2.747,2.747,0,0,1,.918,2.207v3.664a4.041,4.041,0,0,0,.336,1.82V89ZM64.32,87.43a1.945,1.945,0,0,0,.922-.223,1.462,1.462,0,0,0,.625-.6V85.156h-.844q-1.7,0-1.8,1.172l-.008.133a.9.9,0,0,0,.3.7A1.153,1.153,0,0,0,64.32,87.43ZM115.1,89h-2.258V80.3l-2.7.836V79.3l4.711-1.687h.242Zm4.031-5.594.656-5.781h6.375v1.883h-4.523l-.281,2.445a3.58,3.58,0,0,1,1.711-.43,3.279,3.279,0,0,1,2.547,1.008,4.026,4.026,0,0,1,.922,2.82,4.124,4.124,0,0,1-.465,1.973,3.281,3.281,0,0,1-1.332,1.352,4.158,4.158,0,0,1-2.047.48,4.416,4.416,0,0,1-1.914-.418,3.4,3.4,0,0,1-1.395-1.176,3.2,3.2,0,0,1-.543-1.727h2.234a1.669,1.669,0,0,0,.5,1.105,1.573,1.573,0,0,0,1.113.395,1.388,1.388,0,0,0,1.18-.551,2.551,2.551,0,0,0,.414-1.559,2.11,2.11,0,0,0-.477-1.484,1.749,1.749,0,0,0-1.352-.516,1.954,1.954,0,0,0-1.3.422l-.219.2Zm35.047-1.094h1.2a1.7,1.7,0,0,0,1.273-.43,1.574,1.574,0,0,0,.414-1.141,1.392,1.392,0,0,0-.41-1.07,1.59,1.59,0,0,0-1.129-.383,1.666,1.666,0,0,0-1.086.355,1.137,1.137,0,0,0-.437.926H151.75a2.777,2.777,0,0,1,.48-1.6,3.2,3.2,0,0,1,1.344-1.105,4.485,4.485,0,0,1,1.9-.4,4.253,4.253,0,0,1,2.828.863,2.945,2.945,0,0,1,1.023,2.379,2.394,2.394,0,0,1-.477,1.438,3.1,3.1,0,0,1-1.25,1.008,2.826,2.826,0,0,1,1.434,1.031,2.8,2.8,0,0,1,.473,1.625,2.994,2.994,0,0,1-1.105,2.43,4.445,4.445,0,0,1-2.926.914,4.214,4.214,0,0,1-2.785-.9,2.934,2.934,0,0,1-1.082-2.375h2.258a1.308,1.308,0,0,0,.48,1.047,2,2,0,0,0,2.445-.02,1.47,1.47,0,0,0,.457-1.129q0-1.7-1.875-1.7h-1.2ZM168.719,84.3a5.762,5.762,0,0,1-.977,3.609,3.9,3.9,0,0,1-5.7.023,5.594,5.594,0,0,1-1.008-3.516V82.32a5.687,5.687,0,0,1,.988-3.617,3.91,3.91,0,0,1,5.691-.012,5.576,5.576,0,0,1,1.008,3.512Zm-2.258-2.3a4.165,4.165,0,0,0-.387-2.061,1.307,1.307,0,0,0-1.207-.645,1.284,1.284,0,0,0-1.176.614,3.9,3.9,0,0,0-.4,1.92v2.768a4.372,4.372,0,0,0,.379,2.068,1.29,1.29,0,0,0,1.215.676,1.268,1.268,0,0,0,1.2-.649,4.268,4.268,0,0,0,.383-1.986Zm7.734-2.182a2.249,2.249,0,0,1,.68-1.7,2.465,2.465,0,0,1,1.781-.652,2.5,2.5,0,0,1,1.8.645,2.292,2.292,0,0,1,.68,1.746v.563a2.221,2.221,0,0,1-.68,1.7,2.806,2.806,0,0,1-3.574,0,2.275,2.275,0,0,1-.684-1.738Zm1.5.6a1.053,1.053,0,0,0,.27.754.928.928,0,0,0,.707.285.885.885,0,0,0,.7-.289,1.119,1.119,0,0,0,.258-.773v-.578a1.1,1.1,0,0,0-.258-.758,1,1,0,0,0-1.406,0,1.119,1.119,0,0,0-.266.793Zm3.938,5.8a2.22,2.22,0,0,1,.688-1.7,2.5,2.5,0,0,1,1.781-.645,2.525,2.525,0,0,1,1.793.637,2.279,2.279,0,0,1,.684,1.754v.563a2.237,2.237,0,0,1-.672,1.691,2.476,2.476,0,0,1-1.789.645,2.506,2.506,0,0,1-1.8-.648,2.265,2.265,0,0,1-.68-1.719Zm1.5.609a1.044,1.044,0,0,0,.281.734.917.917,0,0,0,.7.3q.953,0,.953-1.055v-.594a1.062,1.062,0,0,0-.266-.754,1.009,1.009,0,0,0-1.406,0,1.1,1.1,0,0,0-.266.777Zm-4.016,1.328-1.1-.594,5.555-8.891,1.1.594Z" transform="translate(1230.333 10196.064)" fill="#12263f"/>
    <path id="Trazado_622246" data-name="Trazado 622246" d="M0,0V13" transform="translate(1368.833 10198.564)" fill="none" stroke="#707070" stroke-width="1"/>
    <path id="Trazado_622244" data-name="Trazado 622244" d="M0,0V13" transform="translate(1368.833 10222.564)" fill="none" stroke="#707070" stroke-width="1"/>
    <path id="Trazado_622242" data-name="Trazado 622242" d="M0,0V13" transform="translate(1368.833 10246.564)" fill="none" stroke="#707070" stroke-width="1"/>
    <path id="Trazado_622240" data-name="Trazado 622240" d="M0,0V13" transform="translate(1368.833 10270.564)" fill="none" stroke="#707070" stroke-width="1"/>
    <path id="Trazado_622245" data-name="Trazado 622245" d="M0,0H12V13H0Z" transform="translate(1215.333 10199.064)" fill="#ced371"/>
    <path id="Trazado_622243" data-name="Trazado 622243" d="M0,0H12V13H0Z" transform="translate(1215.333 10223.064)" fill="#a3314f"/>
    <path id="Trazado_622241" data-name="Trazado 622241" d="M0,0H12V13H0Z" transform="translate(1215.333 10247.064)" fill="#e2e2e2"/>
    <path id="Trazado_622239" data-name="Trazado 622239" d="M0,0H12V13H0Z" transform="translate(1215.333 10271.064)" fill="#ffb500"/>
  </g>
</svg>
