<svg id="Grupo_238307" data-name="Grupo 238307" xmlns="http://www.w3.org/2000/svg" width="102.226" height="102.205" viewBox="0 0 102.226 102.205">
  <g id="Grupo_238308" data-name="Grupo 238308">
    <path id="Trazado_267721" data-name="Trazado 267721" d="M349.071,49.674c-.115.226-.245.447-.344.681a4.476,4.476,0,0,1-8.626-1.583c-.041-1.129-.012-2.261-.013-3.392,0-1.093,0-2.187,0-3.387-2.106,0-4.152-.009-6.2,0a4.632,4.632,0,0,1-4.087-1.851,4.246,4.246,0,0,1-.493-4.433,3.966,3.966,0,0,1,3.586-2.612,84.753,84.753,0,0,1,9.958.09c2.845.27,4.758,2.162,5.792,4.856.135.352.284.7.426,1.049Zm-3-5.262c0-1.163.005-2.325,0-3.487-.016-3.07-1.807-4.874-4.895-4.9-2.125-.02-4.25-.007-6.375,0a14.72,14.72,0,0,0-1.59.05,1.438,1.438,0,0,0-.04,2.85,6.625,6.625,0,0,0,.992.054c2.258,0,4.516,0,6.774.005,1.665.007,2.143.489,2.145,2.13,0,2.424-.01,4.849.006,7.273.007,1.1.581,1.744,1.482,1.748s1.481-.637,1.5-1.733c.02-1.328,0-2.657.005-3.985" transform="translate(-246.845 -24.923)" fill="#060404"/>
    <path id="Trazado_267722" data-name="Trazado 267722" d="M349.068,310.977a22.276,22.276,0,0,1-1.39,2.678,7.335,7.335,0,0,1-6.3,3.209q-3.89.03-7.781,0a4.376,4.376,0,0,1-4.284-2.693,4.26,4.26,0,0,1,.732-4.743,4.658,4.658,0,0,1,3.832-1.549c2.028.008,4.055,0,6.208,0,0-1.676,0-3.325,0-4.975,0-.565-.013-1.131.005-1.7a4.455,4.455,0,0,1,3.917-4.433,4.357,4.357,0,0,1,4.9,3.4c.022.081.107.146.162.218Zm-3-5.475c0-1.3.008-2.591,0-3.886-.01-1.2-.53-1.852-1.458-1.872-.972-.021-1.523.651-1.527,1.9-.008,2.358,0,4.716,0,7.074,0,1.7-.467,2.168-2.2,2.173-2.424.008-4.848-.013-7.272.013a1.513,1.513,0,0,0-1.686,1.446,1.5,1.5,0,0,0,1.642,1.488c2.723.022,5.447.067,8.167-.026a4.371,4.371,0,0,0,4.336-4.526c.027-1.262,0-2.524.006-3.786" transform="translate(-246.842 -222.745)" fill="#060404"/>
    <path id="Trazado_267723" data-name="Trazado 267723" d="M358.674,192.6a15.606,15.606,0,0,1-1.137,1.935,4.364,4.364,0,0,1-3.618,1.562c-2.494.01-4.988.04-7.481-.008a4.5,4.5,0,0,1-4.654-3.689,4.386,4.386,0,0,1,2.532-4.824,6.845,6.845,0,0,1,2.415-.451c2.126-.06,4.255-.021,6.384-.02,3.259,0,4.388.752,5.561,3.7Zm-8.5.477c1.261,0,2.522.021,3.782-.007,1.035-.023,1.676-.592,1.7-1.431.025-.87-.647-1.5-1.724-1.506q-3.732-.034-7.464,0c-1.09.009-1.758.611-1.75,1.482s.674,1.439,1.774,1.459c1.227.023,2.455.005,3.682,0" transform="translate(-256.448 -140.503)" fill="#0a0706"/>
    <path id="Trazado_267724" data-name="Trazado 267724" d="M190.643,358.664a15.611,15.611,0,0,1-1.935-1.138,4.366,4.366,0,0,1-1.561-3.619c-.01-2.494-.039-4.989.008-7.483a4.5,4.5,0,0,1,3.688-4.655,4.384,4.384,0,0,1,4.823,2.532,6.848,6.848,0,0,1,.451,2.415c.06,2.127.021,4.256.021,6.385,0,3.259-.752,4.388-3.7,5.562Zm2.472-8.511c0-1.261.024-2.522-.007-3.782a1.478,1.478,0,1,0-2.932,0q-.04,3.782,0,7.565a1.519,1.519,0,0,0,1.42,1.71c.868.032,1.493-.643,1.516-1.715.028-1.26.007-2.522,0-3.783" transform="translate(-140.51 -256.459)" fill="#0a0706"/>
    <path id="Trazado_267725" data-name="Trazado 267725" d="M85.774,123.565c-.469-1.433-.385-1.587,1.63-2.846a9.042,9.042,0,0,1-3.46-8.691,8.717,8.717,0,0,1,3.574-5.883,9.142,9.142,0,0,1,12.9,2.171,11.221,11.221,0,0,1,3.7-8.241,10.634,10.634,0,0,1,8.449-2.768c5.555.56,9.509,4.949,9.88,11.007a9.26,9.26,0,0,1,6.9-3.9,8.861,8.861,0,0,1,7.322,2.911,9.125,9.125,0,0,1-1.118,13.356c.974.712,2,1.355,2.9,2.145,3.335,2.922,4.455,6.716,4.194,11.021-.056.922-.66,1.312-1.473,1.49a1.738,1.738,0,0,1-1.514-1.99c.007-.729-.037-1.459-.085-2.188a9.494,9.494,0,0,0-9.376-8.534,7.8,7.8,0,0,0-4.51.956,16.732,16.732,0,0,1,3.134,8.884c.1,2.754.064,5.513.088,8.27,0,.352,0,.7,0,1.078h10.732c.083-1.329-.3-2.813,1.531-3.163a1.71,1.71,0,0,1,1.508,1.985c-.022.664,0,1.329,0,1.994-.006,1.83-.415,2.25-2.216,2.253q-5.183.007-10.367,0h-1.189c0,1.44.006,2.791,0,4.141-.01,1.665-.478,2.133-2.138,2.133q-10.566,0-21.132,0c-1.353,0-1.743-.3-2.066-1.515.344-1.2.706-1.477,1.991-1.481q7.926-.023,15.852-.037h4.39a4.694,4.694,0,0,0,.071-.55c-.009-4.923.074-9.848-.058-14.767a14.234,14.234,0,0,0-12.988-13.462,1.8,1.8,0,0,0-.287-.076,14.375,14.375,0,0,0-15.477,13.5c-.152,4.979-.052,9.966-.061,14.949a1.552,1.552,0,0,0,.076.348c2.707.349,2.707.349,3.129,1.579-.4,1.24-.765,1.5-2.086,1.512-.764,0-1.528.012-2.292,0-1.281-.024-1.826-.534-1.854-1.81-.032-1.451-.007-2.9-.007-4.463H90.622c-2.756,0-5.512.005-8.269,0-1.679,0-2.148-.459-2.144-2.12.011-3.819-.041-7.642.11-11.455a15.491,15.491,0,0,1,.976-4.123c.422-1.277.975-1.473,2.308-1.153a1.908,1.908,0,0,1,.442,2.33,12.273,12.273,0,0,0-.766,3.464c-.109,3.217-.052,6.439-.054,9.659a1.021,1.021,0,0,0,.108.325h10.64c0-1.986.049-3.906-.011-5.823a21.213,21.213,0,0,1,1.93-10.346l1.461-2.358-4.269-.663a8.26,8.26,0,0,0-4.9,1.158,1.8,1.8,0,0,1-2.411-.206m33.648-15.381a7.976,7.976,0,1,0-7.982,8.025,8.043,8.043,0,0,0,7.982-8.025m-20.478,5.248a6.06,6.06,0,1,0-6.083,6.063,6.058,6.058,0,0,0,6.083-6.063m37.123-.008a6.06,6.06,0,1,0-6.075,6.07,6.059,6.059,0,0,0,6.075-6.07m-37.62,7.5c.366,0,.829.145,1.084-.023,1.859-1.228,3.676-2.519,5.405-3.72l-3-3.182a10.476,10.476,0,0,1-3.489,6.925m19.506-3.744c1.724,1.192,3.5,2.448,5.309,3.642.293.193.766.115,1.156.162l.075-.325a9.292,9.292,0,0,1-3.549-6.641l-2.991,3.162" transform="translate(-60.315 -73.112)" fill="#030505"/>
    <path id="Trazado_267726" data-name="Trazado 267726" d="M150.561,215.531c-.422-1.229-.422-1.229-3.129-1.579a1.551,1.551,0,0,1-.076-.348c.009-4.983-.091-9.97.061-14.949a14.375,14.375,0,0,1,15.477-13.5,1.762,1.762,0,0,1,.287.077,4.533,4.533,0,0,0,.514.433,15.966,15.966,0,0,1,8.074,14.315c.009,4.677,0,9.354,0,14.031q-7.926.018-15.852.037c-1.284,0-1.647.282-1.991,1.481l-3.361,0m11.089-11.176c-.323-.3-.568-.519-.8-.749-1.628-1.615-3.238-3.249-4.886-4.844-.966-.935-2.381-.679-2.57.511a2.363,2.363,0,0,0,.637,1.719c2.042,2.139,4.167,4.2,6.266,6.284,1.318,1.309,2.118,1.234,3.19-.306q3.356-4.828,6.7-9.662a5.017,5.017,0,0,0,.415-.678,1.463,1.463,0,0,0-2.37-1.682,7.352,7.352,0,0,0-.661.871c-1.952,2.808-3.9,5.619-5.923,8.536" transform="translate(-110.66 -139.002)" fill="#b55a72"/>
    <path id="Trazado_267727" data-name="Trazado 267727" d="M94.783,199.6a1.8,1.8,0,0,0,2.411.206,8.261,8.261,0,0,1,4.9-1.158,7.33,7.33,0,0,0,.5.651c.762.8,1.536,1.581,2.307,2.37a21.209,21.209,0,0,0-1.93,10.346c.06,1.917.011,3.837.011,5.823H92.342a1.02,1.02,0,0,1-.108-.325c0-3.22-.055-6.442.054-9.659a12.282,12.282,0,0,1,.766-3.464,1.908,1.908,0,0,0-.441-2.329l2.171-2.462" transform="translate(-69.324 -149.143)" fill="#e2e2e2"/>
    <path id="Trazado_267728" data-name="Trazado 267728" d="M9.658,41.906c0,2.309.043,4.531-.013,6.75a4.233,4.233,0,0,1-2.644,4,4.285,4.285,0,0,1-4.744-.683A4.228,4.228,0,0,1,.693,48.659C.665,45.869.616,43.076.7,40.288c.132-4.271,3.238-7.235,7.686-7.36,2.589-.073,5.182-.055,7.772,0a4.467,4.467,0,0,1,4.589,3.633,4.352,4.352,0,0,1-2.467,4.845,7.045,7.045,0,0,1-2.5.479c-1.99.067-3.984.021-6.12.021M3.676,44.278c0,1.3-.008,2.59,0,3.886.009,1.2.527,1.854,1.454,1.875.973.023,1.526-.648,1.531-1.9.008-2.358,0-4.716,0-7.074,0-1.706.467-2.171,2.2-2.177,2.424-.008,4.848.013,7.272-.013a1.514,1.514,0,0,0,1.69-1.443,1.5,1.5,0,0,0-1.638-1.492c-2.722-.023-5.447-.067-8.167.026a4.371,4.371,0,0,0-4.339,4.523c-.027,1.262,0,2.524-.006,3.786" transform="translate(-0.644 -24.836)" fill="#060404"/>
    <path id="Trazado_267729" data-name="Trazado 267729" d="M9.636,307.806c2.165,0,4.224-.019,6.283,0,2.468.028,4.14,1.23,4.715,3.341a4.315,4.315,0,0,1-3.778,5.535,91.285,91.285,0,0,1-9.952-.048c-3.339-.217-6.085-3.445-6.219-7.084-.105-2.853-.076-5.714-.01-8.57a4.475,4.475,0,0,1,8.946.04c.044,1.128.012,2.259.014,3.388,0,1.093,0,2.185,0,3.394m2.411,5.952v.006c1.428,0,2.855.014,4.283-.006a1.272,1.272,0,0,0,1.39-1.159,2.136,2.136,0,0,0-.579-1.45,2.017,2.017,0,0,0-1.3-.313c-2.39-.028-4.781,0-7.172-.019-1.525-.011-2.026-.528-2.029-2.043-.006-2.458.01-4.916-.007-7.373-.008-1.1-.59-1.737-1.5-1.733s-1.475.649-1.481,1.748c-.015,2.624-.037,5.248.007,7.871a4.375,4.375,0,0,0,4.3,4.457c1.357.074,2.722.013,4.083.013" transform="translate(-0.617 -222.672)" fill="#060404"/>
    <path id="Trazado_267730" data-name="Trazado 267730" d="M196.141,9.279c0,1.461.091,2.929-.021,4.381a4.381,4.381,0,0,1-4.433,4,4.31,4.31,0,0,1-4.366-3.95c-.128-3.016-.128-6.046,0-9.062A4.31,4.31,0,0,1,191.688.7a4.377,4.377,0,0,1,4.431,4c.114,1.519.021,3.053.021,4.581m-2.952,0c0-1.261.017-2.522-.005-3.782-.019-1.108-.576-1.771-1.445-1.788s-1.485.653-1.495,1.736q-.033,3.732,0,7.465c.009,1.084.622,1.754,1.492,1.738s1.427-.679,1.447-1.786c.022-1.194.005-2.389.005-3.583" transform="translate(-140.581 -0.698)" fill="#0a0707"/>
    <path id="Trazado_267731" data-name="Trazado 267731" d="M9.223,196.1c-1.494,0-2.995.092-4.48-.021a4.377,4.377,0,0,1-3.97-4.359,4.317,4.317,0,0,1,3.978-4.441c3.015-.128,6.045-.126,9.06.006a4.308,4.308,0,0,1,3.92,4.394,4.372,4.372,0,0,1-3.929,4.4c-1.518.118-3.052.022-4.579.022v0m.029-5.9c-1.228,0-2.455-.017-3.682.005-1.107.02-1.77.577-1.787,1.446s.653,1.484,1.737,1.494q3.732.033,7.464,0c1.084-.009,1.754-.623,1.737-1.494s-.68-1.427-1.787-1.446c-1.227-.022-2.455-.005-3.682-.005" transform="translate(-0.733 -140.568)" fill="#0a0707"/>
    <path id="Trazado_267732" data-name="Trazado 267732" d="M291.212,214.794c-1.829.35-1.448,1.834-1.531,3.163h-4.447c0-3.213.045-6.427-.021-9.64a10.587,10.587,0,0,0-2.825-7.306c-.71-.754-1.434-1.5-2.151-2.243a9.494,9.494,0,0,1,9.376,8.534c.048.728.092,1.459.086,2.188a1.738,1.738,0,0,0,1.514,1.99v3.315" transform="translate(-210.346 -149.259)" fill="#afafaf"/>
    <path id="Trazado_267733" data-name="Trazado 267733" d="M355.206,53.457c0,1.328.015,2.657,0,3.985-.016,1.1-.591,1.737-1.5,1.733s-1.475-.649-1.482-1.748c-.016-2.425,0-4.849-.007-7.273,0-1.641-.48-2.123-2.145-2.13-2.258-.01-4.516,0-6.774,0a6.628,6.628,0,0,1-.992-.054,1.438,1.438,0,0,1,.04-2.85,14.718,14.718,0,0,1,1.59-.05c2.125,0,4.25-.018,6.375,0,3.088.029,4.879,1.833,4.9,4.9.006,1.163,0,2.325,0,3.487" transform="translate(-255.976 -33.968)" fill="#ffb500"/>
    <path id="Trazado_267734" data-name="Trazado 267734" d="M355.148,314.508c0,1.262.022,2.524-.005,3.786a4.371,4.371,0,0,1-4.336,4.526c-2.719.093-5.445.049-8.167.027A1.5,1.5,0,0,1,341,321.359a1.513,1.513,0,0,1,1.686-1.446c2.424-.026,4.848,0,7.272-.013,1.735-.006,2.2-.469,2.2-2.173,0-2.358-.005-4.716,0-7.074,0-1.251.556-1.922,1.527-1.9.928.02,1.448.676,1.457,1.872.01,1.3,0,2.59,0,3.886" transform="translate(-255.919 -231.752)" fill="#ffb500"/>
    <path id="Trazado_267735" data-name="Trazado 267735" d="M359.239,202.161c-1.227,0-2.455.018-3.682,0-1.1-.02-1.766-.589-1.774-1.459s.66-1.473,1.75-1.482q3.732-.031,7.464,0c1.077.01,1.749.636,1.724,1.506-.024.839-.665,1.408-1.7,1.431-1.26.028-2.521.007-3.782.007" transform="translate(-265.508 -149.583)" fill="#ffb500"/>
    <path id="Trazado_267736" data-name="Trazado 267736" d="M202.2,359.215c0,1.261.022,2.522-.006,3.783-.024,1.072-.648,1.746-1.516,1.715a1.519,1.519,0,0,1-1.42-1.71q-.034-3.782,0-7.565a1.478,1.478,0,1,1,2.932,0c.032,1.26.007,2.521.008,3.782" transform="translate(-149.593 -265.521)" fill="#ffb500"/>
    <path id="Trazado_267737" data-name="Trazado 267737" d="M189.222,117.221a7.976,7.976,0,1,1-8.069-7.927,8.079,8.079,0,0,1,8.069,7.927" transform="translate(-130.116 -82.15)" fill="#fcd480"/>
    <path id="Trazado_267738" data-name="Trazado 267738" d="M219.325,214.428c0-4.677.013-9.354,0-14.031a15.966,15.966,0,0,0-8.074-14.315,4.526,4.526,0,0,1-.514-.433,14.233,14.233,0,0,1,12.988,13.462c.132,4.919.048,9.845.058,14.767a4.642,4.642,0,0,1-.071.55Z" transform="translate(-158.219 -139.42)" fill="#a3314f"/>
    <path id="Trazado_267739" data-name="Trazado 267739" d="M266.7,198.653c.717.747,1.44,1.489,2.151,2.243a10.587,10.587,0,0,1,2.825,7.307c.067,3.212.019,6.426.021,9.64h-6.285c0-.374,0-.727,0-1.079-.024-2.757.013-5.516-.088-8.27a16.73,16.73,0,0,0-3.134-8.884,7.8,7.8,0,0,1,4.51-.956" transform="translate(-196.812 -149.144)" fill="#e2e2e2"/>
    <path id="Trazado_267740" data-name="Trazado 267740" d="M118.793,143.825a6.06,6.06,0,1,1-6.086-6.06,6.059,6.059,0,0,1,6.086,6.06" transform="translate(-80.164 -103.505)" fill="#fcd480"/>
    <path id="Trazado_267741" data-name="Trazado 267741" d="M267.317,143.817a6.06,6.06,0,1,1-6.094-6.052,6.063,6.063,0,0,1,6.094,6.052" transform="translate(-191.564 -103.505)" fill="#fcd480"/>
    <path id="Trazado_267744" data-name="Trazado 267744" d="M134.528,201.76c-.77-.789-1.544-1.573-2.307-2.37a7.361,7.361,0,0,1-.5-.651l4.269.663-1.461,2.358" transform="translate(-98.951 -149.238)" fill="#afafaf"/>
    <path id="Trazado_267745" data-name="Trazado 267745" d="M179.807,232.4c2.023-2.917,3.971-5.728,5.923-8.536a7.353,7.353,0,0,1,.661-.871,1.463,1.463,0,0,1,2.37,1.682,5.017,5.017,0,0,1-.415.678q-3.348,4.833-6.7,9.662c-1.071,1.541-1.872,1.616-3.19.306-2.1-2.085-4.223-4.145-6.266-6.284a2.363,2.363,0,0,1-.637-1.719c.189-1.191,1.6-1.446,2.57-.511,1.647,1.595,3.258,3.229,4.886,4.844.232.23.477.447.8.749" transform="translate(-128.816 -167.048)" fill="#000203"/>
    <path id="Trazado_267746" data-name="Trazado 267746" d="M12.728,53.38c0-1.262-.022-2.525.005-3.786a4.371,4.371,0,0,1,4.339-4.523c2.719-.093,5.445-.049,8.167-.026a1.5,1.5,0,0,1,1.638,1.492,1.514,1.514,0,0,1-1.69,1.443c-2.424.025-4.848,0-7.272.013-1.732.006-2.2.471-2.2,2.177,0,2.358.006,4.716,0,7.074,0,1.25-.558,1.92-1.531,1.9-.927-.022-1.444-.677-1.454-1.875-.01-1.3,0-2.59,0-3.886" transform="translate(-9.694 -33.938)" fill="#ffb500"/>
    <path id="Trazado_267747" data-name="Trazado 267747" d="M21.106,322.83c-1.361,0-2.725.061-4.083-.013a4.375,4.375,0,0,1-4.3-4.457c-.045-2.623-.022-5.247-.007-7.871.006-1.1.58-1.744,1.481-1.748s1.489.637,1.5,1.733c.017,2.458,0,4.915.007,7.373,0,1.515.5,2.033,2.029,2.043,2.391.017,4.782-.009,7.172.019a2.016,2.016,0,0,1,1.3.313,2.136,2.136,0,0,1,.579,1.45,1.272,1.272,0,0,1-1.39,1.159c-1.427.02-2.855.006-4.283.006v-.006" transform="translate(-9.676 -231.744)" fill="#ffb500"/>
    <path id="Trazado_267748" data-name="Trazado 267748" d="M202.2,18.314c0,1.195.017,2.389,0,3.583-.02,1.107-.578,1.77-1.447,1.786s-1.483-.654-1.493-1.738q-.033-3.732,0-7.465c.01-1.083.624-1.754,1.495-1.736s1.426.68,1.445,1.788c.022,1.26,0,2.522,0,3.782" transform="translate(-149.592 -9.733)" fill="#ffb500"/>
    <path id="Trazado_267749" data-name="Trazado 267749" d="M18.286,199.218c1.228,0,2.455-.017,3.682,0,1.107.019,1.77.577,1.787,1.446s-.654,1.484-1.737,1.494q-3.732.033-7.464,0c-1.084-.01-1.754-.623-1.737-1.494s.68-1.427,1.787-1.446c1.227-.022,2.455,0,3.682,0" transform="translate(-9.767 -149.593)" fill="#ffb500"/>
  </g>
</svg>
